<?xml version="1.0" encoding="utf-8"?>
<!-- Generator: Adobe Illustrator 25.4.1, SVG Export Plug-In . SVG Version: 6.00 Build 0)  -->
<svg version="1.1" id="レイヤー_2" xmlns="http://www.w3.org/2000/svg" xmlns:xlink="http://www.w3.org/1999/xlink" x="0px"
	 y="0px" viewBox="0 0 130 431" style="enable-background:new 0 0 130 431;" xml:space="preserve">
<style type="text/css">
	.st0{fill:#121659;}
</style>
<g>
	<g>
		<path class="st0" d="M109.7,22.5v3.3l8.2-0.5c0.6,0,1.1-0.1,1.6-0.2c0.5-0.2,0.9-0.4,1.4-0.8c1.7,0.9,3,2,3.9,3.1s1.3,2.3,1.3,3.5
			c0,1.1-0.3,2-0.9,2.7c-0.6,0.7-1.4,1-2.5,1c-0.4,0-0.9-0.1-1.4-0.2c-0.5-0.2-1-0.4-1.5-0.8l-10,0.4v4.7l9.7-0.4
			c0.6,0,1.2-0.1,1.7-0.2c0.5-0.1,1.1-0.3,1.6-0.5c2.1,0.9,3.7,2,4.7,3.1c1,1.1,1.6,2.4,1.6,3.8c0,1.3-0.4,2.4-1.1,3.1
			c-0.7,0.7-1.7,1.1-2.9,1.1c-0.8,0-1.7-0.2-2.5-0.5c-0.8-0.3-1.7-0.8-2.6-1.5l-28.6,0.9c-0.7,0.6-1.4,1.1-2,1.4
			c-0.6,0.3-1.1,0.5-1.6,0.5c-1.3,0-2.6-0.5-3.9-1.6c-1.3-1.1-1.9-2.1-1.9-3.2c0-0.9,0.3-1.8,1-2.6c0.7-0.8,1.5-1.8,2.6-2.9
			c0.2-0.2,0.4-0.4,0.7-0.7s0.5-0.5,0.7-0.8c0.2,0.5,0.5,0.9,0.9,1.2c0.4,0.2,0.8,0.3,1.4,0.3l10.6-0.4v-4.6l-9.5,0.4
			c-1.6,0.1-2.9-0.1-3.7-0.7c-0.9-0.6-1.3-1.4-1.3-2.4c0-0.6,0.3-1.2,0.8-1.9c0.5-0.7,1.3-1.5,2.2-2.5c0.1-0.1,0.2-0.2,0.3-0.4
			c0.1-0.1,0.3-0.3,0.4-0.4c0.3,0.2,0.7,0.4,1.2,0.4c0.4,0.1,0.9,0.1,1.4,0.1l8.3-0.5v-3.5l-7.7,0.3c-0.2,0-0.4,0.1-0.5,0.1
			c-0.2,0-0.3,0-0.4,0c-0.9,0-1.5-0.2-2-0.5c-0.5-0.4-0.7-0.8-0.7-1.3c0-0.3,0.1-0.7,0.4-1.2c0.3-0.5,0.7-1.1,1.3-1.8
			c-1.6,0.7-3,1.2-4.3,1.6c-1.1,0.3-1.9,0.5-2.5,0.5c-0.7,0-1.3-0.2-1.8-0.6c-0.5-0.4-0.7-0.9-0.7-1.6c0-0.6,0.4-1.7,1.1-3.1
			c1-1.9,1.5-3.5,1.6-4.8c0.1,0.1,0.2,0.1,0.4,0.2c0.2,0,0.4,0.1,0.6,0.1c0.9,0,2.2-0.4,3.9-1.1c1.6-0.7,3.7-1.7,6.1-3.2
			c0.8-0.4,1.5-0.9,2.1-1.2c0.6-0.4,1.1-0.7,1.6-1c0.4-0.3,0.7-0.6,0.9-0.9c0.2-0.3,0.3-0.6,0.3-0.9L99,1.5c1.6-0.5,3.1-0.9,4.5-1.2
			c1.3-0.2,2.5-0.4,3.4-0.4c1.1,0,1.9,0.3,2.6,0.8c0.7,0.5,1,1.1,1,1.7L110,3.9c2.9,1.7,5.9,3.1,9.2,4.2c3.3,1.1,6.7,1.9,10.3,2.4
			c-0.2,0.6-0.4,1.2-0.5,1.7c-0.1,0.6-0.2,1.1-0.2,1.6l0.1,2.8c0,1.1-0.2,1.9-0.6,2.5c-0.4,0.5-1.1,0.8-1.9,0.8
			c-0.5,0-1.2-0.1-2-0.3c-0.8-0.2-1.8-0.6-3-1l0.3,1.6c0,0.7-0.2,1.2-0.5,1.5c-0.3,0.3-0.8,0.5-1.6,0.5L109.7,22.5z M95.2,15.7
			L113,15c-1.1-0.5-2.4-1.2-4-2c-1.5-0.8-3.3-1.8-5.2-3c-0.9,0.7-2.1,1.5-3.6,2.5C98.8,13.5,97.1,14.6,95.2,15.7z"/>
		<path class="st0" d="M119.3,105.7l-29.7,0.8c-0.4,0.5-0.8,0.9-1.2,1.2c-0.4,0.2-0.9,0.4-1.5,0.4c-0.9,0-1.8-0.5-2.8-1.6
			c-1-1.1-2.1-2.7-3.2-4.8c0.4-0.6,0.7-1.3,0.9-1.9c0.2-0.7,0.3-1.5,0.3-2.3V68.9c0-0.7-0.1-1.3-0.3-1.7c-0.2-0.5-0.6-0.8-1.2-1
			c1.3-2.1,2.6-3.7,3.8-4.8c1.2-1.1,2.2-1.6,3.1-1.6c0.5,0,1,0.1,1.4,0.4c0.4,0.3,0.8,0.6,1.1,1.2l27.8-0.7c0.7,0,1.3-0.2,1.8-0.5
			c0.5-0.3,0.9-0.8,1.3-1.4c2.9,1.3,5.2,2.6,6.7,3.9c1.5,1.2,2.2,2.4,2.2,3.4c0,0.4-0.2,0.8-0.5,1.2c-0.3,0.4-0.8,0.7-1.4,1.1v36.2
			c0.1,1.3-0.2,2.3-1,3c-0.8,0.7-1.9,1.1-3.5,1.1c-1.3,0-2.4-0.2-3-0.6c-0.7-0.4-1-1-1-1.8V105.7z M90.5,68.6V98l28.8-0.9V67.7
			L90.5,68.6z M108.4,76.5v2.2l3.4-0.2c0.4,0,0.8,0,1.2-0.1c0.3-0.1,0.6-0.2,0.9-0.4c1.1,0.9,2,1.7,2.6,2.3c0.6,0.7,0.9,1.4,0.9,2
			c0,0.7-0.2,1.2-0.6,1.7c-0.4,0.4-1,0.7-1.7,0.9c0.5,0.4,0.9,0.9,1.1,1.3c0.2,0.4,0.4,0.9,0.4,1.3c0,0.2-0.1,0.5-0.2,0.7
			c-0.1,0.3-0.3,0.5-0.5,0.7c0.7,0.7,1.2,1.4,1.5,2.1c0.4,0.7,0.5,1.3,0.5,1.8c0,0.8-0.3,1.6-1,2.2c-0.7,0.6-1.4,1-2.4,1
			c-0.5,0-1-0.1-1.5-0.3c-0.5-0.2-1-0.5-1.5-0.8l-15.9,0.8c-1.2,0-2.2-0.3-3.1-0.9c-0.7-0.6-1.1-1.1-1.1-1.7c0-0.2,0.1-0.6,0.4-1.1
			c0.3-0.5,0.7-1.2,1.2-2.1c0.2-0.2,0.3-0.5,0.5-0.8c0.2-0.3,0.3-0.6,0.5-0.9c0.2,0.2,0.5,0.4,0.8,0.5c0.3,0.1,0.7,0.1,1.1,0.1
			l4.2-0.2v-3l-4,0.2c-1.3,0-2.3-0.2-3.1-0.8c-0.7-0.5-1.1-1.1-1.1-1.7c0-0.3,0.2-0.8,0.6-1.6c0.4-0.7,1-1.7,1.7-3
			c0.2,0.1,0.4,0.2,0.7,0.3s0.6,0.1,0.9,0.1c0.1,0,0.2,0,0.3,0c0.1,0,0.3,0,0.4,0l3.6-0.2v-2.2l-4.8,0.2c-1.1,0.1-1.9-0.1-2.4-0.5
			s-0.8-1-0.8-1.7c0-0.5,0.4-1.4,1.2-2.6c0.6-0.9,1.1-1.7,1.4-2.3c0.2,0.2,0.4,0.3,0.7,0.4c0.3,0.1,0.6,0.1,0.9,0.1L112,70
			c0.4-0.1,0.8-0.2,1-0.4c0.3-0.2,0.5-0.5,0.6-0.9c0.1,0.1,0.3,0.3,0.4,0.4c0.1,0.1,0.3,0.3,0.4,0.4c1,0.9,1.8,1.7,2.3,2.3
			c0.6,0.6,0.9,1.3,0.9,1.9c0,0.6-0.3,1.2-0.9,1.7c-0.6,0.5-1.4,0.8-2.4,0.9L108.4,76.5z M108.4,85.3v3.1l2.6-0.1l-1.2-1.6l0.7-1.5
			L108.4,85.3z"/>
		<path class="st0" d="M93.6,150.2V148c-3.7-0.1-6.6-0.6-8.6-1.6c-1.9-0.9-2.8-2.2-2.8-3.9c0-1.2,0.5-2.4,1.5-3.8
			c1.1-1.4,2.7-2.8,4.8-4.3c-1.7-0.3-3-0.9-3.8-1.8c-0.9-0.9-1.3-1.9-1.3-3c0-0.7,0.2-1.6,0.6-2.7c0.4-0.9,1-2.1,1.8-3.4
			c0,1.3,0.8,2.1,2.2,2.4c1.1,0.3,3.4,0.4,6.8,0.3c-0.1-1.7-0.5-2.9-1.1-3.7c-0.6-0.8-1.5-1.2-2.7-1.2c-0.1,0-0.2,0-0.3,0
			s-0.2,0-0.3,0c1.5-1.7,2.8-2.9,3.9-3.6c1.2-0.8,2.4-1.3,3.6-1.3c2,0,3.6,0.5,4.9,1.5c1.3,1,1.9,2.2,1.9,3.6c0,0.4-0.1,1-0.2,1.6
			c-0.2,0.7-0.3,1.4-0.6,2.3c1-0.1,1.9-0.3,2.8-0.6s1.7-0.5,2.5-0.8c1.4,1.1,2.4,2,3.1,2.8c0.7,0.8,1.1,1.6,1.1,2.3
			c0,1.5-0.9,2.7-2.7,3.6c-1.7,0.8-4.4,1.4-8.1,1.7l-0.3,4.1c1.3-0.1,2.2-0.4,2.8-0.7s1-0.7,1-1c0-0.1-0.1-0.2-0.2-0.4
			c-0.1-0.1-0.3-0.3-0.5-0.5c0.6,0,1.2,0.1,1.9,0.2c0.7,0.1,1.5,0.1,2.4,0.1c1.7-0.1,3,0.3,4,1.1c1,0.8,1.5,2,1.5,3.6
			c0,1.9-1.1,3.4-3.3,4.5c-2.1,1-5.4,1.7-10,2.1l-0.1,1.8c0,1.8,0.6,3.2,1.9,4.3s3,1.5,5.3,1.5c3.6,0,6.4-0.9,8.5-2.8
			c2.1-1.9,3.1-4.4,3.1-7.6c0-2.1-0.5-4.1-1.5-6.1c-1-2-2.6-3.9-4.6-5.8c4.9,0.8,8.6,2.5,11.2,5.2c2.6,2.7,3.9,6.2,3.9,10.5
			c0,4.7-1.7,8.5-5.2,11.5c-3.4,3-8,4.5-13.6,4.5c-5.3,0-9.5-1.2-12.5-3.7C95.2,158.6,93.6,155,93.6,150.2z M94.3,139.3l0.2-4.4
			c-1.1,0-2.2,0-3.1-0.1c-0.9-0.1-1.8-0.1-2.6-0.2c-0.4,0.5-0.7,1-0.9,1.4c-0.2,0.4-0.3,0.8-0.3,1.2c0,0.7,0.5,1.3,1.6,1.7
			C90.4,139.2,92,139.3,94.3,139.3z"/>
		<path class="st0" d="M114.9,187.2c-1.7,1.4-4.2,3-7.6,4.9c-2.6,1.4-6.6,3.4-12,6.1c8.6,3,14.8,5.9,18.8,8.7c4.2,3,6.2,6.2,6.2,9.8
			c0,2.2-0.5,3.9-1.6,5.2s-2.5,2-4.1,2c-0.7,0-2.1-0.5-4-1.5c-2.3-1.2-4.2-2-5.7-2.5c0.8-0.4,1.4-0.9,1.8-1.5
			c0.4-0.6,0.6-1.2,0.6-1.8c0-0.3-0.1-0.7-0.4-1c-0.2-0.4-0.6-0.8-1-1.2c-2.7-2.3-5.4-4.2-8.1-5.7c-2.7-1.5-5.5-2.6-8.3-3.3
			c-2.5-0.6-4.3-1.3-5.5-2c-1.2-0.7-1.8-2.1-1.8-4.1c0-2.2,0.3-3.6,1-4.1c0.7-0.5,1.7-1,3.2-1.5c2.8-0.8,5.8-2.3,9-4.5
			c3.4-2.3,6.8-5.1,10.2-8.5c0.2-0.3,0.4-0.5,0.5-0.8c0.1-0.2,0.2-0.4,0.2-0.6c0-0.3-0.2-0.6-0.8-0.9c-0.5-0.3-1.2-0.7-2.1-1.2
			c1.2-0.2,2.7-0.6,4.5-1.2c1.4-0.5,2.4-0.8,2.9-0.8c2.1,0,4.1,0.8,6.1,2.5c1.9,1.7,2.9,3.4,2.9,5.2c0,1.1-0.4,2-1.2,2.7
			S116.5,187,114.9,187.2z M112,191.7c0.6-0.2,1.1-0.4,1.7-0.5s1-0.2,1.4-0.2c1.3,0,2.5,0.4,3.4,1.1c0.9,0.7,1.3,1.6,1.3,2.5
			c0,0.9-0.3,1.6-0.9,2.3c-0.6,0.6-1.3,0.9-2.2,0.9c-0.8,0-1.6-0.7-2.3-2.2C113.7,194.1,112.9,192.7,112,191.7z M119,189.4
			c0.6-0.2,1.2-0.4,1.7-0.6c0.5-0.1,1.1-0.2,1.6-0.2c1.2,0,2.3,0.4,3,1.1c0.8,0.8,1.2,1.7,1.2,2.9c0,0.8-0.2,1.5-0.8,2.1
			c-0.5,0.6-1.1,0.8-1.7,0.8c-1,0-1.9-0.8-2.6-2.4C120.7,191.6,119.9,190.3,119,189.4z"/>
		<path class="st0" d="M102.1,256.4l0.2,4.3c0,1.7-0.5,3.1-1.4,4c-0.9,1-2.1,1.4-3.5,1.4c-2.1,0-4-1-5.7-3c-1.7-2-2.6-4.6-2.6-7.8
			c0-2.4,0.7-5.5,2.1-9.5c0.9-2.6,1.4-4.4,1.4-5.4c0-0.8-0.2-1.4-0.6-2c-0.4-0.5-1.1-0.8-1.9-1c1.4-1.1,2.6-1.9,3.6-2.4
			c1.1-0.6,2.2-0.9,3.1-0.9c1.4,0,2.8,0.6,4,1.9c1.2,1.2,1.8,2.7,1.8,4.3c0,1.2-0.3,2.3-0.8,3.3c-0.5,0.9-1.1,1.9-1.9,2.9
			c-0.5,0.7-0.9,1.4-1.3,1.9c-0.4,0.6-0.7,1.1-1,1.6c-0.3,0.5-0.5,1-0.6,1.4c-0.1,0.4-0.2,0.8-0.2,1.2c0,0.7,0.2,1.2,0.5,1.7
			c0.4,0.5,0.7,0.7,1.1,0.7c0.3,0,0.7-0.2,1-0.5s0.7-0.9,1-1.6c1.9-4.4,4-7.8,6.3-10c2.3-2.2,4.8-3.3,7.5-3.3c3,0,5.3,1.6,7.1,4.8
			c1.9,3.4,2.9,8,2.9,14.1c0,7.6-1.9,13.3-5.7,17.2c-3.8,3.9-8.8,5.8-15.1,5.8c-1.8,0-3.1-0.2-3.9-0.6s-1.6-1.2-2.5-2.5
			c-0.1-0.1-0.1-0.2-0.2-0.3c-0.1-0.1-0.1-0.2-0.2-0.3c-0.3-0.6-0.8-1.3-1.4-2.2c-0.6-0.9-1.6-1.9-2.8-2.9c1.1,0.2,2,0.3,2.9,0.4
			c0.9,0.1,1.7,0.1,2.5,0.1c5.1,0,9-1.3,11.8-3.8s4.2-6.8,4.2-12.8c0-3.8-0.4-6.6-1.1-8.4c-0.7-1.7-1.7-2.5-3.1-2.5
			c-1.4,0-2.8,0.7-4.1,2.1c-1.4,1.4-2.4,3.4-3.1,5.8c-0.1,0.5-0.2,1.1-0.3,1.6C102.1,255.4,102.1,255.9,102.1,256.4z"/>
		<path class="st0" d="M100.5,294.6l7.4-0.4c0-0.5-0.1-0.9-0.3-1.2c-0.2-0.3-0.5-0.6-0.9-0.8c1.5-0.7,2.7-1.2,3.6-1.5
			c1.1-0.4,2-0.6,2.7-0.6c1.1,0,2,0.3,2.8,0.8c0.8,0.4,1.2,0.9,1.2,1.4c0,0.2-0.1,0.5-0.2,0.7c-0.1,0.3-0.3,0.5-0.5,0.8l5.3-0.2
			c0.5,0,0.9-0.1,1.3-0.3c0.4-0.2,0.7-0.5,0.9-0.9c2,1.2,3.3,2.1,4,2.7c0.9,0.8,1.4,1.6,1.4,2.4c0,0.8-0.4,1.4-1.2,1.9
			c-0.8,0.5-2,0.7-3.5,0.7c-0.2,0-0.4,0-0.6,0c-0.2,0-0.4,0-0.6,0l-7.3,0.3v2c0.4-0.1,0.8-0.2,1.1-0.4c0.3-0.1,0.7-0.3,1-0.5
			c2.6,0.9,4.5,1.7,5.5,2.4c1.3,0.7,1.9,1.4,1.9,2.2c0,0.4-0.1,0.8-0.3,1.1c-0.2,0.3-0.6,0.6-1.1,0.8V320l-15.4,0.5v1.9l13.1-0.5
			c0.4,0,0.8-0.1,1.2-0.2c0.4-0.1,0.7-0.3,1.1-0.5c1.7,0.9,2.9,1.6,3.6,2.2c0.8,0.7,1.3,1.4,1.3,2.1c0,0.8-0.4,1.4-1.2,1.8
			c-0.8,0.4-2,0.7-3.5,0.7l-8.5,0.3l14.1,3.6c-1,1.3-1.8,3-2.2,5.1c-0.4,1.6-1,2.5-1.8,2.5c-1.7,0-4.2-0.7-7.5-2
			c-3.9-1.6-7.2-3.6-9.7-5.9v5.3c0,1.1-0.4,2.1-1.2,3c-0.8,0.9-1.5,1.3-2.2,1.3c-0.6,0-1.4-0.3-2.4-1c-1.1-0.7-2.3-1.7-3.5-3.1
			c0.3-0.3,0.4-0.6,0.5-0.9c0.1-0.3,0.2-0.7,0.2-1.1v-3.5c-3.8,2.9-7.4,5.1-10.7,6.6c-2.9,1.3-5.2,2-6.8,2c-0.7,0-1.3-0.2-1.7-0.6
			c-0.4-0.4-0.6-0.9-0.6-1.5c0-0.5,0.6-1.6,1.7-3.2c0.9-1.4,1.7-2.7,2.3-3.6c0.2,0.2,0.4,0.3,0.6,0.4c0.2,0.1,0.4,0.1,0.6,0.1
			c0.3,0,0.9-0.2,1.9-0.6c0.9-0.4,2.2-1,3.8-1.9l-6.1,0.2c-1.7,0.2-3,0-4-0.5c-1-0.5-1.4-1.1-1.4-1.9c0-0.3,0.3-0.9,1-1.6
			c0.7-0.8,1.8-1.7,3.1-2.8c0.3,0.3,0.7,0.5,1,0.6c0.4,0.1,0.7,0.1,1.2,0l14.1-0.5v-1.8l-7.3,0.3c-0.4,0.3-0.8,0.5-1.2,0.7
			c-0.4,0.2-0.7,0.2-1,0.2c-0.8,0-1.8-0.4-2.8-1.1c-1.2-0.8-2.2-1.9-3-3.3c0.2-0.4,0.4-0.7,0.5-1.1c0.1-0.4,0.2-0.8,0.2-1.3v-6.3
			c0-0.3-0.1-0.7-0.3-0.9c-0.2-0.3-0.4-0.5-0.7-0.7c1.4-1.7,2.6-2.9,3.5-3.7c1-0.8,1.8-1.3,2.5-1.3c0.2,0,0.4,0,0.7,0.1
			c0.3,0.1,0.6,0.2,0.9,0.4v-1.8l-7.8,0.4c-1.2,0-2.3-0.3-3-0.8c-0.7-0.5-1.1-1.2-1.1-1.9c0-0.5,0.2-1,0.6-1.5
			c0.4-0.5,0.9-1.1,1.5-1.7c0.2-0.2,0.4-0.4,0.6-0.6c0.2-0.2,0.4-0.5,0.7-0.7c0.3,0.4,0.7,0.6,1,0.8c0.4,0.1,0.9,0.2,1.4,0.1
			l6.1-0.3c0-0.5-0.1-0.9-0.2-1.2c-0.1-0.3-0.3-0.6-0.6-0.8c1.2-0.8,2.4-1.5,3.5-1.9c1.1-0.4,2.2-0.7,3.2-0.7c0.9,0,1.7,0.2,2.3,0.7
			s0.9,1,0.9,1.6c0,0.3-0.1,0.6-0.2,0.9s-0.3,0.5-0.5,0.8V294.6z M93.7,308v2.1l6.5-0.3v-2L93.7,308z M93.7,314.5v2l6.5-0.3v-1.9
			L93.7,314.5z M100.5,301v2.2l7.4-0.3v-2.1L100.5,301z M115.3,309.3v-2l-6.5,0.2v1.9L115.3,309.3z M108.8,315.8l6.5-0.2v-2
			l-6.5,0.2V315.8z"/>
		<path class="st0" d="M112.2,370.3l7.5-0.4c0.6,0,1.2,0,1.6-0.2c0.4-0.2,0.7-0.6,1-1.1c2.4,1.1,4.3,2.3,5.5,3.5
			c1.2,1.3,1.9,2.6,1.9,4.1c0,1.3-0.4,2.3-1.1,3.2s-1.5,1.2-2.5,1.2c-0.6,0-1.3-0.2-2.3-0.5c-0.9-0.3-2-0.8-3.2-1.4l-8.9,0.4
			c0.3,1.3,0.5,2.5,0.6,3.8c0.1,1.2,0.2,2.5,0.2,3.9c0,3.7-1.2,6.6-3.7,8.7c-2.5,2.1-5.7,3.2-9.6,3.2c-0.9,0-1.7-0.2-2.3-0.6
			c-0.6-0.4-0.9-1.1-0.9-2.1c0-1.8-0.4-3.2-1.1-4c-0.7-0.9-2.3-1.5-4.8-1.9V388c1.4,0.2,2.8,0.4,4,0.5c1.2,0.1,2.4,0.2,3.5,0.2
			c1.7,0,2.9-0.4,3.6-1.1c0.7-0.7,1-2.1,1-4.2l-0.3-3.8l-12.6,0.5c-0.9,0.4-1.8,0.7-2.5,0.9c-0.7,0.2-1.3,0.3-1.9,0.3
			c-1.1,0-2.2-0.6-3.2-1.8c-1-1.2-1.5-2.2-1.5-3.1c0-0.3,0.1-0.7,0.3-1c0.2-0.4,0.6-0.8,1-1.3c0.5-0.5,1-1,1.7-1.7
			c0.6-0.6,1.4-1.3,2.2-2.1c0.4,0.4,0.9,0.7,1.4,0.8c0.5,0.2,1.1,0.2,1.7,0.2l11.2-0.5c-0.4-0.9-0.8-1.8-1.2-2.4
			c-0.4-0.7-1-1.1-1.6-1.4c1.7-1.5,2.9-2.5,3.7-3c1.1-0.7,2.1-1.1,3.1-1.1c0.6,0,1.1,0.2,1.7,0.5c0.5,0.3,1.1,0.8,1.6,1.4l5-4.3
			L93,361.1c-2.6,0.2-4.6,0-6-0.7c-1.3-0.6-2-1.5-2-2.6c0-0.4,0.2-0.9,0.8-1.6c0.5-0.7,1.2-1.5,2.1-2.4c0.2-0.3,0.4-0.5,0.6-0.8
			c0.2-0.2,0.5-0.5,0.7-0.8c0.3,0.2,0.6,0.4,1,0.5c0.4,0.1,0.7,0.1,1.2,0.1l20.2-0.5c0.8,0,1.5-0.1,2.1-0.4c0.6-0.3,1.2-0.7,1.7-1.3
			c3,1.8,5.4,3.7,7.2,5.8c1.6,1.9,2.4,3.5,2.4,5c0,1-0.5,1.9-1.4,2.6c-0.9,0.7-2.2,1-3.8,1L112.2,370.3z"/>
		<path class="st0" d="M25.4,10.6l-0.1-1.2c0-1.2-0.3-2.1-1-2.7c-0.7-0.6-1.8-1-3.2-1.2c0.4-0.3,0.7-0.6,1.1-0.9
			c0.4-0.3,0.7-0.6,1-0.8c1.3-1.1,2.4-1.9,3.3-2.6c0.9-0.6,1.7-1,2.5-1c1.6,0,3.3,0.6,5.1,1.7c1.7,1.1,2.6,1.9,2.6,2.6
			c0,0.3-0.1,0.7-0.4,1.1c-0.3,0.5-0.7,1.1-1.2,1.8l0.1,2.7l1.8-0.1c0.6,0,1.2-0.1,1.7-0.3c0.5-0.2,1-0.6,1.4-1
			c2.5,1.1,4.4,2.3,5.7,3.7c1.3,1.3,2,2.8,2,4.4c0,1.4-0.4,2.5-1.2,3.4c-0.8,0.9-1.8,1.3-3,1.3c-0.7,0-1.5-0.2-2.4-0.5
			c-0.8-0.3-1.8-0.8-2.8-1.6l-2.8,0.2l0.8,20c0,2.7-0.9,4.8-2.6,6.5c-1.8,1.6-4,2.4-6.7,2.4c-1.9,0-3-0.4-3.2-1.2
			c-0.3-0.8-0.5-2-0.7-3.6c-0.3-2-0.8-3.6-1.6-4.8c-0.8-1.2-2.2-2.4-4.2-3.6c-2.5,2.9-4.9,5.2-7.1,6.7c-2.1,1.4-3.9,2.2-5.4,2.2
			c-1.3,0-2.4-0.4-3.1-1.1s-1.2-1.7-1.2-2.9c0-0.5,0.2-1.3,0.6-2.5c0.8-2.4,1.2-4.5,1.2-6.5c0-0.2,0-0.4,0-0.6c0-0.2,0-0.5,0-0.7
			c0.5,0.3,1,0.5,1.5,0.7c0.5,0.2,0.9,0.2,1.3,0.2c1,0,2.4-0.9,4.2-2.6c1.3-1.2,3.6-3.7,6.9-7.5l-6.8,0.4c-2.7,0.1-5-0.2-6.9-1.1
			c-1.6-0.7-2.4-1.6-2.4-2.6c0-0.7,0.5-1.6,1.6-2.8c0.8-0.9,2.4-2.5,4.6-4.6c0.4,0.4,1,0.7,1.7,1c0.7,0.2,1.4,0.3,2.2,0.3
			c0.1,0,0.2,0,0.3,0c0.1,0,0.2,0,0.3,0L25.4,10.6z M26.2,34.1l-0.3-10.4c-0.6,1.1-1.4,2.5-2.5,4c-1.3,1.9-2.9,4-4.8,6.2
			c1.8,0.9,3.2,1.5,4.3,1.9c1.1,0.4,1.9,0.6,2.3,0.6c0.4,0,0.6-0.1,0.8-0.4c0.2-0.3,0.2-0.7,0.2-1.3c0-0.1,0-0.2,0-0.3
			C26.2,34.3,26.2,34.2,26.2,34.1z"/>
		<path class="st0" d="M28.9,68.8v32.4c0,1.5-0.5,2.7-1.4,3.8c-0.9,1.1-1.9,1.6-2.9,1.6c-1,0-2.1-0.5-3.3-1.4
			c-1.4-1.1-2.6-2.5-3.7-4.3c0.2-0.3,0.4-0.7,0.6-1.2c0.1-0.4,0.2-0.9,0.2-1.5V69.8c0.1-1.2-0.1-2.1-0.8-2.7
			C17,66.4,16,66,14.5,65.9c2.2-2,3.9-3.5,5.3-4.5c1.4-1,2.5-1.5,3.2-1.5c0.4,0,1,0.2,1.8,0.5c0.8,0.3,1.7,0.8,2.6,1.5
			c0.9,0.7,1.6,1.4,2.1,2c0.5,0.6,0.7,1.2,0.7,1.8c0,0.4-0.1,0.9-0.3,1.4C29.7,67.5,29.4,68.1,28.9,68.8z"/>
		<path class="st0" d="M0.9,149.6l0.6,0.1c1.1,0,2-1.2,3-3.6c1-2.6,1.5-5.8,1.5-9.5c0-1.4-0.2-2.5-0.6-3.3s-1.2-1.3-2.4-1.7
			c1.4-1.7,2.6-2.9,3.7-3.9c1.1-0.9,2.4-1.4,3.8-1.4c1.9,0,3.4,0.7,4.4,2c1,1.3,1.5,3.3,1.5,6c0,8.2-1.4,15-4.1,20.3
			c-2.6,4.9-5.6,7.4-9.2,7.4c-1,0-1.7-0.3-2.3-0.9S0,159.8,0,158.7c0-1,0.1-2.1,0.4-3.3c0.3-1.2,0.5-2.5,0.5-4V149.6z M20.9,150.8
			v-22.6c0-1-0.2-1.8-0.9-2.3c-0.6-0.6-1.6-0.9-3-1.2c1.3-1.8,2.6-3.2,3.9-4.2c1.3-0.9,2.4-1.4,3.3-1.4c2,0,4.1,0.6,6.3,1.9
			c2.2,1.3,3.3,2.5,3.3,3.6c0,0.5-0.3,1.2-1,2c-0.7,1-1,1.9-1.1,2.5v20c2.3-1.9,4.1-4,5.4-6.3c1.2-2.1,1.8-4,1.8-5.8
			c0-0.6-0.2-1.2-0.5-1.7c-0.4-0.5-0.9-1.1-1.6-1.6c0.8-0.3,1.6-0.6,2.4-0.7c0.8-0.2,1.6-0.3,2.4-0.3c1.9,0,3.6,0.7,4.9,2.1
			s2,3.2,2,5.4c0,3.8-1.4,7.6-4.1,11.4c-2.7,3.8-6.7,7.3-11.9,10.4c-0.2,0.7-0.4,1.3-0.8,1.7c-0.4,0.4-0.8,0.6-1.4,0.6
			c-1,0-2.2-0.4-3.6-1.2c-1.6-0.9-3.1-2.1-4.5-3.7c-1-1.1-1.7-2.1-2.2-3c-0.5-0.9-0.7-1.7-0.7-2.4c0-0.4,0.1-0.9,0.4-1.4
			C20.1,152.2,20.5,151.5,20.9,150.8z"/>
		<path class="st0" d="M25.7,191.1l-15.1,1.4c-1.6,0-3-0.5-4.2-1.4c-1.2-0.9-1.7-1.9-1.7-2.9c0-0.8,0.5-1.8,1.6-3.1
			c1-1.1,2.5-2.5,4.7-4.4c0.2,0.5,0.6,0.8,1.1,1c0.5,0.2,1.2,0.3,1.9,0.3c0.2,0,0.3,0,0.5,0c0.2,0,0.4,0,0.6,0l13.3-0.9
			c1.1,0,1.9-0.2,2.6-0.6c0.7-0.3,1.2-0.9,1.6-1.6c2.8,1.5,5,3.2,6.5,5c1.5,1.8,2.2,3.4,2.2,5c0,1.1-0.4,1.9-1.1,2.6s-1.8,1-3.2,1
			l-4.5,6.9c4.8,3.1,8.1,5.6,10,7.4c2.3,2.3,3.4,4.7,3.4,7.2c0,1.8-0.5,3.2-1.4,4.3c-0.9,1.1-2,1.6-3.3,1.6c-0.7,0-1.8-0.4-3.3-1.1
			c-1.6-0.8-2.8-1.3-3.9-1.7c0.1-0.2,0.2-0.4,0.3-0.6c0.1-0.2,0.1-0.4,0.1-0.6c0-0.7-0.7-1.8-2.2-3.1c-1.1-1.1-3.2-2.7-6.3-5
			c-3.6,4.5-6.8,7.8-9.8,9.9c-3.1,2.2-6.1,3.2-8.8,3.2c-1.8,0-3.2-0.4-4.3-1.1s-1.6-1.7-1.6-2.8c0-0.6,0.4-1.8,1.3-3.3
			c1.4-2.6,2.2-4.9,2.5-7c0.6,0.4,1.1,0.7,1.5,1c0.5,0.3,1,0.4,1.5,0.4c2,0,4.4-1.4,7.3-4.2C18.6,201,21.9,196.8,25.7,191.1z"/>
		<path class="st0" d="M3,248.3l1,0.2c0.9,0,2-0.6,3.3-1.7c1.4-1.1,3-2.8,4.8-5.1c0.9-1.2,1.6-2.1,1.9-2.7c0.5-0.8,0.8-1.4,0.8-2
			c0-0.2-0.1-0.4-0.2-0.6c-0.2-0.2-0.4-0.3-0.7-0.5c1.5-0.5,2.8-1,4-1.4c1.2-0.4,2.2-0.6,3.2-0.6c1.6,0,2.8,0.3,3.7,1
			s1.4,1.6,1.4,2.7c0,0.7-0.2,1.3-0.6,2s-1,1.4-1.7,2.1l8.5-0.4c1,0,1.8-0.2,2.5-0.5c0.7-0.3,1.3-0.8,1.7-1.4
			c2.7,2.2,4.8,4.4,6.3,6.7c1.4,2.1,2,4,2,5.5c0,0.9-0.4,1.6-1.2,2.2c-0.8,0.6-1.8,0.9-3.2,0.9c-0.8,1.8-1.5,3.5-2.3,5
			c-0.7,1.6-1.5,3-2.3,4.2c0.9,0.8,1.5,1.7,1.9,2.7s0.6,2,0.6,3.2c0,1.9-0.5,3.4-1.6,4.5c-1.1,1.1-2.5,1.6-4.1,1.6
			c-0.7,0-1.5-0.2-2.1-0.7c-0.7-0.5-1.3-1.2-2-2.3c-3,2.8-6.4,4.9-10.3,6.3c-3.9,1.4-7.6,2.1-11,2.1c-1.6,0-2.9-0.3-3.8-0.9
			c-0.8-0.6-1.3-1.4-1.3-2.4c0-0.7,0.5-2.1,1.5-4.1c1.1-2.2,2-4,2.5-5.6c0.3,0.6,0.6,1.1,1.1,1.4c0.5,0.3,1,0.5,1.6,0.5
			c1.6,0,3.7-0.4,6.2-1.2s4.5-2,6.1-3.6c-1.3-1.5-2.4-2.7-3.5-3.5c-1.1-0.8-2.2-1.4-3.2-1.6c1.6-2,2.9-3.5,3.9-4.3
			c1.2-1,2.3-1.6,3.4-1.6c0.9,0,1.9,0.3,2.9,0.8c1,0.5,2.1,1.3,3.2,2.4c0.8-1.2,1.6-2.4,2.2-3.8c0.6-1.3,1.1-2.7,1.6-4.2l-10,0.8
			c-0.7,0-1.3,0-1.9-0.2c-0.6-0.2-1-0.5-1.4-0.9c-3,3.4-5.4,5.8-7.2,7.2c-2.2,1.7-4.2,2.5-6.2,2.5c-1.3,0-2.3-0.3-3-0.8
			c-0.7-0.5-1.1-1.2-1.1-2.1c0-0.2,0.1-1,0.4-2.2C2.2,251.9,2.7,250,3,248.3z"/>
		<path class="st0" d="M28.9,301.5v32.4c0,1.5-0.5,2.7-1.4,3.8c-0.9,1.1-1.9,1.6-2.9,1.6c-1,0-2.1-0.5-3.3-1.4
			c-1.4-1.1-2.6-2.5-3.7-4.3c0.2-0.3,0.4-0.7,0.6-1.2c0.1-0.4,0.2-0.9,0.2-1.5v-28.4c0.1-1.2-0.1-2.1-0.8-2.7
			c-0.6-0.7-1.7-1.1-3.1-1.2c2.2-2,3.9-3.5,5.3-4.5c1.4-1,2.5-1.5,3.2-1.5c0.4,0,1,0.2,1.8,0.5c0.8,0.3,1.7,0.8,2.6,1.5
			c0.9,0.7,1.6,1.4,2.1,2c0.5,0.6,0.7,1.2,0.7,1.8c0,0.4-0.1,0.9-0.3,1.4C29.7,300.3,29.4,300.8,28.9,301.5z"/>
		<path class="st0" d="M25.4,365.7L10.5,367c-1.6,0-3.1-0.5-4.3-1.4c-1.2-0.9-1.7-1.9-1.7-2.8c0-0.8,0.5-1.9,1.6-3.1
			c1.1-1.2,2.7-2.7,4.9-4.4c0.3,0.5,0.7,0.9,1.4,1.1c0.7,0.2,1.5,0.3,2.6,0.2l13.4-1c1.1,0,1.9-0.2,2.5-0.5s1.1-0.8,1.5-1.6l1.3,0.5
			c0.3,0.5,0.5,0.9,0.7,1.4c0.2,0.4,0.3,0.9,0.5,1.3c0.3,0.8,0.6,1.5,1,2.1c0.4,0.6,1.1,0.8,2.1,0.8l1.8-0.2
			c0.5,0.8,0.9,1.5,1.2,2.2s0.4,1.3,0.4,1.9c0,1.1-0.4,2-1.1,2.6c-0.7,0.6-1.8,0.9-3.2,1l-4.6,6.9c4.9,3.1,8.2,5.6,10,7.5
			c2.3,2.3,3.4,4.8,3.4,7.4c0,1.8-0.5,3.2-1.4,4.3c-0.9,1.1-2,1.6-3.3,1.6c-0.7,0-1.8-0.4-3.3-1.1c-1.6-0.8-2.8-1.3-3.9-1.7l0.3-1.6
			c0-0.5-0.7-1.4-2.1-2.7c-1.4-1.3-3.5-3-6.3-5.1c-3.5,4.4-6.8,7.8-10,10.1c-3.1,2.2-6,3.3-8.6,3.3c-1.7,0-3.2-0.4-4.3-1.2
			c-1.1-0.7-1.6-1.7-1.6-2.8c0-0.7,0.4-1.8,1.3-3.4c1.4-2.6,2.3-5,2.6-7.1c0.4,0.5,0.9,0.9,1.4,1.2c0.5,0.3,1,0.5,1.6,0.5
			c1.8,0,4.3-1.5,7.4-4.5C19,375.2,22.3,371,25.4,365.7z M33.1,351.8c0.4-0.2,0.9-0.3,1.4-0.4s0.9-0.2,1.3-0.2
			c1.4,0,2.6,0.4,3.5,1.3c0.9,0.8,1.4,1.8,1.4,2.8c0,0.8-0.3,1.6-0.8,2.1s-1.1,0.9-1.8,0.9c-1,0-1.9-0.8-2.5-2.4
			C34.9,354.1,34,352.8,33.1,351.8z M39.9,349.9c0.5-0.2,1.1-0.4,1.6-0.5s1.1-0.2,1.6-0.2c1.5,0,2.6,0.4,3.5,1.1
			c0.8,0.7,1.3,1.7,1.3,2.8c0,0.9-0.3,1.6-0.8,2.2c-0.5,0.6-1.2,0.9-1.9,0.9c-1,0-1.9-0.8-2.7-2.4C41.5,352.2,40.7,350.9,39.9,349.9
			z"/>
	</g>
</g>
</svg>
