<?xml version="1.0" encoding="utf-8"?>
<svg version="1.1" id="the-element-drive-exhust-1" xmlns="http://www.w3.org/2000/svg" xmlns:xlink="http://www.w3.org/1999/xlink" x="0px"
	 y="0px" viewBox="0 0 30 29" style="enable-background:new 0 0 30 29;" xml:space="preserve">
<style type="text/css">
	.st0{fill:#FFF8EE;}
	.st1{fill:#231815;}
</style>
<g>
	<path class="st0" d="M24.8,10.4C24.9,9.8,25,9.2,25,8.5c0-4.3-3.4-7.8-7.7-7.8c-3,0-5.5,1.7-6.8,4.2C9.8,4.7,9.1,4.6,8.4,4.6
		c-4.2,0-7.7,3.5-7.7,7.8c0,3.3,2,6,4.7,7.2c0,0.3,0,0.6,0,0.8c0,4.3,3.4,7.8,7.7,7.8c2.6,0,4.9-1.3,6.3-3.3
		c0.7,0.2,1.5,0.4,2.3,0.4c4.2,0,7.7-3.5,7.7-7.8C29.3,14.4,27.4,11.6,24.8,10.4z"/>
	<g>
		<path class="st1" d="M13.1,29c-4.6,0-8.4-3.8-8.4-8.5c0-0.1,0-0.3,0-0.4C1.8,18.7,0,15.7,0,12.4c0-4.7,3.8-8.5,8.4-8.5
			C9,3.9,9.6,4,10.2,4.1C11.7,1.6,14.4,0,17.4,0c4.6,0,8.4,3.8,8.4,8.5c0,0.5,0,1-0.1,1.5c2.7,1.5,4.4,4.4,4.4,7.5
			c0,4.7-3.8,8.5-8.4,8.5c-0.7,0-1.4-0.1-2-0.3C18,27.8,15.6,29,13.1,29z M6.1,19.7C6.1,19.8,6.1,19.8,6.1,19.7c0,0.3,0,0.5,0,0.7
			c0,3.9,3.1,7.1,7,7.1c2.3,0,4.4-1.1,5.7-3c0.2-0.3,0.5-0.4,0.8-0.3c0.7,0.2,1.4,0.3,2.1,0.3c3.8,0,7-3.2,7-7.1
			c0-2.8-1.6-5.3-4.1-6.5c-0.3-0.1-0.5-0.5-0.4-0.8c0.1-0.6,0.2-1.1,0.2-1.7c0-3.9-3.1-7.1-7-7.1c-2.6,0-5,1.5-6.2,3.8c0,0,0,0,0,0
			c-0.1,0.3-0.5,0.5-0.8,0.4C9.7,5.4,9,5.3,8.4,5.3c-3.8,0-7,3.2-7,7.1c0,2.9,1.7,5.5,4.3,6.6C6,19.1,6.2,19.4,6.1,19.7z"/>
	</g>
</g>
</svg>
