<?xml version="1.0" encoding="utf-8"?>
<svg version="1.1" id="the-ikastore-building-kids-girl-1"
	 xmlns="http://www.w3.org/2000/svg" xmlns:xlink="http://www.w3.org/1999/xlink" x="0px" y="0px" viewBox="0 0 581 450"
	 style="enable-background:new 0 0 581 450;" xml:space="preserve">
<style type="text/css">
	.st0{fill:#E84572;}
	.st1{fill:#231815;}
	.st2{fill:#F4AEB6;}
	.st3{fill:#FFF8EE;}
</style>
<g>
	<path class="st0" d="M290.8,88.3c-7-9.4-13.7-11.1-13.7-11.1s-6.7,1.7-13.7,11.1c0,0,2,2.2,5,2.8c-0.9,3.5-1.3,7.9-0.9,13.1
		c0,0-1.8,2.8-3.4,3.4c0,0,4.2,1.5,6.5-1.9c0,0-0.4,1-0.9,2l-0.9,0.3c0,0-2.3,0.3-3.7,5.3c-0.9,3.1-1,4.9-1,5.7l0,0
		c-0.3,1.6,0.1,2.8,1.8,3c2.4,0.3,4.2-2.7,4.2-2.7l0.1-0.3h13.6l0.1,0.2c0,0,1.3,2.8,3.1,2.8c1.4,0,2.5-1.3,2.6-3h0.1
		c0.1-0.9,0.1-2.6-0.8-5.7c-1.5-5.2-3.6-5.3-3.6-5.3l-0.6-0.2c-0.5-1.1-1-2.2-1-2.2c2.2,3.5,6.5,1.9,6.5,1.9
		c-1.6-0.7-3.4-3.4-3.4-3.4c0.4-5.3-0.1-9.6-0.9-13.1C288.8,90.5,290.8,88.3,290.8,88.3z"/>
	<path class="st1" d="M264,119.8c-0.4,0-0.7-0.3-0.7-0.7c0-1,0.1-2.8,1-6c1.5-5.3,4-5.8,4.3-5.8c0.4-0.1,0.7,0.2,0.8,0.6
		c0.1,0.4-0.2,0.7-0.6,0.8c-0.1,0-1.9,0.5-3.1,4.8c-0.9,3.1-1,4.8-1,5.5C264.7,119.5,264.4,119.8,264,119.8L264,119.8z"/>
	<path class="st1" d="M289.7,119.8C289.6,119.8,289.6,119.8,289.7,119.8c-0.5,0-0.7-0.4-0.7-0.8c0.1-0.7,0.1-2.4-0.8-5.5
		c-1.3-4.5-2.9-4.8-3-4.8c-0.4-0.1-0.7-0.4-0.6-0.8c0-0.4,0.3-0.6,0.7-0.6c0.3,0,2.7,0.3,4.2,5.8c0.9,3.2,0.9,5,0.8,6
		C290.3,119.5,290,119.8,289.7,119.8z"/>
	<path class="st2" d="M267.8,94.4c0,0-2.4-0.1-2.6,2.2c-0.2,2.3,2.2,2.8,2.2,2.8"/>
	<path class="st2" d="M286.5,94.4c0,0,2.4-0.1,2.6,2.2c0.2,2.3-2.2,2.8-2.2,2.8"/>
	<path class="st1" d="M277.1,111.1c-0.1,0-0.1,0-0.2,0c-1.4-0.4-2.1-1.6-2.5-2.6c-2.1,2.4-5.9,2.1-6.1,2.1c-0.3,0-0.5-0.2-0.6-0.5
		s0-0.5,0.2-0.7c0.1-0.1,0.4-0.6,0.7-1.1c-1.8,0.7-3.7,0.5-4.7,0.1c-0.3-0.1-0.5-0.4-0.5-0.6c0-0.3,0.2-0.6,0.4-0.7
		c1.1-0.4,2.4-2.2,3-3c-1.4-20.8,9.5-27.1,10-27.4c0.2-0.1,0.5-0.1,0.7,0c0.5,0.3,11.4,6.6,10,27.4c0.6,0.8,1.9,2.5,3,3
		c0.3,0.1,0.4,0.4,0.4,0.7c0,0.3-0.2,0.5-0.5,0.6c-1.1,0.4-3,0.7-4.7-0.1c0.3,0.6,0.5,1,0.7,1.1c0.2,0.2,0.3,0.5,0.2,0.7
		c-0.1,0.3-0.3,0.4-0.6,0.5c-0.2,0-4,0.3-6.1-2.1c-0.4,1-1.1,2.2-2.5,2.6C277.3,111.1,277.2,111.1,277.1,111.1z M274.7,105.9
		C274.8,105.9,274.8,105.9,274.7,105.9c0.4,0.1,0.7,0.3,0.7,0.6c0,0,0.3,2.5,1.7,3.1c1.4-0.6,1.7-3,1.7-3.1c0-0.3,0.3-0.6,0.6-0.6
		c0.3,0,0.6,0.1,0.7,0.4c0.8,2,3,2.6,4.4,2.7c-0.6-1.1-1.3-2.6-1.5-3.2c-0.1-0.3,0-0.7,0.3-0.9c0.3-0.2,0.7-0.1,0.9,0.2
		c1.1,1.8,2.9,2,4.1,2c-1.2-1.1-2.1-2.5-2.3-2.7c-0.1-0.1-0.1-0.3-0.1-0.4c0.7-10.5-1.8-17.1-4.1-20.8c-1.9-3.1-4-4.8-4.8-5.3
		c-1.8,1.3-10.2,8.1-8.9,26.1c0,0.2,0,0.3-0.1,0.4c-0.1,0.2-1.1,1.6-2.3,2.7c1.2,0.1,3-0.2,4.1-2c0.2-0.3,0.6-0.4,0.9-0.2
		s0.5,0.6,0.3,0.9c-0.3,0.6-0.9,2.1-1.5,3.2c1.4-0.1,3.6-0.7,4.4-2.7C274.2,106.1,274.5,105.9,274.7,105.9z"/>
	<path class="st1" d="M268.5,91.7h-0.1c-3.2-0.6-5.3-2.9-5.4-3c-0.2-0.2-0.2-0.6,0-0.9c7-9.5,13.8-11.3,14-11.4
		c0.4-0.1,0.8,0.1,0.8,0.5c0.1,0.4-0.1,0.8-0.5,0.9c-0.1,0-6.3,1.7-12.9,10.4c0.7,0.6,2.2,1.8,4.2,2.1c0.4,0.1,0.6,0.4,0.6,0.8
		C269.1,91.5,268.8,91.7,268.5,91.7z"/>
	<path class="st1" d="M285.8,91.7c-0.3,0-0.6-0.2-0.7-0.6s0.2-0.7,0.6-0.8c2-0.4,3.5-1.5,4.2-2.1c-6.6-8.6-12.8-10.3-12.9-10.4
		c-0.4-0.1-0.6-0.5-0.5-0.9s0.5-0.6,0.8-0.5s7,1.9,14,11.4c0.2,0.3,0.2,0.6,0,0.9c-0.1,0.1-2.2,2.4-5.4,3
		C285.9,91.7,285.9,91.7,285.8,91.7z"/>
	<path class="st2" d="M277.1,103.8c0,0,6.8,0.4,6.8-7.4s-6.8-7.9-6.8-7.9s-6.8,0.1-6.8,7.9S277.1,103.8,277.1,103.8z"/>
	<path class="st3" d="M280.2,89.4l-3.1,3.3l-2.9-3.4c0,0,0.9-0.8,2.9-0.8S280.2,89.4,280.2,89.4z"/>
	<path class="st1" d="M267.4,100.1h-0.1c-1.1-0.2-3-1.2-2.8-3.5s2.3-2.9,3.4-2.9c0.4,0,0.7,0.3,0.7,0.7c0,0.4-0.3,0.7-0.7,0.7l0,0
		c-0.2,0-1.8,0-1.9,1.6c-0.1,1.7,1.6,2,1.7,2c0.4,0.1,0.6,0.4,0.6,0.8C268,99.9,267.7,100.1,267.4,100.1z"/>
	<path class="st1" d="M286.9,100.1c-0.3,0-0.6-0.2-0.7-0.6s0.2-0.7,0.6-0.8c0.2,0,1.8-0.4,1.7-2c-0.1-1.6-1.7-1.6-1.9-1.6
		c-0.4,0-0.7-0.3-0.7-0.7c0-0.4,0.3-0.7,0.7-0.7c1.1,0,3.1,0.5,3.4,2.9c0.2,2.3-1.7,3.3-2.8,3.5C287,100.1,286.9,100.1,286.9,100.1z
		"/>
	<path class="st1" d="M287,122.8c-2.2,0-3.6-2.9-3.7-3.2l-4.7-8.3c-0.2-0.3-0.1-0.7,0.2-0.9l2.7-2.1c0.3-0.2,0.7-0.2,0.9,0
		c0.7,0.7,7,6.6,7.7,9.1c0.4,1.5,0.2,3-0.6,4.1C288.9,122.3,288,122.8,287,122.8z M280.2,111.1l4.4,7.8c0.3,0.7,1.4,2.5,2.5,2.5
		c0.5,0,1-0.3,1.3-0.7c0.6-0.7,0.7-1.8,0.4-2.9c-0.4-1.5-4.2-5.5-6.9-8.1L280.2,111.1z"/>
	<path class="st1" d="M277.3,104.5c-0.1,0-0.1,0-0.2,0c-0.4,0-3.2,0-5.3-1.9c-1.5-1.4-2.3-3.5-2.3-6.1c0-8.4,7.4-8.6,7.5-8.6
		s7.5,0.2,7.5,8.6c0,2.7-0.8,4.7-2.3,6.1C280.5,104.4,278.1,104.5,277.3,104.5z M277.1,89.2c-0.2,0-6.1,0.2-6.1,7.2
		c0,2.3,0.6,4,1.8,5.1c1.8,1.7,4.2,1.5,4.3,1.5h0.1c0.1,0,2.5,0.1,4.3-1.6c1.2-1.1,1.8-2.9,1.8-5.1
		C283.3,89.4,277.4,89.3,277.1,89.2z"/>
	<circle class="st1" cx="274.3" cy="96.1" r="1.1"/>
	<circle class="st1" cx="279.9" cy="96.1" r="1.1"/>
	<path class="st1" d="M277.1,101c-0.1,0-0.2,0-0.3-0.1l-1.8-0.8c-0.3-0.2-0.5-0.6-0.3-0.9s0.6-0.5,0.9-0.3l1.5,0.7l1.5-0.7
		c0.4-0.2,0.8,0,0.9,0.3c0.2,0.3,0,0.8-0.3,0.9l-1.8,0.8C277.3,101,277.2,101,277.1,101z"/>
	<path class="st1" d="M277.1,93.4L277.1,93.4c-0.2,0-0.4-0.1-0.5-0.2l-2.9-3.4c-0.2-0.3-0.2-0.7,0.1-1c0.3-0.3,0.7-0.2,1,0.1
		l2.4,2.8l2.5-2.8c0.3-0.3,0.7-0.3,1,0s0.3,0.7,0,1l-3.1,3.3C277.5,93.4,277.3,93.4,277.1,93.4z"/>
	<path class="st1" d="M266.2,122.8c-0.1,0-0.3,0-0.4,0c-1.3-0.2-1.9-0.8-2.2-1.3c-0.8-1.4-0.1-3.4,0.5-4.8c1.2-2.6,6.3-6.5,6.5-6.7
		s0.5-0.2,0.8-0.1l2.6,1.5c0.3,0.2,0.5,0.6,0.3,0.9l-3.6,7.4C270.6,119.9,268.8,122.8,266.2,122.8z M271.1,111.3
		c-1.6,1.3-4.9,4.2-5.7,5.9c-0.7,1.6-0.9,2.9-0.6,3.6c0.2,0.3,0.6,0.5,1.1,0.6c1.9,0.2,3.5-2.4,3.5-2.4l3.3-6.8L271.1,111.3z"/>
	<path class="st2" d="M281.9,108.8c0,0-0.1,1.6-1.2,2s-2.6-0.3-2.6-0.3h-1.8l-2.6,1.4l-2.6-1.5l1.3-1.7c0,0,1.3-2.8,4.4-2.7
		S281.8,106.9,281.9,108.8"/>
	<path class="st1" d="M273.7,112.7l-3.7-2l1.7-2.3c0.3-0.5,1.7-3.2,5-3.1c3.8,0.1,5.7,1.2,5.9,3.4l0,0l0,0c0,0.1-0.1,2-1.6,2.6
		c-1.2,0.5-2.6,0-3.1-0.2h-1.5L273.7,112.7z M272.1,110.3l1.6,0.9l2.4-1.3h2.2l0.1,0.1c0.3,0.2,1.4,0.5,2.1,0.3
		c0.6-0.3,0.7-1.2,0.8-1.4c0-0.5-0.2-1.9-4.5-2c-2.6,0-3.7,2.2-3.7,2.3l-0.1,0.1L272.1,110.3z"/>
</g>
</svg>
