<?xml version="1.0" encoding="utf-8"?>
<svg version="1.1" id="the-element-ikauriko-2-body" xmlns="http://www.w3.org/2000/svg" xmlns:xlink="http://www.w3.org/1999/xlink" x="0px"
	 y="0px" viewBox="0 0 146 110" style="enable-background:new 0 0 146 110;" xml:space="preserve">
<style type="text/css">
	.st0{fill:#E84572;}
	.st1{fill:#FFF8EE;}
	.st2{fill:#F4AEB6;}
	.st3{fill:#97D2CE;}
	.st4{fill:#231815;}
</style>
<g>
	<path class="st0" d="M98.1,95.4c-9.5-3.9-9.5-4.2-11.9-26.6c-0.4-3.8-0.9-8.3-1.5-13.6c-0.1-0.6-0.1-1.2-0.2-1.9
		c-0.7-5.8-1.8-11-3.3-15.7C73.2,11.8,55.7,1.4,55.1,1c0,0,0,0,0,0s0,0,0,0c-0.6,0.4-18.1,10.8-26.1,36.6c-1.1,3.6-2,7.5-2.7,11.7
		h-0.4c0,0-8.3-2.1-14-5.1l0,0c0,0.3-0.1,0.5-0.1,0.8c-0.4,1.7-1.7,3-3.3,3.5c5,9.4,15.5,14.9,15.5,14.9s0.2,0.1,0.6,0.2
		c-0.3,2.7-0.5,5.1-0.8,7.3C21.6,91.2,21.2,91.6,12,95.4c0,0-2,1,0,2.7c2,1.7,10.7,0.5,15.2-2.4c-0.1,0.2-2.4,3.7-4.3,6
		c-1.4,1.7-0.9,2.8,0.3,3.2c1.2,0.4,8.3-1.1,13.1-6.6c-0.1,0.4-2.1,8-0.7,9c1.5,1,4.9-1,10.5-8.2c0,0-1.6,9.4,1.3,10.2
		c2.9,0.8,6.1-5.1,7.5-10c1.4,4.9,4.6,10.7,7.5,10c2.9-0.8,1.3-10.2,1.3-10.2c5.6,7.3,9,9.3,10.5,8.2c1.5-1-0.6-8.7-0.6-9
		c4.8,5.6,11.9,7,13.1,6.6c1.2-0.4,1.7-1.5,0.3-3.2c-1.9-2.3-4.1-5.8-4.3-6c4.5,2.9,13.2,4.1,15.2,2.4
		C100.1,96.3,98.1,95.4,98.1,95.4z"/>
	<path class="st1" d="M5.9,48.5c-2.6-0.6-4.2-3.2-3.5-5.8s3.2-4.2,5.8-3.5c2.3,0.6,3.8,2.7,3.7,5c0,0.3-0.1,0.5-0.1,0.8
		c-0.4,1.7-1.7,3-3.3,3.5C7.6,48.7,6.7,48.8,5.9,48.5z"/>
	<path class="st2" d="M45.3,71.2c-0.9,2.8,1.2,4.6,3.6,5c2.4,0.5,6.1,0.4,6.1,0.4s3.8,0,6.1-0.4c2.4-0.5,4.5-2.2,3.6-5
		c-0.9-2.5-3.3-2.7-5.2-2.4c-1.9,0.3-4.6,0.3-4.6,0.3s-2.6,0-4.6-0.3C48.6,68.5,46.2,68.7,45.3,71.2z"/>
	<path class="st1" d="M17.3,27.4c0,0,5.2,8.2,11.6,10.2C36.9,11.8,54.4,1.4,55,1C54.2,1.2,32.3,7.1,17.3,27.4z"/>
	<path class="st1" d="M55.1,1c0.6,0.4,18.1,10.8,26.1,36.6c6.3-2,11.6-10.2,11.6-10.2C77.8,7.1,55.9,1.2,55.1,1z"/>
	<path class="st1" d="M46.1,48.5c-0.9-0.6-1.9-1.1-3-1.3C42.6,47.1,42,47,41.4,47c-1,0-1.9,0.2-2.7,0.5c-1,0.4-1.9,0.9-2.6,1.6
		c-1.7,1.5-2.8,3.7-2.8,6.1c0,4.5,3.7,8.2,8.2,8.2c4.5,0,8.1-3.7,8.1-8.2C49.6,52.4,48.2,50,46.1,48.5z"/>
	<path class="st3" d="M41.4,50.5c-2.6,0-4.7,2.1-4.7,4.7c0,2.6,2.1,4.7,4.7,4.7c2.6,0,4.7-2.1,4.7-4.7C46.1,52.6,44,50.5,41.4,50.5z
		"/>
	<path class="st1" d="M73.3,48.5c-0.9-0.6-1.9-1.1-3-1.3c-0.5-0.1-1.1-0.2-1.7-0.2c-1,0-1.9,0.2-2.7,0.5c-1,0.4-1.9,0.9-2.6,1.6
		c-1.7,1.5-2.8,3.7-2.8,6.1c0,4.5,3.7,8.2,8.2,8.2c4.5,0,8.1-3.7,8.1-8.2C76.8,52.4,75.4,50,73.3,48.5z"/>
	<path class="st3" d="M68.6,50.5c-2.6,0-4.7,2.1-4.7,4.7c0,2.6,2.1,4.7,4.7,4.7c2.6,0,4.7-2.1,4.7-4.7
		C73.3,52.6,71.2,50.5,68.6,50.5z"/>
	<g>
		<path class="st4" d="M41.4,53.6c-0.8,0-1.5,0.7-1.5,1.5s0.7,1.5,1.5,1.5c0.8,0,1.5-0.7,1.5-1.5S42.3,53.6,41.4,53.6z"/>
		<path class="st4" d="M98.3,94.7c-9.1-3.8-9.1-3.8-11.5-26.1c-0.4-4-0.9-8.4-1.5-13.6c-0.1-0.6-0.1-1.2-0.2-1.9
			C84.5,47.9,83.5,42.8,82,38c6.2-2.4,11.1-9.9,11.3-10.3c0.2-0.2,0.1-0.6,0-0.8C78.4,6.6,56.5,0.7,55.3,0.3c0,0,0,0,0,0
			c0,0,0,0-0.1,0c0,0-0.1,0-0.1,0c0,0-0.1,0-0.1,0c0,0,0,0-0.1,0c0,0,0,0,0,0C53.7,0.7,31.7,6.6,16.8,27c-0.2,0.2-0.2,0.5,0,0.8
			c0.2,0.3,5.1,7.9,11.3,10.3c-1,3.4-1.8,6.9-2.4,10.5c-1.5-0.4-8.2-2.3-13.1-4.7c0-2.5-1.7-4.7-4.2-5.3c-3-0.7-5.9,1.1-6.7,4.1
			c-0.3,1.4-0.1,2.9,0.6,4.2c0.8,1.3,2,2.1,3.4,2.5c0.4,0.1,0.9,0.2,1.3,0.2c0.4,0,0.7,0,1-0.1c5.1,9.2,15.1,14.5,15.5,14.7
			c0,0,0.1,0,0.1,0c-0.2,1.6-0.3,3.1-0.5,4.5L23,70.7c-2.1,20.2-2.3,20.3-11.3,24c-0.1,0.1-1.1,0.6-1.3,1.7
			c-0.1,0.8,0.3,1.5,1.1,2.2c0.8,0.7,2.3,1,4.1,1c2.9,0,6.5-0.7,9.5-2c-0.8,1.2-1.8,2.6-2.7,3.7c-1.1,1.3-1.1,2.3-0.9,2.9
			c0.2,0.7,0.8,1.2,1.6,1.4c0.2,0,0.4,0.1,0.7,0.1c2.1,0,7.2-1.4,11.3-5.1c-1.3,6.3-0.2,7.1,0.2,7.3c1.9,1.3,5.3-0.9,9.9-6.4
			c-0.3,3.1-0.3,7.8,2.1,8.5c3.1,0.8,6.1-4.1,7.7-8.4c1.5,4,4.1,8.5,7,8.5c0.2,0,0.5,0,0.7-0.1c2.5-0.6,2.4-5.3,2.2-8.5
			c4.5,5.5,7.9,7.7,9.9,6.4c0.4-0.3,1.5-1.1,0.2-7.3c4.1,3.7,9.2,5.1,11.3,5.1c0.3,0,0.5,0,0.7-0.1c0.8-0.2,1.4-0.8,1.6-1.4
			c0.2-0.6,0.2-1.6-0.9-2.9c-0.9-1.1-1.9-2.5-2.7-3.7c3,1.3,6.7,2,9.5,2c1.8,0,3.3-0.3,4.1-1c0.8-0.7,1.2-1.5,1.1-2.2
			C99.5,95.3,98.5,94.8,98.3,94.7z M91.9,27.4c-1.1,1.6-5.3,7.4-10.3,9.3c-3.3-10.4-8.8-19.9-15.7-27.4c-2.5-2.7-4.8-4.7-6.6-6.2
			C66.5,5.8,81,12.8,91.9,27.4z M18.2,27.4C29.1,12.8,43.6,5.9,50.8,3.1c-1.8,1.4-4.1,3.5-6.6,6.2c-7,7.5-12.4,17-15.7,27.4
			C23.5,34.8,19.3,29,18.2,27.4z M6,47.9c-1.1-0.3-2-0.9-2.5-1.9c-0.6-0.9-0.7-2-0.5-3.1c0.5-1.9,2.1-3.1,4-3.1c0.3,0,0.6,0,1,0.1
			c2,0.5,3.3,2.3,3.1,4.3c0,0.2,0,0.4-0.1,0.6c-0.3,1.4-1.4,2.6-2.8,3c0,0,0,0,0,0C7.5,48,6.8,48,6,47.9z M9.4,48.8
			c1.4-0.7,2.5-2,2.9-3.6c5.2,2.5,11.8,4.3,13,4.6c-0.2,1.1-0.3,2.2-0.5,3.3c-0.1,0.8-0.2,1.6-0.3,2.4l-0.1,1
			c-0.2,2.1-0.5,4.1-0.7,6C22.1,61.5,13.9,56.6,9.4,48.8z M97.6,97.5c-1.6,1.4-9.8,0.6-14.4-2.4c0,0,0,0,0,0c-0.1,0-0.1-0.1-0.2-0.1
			c0,0,0,0-0.1,0c-0.1,0-0.1,0-0.2,0c0,0-0.1,0-0.1,0c-0.1,0-0.1,0-0.2,0.1c0,0-0.1,0-0.1,0c0,0,0,0-0.1,0c0,0-0.1,0.1-0.1,0.1
			c0,0,0,0,0,0c0,0,0,0,0,0c0,0.1-0.1,0.1-0.1,0.2c0,0,0,0,0,0c0,0.2,0,0.3,0.1,0.5c0.2,0.3,2.4,3.8,4.3,6.1
			c0.5,0.6,0.8,1.2,0.7,1.6c-0.1,0.3-0.4,0.4-0.6,0.5c-0.9,0.3-7.8-1.1-12.3-6.4c-0.1-0.2-0.3-0.3-0.5-0.3c-0.4,0-0.7,0.3-0.7,0.7
			c0,0.1,0,0.1,0,0.2c0,0,0,0,0,0.1c0,0,0,0,0,0l0,0c1.4,5.3,1.3,7.9,0.9,8.2c-0.8,0.6-3.8-0.5-9.6-8.1c-0.2-0.3-0.5-0.3-0.8-0.2
			c-0.3,0.1-0.5,0.4-0.4,0.8c0.6,3.6,0.8,9-0.8,9.4c-2.2,0.6-5.3-4.5-6.7-9.5c-0.1-0.3-0.4-0.5-0.7-0.5c-0.3,0-0.6,0.2-0.7,0.5
			c-1.4,5-4.5,10.1-6.7,9.5c-1.6-0.4-1.4-5.9-0.8-9.4c0.1-0.3-0.1-0.6-0.4-0.8c-0.3-0.1-0.6,0-0.8,0.2c-5.8,7.6-8.7,8.7-9.6,8.1
			c-0.4-0.3-0.4-2.9,0.9-8.3c0,0,0,0,0,0c0.1-0.2,0-0.5-0.2-0.7c-0.3-0.3-0.7-0.3-1,0c0,0-0.1,0.1-0.1,0.1
			c-4.6,5.3-11.4,6.6-12.3,6.4c-0.2-0.1-0.5-0.2-0.6-0.5c-0.1-0.4,0.1-0.9,0.7-1.6c1.9-2.3,4.1-5.7,4.3-6.1c0,0,0,0,0,0
			c0-0.1,0.1-0.1,0.1-0.2c0,0,0,0,0-0.1c0,0,0-0.1,0-0.1c0,0,0-0.1,0-0.1c0,0,0,0,0,0c0-0.1,0-0.1-0.1-0.2c0,0,0,0,0,0
			c-0.1-0.1-0.1-0.1-0.2-0.2c0,0,0,0,0,0c0,0,0,0,0,0c-0.1,0-0.1-0.1-0.2-0.1c0,0,0,0,0,0c0,0-0.1,0-0.1,0c-0.1,0-0.1,0-0.1,0
			c0,0,0,0,0,0c-0.1,0-0.2,0.1-0.2,0.1c0,0,0,0,0,0c0,0,0,0,0,0c-4.6,3-12.8,3.8-14.4,2.4c-0.4-0.4-0.7-0.7-0.6-1
			c0-0.3,0.4-0.5,0.5-0.6c9.6-4,10-4.7,12.1-25.1l0.2-2.2c0.4-3.4,0.8-7.4,1.3-12l0.1-1c0.1-0.8,0.2-1.6,0.3-2.4
			C27,48,28,42.7,29.6,37.8c7.3-23.7,22.9-34.4,25.5-36c2.6,1.6,18.1,12.3,25.5,36c0,0,0,0,0,0c0,0,0,0,0,0s0,0,0,0
			c1.5,4.9,2.6,10.1,3.2,15.5c0.1,0.6,0.1,1.3,0.2,1.9c0.6,5.2,1,9.5,1.5,13.6c2.4,22.7,2.4,23.1,12.3,27.2c0.1,0,0.5,0.3,0.5,0.6
			C98.3,96.8,98.1,97.2,97.6,97.5z"/>
		<path class="st4" d="M50.3,55.2c0-2.6-1.2-5.1-3.2-6.8l1-1.5c0.2-0.3,0.1-0.8-0.2-1c-0.3-0.2-0.8-0.1-1,0.2l-1,1.5
			c-0.6-0.4-1.3-0.7-2-0.9l0.3-1.9c0.1-0.4-0.2-0.7-0.6-0.8c-0.4-0.1-0.7,0.2-0.8,0.6l-0.3,1.8c-1.1-0.1-2.2-0.1-3.3,0.2L39,44.9
			c-0.1-0.4-0.4-0.6-0.8-0.6c-0.4,0.1-0.6,0.4-0.6,0.8l0.3,1.9c-0.6,0.3-1.2,0.6-1.7,1l-1-1.4c-0.2-0.3-0.7-0.4-1-0.2
			c-0.3,0.2-0.4,0.7-0.2,1l1.1,1.5c-1.6,1.6-2.6,3.9-2.6,6.2c0,4.9,4,8.9,8.9,8.9C46.3,64,50.3,60,50.3,55.2z M41.4,62.6
			c-4.1,0-7.5-3.3-7.5-7.5c0-2.1,0.9-4.2,2.5-5.6c0,0,0,0,0,0c0.7-0.6,1.5-1.1,2.4-1.4c0.8-0.3,1.6-0.4,2.5-0.4c0.5,0,1,0.1,1.5,0.2
			c1,0.2,1.9,0.6,2.7,1.2c2,1.4,3.2,3.7,3.2,6.1C48.9,59.3,45.5,62.6,41.4,62.6z"/>
		<path class="st4" d="M41.4,49.8c-3,0-5.4,2.4-5.4,5.4c0,3,2.4,5.4,5.4,5.4c3,0,5.4-2.4,5.4-5.4C46.8,52.2,44.4,49.8,41.4,49.8z
			 M41.4,59.1c-2.2,0-4-1.8-4-4c0-2.2,1.8-4,4-4c2.2,0,4,1.8,4,4C45.4,57.4,43.6,59.1,41.4,59.1z"/>
		<path class="st4" d="M59.5,68.1c-1.8,0.3-4.4,0.2-4.5,0.2c0,0-2.6,0-4.4-0.2c-3.9-0.6-5.4,1.2-5.9,2.9c-0.4,1.2-0.3,2.4,0.3,3.5
			c0.7,1.2,2.1,2.1,3.9,2.5c2.1,0.4,5.2,0.4,6.1,0.4c0.2,0,0.2,0,0.4,0c0.9,0,3.9,0,6-0.4c1.7-0.3,3.2-1.2,3.9-2.5
			c0.6-1,0.7-2.2,0.2-3.5C64.6,68.7,62.5,67.7,59.5,68.1z M64,73.8c-0.5,0.9-1.6,1.5-2.9,1.8C59,75.9,56,76,55.2,76
			c-0.2,0-0.2,0-0.2,0c0,0,0,0,0,0c0,0-3.7,0-6-0.4c-1.3-0.3-2.4-0.9-2.9-1.8c-0.4-0.7-0.4-1.4-0.1-2.3c0.2-0.6,0.8-2.5,4.4-1.9
			c1.9,0.3,4.6,0.3,4.6,0.3c0.1,0,2.7,0,4.7-0.3c3.6-0.5,4.2,1.3,4.4,1.9C64.4,72.3,64.4,73.1,64,73.8z"/>
		<path class="st4" d="M61.4,71.7c-0.1,0-5.4,0.9-12.7,0c-0.4,0-0.7,0.2-0.8,0.6c0,0.4,0.2,0.7,0.6,0.8c2.5,0.3,4.8,0.4,6.8,0.4
			c3.8,0,6.2-0.4,6.3-0.4c0.4-0.1,0.6-0.4,0.6-0.8C62.1,71.9,61.8,71.7,61.4,71.7z"/>
		<path class="st4" d="M68.6,53.6c-0.8,0-1.5,0.7-1.5,1.5s0.7,1.5,1.5,1.5c0.8,0,1.5-0.7,1.5-1.5S69.4,53.6,68.6,53.6z"/>
		<path class="st4" d="M74.2,48.4l1-1.5c0.2-0.3,0.1-0.8-0.2-1c-0.3-0.2-0.8-0.1-1,0.2l-1,1.5c-0.6-0.4-1.3-0.7-2-0.9l0.3-1.9
			c0.1-0.4-0.2-0.7-0.6-0.8c-0.4-0.1-0.7,0.2-0.8,0.6l-0.3,1.8c-1.1-0.1-2.2-0.1-3.3,0.2l-0.3-1.7c-0.1-0.4-0.4-0.6-0.8-0.6
			c-0.4,0.1-0.6,0.4-0.6,0.8l0.3,1.9c-0.6,0.3-1.2,0.6-1.7,1l-1-1.4c-0.2-0.3-0.7-0.4-1-0.2c-0.3,0.2-0.4,0.7-0.2,1l1.1,1.5
			c-1.6,1.6-2.6,3.9-2.6,6.2c0,4.9,4,8.9,8.9,8.9c4.9,0,8.8-4,8.8-8.9C77.5,52.5,76.3,50,74.2,48.4z M68.6,62.6
			c-4.1,0-7.5-3.3-7.5-7.5c0-2.1,0.9-4.2,2.5-5.6c0,0,0,0,0,0c0.7-0.6,1.5-1.1,2.4-1.4c0.8-0.3,1.6-0.4,2.5-0.4c0.5,0,1,0.1,1.5,0.2
			c1,0.2,1.9,0.6,2.7,1.2c2,1.4,3.2,3.7,3.2,6.1C76.1,59.3,72.7,62.6,68.6,62.6z"/>
		<path class="st4" d="M68.6,49.8c-3,0-5.4,2.4-5.4,5.4c0,3,2.4,5.4,5.4,5.4c3,0,5.4-2.4,5.4-5.4C74,52.2,71.6,49.8,68.6,49.8z
			 M68.6,59.1c-2.2,0-4-1.8-4-4c0-2.2,1.8-4,4-4c2.2,0,4,1.8,4,4C72.6,57.4,70.8,59.1,68.6,59.1z"/>
	</g>
</g>
</svg>
