<?xml version="1.0" encoding="utf-8"?>
<svg version="1.1" id="the-element-ikaalien-1" xmlns="http://www.w3.org/2000/svg" xmlns:xlink="http://www.w3.org/1999/xlink" x="0px"
	 y="0px" viewBox="0 0 110 107" style="enable-background:new 0 0 110 107;" xml:space="preserve">
<style type="text/css">
	.st0{fill:#121659;}
	.st1{fill:#FFF8EE;}
	.st2{fill:#EE795E;}
	.st3{fill:#97D2CE;}
	.st4{fill:#2EA7E0;}
	.st5{fill:#F4B2B7;}
	.st6{fill:#231815;}
</style>
<g>
	<path class="st0" d="M102.2,65.5C95.3,57.8,84.1,55,84.1,55l0,0c-0.1-1.1-0.2-2.2-0.4-3.3c-0.7-5.6-1.8-10.7-3.2-15.3h0
		c6.2-2,11.3-10,11.3-10C77.2,6.6,55.8,0.9,55,0.7c0,0,0,0,0,0c0,0,0,0,0,0l0,95.8c1.3,4.8,4.5,10.5,7.3,9.7c2.8-0.7,1.3-10,1.3-10
		c5.4,7.1,8.8,9,10.3,8c1.4-1-0.5-8.4-0.6-8.8c4.6,5.4,11.6,6.8,12.7,6.5c1.2-0.4,1.7-1.5,0.3-3.1c-1.8-2.2-4-5.6-4.2-5.8
		c4.4,2.8,12.9,4,14.9,2.3c2-1.7,0-2.7,0-2.7c-9-3.7-9.3-4-11.4-23.9c0,0,8.3,0.1,14.4,1.6c0-0.2-0.1-0.5-0.1-0.8
		C99.9,67.9,100.8,66.4,102.2,65.5z"/>
	<path class="st1" d="M55,74.2c0,0-2.6,0-4.4,0.3c-1.8,0.3-4.2,0.1-5-2.3c-0.9-2.7,1.2-4.4,3.5-4.9s6-0.4,6-0.4l0-66c0,0,0,0,0,0
		c0,0,0,0,0,0c-0.8,0.2-22.2,5.9-36.8,25.7c0,0,5.1,8,11.3,10c-1.4,4.6-2.5,9.7-3.2,15.3c-0.1,1.1-0.3,2.2-0.4,3.3l0,0l0,0
		c0,0-0.9,0.2-2.3,0.7l0,0l0,0C20,57,12.8,60,7.8,65.6c-0.7-0.4-1.5-0.6-2.4-0.6c-2.6,0-4.7,2.1-4.7,4.7c0,2.6,2.1,4.7,4.7,4.7
		c2.3,0,4.3-1.7,4.6-3.9c6.1-1.5,14.4-1.6,14.4-1.6h0l0,0l0,0C22.4,88.7,22.1,89,13.1,92.7c0,0-2,1,0,2.7c2,1.7,10.5,0.5,14.9-2.3
		c-0.1,0.2-2.3,3.6-4.2,5.8c-1.4,1.6-0.9,2.8,0.3,3.1c1.2,0.3,8.1-1,12.7-6.5c-0.1,0.3-2,7.8-0.6,8.8c1.4,1,4.8-0.9,10.2-8
		c0,0-1.6,9.2,1.3,10c2.8,0.8,6-5,7.3-9.7L55,74.2z"/>
	<path class="st2" d="M76.2,53.5c0-1.5-0.4-2.9-1.2-4.2c-0.6-1.1-1.6-2-2.6-2.6c-1.2-0.7-2.6-1.2-4.2-1.2c-1.5,0-3,0.4-4.2,1.2
		c-1.1,0.7-2,1.6-2.6,2.6c-0.7,1.2-1.2,2.6-1.2,4.2s0.4,3,1.2,4.2c0.7,1.1,1.6,2,2.6,2.6c1.2,0.7,2.6,1.2,4.2,1.2
		c1.5,0,3-0.4,4.2-1.2c1.1-0.7,2-1.6,2.6-2.6C75.8,56.5,76.2,55,76.2,53.5z"/>
	<path class="st1" d="M102.2,65.5c0.7-0.4,1.5-0.6,2.4-0.6c2.6,0,4.7,2.1,4.7,4.7s-2.1,4.7-4.7,4.7c-2.3,0-4.3-1.7-4.6-3.9
		c0-0.2-0.1-0.5-0.1-0.8C99.9,67.9,100.8,66.4,102.2,65.5z"/>
	<rect x="55" y="66.7" class="st1" width="8.5" height="7.4"/>
	<path class="st3" d="M46.4,53.5c0,2.5-2,4.6-4.6,4.6c-2.5,0-4.6-2-4.6-4.6c0-2.5,2-4.6,4.6-4.6C44.3,48.9,46.4,51,46.4,53.5z"/>
	<path class="st4" d="M72.4,60.3l0-2.6l2.6,0C74.4,58.7,73.5,59.6,72.4,60.3L72.4,60.3z"/>
	<path class="st4" d="M61.5,49.4c0.7-1.1,1.6-2,2.6-2.6l0,2.6L61.5,49.4L61.5,49.4z"/>
	<path class="st4" d="M64.1,60.3c-1.1-0.7-2-1.6-2.6-2.6h0l2.6,0L64.1,60.3L64.1,60.3z"/>
	<path class="st4" d="M75.1,49.4l-2.6,0l0-2.6C73.5,47.4,74.4,48.3,75.1,49.4z"/>
	<path class="st1" d="M60.3,34.6c1,0,1.8,0.8,1.8,1.8c0,1-0.8,1.8-1.8,1.8c-1,0-1.8-0.8-1.8-1.8C58.6,35.4,59.4,34.6,60.3,34.6z"/>
	<path class="st1" d="M60.3,25.4c1,0,1.8,0.8,1.8,1.8c0,1-0.8,1.8-1.8,1.8c-1,0-1.8-0.8-1.8-1.8C58.6,26.2,59.4,25.4,60.3,25.4z"/>
	<path class="st1" d="M60.3,16.3c1,0,1.8,0.8,1.8,1.8c0,1-0.8,1.8-1.8,1.8c-1,0-1.8-0.8-1.8-1.8C58.6,17.1,59.3,16.3,60.3,16.3z"/>
	<circle class="st1" cx="83.8" cy="26.3" r="1.8"/>
	<path class="st5" d="M55,70.4l0,3.8c0,0-2.6,0-4.4,0.3c-1.8,0.3-4.2,0.1-5-2.3c-0.9-2.7,1.2-4.4,3.5-4.9c2.3-0.5,6-0.4,6-0.4
		L55,70.4z"/>
	<g>
		<path class="st6" d="M41.8,52c-0.8,0-1.5,0.7-1.5,1.5c0,0.8,0.7,1.5,1.5,1.5c0.8,0,1.5-0.7,1.5-1.5C43.3,52.7,42.6,52,41.8,52z"/>
		<path class="st6" d="M50.4,53.5c0-2.3-0.9-4.4-2.5-6l1-1.5c0.2-0.3,0.1-0.8-0.2-1c-0.3-0.2-0.8-0.1-1,0.2l-1,1.4
			c-0.5-0.4-1.1-0.7-1.7-0.9l0.3-1.9c0.1-0.4-0.2-0.7-0.6-0.8c-0.4-0.1-0.7,0.2-0.8,0.6l-0.3,1.7c-0.7-0.2-1.4-0.3-2.1-0.3
			c-0.3,0-0.7,0-1.1,0.1l-0.3-1.8c-0.1-0.4-0.4-0.6-0.8-0.6C39.2,42.7,39,43,39,43.4l0.3,1.8c-0.7,0.2-1.3,0.5-1.9,0.8l-1-1.4
			c-0.2-0.3-0.7-0.4-1-0.2c-0.3,0.2-0.4,0.7-0.2,1l1,1.4c-2,1.6-3.1,4.1-3.1,6.6c0,2.3,0.9,4.5,2.5,6.1c1.6,1.6,3.8,2.5,6.1,2.5
			c0,0,0,0,0,0c2.3,0,4.5-0.9,6.1-2.5C49.5,58,50.4,55.8,50.4,53.5z M41.8,60.8C41.8,60.8,41.8,60.8,41.8,60.8
			c-1.9,0-3.8-0.8-5.1-2.1c-1.4-1.4-2.1-3.2-2.1-5.1c0-2.4,1.1-4.6,3.1-5.9c0.8-0.6,1.7-1,2.7-1.2c0.5-0.1,1-0.2,1.5-0.2
			c0,0,0,0,0,0c0.8,0,1.6,0.1,2.4,0.4c0.9,0.3,1.7,0.8,2.4,1.4c1.6,1.4,2.5,3.4,2.5,5.4c0,1.9-0.8,3.8-2.1,5.1
			C45.6,60,43.7,60.8,41.8,60.8z"/>
		<path class="st6" d="M41.8,48.2C41.8,48.2,41.8,48.2,41.8,48.2c-1.4,0-2.7,0.5-3.7,1.5c-1,1-1.5,2.3-1.5,3.7
			c0,2.9,2.4,5.3,5.3,5.3c0,0,0,0,0,0c2.9,0,5.3-2.4,5.3-5.3C47.1,50.6,44.7,48.2,41.8,48.2z M41.8,57.4
			C41.8,57.4,41.8,57.4,41.8,57.4c-2.1,0-3.9-1.7-3.9-3.9c0-1,0.4-2,1.1-2.7c0.7-0.7,1.7-1.1,2.7-1.1c0,0,0,0,0,0
			c2.1,0,3.9,1.7,3.9,3.9C45.7,55.7,43.9,57.4,41.8,57.4z"/>
		<path class="st6" d="M108.4,65.8c-1-1-2.4-1.6-3.8-1.6c0,0,0,0,0,0c-0.8,0-1.5,0.2-2.2,0.5c-6.3-6.7-15.5-9.6-17.6-10.2
			c-0.1-0.9-0.2-1.9-0.3-2.8c-0.6-5.1-1.6-10.1-3-14.8c6.1-2.3,10.8-9.7,11-10c0.2-0.2,0.1-0.6,0-0.8C77.7,6.1,56.3,0.3,55.2,0
			c0,0,0,0,0,0c0,0,0,0-0.1,0c0,0,0,0,0,0c0,0,0,0-0.1,0c0,0-0.1,0-0.1,0c0,0,0,0,0,0c0,0,0,0,0,0c0,0,0,0,0,0
			c-1.1,0.3-22.5,6.1-37.1,26c-0.2,0.2-0.2,0.5,0,0.8c0.2,0.3,5,7.7,11,10c-1.4,4.7-2.4,9.6-3,14.8c-0.1,0.9-0.2,1.8-0.3,2.6l0,0.2
			C23.2,55,13.9,58,7.6,64.7c-0.7-0.3-1.5-0.5-2.2-0.5c-3,0-5.4,2.4-5.4,5.4c0,1.4,0.6,2.8,1.6,3.8c1,1,2.4,1.6,3.8,1.6c0,0,0,0,0,0
			c2.5,0,4.6-1.7,5.2-4c4.8-1.1,11-1.4,13.1-1.5c-2,18.9-2.3,19-10.9,22.6c-0.1,0.1-1.1,0.6-1.3,1.6c-0.1,0.7,0.3,1.5,1.1,2.2
			c0.8,0.7,2.2,0.9,4,0.9c2.8,0,6.3-0.7,9.2-1.9c-0.8,1.1-1.7,2.5-2.6,3.5c-1.1,1.3-1.1,2.2-0.9,2.8c0.2,0.7,0.7,1.2,1.5,1.4
			c0.2,0,0.4,0.1,0.7,0.1c2,0,7-1.4,11-5c-1.3,6.1-0.2,6.8,0.2,7.1c1.9,1.3,5.2-0.9,9.6-6.2c-0.3,3.1-0.3,7.6,2.1,8.2
			c0.2,0.1,0.5,0.1,0.7,0.1c2.8,0,5.3-4.3,6.8-8.3c1.6,4.2,4.5,9,7.5,8.2c2.4-0.6,2.4-5.2,2.1-8.2c4.4,5.4,7.7,7.5,9.6,6.2
			c0.4-0.3,1.5-1,0.2-7.1c4,3.6,9,5,11,5c0.3,0,0.5,0,0.7-0.1c0.8-0.2,1.3-0.7,1.5-1.4c0.2-0.6,0.2-1.6-0.9-2.8
			c-0.9-1.1-1.9-2.4-2.6-3.5c2.9,1.2,6.4,1.9,9.2,1.9c1.8,0,3.3-0.3,4-0.9c0.8-0.7,1.2-1.4,1.1-2.2c-0.1-1-1.1-1.6-1.3-1.7
			c-8.6-3.5-8.9-3.6-10.9-22.5c2.1,0.1,8.2,0.3,13,1.5c0.6,2.4,2.7,4,5.2,4c0,0,0,0,0,0c1.4,0,2.8-0.6,3.8-1.6c1-1,1.6-2.4,1.6-3.8
			C110,68.1,109.4,66.8,108.4,65.8z M101.2,65.4c-1.2,1-1.9,2.5-2,4c-5-1.1-11.1-1.3-13-1.4l-0.1-0.6c-0.3-3.3-0.8-7.1-1.2-11.5
			C87.6,56.8,95.6,59.7,101.2,65.4z M90.9,26.4c-1.1,1.5-5.2,7.2-10,9.1c-3.3-10.2-8.5-19.4-15.4-26.7c-2.4-2.6-4.6-4.5-6.4-5.9
			C66.3,5.5,80.3,12.3,90.9,26.4z M62.8,73.5l-7.1,0l0-2.4l7.1,0L62.8,73.5z M54.3,69.7c-1.1,0-3.2,0.1-5.7,0.5
			C48.2,70.3,48,70.6,48,71c0.1,0.3,0.4,0.6,0.7,0.6c0,0,0.1,0,0.1,0c2.4-0.4,4.5-0.5,5.5-0.5l0,2.4c-0.9,0-2.5,0.1-3.8,0.3
			c-3.5,0.5-4.1-1.3-4.3-1.9c-0.3-0.8-0.2-1.6,0.1-2.2c0.5-0.8,1.5-1.5,2.8-1.7c1.6-0.3,4-0.4,5.1-0.4L54.3,69.7z M55.7,69.7l0-2.2
			l7.1,0l0,2.2L55.7,69.7z M19.1,26.4C29.7,12.3,43.7,5.5,50.8,2.8c-1.8,1.4-4,3.4-6.4,5.9c-6.8,7.3-12.1,16.6-15.3,26.7
			C24.2,33.6,20.1,28,19.1,26.4z M25.1,56c-0.4,4-0.8,7.5-1.1,10.6l-0.2,1.5c-1.9,0-8,0.3-13,1.4c0-1.6-0.8-3-2-4
			C14.4,59.6,22.4,56.8,25.1,56z M5.4,73.6C5.4,73.6,5.4,73.6,5.4,73.6c-1.1,0-2.1-0.4-2.8-1.2c-0.8-0.8-1.2-1.8-1.2-2.8
			c0-2.2,1.8-4,4-4c0.7,0,1.4,0.2,2,0.6c0,0,0,0,0,0c1.2,0.7,2,2,2,3.4c0,0.2,0,0.4-0.1,0.7C9,72.2,7.4,73.6,5.4,73.6z M47.9,105.6
			c-1.5-0.4-1.3-5.7-0.8-9.2c0.1-0.3-0.1-0.6-0.4-0.8c-0.3-0.1-0.6,0-0.8,0.2c-5.6,7.4-8.5,8.4-9.3,7.9c-0.3-0.3-0.4-2.8,0.9-8
			c0-0.1,0-0.2,0-0.2c0-0.4-0.3-0.7-0.7-0.7c-0.1,0-0.2,0-0.3,0.1c0,0,0,0,0,0c-0.1,0-0.1,0.1-0.2,0.2c0,0,0,0,0,0
			c-4.4,5.2-11.1,6.5-12,6.3c-0.2-0.1-0.5-0.2-0.6-0.5c-0.1-0.4,0.1-0.9,0.6-1.5c1.8-2.2,3.9-5.5,4.2-5.9c0,0,0,0,0,0c0,0,0,0,0,0
			c0-0.1,0.1-0.1,0.1-0.2c0,0,0,0,0,0c0-0.1,0-0.2,0-0.2c0,0,0,0,0,0c0-0.1,0-0.1-0.1-0.2c0,0,0,0,0,0c0,0,0,0,0,0
			c0,0,0-0.1-0.1-0.1c0,0,0,0-0.1,0c0,0-0.1,0-0.1-0.1c0,0-0.1-0.1-0.2-0.1c0,0-0.1,0-0.1,0c0,0-0.1,0-0.1,0c0,0-0.1,0-0.1,0
			c0,0-0.1,0-0.1,0.1c0,0,0,0-0.1,0c-4.4,2.8-12.5,3.7-14,2.4c-0.4-0.4-0.7-0.7-0.6-0.9c0-0.2,0.3-0.5,0.4-0.5
			c9.4-3.9,9.7-4.5,11.8-24.5l0.2-2.1c0.4-3.3,0.8-7.2,1.3-11.6l0.1-0.7c0.1-0.8,0.2-1.7,0.3-2.6c0.6-5.3,1.7-10.4,3.2-15.2
			C36.8,15.1,50.4,4.6,54.3,2l0,64.1c-1.2,0-3.7,0.1-5.4,0.4c-1.7,0.3-3.1,1.2-3.8,2.4c-0.6,1-0.7,2.2-0.2,3.4
			c0.5,1.4,1.6,2.9,4.4,2.9c0.4,0,0.9,0,1.4-0.1c1.2-0.2,2.8-0.2,3.6-0.2l0,21.5C52.9,101.2,50,106.1,47.9,105.6z M96.7,93.3
			c0.1,0,0.4,0.3,0.5,0.5c0,0.2-0.2,0.6-0.6,0.9c-1.5,1.3-9.6,0.5-14-2.3c0,0,0,0,0,0c0,0,0,0,0,0c-0.1,0-0.1-0.1-0.2-0.1
			c0,0,0,0,0,0c0,0-0.1,0-0.1,0c0,0-0.1,0-0.1,0c0,0,0,0,0,0c-0.1,0-0.2,0-0.2,0.1c0,0,0,0,0,0c0,0,0,0,0,0c-0.1,0-0.1,0.1-0.2,0.2
			c0,0,0,0,0,0c0,0.1-0.1,0.1-0.1,0.2c0,0,0,0,0,0.1c0,0,0,0.1,0,0.1c0,0,0,0.1,0,0.1c0,0,0,0.1,0,0.1c0,0.1,0,0.1,0.1,0.2
			c0,0,0,0,0,0c0.2,0.4,2.4,3.7,4.2,5.9c0.5,0.6,0.7,1.2,0.6,1.5c-0.1,0.3-0.4,0.4-0.6,0.5c-0.9,0.3-7.5-1.1-12-6.2
			c0,0,0-0.1-0.1-0.1c-0.3-0.3-0.7-0.3-1,0c-0.2,0.2-0.2,0.5-0.1,0.8l0,0c1.3,5.2,1.2,7.6,0.9,8c-0.8,0.5-3.7-0.5-9.3-7.9
			c-0.2-0.3-0.5-0.3-0.8-0.2c-0.3,0.1-0.5,0.4-0.4,0.8c0.6,3.5,0.8,8.8-0.8,9.2c-2.1,0.6-5.1-4.4-6.5-9.2l0-21.5l7.8,0c0,0,0,0,0,0
			c0.2,0,0.4-0.1,0.5-0.2c0.1-0.1,0.2-0.3,0.2-0.5l0-3.8c0,0,0,0,0,0s0,0,0,0l0-3.6c0-0.4-0.3-0.7-0.7-0.7l-7.8,0l0-64.1
			c3.9,2.6,17.5,13.1,24.1,34.6c1.5,4.8,2.6,9.9,3.2,15.2c0.1,1.1,0.3,2.2,0.4,3.3c0.6,4.9,1,9,1.4,12.6l0.1,1.2
			C87,88.8,87.3,89.5,96.7,93.3z M107.4,72.4c-0.8,0.8-1.8,1.2-2.8,1.2c0,0,0,0,0,0c-2,0-3.6-1.4-3.9-3.3c0-0.2-0.1-0.4-0.1-0.7
			c0-1.4,0.7-2.7,2-3.5c0,0,0,0,0,0c0.6-0.4,1.3-0.6,2-0.6c0,0,0,0,0,0c1.1,0,2.1,0.4,2.8,1.2c0.8,0.8,1.2,1.8,1.2,2.8
			C108.6,70.7,108.2,71.7,107.4,72.4z"/>
		<path class="st6" d="M60.3,20.5C60.3,20.5,60.3,20.5,60.3,20.5c0.7,0,1.3-0.3,1.8-0.7c0.5-0.5,0.7-1.1,0.7-1.8v0
			c0-1.4-1.1-2.5-2.5-2.5c-0.7,0-1.3,0.3-1.7,0.7c-0.5,0.5-0.7,1.1-0.7,1.8c0,0.7,0.3,1.3,0.7,1.8C59,20.3,59.7,20.5,60.3,20.5z
			 M59.6,17.3c0.2-0.2,0.5-0.3,0.8-0.3c0.6,0,1.1,0.5,1.1,1.1c0,0,0,0,0,0c0,0.3-0.1,0.6-0.3,0.8c-0.2,0.2-0.5,0.3-0.8,0.3
			c0,0,0,0,0,0c-0.3,0-0.6-0.1-0.8-0.3c-0.2-0.2-0.3-0.5-0.3-0.8C59.3,17.8,59.4,17.5,59.6,17.3z"/>
		<path class="st6" d="M83.8,28.8C83.8,28.8,83.8,28.8,83.8,28.8c1.4,0,2.5-1.1,2.5-2.5c0,0,0,0,0,0c0-1.4-1.1-2.5-2.5-2.5
			c-1.4,0-2.5,1.1-2.5,2.5c0,0.7,0.3,1.3,0.7,1.8C82.5,28.5,83.1,28.8,83.8,28.8z M83,25.5c0.2-0.2,0.5-0.3,0.8-0.3
			c0.6,0,1.1,0.5,1.1,1.1c0,0.6-0.5,1.1-1.1,1.1c0,0,0,0,0,0c-0.3,0-0.6-0.1-0.8-0.3c-0.2-0.2-0.3-0.5-0.3-0.8
			C82.7,26,82.8,25.7,83,25.5z"/>
		<path class="st6" d="M60.3,29.7C60.3,29.7,60.3,29.7,60.3,29.7c1.4,0,2.5-1.1,2.5-2.5c0,0,0,0,0,0c0-1.4-1.1-2.5-2.5-2.5
			c-1.4,0-2.5,1.1-2.5,2.5c0,0.7,0.3,1.3,0.7,1.8C59,29.4,59.7,29.7,60.3,29.7z M60.3,26.1c0.6,0,1.1,0.5,1.1,1.1
			c0,0.6-0.5,1.1-1.1,1.1c0,0,0,0,0,0c-0.3,0-0.6-0.1-0.8-0.3c-0.2-0.2-0.3-0.5-0.3-0.8C59.3,26.6,59.7,26.1,60.3,26.1z"/>
		<path class="st6" d="M60.3,38.8c1.4,0,2.5-1.1,2.5-2.5c0-1.4-1.1-2.5-2.5-2.5c-1.4,0-2.5,1.1-2.5,2.5C57.9,37.7,59,38.8,60.3,38.8
			C60.3,38.8,60.3,38.8,60.3,38.8z M59.3,36.4c0-0.6,0.5-1.1,1.1-1.1c0.6,0,1.1,0.5,1.1,1.1c0,0.6-0.5,1.1-1.1,1.1c0,0,0,0,0,0
			C59.7,37.4,59.3,36.9,59.3,36.4z"/>
		<path class="st6" d="M72.8,46.1c-1.3-0.8-2.8-1.2-4.3-1.2c-0.1,0-0.1,0-0.2,0c-0.1,0-0.1,0-0.2,0c-1.5,0-3,0.4-4.2,1.2
			c0,0,0,0,0,0c0,0-0.1,0-0.1,0c-1.2,0.7-2.1,1.7-2.9,2.8c-0.8,1.4-1.3,2.9-1.3,4.5c0,1.6,0.4,3.2,1.3,4.5c0.7,1.2,1.7,2.1,2.9,2.9
			c1.4,0.8,2.9,1.3,4.5,1.3c1.6,0,3.2-0.4,4.5-1.3c1.1-0.7,2.1-1.7,2.8-2.9c0.8-1.4,1.3-2.9,1.3-4.5c0-1.6-0.4-3.2-1.3-4.5
			C75,47.8,74,46.8,72.8,46.1z M74.6,57l-1.5,0l0-2.8l2.3,0C75.4,55.2,75.1,56.1,74.6,57z M71.7,59.9c-0.9,0.5-1.8,0.7-2.8,0.8
			l0-2.3l2.8,0L71.7,59.9z M64.8,58.4l2.8,0l0,2.3c-1-0.1-1.9-0.4-2.8-0.8L64.8,58.4z M61.9,50.1l1.5,0l0,2.8l-2.3,0
			C61.2,51.8,61.5,50.9,61.9,50.1z M64.8,47.2c0.9-0.5,1.8-0.8,2.8-0.8l0,2.3l-2.8,0L64.8,47.2z M71.7,48.7l-2.8,0l0-2.3
			c1,0.1,1.9,0.4,2.8,0.8L71.7,48.7z M71.7,50.1l0,2.8l-2.8,0l0-2.8L71.7,50.1z M67.6,50.1l0,2.8l-2.8,0l0-2.8L67.6,50.1z M61.9,57
			c-0.5-0.9-0.8-1.8-0.8-2.8l2.3,0l0,2.8L61.9,57z M64.8,54.2l2.8,0l0,2.8l-2.8,0L64.8,54.2z M69,57l0-2.8l2.8,0l0,2.8L69,57z
			 M73.1,52.8l0-2.8l1.5,0c0.5,0.8,0.8,1.8,0.8,2.8L73.1,52.8z M73.7,48.7l-0.5,0l0-0.5C73.3,48.3,73.5,48.5,73.7,48.7z M63.4,48.1
			l0,0.5l-0.5,0C63.1,48.5,63.3,48.3,63.4,48.1z M62.9,58.4l0.5,0l0,0.5C63.3,58.7,63.1,58.5,62.9,58.4z M73.1,58.9l0-0.5l0.5,0
			C73.5,58.5,73.3,58.7,73.1,58.9z"/>
	</g>
</g>
</svg>
