<?xml version="1.0" encoding="utf-8"?>
<svg version="1.1" id="the-element-couple-male-1" xmlns="http://www.w3.org/2000/svg" xmlns:xlink="http://www.w3.org/1999/xlink" x="0px"
	 y="0px" viewBox="0 0 308 240" style="enable-background:new 0 0 308 240;" xml:space="preserve">
<style type="text/css">
	.st0{fill:#121659;}
	.st1{fill:#F4AEB6;}
	.st2{fill:#FFF8EE;}
	.st3{fill:#231815;}
	.st4{fill:#97D2CE;}
	.st5{fill:#FFFFFF;}
	.st6{clip-path:url(#SVGID_00000030459864313082269520000018040568954724846484_);}
	.st7{fill:#EE795E;}
</style>
<g>
	<path class="st0" d="M37.1,174.3l2-10.6c0,0,9.8-6.7,13.8-6.9c4-0.3-2.3,9.9-2.3,9.9l-0.5,16l-10.2,5L37.1,174.3z"/>
	<path class="st0" d="M93.7,151.6h4.8c0,0,19.6,0.8,19.6,18.8s0,68.9,0,68.9H81.4H44.7c0,0,0-50.8,0-68.9s19.6-18.8,19.6-18.8H69
		H93.7z"/>
	<path class="st1" d="M69.9,165.1c0,0-2.6-4.6-4.6-0.2c-2,4.4-2,4.4-2,4.4s-2.6,2.1,1.4,2.1s10.2,0,10.2,0s3.5,0.6,0.9-1.5
		C73.1,167.8,69.9,165.1,69.9,165.1z"/>
	<path class="st2" d="M69,151.6c0,0-0.2,5.6,6.1,5.6s6.3-5.2,6.3-5.2"/>
	<path class="st2" d="M81.3,151.6c0,0-0.2,5.6,6.1,5.6s6.3-5.2,6.3-5.2"/>
	<path class="st1" d="M42.3,87c0,0-8.6-0.7-8.6,7.7s10.1,7.6,10.1,7.6"/>
	<path class="st1" d="M120.4,87c0,0,8.6-0.7,8.6,7.7s-10.1,7.6-10.1,7.6"/>
	<g>
		<rect x="69" y="143.4" class="st1" width="24.7" height="8.2"/>
		<path class="st3" d="M93.7,152.4H69c-0.4,0-0.8-0.4-0.8-0.8v-8.2c0-0.4,0.4-0.8,0.8-0.8h24.7c0.4,0,0.8,0.4,0.8,0.8v8.2
			C94.5,152,94.2,152.4,93.7,152.4z M69.8,150.8h23.1v-6.6H69.8V150.8z"/>
	</g>
	<g>
		<path class="st1" d="M81.3,36.1c0,0,44.7-3.8,38.4,61.8c0,0,0.3,29.6-26,45.5h-4.5h-7.9H68.9c-24.8-15.8-26-45.5-26-45.5
			C36.6,32.3,81.3,36.1,81.3,36.1"/>
		<path class="st3" d="M93.7,144.2H68.9c-0.2,0-0.3,0-0.4-0.1c-24.9-15.8-26.4-45.9-26.4-46.2C39.8,74,44,56.4,54.5,45.8
			c11.2-11.4,25.6-10.6,26.8-10.5c1.3-0.1,15.6-0.9,26.8,10.5c10.5,10.6,14.7,28.2,12.4,52.2c0,0.2,0,30.1-26.4,46.1
			C94,144.2,93.9,144.2,93.7,144.2z M69.2,142.6h24.4c25.4-15.5,25.5-44.4,25.5-44.7c2.2-23.6-1.8-40.7-12-51
			c-11-11.1-25.5-10-25.6-10c0,0-0.1,0-0.1,0c-0.1,0-14.6-1.1-25.6,10c-10.2,10.3-14.2,27.4-12,50.9
			C43.7,98.1,45.1,127.2,69.2,142.6z"/>
	</g>
	<path class="st3" d="M122.2,140.1c-0.3,0-0.5-0.1-0.7-0.3c-0.3-0.4-0.2-0.9,0.2-1.1c4.3-3.1,2.9-6.4,2.8-6.5
		c-0.2-0.4,0-0.9,0.4-1.1c0.4-0.2,0.9,0,1.1,0.4c0,0,2.1,4.6-3.3,8.5C122.5,140.1,122.4,140.1,122.2,140.1z"/>
	<path class="st3" d="M126.8,142c-0.3,0-0.5-0.1-0.7-0.3c-0.3-0.4-0.2-0.9,0.2-1.1c4.3-3.1,2.9-6.4,2.8-6.5c-0.2-0.4,0-0.9,0.4-1.1
		c0.4-0.2,0.9,0,1.1,0.4c0,0,2.1,4.6-3.3,8.5C127.1,141.9,126.9,142,126.8,142z"/>
	<path class="st3" d="M39.4,139.6c-0.1,0-0.2,0-0.3,0c0,0-4.8-1.7-3.7-8.3c0.1-0.4,0.5-0.7,0.9-0.7c0.4,0.1,0.7,0.5,0.7,0.9
		c-0.8,5.2,2.5,6.5,2.7,6.6c0.4,0.1,0.6,0.6,0.5,1C40,139.4,39.7,139.6,39.4,139.6z"/>
	<path class="st3" d="M34.8,141.5c-0.1,0-0.2,0-0.3,0c0,0-4.8-1.7-3.7-8.3c0.1-0.4,0.5-0.7,0.9-0.7c0.4,0.1,0.7,0.5,0.7,0.9
		c-0.8,5.2,2.5,6.5,2.7,6.6c0.4,0.1,0.6,0.6,0.5,1C35.5,141.3,35.2,141.5,34.8,141.5z"/>
	<path class="st2" d="M93.4,91.3c0,2.5,2,4.5,4.5,4.5c2.5,0,4.5-2,4.5-4.5c0-2.5-2-4.5-4.5-4.5C95.4,86.8,93.4,88.8,93.4,91.3z
		 M97.9,100.3c-5,0-9-4-9-9c0-5,4-9,9-9c2.6,0,4.9,1.1,6.5,2.8c1.6,1.6,2.5,3.8,2.5,6.2C106.9,96.3,102.9,100.3,97.9,100.3z"/>
	<path class="st4" d="M93.4,91.3c0-2.5,2-4.5,4.5-4.5c2.5,0,4.5,2,4.5,4.5c0,2.5-2,4.5-4.5,4.5C95.4,95.8,93.4,93.8,93.4,91.3z
		 M99.5,91.3c0-0.9-0.7-1.5-1.5-1.5s-1.5,0.7-1.5,1.5s0.7,1.5,1.5,1.5S99.5,92.2,99.5,91.3z"/>
	<path class="st3" d="M97.9,89.8c0.9,0,1.5,0.7,1.5,1.5s-0.7,1.5-1.5,1.5s-1.5-0.7-1.5-1.5S97.1,89.8,97.9,89.8z"/>
	<path class="st3" d="M63.1,91.3c0-0.9,0.7-1.5,1.5-1.5c0.9,0,1.5,0.7,1.5,1.5s-0.7,1.5-1.5,1.5C63.8,92.9,63.1,92.2,63.1,91.3z"/>
	<path class="st2" d="M64.6,95.8c2.5,0,4.5-2,4.5-4.5c0-2.5-2-4.5-4.5-4.5c-2.5,0-4.5,2-4.5,4.5C60.1,93.8,62.2,95.8,64.6,95.8z
		 M64.6,100.3c-5,0-9-4-9-9c0-2.4,1-4.6,2.5-6.2c1.6-1.7,3.9-2.8,6.5-2.8c5,0,9,4,9,9C73.6,96.3,69.6,100.3,64.6,100.3z"/>
	<path class="st4" d="M60.1,91.3c0-2.5,2-4.5,4.5-4.5c2.5,0,4.5,2,4.5,4.5c0,2.5-2,4.5-4.5,4.5C62.2,95.8,60.1,93.8,60.1,91.3z
		 M66.2,91.3c0-0.9-0.7-1.5-1.5-1.5c-0.9,0-1.5,0.7-1.5,1.5s0.7,1.5,1.5,1.5C65.5,92.9,66.2,92.2,66.2,91.3z"/>
	<path class="st3" d="M64.6,101.1c-5.4,0-9.8-4.4-9.8-9.8c0-2.5,1-5,2.7-6.8c1.8-1.9,4.4-3,7.1-3c5.4,0,9.8,4.4,9.8,9.8
		C74.4,96.7,70,101.1,64.6,101.1z M64.6,83.1c-2.2,0-4.4,0.9-5.9,2.5c-1.5,1.5-2.3,3.5-2.3,5.7c0,4.5,3.7,8.2,8.2,8.2
		c4.5,0,8.2-3.7,8.2-8.2C72.8,86.8,69.2,83.1,64.6,83.1z"/>
	<path class="st3" d="M64.6,96.6c-2.9,0-5.3-2.4-5.3-5.3c0-2.9,2.4-5.3,5.3-5.3c2.9,0,5.3,2.4,5.3,5.3
		C69.9,94.3,67.6,96.6,64.6,96.6z M64.6,87.6c-2,0-3.7,1.7-3.7,3.7c0,2,1.7,3.7,3.7,3.7c2,0,3.7-1.7,3.7-3.7
		C68.3,89.3,66.7,87.6,64.6,87.6z"/>
	<path class="st3" d="M61.9,83.3c-0.3,0-0.6-0.2-0.8-0.5l-1.1-3.3c-0.1-0.4,0.1-0.9,0.5-1c0.4-0.1,0.9,0.1,1,0.5l1.1,3.3
		c0.1,0.4-0.1,0.9-0.5,1C62.1,83.3,62,83.3,61.9,83.3z"/>
	<path class="st3" d="M58.2,85.9c-0.2,0-0.5-0.1-0.6-0.3L54.9,83c-0.3-0.3-0.3-0.8,0-1.1c0.3-0.3,0.8-0.3,1.1,0l2.7,2.6
		c0.1,0.1,0.1,0.1,0.2,0.2c0.2,0.4,0.1,0.9-0.3,1.1C58.4,85.9,58.3,85.9,58.2,85.9z"/>
	<path class="st3" d="M68.1,83.7c-0.1,0-0.2,0-0.3,0c-0.4-0.1-0.6-0.6-0.5-1l1.1-3.3c0.1-0.4,0.6-0.6,1-0.5c0.4,0.1,0.6,0.6,0.5,1
		l-1.1,3.3C68.7,83.5,68.4,83.7,68.1,83.7z"/>
	<path class="st3" d="M71.8,86.3c-0.2,0-0.4-0.1-0.6-0.2c-0.3-0.3-0.3-0.8,0-1.1l2.7-2.7c0.3-0.3,0.8-0.3,1.1,0
		c0.3,0.3,0.3,0.8,0,1.1L72.4,86C72.2,86.2,72,86.3,71.8,86.3z"/>
	<path class="st3" d="M97.9,101.1c-5.4,0-9.8-4.4-9.8-9.8c0-5.4,4.4-9.8,9.8-9.8c2.7,0,5.2,1.1,7.1,3c1.8,1.8,2.7,4.2,2.7,6.8
		C107.7,96.7,103.3,101.1,97.9,101.1z M97.9,83.1c-4.5,0-8.2,3.7-8.2,8.2c0,4.5,3.7,8.2,8.2,8.2c4.5,0,8.2-3.7,8.2-8.2
		c0-2.1-0.8-4.1-2.3-5.7C102.3,84,100.2,83.1,97.9,83.1z"/>
	<path class="st3" d="M97.9,96.6c-2.9,0-5.3-2.4-5.3-5.3c0-2.9,2.4-5.3,5.3-5.3c2.9,0,5.3,2.4,5.3,5.3
		C103.2,94.3,100.9,96.6,97.9,96.6z M97.9,87.6c-2,0-3.7,1.7-3.7,3.7c0,2,1.7,3.7,3.7,3.7c2,0,3.7-1.7,3.7-3.7
		C101.6,89.3,100,87.6,97.9,87.6z"/>
	<path class="st3" d="M100.6,83.3c-0.1,0-0.2,0-0.3,0c-0.4-0.1-0.6-0.6-0.5-1L101,79c0.1-0.4,0.6-0.6,1-0.5c0.4,0.1,0.6,0.6,0.5,1
		l-1.1,3.3C101.3,83.1,101,83.3,100.6,83.3z"/>
	<path class="st3" d="M104.4,85.9c-0.2,0-0.4-0.1-0.6-0.2c-0.3-0.3-0.3-0.8,0-1.1l2.7-2.7c0.3-0.3,0.8-0.3,1.1,0
		c0.3,0.3,0.3,0.8,0,1.1l-2.7,2.6C104.8,85.8,104.6,85.9,104.4,85.9z"/>
	<path class="st3" d="M94.5,83.7c-0.3,0-0.6-0.2-0.8-0.5l-1.1-3.3c-0.1-0.4,0.1-0.9,0.5-1c0.4-0.1,0.9,0.1,1,0.5l1.1,3.3
		c0.1,0.4-0.1,0.9-0.5,1C94.7,83.7,94.6,83.7,94.5,83.7z"/>
	<path class="st3" d="M90.8,86.3c-0.2,0-0.4-0.1-0.6-0.2l-2.7-2.7c-0.3-0.3-0.3-0.8,0-1.1c0.3-0.3,0.8-0.3,1.1,0l2.7,2.7
		c0.3,0.3,0.3,0.8,0,1.1C91.2,86.2,91,86.3,90.8,86.3z"/>
	<polygon class="st5" points="104,239.2 56.4,239.2 56.4,232.7 57.9,229 57.9,181.6 56.4,177.8 56.4,171.4 104,171.4 104,177.8 
		102.5,181.6 102.5,229 104,232.7 	"/>
	<g>
		<defs>
			<polygon id="SVGID_1_" points="104,239.2 56.4,239.2 56.4,232.7 57.9,229 57.9,181.6 56.4,177.8 56.4,171.4 104,171.4 104,177.8 
				102.5,181.6 102.5,229 104,232.7 			"/>
		</defs>
		<clipPath id="SVGID_00000054952961653804588080000006240157293287312316_">
			<use xlink:href="#SVGID_1_"  style="overflow:visible;"/>
		</clipPath>
		<g style="clip-path:url(#SVGID_00000054952961653804588080000006240157293287312316_);">
			<circle class="st7" cx="63.4" cy="227.5" r="4.3"/>
			<path class="st3" d="M63.4,232.6c-2.8,0-5.1-2.3-5.1-5.1s2.3-5.1,5.1-5.1c2.8,0,5.1,2.3,5.1,5.1S66.2,232.6,63.4,232.6z
				 M63.4,223.9c-2,0-3.5,1.6-3.5,3.5c0,2,1.6,3.5,3.5,3.5s3.5-1.6,3.5-3.5C66.9,225.5,65.3,223.9,63.4,223.9z"/>
		</g>
		<g style="clip-path:url(#SVGID_00000054952961653804588080000006240157293287312316_);">
			<circle class="st7" cx="72" cy="227.5" r="4.3"/>
			<path class="st3" d="M72,232.6c-2.8,0-5.1-2.3-5.1-5.1s2.3-5.1,5.1-5.1c2.8,0,5.1,2.3,5.1,5.1S74.9,232.6,72,232.6z M72,223.9
				c-2,0-3.5,1.6-3.5,3.5c0,2,1.6,3.5,3.5,3.5s3.5-1.6,3.5-3.5C75.6,225.5,74,223.9,72,223.9z"/>
		</g>
		<g style="clip-path:url(#SVGID_00000054952961653804588080000006240157293287312316_);">
			<circle class="st7" cx="80.7" cy="227.5" r="4.3"/>
			<path class="st3" d="M80.7,232.6c-2.8,0-5.1-2.3-5.1-5.1s2.3-5.1,5.1-5.1c2.8,0,5.1,2.3,5.1,5.1S83.6,232.6,80.7,232.6z
				 M80.7,223.9c-2,0-3.5,1.6-3.5,3.5c0,2,1.6,3.5,3.5,3.5s3.5-1.6,3.5-3.5C84.3,225.5,82.7,223.9,80.7,223.9z"/>
		</g>
		<g style="clip-path:url(#SVGID_00000054952961653804588080000006240157293287312316_);">
			<circle class="st7" cx="89.4" cy="227.5" r="4.3"/>
			<path class="st3" d="M89.4,232.6c-2.8,0-5.1-2.3-5.1-5.1s2.3-5.1,5.1-5.1c2.8,0,5.1,2.3,5.1,5.1S92.3,232.6,89.4,232.6z
				 M89.4,223.9c-2,0-3.5,1.6-3.5,3.5c0,2,1.6,3.5,3.5,3.5s3.5-1.6,3.5-3.5C93,225.5,91.4,223.9,89.4,223.9z"/>
		</g>
		<g style="clip-path:url(#SVGID_00000054952961653804588080000006240157293287312316_);">
			<circle class="st7" cx="98.1" cy="227.5" r="4.3"/>
			<path class="st3" d="M98.1,232.6c-2.8,0-5.1-2.3-5.1-5.1s2.3-5.1,5.1-5.1c2.8,0,5.1,2.3,5.1,5.1S101,232.6,98.1,232.6z
				 M98.1,223.9c-2,0-3.5,1.6-3.5,3.5c0,2,1.6,3.5,3.5,3.5s3.5-1.6,3.5-3.5C101.7,225.5,100.1,223.9,98.1,223.9z"/>
		</g>
		<g style="clip-path:url(#SVGID_00000054952961653804588080000006240157293287312316_);">
			<circle class="st7" cx="59" cy="218.8" r="4.3"/>
			<path class="st3" d="M59,223.9c-2.8,0-5.1-2.3-5.1-5.1s2.3-5.1,5.1-5.1c2.8,0,5.1,2.3,5.1,5.1S61.8,223.9,59,223.9z M59,215.3
				c-2,0-3.5,1.6-3.5,3.5s1.6,3.5,3.5,3.5s3.5-1.6,3.5-3.5S61,215.3,59,215.3z"/>
		</g>
		<g style="clip-path:url(#SVGID_00000054952961653804588080000006240157293287312316_);">
			<circle class="st7" cx="67.7" cy="218.8" r="4.3"/>
			<path class="st3" d="M67.7,223.9c-2.8,0-5.1-2.3-5.1-5.1s2.3-5.1,5.1-5.1c2.8,0,5.1,2.3,5.1,5.1S70.5,223.9,67.7,223.9z
				 M67.7,215.3c-2,0-3.5,1.6-3.5,3.5s1.6,3.5,3.5,3.5s3.5-1.6,3.5-3.5S69.7,215.3,67.7,215.3z"/>
		</g>
		<g style="clip-path:url(#SVGID_00000054952961653804588080000006240157293287312316_);">
			<circle class="st7" cx="76.4" cy="218.8" r="4.3"/>
			<path class="st3" d="M76.4,223.9c-2.8,0-5.1-2.3-5.1-5.1s2.3-5.1,5.1-5.1c2.8,0,5.1,2.3,5.1,5.1S79.2,223.9,76.4,223.9z
				 M76.4,215.3c-2,0-3.5,1.6-3.5,3.5s1.6,3.5,3.5,3.5s3.5-1.6,3.5-3.5S78.3,215.3,76.4,215.3z"/>
		</g>
		<g style="clip-path:url(#SVGID_00000054952961653804588080000006240157293287312316_);">
			<circle class="st7" cx="85.1" cy="218.8" r="4.3"/>
			<path class="st3" d="M85.1,223.9c-2.8,0-5.1-2.3-5.1-5.1s2.3-5.1,5.1-5.1c2.8,0,5.1,2.3,5.1,5.1S87.9,223.9,85.1,223.9z
				 M85.1,215.3c-2,0-3.5,1.6-3.5,3.5s1.6,3.5,3.5,3.5s3.5-1.6,3.5-3.5S87,215.3,85.1,215.3z"/>
		</g>
		<g style="clip-path:url(#SVGID_00000054952961653804588080000006240157293287312316_);">
			<circle class="st7" cx="93.8" cy="218.8" r="4.3"/>
			<path class="st3" d="M93.8,223.9c-2.8,0-5.1-2.3-5.1-5.1s2.3-5.1,5.1-5.1c2.8,0,5.1,2.3,5.1,5.1S96.6,223.9,93.8,223.9z
				 M93.8,215.3c-2,0-3.5,1.6-3.5,3.5s1.6,3.5,3.5,3.5s3.5-1.6,3.5-3.5S95.7,215.3,93.8,215.3z"/>
		</g>
		<g style="clip-path:url(#SVGID_00000054952961653804588080000006240157293287312316_);">
			<circle class="st7" cx="102.5" cy="218.8" r="4.3"/>
			<path class="st3" d="M102.5,223.9c-2.8,0-5.1-2.3-5.1-5.1s2.3-5.1,5.1-5.1c2.8,0,5.1,2.3,5.1,5.1S105.3,223.9,102.5,223.9z
				 M102.5,215.3c-2,0-3.5,1.6-3.5,3.5s1.6,3.5,3.5,3.5s3.5-1.6,3.5-3.5S104.4,215.3,102.5,215.3z"/>
		</g>
		<g style="clip-path:url(#SVGID_00000054952961653804588080000006240157293287312316_);">
			<circle class="st7" cx="63.4" cy="210.1" r="4.3"/>
			<path class="st3" d="M63.4,215.3c-2.8,0-5.1-2.3-5.1-5.1s2.3-5.1,5.1-5.1c2.8,0,5.1,2.3,5.1,5.1S66.2,215.3,63.4,215.3z
				 M63.4,206.6c-2,0-3.5,1.6-3.5,3.5c0,2,1.6,3.5,3.5,3.5s3.5-1.6,3.5-3.5C66.9,208.2,65.3,206.6,63.4,206.6z"/>
		</g>
		<g style="clip-path:url(#SVGID_00000054952961653804588080000006240157293287312316_);">
			<circle class="st7" cx="72" cy="210.1" r="4.3"/>
			<path class="st3" d="M72,215.3c-2.8,0-5.1-2.3-5.1-5.1s2.3-5.1,5.1-5.1c2.8,0,5.1,2.3,5.1,5.1S74.9,215.3,72,215.3z M72,206.6
				c-2,0-3.5,1.6-3.5,3.5c0,2,1.6,3.5,3.5,3.5s3.5-1.6,3.5-3.5C75.6,208.2,74,206.6,72,206.6z"/>
		</g>
		<g style="clip-path:url(#SVGID_00000054952961653804588080000006240157293287312316_);">
			<circle class="st7" cx="80.7" cy="210.1" r="4.3"/>
			<path class="st3" d="M80.7,215.3c-2.8,0-5.1-2.3-5.1-5.1s2.3-5.1,5.1-5.1c2.8,0,5.1,2.3,5.1,5.1S83.6,215.3,80.7,215.3z
				 M80.7,206.6c-2,0-3.5,1.6-3.5,3.5c0,2,1.6,3.5,3.5,3.5s3.5-1.6,3.5-3.5C84.3,208.2,82.7,206.6,80.7,206.6z"/>
		</g>
		<g style="clip-path:url(#SVGID_00000054952961653804588080000006240157293287312316_);">
			<circle class="st7" cx="89.4" cy="210.1" r="4.3"/>
			<path class="st3" d="M89.4,215.3c-2.8,0-5.1-2.3-5.1-5.1s2.3-5.1,5.1-5.1c2.8,0,5.1,2.3,5.1,5.1S92.3,215.3,89.4,215.3z
				 M89.4,206.6c-2,0-3.5,1.6-3.5,3.5c0,2,1.6,3.5,3.5,3.5s3.5-1.6,3.5-3.5C93,208.2,91.4,206.6,89.4,206.6z"/>
		</g>
		<g style="clip-path:url(#SVGID_00000054952961653804588080000006240157293287312316_);">
			<circle class="st7" cx="98.1" cy="210.1" r="4.3"/>
			<path class="st3" d="M98.1,215.3c-2.8,0-5.1-2.3-5.1-5.1s2.3-5.1,5.1-5.1c2.8,0,5.1,2.3,5.1,5.1S101,215.3,98.1,215.3z
				 M98.1,206.6c-2,0-3.5,1.6-3.5,3.5c0,2,1.6,3.5,3.5,3.5s3.5-1.6,3.5-3.5C101.7,208.2,100.1,206.6,98.1,206.6z"/>
		</g>
		<g style="clip-path:url(#SVGID_00000054952961653804588080000006240157293287312316_);">
			<circle class="st7" cx="59" cy="201.4" r="4.3"/>
			<path class="st3" d="M59,206.6c-2.8,0-5.1-2.3-5.1-5.1s2.3-5.1,5.1-5.1c2.8,0,5.1,2.3,5.1,5.1S61.8,206.6,59,206.6z M59,197.9
				c-2,0-3.5,1.6-3.5,3.5s1.6,3.5,3.5,3.5s3.5-1.6,3.5-3.5S61,197.9,59,197.9z"/>
		</g>
		<g style="clip-path:url(#SVGID_00000054952961653804588080000006240157293287312316_);">
			<circle class="st7" cx="67.7" cy="201.4" r="4.3"/>
			<path class="st3" d="M67.7,206.6c-2.8,0-5.1-2.3-5.1-5.1s2.3-5.1,5.1-5.1c2.8,0,5.1,2.3,5.1,5.1S70.5,206.6,67.7,206.6z
				 M67.7,197.9c-2,0-3.5,1.6-3.5,3.5s1.6,3.5,3.5,3.5s3.5-1.6,3.5-3.5S69.7,197.9,67.7,197.9z"/>
		</g>
		<g style="clip-path:url(#SVGID_00000054952961653804588080000006240157293287312316_);">
			<circle class="st7" cx="76.4" cy="201.4" r="4.3"/>
			<path class="st3" d="M76.4,206.6c-2.8,0-5.1-2.3-5.1-5.1s2.3-5.1,5.1-5.1c2.8,0,5.1,2.3,5.1,5.1S79.2,206.6,76.4,206.6z
				 M76.4,197.9c-2,0-3.5,1.6-3.5,3.5s1.6,3.5,3.5,3.5s3.5-1.6,3.5-3.5S78.3,197.9,76.4,197.9z"/>
		</g>
		<g style="clip-path:url(#SVGID_00000054952961653804588080000006240157293287312316_);">
			<circle class="st7" cx="85.1" cy="201.4" r="4.3"/>
			<path class="st3" d="M85.1,206.6c-2.8,0-5.1-2.3-5.1-5.1s2.3-5.1,5.1-5.1c2.8,0,5.1,2.3,5.1,5.1S87.9,206.6,85.1,206.6z
				 M85.1,197.9c-2,0-3.5,1.6-3.5,3.5s1.6,3.5,3.5,3.5s3.5-1.6,3.5-3.5S87,197.9,85.1,197.9z"/>
		</g>
		<g style="clip-path:url(#SVGID_00000054952961653804588080000006240157293287312316_);">
			<circle class="st7" cx="93.8" cy="201.4" r="4.3"/>
			<path class="st3" d="M93.8,206.6c-2.8,0-5.1-2.3-5.1-5.1s2.3-5.1,5.1-5.1c2.8,0,5.1,2.3,5.1,5.1S96.6,206.6,93.8,206.6z
				 M93.8,197.9c-2,0-3.5,1.6-3.5,3.5s1.6,3.5,3.5,3.5s3.5-1.6,3.5-3.5S95.7,197.9,93.8,197.9z"/>
		</g>
		<g style="clip-path:url(#SVGID_00000054952961653804588080000006240157293287312316_);">
			<circle class="st7" cx="102.5" cy="201.4" r="4.3"/>
			<path class="st3" d="M102.5,206.6c-2.8,0-5.1-2.3-5.1-5.1s2.3-5.1,5.1-5.1c2.8,0,5.1,2.3,5.1,5.1S105.3,206.6,102.5,206.6z
				 M102.5,197.9c-2,0-3.5,1.6-3.5,3.5s1.6,3.5,3.5,3.5s3.5-1.6,3.5-3.5S104.4,197.9,102.5,197.9z"/>
		</g>
		<g style="clip-path:url(#SVGID_00000054952961653804588080000006240157293287312316_);">
			<circle class="st7" cx="63.4" cy="192.7" r="4.3"/>
			<path class="st3" d="M63.4,197.9c-2.8,0-5.1-2.3-5.1-5.1s2.3-5.1,5.1-5.1c2.8,0,5.1,2.3,5.1,5.1S66.2,197.9,63.4,197.9z
				 M63.4,189.2c-2,0-3.5,1.6-3.5,3.5c0,2,1.6,3.5,3.5,3.5s3.5-1.6,3.5-3.5C66.9,190.8,65.3,189.2,63.4,189.2z"/>
		</g>
		<g style="clip-path:url(#SVGID_00000054952961653804588080000006240157293287312316_);">
			<circle class="st7" cx="72" cy="192.7" r="4.3"/>
			<path class="st3" d="M72,197.9c-2.8,0-5.1-2.3-5.1-5.1s2.3-5.1,5.1-5.1c2.8,0,5.1,2.3,5.1,5.1S74.9,197.9,72,197.9z M72,189.2
				c-2,0-3.5,1.6-3.5,3.5c0,2,1.6,3.5,3.5,3.5s3.5-1.6,3.5-3.5C75.6,190.8,74,189.2,72,189.2z"/>
		</g>
		<g style="clip-path:url(#SVGID_00000054952961653804588080000006240157293287312316_);">
			<circle class="st7" cx="80.7" cy="192.7" r="4.3"/>
			<path class="st3" d="M80.7,197.9c-2.8,0-5.1-2.3-5.1-5.1s2.3-5.1,5.1-5.1c2.8,0,5.1,2.3,5.1,5.1S83.6,197.9,80.7,197.9z
				 M80.7,189.2c-2,0-3.5,1.6-3.5,3.5c0,2,1.6,3.5,3.5,3.5s3.5-1.6,3.5-3.5C84.3,190.8,82.7,189.2,80.7,189.2z"/>
		</g>
		<g style="clip-path:url(#SVGID_00000054952961653804588080000006240157293287312316_);">
			<circle class="st7" cx="89.4" cy="192.7" r="4.3"/>
			<path class="st3" d="M89.4,197.9c-2.8,0-5.1-2.3-5.1-5.1s2.3-5.1,5.1-5.1c2.8,0,5.1,2.3,5.1,5.1S92.3,197.9,89.4,197.9z
				 M89.4,189.2c-2,0-3.5,1.6-3.5,3.5c0,2,1.6,3.5,3.5,3.5s3.5-1.6,3.5-3.5C93,190.8,91.4,189.2,89.4,189.2z"/>
		</g>
		<g style="clip-path:url(#SVGID_00000054952961653804588080000006240157293287312316_);">
			<circle class="st7" cx="98.1" cy="192.7" r="4.3"/>
			<path class="st3" d="M98.1,197.9c-2.8,0-5.1-2.3-5.1-5.1s2.3-5.1,5.1-5.1c2.8,0,5.1,2.3,5.1,5.1S101,197.9,98.1,197.9z
				 M98.1,189.2c-2,0-3.5,1.6-3.5,3.5c0,2,1.6,3.5,3.5,3.5s3.5-1.6,3.5-3.5C101.7,190.8,100.1,189.2,98.1,189.2z"/>
		</g>
		<g style="clip-path:url(#SVGID_00000054952961653804588080000006240157293287312316_);">
			<circle class="st7" cx="59" cy="184" r="4.3"/>
			<path class="st3" d="M59,189.2c-2.8,0-5.1-2.3-5.1-5.1s2.3-5.1,5.1-5.1c2.8,0,5.1,2.3,5.1,5.1S61.8,189.2,59,189.2z M59,180.5
				c-2,0-3.5,1.6-3.5,3.5s1.6,3.5,3.5,3.5s3.5-1.6,3.5-3.5S61,180.5,59,180.5z"/>
		</g>
		<g style="clip-path:url(#SVGID_00000054952961653804588080000006240157293287312316_);">
			<circle class="st7" cx="67.7" cy="184" r="4.3"/>
			<path class="st3" d="M67.7,189.2c-2.8,0-5.1-2.3-5.1-5.1s2.3-5.1,5.1-5.1c2.8,0,5.1,2.3,5.1,5.1S70.5,189.2,67.7,189.2z
				 M67.7,180.5c-2,0-3.5,1.6-3.5,3.5s1.6,3.5,3.5,3.5s3.5-1.6,3.5-3.5S69.7,180.5,67.7,180.5z"/>
		</g>
		<g style="clip-path:url(#SVGID_00000054952961653804588080000006240157293287312316_);">
			<circle class="st7" cx="76.4" cy="184" r="4.3"/>
			<path class="st3" d="M76.4,189.2c-2.8,0-5.1-2.3-5.1-5.1s2.3-5.1,5.1-5.1c2.8,0,5.1,2.3,5.1,5.1S79.2,189.2,76.4,189.2z
				 M76.4,180.5c-2,0-3.5,1.6-3.5,3.5s1.6,3.5,3.5,3.5s3.5-1.6,3.5-3.5S78.3,180.5,76.4,180.5z"/>
		</g>
		<g style="clip-path:url(#SVGID_00000054952961653804588080000006240157293287312316_);">
			<circle class="st7" cx="85.1" cy="184" r="4.3"/>
			<path class="st3" d="M85.1,189.2c-2.8,0-5.1-2.3-5.1-5.1s2.3-5.1,5.1-5.1c2.8,0,5.1,2.3,5.1,5.1S87.9,189.2,85.1,189.2z
				 M85.1,180.5c-2,0-3.5,1.6-3.5,3.5s1.6,3.5,3.5,3.5s3.5-1.6,3.5-3.5S87,180.5,85.1,180.5z"/>
		</g>
		<g style="clip-path:url(#SVGID_00000054952961653804588080000006240157293287312316_);">
			<circle class="st7" cx="93.8" cy="184" r="4.3"/>
			<path class="st3" d="M93.8,189.2c-2.8,0-5.1-2.3-5.1-5.1s2.3-5.1,5.1-5.1c2.8,0,5.1,2.3,5.1,5.1S96.6,189.2,93.8,189.2z
				 M93.8,180.5c-2,0-3.5,1.6-3.5,3.5s1.6,3.5,3.5,3.5s3.5-1.6,3.5-3.5S95.7,180.5,93.8,180.5z"/>
		</g>
		<g style="clip-path:url(#SVGID_00000054952961653804588080000006240157293287312316_);">
			<circle class="st7" cx="93.7" cy="184.2" r="4.3"/>
			<path class="st3" d="M93.7,189.3c-2.8,0-5.1-2.3-5.1-5.1s2.3-5.1,5.1-5.1c2.8,0,5.1,2.3,5.1,5.1S96.6,189.3,93.7,189.3z
				 M93.7,180.6c-2,0-3.5,1.6-3.5,3.5s1.6,3.5,3.5,3.5s3.5-1.6,3.5-3.5S95.7,180.6,93.7,180.6z"/>
		</g>
		<g style="clip-path:url(#SVGID_00000054952961653804588080000006240157293287312316_);">
			<circle class="st7" cx="102.5" cy="184" r="4.3"/>
			<path class="st3" d="M102.5,189.2c-2.8,0-5.1-2.3-5.1-5.1s2.3-5.1,5.1-5.1c2.8,0,5.1,2.3,5.1,5.1S105.3,189.2,102.5,189.2z
				 M102.5,180.5c-2,0-3.5,1.6-3.5,3.5s1.6,3.5,3.5,3.5s3.5-1.6,3.5-3.5S104.4,180.5,102.5,180.5z"/>
		</g>
	</g>
	<path class="st3" d="M104.8,240H55.6v-7.4l1.5-3.7v-47.2l-1.5-3.7v-7.4h49.2v7.4l-1.5,3.7v47.2l1.5,3.7V240z M57.2,238.4h46v-5.5
		l-1.5-3.7v-47.8l1.5-3.7v-5.5h-46v5.5l1.5,3.7v47.8l-1.5,3.7V238.4z"/>
	<rect x="56.4" y="177" class="st3" width="47.6" height="1.6"/>
	<rect x="56.4" y="231.9" class="st3" width="47.6" height="1.6"/>
	<g>
		<rect x="71.1" y="189.1" class="st5" width="18.1" height="32.4"/>
		<path class="st3" d="M90,222.3H70.3v-34H90V222.3z M71.9,220.7h16.5v-30.8H71.9V220.7z"/>
	</g>
	<path class="st3" d="M81.3,110.3c-1.6,0-3.1-0.8-4.1-2.1c-0.9-1.3-1.3-2.9-0.9-4.2c0.6-1.9,3.7-10.3,4.2-11.6
		c0-0.1,0.1-0.3,0.1-0.4c0.3-0.4,1-0.4,1.3,0c0.1,0.1,0.1,0.2,0.1,0.3c0.5,1.3,3.6,9.8,4.2,11.7c0.4,1.3,0,2.9-0.9,4.2
		C84.4,109.6,82.9,110.3,81.3,110.3z M81.3,94.9c-1.1,3-3,8.3-3.4,9.7c-0.2,0.8,0,1.9,0.7,2.8c0.4,0.5,1.3,1.4,2.8,1.4
		s2.4-0.9,2.8-1.4c0.6-0.9,0.9-2,0.7-2.8C84.3,103.1,82.4,97.9,81.3,94.9z"/>
	<path class="st3" d="M77.3,171.9c-0.2,0-0.4-0.1-0.5-0.2l-10.2-8.2c-0.3-0.3-0.4-0.8-0.1-1.1c0.3-0.3,0.8-0.4,1.1-0.1l10.2,8.2
		c0.3,0.3,0.4,0.8,0.1,1.1C77.8,171.8,77.5,171.9,77.3,171.9z"/>
	<path class="st1" d="M95.6,207l9.7,0.4c-0.2-0.2-4.6-4.6-3.8-6.3c0.7-1.4,2.4-1,3.9,0.3c1.4,1.3,8.3,7.3,8.3,7.3l-0.1,9.4
		c0,0-8.3,7.4-9.1,8c-1.8,1.3-3.1,1.1-3.4-0.2c-0.4-1.7,4.1-5.9,4.1-5.9s-8.8,0.1-9.8,0.1c-1,0-2.7-0.6-2.8-2.4
		c0-1.8,2.6-2.2,2.6-2.2c-1.7,0.1-2.8-1-2.7-2.4c0.1-1.8,2.5-2,2.8-2c-1.2-0.1-2.9-0.7-2.8-2.4C92.6,206.8,95.6,207,95.6,207z"/>
	<path class="st3" d="M104.4,216.6C104.3,216.6,104.3,216.6,104.4,216.6l-9.3-0.3c-1,0.1-2-0.3-2.6-0.9c-0.6-0.6-0.9-1.4-0.8-2.3
		c0.1-2.1,2.4-2.7,3.6-2.7c0.5,0,0.8,0.3,0.8,0.8c0,0.4-0.3,0.8-0.8,0.8c0,0-2,0.1-2,1.2c0,0.4,0.1,0.8,0.4,1
		c0.3,0.3,0.9,0.5,1.5,0.5l9.3,0.3c0.4,0,0.8,0.4,0.8,0.8C105.1,216.2,104.8,216.6,104.4,216.6z"/>
	<path class="st3" d="M104.5,212.2C104.5,212.2,104.5,212.2,104.5,212.2c-0.3,0-7.8-0.2-9.2-0.3c0,0-0.1,0-0.1,0c0,0,0,0-0.1,0
		c-0.9-0.1-2.2-0.4-2.9-1.3c-0.5-0.5-0.7-1.2-0.6-2c0.2-2.2,2.7-2.6,4-2.5l9.6,0.4c0.4,0,0.8,0.4,0.8,0.8s-0.4,0.8-0.8,0.8l-9.7-0.4
		c-0.1,0-2.2-0.1-2.3,1c0,0.3,0,0.6,0.2,0.8c0.4,0.4,1.1,0.7,1.7,0.7c0,0,0.1,0,0.1,0c1.1,0.1,9.1,0.3,9.2,0.3
		c0.4,0,0.8,0.4,0.8,0.8C105.3,211.9,104.9,212.2,104.5,212.2z"/>
	<path class="st3" d="M102.3,227.8c-0.3,0-0.6-0.1-0.8-0.1c-0.7-0.2-1.1-0.8-1.3-1.6c-0.3-1.4,1.5-3.7,2.9-5.3
		c-2.6,0-7.1,0.1-7.9,0.1c-1.7,0-3.5-1.1-3.6-3.2c0-2,2-2.8,3.3-3c0.4-0.1,0.8,0.2,0.9,0.7c0.1,0.4-0.2,0.8-0.7,0.9
		c0,0-2,0.4-1.9,1.4c0,1.6,1.9,1.6,2,1.6c1,0,9.5-0.1,9.8-0.1c0.3,0,0.6,0.2,0.8,0.5c0.1,0.3,0.1,0.7-0.2,0.9
		c-2.2,2.1-4,4.5-3.8,5.2c0.1,0.4,0.2,0.4,0.3,0.4c0.3,0.1,0.9,0,1.8-0.7c0.6-0.4,5.5-4.7,8.8-7.7l0.1-8.7c-1.3-1.1-6.8-5.8-8.1-7
		c-0.8-0.7-1.6-1.1-2.1-1c-0.1,0-0.3,0.1-0.5,0.4c-0.2,0.5,0.8,2.4,3.6,5.3c0.1,0.1,0.2,0.3,0.3,0.5c0.1,0.4-0.2,0.9-0.6,0.9
		c-0.3,0.1-0.6,0-0.7-0.2c-3.3-3.4-4.6-5.8-3.9-7.2c0.3-0.7,0.9-1.2,1.6-1.3c1.1-0.2,2.3,0.3,3.5,1.4c1.4,1.3,8.2,7.2,8.3,7.2
		c0.2,0.2,0.3,0.4,0.3,0.6l-0.1,9.4c0,0.2-0.1,0.4-0.3,0.6c-0.9,0.8-8.4,7.4-9.2,8C103.8,227.5,102.9,227.8,102.3,227.8z"/>
	<path class="st3" d="M81.4,240H44.7c-0.4,0-0.8-0.4-0.8-0.8v-68.9c0-18.6,20.1-19.6,20.4-19.6H69c0.4,0,0.8,0.4,0.8,0.8
		s-0.4,0.8-0.8,0.8h-4.8c0,0-4.8,0.2-9.5,2.6c-6.2,3.1-9.3,8.3-9.3,15.4v68.1h35.9c0.4,0,0.8,0.4,0.8,0.8S81.8,240,81.4,240z"/>
	<path class="st3" d="M118.1,240H81.4c-0.4,0-0.8-0.4-0.8-0.8s0.4-0.8,0.8-0.8h35.9v-68.1c0-7.1-3.1-12.3-9.3-15.4
		c-4.7-2.4-9.5-2.6-9.5-2.6h-4.7c-0.4,0-0.8-0.4-0.8-0.8s0.4-0.8,0.8-0.8h4.8c0.2,0,20.4,1,20.4,19.6v68.9
		C118.9,239.6,118.5,240,118.1,240z"/>
	<path class="st0" d="M118.1,184.2c0,0,18,4.3,16.6,14c-1.4,9.7-21.1,8.5-21.1,8.5V221c0,0,33.7,2.2,37.8-20.7s-14.6-40.4-46.8-47.5
		"/>
	<path class="st3" d="M115.7,221.8c-1.3,0-2.1,0-2.2,0c-0.4,0-0.7-0.4-0.7-0.8v-14.3c0-0.2,0.1-0.4,0.3-0.6c0.2-0.2,0.4-0.2,0.6-0.2
		c0.2,0,19,1,20.3-7.8c1.2-8.8-15.9-13.1-16-13.1c-0.4-0.1-0.7-0.5-0.6-1c0.1-0.4,0.5-0.7,1-0.6c0.8,0.2,18.7,4.6,17.2,14.9
		c-1.3,9.2-17.2,9.3-21.1,9.2v12.7c4.9,0.1,32.6,0,36.2-20.1c3.9-21.9-13.4-39.3-46.2-46.6c-0.4-0.1-0.7-0.5-0.6-1
		c0.1-0.4,0.5-0.7,1-0.6c33.7,7.5,51.4,25.6,47.4,48.5C148.7,220.3,123.4,221.8,115.7,221.8z"/>
	<path class="st3" d="M28.6,199.2c-0.2,0-0.5-0.1-0.6-0.3c-0.3-0.3-0.2-0.8,0.1-1.1l16.1-13.4c0.3-0.3,0.8-0.2,1.1,0.1
		c0.3,0.3,0.2,0.8-0.1,1.1L29.1,199C29,199.1,28.8,199.2,28.6,199.2z"/>
	<path class="st3" d="M28.6,171.1c-0.3,0-0.5-0.1-0.7-0.4c-0.2-0.4-0.1-0.9,0.3-1.1l21.5-13.1c0.4-0.2,0.9-0.1,1.1,0.3
		c0.2,0.4,0.1,0.9-0.3,1.1L29,170.9C28.9,171,28.7,171.1,28.6,171.1z"/>
	<path class="st3" d="M75.1,157.9c-2.2,0-3.9-0.6-5.1-1.9c-1.8-1.9-1.7-4.4-1.7-4.5c0-0.4,0.4-0.8,0.8-0.8c0.4,0,0.8,0.4,0.8,0.8
		c0,0,0,2,1.3,3.4c0.9,0.9,2.2,1.4,4,1.4c5.3,0,5.4-4,5.5-4.4c0-0.4,0.4-0.8,0.8-0.8c0,0,0,0,0,0c0.4,0,0.8,0.4,0.8,0.8
		C82.1,151.9,82,157.9,75.1,157.9z"/>
	<path class="st3" d="M87.4,157.9c-2.2,0-3.9-0.6-5.1-1.9c-1.8-1.9-1.7-4.4-1.7-4.5c0-0.4,0.4-0.8,0.8-0.8c0.4,0,0.8,0.4,0.8,0.8
		l0,0c0,0,0,2,1.3,3.4c0.9,0.9,2.2,1.4,4,1.4c5.3,0,5.4-4,5.5-4.4c0-0.4,0.4-0.8,0.8-0.8c0,0,0,0,0,0c0.4,0,0.8,0.4,0.8,0.8
		C94.4,151.9,94.3,157.9,87.4,157.9z"/>
	<path class="st7" d="M68,125.2c-2.7-1.5-2.6-4.9-1.2-7c0,0,2.2-4.1,6.9-4.4c4.7-0.2,7.7,1.6,10.1,3.3c2.4,1.8,5.6,0.9,7.7-0.7
		c1.6-1.3,3.8-1.5,5.2,1.1c2,3.6-1.4,6.6-3.9,7.7c-1.5,0.6-7.1,1.7-11.1-0.4c-4-2.1-5.4-4.2-8.8-1.2C72.9,123.6,69.8,126.3,68,125.2
		z"/>
	<path class="st3" d="M102.5,121.1c-0.1,0-0.2,0-0.4-0.1c-0.4-0.2-0.6-0.7-0.4-1.1c0.7-1.4,0.8-2.5,0.4-3.5
		c-0.6-1.5-2.5-2.1-2.5-2.1c-0.4-0.1-0.7-0.6-0.5-1c0.1-0.4,0.6-0.7,1-0.5c0.1,0,2.6,0.8,3.5,3c0.6,1.4,0.5,3-0.5,4.8
		C103,120.9,102.8,121.1,102.5,121.1z"/>
	<path class="st3" d="M87.6,123.1c-2.5,0-4.9-1-6.6-2.3c-3.4-2.5-6.1-2.3-7.3-1.9c-2,0.6-3.7,2.8-3.7,2.8c-0.3,0.3-0.8,0.4-1.1,0.1
		c-0.3-0.3-0.4-0.8-0.1-1.1c0.1-0.1,2.1-2.6,4.5-3.3c1.6-0.5,4.7-0.8,8.7,2.1c2.7,2,7.1,3.1,11,0c0.4-0.3,0.9-0.2,1.1,0.2
		c0.3,0.4,0.2,0.9-0.2,1.1C91.8,122.5,89.6,123.1,87.6,123.1z"/>
	<path class="st3" d="M87.6,126.9c-2,0-4.3-0.3-6.2-1.4c-0.8-0.4-1.5-0.9-2.2-1.2c-2.5-1.5-3.5-2.1-5.8-0.1
		c-0.3,0.3-3.5,3.1-5.8,1.8c-1.2-0.7-2.1-1.8-2.4-3.2c-0.4-1.6,0-3.5,0.9-4.9c0.3-0.4,2.7-4.5,7.6-4.7c4.8-0.2,7.9,1.5,10.6,3.4
		c2.1,1.5,5,0.7,6.7-0.7c1.1-0.9,2.4-1.3,3.5-1c0.8,0.2,2,0.7,2.9,2.4c0.8,1.4,0.9,2.8,0.5,4.2c-0.8,2.2-3,3.9-4.8,4.6
		C92.3,126.4,90.1,126.9,87.6,126.9z M76,121.3c1.4,0,2.6,0.7,4,1.6c0.6,0.4,1.3,0.8,2.1,1.2c3.6,1.9,8.9,1.1,10.5,0.4
		c1.5-0.6,3.3-2,3.9-3.7c0.3-0.9,0.2-1.9-0.3-2.9c-0.5-0.9-1.1-1.5-1.8-1.6c-0.7-0.1-1.5,0.1-2.2,0.7c-2.3,1.8-5.9,2.7-8.6,0.7
		c-2.3-1.6-5.1-3.4-9.6-3.1c-4.2,0.2-6.2,3.9-6.3,3.9c0,0,0,0,0,0.1c-0.7,1.1-1,2.5-0.7,3.7c0.2,1,0.8,1.7,1.6,2.2
		c1,0.6,3.1-0.8,3.9-1.6C73.8,121.8,74.9,121.3,76,121.3z M66.8,118.2L66.8,118.2L66.8,118.2z"/>
	<g>
		<path class="st7" d="M60.2,115c0,1.5-1.2,2.7-2.7,2.7c-1.5,0-2.7-1.2-2.7-2.7c0-1.5,1.2-2.7,2.7-2.7C59,112.3,60.2,113.5,60.2,115
			z"/>
		<path class="st3" d="M57.6,118.4c-1.9,0-3.5-1.6-3.5-3.5c0-1.9,1.6-3.5,3.5-3.5c1.9,0,3.5,1.6,3.5,3.5
			C61,116.9,59.5,118.4,57.6,118.4z M57.6,113.1c-1,0-1.9,0.8-1.9,1.9c0,1,0.8,1.9,1.9,1.9c1,0,1.9-0.8,1.9-1.9
			C59.4,113.9,58.6,113.1,57.6,113.1z"/>
	</g>
	<g>
		<path class="st7" d="M79.3,130.2c0,1.3-1,2.3-2.3,2.3c-1.3,0-2.3-1-2.3-2.3c0-1.3,1-2.3,2.3-2.3C78.3,127.9,79.3,129,79.3,130.2z"
			/>
		<path class="st3" d="M77,133.4c-1.7,0-3.1-1.4-3.1-3.1s1.4-3.1,3.1-3.1c1.7,0,3.1,1.4,3.1,3.1S78.7,133.4,77,133.4z M77,128.7
			c-0.8,0-1.5,0.7-1.5,1.5s0.7,1.5,1.5,1.5c0.8,0,1.5-0.7,1.5-1.5S77.9,128.7,77,128.7z"/>
	</g>
	<path class="st3" d="M42.7,103.1c-1.5,0-5-0.2-7.5-2.5c-1.6-1.5-2.4-3.4-2.4-5.9c0-2.6,0.8-4.7,2.4-6.2c2.8-2.6,6.9-2.3,7.1-2.3
		c0.4,0,0.8,0.4,0.7,0.9c0,0.4-0.4,0.8-0.9,0.7c0,0-3.6-0.2-5.9,1.9c-1.2,1.2-1.9,2.9-1.9,5c0,2,0.6,3.6,1.8,4.8
		c2.5,2.4,6.9,2.1,6.9,2.1c0.4,0,0.8,0.3,0.9,0.7c0,0.4-0.3,0.8-0.7,0.9C43.3,103.1,43.1,103.1,42.7,103.1z"/>
	<path class="st3" d="M42.6,95.1h-4.2c-0.4,0-0.8-0.4-0.8-0.8s0.4-0.8,0.8-0.8h4.2c0.4,0,0.8,0.4,0.8,0.8S43,95.1,42.6,95.1z"/>
	<path class="st3" d="M120,103.1c-0.4,0-0.6,0-0.7,0c-0.4,0-0.8-0.4-0.7-0.9c0-0.4,0.4-0.8,0.9-0.7c0,0,4.4,0.3,6.9-2.1
		c1.2-1.1,1.8-2.7,1.8-4.8c0-2.2-0.6-3.9-1.9-5c-2.3-2.1-5.8-1.9-5.9-1.9c-0.4,0-0.8-0.3-0.9-0.7c0-0.4,0.3-0.8,0.7-0.9
		c0.2,0,4.3-0.3,7.1,2.3c1.6,1.5,2.4,3.6,2.4,6.2c0,2.5-0.8,4.5-2.4,5.9C125,102.9,121.4,103.1,120,103.1z"/>
	<path class="st3" d="M124.3,95.1h-4.2c-0.4,0-0.8-0.4-0.8-0.8s0.4-0.8,0.8-0.8h4.2c0.4,0,0.8,0.4,0.8,0.8S124.7,95.1,124.3,95.1z"
		/>
	<path class="st2" d="M134.1,67.9c0-3.5-2.1-6.4-5.1-7.6c0.6-1.2,0.9-2.6,0.9-4c0-2.7-1.1-5.2-3-7c0.5-1.3,0.8-2.6,0.8-4.1
		c0-5.1-3.7-9.4-8.6-10.3c-1.4-4.9-5.8-8.4-11.1-8.4c-0.3,0-0.6,0-1,0c-2-3.4-5.7-5.8-10-5.8c-2.5,0-4.9,0.8-6.8,2.2
		c-1.7-3.5-5.3-6-9.5-6c-3.4,0-6.5,1.6-8.4,4.2c-1.7-1.3-3.9-2.1-6.2-2.1c-4.9,0-9,3.3-10.2,7.8c-1-0.3-2-0.5-3.1-0.5
		c-6.1,0-11,4.9-11,11c0,0.9,0.1,1.8,0.3,2.7c-6,0.3-10.7,5.2-10.7,11.2c0,1.9,0.5,3.7,1.3,5.3c-4,1.3-6.8,5-6.8,9.3
		c0,4.6,3.2,8.5,7.5,9.5c-1.3,1.5-2,3.3-2,5.4c0,4.6,3.7,8.3,8.3,8.3s8.3-3.7,8.3-8.3c0-0.8-0.1-1.6-0.3-2.3
		c2.4-1.4,4.1-4.1,4.1-7.1c0-0.3,0-0.7-0.1-1c0.1,0,0.1,0,0.2,0c1.5,1.3,3.4,2.2,5.6,2.2c3.8,0,7-2.6,8-6.1c1.4,0.8,3.1,1.3,4.8,1.3
		c3.8,0,7.1-2.2,8.7-5.4c2.1,2.7,5.3,4.5,9,4.5c2.8,0,5.4-1,7.4-2.7c0.9,3.5,4.1,6.1,8,6.1c1.5,0,2.9-0.4,4.1-1.1c0,0,0,0,0,0
		c0,4.3,3.3,7.8,7.4,8.2c-0.7,1.2-1,2.5-1,4c0,4.6,3.7,8.3,8.3,8.3c4.6,0,8.3-3.7,8.3-8.3c0-2.2-0.9-4.2-2.3-5.7
		C131.6,74.8,134.1,71.6,134.1,67.9z"/>
	<path class="st3" d="M122.2,90.6c-5,0-9.1-4.1-9.1-9.1c0-1.2,0.2-2.3,0.7-3.4c-3.7-0.8-6.5-3.9-7-7.6c-1.1,0.4-2.2,0.7-3.4,0.7
		c-3.7,0-7-2.3-8.4-5.6c-2,1.4-4.5,2.2-7,2.2c-3.4,0-6.6-1.4-8.9-3.9c-1.9,3-5.2,4.8-8.8,4.8c-1.5,0-3-0.3-4.3-0.9
		c-1.3,3.4-4.7,5.8-8.4,5.8c-1.8,0-3.5-0.5-4.9-1.5c-0.2,2.8-1.6,5.4-3.9,6.9c0.1,0.6,0.2,1.3,0.2,1.9c0,5-4.1,9.1-9.1,9.1
		c-5,0-9.1-4.1-9.1-9.1c0-1.8,0.5-3.5,1.5-5c-4.2-1.5-7-5.4-7-10c0-4.3,2.6-8.1,6.5-9.8c-0.7-1.5-1-3.2-1-4.9
		c0-6.1,4.6-11.2,10.6-12c-0.1-0.7-0.2-1.3-0.2-2c0-6.5,5.3-11.8,11.8-11.8c0.9,0,1.7,0.1,2.6,0.3c1.5-4.5,5.8-7.7,10.7-7.7
		c2.2,0,4.3,0.6,6.1,1.8c2.2-2.5,5.2-3.9,8.5-3.9c4,0,7.7,2.2,9.8,5.6c2-1.2,4.2-1.9,6.5-1.9c4.2,0,8.2,2.2,10.4,5.7
		c0.2,0,0.3,0,0.5,0c5.3,0,10.1,3.5,11.7,8.5c5.1,1.2,8.7,5.7,8.7,11c0,1.3-0.2,2.6-0.7,3.9c1.8,1.9,2.8,4.5,2.8,7.1
		c0,1.2-0.2,2.5-0.7,3.6c3,1.5,4.9,4.6,4.9,8.1c0,3.6-2.2,6.8-5.4,8.3c1.2,1.6,1.8,3.4,1.8,5.4C131.3,86.5,127.2,90.6,122.2,90.6z
		 M107.6,68.5c0.1,0,0.3,0,0.4,0.1c0.2,0.1,0.4,0.4,0.4,0.7c0,3.9,2.9,7,6.7,7.4c0.3,0,0.5,0.2,0.6,0.4c0.1,0.2,0.1,0.5,0,0.8
		c-0.6,1.1-0.9,2.3-0.9,3.6c0,4.1,3.3,7.5,7.5,7.5c4.1,0,7.5-3.3,7.5-7.5c0-1.9-0.7-3.8-2.1-5.2c-0.2-0.2-0.3-0.5-0.2-0.8
		c0.1-0.3,0.3-0.5,0.5-0.6c3.2-0.9,5.4-3.9,5.4-7.2c0-3-1.8-5.8-4.6-6.9c-0.2-0.1-0.4-0.2-0.4-0.4c-0.1-0.2-0.1-0.4,0-0.6
		c0.5-1.2,0.8-2.4,0.8-3.7c0-2.4-1-4.7-2.7-6.4c-0.2-0.2-0.3-0.6-0.2-0.9c0.5-1.2,0.8-2.5,0.8-3.8c0-4.7-3.3-8.7-7.9-9.5
		c-0.3-0.1-0.5-0.3-0.6-0.6c-1.3-4.6-5.5-7.8-10.3-7.8c-0.3,0-0.6,0-0.9,0c-0.3,0-0.6-0.1-0.8-0.4c-1.9-3.3-5.5-5.4-9.3-5.4
		c-2.3,0-4.5,0.7-6.3,2.1c-0.2,0.1-0.4,0.2-0.7,0.1c-0.2-0.1-0.4-0.2-0.5-0.4c-1.6-3.4-5-5.5-8.7-5.5c-3.1,0-5.9,1.4-7.7,3.9
		c-0.3,0.3-0.8,0.4-1.1,0.2c-1.7-1.2-3.7-1.9-5.8-1.9c-4.4,0-8.3,3-9.4,7.2c-0.1,0.2-0.2,0.4-0.4,0.5c-0.2,0.1-0.4,0.1-0.6,0.1
		c-0.9-0.3-1.9-0.4-2.9-0.4c-5.6,0-10.2,4.6-10.2,10.2c0,0.8,0.1,1.6,0.3,2.5c0.1,0.2,0,0.5-0.1,0.7c-0.1,0.2-0.4,0.3-0.6,0.3
		c-5.6,0.3-10,4.8-10,10.4c0,1.7,0.4,3.4,1.2,4.9c0.1,0.2,0.1,0.5,0,0.7c-0.1,0.2-0.3,0.4-0.5,0.5c-3.7,1.2-6.3,4.6-6.3,8.6
		c0,4.2,2.8,7.8,6.9,8.7c0.3,0.1,0.5,0.3,0.6,0.5c0.1,0.3,0,0.6-0.2,0.8c-1.2,1.4-1.8,3.1-1.8,4.9c0,4.1,3.3,7.5,7.5,7.5
		c4.1,0,7.5-3.3,7.5-7.5c0-0.7-0.1-1.4-0.3-2.1c-0.1-0.3,0-0.7,0.4-0.9c2.3-1.4,3.7-3.8,3.7-6.4c0-0.3,0-0.6-0.1-0.9
		c0-0.2,0-0.5,0.2-0.6c0.2-0.2,0.4-0.3,0.6-0.2l0.2,0c0.2,0,0.4,0.1,0.5,0.2c1.4,1.3,3.2,1.9,5,1.9c3.4,0,6.3-2.3,7.2-5.5
		c0.1-0.2,0.2-0.4,0.5-0.5c0.2-0.1,0.5-0.1,0.7,0c1.3,0.8,2.9,1.2,4.4,1.2c3.4,0,6.5-1.9,8-5c0.1-0.2,0.4-0.4,0.6-0.4
		c0.3,0,0.5,0.1,0.7,0.3c2,2.7,5.1,4.2,8.4,4.2c2.5,0,4.9-0.9,6.8-2.5c0.2-0.2,0.5-0.2,0.8-0.2c0.3,0.1,0.5,0.3,0.5,0.6
		c0.9,3.3,3.8,5.6,7.2,5.6c1.3,0,2.6-0.4,3.7-1C107.3,68.5,107.4,68.5,107.6,68.5z"/>
	<g>
		<path class="st0" d="M62.5,171l4.6-9.9c0,0-1.4-2.2-8.7-2c-10.9,0.3-33.3,12-40.6,18.1c-7.3,6.1-16.4,15.6-6.3,24.4
			c13.1,11.4,35.3-25.7,44.9-30.2L62.5,171z"/>
		<path class="st3" d="M17.1,204.5c-2.2,0-4.2-0.7-6.1-2.4c-3.2-2.8-4.8-5.8-4.8-9.1c0.1-6.4,6.4-12.5,11.1-16.4
			c7.1-5.9,29.8-18,41.1-18.3c7.5-0.2,9.2,2.1,9.4,2.4c0.2,0.2,0.2,0.5,0.1,0.8l-4.6,9.9c-0.1,0.3-0.4,0.4-0.7,0.5l-5.9,0.4
			c-3,1.5-7.5,6.5-12.3,11.8C35.8,193.3,25.6,204.5,17.1,204.5z M59.2,159.9c-0.2,0-0.5,0-0.8,0c-11,0.3-33.2,12.1-40.1,17.9
			c-4.5,3.8-10.5,9.5-10.5,15.2c0,2.8,1.4,5.5,4.2,7.9c8.2,7.1,20.9-6.8,31.1-18.1c5.2-5.7,9.7-10.7,13-12.2c0.1,0,0.2-0.1,0.3-0.1
			l5.6-0.3l4.2-8.9C65.4,160.8,63.6,159.9,59.2,159.9z M62.5,171L62.5,171L62.5,171z"/>
	</g>
</g>
</svg>
