<?xml version="1.0" encoding="utf-8"?>
<svg version="1.1" id="the-uruma-yoshiya-dialogue-2" xmlns="http://www.w3.org/2000/svg" xmlns:xlink="http://www.w3.org/1999/xlink" x="0px"
	 y="0px" viewBox="0 0 120 98" style="enable-background:new 0 0 120 98;" xml:space="preserve">
<style type="text/css">
	.st0{fill:#FFF8EE;}
	.st1{fill:#231815;}
</style>
<g>
	<path class="st0" d="M96,68.1l-4,9.7l-9.6-10.3c4-6.6,6.3-14.4,6.3-22.7c0-24.3-19.7-44-44-44c-24.3,0-44,19.7-44,44
		c0,24.3,19.7,44,44,44c10.5,0,20.1-3.7,27.6-9.8l21.6,15.7l3.8-11l21.6,13.5L96,68.1z"/>
	<path class="st1" d="M119.3,97.9c-0.1,0-0.3,0-0.4-0.1l-20.8-13L94.6,95c-0.1,0.2-0.2,0.4-0.5,0.4c-0.2,0.1-0.4,0-0.6-0.1
		L72.4,79.9c-7.8,6.2-17.6,9.6-27.6,9.6C20.1,89.5,0,69.5,0,44.8S20.1,0.1,44.7,0.1c24.7,0,44.7,20.1,44.7,44.7
		c0,8-2.1,15.8-6.2,22.6l8.5,9.1l3.6-8.7c0.1-0.2,0.3-0.4,0.5-0.4c0.2,0,0.5,0.1,0.6,0.3l23.3,29.1c0.2,0.3,0.2,0.6,0,0.9
		C119.7,97.9,119.5,97.9,119.3,97.9z M97.7,83.1c0.1,0,0.3,0,0.4,0.1l18.1,11.3l-20-25l-3.5,8.6c-0.1,0.2-0.3,0.4-0.5,0.4
		s-0.5,0-0.6-0.2L81.9,68c-0.2-0.2-0.2-0.6-0.1-0.8c4.1-6.7,6.2-14.5,6.2-22.4c0-23.9-19.4-43.3-43.3-43.3
		C20.8,1.5,1.4,20.9,1.4,44.8s19.4,43.3,43.3,43.3c9.9,0,19.5-3.4,27.2-9.6c0.2-0.2,0.6-0.2,0.9,0l20.8,15.2l3.5-10.1
		c0.1-0.2,0.2-0.4,0.4-0.4C97.6,83.1,97.7,83.1,97.7,83.1z"/>
	<g>
		<g>
			<path class="st1" d="M17.9,37.5h3l3,7.9l3-7.9h3v11.2h-1.9v-9.3h0l-3.4,9.3h-1.4l-3.4-9.3h0v9.3h-1.9V37.5z"/>
			<path class="st1" d="M35.1,37.5h7.4v1.8h-5.4v2.8h5.2v1.8h-5.2v3h5.7v1.8h-7.7V37.5z"/>
			<path class="st1" d="M47.3,37.5H50l5.4,8.3h0v-8.3h2v11.2h-2.5l-5.6-8.6h0v8.6h-2V37.5z"/>
			<path class="st1" d="M71.5,44.6c0,0.7-0.1,1.3-0.3,1.8c-0.2,0.5-0.6,1-1,1.4c-0.4,0.4-0.9,0.7-1.4,0.9C68.2,48.9,67.6,49,67,49
				c-0.6,0-1.2-0.1-1.8-0.3s-1-0.5-1.4-0.9c-0.4-0.4-0.7-0.8-1-1.4c-0.2-0.5-0.3-1.2-0.3-1.8v-7.1h2v7c0,0.3,0,0.6,0.1,0.9
				c0.1,0.3,0.2,0.6,0.4,0.8c0.2,0.3,0.5,0.5,0.8,0.6c0.3,0.2,0.7,0.2,1.2,0.2c0.5,0,0.9-0.1,1.2-0.2c0.3-0.2,0.6-0.4,0.8-0.6
				c0.2-0.3,0.3-0.5,0.4-0.8c0.1-0.3,0.1-0.6,0.1-0.9v-7h2V44.6z"/>
		</g>
	</g>
</g>
</svg>
