<?xml version="1.0" encoding="utf-8"?>
<svg version="1.1" id="the-element-jesuschrist-1" xmlns="http://www.w3.org/2000/svg" xmlns:xlink="http://www.w3.org/1999/xlink" x="0px"
	 y="0px" viewBox="0 0 331 480" style="enable-background:new 0 0 331 480;" xml:space="preserve">
<style type="text/css">
	.st0{fill:#97D2CE;}
	.st1{fill:#FFF8EE;}
	.st2{fill:#FFFFFF;}
	.st3{fill:#121659;}
	.st4{fill:#EE795E;}
	.st5{fill:#E84572;}
	.st6{fill:#231815;}
</style>
<g>
	<path class="st0" d="M327.4,178.9h-16.2l-3.5,2.7l-3.5,2.6c3.5,0,11,0,12.7,0c0.7,0,1.3,0,1.9,0.2c0,0,6.5,0.9,7.1-2.8l0-0.1
		c1.1-0.2,2.5-0.9,2.5-2.6v0C327.7,178.9,327.4,178.9,327.4,178.9z"/>
	<path class="st1" d="M148.4,355.6h39v-52.3C187.5,303.3,149.4,322.5,148.4,355.6z"/>
	<path class="st1" d="M123.7,90.4c0,0-12.5,23.4-35.1,28.3l0.1,0.3c0,3,0,4,0,6.4c0,13.5,0,20.1,0,22.7c0,1,0,1.4,0,1.4
		c0,0.2,0.1,17.8,16.4,22c2.2,0.6,4.8,0.9,7.7,0.9h6.3h6.3c2.9,0,5.5-0.3,7.7-0.9c16.4-4.2,16.4-21.8,16.4-22c0,0,0-0.4,0-1.4
		c0-2.6,0-9.1,0-22.7c0-2.4,0-3.3,0-6.1v0C136.6,117.1,123.7,90.4,123.7,90.4z M105.1,135.8c-0.7,0-1.2-0.5-1.2-1.2s0.5-1.2,1.2-1.2
		c0.7,0,1.2,0.5,1.2,1.2S105.8,135.8,105.1,135.8z M133.1,135.8c-0.7,0-1.2-0.5-1.2-1.2s0.5-1.2,1.2-1.2c0.7,0,1.2,0.5,1.2,1.2
		S133.7,135.8,133.1,135.8z"/>
	<path class="st2" d="M138.2,129.7c-1.3-1.3-3.1-2.2-5.1-2.2c-3.9,0-7.1,3.2-7.1,7.1c0,3.9,3.2,7.1,7.1,7.1c3.9,0,7.1-3.2,7.1-7.1
		C140.2,132.7,139.4,131,138.2,129.7z M133.1,135.8c-0.7,0-1.2-0.5-1.2-1.2s0.5-1.2,1.2-1.2c0.7,0,1.2,0.5,1.2,1.2
		S133.7,135.8,133.1,135.8z"/>
	<path class="st2" d="M105.1,127.5c-2,0-3.8,0.8-5.1,2.2c-1.2,1.3-2,3-2,4.9c0,3.9,3.2,7.1,7.1,7.1c3.9,0,7.1-3.2,7.1-7.1
		C112.3,130.7,109.1,127.5,105.1,127.5z M105.1,135.8c-0.7,0-1.2-0.5-1.2-1.2s0.5-1.2,1.2-1.2c0.7,0,1.2,0.5,1.2,1.2
		S105.8,135.8,105.1,135.8z"/>
	<path class="st3" d="M238,441.3l-10.7-8.6l0.1-42.8l-15.8-26.3l-29.7-8.3l-31.3,0.2c0.9-4.9,1.8-8.4,1.8-8.4
		c6.9-24.4,29.6-38.1,29.6-38.1l0.1,0c6.3-11.1,20.4-10.9,20.4-10.9s6.9-0.1,13,3.9c-15.8-19.3-31.7-9.2-31.7-9.2v-77v-41.1h3.9
		c0,0-1.1-2.5-4-2.5c-2.9,0-20.8,0-20.8,0c0-6.2-5.7-10.9-5.7-10.9s9.4-4.5,9.4-20.3c0-15.8-8.7-22.5-8.7-22.5
		c5.1-6.7,1.8-26.1-7.5-34.3c-9.2-8.2-21-4.2-21.4-4.4c0,0-4.2-8-18.6-7.9c-12.4,0.1-36.4,7.8-32.9,43.7c0,0-7.2,7.3-7.2,24.9
		c0,17.7,9.7,20.7,9.7,20.7s-4.1,6.4-2.5,13c2.9,0.4,6,0.6,9.3,0.6c1.9-0.2,3-0.2,3-0.2h2.1h13.2v-3.4c-16.4-4.2-16.4-21.8-16.4-22
		c0,0,0-0.4,0-1.4c-4.5,0-4.4-3.9-4.4-3.9v-8.3c0,0-2.3-3.3-2.3-6.9c0-3.6,3.6-3.6,3.6-3.6h3.1c0-2.5,0-3.5,0-6.4l-0.1-0.3
		c22.6-4.9,35.1-28.3,35.1-28.3s12.9,26.7,25.9,28.8v0c0,2.9,0,3.7,0,6.1h3.1c0,0,3.6-0.1,3.6,3.6c0,3.6-2.3,6.9-2.3,6.9v8.3
		c0,0,0.1,3.9-4.4,3.9c0,1,0,1.4,0,1.4c0,0.2,0,17.8-16.4,22v3.4h13.2h2.1c-2.2,2-4.1,5.6-4.1,12.2c0,4.5,0,21.8,0,42
		c0,35.7,0,80.6,0,80.6c-1.4,0.2-2.8,0.5-4.1,0.7c-41.7,6.4-62.3-5-80.5-9.5c-4.2-1-8.2-1.7-12.4-1.7c-22.8,0-30.5,12.2-30.5,12.2
		V349h91.5c-0.7,2.1-1.3,4.4-1.8,6.7l-68.1,0.4L26,380.1v28.5l-12,20.6v50.1h233.4v-25.1L238,441.3z"/>
	<polyline class="st2" points="21.8,39.6 21.8,12.3 20.1,8 20.1,0.7 74.1,0.7 74.1,8 72.4,12.3 72.4,66.2 74.1,70.4 74.1,77.8 
		20.1,77.8 20.1,70.4 21.8,66.2 21.8,55.8 	"/>
	<g>
		<circle class="st4" cx="37.9" cy="64.4" r="4.9"/>
		<circle class="st4" cx="47.8" cy="64.4" r="4.9"/>
		<circle class="st4" cx="57.6" cy="64.4" r="4.9"/>
		<circle class="st4" cx="67.5" cy="64.4" r="4.9"/>
		<path class="st4" d="M23.1,49.6c-0.5,0-0.9,0.1-1.3,0.2v9.5c0.4,0.1,0.8,0.2,1.3,0.2c2.7,0,4.9-2.2,4.9-4.9
			C28,51.8,25.8,49.6,23.1,49.6z"/>
		<circle class="st4" cx="52.7" cy="54.6" r="4.9"/>
		<circle class="st4" cx="62.6" cy="54.6" r="4.9"/>
		<path class="st4" d="M72.4,49.6c-2.7,0-4.9,2.2-4.9,4.9c0,2.7,2.2,4.9,4.9,4.9V49.6z"/>
		<ellipse transform="matrix(0.3827 -0.9239 0.9239 0.3827 -24.0046 53.4774)" class="st4" cx="28" cy="44.7" rx="4.9" ry="4.9"/>
		<circle class="st4" cx="37.9" cy="44.7" r="4.9"/>
		<circle class="st4" cx="47.8" cy="44.7" r="4.9"/>
		<circle class="st4" cx="57.6" cy="44.7" r="4.9"/>
		<circle class="st4" cx="67.5" cy="44.7" r="4.9"/>
		<path class="st4" d="M21.8,39.6c0.4,0.1,0.8,0.2,1.3,0.2c2.7,0,4.9-2.2,4.9-4.9c0-2.7-2.2-4.9-4.9-4.9c-0.5,0-0.9,0.1-1.3,0.2
			V39.6z"/>
		<circle class="st4" cx="33" cy="34.8" r="4.9"/>
		<circle class="st4" cx="42.8" cy="34.8" r="4.9"/>
		<circle class="st4" cx="52.7" cy="34.8" r="4.9"/>
		<circle class="st4" cx="62.6" cy="34.8" r="4.9"/>
		<path class="st4" d="M72.4,29.9c-2.7,0-4.9,2.2-4.9,4.9c0,2.7,2.2,4.9,4.9,4.9V29.9z"/>
		<ellipse transform="matrix(0.9732 -0.2298 0.2298 0.9732 -4.9841 7.1041)" class="st4" cx="28" cy="25" rx="4.9" ry="4.9"/>
		<circle class="st4" cx="37.9" cy="25" r="4.9"/>
		<circle class="st4" cx="47.8" cy="25" r="4.9"/>
		<circle class="st4" cx="57.6" cy="25" r="4.9"/>
		<circle class="st4" cx="67.5" cy="25" r="4.9"/>
		<ellipse transform="matrix(0.3827 -0.9239 0.9239 0.3827 6.4073 39.7538)" class="st4" cx="33" cy="15.1" rx="4.9" ry="4.9"/>
		<circle class="st4" cx="42.8" cy="15.1" r="4.9"/>
		<circle class="st4" cx="52.7" cy="15.1" r="4.9"/>
		<circle class="st4" cx="62.6" cy="15.1" r="4.9"/>
		<path class="st4" d="M72.4,20v-7.8l0.8-2c-0.3,0-0.5-0.1-0.8-0.1c-2.7,0-4.9,2.2-4.9,4.9C67.5,17.8,69.7,20,72.4,20z"/>
		<path class="st4" d="M21.8,19.8c0.4,0.1,0.8,0.2,1.3,0.2c2.7,0,4.9-2.2,4.9-4.9c0-2.7-2.2-4.9-4.9-4.9c-0.7,0-1.4,0.2-2,0.4
			l0.7,1.7V19.8z"/>
	</g>
	<rect x="36.4" y="20" class="st2" width="21.5" height="38.4"/>
	<path class="st1" d="M304.1,184.2c3.5,0,11,0,12.7,0c0.7,0,1.3,0,1.9,0.2c1.2,0.3,2,0.9,2,2.4c0,2.2-4.4,1.7-4.4,1.7h-7.8
		c0,0-1.3,2-7.1,2.8c-5.7,0.8-19-2.8-19-2.8c-69.3,20.6-98.8,27.4-98.8,27.4v-41.1h3.9h96.4h43.7c0,0,2.8-0.1,2.7,2.2
		c0,1.2-1.2,1.6-2.1,1.8c-0.5,0.1-0.8,0.1-0.8,0.1h-16.2l-3.5,2.7L304.1,184.2z"/>
	<path class="st1" d="M146.3,174.8h-13.2v-3.4c-2.3,0.6-4.8,0.9-7.7,0.9h-6.3h-6.3c-2.9,0-5.5-0.3-7.7-0.9v3.4H91.9h-2.1
		c0,0-1.2,0-3,0.2c-3.3,0-6.4-0.2-9.3-0.6c-58.8-8.1-45.8-93.7-45.8-93.7s4.2-0.9,4.2-5.5c0-1.8,0.1-3.3,0-4.7
		c-0.1-1.5-0.6-2.9-2-4.4c-0.5-0.5-1.1-1.1-1.9-1.7l3.1-3.1l6.6-0.2c0,0,2.9,0.1,2.9-2.2c0-1.4-0.9-1.9-1.7-2.1c0,0,2.8,0.3,2.9-2.3
		c0.1-2-3.2-2.2-3.2-2.2h-0.9c1.3,0,2.4-1,2.4-2.6c0-1.6-3.1-1.5-3.1-1.5H29.9l-8.2,7.9V39.6c0,0,0.5-3.4-2.4-3.4
		c-3.3,0-2.8,3.8-2.8,3.8v41.6c0,0-41.9,99.4,43,132.6c0,18.7,0,40.5,0,48.6v37.9c18.2,4.5,38.8,15.9,80.5,9.5
		c1.3-0.2,2.7-0.4,4.1-0.7c0,0,0-44.9,0-80.6c0-20.3,0-37.5,0-42c0-6.5,1.9-10.2,4.1-12.2H146.3z"/>
	<path class="st1" d="M88.7,125.3c0,13.5,0,20.1,0,22.7c-4.5,0-4.4-3.9-4.4-3.9v-8.3c0,0-2.3-3.3-2.3-6.9c0-3.6,3.6-3.6,3.6-3.6
		H88.7z"/>
	<path class="st1" d="M149.6,148c0-2.6,0-9.1,0-22.7h3.1c0,0,3.6-0.1,3.6,3.6c0,3.6-2.3,6.9-2.3,6.9v8.3
		C153.9,144.1,154.1,148,149.6,148z"/>
	<path class="st5" d="M116,163.5c1,0,1.9,0.8,1.9,1.9s-0.8,1.9-1.9,1.9c-1,0-1.9-0.8-1.9-1.9S115,163.5,116,163.5z"/>
	<path class="st5" d="M100.4,150.9c1.2,0,2.1,1,2.1,2.1c0,1.2-1,2.1-2.1,2.1c-1.2,0-2.1-1-2.1-2.1
		C98.3,151.9,99.2,150.9,100.4,150.9z"/>
	<path class="st4" d="M106.7,161.5c-2.4-1.3-2.3-4.1-1.1-5.9c0,0,2-3.5,6.2-3.7c4.2-0.2,6.9,1.3,9.1,2.8c2.2,1.5,5,0.8,6.9-0.6
		c1.5-1.1,3.4-1.3,4.7,1c1.8,3-1.2,5.5-3.5,6.5c-1.4,0.5-6.4,1.4-10-0.4c-3.6-1.8-4.8-3.5-7.9-1.1
		C111,160.1,108.3,162.4,106.7,161.5z"/>
	<path class="st6" d="M131.8,134.6c0-0.7,0.5-1.2,1.2-1.2c0.7,0,1.2,0.5,1.2,1.2c0,0.7-0.5,1.2-1.2,1.2
		C132.4,135.8,131.8,135.3,131.8,134.6z"/>
	<path class="st0" d="M133.1,135.8c0.7,0,1.2-0.5,1.2-1.2c0-0.7-0.5-1.2-1.2-1.2c-0.7,0-1.2,0.5-1.2,1.2
		C131.8,135.3,132.4,135.8,133.1,135.8z M129.5,134.6c0-2,1.6-3.6,3.6-3.6c2,0,3.6,1.6,3.6,3.6c0,2-1.6,3.6-3.6,3.6
		C131.1,138.2,129.5,136.6,129.5,134.6z"/>
	<path class="st6" d="M105.1,135.8c-0.7,0-1.2-0.5-1.2-1.2c0-0.7,0.5-1.2,1.2-1.2c0.7,0,1.2,0.5,1.2,1.2
		C106.4,135.3,105.8,135.8,105.1,135.8z"/>
	<path class="st0" d="M103.9,134.6c0,0.7,0.5,1.2,1.2,1.2c0.7,0,1.2-0.5,1.2-1.2c0-0.7-0.5-1.2-1.2-1.2
		C104.5,133.4,103.9,133.9,103.9,134.6z M105.1,138.2c-2,0-3.6-1.6-3.6-3.6c0-2,1.6-3.6,3.6-3.6c2,0,3.6,1.6,3.6,3.6
		C108.7,136.6,107.1,138.2,105.1,138.2z"/>
	<path class="st1" d="M23.4,310.3c-12.5,0-22.7,10.2-22.7,22.7s10.2,22.7,22.7,22.7h101.7l33.3,8.5c0,0,1.3,7.5,7.7,7.5
		s7.5-10.1,0.5-13.6l-26.4-20c0,0-1.6-14.4-12.8-14.4s-12,10.5-12,10.5S55.9,310.3,23.4,310.3z"/>
	<path class="st1" d="M244.2,434.7c4.6,1.3,6.4,5.1,4.4,8.7c-1.6,2.7-5.4,2.9-12.4,2.9s-48.5,0-48.5,0s-7.9-0.4-7.9-10.4
		c0-10,9.9-11.3,9.9-11.3s-4.6-39.1-7.8-69.3c-1.5-14-2.7-26.1-2.9-31.5c-0.3-6.4,0.9-11.2,3-14.8c6.3-11.1,20.4-10.9,20.4-10.9
		s6.9-0.1,13,3.9c5.2,3.4,9.8,9.8,9.2,21.8c-0.4,7.6-3.7,28.5-7.2,49.2c-4.3,25.2-8.9,50.1-8.9,50.1l18.9,9.5l7.8,3.9
		C235,436.5,239.6,433.5,244.2,434.7z"/>
	<g>
		<path class="st6" d="M150.8,161.5c-0.2-0.3-0.6-0.5-0.9-0.3c-0.3,0.2-0.5,0.6-0.3,0.9c0,0.1,1.2,2.7-2.2,5.1
			c-0.3,0.2-0.4,0.7-0.2,1c0.1,0.2,0.4,0.3,0.6,0.3c0.1,0,0.3,0,0.4-0.1C152.5,165.2,150.8,161.5,150.8,161.5z"/>
		<path class="st6" d="M153.4,162.6c-0.3,0.2-0.5,0.6-0.3,0.9c0,0.1,1.2,2.7-2.2,5.1c-0.3,0.2-0.4,0.7-0.2,1
			c0.1,0.2,0.4,0.3,0.6,0.3c0.1,0,0.3,0,0.4-0.1c4.4-3.1,2.7-6.8,2.7-6.8C154.2,162.6,153.8,162.5,153.4,162.6z"/>
		<path class="st6" d="M90.2,168.2c0.1,0,0.2,0,0.2,0c0.3,0,0.6-0.2,0.7-0.5c0.1-0.4-0.1-0.8-0.4-0.9c-0.1,0-2.7-1-2.1-5.1
			c0.1-0.4-0.2-0.7-0.6-0.8c-0.4-0.1-0.7,0.2-0.8,0.6C86.3,166.8,90.1,168.2,90.2,168.2z"/>
		<path class="st6" d="M86.6,169.7c0.1,0,0.2,0,0.2,0c0.3,0,0.6-0.2,0.7-0.5c0.1-0.4-0.1-0.8-0.4-0.9c0,0-2.7-1-2.1-5.1
			c0.1-0.4-0.2-0.7-0.6-0.8c-0.4-0.1-0.7,0.2-0.8,0.6C82.7,168.3,86.5,169.7,86.6,169.7z"/>
		<path class="st6" d="M105.1,138.9c2.3,0,4.3-1.9,4.3-4.3c0-2.3-1.9-4.3-4.3-4.3c-2.4,0-4.3,1.9-4.3,4.3
			C100.9,137,102.8,138.9,105.1,138.9z M105.1,131.8c1.6,0,2.9,1.3,2.9,2.9c0,1.6-1.3,2.9-2.9,2.9c-1.6,0-2.9-1.3-2.9-2.9
			C102.3,133.1,103.6,131.8,105.1,131.8z"/>
		<path class="st6" d="M99,129.7c-1.1,1.4-1.7,3.1-1.7,4.9c0,4.3,3.5,7.8,7.8,7.8c4.3,0,7.8-3.5,7.8-7.8c0-1.6-0.5-3.2-1.4-4.4
			l1.9-1.9c0.3-0.3,0.3-0.7,0-1c-0.3-0.3-0.7-0.3-1,0l-1.8,1.8c-0.6-0.6-1.3-1.1-2-1.5l0.7-2.1c0.1-0.4-0.1-0.8-0.4-0.9
			c-0.4-0.1-0.8,0.1-0.9,0.4l-0.7,2c-0.7-0.2-1.5-0.3-2.2-0.3c-0.6,0-1.1,0.1-1.6,0.2l-0.7-2.1c-0.1-0.4-0.5-0.6-0.9-0.4
			c-0.4,0.1-0.6,0.5-0.4,0.9l0.7,2.1c-0.8,0.3-1.5,0.8-2.2,1.3l-1.7-1.6c-0.3-0.3-0.7-0.3-1,0c-0.3,0.3-0.3,0.7,0,1L99,129.7z
			 M105.1,128.2c3.5,0,6.4,2.9,6.4,6.4c0,3.5-2.9,6.4-6.4,6.4c-3.5,0-6.4-2.9-6.4-6.4c0-1.7,0.6-3.2,1.8-4.4
			C101.7,128.9,103.4,128.2,105.1,128.2z"/>
		<path class="st6" d="M133.1,130.4c-2.4,0-4.3,1.9-4.3,4.3c0,2.3,1.9,4.3,4.3,4.3c2.4,0,4.3-1.9,4.3-4.3
			C137.3,132.3,135.4,130.4,133.1,130.4z M133.1,137.5c-1.6,0-2.9-1.3-2.9-2.9c0-1.6,1.3-2.9,2.9-2.9c1.6,0,2.9,1.3,2.9,2.9
			C135.9,136.2,134.7,137.5,133.1,137.5z"/>
		<path class="st6" d="M138.2,128.7c-0.6-0.6-1.4-1-2.2-1.3l0.7-2.1c0.1-0.4-0.1-0.8-0.4-0.9c-0.4-0.1-0.8,0.1-0.9,0.4l-0.7,2.1
			c-0.5-0.1-1.1-0.2-1.6-0.2c-0.8,0-1.5,0.1-2.2,0.3l-0.7-2c-0.1-0.4-0.5-0.6-0.9-0.4c-0.4,0.1-0.6,0.5-0.4,0.9l0.7,2.1
			c-0.7,0.4-1.4,0.9-2,1.5l-1.8-1.8c-0.3-0.3-0.7-0.3-1,0c-0.3,0.3-0.3,0.7,0,1l1.9,1.9c-0.9,1.3-1.4,2.8-1.4,4.4
			c0,4.3,3.5,7.8,7.8,7.8c4.3,0,7.8-3.5,7.8-7.8c0-1.8-0.6-3.5-1.7-4.9l1.7-1.6c0.3-0.3,0.3-0.7,0-1c-0.3-0.3-0.7-0.3-1,0
			L138.2,128.7z M133.1,141c-3.5,0-6.4-2.9-6.4-6.4c0-3.5,2.9-6.4,6.4-6.4c1.7,0,3.4,0.7,4.6,2c0,0,0,0,0,0c0,0,0,0,0,0
			c1.1,1.2,1.8,2.8,1.8,4.4C139.5,138.2,136.6,141,133.1,141z"/>
		<path class="st6" d="M99.1,121.3c0.1,0,8.1-3.8,16.8-0.2v26.4c0,0.2,0.1,0.4,0.3,0.5l2.5,2.1c0.1,0.1,0.3,0.2,0.4,0.2
			s0.3-0.1,0.4-0.2l2.5-2.1c0.2-0.1,0.3-0.3,0.3-0.5v-26.4c8.7-3.6,16.7,0.1,16.8,0.2c0.3,0.2,0.8,0,0.9-0.3c0.2-0.3,0-0.8-0.3-0.9
			c-0.4-0.2-8.9-4.2-18.3,0c-0.3,0.1-0.4,0.4-0.4,0.6v26.5l-1.8,1.5l-1.8-1.5v-26.5c0-0.3-0.2-0.5-0.4-0.6c-9.5-4.2-18-0.2-18.4,0
			c-0.3,0.2-0.5,0.6-0.3,0.9C98.4,121.4,98.8,121.5,99.1,121.3z"/>
		<polygon class="st6" points="119.1,343.4 119.1,343.4 119.1,342 		"/>
		<path class="st6" d="M134.6,151.2c-0.4-0.1-0.8,0.1-0.9,0.5c-0.1,0.4,0.1,0.8,0.5,0.9c0,0,1.5,0.5,2,1.7c0.3,0.8,0.2,1.7-0.3,2.8
			c-0.2,0.3,0,0.8,0.3,0.9c0.1,0.1,0.2,0.1,0.3,0.1c0.3,0,0.5-0.1,0.6-0.4c0.7-1.5,0.9-2.8,0.4-3.9
			C136.7,151.9,134.7,151.3,134.6,151.2z"/>
		<path class="st6" d="M331,177c0-0.8-0.2-1.5-0.7-2c-1-1-2.5-1-2.7-0.9H187.9c-0.5-0.8-1.8-2.5-4.4-2.5l-20.1,0
			c-0.3-4.8-3.7-8.6-5.2-10.1c2.4-1.6,8.9-7,8.9-20.4c0-13.9-6.6-20.8-8.5-22.6c4.7-7.3,1.5-26.3-8-34.7c-5.5-4.9-12.7-6.4-21.3-4.6
			c-0.1,0-0.1,0-0.2,0c-1.1-1.7-6.1-7.9-18.9-7.9c-3.6,0-16.1,0.9-25.1,10.8c-7,7.8-9.9,19-8.5,33.4c-1.3,1.4-7.2,9-7.2,25.1
			c0,15.2,7,19.9,9.4,21.1c-1,1.8-3.2,6.6-2.4,11.8c-13-2-23.4-8.2-31-18.2c-19.1-25.6-13.9-69.2-13.3-74c1.1-0.4,2.5-1.2,3.4-2.8
			h39.1v-8.2L73.1,66V12.4l1.7-4.2V0H19.4v8.2l1.7,4.2V36c-0.4-0.2-0.9-0.4-1.7-0.4c-1.1,0-2,0.4-2.6,1.1c-1.2,1.3-0.9,3.4-0.9,3.4
			v41.4c-1.2,2.9-20.1,50.8-3.5,90.2c8.3,19.6,23.9,34,46.5,43v85.2c-4.4-1-8.1-1.5-11.7-1.5c-21.6,0-29.8,10.6-30.9,12.3
			C6.9,313.7,0,322.5,0,333c0,12.9,10.5,23.4,23.4,23.4h14.2l-12.2,23.5c-0.1,0.1-0.1,0.2-0.1,0.3v28.3l-11.9,20.4
			c-0.1,0.1-0.1,0.2-0.1,0.4v50.1c0,0.4,0.3,0.7,0.7,0.7h233.6c0.4,0,0.7-0.3,0.7-0.7v-25c0-0.2-0.1-0.3-0.2-0.4l-5.6-7
			c3.3-0.3,5.4-1.1,6.6-3.1c1-1.8,1.2-3.8,0.5-5.5c-0.8-2-2.7-3.5-5.3-4.2c-4.2-1.2-8.2,0.9-9.4,1.7l-6.9-3.5v-42.6L218,372.9
			c3.1-18,6.8-40.9,7.2-49c0.5-10.3-2.7-17.8-9.5-22.3c-13.7-16.6-27.6-11.7-31.5-9.8v-75.3c4.3-1,34.6-8.4,98.1-27.3
			c1.7,0.5,13.6,3.6,19.1,2.8c4.7-0.7,6.7-2.1,7.3-2.8l7.4,0c0.3,0,3.1,0.3,4.5-0.8c0.4-0.4,0.7-0.9,0.7-1.5c0-0.6-0.1-1.2-0.4-1.7
			c2.1-0.1,4.8-0.7,5.5-3.2c1.4-0.4,2.3-1.3,2.5-2.6C330.2,179,331,178.1,331,177z M186.1,174.1h-3.2v118.5
			c-11.4,11.2-33.4,15.4-37.9,16.1V187c0-5.4,1.3-9.3,3.9-11.6c2.4-2.2,5.2-2.3,5.7-2.3c0.1,0,0.1,0,0.1,0h28.7
			C184.7,173,185.6,173.6,186.1,174.1z M71.4,303.4c-3.8-1.2-7.5-2.3-11-3.2v-96.5c0-22.4,18.4-27,26.4-27.9c0,0,0,0,0,0
			c0,0,0,0,0,0c0,0,0,0,0,0c1.8-0.2,2.9-0.2,3-0.2h2.1h13.2c0.4,0,0.7-0.3,0.7-0.7v-2.5c2.2,0.5,4.5,0.7,7,0.7h6.3h6.3
			c2.5,0,4.8-0.3,7-0.7v2.5c0,0.4,0.3,0.7,0.7,0.7h13.2h0.5c-2.1,2.6-3.2,6.5-3.2,11.5v41.3c-9.3-0.1-19-2.6-19.1-2.6
			c-0.4-0.1-0.8,0.1-0.9,0.5c-0.1,0.4,0.1,0.8,0.5,0.9c0.1,0,9.9,2.6,19.4,2.6v18.6c-2.1-2.7-12-14.5-24.1-14.5c-0.1,0-0.3,0-0.4,0
			c-13.5-0.3-24.4,14.3-24.9,15c-0.2,0.3-0.2,0.7,0.2,1c0.3,0.2,0.8,0.2,1-0.2c0.1-0.1,10.9-14.7,23.7-14.4c0.1,0,0.2,0,0.3,0
			c12.7,0,23.2,14.2,23.4,14.4c0.1,0.2,0.4,0.3,0.6,0.3c0.1,0,0.1,0,0.2,0V309c-1.2,0.2-2.4,0.4-3.5,0.6
			C107,314.6,87.3,308.4,71.4,303.4z M84.9,135.4c0,0-2.2-3.2-2.2-6.5c0-0.9,0.2-1.6,0.7-2c0.8-0.8,2.2-0.8,2.2-0.8c0,0,0,0,0,0H88
			v21.2c-0.9-0.1-1.6-0.4-2.1-0.9c-0.9-0.9-0.9-2.2-0.9-2.2v-8.3C85,135.7,85,135.6,84.9,135.4z M89.4,119.2
			c19.4-4.5,31.4-22.6,34.3-27.3c2.7,5.2,13.7,25.4,25.2,27.9v29.6c0,0.7-0.2,17.3-15.9,21.3c-2.3,0.6-4.9,0.9-7.5,0.9h-6.3h-6.3
			c-2.7,0-5.2-0.3-7.5-0.9c-15.7-4.1-15.9-20.6-15.9-21.3V119.2z M153.2,144.2c0,0,0,1.3-0.9,2.2c-0.5,0.5-1.2,0.8-2.1,0.9V126h2.4
			c0,0,1.4,0,2.2,0.8c0.5,0.5,0.7,1.2,0.7,2c0,3.3-2.2,6.5-2.2,6.5c-0.1,0.1-0.1,0.3-0.1,0.4L153.2,144.2z M80.5,161.8L81,161
			l-0.9-0.3c-0.1,0-9.2-3.1-9.2-20c0-17.1,6.9-24.3,7-24.4l0.2-0.2l0-0.3c-1.4-14.1,1.4-25.1,8.2-32.6c8.5-9.5,20.5-10.3,24-10.3
			c0.1,0,0.1,0,0.2,0c13.5,0,17.7,7.5,17.7,7.5l0.1,0.2l0.3,0.1c0.2,0.1,0.4,0,1.1-0.1c8.1-1.7,14.9-0.2,20.1,4.3
			c9.1,8,12.2,27,7.4,33.3l-0.4,0.6l0.6,0.4c0.1,0.1,8.4,6.7,8.4,21.9c0,7.9-2.4,12.8-4.5,15.6c-2.2,3-4.5,4.1-4.5,4.1l-1,0.5
			l0.8,0.7c0.1,0,5,4.2,5.4,9.7l-7.2,0c-0.1,0-3.6-0.2-6.6,2.5h-1.8h-12.5v-2.2c16.2-4.6,16.4-21.8,16.4-22.5v-0.7
			c1.3-0.1,2.4-0.6,3.1-1.3c1.3-1.3,1.2-3.1,1.2-3.2v-8.1c0.5-0.8,2.3-3.8,2.3-7.1c0-1.3-0.4-2.3-1.2-3c-1.3-1.3-3.1-1.2-3.2-1.2
			h-2.4V120c0.3,0,0.6,0,0.9,0c0.4,0,0.7-0.3,0.7-0.7s-0.3-0.7-0.7-0.7c-0.5,0-1,0-1.5-0.1c-12.5-2-25.2-28.2-25.3-28.4
			c-0.1-0.2-0.4-0.4-0.6-0.4c-0.3,0-0.5,0.1-0.6,0.4c-0.1,0.2-12.6,23.2-34.6,27.9c-0.7,0.2-1.5,0.3-2.3,0.4
			c-0.4,0.1-0.6,0.4-0.6,0.8c0.1,0.4,0.4,0.6,0.8,0.6c0.6-0.1,1.1-0.2,1.6-0.3v5.1l-2.4,0c-0.1,0-1.9,0-3.2,1.2
			c-0.8,0.8-1.2,1.8-1.2,3c0,3.3,1.8,6.4,2.3,7.1l0,8.1c0,0.1,0,1.9,1.2,3.2c0.8,0.8,1.8,1.2,3.1,1.3v0.7c0,0.7,0.2,18,16.4,22.5
			v2.2H91.9h-2.1c0,0-1.2,0-3.1,0.2c-3,0-5.9-0.2-8.7-0.6C76.8,167.8,80.5,161.9,80.5,161.8z M43.9,52.1c0.4-0.6,0.7-1.3,0.7-2.1
			c0-0.5-0.2-0.9-0.6-1.3c-1-1-3-0.9-3.2-0.9h-3.8v-27h5.7c0,0,0,0,0,0s0,0,0,0h9.8c0,0,0,0,0,0s0,0,0,0h4.4v37H44.8
			c-0.1-0.1-0.2-0.3-0.2-0.4c0.3-0.1,0.6-0.3,0.8-0.5c0.6-0.5,0.9-1.2,0.9-2.1C46.4,53.2,45.2,52.4,43.9,52.1z M71.7,12.1v7.1
			c-2-0.3-3.5-2.1-3.5-4.2c0-2.3,1.8-4.1,4-4.2L71.7,12.1z M71.7,39c-2-0.3-3.5-2.1-3.5-4.2s1.5-3.8,3.5-4.2V39z M71.7,58.7
			c-2-0.3-3.5-2.1-3.5-4.2s1.5-3.8,3.5-4.2V58.7z M67.5,68.7c-2.3,0-4.2-1.9-4.2-4.2c0-2.3,1.9-4.2,4.2-4.2c2.3,0,4.2,1.9,4.2,4.2
			C71.7,66.8,69.8,68.7,67.5,68.7z M45.1,59.1h0.8c-0.3,0.1-0.6,0.2-0.8,0.4C45.1,59.4,45.1,59.3,45.1,59.1z M52.7,19.3
			c-2.3,0-4.2-1.9-4.2-4.2c0-2.3,1.9-4.2,4.2-4.2c2.3,0,4.2,1.9,4.2,4.2C56.9,17.4,55,19.3,52.7,19.3L52.7,19.3z M42.8,19.3
			c-2.3,0-4.2-1.9-4.2-4.2c0-2.3,1.9-4.2,4.2-4.2s4.2,1.9,4.2,4.2C47.1,17.4,45.2,19.3,42.8,19.3L42.8,19.3z M22.5,40.4
			c0.2,0,0.4,0,0.6,0c0.5,0,1-0.1,1.5-0.2c-1.1,0.8-1.8,2-2.1,3.4V40.4z M22.5,26c0.3,1.4,1,2.6,2.1,3.4c-0.5-0.1-1-0.2-1.5-0.2
			c-0.2,0-0.4,0-0.6,0V26z M33,22.2c-0.4-0.7-0.9-1.3-1.5-1.7c0.5,0.1,1,0.2,1.5,0.2c0.5,0,1-0.1,1.5-0.2C33.8,21,33.3,21.6,33,22.2
			z M35.7,21.3v7.2c-1.2-0.8-2-2.1-2-3.6C33.7,23.4,34.4,22.1,35.7,21.3z M34.5,29.4c-0.5-0.1-1-0.2-1.5-0.2c-0.5,0-1,0.1-1.5,0.2
			c0.6-0.5,1.1-1.1,1.5-1.7C33.3,28.4,33.8,28.9,34.5,29.4z M33,19.3c-2.3,0-4.2-1.9-4.2-4.2s1.9-4.2,4.2-4.2s4.2,1.9,4.2,4.2
			S35.3,19.3,33,19.3z M29.5,19.5c-0.5-0.1-1-0.2-1.5-0.2c-0.5,0-1,0.1-1.5,0.2c0.6-0.5,1.1-1.1,1.5-1.7
			C28.4,18.5,28.9,19.1,29.5,19.5z M28,20.7c2.3,0,4.2,1.9,4.2,4.2s-1.9,4.2-4.2,4.2s-4.2-1.9-4.2-4.2S25.7,20.7,28,20.7z M28,30.6
			c0.5,0,1-0.1,1.5-0.2c-0.6,0.5-1.1,1.1-1.5,1.7c-0.4-0.7-0.9-1.3-1.5-1.7C27,30.5,27.5,30.6,28,30.6z M33,30.6c1,0,2,0.4,2.7,1V38
			c-0.8,0.7-1.7,1-2.7,1c-2.3,0-4.2-1.9-4.2-4.2S30.6,30.6,33,30.6z M29.5,39.3c-0.5-0.1-1-0.2-1.5-0.2c-0.5,0-1,0.1-1.5,0.2
			c0.6-0.5,1.1-1.1,1.5-1.7C28.4,38.2,28.9,38.8,29.5,39.3z M33,40.5c0.5,0,1-0.1,1.5-0.2c-0.6,0.5-1.1,1.1-1.5,1.8
			c-0.4-0.7-0.9-1.3-1.5-1.7C31.9,40.4,32.4,40.5,33,40.5z M36.7,19.3c0.5-0.4,0.9-0.9,1.2-1.5c0.3,0.6,0.7,1.1,1.2,1.5H36.7z
			 M47.8,17.8c0.3,0.6,0.7,1.1,1.2,1.5h-2.5C47,18.9,47.4,18.4,47.8,17.8z M57.6,17.8c0.4,0.7,0.9,1.3,1.5,1.7
			c-0.2-0.1-0.4-0.1-0.6-0.1v-0.1h-2.1C56.9,18.9,57.3,18.4,57.6,17.8z M58.5,30.5c0.2,0,0.4-0.1,0.6-0.1c-0.2,0.2-0.4,0.3-0.6,0.5
			V30.5z M58.5,38.8c0.2,0.2,0.4,0.4,0.6,0.5c-0.2-0.1-0.4-0.1-0.6-0.1V38.8z M58.5,50.2c0.2,0,0.4-0.1,0.6-0.1
			c-0.2,0.2-0.4,0.3-0.6,0.5V50.2z M58.5,58.5c0.2,0.2,0.4,0.4,0.6,0.5c-0.2-0.1-0.4-0.1-0.6-0.1V58.5z M52.7,60.2
			c0.5,0,1-0.1,1.5-0.2c-0.6,0.5-1.1,1.1-1.5,1.7c-0.4-0.7-0.9-1.3-1.5-1.7C51.7,60.1,52.2,60.2,52.7,60.2z M57.6,60.2
			c2.3,0,4.2,1.9,4.2,4.2c0,2.3-1.9,4.2-4.2,4.2s-4.2-1.9-4.2-4.2C53.4,62.1,55.3,60.2,57.6,60.2z M61.1,60c0.5,0.1,1,0.2,1.5,0.2
			c0.5,0,1-0.1,1.5-0.2c-0.6,0.5-1.1,1.1-1.5,1.7C62.2,61.1,61.7,60.5,61.1,60z M62.6,58.8c-1.8,0-3.5-1.2-4-2.9v-2.6
			c0.6-1.7,2.2-2.9,4-2.9c2.3,0,4.2,1.9,4.2,4.2S64.9,58.8,62.6,58.8z M62.6,48.9c-0.5,0-1,0.1-1.5,0.2c0.6-0.5,1.1-1.1,1.5-1.8
			c0.4,0.7,0.9,1.3,1.5,1.7C63.6,49,63.1,48.9,62.6,48.9z M58.5,48.8v-8.3c1.9,0.4,3.3,2.1,3.3,4.1C61.9,46.7,60.5,48.4,58.5,48.8z
			 M61.1,40.2c0.5,0.1,1,0.2,1.5,0.2c0.5,0,1-0.1,1.5-0.2c-0.6,0.5-1.1,1.1-1.5,1.7C62.2,41.3,61.7,40.7,61.1,40.2z M62.6,39.1
			c-1.8,0-3.5-1.2-4-2.9v-2.6c0.6-1.7,2.2-3,4-3c2.3,0,4.2,1.9,4.2,4.2S64.9,39.1,62.6,39.1z M62.6,29.2c-0.5,0-1,0.1-1.5,0.2
			c0.6-0.5,1.1-1.1,1.5-1.7c0.4,0.7,0.9,1.3,1.5,1.7C63.6,29.3,63.1,29.2,62.6,29.2z M58.5,29.1v-8.3c1.9,0.4,3.3,2.1,3.3,4.1
			C61.9,27,60.4,28.7,58.5,29.1z M61.1,20.5c0.5,0.1,1,0.2,1.5,0.2c0.5,0,1-0.1,1.5-0.2c-0.6,0.5-1.1,1.1-1.5,1.7
			C62.2,21.6,61.7,21,61.1,20.5z M62.6,19.3c-2.3,0-4.2-1.9-4.2-4.2s1.9-4.2,4.2-4.2s4.2,1.9,4.2,4.2S64.9,19.3,62.6,19.3z
			 M47.8,60.2c2.3,0,4.2,1.9,4.2,4.2c0,2.3-1.9,4.2-4.2,4.2c-2.3,0-4.2-1.9-4.2-4.2C43.5,62.1,45.4,60.2,47.8,60.2z M45.8,69.7h-5.9
			c1.3-0.5,2.3-1.4,3-2.6C43.5,68.3,44.5,69.2,45.8,69.7z M52.7,67.2c0.6,1.2,1.7,2.1,3,2.6h-5.9C51,69.2,52.1,68.3,52.7,67.2z
			 M62.6,67.2c0.6,1.2,1.7,2.1,3,2.6h-5.9C60.9,69.2,61.9,68.3,62.6,67.2z M67.5,58.8c-0.5,0-1,0.1-1.5,0.2c0.6-0.5,1.1-1.1,1.5-1.7
			c0.4,0.7,0.9,1.3,1.5,1.7C68.5,58.9,68,58.8,67.5,58.8z M67.5,51.9c-0.4-0.7-0.9-1.3-1.5-1.7c0.5,0.1,1,0.2,1.5,0.2
			c0.5,0,1-0.1,1.5-0.2C68.4,50.6,67.9,51.2,67.5,51.9z M67.5,48.9c-2.3,0-4.2-1.9-4.2-4.2c0-2.3,1.9-4.2,4.2-4.2
			c2.3,0,4.2,1.9,4.2,4.2C71.7,47,69.8,48.9,67.5,48.9z M67.5,39.1c-0.5,0-1,0.1-1.5,0.2c0.6-0.5,1.1-1.1,1.5-1.7
			c0.4,0.7,0.9,1.3,1.5,1.7C68.5,39.1,68,39.1,67.5,39.1z M67.5,32.1c-0.4-0.7-0.9-1.3-1.5-1.7c0.5,0.1,1,0.2,1.5,0.2
			c0.5,0,1-0.1,1.5-0.2C68.4,30.9,67.9,31.4,67.5,32.1z M67.5,29.2c-2.3,0-4.2-1.9-4.2-4.2s1.9-4.2,4.2-4.2c2.3,0,4.2,1.9,4.2,4.2
			S69.8,29.2,67.5,29.2z M67.5,19.3c-0.5,0-1,0.1-1.5,0.2c0.6-0.5,1.1-1.1,1.5-1.7c0.4,0.7,0.9,1.3,1.5,1.7
			C68.5,19.4,68,19.3,67.5,19.3z M72.4,9.4c-2.1,0-4,1.2-4.9,2.9c-1-1.7-2.8-2.9-4.9-2.9s-4,1.2-4.9,2.9c-1-1.7-2.8-2.9-4.9-2.9
			c-2.1,0-4,1.2-4.9,2.9c-1-1.7-2.8-2.9-4.9-2.9s-4,1.2-4.9,2.9c-1-1.7-2.8-2.9-4.9-2.9s-4,1.2-4.9,2.9c-1-1.7-2.8-2.9-4.9-2.9
			c-0.5,0-1.1,0.1-1.6,0.2l-0.4-0.9h52l-0.3,0.7C72.7,9.5,72.6,9.4,72.4,9.4z M23.1,10.8c2.3,0,4.2,1.9,4.2,4.2s-1.9,4.2-4.2,4.2
			c-0.2,0-0.4,0-0.6,0v-7.1L22,11C22.4,10.9,22.7,10.8,23.1,10.8z M23.1,20.7c0.5,0,1-0.1,1.5-0.2c-1.1,0.8-1.8,2-2.1,3.4v-3.2
			C22.7,20.7,22.9,20.7,23.1,20.7z M22.5,30.6c0.2,0,0.4,0,0.6,0c2.3,0,4.2,1.9,4.2,4.2s-1.9,4.2-4.2,4.2c-0.2,0-0.4,0-0.6,0
			c0-0.2,0-0.4,0-0.6V30.6z M22.5,45.8c0.3,1.4,1,2.6,2.1,3.4c-0.7-0.2-1.4-0.3-2.1-0.2V45.8z M22.5,50.4c1.2-0.2,2.5,0.2,3.4,1
			l-3.4,3.3V50.4z M26.9,50.4c-0.1-0.1-0.2-0.2-0.4-0.3c0.2,0,0.4,0.1,0.5,0.1L26.9,50.4z M28.4,48.9c-0.1,0-0.3,0-0.4,0
			c-2.3,0-4.2-1.9-4.2-4.2c0-2.3,1.9-4.2,4.2-4.2s4.2,1.9,4.2,4.2c0,1.1-0.5,2.2-1.3,3h-1c-0.2,0-0.4,0.1-0.5,0.2L28.4,48.9z
			 M33,47.4c0.1,0.1,0.1,0.2,0.2,0.3h-0.4C32.8,47.6,32.9,47.5,33,47.4z M35,47.7c-0.8-0.8-1.3-1.9-1.3-3c0-1.5,0.8-2.9,2-3.6v6.6
			H35z M41.3,62c0.5,0.7,0.8,1.6,0.8,2.5c0,2.3-1.9,4.2-4.2,4.2c-0.7,0-1.3-0.2-1.9-0.5c-0.4-0.9-0.9-1.7-1.7-2.5
			c-0.4-0.4-0.8-0.8-1.4-1.2l2.3-2.3L41.3,62z M36.3,77.1c0.1-0.5,0.2-1.1,0.2-1.8c0-0.6,0-1.2,0-1.7c0-0.8,0-1.6,0-2.4h36.9v5.9
			H36.3z M73.1,69.7h-3.6c1.1-0.4,2.1-1.2,2.7-2.2L73.1,69.7z M71,60c0.3,0.1,0.5,0.1,0.8,0.2v0.6C71.5,60.5,71.2,60.2,71,60z
			 M71.7,49c-0.3,0-0.5,0.1-0.8,0.2c0.3-0.2,0.5-0.5,0.8-0.7V49z M71,40.3c0.3,0.1,0.5,0.1,0.8,0.2V41C71.5,40.7,71.2,40.5,71,40.3z
			 M71.7,29.2c-0.3,0-0.5,0.1-0.8,0.2c0.3-0.2,0.5-0.5,0.8-0.7V29.2z M71,20.5c0.3,0.1,0.5,0.1,0.8,0.2v0.6
			C71.5,21,71.2,20.7,71,20.5z M73.4,1.4v5.9H20.8V1.4H73.4z M13.8,171.2c-16.9-40,3.3-88.8,3.5-89.3c0-0.1,0.1-0.2,0.1-0.3l0-41.7
			c0,0-0.2-1.6,0.5-2.4c0.3-0.4,0.8-0.6,1.5-0.6c0.6,0,1,0.2,1.2,0.5c0.2,0.3,0.4,0.7,0.4,1.1v1.1v16.1v0.6c0,0.3,0.2,0.5,0.4,0.6
			c0.3,0.1,0.6,0.1,0.8-0.1l8-7.7l10.6,0c0.7,0,1.8,0.1,2.2,0.5c0.1,0.1,0.1,0.2,0.1,0.3c0,1.3-0.8,1.9-1.7,1.9h-9.2
			c-0.2,0-0.3,0.1-0.5,0.2l-7.1,6.2c-0.3,0.3-0.3,0.7-0.1,1c0.1,0.2,0.3,0.2,0.5,0.2c0.2,0,0.3-0.1,0.5-0.2l6.9-6.1l8.9,0
			c0,0,0,0,0,0c0,0,0,0,0,0l0.8,0c0,0,2.6,0.2,2.5,1.5c0,0.5-0.2,0.9-0.5,1.1c-0.5,0.4-1.4,0.5-1.7,0.5c-0.3-0.1-0.6-0.1-1-0.1h-8.3
			c-0.2,0-0.3,0.1-0.5,0.2l-5.3,5c-0.3,0.3-0.3,0.7,0,1c0.3,0.3,0.7,0.3,1,0l5.1-4.8h8.1c0.3,0,0.5,0,0.7,0.1c1,0.3,1.2,1,1.2,1.5
			c0,0.4-0.1,0.7-0.3,0.9c-0.5,0.5-1.5,0.6-1.9,0.6L35,60.7c-0.2,0-0.4,0.1-0.5,0.2L31.4,64c-0.1,0.1-0.2,0.3-0.2,0.5
			c0,0.2,0.1,0.4,0.3,0.5c0.7,0.5,1.3,1,1.8,1.6c1.1,1.2,1.7,2.4,1.8,4c0.1,0.9,0.1,1.8,0,2.9c0,0.6,0,1.1,0,1.8
			c0,4-3.5,4.8-3.6,4.8c0,0,0,0,0,0c0,0-0.1,0-0.1,0.1c0,0-0.1,0-0.1,0.1c0,0,0,0.1-0.1,0.1c0,0-0.1,0.1-0.1,0.1c0,0,0,0.1,0,0.1
			c0,0.1-0.1,0.1-0.1,0.2c0,0,0,0,0,0c-0.1,0.5-7,48,13.5,75.5c7.9,10.7,19,17,32.9,19c1.1,0.2,2.3,0.3,3.4,0.4
			c-3.4,0.9-7.3,2.4-10.8,4.9c-7.3,5.2-11,13-11,23.3v9.5C37.1,204.4,21.8,190.3,13.8,171.2z M24,305.7c4.3-2.7,11.8-5.9,23.4-5.9
			c3.7,0,7.6,0.5,12.2,1.7c3.7,0.9,7.5,2.1,11.5,3.4c11.8,3.7,25.7,8.1,45.5,8.1c5.6,0,11.7-0.4,18.3-1.2c-6.4,3.1-10.8,7.3-13.2,10
			c-14.7,2.6-45.9-8.9-46.2-9c-0.4-0.1-0.8,0.1-0.9,0.4s0.1,0.8,0.4,0.9c1.2,0.4,25.8,9.5,41.8,9.5c1.3,0,2.5-0.1,3.6-0.2
			c-0.6,0.7-0.9,1.2-0.9,1.3c0,0-0.7,1-1.8,2.6c-1.8,2.2-2.5,4.6-2.7,5.9c-7.3-2.8-61.4-23.5-91.5-23.5c-1.6,0-3.2,0.2-4.7,0.5
			C19.7,308.9,21.4,307.3,24,305.7z M1.4,333c0-12.1,9.9-22,22-22c32,0,91.2,23.5,91.8,23.7l0.9,0.3l0.1-0.9c0-0.2,0.3-3.3,2.4-5.9
			l0.1,0c0.1-0.1,0.2-0.3,0.3-0.4c1.7-1.9,4.3-3.5,8.6-3.5c4.4,0,7.7,2.3,10,6.8c1.7,3.4,2.1,7,2.1,7l0,0.3l26.7,20.2l0.1,0.1
			c3.6,1.8,4.9,5.7,4.2,8.5c-0.6,2.3-2.2,3.7-4.4,3.7c-5.7,0-7-6.6-7-6.9l-0.1-0.4l-33.8-8.6l-0.1,0H23.4
			C11.3,355,1.4,345.1,1.4,333z M178.2,323.9c0.2,4.6,1.1,14.4,2.9,30.7h-17.7l-10.3-7.8c5.7-19.4,21.5-32,27.1-35.9
			C178.7,314.6,178,319,178.2,323.9z M107.1,356.4H125l23.8,6.1c-0.3,2.2-1.4,10.2-1.5,18.5h-44c0.2-2.6,1.2-12,3.7-24.2
			C107.1,356.6,107.1,356.5,107.1,356.4z M246.9,454.5v24.1H14.7v-49.2L26.6,409c0.1-0.1,0.1-0.2,0.1-0.4v-28.3l12.5-24h66.6
			c0,0,0,0,0,0.1c-3,14.6-3.8,25.1-3.8,25.2c0,0.2,0.1,0.4,0.2,0.5c0.1,0.1,0.3,0.2,0.5,0.2H148c0.4,0,0.7-0.3,0.7-0.7
			c0-8.3,1.1-16.4,1.4-18.9l7.7,2c0.4,1.7,2.4,7.6,8.3,7.6c2.9,0,5.1-1.8,5.8-4.8c0.8-3.4-0.6-7.9-4.9-10.1l-1.8-1.4h16
			c2.9,27.6,7.1,62.9,7.7,68c-2.3,0.5-9.8,3-9.8,11.9c0,10.5,8.5,11.1,8.6,11.1h48.5c1.7,0,3.3,0,4.7-0.1L246.9,454.5z M226.7,431.6
			l-17.6-8.8c0.7-3.6,4.7-25.4,8.5-47.8l9,15.1V431.6z M223.9,323.8c-0.3,6.3-2.8,23.3-7.2,49.1c-4.2,24.9-8.9,49.9-8.9,50.1
			l-0.1,0.5l19.4,9.7l8.1,4.1l0.3-0.2c0,0,4.3-2.9,8.6-1.7c2.2,0.6,3.7,1.8,4.4,3.4c0.5,1.3,0.4,2.8-0.4,4.2
			c-1.3,2.3-4.8,2.6-11.7,2.6l-48.4,0c-0.3,0-7.2-0.5-7.2-9.7c0-9.2,8.9-10.6,9.3-10.6l0.7-0.1l-0.1-0.7c0-0.4-4.7-39.4-7.8-69.3
			c-1.8-16.5-2.7-26.8-2.9-31.4c-0.3-5.7,0.7-10.6,2.9-14.4c5.9-10.4,19.1-10.5,19.8-10.5c0,0,0,0,0,0c0.1,0,6.7,0,12.6,3.8
			C221.3,306.9,224.3,314,223.9,323.8z M193.9,291c6.4,0,12.6,3,18.2,8.6c-5-2.2-9.6-2.1-9.8-2.1c-0.1,0-14.3-0.1-20.8,11l0,0
			c-0.2,0.1-22.4,13.7-29.6,37.5l-7.7-5.8c0.8-2.3,5-13.2,14.8-21.5l-0.9-1.1c-9.5,8.1-13.9,18.5-15.1,21.7l-2.1-1.6
			c-0.3-2.1-2.7-14.7-13.5-14.7c-2.5,0-4.5,0.5-6.1,1.3c2.2-2.8,8.6-9.9,19-13.2l0,0c1.3-0.2,2.6-0.4,4-0.6l0,0
			c0.1,0,6.7-1,14.9-3.5c7.5-2.3,17.9-6.6,24.7-13.3c0.5-0.3,4.2-2.4,9.5-2.5C193.7,291,193.8,291,193.9,291z M318.7,183.7
			C318.7,183.7,318.7,183.7,318.7,183.7c-0.5-0.1-1.2-0.2-2-0.2h-10.6l1.7-1.2l16.2,0c0,0,0.2,0,0.4,0c0.1,0,0.2,0,0.3,0
			C323.4,184.3,318.8,183.7,318.7,183.7z M325.6,180.7c-0.8,0.2-1.5,0.1-1.5,0.1h-14.4l1.7-1.3h16
			C327.2,180,326.7,180.5,325.6,180.7z M328.1,178.1c-0.4,0.1-0.7,0.1-0.7,0.1h-16.2c-0.2,0-0.3,0-0.4,0.1l-6.9,5.2h-1.6
			c-0.4,0-0.7,0.3-0.7,0.7s0.3,0.7,0.7,0.7h14.6c0.7,0,1.3,0,1.7,0.1c1,0.2,1.4,0.7,1.4,1.8c0,0.2-0.1,0.4-0.2,0.5
			c-0.6,0.6-2.4,0.6-3.5,0.5h-7.8c-0.2,0-0.4,0.1-0.6,0.3c0,0-1.4,1.8-6.6,2.5c-5.5,0.8-18.6-2.7-18.7-2.8c-0.1,0-0.3,0-0.4,0
			c-62.1,18.5-92.6,25.9-97.9,27.2v-39.5h4.3l0,0l139,0c0.3,0,1.2,0.1,1.7,0.5c0.2,0.2,0.3,0.5,0.3,0.9
			C329.6,177.5,329.1,177.9,328.1,178.1z"/>
		<path class="st6" d="M114.2,227c0.4-0.1,0.5-0.5,0.4-0.9c-0.1-0.4-0.5-0.5-0.9-0.4c-0.2,0.1-18.1,6.6-35.8-1.5
			c-0.3-0.2-0.8,0-0.9,0.3c-0.2,0.4,0,0.8,0.3,0.9c6.9,3.2,13.9,4.1,19.9,4.1C107,229.7,114.1,227.1,114.2,227z"/>
		<path class="st6" d="M119.1,221.1c0.4,0,0.7-0.3,0.7-0.7v-28.8c0-0.4-0.3-0.7-0.7-0.7s-0.7,0.3-0.7,0.7v28.8
			C118.4,220.7,118.7,221.1,119.1,221.1z"/>
		<path class="st6" d="M119.1,242.6c-0.4,0-0.7,0.3-0.7,0.7v12c0,0.4,0.3,0.7,0.7,0.7s0.7-0.3,0.7-0.7v-12
			C119.8,242.9,119.5,242.6,119.1,242.6z"/>
		<path class="st6" d="M139.2,256c-9,2.6-15.5,0-15.5,0c-0.4-0.1-0.8,0-0.9,0.4c-0.1,0.4,0,0.8,0.4,0.9c0.2,0.1,3.2,1.2,7.9,1.2
			c2.4,0,5.3-0.3,8.5-1.2c0.4-0.1,0.6-0.5,0.5-0.9C140,256.1,139.6,255.9,139.2,256z"/>
		<path class="st6" d="M114.6,257.3c0.4-0.1,0.6-0.5,0.5-0.9c-0.1-0.4-0.5-0.6-0.9-0.5c-9,2.6-15.5,0-15.6,0c-0.4-0.1-0.8,0-0.9,0.4
			c-0.1,0.4,0,0.8,0.4,0.9c0.2,0.1,3.2,1.2,7.9,1.2C108.5,258.5,111.4,258.2,114.6,257.3z"/>
		<path class="st6" d="M119.1,261.3c-0.4,0-0.7,0.3-0.7,0.7v10.4c0,0.4,0.3,0.7,0.7,0.7s0.7-0.3,0.7-0.7V262
			C119.8,261.6,119.5,261.3,119.1,261.3z"/>
		<path class="st6" d="M114.2,273.1c-8.8,2.5-12.8-1.8-12.9-2c-0.3-0.3-0.7-0.3-1-0.1c-0.3,0.3-0.3,0.7-0.1,1
			c0.1,0.2,2.9,3.2,8.8,3.2c1.6,0,3.5-0.2,5.6-0.8c0.4-0.1,0.6-0.5,0.5-0.9C114.9,273.2,114.5,272.9,114.2,273.1z"/>
		<path class="st6" d="M124.1,274.4c2.1,0.6,4,0.8,5.6,0.8c5.8,0,8.6-3,8.8-3.2c0.3-0.3,0.2-0.7-0.1-1c-0.3-0.3-0.7-0.2-1,0.1
			c-0.2,0.2-4.2,4.5-12.9,2c-0.4-0.1-0.8,0.1-0.9,0.5C123.5,273.9,123.8,274.3,124.1,274.4z"/>
		<path class="st6" d="M119.1,276.5c-0.4,0-0.7,0.3-0.7,0.7v10.4c0,0.4,0.3,0.7,0.7,0.7s0.7-0.3,0.7-0.7v-10.4
			C119.8,276.8,119.5,276.5,119.1,276.5z"/>
		<path class="st6" d="M114.2,288.3c-8.8,2.5-12.8-1.8-12.9-2c-0.3-0.3-0.7-0.3-1-0.1c-0.3,0.3-0.3,0.7-0.1,1
			c0.1,0.2,2.9,3.2,8.8,3.2c1.6,0,3.5-0.2,5.6-0.8c0.4-0.1,0.6-0.5,0.5-0.9C114.9,288.4,114.5,288.1,114.2,288.3z"/>
		<path class="st6" d="M137.4,286.3c0,0-4.1,4.5-12.9,1.9c-0.4-0.1-0.8,0.1-0.9,0.5c-0.1,0.4,0.1,0.8,0.5,0.9c2.1,0.6,4,0.8,5.6,0.8
			c5.8,0,8.6-3,8.8-3.2c0.3-0.3,0.2-0.7-0.1-1C138.1,286,137.7,286,137.4,286.3z"/>
		<rect x="154.1" y="195.9" class="st6" width="1.4" height="83.5"/>
		<rect x="167.5" y="223.3" class="st6" width="1.4" height="66.4"/>
		<path class="st6" d="M129.1,156.8c-3.6,2.6-7.6,1.7-10.1,0c-3.5-2.4-6.3-2.2-7.7-1.8c-2.2,0.6-3.9,2.7-4,2.8
			c-0.2,0.3-0.2,0.6,0.1,0.8c0.3,0.2,0.6,0.2,0.8-0.1c0,0,1.6-1.9,3.4-2.4c1.2-0.3,3.6-0.5,6.7,1.6c1.6,1.1,3.6,1.9,5.9,1.9
			c1.8,0,3.7-0.5,5.6-1.9c0.3-0.2,0.3-0.6,0.1-0.8S129.4,156.6,129.1,156.8z"/>
		<path class="st6" d="M130.5,152.8c-1-0.2-2.1,0.1-3.1,0.8c-1.6,1.2-4.2,1.9-6.2,0.6c-2.4-1.6-5.2-3.1-9.4-2.9
			c-4.3,0.2-6.5,3.6-6.7,4c-0.8,1.2-1.2,2.7-0.9,4.1c0.3,1.2,1,2.1,2.1,2.7c1.9,1,4.7-1.2,5-1.5c2.2-1.7,3.1-1.2,5.4,0.1
			c0.6,0.3,1.2,0.7,1.9,1c1.7,0.9,3.7,1.1,5.5,1.1c2.2,0,4.2-0.4,5-0.8c1.6-0.6,3.6-2,4.2-3.9c0.4-1.1,0.2-2.3-0.4-3.4
			C132.2,153.4,131.2,153,130.5,152.8z M132.3,157.8c-0.5,1.4-2.1,2.6-3.5,3.2c-1.3,0.5-6,1.4-9.5-0.4c-0.7-0.3-1.3-0.7-1.9-1
			c-1.3-0.7-2.3-1.3-3.5-1.3c-0.9,0-1.9,0.4-3.2,1.4c-0.6,0.5-2.7,1.9-3.7,1.3c-0.8-0.4-1.3-1.1-1.5-1.9c-0.2-1,0-2.2,0.7-3.1
			c0,0,0,0,0,0c0.1-0.1,1.9-3.2,5.7-3.4c4.1-0.2,6.6,1.3,8.7,2.7c2.4,1.7,5.6,0.9,7.6-0.6c0.7-0.5,1.5-0.8,2.1-0.6
			c0.7,0.1,1.2,0.6,1.7,1.4C132.5,156.2,132.6,157,132.3,157.8z"/>
		<path class="st6" d="M100.4,150.2c-1.6,0-2.8,1.3-2.8,2.8c0,1.6,1.3,2.8,2.8,2.8c1.6,0,2.8-1.3,2.8-2.8
			C103.3,151.5,102,150.2,100.4,150.2z M100.4,154.5c-0.8,0-1.4-0.6-1.4-1.4c0-0.8,0.6-1.4,1.4-1.4c0.8,0,1.4,0.6,1.4,1.4
			C101.9,153.8,101.2,154.5,100.4,154.5z"/>
		<path class="st6" d="M116,162.8c-1.4,0-2.6,1.2-2.6,2.6c0,1.4,1.1,2.6,2.6,2.6c1.4,0,2.6-1.2,2.6-2.6
			C118.6,163.9,117.5,162.8,116,162.8z M116,166.5c-0.6,0-1.2-0.5-1.2-1.2c0-0.6,0.5-1.2,1.2-1.2c0.6,0,1.2,0.5,1.2,1.2
			C117.2,166,116.7,166.5,116,166.5z"/>
	</g>
</g>
</svg>
