<?xml version="1.0" encoding="utf-8"?>
<svg version="1.1" id="the-element-ikauriko-2-hand"
	 xmlns="http://www.w3.org/2000/svg" xmlns:xlink="http://www.w3.org/1999/xlink" x="0px" y="0px" viewBox="0 0 90 66"
	 style="enable-background:new 0 0 90 66;" xml:space="preserve">
<style type="text/css">
	.st0{fill:#E84572;}
	.st1{fill:#FFFFFF;}
	.st2{fill:#EE795E;}
	.st3{fill:#231815;}
</style>
<g>
	<path class="st0" d="M47.8,54.2l1.3-3.2v-1c-7.5,0.4-29,0.8-48.6-7.4V63c0,0,29.8,4.4,47.3-5.8V54.2z"/>
	<polygon class="st1" points="89.3,59.8 47.8,59.8 47.8,54.2 49.1,50.9 49.1,9.6 47.8,6.3 47.8,0.7 89.3,0.7 89.3,6.3 88,9.6 
		88,50.9 89.3,54.2 	"/>
	<g>
		<path class="st2" d="M84.9,30.4c-2.4-12.9-0.3-21.2-0.3-21.2h-3.7C79.3,21.4,82,30.4,82,30.4H84.9z"/>
		<path class="st2" d="M79,9.2h-3.7c-1.5,12.2,1.1,21.2,1.1,21.2h2.9C77,17.5,79,9.2,79,9.2z"/>
		<path class="st2" d="M73.5,9.2h-3.7c-1.5,12.2,1.1,21.2,1.1,21.2h2.9C71.4,17.5,73.5,9.2,73.5,9.2z"/>
		<path class="st2" d="M68,9.2h-3.7c-1.5,12.2,1.1,21.2,1.1,21.2h2.9C65.9,17.5,68,9.2,68,9.2z"/>
		<path class="st2" d="M62.4,9.2h-3.7c-1.5,12.2,1.1,21.2,1.1,21.2h2.9C60.4,17.5,62.4,9.2,62.4,9.2z"/>
		<path class="st2" d="M56.9,9.2h-3.7c-1.5,12.2,1.1,21.2,1.1,21.2h2.9C54.8,17.5,56.9,9.2,56.9,9.2z"/>
		<path class="st2" d="M51.9,30.5c2.4,12.9,0.3,21.2,0.3,21.2h3.7c1.5-12.2-1.1-21.2-1.1-21.2H51.9z"/>
		<path class="st2" d="M57.4,30.5c2.4,12.9,0.3,21.2,0.3,21.2h3.7c1.5-12.2-1.1-21.2-1.1-21.2H57.4z"/>
		<path class="st2" d="M63,30.5c2.4,12.9,0.3,21.2,0.3,21.2H67c1.5-12.2-1.1-21.2-1.1-21.2H63z"/>
		<path class="st2" d="M68.5,30.5c2.4,12.9,0.3,21.2,0.3,21.2h3.7c1.5-12.2-1.1-21.2-1.1-21.2H68.5z"/>
		<path class="st2" d="M74.1,30.5c2.4,12.9,0.3,21.2,0.3,21.2h3.7C79.6,39.5,77,30.5,77,30.5H74.1z"/>
		<path class="st2" d="M79.6,30.5c2.4,12.9,0.3,21.2,0.3,21.2h3.7c1.5-12.2-1.1-21.2-1.1-21.2H79.6z"/>
	</g>
	<rect x="60.7" y="16.1" class="st1" width="15.8" height="28.3"/>
	<g>
		<path class="st3" d="M88.7,9.7L90,6.6V0H47.1v6.5l1.3,3.2v39.6c-8.5,0.4-28.9,0.4-47.6-7.3c-0.2-0.1-0.5-0.1-0.7,0.1
			c-0.2,0.1-0.3,0.3-0.3,0.6v20.4c0,0.3,0.3,0.6,0.6,0.7c0.1,0,6.6,0.9,15.1,0.9c0.7,0,1.4,0,2.1,0c8.5-0.2,20.4-1.4,29.5-6.2v2.1
			H90V54l-1.3-3.2V9.7z M88.3,53.5H48.9l0.9-2.3v-1c0-0.1,0.1-0.2,0-0.3c0-0.1,0-0.1,0-0.2V9.4l-1-2.4h39.4l-0.9,2.3v41.8L88.3,53.5
			z M88.6,1.4v4.2H48.5V1.4H88.6z M1.3,62.4V43.7c18.7,7.4,38.6,7.5,47.2,7.1v0.1L47.3,54v2.9C31.5,65.7,5.6,62.9,1.3,62.4z
			 M48.5,59.1v-4.2h40.1v4.2H48.5z"/>
		<path class="st3" d="M85.3,9.4c0.1-0.2,0-0.4-0.1-0.6c-0.1-0.2-0.3-0.3-0.6-0.3h-3.7c-0.4,0-0.7,0.3-0.7,0.6
			c-1.3,10.3,0.3,18.2,0.9,20.7H80c-2.2-12.3-0.2-20.3-0.2-20.4c0.1-0.2,0-0.4-0.1-0.6c-0.1-0.2-0.3-0.3-0.6-0.3h-3.7
			c-0.4,0-0.7,0.3-0.7,0.6c-0.3,2.1-0.4,4.2-0.4,6.3h-0.7c0.2-3.8,0.7-6,0.7-6c0.1-0.2,0-0.4-0.1-0.6c-0.1-0.2-0.3-0.3-0.6-0.3h-3.7
			c-0.4,0-0.7,0.3-0.7,0.6c-0.3,2.1-0.4,4.2-0.4,6.3h-0.7c0.2-3.8,0.7-6,0.7-6c0.1-0.2,0-0.4-0.1-0.6c-0.1-0.2-0.3-0.3-0.6-0.3h-3.7
			c-0.4,0-0.7,0.3-0.7,0.6c-0.3,2.1-0.4,4.2-0.4,6.3h-0.7c0.2-3.8,0.7-6,0.7-6c0.1-0.2,0-0.4-0.1-0.6c-0.1-0.2-0.3-0.3-0.6-0.3h-3.7
			c-0.4,0-0.7,0.3-0.7,0.6c-1.3,10.3,0.3,18.2,0.9,20.7H58c-2.2-12.3-0.2-20.3-0.2-20.4c0.1-0.2,0-0.4-0.1-0.6
			c-0.1-0.2-0.3-0.3-0.6-0.3h-3.7c-0.4,0-0.7,0.3-0.7,0.6c-1.3,10.3,0.3,18.2,0.9,20.7h-1.5c-0.2,0-0.4,0.1-0.5,0.3
			c-0.1,0.2-0.2,0.4-0.2,0.6c2.3,12.6,0.3,20.8,0.3,20.9c-0.1,0.2,0,0.4,0.1,0.6c0.1,0.2,0.3,0.3,0.6,0.3h3.7c0.4,0,0.7-0.3,0.7-0.6
			c1.3-10.3-0.3-18.2-0.9-20.7H57c2,12.2,0.1,20.3,0,20.3c-0.1,0.2,0,0.4,0.1,0.6c0.1,0.2,0.3,0.3,0.6,0.3h3.7
			c0.4,0,0.7-0.3,0.7-0.6c0.3-2.2,0.4-4.5,0.5-6.7h0.7c-0.2,4.1-0.8,6.4-0.8,6.5c-0.1,0.2,0,0.4,0.1,0.6c0.1,0.2,0.3,0.3,0.6,0.3H67
			c0.4,0,0.7-0.3,0.7-0.6c0.3-2.2,0.4-4.5,0.5-6.7h0.7c-0.2,4.1-0.8,6.4-0.8,6.5c-0.1,0.2,0,0.4,0.1,0.6c0.1,0.2,0.3,0.3,0.6,0.3
			h3.7c0.4,0,0.7-0.3,0.7-0.6c0.3-2.2,0.4-4.5,0.5-6.7h0.7c-0.2,4.1-0.8,6.4-0.8,6.5c-0.1,0.2,0,0.4,0.1,0.6
			c0.1,0.2,0.3,0.3,0.6,0.3H78c0.4,0,0.7-0.3,0.7-0.6c1.3-10.3-0.3-18.2-0.9-20.7H79c2.2,12.3,0.2,20.3,0.2,20.4
			c-0.1,0.2,0,0.4,0.1,0.6c0.1,0.2,0.3,0.3,0.6,0.3h3.7c0.4,0,0.7-0.3,0.7-0.6c1.3-10.3-0.3-18.2-0.9-20.7h1.5
			c0.2,0,0.4-0.1,0.5-0.3c0.1-0.2,0.2-0.4,0.2-0.6C83.3,17.7,85.2,9.5,85.3,9.4z M55.3,51H53c0.5-2.4,1.4-9.6-0.3-19.8h1.5
			C54.8,33.2,56.4,41,55.3,51z M54.8,29.7c-0.5-2-2.2-9.8-1-19.8H56c-0.5,2.4-1.4,9.6,0.3,19.8H54.8z M75.8,30.2c0,0.1,0,0.2,0,0.2
			s0,0,0,0.1c0,0,0,0,0,0.1s0,0.2,0,0.2v12.9H73l0,0h-5.5l0,0H62l0,0h-0.6V16.8h14.4V30.2z M70.4,9.9h2.3c-0.2,1-0.5,2.9-0.6,5.5h-2
			C70.1,13.6,70.2,11.7,70.4,9.9z M64.9,9.9h2.3c-0.2,1-0.5,2.9-0.6,5.5h-2C64.5,13.6,64.6,11.7,64.9,9.9z M59.3,9.9h2.3
			c-0.2,1-0.5,2.9-0.6,5.5h-1v12.7C59.3,24.8,58.4,18.1,59.3,9.9z M60.8,51h-2.3c0.5-2.4,1.4-9.6-0.3-19.8h1.5
			c0,0.2,0.1,0.4,0.2,0.7v13.2h1.2C61.2,47.1,61.1,49,60.8,51z M66.4,51h-2.3c0.2-1.1,0.5-3.1,0.6-5.9h2
			C66.7,47.1,66.6,49.1,66.4,51z M71.9,51h-2.3c0.2-1.1,0.5-3.1,0.6-5.9h2C72.3,47.1,72.1,49.1,71.9,51z M77.5,51h-2.3
			c0.2-1.1,0.5-3.1,0.6-5.9h1.3V35C77.7,38.6,78.2,44.3,77.5,51z M77.2,29.7V15.4h-1.6c0-1.8,0.2-3.7,0.4-5.5h2.3
			c-0.5,2.4-1.4,9.6,0.3,19.8C78.6,29.7,77.2,29.7,77.2,29.7z M83,51h-2.3c0.5-2.4,1.4-9.6-0.3-19.8H82C82.5,33.2,84.1,41,83,51z
			 M82.5,29.7c-0.5-2-2.2-9.8-1-19.8h2.3c-0.5,2.4-1.4,9.6,0.3,19.8H82.5z"/>
	</g>
</g>
</svg>
