<?xml version="1.0" encoding="utf-8"?>
<svg version="1.1" id="the-uruma-yoshiya-body-1" xmlns="http://www.w3.org/2000/svg" xmlns:xlink="http://www.w3.org/1999/xlink" x="0px"
	 y="0px" viewBox="0 0 166 322" style="enable-background:new 0 0 166 322;" xml:space="preserve">
<style type="text/css">
	.st0{fill:#F4AEB6;}
	.st1{fill:#121659;}
	.st2{fill:#EE795E;}
	.st3{fill:#FFFFFF;}
	.st4{fill:#E84572;}
	.st5{fill:#97D2CE;}
	.st6{fill:#231815;}
</style>
<path class="st0" d="M90.3,285.3v11.6c0,0-0.7,3.8-2,6c-1.3,2.2-3,7.1-0.5,9.6c2.5,2.4,15.6,2.6,17.8,2.8c2.1,0.1,12.9-0.4,14.3-0.8
	c1.4-0.4,1.8-1.6,2.3-1.1c0.6,0.5,2.7,1,3.9,0.9c1.2-0.1,2-1.7,1-3.5c-1-1.8-3.5-3.3-5.3-3.1s-3,0.8-4.5,0.6
	c-1.5-0.2-9.8-4.5-12.1-5.6c-3.3-1.6-3.2-4.8-3.2-4.8v-12.6H90.3z"/>
<polygon class="st1" points="108,269 108,287.8 85.7,287.8 85.7,272.4 "/>
<path class="st2" d="M86.8,302.3c-0.5,0.6-1.3,1.7,0.4,2.9c1.6,1.2,6.8,4.8,6.8,4.8c0.3,0,0.6-0.1,0.9-0.2c1.4-0.3,2.5-0.8,3.6-1.4
	l-8.7-6C89.6,302.5,87.6,301.3,86.8,302.3z"/>
<path class="st2" d="M98.3,308.4c-1,0.6-2.2,1.1-3.6,1.4c-0.3,0.1-0.6,0.1-0.9,0.2c-4.7,0.8-8.2-0.2-8.2,3c0,0.9,0.1,1.8,0.2,2.5
	c0.2,0,6.7,1.5,20.7,2.2c14,0.7,23-1.6,23.3-1.7c0,0,0,0,0,0c0.1-0.3,0.1-0.5,0.1-0.8c0,0,1-5.5-3.4-8.8c-4.4-3.2-7-3-12.5-3.8
	c-5.5-0.8-5.8-4.1-8.8-0.9C103.1,304,101.2,306.7,98.3,308.4z"/>
<path class="st3" d="M85.9,315.5c0.3,2.2,0.8,3.7,0.8,3.7s11,1.7,22.6,2.1c11.6,0.4,18.8-1.1,18.8-1.1s1.3-1.4,1.8-4.2
	c-0.2,0.1-9.2,2.4-23.3,1.7C92.6,317,86.1,315.5,85.9,315.5z"/>
<path class="st0" d="M61.8,285.3v11.6c0,0,0.7,3.8,2,6c1.3,2.2,3,7.1,0.5,9.6c-2.5,2.4-15.6,2.6-17.8,2.8
	c-2.1,0.1-12.9-0.4-14.3-0.8c-1.4-0.4-1.8-1.6-2.3-1.1c-0.6,0.5-2.7,1-3.9,0.9c-1.2-0.1-2-1.7-1-3.5c1-1.8,3.5-3.3,5.3-3.1
	s3,0.8,4.5,0.6c1.5-0.2,9.8-4.5,12.1-5.6c3.3-1.6,3.2-4.8,3.2-4.8v-12.6H61.8z"/>
<polygon class="st1" points="44.1,269 44.1,287.8 66.5,287.8 66.5,272.4 "/>
<path class="st2" d="M65.4,302.3c0.5,0.6,1.3,1.7-0.4,2.9c-1.6,1.2-6.8,4.8-6.8,4.8c-0.3,0-0.6-0.1-0.9-0.2
	c-1.4-0.3-2.5-0.8-3.6-1.4l8.7-6C62.6,302.5,64.6,301.3,65.4,302.3z"/>
<path class="st2" d="M53.8,308.4c1,0.6,2.2,1.1,3.6,1.4c0.3,0.1,0.6,0.1,0.9,0.2c4.7,0.8,8.2-0.2,8.2,3c0,0.9-0.1,1.8-0.2,2.5
	c-0.2,0-6.7,1.5-20.7,2.2c-14,0.7-23-1.6-23.3-1.7c0,0,0,0,0,0c-0.1-0.3-0.1-0.5-0.1-0.8c0,0-1-5.5,3.4-8.8c4.4-3.2,7-3,12.5-3.8
	c5.5-0.8,5.8-4.1,8.8-0.9C49.1,304,51,306.7,53.8,308.4z"/>
<path class="st3" d="M66.3,315.5c-0.3,2.2-0.8,3.7-0.8,3.7s-11,1.7-22.6,2.1c-11.6,0.4-18.8-1.1-18.8-1.1s-1.3-1.4-1.8-4.2
	c0.2,0.1,9.2,2.4,23.3,1.7C59.6,317,66.1,315.5,66.3,315.5z"/>
<path class="st4" d="M109.8,220.5l0.2-5.1c0,0,1.8-51.2,1.8-71.2c0-20-13.2-21.2-13.2-21.2H75.8H53.1c0,0-13.2,1.2-13.2,21.2
	c0,13.6,0.8,41.4,1.3,58l0,0l0,0c0.3,7.9,0.4,13.2,0.4,13.2s0,0,0,0l0.2,4.7l-1.9,52.8c0,0,16.8,6,35.9,6c19.2,0,35.9-6,35.9-6
	L109.8,220.5z"/>
<path class="st5" d="M75.8,279c19.2,0,35.9-6,35.9-6l-2-52.4l0.1-2.7c-37.2,3.7-58.9,1.6-68.2,0l0.1,2.3l-1.9,52.8
	C39.8,272.9,56.6,279,75.8,279z"/>
<path class="st0" d="M43,96c0.1,1.9,0.3,3.7,0.5,5.4c-2.9,0-7.4-0.8-7-6.1c0.4-5.3,6.2-4.6,6.2-4.6C42.8,92.5,42.9,94.3,43,96z"/>
<path class="st0" d="M108.6,96c0.1-1.7,0.2-3.5,0.2-5.4h0c0,0,5.8-0.7,6.2,4.6c0.4,5.3-4.1,6.1-7,6.1
	C108.3,99.7,108.5,97.9,108.6,96z"/>
<path class="st5" d="M121.2,137.2c-1.1-5.2-10.2-10-10.2-10c-8.3-4.8-4.6-10.7-2.8-25.8c0.2-1.7,0.4-3.5,0.5-5.4
	c0.1-1.7,0.2-3.5,0.2-5.4c0.1-7.1-0.4-15.6-2.2-26.1c-1.1-6.3-2.4-11.9-3.8-17.1c0,0,10.1-6.9,14.7-14.4c0,0-26-25.5-40.9-31.8
	C76.4,1.1,76.2,1,76,0.9c-0.1,0-0.1-0.1-0.2-0.1c0,0,0,0,0.1,0c0,0,0,0,0,0c0,0,0,0-0.1,0c0,0,0,0,0,0c0,0,0,0,0,0l0,0
	C61,6.5,34,33,34,33c4.6,7.5,14.7,14.4,14.7,14.4c-1.4,5.1-2.7,10.8-3.8,17.1c-1.8,10.4-2.3,18.9-2.1,26.1c0,1.9,0.1,3.7,0.2,5.4
	c0.1,1.9,0.3,3.7,0.5,5.4c1.9,15.7,5.9,22-2.5,26.8c0,0-7.1,3.6-4.6,11.8c2.5,8.3,6.7,5.7,6.1,12.4c-0.6,6.7,3.5,5.9,5.7,4.2
	c2.1-1.7,3.5-5.9,2-10.4c-1.5-4.5-4-9.2,3.6-9.9l0.9-0.3c0.7,1.1,1.2,2.7,1.1,4.7c-0.2,4.5-2.2,9,0.7,13.3c2.9,4.3,7.3,5.7,9.2,4.1
	c2.1-1.8,1.9-3.1-1.9-8.2c-1.5-2-0.3-7.2,1.9-9.7c0,0,8.8,2.7,9.7,9.2c0.8,6.5,1.3,10.1,8.9,12.9c0,0,2.5,0.5,3-1.9
	c0.5-2.4-0.3-5.5-2.1-7.2c-1.8-1.7-1-6.2-0.7-9.3c0.2-1.7,0-3.1-0.7-4.4c0,0,5-2.3,8.4,0c3.5,2.3,4.7,6.8,4,10
	c-0.8,3.3-3.1,7.6-0.8,9.1c2.4,1.5,6.1-1.6,7.8-6.7c1.8-5.1,2.7-9.2,0-14.7c-0.4-0.8-0.7-1.5-0.9-2.2c3.9-0.3,10.3,3.8,8,9.9
	c-1.5,3.9-1.6,7.5-0.3,10.3c1.3,2.9,5.5,3.2,5.5-2.4C115.6,147.5,123.2,146.7,121.2,137.2z M72.5,3.3L72.5,3.3
	c1.9-1.6,3.1-2.3,3.3-2.4C75.6,1,74.4,1.7,72.5,3.3z"/>
<g>
	<g>
		<path class="st3" d="M45.8,63.7c0.9,0.3,1.8,0.4,2.7,0.4c4.9,0,9-4,9-9c0-4.5-3.3-8.2-7.7-8.9c-0.1,0.4-0.3,0.9-0.4,1.3
			C48,52.7,46.8,58.1,45.8,63.7z"/>
	</g>
	<g>
		<path class="st5" d="M49,49.2c-1,3.7-1.9,7.6-2.7,11.6c0.7,0.3,1.4,0.4,2.2,0.4c3.3,0,6-2.7,6-6C54.5,52,52.1,49.4,49,49.2z"/>
	</g>
</g>
<g>
	<g>
		<path class="st3" d="M105.8,63.7c-0.9,0.3-1.8,0.4-2.7,0.4c-4.9,0-9-4-9-9c0-4.5,3.3-8.2,7.7-8.9c0.1,0.4,0.3,0.9,0.4,1.3
			C103.6,52.7,104.8,58.1,105.8,63.7z"/>
	</g>
	<g>
		<path class="st5" d="M102.6,49.2c1,3.7,1.9,7.6,2.7,11.6c-0.7,0.3-1.4,0.4-2.2,0.4c-3.3,0-6-2.7-6-6C97,52,99.5,49.4,102.6,49.2z"
			/>
	</g>
</g>
<path class="st0" d="M78.9,102.9c0.1,1.3-1,2.5-3.1,2.5s-3.2-1.1-3.1-2.5c0.1-1.4,3.1-9.3,3.1-9.3S78.8,101.6,78.9,102.9z"/>
<path class="st0" d="M92.4,88.1c-1.2-1.2-2.9-2-4.7-2c-3.6,0-6.5,2.9-6.5,6.5s2.9,6.5,6.5,6.5s6.5-2.9,6.5-6.5
	C94.3,90.8,93.6,89.2,92.4,88.1z M75.8,118.6c1.5,0,2.8-0.2,3.9-0.5c2-0.6,3.6-1.5,4.7-2.6c1.6-1.5,2.4-3.4,2.5-4.6
	c0-0.2,0-0.4,0-0.6c-0.2-2.5-2.7-2.6-2.7-2.6h-0.5h-3.9h-3.9h-3.9H68h-0.5c0,0-2.5,0.1-2.7,2.6c0,0.2,0,0.4,0,0.6
	c0.1,1.3,0.9,3.1,2.5,4.6c1.1,1.1,2.7,2.1,4.7,2.6C73,118.4,74.3,118.6,75.8,118.6c-2.8,3.9-10.6,6.5-10.6,6.5
	C54.6,120,49.4,106.5,52,88.9c3.3-22.6,23.6-22.7,23.8-22.7s20.5,0.1,23.8,22.7c2.5,17.6-2.5,31-13.2,36.2l0,0
	C86.4,125.1,78.6,122.5,75.8,118.6L75.8,118.6z M75.8,105.4c2.1,0,3.2-1.1,3.1-2.5c-0.1-1.4-3.1-9.3-3.1-9.3s-3,7.9-3.1,9.3
	C72.6,104.3,73.7,105.4,75.8,105.4z M70.4,92.6c0-3.6-2.9-6.5-6.5-6.5c-1.9,0-3.5,0.8-4.7,2c-1.1,1.2-1.8,2.8-1.8,4.5
	c0,3.6,2.9,6.5,6.5,6.5C67.4,99.1,70.4,96.2,70.4,92.6z"/>
<path class="st3" d="M75.8,115.5v3.2c-1.5,0-2.8-0.2-3.9-0.5v-2.6H75.8z"/>
<path class="st3" d="M71.9,115.5v2.6c-2-0.6-3.6-1.5-4.7-2.6H71.9z"/>
<path class="st3" d="M79.7,115.5h4.7c-1.1,1.1-2.7,2.1-4.7,2.6V115.5z"/>
<path class="st3" d="M79.7,115.5v2.6c-1.1,0.3-2.4,0.5-3.9,0.5h0v-3.2H79.7z"/>
<rect x="68" y="107.6" class="st3" width="3.9" height="3.2"/>
<rect x="71.9" y="107.6" class="st3" width="3.9" height="3.2"/>
<path class="st3" d="M68,107.6v3.2h-3.2c0-0.2,0-0.4,0-0.6c0.2-2.5,2.7-2.6,2.7-2.6H68z"/>
<rect x="79.7" y="107.6" class="st3" width="3.9" height="3.2"/>
<rect x="75.8" y="107.6" class="st3" width="3.9" height="3.2"/>
<path class="st3" d="M86.9,110.2c0,0.2,0,0.4,0,0.6h-3.2v-3.2h0.5C84.2,107.6,86.6,107.7,86.9,110.2z"/>
<path class="st3" d="M92.4,88.1c1.1,1.2,1.8,2.8,1.8,4.5c0,3.6-2.9,6.5-6.5,6.5s-6.5-2.9-6.5-6.5s2.9-6.5,6.5-6.5
	C89.6,86.1,91.2,86.8,92.4,88.1z M91,92.6c0-1.8-1.5-3.3-3.3-3.3s-3.3,1.5-3.3,3.3c0,1.8,1.5,3.3,3.3,3.3S91,94.4,91,92.6z"/>
<path class="st3" d="M59.1,88.1c1.2-1.2,2.9-2,4.7-2c3.6,0,6.5,2.9,6.5,6.5s-2.9,6.5-6.5,6.5c-3.6,0-6.5-2.9-6.5-6.5
	C57.3,90.8,58,89.2,59.1,88.1z M67.1,92.6c0-1.8-1.5-3.3-3.3-3.3c-1.8,0-3.3,1.5-3.3,3.3c0,1.8,1.5,3.3,3.3,3.3
	C65.6,95.9,67.1,94.4,67.1,92.6z"/>
<path class="st4" d="M83.6,110.8h3.2c-0.1,1.3-0.9,3.1-2.5,4.6h-4.7h-3.9h-3.9h-4.7c-1.6-1.5-2.4-3.4-2.5-4.6H68h3.9h3.9h3.9H83.6z"
	/>
<path class="st5" d="M88.8,92.6c0-0.6-0.5-1.1-1.1-1.1s-1.1,0.5-1.1,1.1s0.5,1.1,1.1,1.1S88.8,93.2,88.8,92.6z M87.7,89.3
	c1.8,0,3.3,1.5,3.3,3.3c0,1.8-1.5,3.3-3.3,3.3s-3.3-1.5-3.3-3.3C84.4,90.8,85.9,89.3,87.7,89.3z"/>
<path class="st5" d="M60.5,92.6c0-1.8,1.5-3.3,3.3-3.3c1.8,0,3.3,1.5,3.3,3.3c0,1.8-1.5,3.3-3.3,3.3C62,95.9,60.5,94.4,60.5,92.6z
	 M63.8,91.5c-0.6,0-1.1,0.5-1.1,1.1s0.5,1.1,1.1,1.1s1.1-0.5,1.1-1.1S64.4,91.5,63.8,91.5z"/>
<g>
	<path class="st3" d="M57.4,217.6c0,0-2.2,0.8-3.7,3.1c-1.5,2.3-11.3,0.8-13.3-1.5c0,0-1.3-1.4-0.1-2.6c0.8-0.8,2.3-1.9,6.6-1.5
		C49.2,215.2,55.3,215.7,57.4,217.6z"/>
	<path class="st3" d="M52.7,220.7c0,0-0.1-3.7,5.7-4c5.6-0.2,11.2,1.3,11.2,1.3s-0.4,4.2-6.1,4.4C57.7,222.7,55.3,222.7,52.7,220.7z
		"/>
	<path class="st3" d="M65.6,221.7c0,0,0.4-4.3,8.7-4.5c5.3-0.1,10.3,0.9,10.3,0.9s-0.8,4.4-7.2,4.7C71,223.2,65.6,221.7,65.6,221.7z
		"/>
	<path class="st3" d="M80.6,222.5c0,0,1.6-4.5,6.5-5c4.7-0.5,10.4,0.2,10.4,0.2s0.1,5.1-6.6,5.5C85.5,223.5,80.6,222.5,80.6,222.5z"
		/>
	<path class="st3" d="M94.2,222.1c0,0,0.3-4.4,5.2-5.3c4-0.8,6.8-1.6,9-1.9c2.3-0.2,3.8,0.3,4.2,2.1c0.4,1.8-4.1,4.3-9.3,5
		C98.1,222.7,94.2,222.1,94.2,222.1z"/>
</g>
<g>
	<path class="st6" d="M127.1,305.8c-3.8-2.8-6.4-3.1-10.4-3.6c-0.7-0.1-1.5-0.2-2.4-0.3c-2.1-0.3-3.3-0.9-4.4-1.5
		c-1.8-0.9-3-1.4-5.1,0.8c-0.1,0.1-0.2,0.2-0.3,0.3c-1.9-1.4-1.9-3.5-1.9-3.6v-9.4h5.4c0.4,0,0.7-0.3,0.7-0.7v-13.1
		c2-0.6,3.2-1,3.3-1c0.3-0.1,0.5-0.4,0.5-0.7l-2-52.4c0,0,0,0,0,0c1.1-0.6,1.9-1.3,2.4-1.9c0.5-0.7,0.5-1.3,0.4-1.7
		c-0.3-1.4-1.2-2.2-2.6-2.5c0.2-6.9,1.2-35.4,1.6-56.1c0.2,0,0.4,0.1,0.6,0.1c0.2,0,0.4,0,0.6-0.1c0.7-0.1,2.8-0.9,2.8-5.1
		c0-2.1,1.1-3.4,2.5-5c2-2.4,4.4-5.2,3.1-11.1c-1.2-5.4-10.2-10.2-10.5-10.4c-6-3.5-5.3-7.4-3.8-16.1c0.4-2.5,0.9-5.3,1.3-8.5
		c1.9-0.1,4.2-0.5,5.7-2.1c1.1-1.2,1.5-2.8,1.4-4.7c-0.1-1.7-0.8-3-1.9-3.9c-1.4-1.2-3.3-1.4-4.3-1.4c0.1-8-0.6-16.4-2.2-25.5
		c-1-5.9-2.3-11.5-3.7-16.7c1.9-1.4,10.4-7.6,14.5-14.4c0.2-0.3,0.1-0.6-0.1-0.9c-1.1-1.1-27.3-26.7-42-32.3c0,0,0,0-0.1,0
		c0,0,0,0,0,0c0,0,0,0,0,0c0,0-0.1,0-0.1,0c0,0,0,0-0.1,0c0,0,0,0-0.1,0c0,0-0.1,0-0.1,0c0,0,0,0,0,0c0,0,0,0,0,0c0,0,0,0-0.1,0
		c-14.7,5.6-40.9,31.2-42,32.3c-0.2,0.2-0.3,0.6-0.1,0.9c4.2,6.8,12.6,13,14.5,14.4c-1.1,4-2.1,8.3-2.9,12.7c0,0,0,0,0,0
		c-0.3,1.3-0.5,2.6-0.7,3.9c-1.6,9.1-2.3,17.4-2.2,25.5c-1,0-2.9,0.2-4.3,1.4c-1.1,0.9-1.8,2.2-1.9,3.9c-0.2,2,0.3,3.6,1.4,4.7
		c1.5,1.6,3.8,2.1,5.7,2.1c0.4,3.5,1,6.5,1.4,9.1c1.6,8.9,2.3,13-3.6,16.4c-0.1,0-7.6,3.9-5,12.7c1,3.3,2.2,4.9,3.4,6.1
		c0.1,20.1,1.6,64.7,1.8,68.8c-0.4,0.2-0.8,0.5-1.1,0.9c-1.3,1.3-0.5,2.9,0.1,3.6c0.3,0.4,0.7,0.7,1.2,1l-1.9,52.4
		c0,0.3,0.2,0.6,0.5,0.7c0,0,1.4,0.5,3.8,1.2v13c0,0.4,0.3,0.7,0.7,0.7h5.4l0,9.5c0,0.1,0,2.2-1.9,3.6c-0.1-0.1-0.2-0.2-0.3-0.3
		c-2.1-2.2-3.3-1.7-5.1-0.8c-1,0.5-2.3,1.2-4.4,1.5c-0.9,0.1-1.7,0.2-2.4,0.3c-3.9,0.5-6.6,0.8-10.4,3.6c-4.7,3.5-3.7,9.2-3.7,9.4
		c0,0.3,0.1,0.6,0.1,0.9c0,0,0,0.1,0,0.1c0.5,2.8,1.9,4.3,1.9,4.4c0.1,0.1,0.2,0.2,0.4,0.2c0.1,0,5.8,1.2,15.2,1.2
		c1.2,0,2.5,0,3.8-0.1c11.5-0.4,22.6-2.1,22.7-2.1c0.3,0,0.5-0.2,0.6-0.5c0-0.1,0.6-1.6,0.9-3.8c0,0,0,0,0-0.1c0,0,0,0,0,0
		c0.1-0.8,0.2-1.7,0.2-2.5c0-1.2-0.4-1.9-1-2.4c0.4-1.7,0-3.5-0.4-5c0.6-0.5,1-1.1,1-1.7c0.1-1-0.5-1.7-0.8-2
		c-0.6-0.7-1.4-0.7-2.2-0.6c-0.7-1.8-1.2-4-1.2-4.4v-8.4h3.9c0.4,0,0.7-0.3,0.7-0.7v-8.5c2.8,0.2,5.7,0.4,8.6,0.4
		c3.1,0,6.2-0.2,9.2-0.4v8.5c0,0.4,0.3,0.7,0.7,0.7h3.9v8.4c-0.1,0.4-0.5,2.5-1.2,4.4c-0.7-0.2-1.6-0.1-2.2,0.6
		c-0.3,0.3-0.9,1.1-0.8,2c0.1,0.6,0.4,1.2,1,1.7c-0.5,1.5-0.8,3.3-0.4,5c-0.6,0.5-1,1.2-1,2.4c0,0.9,0.1,1.8,0.2,2.6
		c0.3,2.2,0.8,3.7,0.9,3.8c0.1,0.2,0.3,0.4,0.6,0.5c0.1,0,11.1,1.7,22.7,2.1c1.3,0,2.6,0.1,3.8,0.1c9.4,0,15.1-1.2,15.2-1.2
		c0.1,0,0.3-0.1,0.4-0.2c0.1-0.1,1.4-1.6,1.9-4.4c0,0,0-0.1,0-0.1c0.1-0.3,0.1-0.6,0.1-0.8C130.8,315,131.7,309.3,127.1,305.8z
		 M109.3,301.6c1.1,0.5,2.5,1.3,4.8,1.6c0.9,0.1,1.7,0.2,2.4,0.3c3.9,0.5,6.2,0.8,9.7,3.4c4,2.9,3.1,7.9,3.1,8.1
		c0,0.1,0,0.2-0.1,0.4c-1.9,0.4-10.2,2.2-22.6,1.6c-11.3-0.6-17.8-1.6-20.1-2.1c-0.1-0.6-0.1-1.3-0.1-1.9c0-1.5,0.8-1.7,4-1.9
		c1.1-0.1,2.3-0.2,3.6-0.4c0.3,0,0.6-0.1,0.9-0.2c1.3-0.3,2.5-0.7,3.7-1.4c0,0,0,0,0,0c0,0,0,0,0.1,0c2.2-1.3,3.8-3.1,5.4-4.9
		c0.6-0.7,1.2-1.3,1.8-2C107.3,300.6,107.7,300.8,109.3,301.6z M111.9,217.1c0,0.1,0,0.3-0.2,0.6c-0.9,1.3-4.4,3.1-8.5,3.6
		c-3.7,0.5-6.8,0.3-8.2,0.1c0.3-1.1,1.3-3.4,4.5-4c1.7-0.3,3.2-0.7,4.5-1c1.8-0.4,3.2-0.8,4.5-0.9
		C111.2,215.3,111.7,216.3,111.9,217.1z M80.2,221.7c-0.8,0.3-1.8,0.5-2.8,0.5c-4.9,0.2-9.3-0.6-10.9-1c0.5-1.1,2.1-3.2,7.9-3.3
		c3.3-0.1,6.5,0.3,8.4,0.6C81.3,219.6,80.6,220.9,80.2,221.7z M53.4,220.4c0.1-0.8,0.9-2.8,5-2.9c3.4-0.1,6.8,0.4,8.9,0.8
		c-2,1.3-2.4,3-2.5,3.3c-0.5,0.1-0.9,0.2-1.5,0.2C58.1,222,55.7,222,53.4,220.4z M87.1,218.2c2.9-0.3,6.1-0.2,8.1,0
		c-1.4,1.5-1.7,3.3-1.8,3.7c-0.8,0.3-1.7,0.5-2.7,0.5c-3.9,0.2-7.5-0.2-9.2-0.5C82.3,220.8,83.9,218.6,87.1,218.2z M113,92.4
		c0.8,0.7,1.3,1.7,1.4,2.9c0.1,1.6-0.2,2.8-1,3.7c-1.1,1.2-2.9,1.6-4.5,1.7c0.1-1.2,0.3-2.6,0.4-4h2.3c0.4,0,0.7-0.3,0.7-0.7
		s-0.3-0.7-0.7-0.7h-2.2c0.1-1.4,0.1-2.7,0.2-4C110.4,91.3,111.9,91.4,113,92.4z M103.1,58c0.6,0,1.1-0.2,1.5-0.5
		c0.2,0.8,0.4,1.7,0.5,2.5c-0.6,0.3-1.4,0.4-2.1,0.4c-2.9,0-5.3-2.4-5.3-5.3c0-2.8,2.2-5.2,5.1-5.3c0.2,0.8,0.4,1.7,0.6,2.5
		c-0.1,0-0.2,0-0.4,0c-1.6,0-2.8,1.3-2.8,2.8S101.5,58,103.1,58z M102.2,47.7c0.1,0.3,0.1,0.6,0.2,0.8c-3.4,0.3-6.1,3.2-6.1,6.7
		c0,3.7,3,6.7,6.7,6.7c0.8,0,1.6-0.1,2.3-0.4c0.1,0.5,0.2,1,0.3,1.5c-0.8,0.3-1.7,0.4-2.6,0.4c-4.6,0-8.3-3.7-8.3-8.3
		c0-4.2,3.1-7.7,7.2-8.2C102.1,47.2,102.2,47.4,102.2,47.7z M103.3,46.3C96.6,22.2,87,9.9,81.2,4.3c13.7,8,32.5,25.9,35.5,28.8
		C112.9,39,105.7,44.6,103.3,46.3z M34.9,33.1c3-2.9,21.8-20.8,35.5-28.8c-5.8,5.6-15.3,17.9-22,42C45.9,44.6,38.7,39,34.9,33.1z
		 M46.2,61.5c0.7,0.3,1.5,0.4,2.3,0.4c3.7,0,6.7-3,6.7-6.7c0-3.5-2.7-6.4-6.1-6.7c0.1-0.3,0.1-0.6,0.2-0.8c0.1-0.2,0.1-0.4,0.2-0.6
		c4.1,0.5,7.2,4,7.2,8.2c0,4.6-3.7,8.3-8.3,8.3c-0.9,0-1.7-0.1-2.6-0.4C46,62.5,46.1,62,46.2,61.5z M48.5,52.4c-0.1,0-0.2,0-0.3,0
		c0.2-0.8,0.4-1.7,0.6-2.5c2.8,0.2,5,2.5,5,5.3c0,2.9-2.4,5.3-5.3,5.3c-0.7,0-1.4-0.1-2-0.4c0.2-0.9,0.4-1.7,0.5-2.5
		c0.4,0.3,0.9,0.4,1.5,0.4c1.6,0,2.8-1.3,2.8-2.8S50,52.4,48.5,52.4z M37.2,95.3c0.1-1.3,0.6-2.3,1.4-2.9c1.1-0.9,2.6-1.1,3.5-1.1
		c0,1.3,0.1,2.7,0.2,4H40c-0.4,0-0.7,0.3-0.7,0.7s0.3,0.7,0.7,0.7h2.3c0.1,1.3,0.2,2.6,0.4,4c-1.6-0.1-3.4-0.5-4.5-1.7
		C37.5,98.1,37.1,96.9,37.2,95.3z M41.4,128.8c6.8-4,5.9-8.9,4.3-17.9c-0.5-2.8-1.1-5.9-1.5-9.6c-0.2-1.8-0.4-3.5-0.5-5.3
		c0,0,0,0,0,0c0,0,0,0,0,0c0,0,0,0,0,0c-0.1-1.7-0.2-3.5-0.2-5.3C43.3,82.4,44,74,45.6,64.7c0-0.1,0-0.2,0-0.2
		c0.9,0.3,1.9,0.4,2.8,0.4c5.3,0,9.7-4.3,9.7-9.7c0-4.8-3.5-8.8-8.2-9.5c9.3-32.4,23.5-42.5,25.9-44c2.4,1.5,16.5,11.5,25.9,44
		c-4.7,0.7-8.2,4.7-8.2,9.6c0,5.3,4.3,9.7,9.7,9.7c1,0,1.9-0.2,2.9-0.4c0,0.1,0,0.2,0,0.2c1.6,9.3,2.3,17.8,2.2,25.9
		c0,1.7-0.1,3.5-0.2,5.3c0,0,0,0,0,0.1c0,0,0,0,0,0c-0.1,1.9-0.3,3.7-0.5,5.3c-0.4,3.5-0.9,6.4-1.3,9c-1.5,8.7-2.3,13.6,4.5,17.5
		c0.1,0,8.8,4.7,9.9,9.5c1.1,5.3-0.9,7.6-2.8,9.9c-1.4,1.6-2.8,3.3-2.8,5.9c0,2.1-0.6,3.5-1.7,3.7c-0.9,0.2-1.9-0.5-2.4-1.6
		c-1.2-2.7-1.1-6.2,0.3-9.8c1.2-3.2,0.2-5.6-0.9-7c-1.9-2.5-4.9-3.7-7.2-3.8c-0.5-1.9-0.1-2.7,0.3-2.8c0.4-0.1,0.6-0.5,0.4-0.9
		c-0.1-0.4-0.5-0.6-0.9-0.4c-0.1,0-2.3,0.9-1,5c0.2,0.7,0.5,1.4,0.9,2.2c2.7,5.4,1.6,9.4,0,14.1c-1.1,3.2-3.2,5.8-5.1,6.5
		c-0.7,0.2-1.3,0.2-1.8-0.1c-1.3-0.8-0.5-3.3,0.3-5.7c0.3-0.9,0.6-1.8,0.8-2.6c0.8-3.4-0.4-8.2-4.3-10.8c-3.1-2.1-7.1-0.9-8.5-0.3
		c-0.6-0.8-1.4-1.6-2.4-2.4c-0.3-0.2-0.8-0.1-1,0.2c-0.2,0.3-0.1,0.8,0.2,1c1.1,0.8,1.9,1.5,2.3,2.4c0.6,1,0.8,2.3,0.6,3.9l-0.1,1
		c-0.4,3.2-0.8,7.1,1,8.8c1.5,1.5,2.4,4.3,1.9,6.5c-0.3,1.5-1.8,1.4-2.2,1.3c-7.1-2.6-7.5-5.9-8.3-12.3c-0.7-5.5-6.6-8.4-9.1-9.4
		c0.3-0.3,0.7-0.5,1.2-0.5c0.4,0,0.7-0.4,0.6-0.8c0-0.4-0.4-0.7-0.8-0.6c-1,0.1-2,0.7-2.9,1.7c0,0,0,0,0,0c0,0,0,0,0,0
		c-2.3,2.7-3.7,8.3-1.9,10.6c3.9,5.2,3.5,5.9,2,7.2c-0.5,0.4-1.2,0.5-2.1,0.4c-1.7-0.2-4.2-1.5-6.1-4.4c-2-3-1.5-6.1-1-9.3
		c0.2-1.2,0.4-2.4,0.4-3.6c0.1-1.9-0.3-3.6-1.2-5.1c-0.8-1.4-1.8-2.1-1.8-2.1c-0.3-0.2-0.7-0.2-1,0.2c-0.2,0.3-0.2,0.7,0.2,1
		c0,0,0.5,0.4,1,1c-2.6,0.3-4.3,1-5.2,2.3c-1.3,2-0.3,4.7,0.6,7.3c0.1,0.4,0.3,0.8,0.4,1.2c1.4,4.2,0.1,8.1-1.8,9.6
		c-1,0.8-2.4,1.4-3.4,0.8c-0.9-0.5-1.3-2.1-1.1-4.5c0.3-3.9-0.9-5.1-2.3-6.4c-0.2-0.2-0.4-0.4-0.6-0.6c0,0,0,0,0,0
		c-1.1-1.1-2.3-2.6-3.2-5.7C34.8,132.3,41.1,129,41.4,128.8z M40.6,147.7c1,1,1.5,2,1.3,4.7c-0.3,3.1,0.4,5,1.9,5.8
		c0.5,0.3,1,0.4,1.5,0.4c1.3,0,2.5-0.6,3.4-1.3c2.3-1.8,3.9-6.4,2.2-11.1c-0.1-0.4-0.3-0.8-0.4-1.2c-0.9-2.4-1.7-4.7-0.8-6
		c0.6-0.9,2-1.5,4.2-1.7c0.2,0,0.3-0.1,0.5-0.2c0.6,1.2,0.9,2.5,0.8,3.9c-0.1,1.1-0.2,2.3-0.4,3.4c-0.5,3.4-1.1,6.9,1.2,10.3
		c1.8,2.8,4.5,4.7,7.1,5c0.3,0,0.5,0.1,0.7,0.1c1,0,1.8-0.3,2.4-0.8c2.7-2.3,1.9-4.2-1.8-9.1c-1.2-1.6-0.3-6,1.6-8.5
		c1.7,0.6,8,3.3,8.7,8.5c0.9,6.6,1.4,10.5,9.3,13.5c0,0,0.1,0,0.1,0c0.2,0,0.5,0.1,0.7,0.1c1.2,0,2.7-0.5,3.1-2.5
		c0.6-2.7-0.4-6-2.3-7.8c-1.3-1.3-0.9-5-0.6-7.7l0.1-1c0.2-1.6,0-2.9-0.4-4c1.4-0.5,4.7-1.4,7.1,0.2c3.3,2.2,4.3,6.4,3.7,9.3
		c-0.2,0.8-0.5,1.6-0.8,2.5c-0.9,2.8-1.9,5.9,0.3,7.3c0.5,0.3,1.1,0.5,1.7,0.5c0.4,0,0.9-0.1,1.3-0.2c2.3-0.8,4.6-3.7,5.9-7.3
		c1.7-4.8,2.9-9.3,0-15.2c-0.2-0.4-0.4-0.8-0.5-1.1c1.9,0.2,4.2,1.3,5.6,3.2c0.9,1.2,1.7,3.1,0.7,5.7c-1.6,4-1.7,7.8-0.3,10.9
		c0.3,0.7,0.8,1.4,1.4,1.8c-0.4,20.6-1.3,49.3-1.6,56.5c-0.3,0-0.6,0-1,0c-1.4,0.1-2.9,0.5-4.7,0.9c-1.3,0.3-2.7,0.6-4.4,1
		c-0.9,0.2-1.7,0.5-2.4,0.9c-1.6-0.2-6-0.5-9.9-0.1c-0.9,0.1-1.7,0.3-2.5,0.6c-1-0.2-5.4-1-10.2-0.9c-2,0-3.6,0.3-4.9,0.7
		c-1.3-0.3-6.2-1.5-11.1-1.3c-0.7,0-1.2,0.1-1.8,0.2c-2.5-1.2-6.7-1.6-9-1.9l-0.6-0.1c-1.9-0.2-3.4-0.1-4.6,0.3
		C42.1,208.3,40.7,167.7,40.6,147.7z M40.8,217c0.4-0.4,1.7-1.7,6-1.3l0.6,0.1c1.8,0.2,4.8,0.5,7.1,1.2c-2.6,1.4-2.5,3.7-2.5,3.8
		c0,0.1,0,0.1,0,0.1c-2.9,0.8-9.7-0.4-11.1-2.2C40.8,218.6,40.1,217.7,40.8,217z M25.9,306.9c3.5-2.6,5.9-2.9,9.7-3.4
		c0.8-0.1,1.6-0.2,2.4-0.3c2.3-0.3,3.7-1.1,4.8-1.6c1.5-0.8,1.9-1,3.4,0.5c0.6,0.6,1.2,1.3,1.8,2c1.6,1.8,3.2,3.6,5.4,4.9
		c0,0,0,0,0.1,0c0,0,0,0,0,0c1.1,0.7,2.4,1.1,3.7,1.4c0.3,0.1,0.6,0.1,0.9,0.2c1.3,0.2,2.5,0.3,3.6,0.4c3.2,0.2,4,0.4,4,1.9
		c0,0.7,0,1.3-0.1,1.9c-2.2,0.4-8.7,1.5-20.1,2.1c-12.4,0.6-20.7-1.1-22.6-1.6c0-0.1,0-0.3-0.1-0.4C22.8,315,21.9,309.9,25.9,306.9z
		 M42.8,320.5c-10.2,0.3-17.1-0.8-18.4-1c-0.3-0.3-0.8-1.2-1.2-2.6c2.4,0.5,8.5,1.6,17.1,1.6c1.7,0,3.4,0,5.3-0.1
		c10.8-0.5,17.2-1.5,19.9-2c-0.2,1-0.4,1.7-0.5,2.2C62.8,318.8,53,320.2,42.8,320.5z M61.8,309.6c-0.5,0-1.1-0.1-1.7-0.1
		c1.3-0.9,3.1-2.1,4.3-3c0.3,1,0.5,2.3,0.3,3.5C63.9,309.8,62.9,309.7,61.8,309.6z M64.9,302.7c0.3,0.3,0.5,0.6,0.4,1
		c0,0.2-0.2,0.5-0.4,0.7c-0.1,0-0.3,0-0.4,0c-0.3,0.1-0.4,0.4-0.4,0.7c-1.7,1.3-5,3.6-6,4.2c-0.2,0-0.4-0.1-0.6-0.1
		c-0.8-0.2-1.6-0.4-2.3-0.8l7.7-5.3C63.5,302.8,64.5,302.3,64.9,302.7z M61.1,297.1c0,0.1,0.5,2.5,1.3,4.7c-0.1,0.1-0.2,0.1-0.3,0.1
		l-8.4,5.7c-1.8-1.2-3.3-2.8-4.7-4.4c-0.2-0.2-0.4-0.4-0.6-0.7c2.4-1.8,2.3-4.5,2.3-4.6v-9.4h10.2v8.5C61.1,297,61.1,297,61.1,297.1
		z M65.8,287.1H44.8v-11.9c4.7,1.3,12.3,3.1,20.9,4V287.1z M40.6,272.4l1.9-51.2c2.1,0.8,4.8,1.3,7.2,1.3c1.4,0,2.7-0.2,3.5-0.6
		c1.7,1.1,3.6,1.4,6.2,1.4c1.2,0,2.5-0.1,4-0.1c1.1,0,2-0.2,2.9-0.5c1.6,0.4,5.1,1,9.3,1c0.6,0,1.2,0,1.8,0c1,0,2-0.2,2.8-0.5
		c0.1,0,0.1,0.1,0.2,0.1c0.2,0,3.8,0.7,8.1,0.7c0.8,0,1.5,0,2.3-0.1c1.5-0.1,2.8-0.4,3.9-1c0.7,0.1,2,0.2,3.6,0.2
		c1.4,0,3.1-0.1,5-0.3c2.1-0.3,4.1-0.8,5.7-1.6l1.9,51.3c-2.9,1-18.2,5.8-35.2,5.8C58.8,278.3,43.4,273.4,40.6,272.4z M86.4,279.1
		c8.8-0.9,16.3-2.8,20.9-4.1v12H86.4V279.1z M91,297.1c0,0,0-0.1,0-0.1v-8.5h10.2l0,9.4c0,0.1-0.1,2.8,2.3,4.7
		c-0.2,0.2-0.4,0.4-0.6,0.7c-1.4,1.6-2.9,3.2-4.7,4.4l-8.4-5.7c0,0-0.1-0.1-0.2-0.1C90.6,299.6,91,297.2,91,297.1z M87.3,302.7
		c0.2-0.2,0.7-0.2,1.2,0c0,0,0,0,0,0c0,0,0,0,0,0c0.3,0.1,0.5,0.2,0.7,0.3l7.8,5.3c-0.7,0.3-1.5,0.6-2.3,0.8c-0.2,0-0.4,0.1-0.6,0.1
		c-0.9-0.6-4.2-2.9-6-4.2c0-0.3-0.2-0.5-0.4-0.7c-0.1-0.1-0.3,0-0.4,0c-0.2-0.2-0.4-0.4-0.4-0.7C86.8,303.4,87,303,87.3,302.7z
		 M87.7,306.5c1.3,0.9,3,2.2,4.3,3c-0.6,0.1-1.1,0.1-1.7,0.1c-1.1,0.1-2.1,0.1-3,0.4C87.2,308.8,87.4,307.5,87.7,306.5z
		 M127.7,319.5c-1.4,0.2-8.2,1.4-18.4,1c-10.2-0.3-19.9-1.7-22.1-2c-0.1-0.4-0.3-1.2-0.5-2.2c2.6,0.5,9,1.5,19.9,2
		c1.9,0.1,3.6,0.1,5.3,0.1c8.6,0,14.7-1.1,17.1-1.6C128.5,318.3,128,319.2,127.7,319.5z"/>
	<path class="st6" d="M123.9,310.5c1,0.3,1.9-0.2,2.1-1c0.2-0.8-0.4-1.7-1.3-1.9s-1.9,0.2-2.1,1C122.4,309.4,123,310.3,123.9,310.5z
		"/>
	<path class="st6" d="M118.9,308.3c1,0.3,1.9-0.2,2.1-1c0.2-0.8-0.4-1.7-1.3-1.9s-1.9,0.2-2.1,1C117.3,307.2,117.9,308,118.9,308.3z
		"/>
	<path class="st6" d="M113.3,307.2c1,0.3,1.9-0.2,2.1-1s-0.4-1.7-1.3-1.9c-1-0.3-1.9,0.2-2.1,1C111.8,306.1,112.4,307,113.3,307.2z"
		/>
	<path class="st6" d="M119.6,311.9c-0.2,0.8,0.4,1.7,1.3,1.9s1.9-0.2,2.1-1c0.2-0.8-0.4-1.7-1.3-1.9
		C120.8,310.6,119.8,311.1,119.6,311.9z"/>
	<path class="st6" d="M114.6,309.6c-0.2,0.8,0.4,1.7,1.3,1.9s1.9-0.2,2.1-1c0.2-0.8-0.4-1.7-1.3-1.9S114.8,308.8,114.6,309.6z"/>
	<path class="st6" d="M110.3,310.5c1,0.3,1.9-0.2,2.1-1c0.2-0.8-0.4-1.7-1.3-1.9c-1-0.3-1.9,0.2-2.1,1
		C108.8,309.4,109.4,310.2,110.3,310.5z"/>
	<path class="st6" d="M28.2,310.5c1-0.3,1.5-1.1,1.3-1.9c-0.2-0.8-1.2-1.2-2.1-1s-1.5,1.1-1.3,1.9C26.3,310.4,27.3,310.8,28.2,310.5
		z"/>
	<path class="st6" d="M33.3,308.3c1-0.3,1.5-1.1,1.3-1.9c-0.2-0.8-1.2-1.2-2.1-1c-1,0.3-1.5,1.1-1.3,1.9
		C31.4,308.1,32.3,308.6,33.3,308.3z"/>
	<path class="st6" d="M38.8,307.2c1-0.3,1.5-1.1,1.3-1.9c-0.2-0.8-1.2-1.2-2.1-1c-1,0.3-1.5,1.1-1.3,1.9
		C36.9,307.1,37.9,307.5,38.8,307.2z"/>
	<path class="st6" d="M29.1,312.8c0.2,0.8,1.2,1.2,2.1,1s1.5-1.1,1.3-1.9c-0.2-0.8-1.2-1.2-2.1-1S28.9,312,29.1,312.8z"/>
	<path class="st6" d="M34.1,310.6c0.2,0.8,1.2,1.2,2.1,1s1.5-1.1,1.3-1.9c-0.2-0.8-1.2-1.2-2.1-1S33.9,309.8,34.1,310.6z"/>
	<path class="st6" d="M39.7,309.5c0.2,0.8,1.2,1.2,2.1,1s1.5-1.1,1.3-1.9c-0.2-0.8-1.2-1.2-2.1-1S39.5,308.7,39.7,309.5z"/>
	<path class="st6" d="M65.1,233.3c0.1,0.2,0.2,0.3,0.2,0.5V245c0,0.2-0.1,0.4-0.2,0.6c-0.1,0.2-0.1,0.3-0.2,0.5
		c0.3,0.9,0.7,1.6,1.1,2.1c0.4,0.4,0.8,0.6,1.1,0.6c0.2,0,0.4-0.1,0.6-0.3c0.2-0.2,0.4-0.6,0.5-1l4.7-0.2v-13.7
		c0.2-0.1,0.3-0.2,0.3-0.3c0.1-0.1,0.1-0.3,0.1-0.4c0-0.4-0.3-0.8-0.8-1.2c-0.6-0.5-1.4-1-2.4-1.4c-0.2,0.3-0.3,0.5-0.6,0.6
		c-0.2,0.1-0.5,0.2-0.9,0.2l-0.4,0c-0.2-0.2-0.3-0.3-0.5-0.4c-0.2-0.1-0.3-0.2-0.5-0.2c-0.3,0-0.7,0.2-1.1,0.6
		c-0.4,0.4-0.9,1-1.5,1.8C64.9,233,65,233.1,65.1,233.3z M68.4,234l1.4-0.1v3l-1.4,0V234z M68.4,240.5l1.4-0.1v3.4l-1.4,0.1V240.5z"
		/>
	<path class="st6" d="M81.8,250c0.2,0.1,0.5,0.2,0.9,0.2c1.2,0,2.1-0.2,2.8-0.6c0.6-0.4,0.9-1,0.9-1.7v-7.1c0.2-0.1,0.3-0.2,0.3-0.4
		c0.1-0.1,0.1-0.3,0.1-0.4c0-0.3-0.3-0.7-1-1c-0.6-0.3-1.5-0.6-2.8-0.9c-0.1,0.2-0.2,0.4-0.4,0.5c-0.2,0.1-0.5,0.2-0.8,0.2l-3.9,0.1
		c-0.2-0.2-0.4-0.3-0.5-0.3c-0.2-0.1-0.3-0.1-0.5-0.1c-0.3,0-0.7,0.2-1.1,0.5c-0.4,0.3-0.9,0.7-1.6,1.3c0.2,0.1,0.3,0.2,0.4,0.3
		c0.1,0.1,0.1,0.3,0.2,0.4v6.4c0,0.2-0.1,0.4-0.2,0.5c-0.1,0.2-0.2,0.3-0.3,0.4c0.4,0.7,0.9,1.2,1.4,1.6c0.5,0.4,0.9,0.5,1.2,0.5
		c0.3,0,0.6-0.2,1-0.6c0.4-0.4,0.6-0.9,0.6-1.3v-2.6l3.8-0.1v0.5c0,0.2-0.1,0.4-0.2,0.5c-0.1,0.1-0.3,0.1-0.6,0.1H80v0.6
		c0.5,0,0.9,0.1,1.1,0.4c0.3,0.3,0.4,0.6,0.4,1.2v0.3C81.5,249.6,81.6,249.8,81.8,250z M78.5,240.7l3.8-0.1v0.9l-3.8,0.2V240.7z
		 M78.5,244.1v-0.9l3.8-0.1v0.8L78.5,244.1z"/>
	<path class="st6" d="M87.1,236c-0.5-0.3-1.1-0.6-2-0.8c-0.1,0.1-0.2,0.2-0.4,0.3c-0.1,0.1-0.3,0.1-0.5,0.2l-2.1,0.1V235H85
		c0.5,0,1-0.1,1.3-0.3c0.3-0.2,0.5-0.4,0.5-0.6c0-0.2-0.2-0.4-0.5-0.6c-0.3-0.3-0.8-0.5-1.4-0.8c-0.1,0.1-0.2,0.2-0.4,0.3
		c-0.1,0.1-0.3,0.1-0.5,0.1h-1.7v-0.7l3.6-0.1c0.5,0,0.9-0.1,1.1-0.3c0.3-0.2,0.4-0.3,0.4-0.6c0-0.2-0.2-0.5-0.6-0.7
		c-0.4-0.2-0.9-0.5-1.7-0.8c-0.2,0.1-0.3,0.3-0.5,0.3c-0.2,0.1-0.4,0.1-0.5,0.1l-1.7,0.1v-0.4c0.1-0.1,0.2-0.2,0.2-0.2
		c0.1-0.1,0.1-0.1,0.1-0.2c0-0.1-0.2-0.3-0.6-0.5c-0.4-0.2-0.9-0.3-1.4-0.3c-0.4,0-0.9,0.1-1.3,0.3s-0.9,0.5-1.5,0.8
		c0.1,0,0.2,0.1,0.3,0.2c0.1,0.1,0.1,0.2,0.2,0.4h-2.3c-0.2,0-0.4,0-0.6,0s-0.4-0.1-0.5-0.2c-0.3,0.4-0.6,0.8-0.8,1.1
		c-0.2,0.3-0.3,0.5-0.3,0.6c0,0.2,0.1,0.3,0.4,0.4c0.3,0.1,0.7,0.2,1.2,0.1l2.9-0.1v0.8h-2.7c-0.1,0-0.3,0-0.4,0
		c-0.1,0-0.2,0-0.3-0.1c-0.2,0.3-0.4,0.6-0.5,0.8c-0.1,0.2-0.2,0.3-0.2,0.5c0,0.2,0.1,0.4,0.4,0.6c0.3,0.2,0.7,0.2,1.3,0.2h2.3v0.7
		l-3,0.1c-0.2,0-0.3,0-0.5-0.1c-0.1-0.1-0.3-0.1-0.4-0.2c-0.4,0.5-0.7,0.8-0.9,1c-0.2,0.2-0.3,0.4-0.3,0.6c0,0.1,0.2,0.3,0.5,0.6
		c0.3,0.2,0.7,0.4,1,0.4l10.3-0.5c0.4,0.2,0.8,0.3,1.1,0.4c0.3,0.1,0.6,0.1,0.8,0.1c0.3,0,0.5-0.1,0.7-0.3c0.2-0.2,0.3-0.5,0.3-0.8
		C87.8,236.7,87.6,236.3,87.1,236z"/>
	<path class="st6" d="M78,264.6c0,0.1-0.1,0.3-0.2,0.4c0.5,0.5,0.9,0.8,1.4,1.1c0.4,0.2,0.7,0.3,1,0.3c0.3,0,0.6-0.2,0.9-0.6
		c0.3-0.4,0.4-0.9,0.3-1.5v-9.8c0-0.5-0.1-0.8-0.4-1.1c-0.3-0.3-0.6-0.4-0.9-0.4c-0.3,0-0.7,0.1-1.1,0.4c-0.4,0.3-0.9,0.6-1.5,1.2
		c0.2,0.1,0.3,0.3,0.4,0.5c0.1,0.2,0.1,0.4,0.1,0.6v8.5C78,264.3,78,264.4,78,264.6z"/>
	<path class="st6" d="M76.9,260.4c0.3-0.2,0.4-0.5,0.4-0.9c0-0.4-0.2-0.7-0.5-1.2c-0.3-0.4-0.8-0.8-1.5-1.3
		c-0.2,0.1-0.5,0.2-0.7,0.3c-0.2,0.1-0.5,0.1-0.7,0.1h-0.3v-1.6l1.5-0.2c0.5-0.1,0.9-0.3,1.2-0.5c0.3-0.2,0.4-0.5,0.4-0.8
		c0-0.3-0.2-0.7-0.6-1.1c-0.4-0.4-1-0.8-1.8-1.3c-0.2,0.1-0.4,0.3-0.7,0.3c-0.2,0.1-0.4,0.2-0.7,0.2l-6.3,0.9H65
		c0,1,0.2,1.8,0.6,2.3c0.4,0.5,1,0.8,1.9,0.8l1.8-0.2v1.3l-2.6,0.1l-1.2-0.2c-0.4,0.5-0.8,1-1,1.3c-0.2,0.4-0.3,0.7-0.3,0.9
		c0,0.4,0.2,0.7,0.6,1s0.9,0.4,1.5,0.4l2.4-0.1c-0.5,0.6-1.1,1.1-1.7,1.7c-0.6,0.5-1.2,1-1.8,1.4c0,0.6-0.1,1.3-0.3,2.1
		c-0.1,0.5-0.2,0.9-0.2,1.1c0,0.4,0.1,0.7,0.3,1c0.2,0.2,0.4,0.4,0.7,0.4c0.4,0,1-0.3,1.6-0.8c0.6-0.6,1.3-1.4,2.1-2.5v3.8
		c0,0.2-0.1,0.5-0.2,0.7c-0.1,0.2-0.2,0.4-0.4,0.5c0.4,0.8,0.9,1.5,1.6,2c0.6,0.4,1.1,0.7,1.6,0.7c0.4,0,0.8-0.2,1.1-0.6
		c0.4-0.4,0.5-1,0.5-1.6V265c0.6,0.5,1.1,0.9,1.4,1.2c0.4,0.3,0.7,0.4,0.9,0.4c0.4,0,0.6-0.2,0.7-0.6c0.1-0.4,0.2-0.9,0.3-1.7
		c0-0.2,0.1-0.5,0.1-0.7c0-0.2,0.1-0.5,0.1-0.8c-0.6-0.3-1.2-0.6-1.8-1s-1.1-0.7-1.5-1l2-0.1C76.3,260.8,76.6,260.7,76.9,260.4z"/>
	<path class="st6" d="M86.6,252.4c-0.6-0.4-1.2-0.6-1.7-0.6c-0.3,0-0.6,0.1-1.1,0.4c-0.5,0.3-1.1,0.6-1.8,1.1
		c0.2,0.2,0.3,0.4,0.5,0.6c0.1,0.2,0.2,0.5,0.2,0.7v13.1c0,0.3-0.1,0.5-0.2,0.6c-0.1,0.1-0.3,0.2-0.6,0.2h-2.8v0.7
		c0.6,0.1,1,0.3,1.3,0.7c0.3,0.4,0.4,0.9,0.4,1.6c0,0.4,0.1,0.7,0.3,0.9c0.2,0.2,0.6,0.3,1.1,0.3c1.6,0,2.8-0.3,3.7-0.8
		c0.9-0.5,1.3-1.2,1.3-2.2c0,0,0-0.1,0-0.2c0-0.1,0-0.2,0-0.2v-15c0.2-0.2,0.3-0.3,0.3-0.5c0.1-0.1,0.1-0.3,0.1-0.4
		C87.4,253.1,87.1,252.8,86.6,252.4z"/>
	<path class="st6" d="M71.6,23.1c-0.5,0.4-0.7,0.9-0.7,1.3c0,0.1,0,0.3,0.1,0.4c0.1,0.1,0.2,0.3,0.3,0.5c0,0.1,0.1,0.1,0.1,0.2
		c0,0.1,0.1,0.1,0.1,0.2c0,0.4,0.1,0.7,0.3,0.8c0.2,0.2,0.4,0.2,0.9,0.2c0.3,0,0.5,0,0.8-0.1c0.3-0.1,0.5-0.2,0.8-0.4
		c0.1,0.1,0.1,0.2,0.2,0.3c0.1,0.1,0.1,0.1,0.2,0.1c0.1,0,0.2,0,0.4-0.1c0.1-0.1,0.3-0.2,0.5-0.3c0.1,0.1,0.2,0.2,0.3,0.3
		c0.1,0.1,0.2,0.2,0.2,0.3c0.1,0.1,0.2,0.2,0.3,0.3s0.2,0.1,0.4,0.1c1,0,1.9-0.3,2.6-0.9c0.7-0.6,1-1.3,1-2.2c0-0.9-0.3-1.6-0.9-2.1
		c-0.6-0.5-1.5-0.7-2.7-0.7c-0.2,0-0.5,0-0.7,0s-0.5,0-0.7,0.1l0-0.3l2.3-0.2C78,21,78.2,21,78.4,21c0.2,0,0.3,0.1,0.5,0.1
		c0.3,0,0.5-0.1,0.7-0.2c0.2-0.1,0.2-0.3,0.2-0.5c0-0.3-0.2-0.6-0.5-0.9c-0.3-0.2-0.8-0.4-1.4-0.5c-0.1,0.1-0.2,0.2-0.4,0.3
		c-0.1,0.1-0.3,0.1-0.5,0.1l-1.3,0.1c0.1-0.2,0.1-0.3,0.2-0.4c0-0.1,0.1-0.2,0.1-0.2c0-0.2-0.1-0.3-0.4-0.5
		c-0.3-0.2-0.6-0.3-0.9-0.3c-0.1,0-0.2,0-0.3,0.1c-0.1,0-0.2,0.1-0.3,0.2c-0.1,0.1-0.3,0.2-0.4,0.3c-0.2,0.1-0.3,0.2-0.5,0.4
		c0.2,0,0.4,0.1,0.4,0.2c0.1,0.1,0.2,0.2,0.2,0.4l-1.1,0.1c0,0,0,0-0.1,0c0,0,0,0-0.1,0c-0.1,0-0.2,0-0.3,0c-0.1,0-0.2-0.1-0.3-0.1
		c-0.1,0.2-0.2,0.3-0.3,0.4c-0.1,0.1-0.2,0.2-0.3,0.4c-0.1,0.1-0.1,0.2-0.2,0.3c0,0.1-0.1,0.2-0.1,0.2c0,0.2,0.1,0.4,0.3,0.5
		c0.2,0.1,0.5,0.1,0.9,0.1l1.4-0.1v0.6C72.8,22.2,72.1,22.6,71.6,23.1z M77.1,24.3c0.3-0.3,0.4-0.5,0.4-0.8c0-0.1,0-0.2-0.1-0.4
		c-0.1-0.1-0.1-0.3-0.3-0.4c0.4,0.1,0.8,0.2,1,0.5c0.2,0.2,0.3,0.5,0.3,0.8c0,0.4-0.2,0.8-0.5,1.1c-0.4,0.3-0.8,0.4-1.4,0.4
		c-0.1,0-0.1,0-0.2,0c-0.1,0-0.1,0-0.2,0L76,25.2C76.5,24.8,76.9,24.5,77.1,24.3z M75.8,22.7c0.1,0,0.3,0,0.4,0l0.1,0.3
		c0,0.1,0,0.1,0,0.2c0,0-0.1,0.1-0.1,0.2c-0.1,0.1-0.2,0.2-0.3,0.3c-0.1,0.1-0.2,0.2-0.3,0.2c0-0.2-0.1-0.4-0.1-0.5
		c0-0.2,0-0.3,0-0.5C75.6,22.8,75.7,22.7,75.8,22.7z M73.7,23.5c0,0.2,0,0.4,0.1,0.6c0,0.2,0.1,0.4,0.1,0.6
		c-0.3,0.1-0.5,0.2-0.6,0.3C73.1,25,72.9,25,72.8,25c-0.1,0-0.2,0-0.3-0.1c-0.1,0-0.1-0.1-0.1-0.2c0-0.2,0.1-0.4,0.3-0.6
		C73,23.9,73.3,23.7,73.7,23.5z"/>
	<path class="st6" d="M71,31.4c0.2,0.1,0.5,0.2,0.8,0.2l0.9-0.1c-0.3,1-0.5,1.7-0.7,2.2c-0.2,0.5-0.4,0.8-0.6,0.8v1
		c0,0.4,0.1,0.7,0.2,1c0.1,0.2,0.3,0.3,0.6,0.3c0.6,0,1-0.4,1.4-1.2c0.3-0.7,0.7-2.2,1.2-4.5c0.3-0.1,0.7-0.1,1-0.2
		c0.3-0.1,0.7-0.2,1.1-0.3c0.3-0.1,0.5-0.2,0.6-0.3c0.1-0.1,0.2-0.3,0.2-0.5c0-0.3-0.1-0.6-0.4-0.7c-0.3-0.1-0.7-0.2-1.2-0.3
		c-0.1,0.1-0.2,0.2-0.3,0.3c-0.1,0.1-0.4,0.1-0.6,0.2c0-0.2,0.1-0.4,0.2-0.5c0.1-0.1,0.1-0.3,0.1-0.3c0-0.1-0.1-0.3-0.4-0.4
		c-0.3-0.2-0.6-0.2-1-0.2c-0.2,0-0.5,0.1-0.7,0.3c-0.2,0.2-0.5,0.4-0.8,0.7c0.2,0,0.3,0,0.4,0.1s0.1,0.2,0.1,0.4v0.4l-0.8,0.1
		c-0.2,0-0.3,0-0.4-0.1c-0.1,0-0.1-0.1-0.2-0.3c-0.1,0.1-0.1,0.2-0.2,0.2c-0.1,0.1-0.1,0.2-0.1,0.2c-0.2,0.2-0.3,0.4-0.4,0.6
		c-0.1,0.2-0.2,0.3-0.2,0.4C70.8,31.2,70.8,31.3,71,31.4z"/>
	<path class="st6" d="M80.3,34.9c-0.3-0.2-0.7-0.3-1.2-0.4c-0.1,0.1-0.3,0.1-0.5,0.2c-0.2,0-0.5,0.1-0.9,0.1c-0.4,0-0.7-0.1-1-0.2
		c-0.2-0.1-0.3-0.2-0.3-0.4c0-0.3,0.2-0.5,0.6-0.8c0.4-0.3,0.9-0.5,1.5-0.6l0.5,0c0.2,0,0.3,0,0.4,0c0.1,0,0.2,0,0.3,0
		c0.3,0,0.5-0.1,0.6-0.2c0.2-0.2,0.2-0.4,0.2-0.6c0-0.4-0.2-0.8-0.5-1c-0.4-0.2-0.8-0.4-1.4-0.4c-0.5,0-1,0.1-1.5,0.4
		c-0.5,0.3-1.1,0.7-1.6,1.2c0.3-0.1,0.5-0.1,0.7-0.2c0.2,0,0.5-0.1,0.7-0.1c0.2,0,0.4,0,0.6,0.1s0.3,0.1,0.5,0.3
		c-0.9,0.3-1.5,0.7-2,1.2c-0.4,0.5-0.7,0.9-0.7,1.5c0,0.5,0.3,1,0.8,1.3c0.6,0.3,1.3,0.5,2.3,0.5c0.8,0,1.4-0.1,1.7-0.2
		c0.4-0.2,0.6-0.4,0.6-0.8C80.7,35.4,80.6,35.1,80.3,34.9z"/>
	<path class="st6" d="M72.5,42c0,0.6,0.2,1.1,0.5,1.5c0.4,0.4,0.7,0.6,1.2,0.6c0.3,0,0.5-0.1,0.7-0.3c0.2-0.2,0.3-0.4,0.3-0.7l0-0.8
		c0-0.1,0-0.2,0-0.3c0-0.1,0-0.2,0.1-0.3c0.1-0.5,0.3-0.8,0.6-1.1c0.3-0.3,0.6-0.4,0.9-0.4c0.3,0,0.5,0.2,0.6,0.5
		c0.2,0.3,0.2,0.9,0.2,1.6c0,1.1-0.3,1.9-0.9,2.4c-0.6,0.5-1.4,0.7-2.4,0.7c-0.2,0-0.3,0-0.5,0c-0.2,0-0.4,0-0.6-0.1
		c0.3,0.2,0.5,0.4,0.6,0.5c0.1,0.2,0.2,0.3,0.3,0.4c0,0,0,0,0,0.1c0,0,0,0,0,0.1c0.2,0.2,0.3,0.4,0.5,0.5c0.2,0.1,0.4,0.1,0.8,0.1
		c1.3,0,2.3-0.4,3.1-1.1c0.8-0.7,1.2-1.8,1.2-3.2c0-1.1-0.2-2-0.6-2.6c-0.4-0.6-0.9-0.9-1.5-0.9c-0.6,0-1.1,0.2-1.5,0.6
		c-0.5,0.4-0.9,1-1.3,1.9c-0.1,0.1-0.1,0.2-0.2,0.3s-0.1,0.1-0.2,0.1c-0.1,0-0.2,0-0.2-0.1c-0.1-0.1-0.1-0.2-0.1-0.3
		c0-0.1,0-0.1,0-0.2s0.1-0.2,0.1-0.3c0.1-0.1,0.1-0.2,0.2-0.3c0.1-0.1,0.2-0.2,0.3-0.4c0.2-0.2,0.3-0.4,0.4-0.5
		c0.1-0.2,0.2-0.4,0.2-0.6c0-0.3-0.1-0.6-0.4-0.8c-0.2-0.2-0.5-0.3-0.8-0.3c-0.2,0-0.4,0.1-0.6,0.2c-0.2,0.1-0.5,0.2-0.7,0.5
		c0.2,0,0.3,0.1,0.4,0.2c0.1,0.1,0.1,0.2,0.1,0.4c0,0.2-0.1,0.5-0.3,1C72.7,40.9,72.5,41.5,72.5,42z"/>
	<path class="st6" d="M71.2,52.1c-0.2,0.4-0.4,0.8-0.4,1.1c0,0.2,0.1,0.4,0.2,0.7c0.1,0.2,0.4,0.5,0.7,0.8c0.1,0.2,0.2,0.3,0.2,0.5
		c0,0.2,0.1,0.3,0.1,0.4c0.1,0.2,0.2,0.3,0.4,0.4c0.2,0.1,0.4,0.1,0.6,0.1c0.3,0,0.6-0.1,0.9-0.3c0.4-0.2,0.7-0.5,1.1-0.8
		c0.2,0.1,0.3,0.3,0.3,0.4c0.1,0.1,0.1,0.3,0.1,0.4c0,0,0,0,0,0.1c0,0,0,0,0,0.1c0.1,0.2,0.2,0.4,0.4,0.5c0.2,0.1,0.4,0.2,0.7,0.2
		c0.3,0,0.7-0.1,1.1-0.2c0.4-0.1,0.7-0.3,1-0.5c0.6-0.4,1-0.8,1.3-1.3c0.3-0.5,0.4-1.1,0.4-1.8c0-1-0.3-1.9-0.9-2.5
		c-0.6-0.6-1.5-1-2.6-1.1l0-0.6c0-0.3-0.1-0.6-0.3-0.7c-0.2-0.2-0.5-0.3-0.8-0.3c-0.2,0-0.5,0.1-0.8,0.2c-0.3,0.1-0.5,0.4-0.9,0.7
		c0.3,0,0.5,0.1,0.6,0.2c0.1,0.1,0.1,0.4,0.1,0.7c-0.2,0.1-0.5,0.1-0.7,0.2c-0.2,0.1-0.4,0.2-0.6,0.3c-0.1-0.5-0.3-0.8-0.4-1
		c-0.2-0.2-0.4-0.3-0.7-0.3c-0.3,0-0.6,0.1-0.9,0.3c-0.3,0.2-0.5,0.5-0.7,0.9l0.3,0c0.2,0,0.3,0.1,0.4,0.3c0.1,0.2,0.2,0.4,0.4,0.8
		C71.8,51.3,71.4,51.7,71.2,52.1z M75.5,54.6l0.3,0.1c0.1,0,0.3-0.1,0.4-0.3c0.2-0.2,0.3-0.5,0.3-0.7c0,0,0-0.1-0.1-0.1
		c0,0-0.1,0-0.2-0.1c0.1-0.4,0.3-0.8,0.4-1.2c0.1-0.4,0.2-0.9,0.3-1.4c0.5,0.1,0.9,0.3,1.2,0.7c0.3,0.4,0.4,0.8,0.4,1.2
		c0,0.6-0.2,1.1-0.7,1.5c-0.5,0.4-1.1,0.6-2,0.6h-0.5L75.5,54.6z M74.6,51c0.1,0,0.3-0.1,0.4-0.1c0,0.2-0.1,0.4-0.1,0.7
		c-0.1,0.2-0.1,0.5-0.2,0.7c-0.1-0.1-0.2-0.3-0.3-0.5c-0.1-0.2-0.2-0.4-0.3-0.6C74.3,51.2,74.5,51.1,74.6,51z M72.5,52.8
		c0.1-0.2,0.2-0.4,0.4-0.7c0.1,0.3,0.3,0.5,0.4,0.8c0.2,0.2,0.3,0.4,0.5,0.6c-0.2,0.3-0.4,0.5-0.5,0.6c-0.2,0.1-0.3,0.2-0.4,0.2
		c-0.1,0-0.3-0.1-0.4-0.2c-0.1-0.2-0.2-0.4-0.2-0.7C72.3,53.3,72.4,53.1,72.5,52.8z"/>
	<path class="st6" d="M87.7,93.7c0.6,0,1.1-0.5,1.1-1.1c0-0.6-0.5-1.1-1.1-1.1c-0.6,0-1.1,0.5-1.1,1.1
		C86.6,93.2,87.1,93.7,87.7,93.7z"/>
	<path class="st6" d="M64.9,92.6c0-0.6-0.5-1.1-1.1-1.1c-0.6,0-1.1,0.5-1.1,1.1c0,0.6,0.5,1.1,1.1,1.1
		C64.4,93.7,64.9,93.2,64.9,92.6z"/>
	<path class="st6" d="M64.8,125.8c3.2,1.6,6.9,2.4,10.9,2.4c4,0,7.7-0.8,11-2.4c11.1-5.4,16.1-19.2,13.5-36.9
		c-3.3-23-23.6-23.3-24.5-23.3s-21.2,0.3-24.5,23.3C48.7,106.6,53.8,120.4,64.8,125.8z M71.2,108.3v1.8h-2.5v-1.8L71.2,108.3z
		 M75.1,108.3v1.8h-2.5v-1.8L75.1,108.3z M79,108.3v1.8h-2.5v-1.8L79,108.3z M82.9,108.3v1.8h-2.5v-1.8L82.9,108.3z M86.1,110.1
		h-1.8v-1.8C84.8,108.4,85.9,108.7,86.1,110.1z M67.3,110.1h-1.8c0.2-1.4,1.4-1.7,1.8-1.8V110.1z M86,111.5
		c-0.3,0.9-0.9,2.1-1.9,3.2H67.5c-1.1-1.1-1.7-2.3-1.9-3.2H86z M76.5,117.9v-1.7H79v1.4C78.2,117.8,77.4,117.9,76.5,117.9z
		 M80.4,116.2h2c-0.6,0.4-1.3,0.7-2,1V116.2z M71.2,116.2v1c-0.7-0.3-1.3-0.6-1.9-1H71.2z M72.6,116.2h2.5v1.7
		c-0.9,0-1.7-0.2-2.5-0.3V116.2z M52.7,89C55.8,67.2,75,67,75.8,67s20,0.3,23.1,22.1c2.5,17-2.2,30.2-12.5,35.3
		c-1.2-0.4-6.3-2.4-9.1-5.1c0.9-0.1,1.8-0.2,2.6-0.5c2-0.6,3.7-1.5,5-2.8c0,0,0,0,0,0c0,0,0,0,0,0c1.8-1.8,2.6-3.8,2.7-5.1
		c0,0,0,0,0-0.1c0,0,0,0,0-0.1c0-0.2,0-0.4,0-0.6c-0.2-2.5-2.3-3.2-3.4-3.2l-0.5,0c0,0,0,0,0,0s0,0,0,0l-3.9,0c0,0,0,0,0,0s0,0,0,0
		l-3.9,0c0,0,0,0,0,0s0,0,0,0l-3.9,0c0,0,0,0,0,0s0,0,0,0l-3.9,0c0,0,0,0,0,0s0,0,0,0l-0.6,0c-1.1,0-3.1,0.8-3.4,3.2
		c0,0.2,0,0.4,0,0.6c0,0,0,0,0,0c0,0,0,0,0,0c0,0,0,0,0,0c0.2,1.7,1.2,3.6,2.7,5.1c0,0,0,0,0,0c0,0,0,0,0,0c1.3,1.3,3,2.3,5,2.8
		c0.8,0.2,1.7,0.4,2.6,0.5c-2.8,2.7-7.9,4.7-9.1,5.1C54.9,119.2,50.2,106,52.7,89z"/>
	<path class="st6" d="M75.8,106.1c1.7,0,2.6-0.6,3.1-1.1c0.5-0.6,0.8-1.3,0.7-2.1c-0.1-1.4-2.8-8.7-3.2-9.5c-0.2-0.5-1.1-0.5-1.3,0
		c-0.3,0.8-3.1,8.1-3.2,9.5c-0.1,0.8,0.2,1.5,0.7,2.1C73.2,105.5,74.1,106.1,75.8,106.1z M75.8,95.7c1.1,3,2.4,6.6,2.4,7.3
		c0,0.4-0.1,0.7-0.3,1c-0.4,0.4-1.1,0.7-2.1,0.7s-1.7-0.2-2.1-0.7c-0.3-0.3-0.4-0.6-0.3-1C73.4,102.2,74.7,98.6,75.8,95.7z"/>
	<path class="st6" d="M71.1,92.6c0-1.5-0.5-2.9-1.2-4.1l1.7-1.7c0.3-0.3,0.3-0.7,0-1c-0.3-0.3-0.7-0.3-1,0l-1.6,1.6
		c-0.5-0.5-1.1-1-1.8-1.3l0.6-1.9c0.1-0.4-0.1-0.8-0.4-0.9c-0.4-0.1-0.8,0.1-0.9,0.4l-0.6,1.8c-0.6-0.2-1.3-0.3-2-0.3
		c-0.5,0-1,0.1-1.5,0.1l-0.6-1.9c-0.1-0.4-0.5-0.6-0.9-0.4c-0.4,0.1-0.6,0.5-0.4,0.9l0.6,1.9c-0.7,0.3-1.3,0.7-1.9,1.2l-1.5-1.5
		c-0.3-0.3-0.7-0.3-1,0c-0.3,0.3-0.3,0.7,0,1l1.5,1.5c-1,1.3-1.6,2.8-1.6,4.5c0,4,3.2,7.2,7.2,7.2C67.8,99.8,71.1,96.6,71.1,92.6z
		 M58,92.6c0-1.5,0.6-3,1.6-4c1.1-1.2,2.6-1.8,4.2-1.8c3.2,0,5.8,2.6,5.8,5.8c0,3.2-2.6,5.8-5.8,5.8C60.6,98.4,58,95.8,58,92.6z"/>
	<path class="st6" d="M67.8,92.6c0-2.2-1.8-4-4-4c-2.2,0-4,1.8-4,4c0,2.2,1.8,4,4,4C66,96.6,67.8,94.8,67.8,92.6z M61.2,92.6
		c0-1.4,1.2-2.6,2.6-2.6c1.4,0,2.6,1.2,2.6,2.6c0,1.4-1.2,2.6-2.6,2.6C62.4,95.2,61.2,94,61.2,92.6z"/>
	<path class="st6" d="M87.7,96.6c2.2,0,4-1.8,4-4c0-2.2-1.8-4-4-4c-2.2,0-4,1.8-4,4C83.7,94.8,85.5,96.6,87.7,96.6z M87.7,90
		c1.4,0,2.6,1.2,2.6,2.6c0,1.4-1.2,2.6-2.6,2.6c-1.4,0-2.6-1.2-2.6-2.6C85.1,91.2,86.3,90,87.7,90z"/>
	<path class="st6" d="M81.7,88.5c-0.8,1.2-1.2,2.6-1.2,4.1c0,4,3.2,7.2,7.2,7.2c4,0,7.2-3.2,7.2-7.2c0-1.6-0.6-3.2-1.6-4.5l1.5-1.5
		c0.3-0.3,0.3-0.7,0-1c-0.3-0.3-0.7-0.3-1,0l-1.5,1.5c-0.6-0.5-1.2-0.9-1.9-1.2l0.6-1.9c0.1-0.4-0.1-0.8-0.4-0.9
		c-0.4-0.1-0.8,0.1-0.9,0.4l-0.6,1.9c-0.5-0.1-1-0.1-1.5-0.1c-0.7,0-1.4,0.1-2,0.3l-0.6-1.8c-0.1-0.4-0.5-0.6-0.9-0.4
		c-0.4,0.1-0.6,0.5-0.4,0.9l0.6,1.9c-0.7,0.3-1.3,0.8-1.8,1.3L81,85.9c-0.3-0.3-0.7-0.3-1,0c-0.3,0.3-0.3,0.7,0,1L81.7,88.5z
		 M87.7,86.8c1.6,0,3.1,0.6,4.2,1.8c0,0,0,0,0,0c0,0,0,0,0,0c1,1.1,1.6,2.5,1.6,4c0,3.2-2.6,5.8-5.8,5.8c-3.2,0-5.8-2.6-5.8-5.8
		C81.9,89.4,84.5,86.8,87.7,86.8z"/>
	<path class="st6" d="M82.3,78.1c0.4,0,0.7-0.3,0.7-0.7c0-0.1,0-3.1,2-3.1c2,0,2,3,2,3.1c0,0.4,0.3,0.7,0.7,0.7s0.7-0.3,0.7-0.7
		c0-1.7-0.7-4.5-3.4-4.5c-2.7,0-3.4,2.8-3.4,4.5C81.6,77.7,81.9,78.1,82.3,78.1z"/>
	<path class="st6" d="M63.7,78.1c0.4,0,0.7-0.3,0.7-0.7c0-0.1,0-3.1,2-3.1c2,0,2,3,2,3.1c0,0.4,0.3,0.7,0.7,0.7s0.7-0.3,0.7-0.7
		c0-1.7-0.7-4.5-3.4-4.5c-2.7,0-3.4,2.8-3.4,4.5C63,77.7,63.3,78.1,63.7,78.1z"/>
</g>
</svg>
