<svg xmlns="http://www.w3.org/2000/svg" viewBox="0 0 25 25">
<defs>
<style>
	.svg__m__color{fill:#14195A;}
	.svg__pnk__color {fill: #e64673;}
	.svg__ong__color {fill: #f0785f;}
	.svg__grn__color {fill: #96d2cd;}
	.svg__mlgt__color {fill: #fff8ee;}
	.svg__blk__color {fill: #000000;}
	.svg__transparent {fill: none;}
</style>
</defs>
<g>
<rect class="svg__transparent" width="25" height="25"/>
<path class="svg__m__color" d="M22.44,7.4c0,.21,0,.44,0,.66A14.51,14.51,0,0,1,7.84,22.66,14.3,14.3,0,0,1,0,20.34a8.24,8.24,0,0,0,1.22.08A10.34,10.34,0,0,0,7.6,18.23a5.14,5.14,0,0,1-4.79-3.57,5.23,5.23,0,0,0,1,.1,5.43,5.43,0,0,0,1.35-.18A5.15,5.15,0,0,1,1,9.54V9.48a5.19,5.19,0,0,0,2.32.64A5.13,5.13,0,0,1,1,5.85a5.23,5.23,0,0,1,.69-2.58A14.61,14.61,0,0,0,12.31,8.64a5.06,5.06,0,0,1-.13-1.17A5.14,5.14,0,0,1,21.05,4a10.44,10.44,0,0,0,3.26-1.24,5.11,5.11,0,0,1-2.26,2.84A10.39,10.39,0,0,0,25,4.74,10.45,10.45,0,0,1,22.44,7.4Z"/>
</g>
</svg>