<?xml version="1.0" encoding="utf-8"?>
<svg version="1.1" id="the-element-jets-propeller-4" xmlns="http://www.w3.org/2000/svg" xmlns:xlink="http://www.w3.org/1999/xlink" x="0px"
	 y="0px" viewBox="0 0 26 48" style="enable-background:new 0 0 26 48;" xml:space="preserve">
<style type="text/css">
	.st0{fill:#FFF8EE;}
	.st1{fill:#231815;}
</style>
<g>
	<path class="st0" d="M0.8,26C1.3,38,6.6,47.3,13.1,47.3c4.2,0,7.9-4.1,10.1-10.2c1.3-3.7,2.1-8.3,2.1-13.1c0-4.7-0.8-9.1-2-12.8
		C21,4.9,17.2,0.7,12.9,0.7C6.5,0.7,1.3,10.1,0.7,22C0.7,22,0.7,24.5,0.8,26z"/>
	<g>
		<path class="st1" d="M23.9,11C21.5,4.1,17.4,0,13,0c0,0,0,0,0,0C6.1,0,0.6,9.5,0,22c0,0.1-0.1,2.3,0,4.1C0.6,38.6,6.2,48,13,48
			c0,0,0,0,0,0c4.4,0,8.4-4,10.8-10.7c1.4-4,2.2-8.6,2.1-13.4C26,19.3,25.3,14.8,23.9,11z M22.5,36.9c-2.2,6.1-5.7,9.7-9.5,9.7
			c0,0,0,0,0,0c-6,0-11-9-11.6-20.6c0,0,0,0,0,0c-0.1-1.7,0-3.9,0-4C1.9,10.5,7,1.4,12.9,1.4c0,0,0,0,0,0c3.8,0,7.4,3.8,9.6,10
			c1.3,3.7,2,8.1,2,12.5C24.6,28.6,23.9,33.1,22.5,36.9z"/>
		<path class="st1" d="M16.4,39c-1,1.1-2,1.6-3.1,1.6c-2,0-3.9-1.4-5.3-4c-0.2-0.3-0.6-0.5-1-0.3c-0.3,0.2-0.5,0.6-0.3,1
			c1.7,3,4,4.7,6.5,4.7c1.4,0,2.9-0.7,4.1-2.1c0.3-0.3,0.2-0.7,0-1C17.1,38.7,16.7,38.7,16.4,39z"/>
		<path class="st1" d="M5.4,25c0-1.8,0.1-3.6,0.3-5.2C5.7,19.4,5.5,19,5.1,19c-0.4-0.1-0.7,0.2-0.8,0.6C4,21.3,3.9,23.2,4,25
			c0.1,2.9,0.4,5.7,1.1,8c0.1,0.3,0.4,0.5,0.7,0.5c0.1,0,0.1,0,0.2,0c0.4-0.1,0.6-0.5,0.5-0.9C5.8,30.4,5.5,27.8,5.4,25z"/>
		<path class="st1" d="M6,15.1c0.1,0,0.2,0,0.2,0c0.3,0,0.6-0.2,0.7-0.5c1-3,2.2-4.5,2.3-4.5c0.8-1,1.6-1.7,2.5-2
			c0.4-0.1,0.5-0.5,0.4-0.9c-0.1-0.4-0.5-0.5-0.9-0.4C10.1,7.2,9,8.1,8.1,9.3C8,9.3,6.7,11,5.6,14.2C5.5,14.6,5.7,15,6,15.1z"/>
		<path class="st1" d="M16.8,8.2c-0.3-0.3-0.7-0.2-1,0c-0.3,0.3-0.2,0.7,0,1c0.6,0.5,1.1,1.2,1.6,2c0,0,3,4.8,3.2,12.8
			c0.1,3-0.3,5.9-1,8.6c-0.1,0.4,0.1,0.8,0.5,0.9c0.1,0,0.1,0,0.2,0c0.3,0,0.6-0.2,0.7-0.5c0.8-2.8,1.2-5.9,1.1-9
			c-0.2-8.4-3.2-13.3-3.4-13.5C18.1,9.5,17.5,8.8,16.8,8.2z"/>
		<path class="st1" d="M12.8,12.3C12.8,12.3,12.8,12.3,12.8,12.3c-0.4,0-0.7,0.3-0.7,0.7c0,0.4,0.3,0.7,0.7,0.7c0,0,0,0,0,0
			c0.7,0,1.5,0.8,2.1,2.3c0.9,2,1.4,4.9,1.4,8c0,0.4,0.3,0.7,0.7,0.7c0,0,0,0,0,0c0.4,0,0.7-0.3,0.7-0.7c0-3.3-0.6-6.4-1.5-8.6
			C15,12.9,13.7,12.3,12.8,12.3z"/>
		<path class="st1" d="M10.5,16.6c0.1-0.4-0.1-0.8-0.4-0.9c-0.4-0.1-0.8,0.1-0.9,0.4c-0.5,1.3-0.9,3-1,4.8c0,0.1-0.4,2.4,0,6.2
			c0.1,0.6,0.2,1.3,0.3,1.9c0.8,4.2,2.5,6.8,4.4,6.8c0,0,0,0,0,0c2.5,0,3.5-3.3,3.8-4.5c0.1-0.4-0.1-0.8-0.5-0.9
			c-0.4-0.1-0.8,0.1-0.9,0.5c-0.2,0.9-1,3.5-2.5,3.5c0,0,0,0,0,0c-1,0-2.3-1.8-3.1-5.6c-0.1-0.6-0.2-1.2-0.3-1.8
			c-0.4-3.5,0-5.7,0-5.8C9.7,19.4,10,17.9,10.5,16.6z"/>
	</g>
</g>
</svg>
