<?xml version="1.0" encoding="utf-8"?>
<svg version="1.1" id="the-element-baloon-2" xmlns="http://www.w3.org/2000/svg" xmlns:xlink="http://www.w3.org/1999/xlink" x="0px"
	 y="0px" viewBox="0 0 44 68" style="enable-background:new 0 0 44 68;" xml:space="preserve">
<style type="text/css">
	.st0{fill:#FFFFFF;}
	.st1{fill:#97D2CE;}
	.st2{fill:#E84572;}
	.st3{fill:#F4B2B7;}
	.st4{fill:#231815;}
</style>
<g>
	<path class="st0" d="M26.2,13.2c-1.3-0.7-2.9-1.1-4.5-1.1c-5.5,0-9.9,4.4-9.9,9.9c0,5.5,4.4,9.9,9.9,9.9c5.4,0,9.9-4.4,9.9-9.9
		C31.6,18.1,29.4,14.8,26.2,13.2z"/>
	<path class="st1" d="M21.7,16.1c3.2,0,5.8,2.6,5.8,5.8c0,3.2-2.6,5.8-5.8,5.8c-3.2,0-5.9-2.6-5.9-5.8
		C15.8,18.7,18.5,16.1,21.7,16.1z"/>
	<g>
		<polygon class="st2" points="22,52 24.7,52 22,48.3 18.7,52 		"/>
		<path class="st2" d="M43.3,24.5c0-13.1-9.5-23.8-21.3-23.8C10.2,0.7,0.7,11.3,0.7,24.5c0,13.1,9.5,23.8,21.3,23.8
			C33.8,48.3,43.3,37.6,43.3,24.5z"/>
	</g>
	<path class="st3" d="M26.8,35.4c1.1,0.1,3,0.3,2.9,2.6c-0.1,2.4-2.2,2.6-2.2,2.6h-5.8h-5.4c0,0-2.7-0.2-2.7-2.8
		c-0.1-2.6,2.8-2.5,2.8-2.5h5.3C21.7,35.4,25.7,35.3,26.8,35.4z"/>
	<path class="st0" d="M26.2,13.2c-1.3-0.7-2.9-1.1-4.5-1.1c-5.5,0-9.9,4.4-9.9,9.9c0,5.5,4.4,9.9,9.9,9.9c5.4,0,9.9-4.4,9.9-9.9
		C31.6,18.1,29.4,14.8,26.2,13.2z"/>
	<path class="st1" d="M21.7,16.1c3.2,0,5.8,2.6,5.8,5.8c0,3.2-2.6,5.8-5.8,5.8c-3.2,0-5.9-2.6-5.9-5.8
		C15.8,18.7,18.5,16.1,21.7,16.1z"/>
	<g>
		<path class="st4" d="M21.7,19.8c-1.2,0-2.1,1-2.1,2.1c0,1.2,1,2.1,2.1,2.1c1.2,0,2.1-1,2.1-2.1C23.8,20.8,22.9,19.8,21.7,19.8z"/>
		<path class="st4" d="M44,24.5C44,11,34.1,0,22,0C9.9,0,0,11,0,24.5c0,12.9,9.1,23.6,20.5,24.4l-2.3,2.6c-0.2,0.2-0.2,0.5-0.1,0.7
			s0.4,0.4,0.6,0.4h2.6c0.1,1.2,0.4,3.3,1.4,5.7c1.4,3.3,4.6,7.6,11.6,9.5c0.1,0,0.1,0,0.2,0c0.3,0,0.6-0.2,0.7-0.5
			c0.1-0.4-0.1-0.8-0.5-0.9c-10.4-2.9-11.8-11.1-12-13.9h1.9c0.3,0,0.5-0.1,0.6-0.4s0.1-0.5-0.1-0.7l-1.9-2.7
			C34.8,48.2,44,37.5,44,24.5z M20.3,51.3l1.7-1.9l1.4,1.9H20.3z M22,47.6c-11.4,0-20.6-10.4-20.6-23.1C1.4,11.8,10.6,1.4,22,1.4
			c11.4,0,20.6,10.4,20.6,23.1C42.6,37.2,33.4,47.6,22,47.6z"/>
		<path class="st4" d="M27.1,12.9l1-1.8c0.2-0.3,0.1-0.8-0.3-1c-0.3-0.2-0.8-0.1-1,0.3l-1.1,1.8c-1.1-0.5-2.3-0.8-3.5-0.8V9.5
			c0-0.4-0.3-0.7-0.7-0.7S21,9.1,21,9.5v1.9c-1.1,0.1-2.1,0.3-3.1,0.7l-0.9-1.7c-0.2-0.3-0.6-0.5-1-0.3c-0.3,0.2-0.5,0.6-0.3,1
			l0.9,1.6c-3.3,1.8-5.5,5.3-5.5,9.3c0,5.8,4.7,10.6,10.6,10.6c5.8,0,10.6-4.7,10.6-10.6C32.3,18.2,30.3,14.8,27.1,12.9z M21.7,31.1
			c-5.1,0-9.2-4.1-9.2-9.2c0-5.1,4.1-9.2,9.2-9.2c1.5,0,2.9,0.3,4.1,1c0,0,0,0,0,0c3.1,1.6,5,4.7,5,8.2C30.9,27,26.8,31.1,21.7,31.1
			z"/>
		<path class="st4" d="M21.7,15.4c-3.6,0-6.6,2.9-6.6,6.5s2.9,6.5,6.6,6.5c3.6,0,6.5-2.9,6.5-6.5S25.3,15.4,21.7,15.4z M21.7,27.1
			c-2.8,0-5.2-2.3-5.2-5.1c0-2.8,2.3-5.1,5.2-5.1c2.8,0,5.1,2.3,5.1,5.1C26.8,24.8,24.5,27.1,21.7,27.1z"/>
		<path class="st4" d="M26.9,34.7c-1.2-0.1-4.9,0-5.2,0l-5.3,0c-0.1,0-1.7,0-2.7,1c-0.6,0.6-0.8,1.3-0.8,2.2
			c0.1,2.6,2.3,3.4,3.4,3.4h5.4l5.9,0c0.9-0.1,2.7-1,2.8-3.3C30.5,35,27.9,34.8,26.9,34.7z M27.5,40l-11.2,0c-0.2,0-2-0.2-2.1-2.1
			c0-0.5,0.1-0.9,0.4-1.2c0.6-0.6,1.5-0.6,1.7-0.6c0,0,0,0,0,0h5.3c0,0,0,0,0,0c0,0,3.9-0.1,5,0c1.5,0.1,2.3,0.4,2.2,1.9
			C28.9,39.7,27.6,40,27.5,40z"/>
		<path class="st4" d="M27,37.3H16.3c-0.4,0-0.7,0.3-0.7,0.7s0.3,0.7,0.7,0.7H27c0.4,0,0.7-0.3,0.7-0.7S27.4,37.3,27,37.3z"/>
	</g>
</g>
</svg>
