<?xml version="1.0" encoding="utf-8"?>
<svg version="1.1" id="the-element-walklady-1" xmlns="http://www.w3.org/2000/svg" xmlns:xlink="http://www.w3.org/1999/xlink" x="0px"
	 y="0px" viewBox="0 0 110 189" style="enable-background:new 0 0 110 189;" xml:space="preserve">
<style type="text/css">
	.st0{fill:#FFF8EE;}
	.st1{fill:#97D2CE;}
	.st2{fill:#F4AEB6;}
	.st3{fill:#121659;}
	.st4{fill:#E84572;}
	.st5{fill:#231815;}
</style>
<g>
	<g>
		<rect x="49.9" y="19.5" class="st0" width="14.9" height="15.9"/>
		<g>
			<g id="XMLID_149_">
				<g>
					<path class="st1" d="M69.9,33.1c-2.8,0-5.1-0.2-7-0.4v0c-2-6.9,0.6-10.5,0.6-10.5v0c3.9-0.1,7.3,0.3,7.3,0.3H71
						c0,0.8,0,1.6-0.1,2.5c-0.2-0.1-0.5-0.1-0.8-0.1c-1.6,0-3,1.3-3,3c0,1.6,1.3,3,3,3l0.4-1.9c-0.1,1.1-0.3,2.2-0.5,3.3
						C70,32.4,69.9,32.8,69.9,33.1z"/>
					<path class="st2" d="M67.6,41.7c-0.8,2.3-1.6,4.5-2.4,6.4l0,0h-5.8c0,0-3.8-0.1-3.8-3c0-3.5,3.8-3.4,3.8-3.4h8.1L67.6,41.7z"/>
					
						<rect x="24.5" y="168.2" transform="matrix(0.4919 -0.8707 0.8707 0.4919 -144.3493 113.9736)" class="st0" width="2" height="24.9"/>
					<rect x="46" y="186.3" class="st0" width="24.9" height="2"/>
					<path class="st3" d="M27.1,174.2c0.9,0.7,6.2,2.4,8.5,3.6s3.4,4.3,1.7,7.4l-0.4,0.8l-21.7-12.3l3.4-6c0,0,0.6-1.9,3.4-0.8
						l-1.2,2.1c0,0,2.5,1.7,3.4,0.2c0.8-1.5,3.5-0.4,3.5-0.4s1.1,0.4,1.3,1C29.1,170.5,26.1,173.6,27.1,174.2z"/>
					<path class="st3" d="M56.7,180.9c1.1,0.1,6.6-1,9.1-1.1c2.5-0.1,5.1,2,5.1,5.6v0.9H46v-6.8c0,0-0.4-1.9,2.6-2.3v2.4
						c0,0,3,0.3,3-1.5c0-1.7,2.8-2.1,2.8-2.1s1.1-0.2,1.6,0.3C56.7,176.7,55.6,180.8,56.7,180.9z"/>
					<path class="st4" d="M34.9,117.2h33.7c0,0-0.2,39.9-10.3,56.2c0,0-1.4,0.1-3.8,0c-1.6-0.1-3.5-0.2-5.8-0.5
						c-5.4-0.8-12.6-2.5-19.8-6.4c-1.7-0.9-3.3-1.9-5-3c-2.4-1.7-4.8-3.6-7.1-5.9C16.8,157.5,34.9,134.6,34.9,117.2z"/>
					<path class="st0" d="M104,64.6c0,0,0.5,17-13.1,26.1C83,95.9,70.2,92,70.2,92c0-2.7,0-5.6,0-8.5c0-8.8-2.2-14.1-4.6-17.2
						c0.7,0.7,11.5,12.8,19.6,12.6c8.3-0.1,12.2-14.3,12.2-14.3h6.5H104z"/>
					<path class="st0" d="M70.2,92c0,14.3,0,25.1,0,25.1h-1.5H34.9h-1.4V96.1c9.1-5.3,17.4-8,17.4-8s9.7-3.5,9.7-11.3
						c0-8.9-9-9.4-9-9.4c-7.4,0-13.8,5.7-13.8,5.7c-1.4,1.3-2.8,2.5-4.2,3.8c0.6-6.3,2.6-14.9,9.2-14.9h17.5c0,0,2.6,0.9,5.1,4.3
						c0,0,0,0,0,0c2.3,3.2,4.6,8.5,4.6,17.2C70.2,86.5,70.2,89.3,70.2,92z"/>
					<path class="st0" d="M69.6,14.1H50c0,0-0.6,30.2-8.2,43.4c-0.4,0.8-0.9,1.5-1.4,2.1l-22.3-8.2c0,0,12.6-6.5,14.1-30.1l0-0.8
						c1-13.4,10.8-18.7,19.3-18.7C58.6,1.8,66.5,5.4,69.6,14.1z"/>
					<path class="st2" d="M54.5,173.4v2.6c0,0-2.8,0.3-2.8,2.1c0,1.7-3,1.5-3,1.5v-2.4v-3.7l0.1-0.6C51,173.2,52.9,173.3,54.5,173.4
						L54.5,173.4z"/>
					<path class="st2" d="M28.9,166.4l-0.1,0.2l-1.3,2.2c0,0-2.6-1.1-3.5,0.4c-0.9,1.5-3.4-0.2-3.4-0.2l1.2-2.1l2-3.6
						C25.6,164.5,27.2,165.5,28.9,166.4z"/>
					<path class="st2" d="M12.2,115.6l-3.3,5.2c0,0-1,1.6-2.1,1c-0.9-0.5-0.6-1.7-0.2-2.3c-0.1,0.1-1.1,1.4-2.1,0.8
						c-0.8-0.5-0.9-1.4-0.3-2.3c0,0-1.2,1.2-2.1,0.6c-0.9-0.7-0.6-1.8-0.2-2.3c0.4-0.5,3.7-5.1,3.7-5.1s-3.9,0.8-4.6,0
						c-0.6-0.6-0.2-1.4,1.1-1.9c0.6-0.2,7.8-1.7,7.8-1.7l4.7,3.2c0,0,0.7,5.9,0.8,7.1c0.2,1.3-0.3,2.3-1.2,2.2
						C13,119.7,12.3,115.7,12.2,115.6z"/>
					<path class="st2" d="M97.6,51.3c1.1-0.1,1.5,1,1.5,1.8c0-0.2,0.1-1.7,1.3-1.8c0.9-0.1,1.6,0.6,1.5,1.7c0,0,0.3-1.7,1.4-1.7
						c1.2,0,1.5,1.1,1.5,1.8c0,0.7-0.1,6.3-0.1,6.3s2.8-2.9,3.8-2.6c0.8,0.2,1,1,0.1,2.2c-0.4,0.5-4.9,5.4-4.9,5.4v0.2h-6.5
						c0,0-3.6-4.1-4.5-5.1c-0.8-0.9-1.1-2.1-0.2-2.5c1.1-0.5,3.9,2.3,4,2.5l-0.2-6.2C96.5,53.3,96.3,51.4,97.6,51.3z"/>
					<path class="st2" d="M70.1,32.1l3.4,7c0,0-2.7,0.9-5.2,0.2c0.6-2,1.1-4.1,1.6-6.3C69.9,32.8,70,32.4,70.1,32.1z"/>
					<polygon class="st2" points="60.5,57.5 60.5,62 42.9,62 42.9,57.5 51.7,57.5 					"/>
					<path class="st2" d="M70.9,22.4c0,0-3.5-0.4-7.3-0.3c-4.8,0.2-10.1,1.2-10.2,4.9c0,0-0.7,4.3,9.6,5.7c1.9,0.3,4.2,0.4,7,0.4
						c-0.4,2.2-1,4.3-1.6,6.3c-0.2,0.8-0.5,1.6-0.7,2.3l-0.1,0h-8.1c0,0-3.8-0.1-3.8,3.4c0,2.9,3.8,3,3.8,3h5.8l0,0
						c-2.4,5.8-4.7,9.5-4.7,9.5h-8.8h-8.7h-1.1C49.4,44.3,50,14.1,50,14.1h19.6c0.9,2.4,1.4,5.1,1.4,8.3H70.9z"/>
					<path class="st5" d="M71.4,25.1l-0.8,3.7c0.1-1,0.3-2.1,0.3-3.2c0-0.2,0-0.5,0-0.7C71.1,25,71.2,25,71.4,25.1z"/>
					<path class="st5" d="M70.9,25.6c-0.1,1.1-0.2,2.1-0.3,3.2c0,0,0,0,0,0.1l-0.4,1.9c-1.6,0-3-1.3-3-3c0-1.6,1.3-3,3-3
						c0.3,0,0.5,0,0.8,0.1C71,25.1,71,25.4,70.9,25.6z"/>
				</g>
				<g>
					<path class="st5" d="M70.3,40.3c-0.7,0-1.5-0.1-2.2-0.3c-0.4-0.1-0.6-0.5-0.5-0.9c0.1-0.4,0.5-0.6,0.9-0.5c1.5,0.4,3.1,0.2,4,0
						l-3-6.2c-0.1-0.3-0.1-0.6,0.1-0.8c0.3-0.3,0.7-0.3,1,0l0,0c0,0.1,0.1,0.1,0.1,0.2l3.4,7c0.1,0.2,0.1,0.4,0,0.6
						c-0.1,0.2-0.2,0.3-0.4,0.4C73.6,39.8,72.1,40.3,70.3,40.3z"/>
					<path class="st5" d="M65.1,48.7h-5.8c-1.6,0-4.5-0.8-4.5-3.7c0-1.2,0.4-2.1,1.1-2.9c1.3-1.3,3.3-1.3,3.4-1.3l8.1,0
						c0.4,0,0.7,0.3,0.7,0.7s-0.3,0.7-0.7,0.7h-8.1c0,0-1.6,0-2.5,0.9c-0.5,0.5-0.7,1.1-0.7,1.9c0,2.2,3,2.3,3.2,2.3l5.7,0
						c0.4,0,0.7,0.3,0.7,0.7S65.5,48.7,65.1,48.7z"/>
					<path class="st5" d="M66.3,45.6H59c-0.4,0-0.7-0.3-0.7-0.7s0.3-0.7,0.7-0.7h7.3c0.4,0,0.7,0.3,0.7,0.7S66.7,45.6,66.3,45.6z"/>
					<path class="st5" d="M70.1,33.8h-0.2c-2.6,0-5-0.2-7.1-0.5c-4.8-0.7-7.9-2-9.4-4c-0.9-1.3-0.8-2.4-0.8-2.5
						c0.1-2.3,2-5.1,10.9-5.4c3.9-0.1,7.3,0.3,7.4,0.3c0.4,0,0.6,0.4,0.6,0.8c0,0.4-0.4,0.7-0.8,0.6c0,0-3.5-0.4-7.2-0.3
						c-4.3,0.2-9.4,1-9.5,4.2c0,0.1-0.4,3.7,9,5c2,0.3,4.4,0.4,6.9,0.4h0.2c0.4,0,0.7,0.3,0.7,0.7S70.5,33.8,70.1,33.8z"/>
					<path class="st5" d="M62.9,33.3c-0.3,0-0.6-0.2-0.7-0.5c-2.1-7.2,0.6-10.9,0.7-11.1c0.2-0.3,0.7-0.4,1-0.1
						c0.3,0.2,0.4,0.7,0.1,1c0,0.1-2.4,3.5-0.5,9.9c0.1,0.4-0.1,0.8-0.5,0.9C63,33.3,63,33.3,62.9,33.3z"/>
					<path class="st5" d="M40.5,60.3c-0.1,0-0.2,0-0.2,0l-22.3-8.2c-0.3-0.1-0.4-0.3-0.5-0.6c0-0.3,0.1-0.5,0.4-0.7
						c0.1-0.1,12.2-6.6,13.8-29.5l0-0.8c1-13.4,10.8-19.4,20-19.4c6.8,0,15.2,3.3,18.6,12.7c0,0,0,0.1,0.1,0.1
						c0.9,2.5,1.4,5.4,1.4,8.5c0,0.8,0,1.7-0.1,2.6c0,0.3,0,0.5,0,0.7c-0.1,1-0.2,2-0.3,3.2c-0.2,1.1-0.3,2.2-0.5,3.4l-0.2,1
						c-0.4,2.1-1,4.2-1.6,6.3c-0.2,0.8-0.5,1.6-0.7,2.3c-0.7,2.2-1.5,4.3-2.4,6.5c-2.4,5.8-4.7,9.4-4.8,9.6
						c-0.1,0.2-0.3,0.3-0.6,0.3H42.2c-0.4,0.7-0.8,1.3-1.2,1.8C40.9,60.2,40.7,60.3,40.5,60.3z M19.7,51.3l20.5,7.5
						c0.3-0.5,0.7-1,1-1.6c0,0,0,0,0,0c7.4-13,8.1-42.8,8.1-43.1c0-0.4,0.3-0.7,0.7-0.7h18.6c-3.4-8-10.9-10.9-16.9-10.9
						c-11.9,0-17.9,9.1-18.6,18.1l0,0.8C31.7,41,23,49,19.7,51.3z M43,56.9h17.1c0.6-1,2.5-4.3,4.5-9.1c0.9-2.1,1.7-4.2,2.4-6.4
						c0.2-0.8,0.5-1.5,0.7-2.3c0.6-2,1.1-4.1,1.6-6.2l0.2-0.9c0.2-1.1,0.4-2.2,0.5-3.2c0.2-1.2,0.3-2.2,0.3-3.2c0-0.2,0-0.4,0-0.6
						c0.1-0.9,0.1-1.7,0.1-2.5c0-2.8-0.4-5.3-1.2-7.6H50.7C50.6,19.3,49.5,44.2,43,56.9z"/>
					<path class="st5" d="M60.5,62.7H42.9c-0.4,0-0.7-0.3-0.7-0.7v-4.5c0-0.4,0.3-0.7,0.7-0.7s0.7,0.3,0.7,0.7v3.8h16.1v-3.8
						c0-0.4,0.3-0.7,0.7-0.7s0.7,0.3,0.7,0.7V62C61.2,62.4,60.8,62.7,60.5,62.7z"/>
					<path class="st5" d="M70.2,117.9H33.5c-0.4,0-0.7-0.3-0.7-0.7V83.4c0-0.1-0.1-2.9,0.2-6.5c1-10.2,4.4-15.6,9.9-15.6
						c0.4,0,0.7,0.3,0.7,0.7s-0.3,0.7-0.7,0.7c-5.9,0-7.9,7.8-8.5,14.3c-0.3,3.5-0.2,6.3-0.2,6.3l0,33.1h35.3V83.5
						c0-7.1-1.5-12.9-4.4-16.8c-0.2-0.3-0.2-0.7,0.1-1c0.3-0.2,0.7-0.2,1,0.1c3.1,4.2,4.7,10.2,4.7,17.6v33.6
						C70.9,117.5,70.5,117.9,70.2,117.9z"/>
					<path class="st5" d="M65.6,67c-0.2,0-0.4-0.1-0.6-0.3c-2.3-3.1-4.8-4-4.8-4c-0.4-0.1-0.6-0.5-0.4-0.9c0.1-0.4,0.5-0.6,0.9-0.4
						c0.1,0,2.8,1,5.5,4.5c0.2,0.3,0.2,0.7-0.1,1C65.9,66.9,65.7,67,65.6,67z"/>
					<path class="st5" d="M56.7,174.1c-0.6,0-1.3,0-2.2-0.1c-1.9-0.1-3.9-0.3-5.8-0.5c-7.2-1-13.9-3.2-20.1-6.5
						c-1.7-0.9-3.4-2-5.1-3.1c-2.6-1.8-5-3.8-7.2-6c-0.3-0.2-0.3-0.6-0.1-0.9c0.2-0.2,18-22.9,18-39.9c0-0.4,0.3-0.7,0.7-0.7
						s0.7,0.3,0.7,0.7c0,7.4-3.1,16.5-9.2,27.1c-3.8,6.5-7.6,11.7-8.8,13.2c2,2,4.3,3.8,6.6,5.4c1.6,1.1,3.2,2.1,4.9,3
						c6,3.2,12.6,5.3,19.6,6.4c1.9,0.3,3.8,0.5,5.7,0.5c1.6,0.1,2.8,0,3.4,0c9.7-16.2,10-55.2,10.1-55.6c0-0.4,0.3-0.7,0.7-0.7
						c0,0,0,0,0,0c0.4,0,0.7,0.3,0.7,0.7c0,0.1-0.1,10.2-1.4,22.1c-1.8,16.1-4.8,27.7-9.1,34.5c-0.1,0.2-0.3,0.3-0.5,0.3
						C58.3,174.1,57.7,174.1,56.7,174.1z"/>
					<path class="st5" d="M49.1,180.2c-0.3,0-0.4,0-0.5,0c-0.4,0-0.6-0.3-0.6-0.7v-6.1c0-0.4,0.3-0.7,0.7-0.7s0.7,0.3,0.7,0.7v5.4
						c0.5,0,1.2-0.1,1.5-0.4c0.1-0.1,0.2-0.2,0.2-0.4c0-1.6,1.6-2.4,2.8-2.7v-2c0-0.4,0.3-0.7,0.7-0.7s0.7,0.3,0.7,0.7v2.6
						c0,0.3-0.3,0.6-0.6,0.7c0,0-2.2,0.3-2.2,1.4c0,0.6-0.2,1-0.6,1.4C51,180.1,49.8,180.2,49.1,180.2z"/>
					<path class="st5" d="M71,189H46c-0.4,0-0.7-0.3-0.7-0.7v-8.8c0-0.3-0.1-1,0.4-1.7c0.5-0.7,1.5-1.2,2.8-1.4
						c0.4,0,0.7,0.2,0.8,0.6c0,0.4-0.2,0.7-0.6,0.8c-0.9,0.1-1.5,0.4-1.8,0.8c-0.2,0.3-0.2,0.7-0.2,0.7c0,0,0,0.1,0,0.1v8.2h23.6
						v-2.2c0-1.9-0.8-3.1-1.4-3.7c-0.8-0.8-1.9-1.2-3-1.2c-1.2,0-3.3,0.3-5,0.6c-2.2,0.3-3.6,0.5-4.2,0.5c-1.3-0.2-1.2-2-1.1-3.5
						c0-0.4,0.1-1.1,0-1.4c-0.2-0.1-0.7-0.1-1-0.1c-0.4,0.1-0.7-0.2-0.8-0.6c-0.1-0.4,0.2-0.7,0.6-0.8c0.2,0,1.5-0.2,2.2,0.4
						c0.5,0.4,0.4,1.2,0.3,2.5c0,0.6-0.1,1.7,0,2.1c0.6,0,2.2-0.2,3.7-0.5c1.8-0.3,3.9-0.6,5.2-0.6c1.5,0,2.9,0.5,4,1.6
						c1.2,1.2,1.8,2.8,1.8,4.7v2.9C71.7,188.7,71.4,189,71,189z M55.7,176.8C55.7,176.8,55.7,176.8,55.7,176.8
						C55.7,176.8,55.7,176.8,55.7,176.8z"/>
					<path class="st5" d="M71,187H46c-0.4,0-0.7-0.3-0.7-0.7c0-0.4,0.3-0.7,0.7-0.7H71c0.4,0,0.7,0.3,0.7,0.7
						C71.7,186.7,71.4,187,71,187z"/>
					<path class="st5" d="M80,94.1c-5.3,0-9.8-1.3-10.1-1.4c-0.4-0.1-0.6-0.5-0.5-0.9c0.1-0.4,0.5-0.6,0.9-0.5
						c0.1,0,12.6,3.7,20.1-1.3c11.6-7.7,12.7-21.6,12.8-24.8h-5.4c-0.8,2.6-4.8,14.2-12.7,14.3c-0.1,0-0.1,0-0.2,0
						c-7.9,0-17.9-10.7-19.9-12.8c0,0,0-0.1-0.1-0.1c-0.2-0.3-0.2-0.7,0-0.9c0.3-0.3,0.7-0.3,1,0c0,0,0.1,0.1,0.1,0.1
						c1.3,1.4,11.6,12.5,19,12.4c7.7-0.1,11.5-13.7,11.5-13.8c0.1-0.3,0.4-0.5,0.7-0.5h6.6c0.4,0,0.7,0.3,0.7,0.7
						c0,0.2,0.3,17.5-13.4,26.7C87.9,93.5,83.8,94.1,80,94.1z"/>
					<path class="st5" d="M102.1,59.7c-0.4,0-0.7-0.3-0.7-0.7l-0.2-6c0-0.4-0.1-0.7-0.2-0.9c-0.1-0.1-0.3-0.2-0.5-0.2
						c-0.6,0-0.6,1.1-0.6,1.1c0,0.4-0.3,0.7-0.7,0.7c-0.4,0-0.7-0.3-0.7-0.7c0.1-1.1,0.6-2.4,1.9-2.5c0.6,0,1.2,0.2,1.6,0.6
						c0.5,0.5,0.7,1.1,0.7,1.9l0.2,5.9C102.8,59.3,102.5,59.6,102.1,59.7C102.1,59.7,102.1,59.7,102.1,59.7z"/>
					<path class="st5" d="M96.7,60.2c-0.4,0-0.7-0.3-0.7-0.7l-0.2-6.2c-0.1-1.2,0.4-2.6,1.8-2.7c0.5,0,1,0.1,1.4,0.4
						c0.8,0.6,0.9,1.7,0.9,2c0,0.8,0.1,5.8,0.1,6c0,0.4-0.3,0.7-0.7,0.7c0,0,0,0,0,0c-0.4,0-0.7-0.3-0.7-0.7c0-0.1-0.1-5.2-0.1-5.9
						c0-0.4-0.2-0.8-0.4-1.1C98,52,97.8,51.9,97.7,52c-0.6,0.1-0.5,1.3-0.5,1.3l0.2,6.2C97.4,59.8,97.1,60.2,96.7,60.2
						C96.7,60.2,96.7,60.2,96.7,60.2z"/>
					<path class="st5" d="M97.4,65.3c-0.2,0-0.4-0.1-0.5-0.2c0,0-3.6-4.1-4.5-5.1c-0.7-0.8-1.1-1.7-0.9-2.4c0.1-0.5,0.4-0.9,0.9-1.1
						c1.3-0.6,3.3,1.1,4.8,2.6c0.3,0.3,0.3,0.7,0,1c-0.3,0.3-0.7,0.3-1,0c-1.5-1.5-2.9-2.4-3.3-2.3c-0.1,0.1-0.1,0.1-0.1,0.2
						c0,0.2,0.1,0.7,0.6,1.2c0.9,0.9,4.3,4.9,4.5,5.1c0.3,0.3,0.2,0.7-0.1,1C97.7,65.2,97.5,65.3,97.4,65.3z"/>
					<path class="st5" d="M103.8,65.1c-0.2,0-0.3-0.1-0.5-0.2c-0.3-0.3-0.3-0.7,0-1c1.7-1.9,4.6-5,4.9-5.3c0.4-0.6,0.5-0.9,0.4-1
						c0-0.1-0.1-0.1-0.2-0.1c-0.4,0-1.9,1.1-3.2,2.4c-0.2,0.2-0.5,0.3-0.8,0.2c-0.3-0.1-0.4-0.4-0.4-0.7c0,0,0.1-5.6,0.1-6.3
						c0,0,0-1-0.8-1.1c0,0,0,0,0,0c-0.5,0-0.7,1.1-0.7,1.1c-0.1,0.4-0.4,0.6-0.8,0.6c-0.4-0.1-0.6-0.4-0.6-0.8
						c0.1-0.9,0.7-2.3,2.1-2.3c1.5,0,2.2,1.3,2.2,2.5c0,0.4-0.1,2.9-0.1,4.7c1.1-1,2.4-1.8,3.3-1.6c0.6,0.1,1,0.5,1.1,1
						c0.2,0.5,0.2,1.2-0.6,2.3c-0.4,0.5-4.5,5-5,5.5C104.2,65,104,65.1,103.8,65.1z"/>
					<path class="st5" d="M5.1,121.1c-0.3,0-0.6-0.1-0.9-0.3c-0.5-0.3-0.9-0.8-1-1.4c-0.1-0.6,0.1-1.3,0.5-1.9l3.2-5
						c0.2-0.3,0.6-0.4,1-0.2c0.3,0.2,0.4,0.6,0.2,1l-3.3,5c-0.2,0.3-0.3,0.6-0.3,0.9c0,0.2,0.1,0.3,0.3,0.4c0.5,0.3,1.1-0.5,1.2-0.6
						c0.2-0.3,0.7-0.3,1-0.1c0.3,0.2,0.3,0.7,0.1,1C6.6,120.5,5.9,121.1,5.1,121.1z"/>
					<path class="st5" d="M7.3,122.6c-0.3,0-0.6-0.1-0.9-0.2c-0.5-0.3-0.8-0.7-0.9-1.1c-0.2-0.9,0.2-1.8,0.4-2.1c0,0,0,0,0,0
						c0.4-0.6,3.2-4.8,3.3-5c0.2-0.3,0.6-0.4,1-0.2c0.3,0.2,0.4,0.6,0.2,1c0,0-2.8,4.3-3.3,4.9c0,0,0,0,0,0v0
						c-0.2,0.3-0.3,0.8-0.3,1.1c0,0.1,0.1,0.2,0.2,0.3c0.5,0.3,1.1-0.7,1.2-0.7l3.4-5.3c0.2-0.3,0.6-0.4,1-0.2
						c0.3,0.2,0.4,0.6,0.2,1l-3.3,5.2C9.1,121.7,8.3,122.6,7.3,122.6z"/>
					<path class="st5" d="M14.4,120.6c-0.1,0-0.2,0-0.3,0c-1.1-0.2-1.9-1.8-2.5-4.8c0,0,0-0.1,0-0.2c0-0.4,0.3-0.7,0.7-0.7
						c0.4,0,0.6,0.3,0.7,0.6c0.5,2.4,1.1,3.6,1.4,3.7c0.1,0,0.2,0,0.2-0.1c0.2-0.2,0.3-0.6,0.2-1.3c-0.2-1.1-0.7-5.6-0.8-6.8
						l-4.2-2.9c-2.8,0.6-7,1.5-7.4,1.7c-0.7,0.2-0.9,0.5-0.9,0.6c0,0,0.1,0.1,0.1,0.2c0.3,0.3,2.2,0.2,4-0.2
						c0.3-0.1,0.6,0.1,0.7,0.3c0.2,0.2,0.1,0.5,0,0.8c0,0-3.3,4.6-3.7,5.1c0,0-0.6,0.8,0.1,1.4c0.4,0.3,1.1-0.3,1.2-0.5
						c0.3-0.3,0.7-0.3,1,0c0.3,0.3,0.3,0.7,0,1c-0.6,0.6-1.9,1.5-3,0.6c-1.2-0.9-1.1-2.3-0.4-3.3c0.3-0.4,1.7-2.4,2.7-3.8
						c-1.4,0.2-3,0.2-3.6-0.5C0.1,111-0.1,110.5,0,110c0.1-0.5,0.5-1.1,1.8-1.6c0.6-0.2,6.6-1.5,7.8-1.8c0.2,0,0.4,0,0.5,0.1L15,110
						c0.2,0.1,0.3,0.3,0.3,0.5c0,0.1,0.7,5.9,0.8,7.1c0.1,1.1-0.1,2-0.6,2.5C15.2,120.4,14.8,120.6,14.4,120.6z"/>
					<path class="st5" d="M64.8,22.7c-0.3,0-0.6-0.2-0.7-0.6l-0.4-2.8c-0.1-0.4,0.2-0.7,0.6-0.8c0.4-0.1,0.7,0.2,0.8,0.6l0.4,2.8
						c0.1,0.4-0.2,0.7-0.6,0.8C64.9,22.6,64.9,22.7,64.8,22.7z"/>
					<path class="st5" d="M67.5,22.5c-0.4,0-0.7-0.3-0.7-0.7v-2.9c0-0.4,0.3-0.7,0.7-0.7s0.7,0.3,0.7,0.7v2.9
						C68.2,22.2,67.8,22.5,67.5,22.5z"/>
					<path class="st0" d="M56.6,184.6c-1.1,0-2-0.4-2.8-0.8c-0.7-0.3-1.3-0.6-2-0.7c-1.9-0.1-2.6,0.9-2.7,1c-0.2,0.3-0.7,0.4-1,0.2
						c-0.3-0.2-0.4-0.6-0.2-1c0-0.1,1.2-1.7,3.9-1.6c1,0.1,1.8,0.4,2.5,0.8c1.2,0.6,2.2,1.1,3.9,0.2c0.3-0.2,0.8-0.1,0.9,0.3
						c0.2,0.3,0.1,0.8-0.3,0.9C58.1,184.4,57.3,184.6,56.6,184.6z"/>
					<path class="st5" d="M22.9,170.6c-1.2,0-2.5-0.8-2.6-1c-0.3-0.2-0.4-0.6-0.2-0.9l3.2-5.7c0.2-0.3,0.6-0.5,0.9-0.3
						c0.3,0.2,0.5,0.6,0.3,0.9l-2.9,5.1c0.5,0.2,1.1,0.5,1.5,0.4c0.1,0,0.2-0.1,0.3-0.3c0.8-1.4,2.5-1.3,3.8-0.9l1-1.7
						c0.2-0.3,0.6-0.4,0.9-0.3c0.3,0.2,0.4,0.6,0.3,0.9l-1.3,2.2c-0.2,0.3-0.5,0.4-0.9,0.3c0,0-2.1-0.8-2.6,0.1
						c-0.3,0.5-0.7,0.8-1.2,0.9C23.3,170.5,23.1,170.6,22.9,170.6z"/>
					<path class="st5" d="M35.8,188.4c-0.1,0-0.2,0-0.3-0.1L13.8,176c-0.2-0.1-0.3-0.2-0.3-0.4c0-0.2,0-0.4,0.1-0.5l4.3-7.7
						c0.1-0.2,0.4-0.9,1.2-1.3c0.8-0.4,1.9-0.3,3.1,0.2c0.4,0.1,0.5,0.5,0.4,0.9c-0.1,0.4-0.5,0.5-0.9,0.4c-0.8-0.3-1.5-0.4-2-0.2
						c-0.4,0.2-0.5,0.5-0.5,0.5c0,0,0,0.1-0.1,0.1l-4,7.1l20.5,11.6l1.1-1.9c0.9-1.7,0.8-3,0.6-3.9c-0.3-1.1-1-2-2-2.5
						c-1.1-0.6-3-1.3-4.7-2c-2.1-0.8-3.4-1.3-3.9-1.7c-1.1-0.8-0.1-2.3,0.8-3.6c0.2-0.4,0.6-0.9,0.7-1.2c-0.1-0.2-0.5-0.4-0.8-0.5
						c-0.4-0.1-0.6-0.5-0.4-0.9c0.1-0.4,0.5-0.6,0.9-0.4c0.2,0.1,1.4,0.5,1.7,1.5c0.2,0.6-0.2,1.3-0.9,2.3c-0.3,0.5-0.9,1.4-1,1.8
						c0.5,0.3,2.1,0.9,3.4,1.4c1.7,0.7,3.7,1.4,4.9,2c1.3,0.7,2.3,1.9,2.7,3.3c0.5,1.6,0.2,3.4-0.7,5l-1.4,2.5
						C36.3,188.2,36.1,188.4,35.8,188.4z M28.2,170.1L28.2,170.1L28.2,170.1z"/>
					<path class="st5" d="M36.8,186.6c-0.1,0-0.2,0-0.3-0.1l-21.7-12.3c-0.3-0.2-0.5-0.6-0.3-0.9c0.2-0.3,0.6-0.5,0.9-0.3l21.7,12.3
						c0.3,0.2,0.5,0.6,0.3,0.9C37.3,186.5,37.1,186.6,36.8,186.6z"/>
					<path class="st0" d="M27.6,178C27.6,178,27.6,178,27.6,178c-2.6-0.1-3.6-1.5-4.4-2.7c-0.4-0.6-0.8-1.2-1.4-1.6
						c-1.6-1-2.7-0.5-2.8-0.5c-0.3,0.2-0.8,0-0.9-0.3c-0.2-0.3,0-0.7,0.3-0.9c0.1,0,1.9-0.9,4.1,0.5c0.8,0.5,1.3,1.2,1.8,1.9
						c0.8,1.1,1.4,2,3.3,2.1c0.4,0,0.7,0.3,0.7,0.7C28.3,177.7,27.9,178,27.6,178z"/>
				</g>
			</g>
			<g>
				<path class="st0" d="M9.9,107.4l-0.6-0.4c0,0,9-15.2,24.5-30c1.3-1.3,2.7-2.6,4.2-3.8c0,0,6.4-5.7,13.8-5.7c0,0,9,0.4,9,9.4
					c0,7.8-9.7,11.3-9.7,11.3s-8.3,2.7-17.4,8c-6.4,3.8-13.3,8.8-18,15.2l-1-0.7L9.9,107.4z"/>
				<path class="st5" d="M15.5,111.9c-0.1,0-0.3,0-0.4-0.1l-5.7-3.9c0,0,0,0,0,0l-0.6-0.4c-0.3-0.2-0.4-0.6-0.2-0.9
					c0.1-0.2,9.2-15.4,24.6-30.1c1.4-1.3,2.8-2.6,4.2-3.9c0.3-0.2,6.6-5.9,14.2-5.9c0.1,0,9.7,0.6,9.7,10c0,8.1-9.8,11.8-10.2,11.9
					c-0.1,0-8.3,2.8-17.3,8c-7.8,4.6-13.8,9.6-17.8,15C16,111.8,15.8,111.9,15.5,111.9z M10.2,106.8l5.1,3.5
					c4.1-5.3,10-10.3,17.8-14.8c9.1-5.3,17.5-8.1,17.5-8.1c0.1,0,9.3-3.4,9.3-10.6c0-8.2-8-8.6-8.3-8.7c-7,0-13.2,5.5-13.3,5.5
					c-1.4,1.2-2.8,2.5-4.2,3.8C20.6,90.4,11.9,103.9,10.2,106.8L10.2,106.8z"/>
			</g>
		</g>
	</g>
	<path class="st5" d="M55.1,14.8c-0.2,0-0.5-0.1-0.6-0.4l-2-3.7c-0.2-0.3-0.1-0.8,0.3-0.9c0.3-0.2,0.8-0.1,0.9,0.3l2,3.7
		c0.2,0.3,0.1,0.8-0.3,0.9C55.3,14.8,55.2,14.8,55.1,14.8z"/>
	<path class="st5" d="M60,14.8c-0.2,0-0.5-0.1-0.6-0.4l-2-3.7c-0.2-0.3-0.1-0.8,0.3-0.9c0.3-0.2,0.8-0.1,0.9,0.3l2,3.7
		c0.2,0.3,0.1,0.8-0.3,0.9C60.2,14.8,60.1,14.8,60,14.8z"/>
	<path class="st5" d="M64.9,14.8c-0.2,0-0.5-0.1-0.6-0.4l-2-3.7c-0.2-0.3-0.1-0.8,0.3-0.9c0.3-0.2,0.8-0.1,0.9,0.3l2,3.7
		c0.2,0.3,0.1,0.8-0.3,0.9C65.1,14.8,65,14.8,64.9,14.8z"/>
</g>
</svg>
