<?xml version="1.0" encoding="utf-8"?>
<svg version="1.1" id="the-element-jets-body-1" xmlns="http://www.w3.org/2000/svg" xmlns:xlink="http://www.w3.org/1999/xlink" x="0px"
	 y="0px" viewBox="0 0 150 104" style="enable-background:new 0 0 150 104;" xml:space="preserve">
<style type="text/css">
	.st0{fill:#F4B2B7;}
	.st1{fill:#E84572;}
	.st2{fill:#F4739B;}
	.st3{fill:#FFFFFF;}
	.st4{fill:#97D2CE;}
	.st5{fill:#FFF8EE;}
	.st6{fill:#121659;}
	.st7{fill:#231815;}
</style>
<g>
	<path class="st0" d="M83.2,15.8c0.7-5.8-2.7-14.3-10.5-15c-5.5-0.5-9.5,2-11.7,6.5c-0.5,1-0.9,2.1-1.1,3.2
		c-0.2,0.8-0.3,1.6-0.4,2.4c0,0.1,0,0.1,0,0.1l-0.1,3.2l0,0c0,0.1,0,0.1,0,0.2c0,0.6,0.1,1.3,0.2,1.9c0,0.3,0.1,0.6,0.1,0.8
		c0.1,0.9,0.3,1.9,0.5,2.8c0.1,0.5,0.2,0.9,0.3,1.4c0.2,0.6,0.3,1.3,0.5,1.9c0.2,0.7,0.4,1.3,0.6,1.9c1.3,3.7,2.6,6.5,2.6,6.5h13.6
		c0,0,2.8-7.4,4.3-13.4c0.2,0,2.7,0,3.2-1.9C86.2,15.8,83.4,15.8,83.2,15.8z"/>
	<path class="st1" d="M72.6,0.8c7.8,0.7,11.2,9.2,10.5,15l0,0c-1.6-8.6-8-8.5-8-8.5H61C63.2,2.8,67.2,0.3,72.6,0.8z"/>
	<path class="st2" d="M61.1,25.4c-0.2-0.6-0.4-1.2-0.5-1.9c0,0,2.9-0.2,3.9,0c0.7,0.1,2.8,0.6,2.7,2c-0.1,1.5-1.8,2-5.4,1.8
		C61.5,26.7,61.3,26,61.1,25.4z"/>
	<path class="st0" d="M60.2,22.1h-2.6l2.1-2.8C59.8,20.3,60,21.2,60.2,22.1z"/>
	<path class="st3" d="M66.5,10.7c-0.9-0.3-2-0.4-3.1-0.4c-1.8,0-3.5,0.2-3.5,0.2c-0.2,0.8-0.3,1.6-0.4,2.4c0,0.1,0,0.1,0,0.1
		l-0.1,3.2l0,0c0,0.1,0,0.1,0,0.2c0,0.6,0.1,1.3,0.2,1.9c0,0,1.8,0.2,3.9,0c2.2-0.1,4.8-0.6,5.7-1.9C71,14.1,69,11.4,66.5,10.7z"/>
	<path class="st4" d="M63.4,10.3c-1.8,0-3.5,0.2-3.5,0.2c-0.2,0.8-0.3,1.6-0.4,2.4c0,0.1,0,0.1,0,0.1l-0.1,3.2l0,0
		c0,0.1,0,0.1,0,0.2c0,0.6,0.1,1.3,0.2,1.9c0,0,1.8,0.2,3.9,0C65,13.5,63.4,10.3,63.4,10.3z"/>
	<polygon class="st1" points="78.5,36.5 63.1,36.5 64.3,33.8 77.9,33.7 	"/>
	<path class="st5" d="M78.5,36.5l2.3,11.1c-1.8,2.4-5.2,4.9-11.6,4.9c-5.6,0-9.1-1.9-11.3-3.9l5.2-12L78.5,36.5z"/>
	<path class="st1" d="M143.8,43.1L143.8,43.1c-0.6,0-1.1,0-1.1,0h-20.1l12.9-16.9c0,0,3.3-5.3,6.4-3.5c1.8,1,1.8,2.7,1.8,6.2
		S143.8,43.1,143.8,43.1z"/>
	<path class="st6" d="M149.2,46.1c0,0,1.3,1.9-5.6,6.2c-5.1,3.1-27.4,15-49.7,18.3c-0.9-1.5-1.6-2.7-1.9-3.2
		c-1.6-3.3-5.1-3.6-5.1-3.6s-17.5,0-20.8,0c-3.2,0-3.8,3.7-2.1,5.9c0.5,0.6,1,1.2,1.5,1.8c-9.3,0-11,0-11,0h-6.2l-0.1-28.2h6.2
		c0,0,0.8,2.8,3.5,5.3c2.2,2.1,5.8,3.9,11.3,3.9c6.4,0,9.8-2.5,11.6-4.9c1.7-2.2,2-4.4,2-4.4l39.8-0.1h20.1c0,0,0.4,0,1,0
		C145.6,43.2,149.2,43.8,149.2,46.1z"/>
	<path class="st1" d="M48.2,43.3l0.1,28.2h-16c0,0-3,0-6.4-1c1.3-3.8,2.1-8.4,2.1-13.4c0-4.8-0.8-9.3-2-13c3.5-1,6.5-0.9,6.5-0.9
		L48.2,43.3z"/>
	<path class="st1" d="M108.2,92.4c0,0-9.8-14.8-14.3-21.8c0,0,0,0,0,0C93,69.1,92.3,68,92,67.4c-1.6-3.3-5.1-3.7-5.1-3.7
		s-17.5,0-20.8,0c-3.2,0-3.8,3.7-2.1,5.9c0.5,0.6,1,1.2,1.5,1.8c0,0,0,0,0,0c1.2,1.3,2.5,2.6,3.6,4c7.5,8.1,18.9,19.8,20.3,21.4
		c1.9,2.3,7.1,8.4,15,5.6C112.7,99.4,108.2,92.4,108.2,92.4z"/>
	<path class="st7" d="M149.9,46c-0.1-1.9-2.1-3.1-5.4-3.5V28.9c0-3.6,0-5.5-2.2-6.8c-3.6-2.1-7.2,3.5-7.3,3.7l-12.7,16.6l-39.4,0.1
		c-0.3,0-0.6,0.3-0.7,0.6c0,0-0.2,1.2-1,2.7l-2.5-12c0.4-1.1,2.7-7.4,4.1-12.8c1-0.1,2.8-0.5,3.3-2.3c0.3-1,0.2-1.8-0.3-2.4
		c-0.5-0.7-1.3-1-1.9-1.1c0.2-3.8-1-8-3.4-10.9c-2-2.5-4.7-3.9-7.8-4.2c-5.5-0.5-10,2-12.3,6.9c-0.5,1-0.9,2.1-1.2,3.3l0,0l0,0
		c-0.2,0.8-0.3,1.6-0.4,2.5c0,0,0,0,0,0.1V13c-0.1,0.8-0.1,1.7-0.1,2.5c0,0.3,0,0.5,0,0.8c0,0.1,0,0.1,0,0.1v0.1
		c0,0.6,0.1,1.3,0.2,2c0,0.2,0.1,0.4,0.1,0.6l-2,2.6c-0.2,0.2-0.2,0.5-0.1,0.7c0.1,0.2,0.4,0.4,0.6,0.4l0,0h2.1
		c0.1,0.3,0.1,0.6,0.2,0.8c0.2,0.7,0.4,1.3,0.5,1.9c0.2,0.7,0.4,1.3,0.6,1.9c1,3.1,2.1,5.5,2.5,6.3l-5.9,13.5
		c-2-2.1-2.6-4.2-2.6-4.2c-0.1-0.3-0.4-0.5-0.7-0.5l0,0H48l0,0l0,0l0,0H32.2c-0.1,0-3.2-0.1-6.7,0.9c-0.4,0.1-0.6,0.5-0.5,0.9
		s0.5,0.6,0.9,0.5c3.3-0.9,6.2-0.8,6.3-0.8h15.1l0.1,26.8H32.1c0,0-2.9,0-6.2-1c-0.4-0.1-0.8,0.1-0.9,0.5s0.1,0.8,0.5,0.9
		c3.3,1,6.1,1.1,6.6,1.1h0.1l32.9-0.1c0.4,0.5,0.8,0.9,1.2,1.4c0.7,0.8,1.4,1.6,2.2,2.4c4.1,4.5,9.4,10,13.6,14.4
		c3.4,3.5,6,6.3,6.6,7c1.5,1.8,5.5,6.6,11.6,6.6c1.3,0,2.7-0.2,4.2-0.8c2.7-1,4.5-2.5,5.2-4.5c1.1-3.2-0.9-6.4-1-6.5
		s-9.1-13.8-13.7-21c25.1-4,48.6-18.1,48.9-18.2c3.6-2.2,5.6-4.2,6-5.8C150.1,46.6,150,46.2,149.9,46z M136.1,26.6
		c0,0,3-4.7,5.5-3.2c1.4,0.8,1.5,2,1.5,5.6v13.5c-0.2,0-0.4,0-0.4,0H124L136.1,26.6z M64.7,34.5h12.6l0.3,1.4H64.1L64.7,34.5z
		 M63.5,37.2h14.4L80,47.4c-2.3,2.9-6,4.4-10.9,4.4c0,0,0,0-0.1,0c-4.3,0-7.8-1.2-10.4-3.4L63.5,37.2z M77.4,33H64.7
		c-0.4-0.8-1.2-2.6-2-5c0.1,0,0.2,0,0.3,0c2.5,0,4.7-0.4,4.8-2.5c0.1-1.4-1-2.3-3.3-2.7c-0.8-0.2-2.5-0.1-3.5,0
		c-0.1-0.2-0.1-0.4-0.2-0.7V22c-0.2-0.9-0.4-1.8-0.5-2.7c0.4,0,0.8,0,1.3,0s1.2,0,1.8-0.1c3.2-0.2,5.3-0.9,6.2-2.2
		c0.8-1.1,1.1-2.5,0.7-3.7c-0.5-1.5-1.9-2.8-3.6-3.3c-0.9-0.3-2-0.4-3.3-0.4c-1,0-1.9,0-2.5,0.1C61,9.1,61.3,8.5,61.5,8h13.6
		c0.3,0,5.8,0.1,7.3,7.9c-0.1,1.1-0.4,2.5-0.9,4.3C80.3,25.2,78.1,31.4,77.4,33z M62.9,11c0.3,0.9,0.9,3.4,0,6.8c-1.1,0-2.1,0-2.7,0
		c0-0.4-0.1-0.9-0.1-1.3l0,0c0.8-0.2,2-0.6,2-2c-0.1-1.3-1.1-1.6-1.9-1.6c0.1-0.6,0.2-1.2,0.3-1.8C61,11.1,61.9,11,62.9,11z
		 M64.4,11c0.7,0.1,1.4,0.2,1.9,0.3c1.3,0.4,2.3,1.3,2.7,2.4c0.3,0.8,0.1,1.7-0.5,2.4c-0.6,0.8-2,1.3-4.2,1.5
		C65.1,14.7,64.8,12.3,64.4,11z M62.2,26.6c-0.1-0.2-0.1-0.4-0.2-0.5h2.7c0.4,0,0.7-0.3,0.7-0.7c0-0.4-0.3-0.7-0.7-0.7l0,0h-3.1
		c-0.1-0.2-0.1-0.4-0.2-0.5c1,0,2.3-0.1,2.8,0c1.4,0.3,2.2,0.7,2.1,1.3C66.4,25.8,66.3,26.7,62.2,26.6z M84.7,17
		c0.2,0.3,0.2,0.7,0.1,1.2c-0.2,0.8-1,1.1-1.6,1.2c0.3-1.1,0.5-2.1,0.6-3C84.1,16.6,84.5,16.8,84.7,17z M72.6,1.5
		c2.7,0.2,5.1,1.5,6.9,3.7c1.3,1.6,2.3,3.7,2.8,5.9c-2.7-4.5-7-4.5-7.1-4.5H62.3C64.4,2.9,68,1.1,72.6,1.5z M59.2,21.1
		c0,0.1,0.1,0.3,0.1,0.4h-0.4L59.2,21.1z M108.4,98.3c-0.5,1.6-2,2.8-4.3,3.6c-7.5,2.7-12.4-3.2-14.3-5.4c-0.6-0.7-3.2-3.4-6.7-7.1
		c-4.2-4.4-9.5-9.9-13.6-14.3c-0.7-0.8-1.4-1.7-2.2-2.5c-0.5-0.5-1-1-1.4-1.6l0,0c-0.5-0.6-1-1.2-1.5-1.8c-0.8-1-1-2.5-0.5-3.6
		c0.4-0.8,1.1-1.2,2.1-1.2l20.7-0.1c0.1,0,3.2,0.3,4.6,3.2c0.3,0.6,0.9,1.7,1.9,3.3c4.3,7,14.1,21.8,14.2,21.9
		C107.6,93,109.3,95.7,108.4,98.3z M143.2,51.7C143,51.8,119.4,66,94.3,69.8c-1-1.7-1.4-2.4-1.6-2.8c-1.7-3.6-5.6-4-5.8-4H66.1
		c-1.5,0-2.7,0.7-3.3,2c-0.7,1.5-0.5,3.6,0.7,5c0.2,0.2,0.4,0.4,0.5,0.7H49L48.9,44h5c0.4,1,1.3,3.1,3.5,5.1l0,0l0,0
		c2.9,2.7,6.9,4.1,11.8,4.1c0,0,0,0,0.1,0c6.8,0,10.4-2.8,12.2-5.2c1.3-1.6,1.8-3.3,2-4.1l39.2-0.1l0,0l0,0h20.1c0,0,0.4,0,1,0
		c1.1,0.1,4.8,0.5,4.8,2.3c0,0.1,0,0.2,0.1,0.3C148.6,46.5,149,48.1,143.2,51.7z"/>
</g>
</svg>
