<?xml version="1.0" encoding="utf-8"?>
<svg version="1.1" id="the-curtain-right-1" xmlns="http://www.w3.org/2000/svg" xmlns:xlink="http://www.w3.org/1999/xlink"
	 x="0px" y="0px" viewBox="0 0 581 450" style="enable-background:new 0 0 581 450;" xml:space="preserve">
<style type="text/css">
	.st0{fill:#E84572;}
	.st1{fill:#121659;}
</style>
<g>
	<path class="st0" d="M374.3,257.1c-0.2-0.4-0.3-0.8-0.5-1.2c-1.6-4.1-3.2-8-4.6-11.7c0-0.1-0.1-0.2-0.1-0.3l-9.1-1.1v-6l-6.4-1.1
		v6.5c-4.4-0.3-4.4-0.6-15.6-1.6v-6.9l-6.4-1v7c-4.1-0.5-19.9-1.4-19.9-1.4v-7.1l-7.4-0.6v7.5c-4.1-0.6-13.7-0.6-13.7-0.6l0,0v59
		c0,0,2.4,98.3,7.5,124.8c0,0,55.8,5.4,86.5-5.4C384.5,415.9,369.7,299.8,374.3,257.1z"/>
	<path class="st1" d="M308.9,408.3c-0.1,0-0.1,0-0.2,0c-0.3,0-0.6-0.2-0.7-0.5c-4.9-14.7-5.6-49-5.6-50.4c0-0.4,0.3-0.7,0.7-0.7
		c0.4,0,0.7,0.3,0.7,0.7c0,0.4,0.7,35.5,5.5,50C309.5,407.8,309.3,408.2,308.9,408.3z"/>
	<path class="st1" d="M318.5,395.5c-0.1,0-0.2,0.1-0.3,0.1c-0.3,0-0.5-0.2-0.6-0.4c-3.6-8.6-4.1-17.2-4.1-17.5
		c0-0.4,0.3-0.7,0.7-0.7c0.4,0,0.7,0.3,0.7,0.7c0,0.1,0.6,8.7,4,17.1C319.1,394.9,318.9,395.4,318.5,395.5z"/>
</g>
</svg>
