<?xml version="1.0" encoding="utf-8"?>
<svg version="1.1" id="the-ikastore-building-foot-1" xmlns="http://www.w3.org/2000/svg" xmlns:xlink="http://www.w3.org/1999/xlink" x="0px"
	 y="0px" viewBox="0 0 280 88" style="enable-background:new 0 0 280 88;" xml:space="preserve">
<style type="text/css">
	.st0{fill:#F0785F;}
	.st1{fill:#FFFFFF;}
	.st2{fill:#96D2CD;}
	.st3{fill:#231815;}
</style>
<g>
	<path class="st0" d="M254,17.7c0,0,29.8,8.1,24.8,31.6s-43.8,13.8-43.8,13.8s-65.6-16.5-76-18.2c-45.9-10.3-64.3,20.4-99.3,37
		c-13.1,6.2-24.3,6.4-33.3,3.8C9.9,81.1,0.7,68.2,0.7,66c0-3.4,3.2-2.5,3.2-2.5c46.4,9.6,59-33.9,106.9-54.6
		c26.6-11.5,61.1-7.6,61.1-7.6S216.5,7.5,254,17.7z"/>
	<path class="st1" d="M119.2,22.2c0,5,4.1,9,9.1,8.9s9-4.1,8.9-9.1c0-5-4.1-9-9.1-8.9C123.2,13.1,119.2,17.2,119.2,22.2z"/>
	<path class="st2" d="M128.2,16.2c3.3,0,5.9,2.6,6,5.9c0,3.3-2.6,5.9-5.9,6c-3.3,0-5.9-2.6-6-5.9C122.3,18.9,124.9,16.2,128.2,16.2z
		"/>
	<path class="st1" d="M91.2,35.7c0,5,4.1,9,9.1,8.9c5,0,9-4.1,8.9-9.1s-4.1-9-9.1-8.9C95.2,26.6,91.2,30.7,91.2,35.7z"/>
	<path class="st2" d="M100.2,29.7c3.3,0,5.9,2.6,6,5.9c0,3.3-2.6,5.9-5.9,6c-3.3,0-5.9-2.6-6-5.9C94.3,32.4,96.9,29.7,100.2,29.7z"
		/>
	<path class="st1" d="M65.3,53.9c0,5,4.1,9,9.1,8.9c5,0,9-4.1,8.9-9.1s-4.1-9-9.1-8.9C69.2,44.9,65.2,48.9,65.3,53.9z"/>
	<path class="st2" d="M74.2,47.9c3.3,0,5.9,2.6,6,5.9c0,3.3-2.6,5.9-5.9,6c-3.3,0-5.9-2.6-6-5.9C68.3,50.6,70.9,47.9,74.2,47.9z"/>
	<g>
		<path class="st3" d="M254.1,17C217.1,6.9,172.4,0.7,171.9,0.6c-0.3,0-35-3.8-61.5,7.6c-19,8.2-32.6,20-44.6,30.5
			c-18.3,16-34.1,29.8-61.9,24c-0.1,0-1.7-0.4-2.9,0.5C0.4,63.8,0,64.7,0,66c0,2.8,9.6,15.8,26.1,20.4c3.7,1.1,7.6,1.6,11.5,1.6
			c7.2,0,14.7-1.8,22.4-5.4c10.5-5,19.5-11.2,28.2-17.2c19.9-13.8,38.7-26.9,70.7-19.7c10.2,1.7,75.3,18,75.9,18.2
			c0.1,0,5.9,1.5,13.2,1.9c9.9,0.6,17.7-0.9,23.1-4.3c4.4-2.7,7.2-6.8,8.3-12C284.5,25.6,254.4,17.1,254.1,17z M278,49.2
			c-1,4.8-3.6,8.5-7.7,11.1c-12.5,7.8-35,2.3-35.3,2.2c-0.7-0.2-65.8-16.5-76-18.2c-32.5-7.3-51.6,5.9-71.8,19.9
			c-8.6,6-17.6,12.2-28,17.1c-11.4,5.4-22.5,6.7-32.9,3.8C10.5,80.6,1.4,67.9,1.4,66c0-0.8,0.2-1.3,0.6-1.6C2.3,64.1,2.7,64,3,64
			c0.3,0,0.5,0,0.7,0.1C32.2,70,48.3,56,66.9,39.8C78.8,29.4,92.3,17.6,111,9.5C137.2-1.8,171.4,2,171.8,2c0.5,0.1,45,6.3,82,16.4
			c0.1,0,7.4,2.1,14.1,6.9C276.6,31.7,280.1,39.7,278,49.2z"/>
		<path class="st3" d="M128.2,15.5c-3.6,0-6.6,3-6.5,6.7c0,1.8,0.7,3.4,2,4.7c1.2,1.2,2.9,1.9,4.6,1.9c0,0,0,0,0.1,0
			c1.8,0,3.4-0.7,4.7-2c1.2-1.3,1.9-2.9,1.9-4.7c0-1.8-0.7-3.4-2-4.7C131.6,16.1,129.9,15.5,128.2,15.5z M131.9,25.7
			c-1,1-2.3,1.5-3.7,1.6c0,0,0,0,0,0c-2.9,0-5.2-2.3-5.2-5.2c0-2.9,2.3-5.2,5.2-5.3c0,0,0,0,0,0c1.4,0,2.7,0.5,3.6,1.5
			c1,1,1.5,2.3,1.6,3.7C133.4,23.4,132.9,24.8,131.9,25.7z"/>
		<path class="st3" d="M128.2,12.4C128.2,12.4,128.2,12.4,128.2,12.4c-5.4,0-9.7,4.4-9.7,9.8c0,5.3,4.4,9.6,9.7,9.6c0,0,0.1,0,0.1,0
			c5.3,0,9.7-4.4,9.6-9.8C137.9,16.7,133.5,12.4,128.2,12.4z M128.3,30.4c-2.3,0-4.3-0.8-5.9-2.4c-1.6-1.6-2.5-3.6-2.5-5.8
			c0-4.6,3.6-8.3,8.2-8.4c0,0,0.1,0,0.1,0c2.2,0,4.2,0.8,5.8,2.4c1.6,1.6,2.5,3.6,2.5,5.9C136.6,26.6,132.9,30.4,128.3,30.4z"/>
		<path class="st3" d="M100.2,29c-1.8,0-3.4,0.7-4.7,2c-1.2,1.3-1.9,2.9-1.9,4.7c0,3.6,3,6.5,6.6,6.5c0,0,0,0,0.1,0
			c1.8,0,3.4-0.7,4.7-2s1.9-2.9,1.9-4.7C106.8,31.9,103.7,29,100.2,29z M103.9,39.2c-1,1-2.3,1.5-3.7,1.6c0,0,0,0,0,0
			c-2.9,0-5.2-2.3-5.2-5.2c0-1.4,0.5-2.7,1.5-3.7c1-1,2.3-1.5,3.7-1.6c0,0,0,0,0,0c2.9,0,5.2,2.3,5.2,5.2
			C105.4,36.9,104.9,38.2,103.9,39.2z"/>
		<path class="st3" d="M100.1,25.9c-2.6,0-5,1.1-6.8,2.9c-1.8,1.9-2.8,4.3-2.8,6.9c0,2.6,1.1,5,2.9,6.8c1.8,1.8,4.2,2.8,6.8,2.8
			c0,0,0.1,0,0.1,0c5.3,0,9.7-4.4,9.6-9.8c0-2.6-1.1-5-2.9-6.8C105.2,26.8,102.7,25.8,100.1,25.9z M100.3,43.9
			c-2.2,0-4.3-0.8-5.9-2.4c-1.6-1.6-2.5-3.6-2.5-5.8c0-2.2,0.8-4.3,2.4-5.9c1.6-1.6,3.6-2.5,5.8-2.5c0,0,0.1,0,0.1,0
			c2.2,0,4.2,0.8,5.8,2.4c1.6,1.6,2.5,3.6,2.5,5.9C108.6,40.1,104.9,43.8,100.3,43.9z"/>
		<path class="st3" d="M74.2,47.2c-3.6,0-6.6,3-6.5,6.7c0,1.8,0.7,3.4,2,4.7c1.2,1.2,2.9,1.9,4.6,1.9c0,0,0,0,0.1,0
			c1.8,0,3.4-0.7,4.7-2c1.2-1.3,1.9-2.9,1.9-4.7c0-1.8-0.7-3.4-2-4.7C77.6,47.9,76,47.2,74.2,47.2z M78,57.5c-1,1-2.3,1.5-3.7,1.6
			c-1.4,0-2.7-0.5-3.7-1.5c-1-1-1.5-2.3-1.6-3.7c0-2.9,2.3-5.2,5.2-5.3c0,0,0,0,0,0c1.4,0,2.7,0.5,3.6,1.5c1,1,1.5,2.3,1.6,3.7
			C79.5,55.2,79,56.5,78,57.5z"/>
		<path class="st3" d="M74.3,44.1C74.2,44.1,74.2,44.1,74.3,44.1c-5.4,0-9.7,4.4-9.7,9.8c0,2.6,1.1,5,2.9,6.8
			c1.8,1.8,4.2,2.8,6.8,2.8c0,0,0.1,0,0.1,0c5.3,0,9.7-4.4,9.6-9.8C83.9,48.4,79.6,44.1,74.3,44.1z M74.3,62.1
			c-2.2,0-4.3-0.8-5.9-2.4c-1.6-1.6-2.5-3.6-2.5-5.8c0-4.6,3.6-8.3,8.2-8.4c0,0,0,0,0.1,0c4.5,0,8.3,3.7,8.3,8.2
			C82.6,58.3,78.9,62.1,74.3,62.1z"/>
	</g>
</g>
</svg>
