<?xml version="1.0" encoding="utf-8"?>
<svg version="1.1" id="the-element-jets-propeller-2" xmlns="http://www.w3.org/2000/svg" xmlns:xlink="http://www.w3.org/1999/xlink" x="0px"
	 y="0px" viewBox="0 0 26 48" style="enable-background:new 0 0 26 48;" xml:space="preserve">
<style type="text/css">
	.st0{fill:#FFF8EE;}
	.st1{fill:#231815;}
</style>
<g>
	<path class="st0" d="M0.8,26C1.3,38,6.6,47.3,13.1,47.3c4.2,0,7.9-4.1,10.1-10.2c1.3-3.7,2.1-8.3,2.1-13.1c0-4.7-0.8-9.1-2-12.8
		C21,4.9,17.2,0.7,12.9,0.7C6.5,0.7,1.3,10.1,0.7,22C0.7,22,0.7,24.5,0.8,26z"/>
	<g>
		<path class="st1" d="M23.9,11C21.5,4.1,17.4,0,13,0c0,0,0,0,0,0C6.1,0,0.6,9.5,0,22c0,0.1-0.1,2.3,0,4.1C0.6,38.6,6.2,48,13,48
			c0,0,0,0,0,0c4.4,0,8.4-4,10.8-10.7c1.4-4,2.2-8.6,2.1-13.4C26,19.3,25.3,14.8,23.9,11z M22.5,36.9c-2.2,6.1-5.7,9.7-9.5,9.7
			c0,0,0,0,0,0c-6,0-11-9-11.6-20.6c0,0,0,0,0,0c-0.1-1.7,0-3.9,0-4C1.9,10.5,7,1.4,12.9,1.4c0,0,0,0,0,0c3.8,0,7.4,3.8,9.6,10
			c1.3,3.7,2,8.1,2,12.5C24.6,28.6,23.9,33.1,22.5,36.9z"/>
		<path class="st1" d="M5.1,19.1c0,0,0.1,0,0.1,0c0.3,0,0.6-0.2,0.7-0.6c1-5.5,3.3-8.3,3.3-8.4c0.6-0.7,1.2-1.3,1.8-1.7
			c0.3-0.2,0.4-0.6,0.2-1c-0.2-0.3-0.6-0.4-1-0.2c-0.8,0.5-1.5,1.1-2.2,2c-0.1,0.1-2.5,3.2-3.6,9C4.4,18.6,4.7,19,5.1,19.1z"/>
		<path class="st1" d="M20.3,16.4c0.4-0.1,0.6-0.5,0.5-0.9c-0.9-3.3-2.1-5.1-2.1-5.1c-1.2-1.8-2.6-3.1-4.1-3.6
			c-0.4-0.1-0.8,0.1-0.9,0.4c-0.1,0.4,0.1,0.8,0.4,0.9c1.2,0.4,2.3,1.5,3.3,3c0,0,1.1,1.7,2,4.8c0.1,0.3,0.4,0.5,0.7,0.5
			C20.2,16.4,20.3,16.4,20.3,16.4z"/>
		<path class="st1" d="M21.3,22.3c-0.4,0-0.7,0.3-0.7,0.7c0,0.3,0,0.6,0,0.9c0.1,2.5-0.2,5-0.7,7.4c-0.1,0.4,0.2,0.8,0.5,0.8
			c0.1,0,0.1,0,0.2,0c0.3,0,0.6-0.2,0.7-0.5c0.5-2.4,0.8-5.1,0.8-7.7c0-0.3,0-0.6,0-0.9C22,22.6,21.6,22.3,21.3,22.3z"/>
		<path class="st1" d="M19.2,35.9c-0.4-0.2-0.8,0-0.9,0.3c-1.4,2.8-3.2,4.4-4.9,4.4c-3.7,0-6.8-4.9-7.7-12.1c0-0.4-0.4-0.6-0.8-0.6
			c-0.4,0-0.7,0.4-0.6,0.8c1,8.1,4.6,13.3,9.1,13.3c2.3,0,4.5-1.9,6.2-5.2C19.7,36.5,19.5,36,19.2,35.9z"/>
		<path class="st1" d="M9.1,16.1c-0.5,1.3-0.9,3-1,4.8c0,0.4,0.2,0.7,0.6,0.8c0,0,0,0,0.1,0c0.4,0,0.7-0.3,0.7-0.6
			c0.2-1.7,0.5-3.2,1-4.5c0.9-2.7,2.3-2.9,2.3-2.9c0,0,0,0,0,0c0.7,0,1.5,0.8,2.1,2.3c0.3,0.7,0.6,1.6,0.8,2.5
			c0.1,0.4,0.5,0.6,0.8,0.5c0.4-0.1,0.6-0.5,0.5-0.8c-0.2-1-0.5-2-0.9-2.8c-1.1-2.6-2.5-3.1-3.4-3.1c0,0,0,0,0,0
			C12.7,12.3,10.3,12.5,9.1,16.1z"/>
		<path class="st1" d="M16.3,24c0,2.2-0.3,4.6-1,6.8c-0.2,0.9-1,3.5-2.5,3.5c0,0,0,0,0,0c-1,0-2.3-1.8-3.1-5.6
			c-0.1-0.6-0.2-1.2-0.3-1.8c0-0.4-0.4-0.7-0.8-0.6c-0.4,0-0.7,0.4-0.6,0.8c0.1,0.6,0.2,1.3,0.3,1.9c0.8,4.2,2.5,6.8,4.4,6.8
			c0,0,0,0,0,0c2.5,0,3.5-3.3,3.8-4.5c0.7-2.3,1-4.8,1-7.2c0-0.4-0.3-0.7-0.7-0.7h0C16.6,23.3,16.3,23.6,16.3,24z"/>
	</g>
</g>
</svg>
