<?xml version="1.0" encoding="utf-8"?>
<svg version="1.1" id="the-element-skytree-1" xmlns="http://www.w3.org/2000/svg" xmlns:xlink="http://www.w3.org/1999/xlink" x="0px"
	 y="0px" viewBox="0 0 78 535" style="enable-background:new 0 0 78 535;" xml:space="preserve">
<style type="text/css">
	.st0{fill:#FFF8EE;}
	.st1{fill:#E84572;}
	.st2{fill:#121659;}
	.st3{fill:#231815;}
</style>
<g>
	<g>
		<polygon class="st0" points="23.8,157.1 23.1,164.4 25,164.4 30.4,164.4 39,164.4 47.6,164.4 53,164.4 54.9,164.4 54.2,157.1 
			53,157.1 47.6,157.1 39,157.1 30.4,157.1 25,157.1 		"/>
		<polygon class="st0" points="65.1,508.8 64.7,496.1 64.2,483.3 63.7,470.6 63.2,457.9 62.7,445.2 62.2,432.5 61.8,419.8 
			61.3,407.1 60.8,394.4 60.3,381.7 59.8,369 59.4,356.3 58.9,343.6 58.4,330.9 57.9,318.2 57.4,305.5 56.9,292.8 56.5,280.1 
			56,267.4 55.5,254.7 55,241.9 49.8,241.9 50,254.7 50.3,267.4 50.6,280.1 50.8,292.8 51.1,305.5 51.4,318.2 51.7,330.9 
			51.9,343.6 52.2,356.3 52.5,369 52.7,381.7 53,394.4 53.3,407.1 53.5,419.8 53.8,432.5 54.1,445.2 54.4,457.9 54.6,470.6 
			54.9,483.3 55.2,496.1 55.4,508.8 55.7,521.5 56,534.3 66.1,534.3 65.6,521.5 		"/>
		<polygon class="st0" points="60.8,221.9 60.5,221.8 17.5,221.8 17.2,221.9 18.7,227 59.3,227 		"/>
		<polygon class="st0" points="21.2,195.4 56.8,195.4 56.8,185.9 53,185.9 47.6,185.9 39,185.9 30.4,185.9 25,185.9 21.2,185.9 		
			"/>
		<polygon class="st0" points="25,138.6 53,138.6 56.5,120.4 57.4,115.4 53,115.4 25,115.4 20.6,115.4 21.5,120.4 		"/>
		<polygon class="st0" points="47.3,508.8 47.2,496.1 47,483.3 46.9,470.6 46.8,457.9 46.7,445.2 46.5,432.5 46.4,419.8 46.2,407.1 
			46.1,394.4 46,381.7 45.8,369 45.7,356.3 45.6,343.6 45.4,330.9 45.3,318.2 45.2,305.5 45,292.8 44.9,280.1 44.8,267.4 
			44.6,254.7 44.5,241.9 39,241.9 39,254.7 39,267.4 39,280.1 39,292.8 39,305.5 39,318.2 39,330.9 39,343.6 39,356.3 39,369 
			39,381.7 39,394.4 39,407.1 39,419.8 39,432.5 39,445.2 39,457.9 39,470.6 39,483.3 39,496.1 39,508.8 39,521.5 39,534.3 
			47.6,534.3 47.5,521.5 		"/>
		<polygon class="st0" points="42.6,82.7 42.6,53.2 35.4,53.2 35.4,82.7 38.9,82.7 		"/>
		<rect x="35.4" y="37.4" class="st0" width="7.3" height="7.9"/>
		<rect x="35.4" y="20.2" class="st0" width="7.3" height="9.2"/>
		<polygon class="st0" points="39,149.8 47.6,149.8 53,149.8 53,143.4 47.6,143.4 39,143.4 30.4,143.4 25,143.4 25,149.8 
			30.4,149.8 		"/>
		<polygon class="st0" points="38.9,110.6 44.7,110.6 50.1,110.6 50.1,104.7 44.7,104.7 38.9,104.7 33.1,104.7 27.9,104.7 
			27.9,110.6 33.1,110.6 		"/>
		<polygon class="st0" points="38.9,97.2 44.7,97.2 50.1,97.2 50.1,89.7 44.7,89.7 38.9,89.7 33.1,89.7 27.9,89.7 27.9,97.2 
			33.1,97.2 		"/>
		<polygon class="st0" points="28,254.7 27.7,267.4 27.4,280.1 27.2,292.8 26.9,305.5 26.6,318.2 26.3,330.9 26.1,343.6 25.8,356.3 
			25.5,369 25.3,381.7 25,394.4 24.7,407.1 24.5,419.8 24.2,432.5 23.9,445.2 23.6,457.9 23.4,470.6 23.1,483.3 22.8,496.1 
			22.6,508.8 22.3,521.5 22,534.3 30.4,534.3 30.5,521.5 30.7,508.8 30.8,496.1 31,483.3 31.1,470.6 31.2,457.9 31.3,445.2 
			31.5,432.5 31.6,419.8 31.7,407.1 31.9,394.4 32,381.7 32.2,369 32.3,356.3 32.4,343.6 32.6,330.9 32.7,318.2 32.8,305.5 
			33,292.8 33.1,280.1 33.2,267.4 33.4,254.7 33.5,241.9 28.2,241.9 		"/>
		<polygon class="st0" points="21.8,179.1 25,179.1 30.4,179.1 39,179.1 47.6,179.1 53,179.1 56,179.1 56.2,179.1 55.5,171.7 
			53,171.7 47.6,171.7 39,171.7 30.4,171.7 25,171.7 22.5,171.7 		"/>
		<path class="st0" d="M14.7,213.5l1.1,3.8l0.5-0.2h45.3l0.5,0.2l1.1-3.8H56v-8.7h9.9h0l1.9-6.2H10.2l1.9,6.2L14.7,213.5z
			 M47.6,204.8v8.7H39v-8.7H47.6z M30.4,204.8v8.7H22v-8.7H30.4z"/>
		<polygon class="st0" points="22.5,254.7 23,241.9 18.7,241.9 18.7,227 17.1,254.7 16.4,267.4 15.6,280.1 14.9,292.8 14.1,305.5 
			13.4,318.2 12.6,330.9 11.9,343.6 11.2,356.3 10.4,369 9.7,381.7 8.9,394.4 8.2,407.1 7.4,419.8 6.7,432.5 5.9,445.2 5.2,457.9 
			4.4,470.6 3.7,483.3 2.9,496.1 2.2,508.8 1.5,521.5 0.7,534.3 11.9,534.3 12.4,521.5 12.9,508.8 13.3,496.1 13.8,483.3 
			14.3,470.6 14.8,457.9 15.3,445.2 15.8,432.5 16.2,419.8 16.7,407.1 17.2,394.4 17.7,381.7 18.2,369 18.6,356.3 19.1,343.6 
			19.6,330.9 20.1,318.2 20.6,305.5 21.1,292.8 21.5,280.1 22,267.4 		"/>
	</g>
	<polygon class="st1" points="46.8,0.7 45.8,20.2 42.6,20.2 35.4,20.2 32.2,20.2 31.2,0.7 	"/>
	<g>
		<polygon class="st2" points="76.5,521.5 75.8,508.8 75.8,508.8 75.1,496.1 74.3,483.3 73.6,470.6 72.8,457.9 72.1,445.2 
			71.3,432.5 70.6,419.8 69.8,407.1 69.1,394.4 68.3,381.7 67.6,369 66.9,356.3 66.8,356.3 66.1,343.6 65.4,330.9 64.6,318.2 
			63.9,305.5 63.1,292.8 62.4,280.1 61.6,267.4 60.9,254.7 59.3,227 18.7,227 18.7,241.9 23,241.9 22.5,254.7 22,267.4 21.5,280.1 
			21.1,292.8 20.6,305.5 20.1,318.2 19.6,330.9 19.1,343.6 18.6,356.3 18.2,369 17.7,381.7 17.2,394.4 16.7,407.1 16.2,419.8 
			15.8,432.5 15.3,445.2 14.8,457.9 14.3,470.6 13.8,483.3 13.3,496.1 12.9,508.8 12.4,521.5 11.9,534.3 22,534.3 22.3,521.5 
			22.6,508.8 22.8,496.1 23.1,483.3 23.4,470.6 23.6,457.9 23.9,445.2 24.2,432.5 24.5,419.8 24.7,407.1 25,394.4 25.3,381.7 
			25.5,369 25.8,356.3 26.1,343.6 26.3,330.9 26.6,318.2 26.9,305.5 27.2,292.8 27.4,280.1 27.7,267.4 28,254.7 28.2,241.9 
			33.5,241.9 33.4,254.7 33.2,267.4 33.1,280.1 33,292.8 32.8,305.5 32.7,318.2 32.6,330.9 32.4,343.6 32.3,356.3 32.2,369 
			32,381.7 31.9,394.4 31.7,407.1 31.6,419.8 31.5,432.5 31.3,445.2 31.2,457.9 31.1,470.6 31,483.3 30.8,496.1 30.7,508.8 
			30.5,521.5 30.4,534.3 39,534.3 39,521.5 39,508.8 39,496.1 39,483.3 39,470.6 39,457.9 39,445.2 39,432.5 39,419.8 39,407.1 
			39,394.4 39,381.7 39,369 39,356.3 39,343.6 39,330.9 39,318.2 39,305.5 39,292.8 39,280.1 39,267.4 39,254.7 39,241.9 
			44.5,241.9 44.6,254.7 44.8,267.4 44.9,280.1 45,292.8 45.2,305.5 45.3,318.2 45.4,330.9 45.6,343.6 45.7,356.3 45.8,369 
			46,381.7 46.1,394.4 46.2,407.1 46.4,419.8 46.5,432.5 46.7,445.2 46.8,457.9 46.9,470.6 47,483.3 47.2,496.1 47.3,508.8 
			47.5,521.5 47.6,534.3 56,534.3 55.7,521.5 55.4,508.8 55.2,496.1 54.9,483.3 54.6,470.6 54.4,457.9 54.1,445.2 53.8,432.5 
			53.5,419.8 53.3,407.1 53,394.4 52.7,381.7 52.5,369 52.2,356.3 51.9,343.6 51.7,330.9 51.4,318.2 51.1,305.5 50.8,292.8 
			50.6,280.1 50.3,267.4 50,254.7 49.8,241.9 55,241.9 55.5,254.7 56,267.4 56.5,280.1 56.9,292.8 57.4,305.5 57.9,318.2 
			58.4,330.9 58.9,343.6 59.4,356.3 59.8,369 60.3,381.7 60.8,394.4 61.3,407.1 61.8,419.8 62.2,432.5 62.7,445.2 63.2,457.9 
			63.7,470.6 64.2,483.3 64.7,496.1 65.1,508.8 65.6,521.5 66.1,534.3 77.3,534.3 		"/>
		<polygon class="st2" points="68.7,195.4 56.8,195.4 21.2,195.4 9.3,195.4 10.2,198.6 67.8,198.6 		"/>
		<polygon class="st2" points="65.9,204.8 56,204.8 56,213.5 63.3,213.5 		"/>
		<polygon class="st2" points="15.8,217.3 17.2,221.9 17.5,221.8 60.5,221.8 60.8,221.9 62.2,217.3 61.6,217.1 16.4,217.1 		"/>
		<polygon class="st2" points="53,110.6 50.1,110.6 44.7,110.6 38.9,110.6 33.1,110.6 27.9,110.6 25,110.6 25,115.4 53,115.4 		"/>
		<rect x="39" y="204.8" class="st2" width="8.6" height="8.7"/>
		<rect x="35.4" y="45.3" class="st2" width="7.3" height="7.9"/>
		<rect x="35.4" y="29.5" class="st2" width="7.3" height="7.9"/>
		<polygon class="st2" points="39,157.1 47.6,157.1 53,157.1 53,149.8 47.6,149.8 39,149.8 30.4,149.8 25,149.8 25,157.1 
			30.4,157.1 		"/>
		<polygon class="st2" points="38.9,104.7 44.7,104.7 50.1,104.7 50.1,97.2 44.7,97.2 38.9,97.2 33.1,97.2 27.9,97.2 27.9,104.7 
			33.1,104.7 		"/>
		<polygon class="st2" points="38.9,89.7 44.7,89.7 50.1,89.7 50.1,82.7 44.7,82.7 42.6,82.7 38.9,82.7 35.4,82.7 33.1,82.7 
			27.9,82.7 27.9,89.7 33.1,89.7 		"/>
		<rect x="22" y="204.8" class="st2" width="8.4" height="8.7"/>
		<polygon class="st2" points="21.2,185.9 25,185.9 30.4,185.9 39,185.9 47.6,185.9 53,185.9 56.8,185.9 56.2,179.1 56,179.1 
			53,179.1 47.6,179.1 39,179.1 30.4,179.1 25,179.1 21.8,179.1 		"/>
		<polygon class="st2" points="23.1,164.4 22.5,171.7 25,171.7 30.4,171.7 39,171.7 47.6,171.7 53,171.7 55.5,171.7 54.9,164.4 
			53,164.4 47.6,164.4 39,164.4 30.4,164.4 25,164.4 		"/>
		<path class="st2" d="M24.7,138.9l0.3-0.1v4.6h5.4H39h8.6H53v-4.8H26.2l30.6-6.7c1.9-0.4,3.1-2.2,2.6-3.9c-0.5-1.7-2.4-2.8-4.4-2.4
			l-32.1,7.1c-1.9,0.4-3.1,2.2-2.6,3.9C20.8,138.3,22.8,139.3,24.7,138.9z"/>
	</g>
	<path class="st3" d="M76.5,508.7C76.5,508.7,76.5,508.7,76.5,508.7l-0.8-12.6c0,0,0,0,0,0c0,0,0,0,0,0L75,483.4c0,0,0,0,0,0
		c0,0,0,0,0,0l-1.5-25.2c0-0.1,0-0.1,0-0.2c0-0.1,0-0.2-0.1-0.2l-0.7-12.5c0,0,0,0,0,0c0,0,0,0,0,0l-2.2-38.1c0,0,0,0,0,0
		c0,0,0,0,0-0.1l-1.5-25.3c0,0,0,0,0-0.1c0,0,0-0.1,0-0.1l-1.5-25.4c0,0,0,0,0,0l-0.7-12.6c0,0,0,0,0,0c0,0,0,0,0,0l-0.7-12.7
		c0,0,0,0,0,0c0,0,0,0,0,0l-1.5-25.4c0,0,0,0,0,0c0,0,0,0,0,0l-0.7-12.7c0,0,0,0,0,0c0,0,0,0,0,0l-0.7-12.7c0,0,0,0,0,0c0,0,0,0,0,0
		l-3.1-53l6.6-22.1c0,0,0,0,0,0l0,0c0,0,0,0,0,0l2.8-9.4c0.1-0.2,0-0.4-0.1-0.6c-0.1-0.2-0.3-0.3-0.6-0.3H57.5v-8.8c0,0,0,0,0,0
		c0,0,0,0,0,0l-3.8-42.5v-4.7l1.1-5.7l2.1-0.5c1.2-0.3,2.2-1,2.7-1.9c0.5-0.9,0.7-1.9,0.4-2.9c-0.5-1.6-2-2.8-3.7-3l1.8-9.2
		c0-0.2,0-0.4-0.1-0.6c-0.1-0.2-0.3-0.3-0.5-0.3h-3.7v-4.1c0-0.4-0.3-0.7-0.7-0.7h-2.2V82.7c0-0.4-0.3-0.7-0.7-0.7h-6.8V20.9h2.5
		c0.4,0,0.7-0.3,0.7-0.7l0.9-19.5c0-0.2-0.1-0.4-0.2-0.5S47,0,46.8,0H31.2c-0.2,0-0.4,0.1-0.5,0.2s-0.2,0.3-0.2,0.5l0.9,19.5
		c0,0.4,0.3,0.7,0.7,0.7h2.5V82h-6.8c-0.4,0-0.7,0.3-0.7,0.7v27.2H25c-0.4,0-0.7,0.3-0.7,0.7v4.1h-3.7c-0.2,0-0.4,0.1-0.5,0.3
		c-0.1,0.2-0.2,0.4-0.1,0.6l3.1,16.3l-0.2,0c-1.2,0.3-2.2,1-2.7,1.9c-0.5,0.9-0.7,1.9-0.4,2.9c0.5,1.8,2.3,3,4.2,3
		c0.2,0,0.3,0,0.5,0v3.7l-3.8,42.5c0,0,0,0,0,0c0,0,0,0,0,0v8.8H9.3c-0.2,0-0.4,0.1-0.6,0.3c-0.1,0.2-0.2,0.4-0.1,0.6l9.4,31.5
		l-3.9,65.7c0,0,0,0,0,0c0,0,0,0,0,0l-3,50.8c0,0,0,0,0,0c0,0,0,0,0,0l-2.2,38c0,0,0,0.1,0,0.1c0,0,0,0,0,0.1l-0.7,12.6c0,0,0,0,0,0
		c0,0,0,0,0,0l-0.7,12.6c0,0,0,0.1,0,0.1c0,0,0,0,0,0l-2.2,38c0,0,0,0,0,0c0,0,0,0,0,0l-0.7,12.4c0,0.1-0.1,0.2-0.1,0.3
		c0,0.1,0,0.1,0,0.1l-2.2,38c0,0,0,0,0,0c0,0,0,0,0,0L0,534.3c0,0.2,0.1,0.4,0.2,0.5c0.1,0.1,0.3,0.2,0.5,0.2H22h0h8.4h0h17.2h0H56
		h0h21.3c0.2,0,0.4-0.1,0.5-0.2c0.1-0.1,0.2-0.3,0.2-0.5L76.5,508.7z M2.9,509.5h9.3l-0.4,11.3H2.2L2.9,509.5z M3.6,496.8h9
		l-0.4,11.3H2.9L3.6,496.8z M4.4,484h8.7l-0.4,11.3h-9L4.4,484z M5.1,471.3h8.5l-0.4,11.3H4.4L5.1,471.3z M6.6,445.9h8l-0.4,11.3
		H5.9L6.6,445.9z M7.3,433.2H15l-0.4,11.3H6.7L7.3,433.2z M8.1,420.5h7.4l-0.4,11.3H7.4L8.1,420.5z M9.6,395.1h6.9L16,406.4H8.9
		L9.6,395.1z M11.1,369.7h6.4L17,381h-6.6L11.1,369.7z M11.8,357h6.1l-0.4,11.3h-6.3L11.8,357z M12.6,344.3h5.8L18,355.6h-6.1
		L12.6,344.3z M13.3,331.6h5.6l-0.4,11.3h-5.8L13.3,331.6z M14,318.9h5.3l-0.4,11.3h-5.6L14,318.9z M14.8,306.2h5.1l-0.4,11.3h-5.3
		L14.8,306.2z M15.5,293.5h4.8l-0.4,11.3h-5L15.5,293.5z M16.3,280.8h4.5l-0.4,11.3h-4.8L16.3,280.8z M15.6,214.2h46.7l-0.7,2.2
		c0,0,0,0-0.1,0H16.4c0,0,0,0-0.1,0L15.6,214.2z M62.8,212.8h-6.1v-7.3H65L62.8,212.8z M48.3,212.8v-7.3h7v7.3H48.3z M39.7,212.8
		v-7.3h7.2v7.3H39.7z M31.1,212.8v-7.3h7.2v7.3H31.1z M22.7,212.8v-7.3h7v7.3H22.7z M65.4,204.1H12.6l-1.4-4.8h55.7L65.4,204.1z
		 M21.3,205.5v7.3h-6.1l-2.2-7.3H21.3z M61.3,217.8l-1,3.3H17.7l-1-3.3H61.3z M59.9,222.5l-1.1,3.8H19.3l-1.1-3.8H59.9z M19.4,227.7
		h39.1v13.5H55H44.5h0H23h-3.6V227.7z M55.3,266.7H51l-0.2-11.3h4.1L55.3,266.7z M56.2,255.4h4l0.7,11.4c-0.1-0.1-0.2-0.1-0.4-0.1
		h-3.9L56.2,255.4z M32.8,242.6L32.7,254h-4l0.2-11.4H32.8z M38.3,242.6V254h-4.2l0.1-11.4H38.3z M43.8,242.6l0.1,11.4h-4.2v-11.4
		H43.8z M49.1,242.6l0.2,11.4h-4l-0.1-11.4H49.1z M39.7,458.6h6.4l0.1,11.3h-6.5V458.6z M39.7,457.2v-11.3H46l0.1,11.3H39.7z
		 M39.7,444.5v-11.3h6.1l0.1,11.3H39.7z M39.7,431.8v-11.3h6l0.1,11.3H39.7z M39.7,419.1v-11.3h5.9l0.1,11.3H39.7z M39.7,406.4
		v-11.3h5.7l0.1,11.3H39.7z M39.7,393.7v-11.3h5.6l0.1,11.3H39.7z M39.7,381v-11.3h5.5l0.1,11.3H39.7z M39.7,368.3V357H45l0.1,11.3
		H39.7z M39.7,355.6v-11.3h5.2l0.1,11.3H39.7z M39.7,342.9v-11.3h5.1l0.1,11.3H39.7z M39.7,330.2v-11.3h4.9l0.1,11.3H39.7z
		 M39.7,317.5v-11.3h4.8l0.1,11.3H39.7z M39.7,304.8v-11.3h4.7l0.1,11.3H39.7z M39.7,292.1v-11.3h4.5l0.1,11.3H39.7z M39.7,279.4
		v-11.3h4.4l0.1,11.3H39.7z M39.7,266.7v-11.3H44l0.1,11.3H39.7z M38.3,266.7h-4.4l0.1-11.3h4.3V266.7z M38.3,268.1v11.3h-4.5
		l0.1-11.3H38.3z M38.3,280.8v11.3h-4.6l0.1-11.3H38.3z M38.3,293.5v11.3h-4.8l0.1-11.3H38.3z M38.3,306.2v11.3h-4.9l0.1-11.3H38.3z
		 M38.3,318.9v11.3h-5l0.1-11.3H38.3z M38.3,331.6v11.3h-5.2l0.1-11.3H38.3z M38.3,344.3v11.3H33l0.1-11.3H38.3z M38.3,357v11.3
		h-5.4L33,357H38.3z M38.3,369.7V381h-5.6l0.1-11.3H38.3z M38.3,382.4v11.3h-5.7l0.1-11.3H38.3z M38.3,395.1v11.3h-5.8l0.1-11.3
		H38.3z M38.3,407.8v11.3h-6l0.1-11.3H38.3z M38.3,420.5v11.3h-6.1l0.1-11.3H38.3z M38.3,433.2v11.3h-6.2l0.1-11.3H38.3z
		 M38.3,445.9v11.3h-6.4l0.1-11.3H38.3z M38.3,458.6v11.3h-6.5l0.1-11.3H38.3z M38.3,471.3v11.3h-6.6l0.1-11.3H38.3z M39.7,471.3
		h6.5l0.1,11.3h-6.6V471.3z M47.6,471.3h6.3l0.2,11.3h-6.4L47.6,471.3z M47.6,469.9l-0.1-11.3h6.2l0.2,11.3H47.6z M47.5,457.2
		l-0.1-11.3h6l0.2,11.3H47.5z M47.3,444.5l-0.1-11.3h5.9l0.2,11.3H47.3z M47.2,431.8l-0.1-11.3h5.8l0.2,11.3H47.2z M47.1,419.1
		L47,407.8h5.6l0.2,11.3H47.1z M46.9,406.4l-0.1-11.3h5.5l0.2,11.3H46.9z M46.8,393.7l-0.1-11.3H52l0.2,11.3H46.8z M46.7,381
		l-0.1-11.3h5.2L52,381H46.7z M46.5,368.3L46.4,357h5.1l0.2,11.3H46.5z M46.4,355.6l-0.1-11.3h5l0.2,11.3H46.4z M46.3,342.9
		l-0.1-11.3H51l0.2,11.3H46.3z M46.1,330.2L46,318.9h4.7l0.2,11.3H46.1z M46,317.5l-0.1-11.3h4.5l0.2,11.3H46z M45.9,304.8
		l-0.1-11.3h4.4l0.2,11.3H45.9z M45.7,292.1l-0.1-11.3h4.3l0.2,11.3H45.7z M45.6,279.4l-0.1-11.3h4.1l0.2,11.3H45.6z M45.5,266.7
		l-0.1-11.3h4l0.2,11.3H45.5z M32.6,255.4l-0.1,11.3h-4.1l0.2-11.3H32.6z M32.5,268.1l-0.1,11.3h-4.3l0.2-11.3H32.5z M32.4,280.8
		l-0.1,11.3h-4.4l0.2-11.3H32.4z M32.2,293.5l-0.1,11.3h-4.5l0.2-11.3H32.2z M32.1,306.2L32,317.5h-4.7l0.2-11.3H32.1z M32,318.9
		l-0.1,11.3h-4.8l0.2-11.3H32z M31.8,331.6l-0.1,11.3h-4.9l0.2-11.3H31.8z M31.7,344.3l-0.1,11.3h-5.1l0.2-11.3H31.7z M31.6,357
		l-0.1,11.3h-5.2l0.2-11.3H31.6z M31.4,369.7L31.3,381H26l0.2-11.3H31.4z M31.3,382.4l-0.1,11.3h-5.5l0.2-11.3H31.3z M31.2,395.1
		l-0.1,11.3h-5.6l0.2-11.3H31.2z M31,407.8l-0.1,11.3h-5.8l0.2-11.3H31z M30.9,420.5l-0.1,11.3h-5.9l0.2-11.3H30.9z M30.8,433.2
		l-0.1,11.3h-6l0.2-11.3H30.8z M30.6,445.9l-0.1,11.3h-6.2l0.2-11.3H30.6z M30.5,458.6l-0.1,11.3h-6.3l0.2-11.3H30.5z M30.4,471.3
		l-0.1,11.3h-6.4l0.2-11.3H30.4z M30.2,484l-0.1,11.3h-6.6l0.2-11.3H30.2z M31.6,484h6.7v11.3h-6.8L31.6,484z M38.3,496.8v11.3h-6.9
		l0.1-11.3H38.3z M39.7,496.8h6.8l0.1,11.3h-6.9V496.8z M39.7,495.3V484h6.7l0.1,11.3H39.7z M47.8,484h6.5l0.2,11.3h-6.6L47.8,484z
		 M55.6,484h7.9l0.4,11.3h-8.1L55.6,484z M55.6,482.6l-0.2-11.3H63l0.4,11.3H55.6z M55.3,469.9l-0.2-11.3h7.5l0.4,11.3H55.3z
		 M55,457.2l-0.2-11.3h7.3l0.4,11.3H55z M54.8,444.5l-0.2-11.3h7l0.4,11.3H54.8z M54.5,431.8l-0.2-11.3h6.8l0.4,11.3H54.5z
		 M54.2,419.1L54,407.8h6.6l0.4,11.3H54.2z M54,406.4l-0.2-11.3h6.4l0.4,11.3H54z M53.7,393.7l-0.2-11.3h6.2l0.4,11.3H53.7z
		 M53.4,381l-0.2-11.3h6l0.4,11.3H53.4z M53.1,368.3L52.9,357h5.8l0.4,11.3H53.1z M52.9,355.6l-0.2-11.3h5.6l0.4,11.3H52.9z
		 M52.6,342.9l-0.2-11.3h5.3l0.4,11.3H52.6z M52.3,330.2l-0.2-11.3h5.1l0.4,11.3H52.3z M52.1,317.5l-0.2-11.3h4.9l0.4,11.3H52.1z
		 M51.8,304.8l-0.2-11.3h4.7l0.4,11.3H51.8z M51.5,292.1l-0.2-11.3h4.5l0.4,11.3H51.5z M51.3,279.4L51,268.1h4.3l0.4,11.3H51.3z
		 M50.7,254l-0.2-11.4h3.9l0.4,11.4H50.7z M23.7,242.6h3.9L27.3,254h-4.1L23.7,242.6z M27.3,255.4L27,266.7h-4.3l0.4-11.3H27.3z
		 M27,268.1l-0.2,11.3h-4.5l0.4-11.3H27z M26.7,280.8l-0.2,11.3h-4.7l0.4-11.3H26.7z M26.4,293.5l-0.2,11.3h-4.9l0.4-11.3H26.4z
		 M26.2,306.2l-0.2,11.3h-5.1l0.4-11.3H26.2z M25.9,318.9l-0.2,11.3h-5.3l0.4-11.3H25.9z M25.6,331.6l-0.2,11.3h-5.5l0.4-11.3H25.6z
		 M25.4,344.3l-0.2,11.3h-5.7l0.4-11.3H25.4z M25.1,357l-0.2,11.3h-6l0.4-11.3H25.1z M24.8,369.7L24.6,381h-6.2l0.4-11.3H24.8z
		 M24.6,382.4l-0.2,11.3h-6.4l0.4-11.3H24.6z M24.3,395.1L24,406.4h-6.6l0.4-11.3H24.3z M24,407.8l-0.2,11.3H17l0.4-11.3H24z
		 M23.7,420.5l-0.2,11.3h-7l0.4-11.3H23.7z M23.5,433.2l-0.2,11.3H16l0.4-11.3H23.5z M23.2,445.9L23,457.2h-7.4l0.4-11.3H23.2z
		 M22.9,458.6l-0.2,11.3H15l0.4-11.3H22.9z M22.7,471.3l-0.2,11.3h-7.9l0.4-11.3H22.7z M22.4,484l-0.2,11.3h-8.1l0.4-11.3H22.4z
		 M22.1,496.8l-0.2,11.3h-8.3l0.4-11.3H22.1z M23.5,496.8h6.6L30,508.1h-6.7L23.5,496.8z M30,509.5l-0.1,11.3H23l0.2-11.3H30z
		 M31.4,509.5h6.9v11.3h-7L31.4,509.5z M39.7,509.5h6.9l0.1,11.3h-7V509.5z M48,509.5h6.7l0.2,11.3h-6.8L48,509.5z M48,508.1
		l-0.1-11.3h6.6l0.2,11.3H48z M55.9,496.8H64l0.4,11.3h-8.3L55.9,496.8z M65.4,496.8h9l0.7,11.3h-9.2L65.4,496.8z M65.3,495.3
		L64.9,484h8.7l0.7,11.3H65.3z M64.8,482.6l-0.4-11.3h8.5l0.7,11.3H64.8z M72.8,469.9h-8.5l-0.4-11.3h8.2L72.8,469.9z M63.9,457.2
		l-0.4-11.3h8l0.7,11.3H63.9z M63.4,444.5L63,433.2h7.7l0.7,11.3H63.4z M62.9,431.8l-0.4-11.3h7.4l0.7,11.3H62.9z M69.8,419.1h-7.4
		L62,407.8h7.2L69.8,419.1z M62,406.4l-0.4-11.3h6.9l0.7,11.3H62z M68.3,393.7h-6.9L61,382.4h6.6L68.3,393.7z M61,381l-0.4-11.3h6.4
		l0.7,11.3H61z M60.5,368.3L60.1,357h6.1l0.7,11.3H60.5z M60,355.6l-0.4-11.3h5.8l0.7,11.3H60z M59.5,342.9l-0.4-11.3h5.6l0.7,11.3
		H59.5z M59.1,330.2l-0.4-11.3H64l0.7,11.3H59.1z M63.9,317.5h-5.3l-0.4-11.3h5.1L63.9,317.5z M58.1,304.8l-0.4-11.3h4.8l0.7,11.3
		H58.1z M57.6,292.1l-0.4-11.3h4.5l0.7,11.3H57.6z M57.1,279.4l-0.4-11.3h3.8c0.2,0,0.3-0.1,0.4-0.2l0.7,11.5H57.1z M56.2,254
		l-0.4-11.4h3.5c0.1,0,0.1,0,0.2,0l0.7,11.4H56.2z M18.5,242.6c0.1,0,0.1,0,0.2,0h3.5L21.8,254h-4L18.5,242.6z M21.8,255.4
		l-0.4,11.3h-3.9c-0.1,0-0.3,0.1-0.4,0.1l0.7-11.4H21.8z M17,268c0.1,0.1,0.3,0.2,0.4,0.2h3.8l-0.4,11.3h-4.5L17,268z M10.3,382.4
		H17l-0.4,11.3H9.7L10.3,382.4z M8.8,407.8H16l-0.4,11.3H8.2L8.8,407.8z M5.8,458.6h8.2l-0.4,11.3H5.2L5.8,458.6z M13.5,509.5h8.3
		l-0.2,11.3h-8.5L13.5,509.5z M21.6,522.2l-0.2,11.4h-8.7l0.4-11.4H21.6z M23,522.2h6.9l-0.1,11.4h-7L23,522.2z M31.2,522.2h7.1
		v11.4h-7.2L31.2,522.2z M39.7,522.2h7.1l0.1,11.4h-7.2V522.2z M48.2,522.2H55l0.2,11.4h-7L48.2,522.2z M56.4,522.2h8.5l0.4,11.4
		h-8.7L56.4,522.2z M56.4,520.8l-0.2-11.3h8.3l0.4,11.3H56.4z M65.9,509.5h9.3l0.7,11.3h-9.5L65.9,509.5z M48.3,185.2v-5.5h4v5.5
		H48.3z M39.7,185.2v-5.5h7.2v5.5H39.7z M31.1,185.2v-5.5h7.2v5.5H31.1z M25.7,185.2v-5.5h4v5.5H25.7z M22,185.2l0.5-5.5h1.8v5.5H22
		z M26.2,139.3h26.1v3.4H25.7v-3.3L26.2,139.3z M38.3,144.1v5h-7.2v-5H38.3z M46.9,144.1v5h-7.2v-5H46.9z M52.3,144.1v5h-4v-5H52.3z
		 M39.7,157.8h7.2v5.9h-7.2V157.8z M38.3,163.7h-7.2v-5.9h7.2V163.7z M48.3,157.8h4v5.9h-4V157.8z M52.3,156.4h-4v-5.9h4V156.4z
		 M46.9,156.4h-7.2v-5.9h7.2V156.4z M38.3,156.4h-7.2v-5.9h7.2V156.4z M29.7,156.4h-4v-5.9h4V156.4z M29.7,157.8v5.9h-4v-5.9H29.7z
		 M29.7,165.1v5.9h-4v-5.9H29.7z M31.1,165.1h7.2v5.9h-7.2V165.1z M39.7,165.1h7.2v5.9h-7.2V165.1z M48.3,165.1h4v5.9h-4V165.1z
		 M53.7,165.1h0.5l0.5,5.9h-1.1V165.1z M53.7,163.7v-4.5l0.4,4.5H53.7z M29.7,149.1h-4v-5h4V149.1z M24.3,163.7h-0.4l0.4-4.5V163.7z
		 M24.3,165.1v5.9h-1.1l0.5-5.9H24.3z M24.3,172.4v5.9h-1.7l0.5-5.9H24.3z M25.7,172.4h4v5.9h-4V172.4z M31.1,172.4h7.2v5.9h-7.2
		V172.4z M39.7,172.4h7.2v5.9h-7.2V172.4z M48.3,172.4h4v5.9h-4V172.4z M53.7,172.4h1.2l0.5,5.9h-1.7V172.4z M53.7,179.8h1.8
		l0.5,5.5h-2.3V179.8z M52.4,137.9H32.6l20.7-4.6L52.4,137.9z M29.4,130.4l-1.3-9.4h4.4l0.8,8.5L29.4,130.4z M34.6,129.3l-0.7-8.2
		h4.4v7.4L34.6,129.3z M39.7,121.1h4.6l-0.5,6.2l-4.1,0.9V121.1z M45.7,121.1h4.4l-0.7,4.9l-4.2,0.9L45.7,121.1z M51.6,121.1h4
		l-0.7,3.7c0,0,0,0-0.1,0l-3.9,0.9L51.6,121.1z M45.4,109.9v-4.5h4v4.5H45.4z M39.6,109.9v-4.5H44v4.5H39.6z M33.8,109.9v-4.5h4.4
		v4.5H33.8z M35.4,83.4h2.9V89h-4.4v-5.5H35.4z M36.1,20.9h5.9v7.8h-5.9V20.9z M44,83.4V89h-4.4v-5.5h3H44z M45.4,97.9h4v6.1h-4
		V97.9z M44,104h-4.4v-6.1H44V104z M49.4,96.5h-4v-6.1h4V96.5z M44,96.5h-4.4v-6.1H44V96.5z M41.9,82h-5.9V53.9h5.9V82z M41.9,38.1
		v6.5h-5.9v-6.5H41.9z M36.1,36.7v-6.5h5.9v6.5H36.1z M41.9,46v6.5h-5.9V46H41.9z M38.2,90.4v6.1h-4.4v-6.1H38.2z M32.4,96.5h-3.9
		v-6.1h3.9V96.5z M28.6,97.9h3.9v6.1h-3.9V97.9z M33.8,97.9h4.4v6.1h-4.4V97.9z M49.4,89h-4v-5.5h4V89z M31.9,1.4h14.1l-0.9,18.1
		h-2.5h-7.3h-2.5L31.9,1.4z M32.4,83.4V89h-3.9v-5.5H32.4z M28.6,105.4h3.9v4.5h-3.9V105.4z M25.7,111.3h26.6v3.4H25.7V111.3z
		 M56.6,116.1l-0.7,3.5H22.1l-0.7-3.5H56.6z M22.4,121.1h4.3l1.4,9.7l-3.7,0.8L22.4,121.1z M21,136.3c-0.2-0.6-0.1-1.2,0.3-1.8
		c0.4-0.6,1.1-1.1,1.8-1.3l0.9-0.2c0,0,0,0,0,0c0,0,0,0,0,0l4.9-1.1c0,0,0,0,0,0c0,0,0,0,0,0l26.2-5.8c0.2-0.1,0.5-0.1,0.7-0.1
		c1.3,0,2.5,0.8,2.8,2c0.2,0.6,0.1,1.2-0.3,1.8c-0.4,0.6-1.1,1.1-1.8,1.3l-2.6,0.6c0,0,0,0,0,0L25.4,138c-0.1-0.1-0.3-0.1-0.4-0.1
		c-0.3,0-0.5,0.1-0.6,0.4C22.9,138.5,21.4,137.7,21,136.3z M21.9,186.6h34.1v8.1H21.9V186.6z M67.8,196.1l-0.5,1.8H10.7l-0.5-1.8
		H67.8z M2.1,522.2h9.5l-0.4,11.4H1.4L2.1,522.2z M66.8,533.6l-0.4-11.4h9.5l0.7,11.4H66.8z"/>
</g>
</svg>
