<?xml version="1.0" encoding="utf-8"?>
<svg version="1.1" id="the-element-ika-on-stage-1" xmlns="http://www.w3.org/2000/svg" xmlns:xlink="http://www.w3.org/1999/xlink" x="0px"
	 y="0px" viewBox="0 0 128 128" style="enable-background:new 0 0 128 128;" xml:space="preserve">
<style type="text/css">
	.st0{fill:#F4AEB6;}
	.st1{fill:#FFFFFF;}
	.st2{fill:#231815;}
</style>
<g>
	<g>
		<g>
			<g id="XMLID_2_">
				<g>
					<path class="st0" d="M73.6,84.9c0,0,0.7,4-5.7,4h-3.3h-3.4c-6.4,0-5.7-4-5.7-4c0-4.2,5.7-4,5.7-4h3.4h3.4
						C67.9,80.9,73.6,80.7,73.6,84.9z"/>
					<path class="st1" d="M64,0.9c-0.7,0.4-21.1,12.6-30.4,42.6c-7.4-2.3-13.5-11.9-13.5-11.9C37.5,8,63.1,1.2,64,0.9z"/>
					<path class="st1" d="M6.5,72.1c-3.1,0-5.6,2.5-5.6,5.6c0,3.1,2.5,5.6,5.6,5.6c2.8,0,5.1-2,5.5-4.7c0.1-0.3,0.1-0.6,0.1-0.9
						c0-2.1-1.1-3.9-2.8-4.8C8.5,72.4,7.6,72.1,6.5,72.1z"/>
					<path class="st1" d="M12.1,77.7c0,0.3,0,0.6-0.1,0.9h0c7.2-1.8,17.2-1.9,17.2-1.9c0.5-4.6,1-10,1.8-16.5h0
						c0,0-13.4,3.4-21.6,12.6C11,73.8,12.1,75.6,12.1,77.7z"/>
					<path class="st1" d="M97,75.7L97,75.7c0.7-6.5,1.3-11.9,1.7-16.5h0c0,0,9.9-0.1,17.2-1.9c-0.1,0.3-0.1,0.6-0.1,0.9
						c0,2.1,1.1,3.9,2.8,4.8C110.4,72.3,97,75.7,97,75.7z"/>
					<path class="st1" d="M115.9,58.3c0-0.3,0-0.6,0.1-0.9c0.4-2.7,2.7-4.7,5.5-4.7c3.1,0,5.6,2.5,5.6,5.6c0,3.1-2.5,5.6-5.6,5.6
						c-1,0-2-0.3-2.8-0.8C117,62.1,115.9,60.3,115.9,58.3z"/>
					<path class="st2" d="M6.5,84.2c-3.6,0-6.5-2.9-6.5-6.5s2.9-6.5,6.5-6.5c1.2,0,2.3,0.3,3.3,0.9c2,1.2,3.2,3.3,3.2,5.6
						c0,0.4,0,0.8-0.1,1.1C12.4,81.9,9.7,84.2,6.5,84.2z M6.5,73c-2.6,0-4.7,2.1-4.7,4.7s2.1,4.7,4.7,4.7c2.3,0,4.2-1.6,4.6-3.9
						c0-0.3,0.1-0.5,0.1-0.8c0-1.7-0.9-3.2-2.3-4c0,0,0,0,0,0C8.2,73.2,7.4,73,6.5,73z"/>
					<path class="st2" d="M12,79.6c-0.4,0-0.8-0.3-0.9-0.7c-0.1-0.5,0.2-1,0.7-1.1c7.2-1.8,17-1.9,17.4-1.9c0,0,0,0,0,0
						c0.5,0,0.9,0.4,0.9,0.9c0,0.5-0.4,0.9-0.9,0.9c-0.1,0-9.9,0.1-16.9,1.9C12.2,79.5,12.1,79.6,12,79.6z"/>
					<path class="st2" d="M9.4,73.8c-0.2,0-0.4-0.1-0.6-0.2c-0.4-0.3-0.4-0.9-0.1-1.3c8.3-9.3,21.5-12.8,22.1-12.9
						c0.5-0.1,1,0.2,1.1,0.7c0.1,0.5-0.2,1-0.7,1.1c-0.1,0-13.2,3.4-21.2,12.3C9.9,73.7,9.6,73.8,9.4,73.8z"/>
					<path class="st2" d="M121.5,64.8c-1.2,0-2.3-0.3-3.3-0.9c-2-1.2-3.2-3.3-3.2-5.6c0-0.4,0-0.8,0.1-1.1c0.5-3.1,3.2-5.4,6.4-5.4
						c3.6,0,6.5,2.9,6.5,6.5S125.1,64.8,121.5,64.8z M121.5,53.6c-2.3,0-4.2,1.6-4.6,3.9c0,0.3-0.1,0.5-0.1,0.8c0,1.7,0.9,3.2,2.3,4
						c0,0,0,0,0,0c0.7,0.4,1.5,0.6,2.4,0.6c2.6,0,4.7-2.1,4.7-4.7S124.1,53.6,121.5,53.6z"/>
					<path class="st2" d="M98.8,60.2c-0.5,0-0.9-0.4-0.9-0.9c0-0.5,0.4-0.9,0.9-0.9c0.1,0,9.9-0.1,16.9-1.9c0.5-0.1,1,0.2,1.1,0.7
						s-0.2,1-0.7,1.1C108.9,60.1,99.2,60.2,98.8,60.2C98.8,60.2,98.8,60.2,98.8,60.2z"/>
					<path class="st2" d="M97,76.6c-0.4,0-0.8-0.3-0.9-0.7c-0.1-0.5,0.2-1,0.7-1.1c0.1,0,13.2-3.4,21.2-12.3
						c0.3-0.4,0.9-0.4,1.3-0.1c0.4,0.3,0.4,0.9,0.1,1.3c-8.3,9.3-21.5,12.8-22.1,12.9C97.2,76.6,97.1,76.6,97,76.6z"/>
					<path class="st1" d="M84.3,73.6c1.1-2.9,1.5-6,1.4-8.8c-0.1-4.6-1.1-8.2-1.1-8.2c-1.9-0.7-3.6-1-5.1-1.1c0,0-0.1,0-0.1,0
						c-3.9-0.2-6.2,1.4-6.2,1.4c-0.7,3.1-1,5.8-1,8.2c0,5.2,1.2,8.4,1.3,8.5c0,0,0,0,0,0h0C77.8,74.1,82,73.8,84.3,73.6L84.3,73.6
						L84.3,73.6z M42.3,114.2c-5.5,6.5-13.8,8.1-15.2,7.7c-1.4-0.4-2-1.8-0.3-3.7c2.2-2.6,4.8-6.7,5-7c-5.2,3.4-15.4,4.8-17.7,2.8
						c-2.3-2,0-3.2,0-3.2c10.7-4.4,11.1-4.8,13.6-28.6c0.5-4.6,1-10,1.8-16.5c0.1-1.3,0.3-2.6,0.4-4c0.8-6.7,2.1-12.8,3.8-18.3
						C42.9,13.5,63.3,1.4,64,0.9c0,0,0,0,0,0s0,0,0,0c0.7,0.4,21.1,12.6,30.4,42.6c1.7,5.5,3,11.5,3.8,18.3c0.2,1.4,0.3,2.7,0.4,4
						c0.7,6.5,1.3,11.9,1.8,16.5c2.5,23.8,2.9,24.2,13.6,28.6c0,0,2.3,1.2,0,3.2c-2.3,2-12.5,0.6-17.7-2.8c0.2,0.3,2.8,4.3,5,7
						c1.6,2,1,3.3-0.3,3.7c-1.4,0.4-9.6-1.2-15.2-7.7c0.1,0.4,2.4,9.3,0.7,10.5c-1.7,1.2-5.7-1.1-12.2-9.6c0,0,1.9,11-1.5,11.9
						c-3.4,0.9-7.1-5.9-8.7-11.6c-1.6,5.7-5.4,12.5-8.7,11.6c-3.4-0.9-1.5-11.9-1.5-11.9c-6.5,8.5-10.5,10.8-12.2,9.6
						C39.9,123.6,42.2,114.6,42.3,114.2z M55.5,73.6c0.1-0.2,1.3-3.3,1.3-8.5c0-2.3-0.3-5.1-1-8.2c0,0-2.3-1.5-6.2-1.4
						c0,0-0.1,0-0.1,0c-1.5,0.1-3.2,0.4-5.1,1.1c0,0-1.1,3.6-1.1,8.2c0,2.8,0.3,5.9,1.4,8.8v0h0.1C46.9,73.8,51.1,74.1,55.5,73.6
						L55.5,73.6C55.4,73.6,55.4,73.6,55.5,73.6z M67.8,88.9c6.4,0,5.7-4,5.7-4c0-4.2-5.7-4-5.7-4h-3.4h-3.4c0,0-5.7-0.2-5.7,4
						c0,0-0.7,4,5.7,4h3.4H67.8z"/>
					<path class="st1" d="M107.9,31.6c0,0-6.1,9.6-13.5,11.9C85.1,13.5,64.8,1.4,64,0.9C65,1.2,90.5,8,107.9,31.6z"/>
					<path class="st2" d="M85.7,64.8l-1.7,0c-4.7-0.5-5.2-6.2-5.2-6.2c-0.6,5.7-5.1,6.4-5.1,6.4l-1.7,0c0-2.3,0.3-5.1,1-8.2
						c2.2-1,4.3-1.4,6.2-1.4c0,0,0.1,0,0.1,0c1.5,0.1,3.2,0.4,5.1,1.1C84.6,56.6,85.7,60.2,85.7,64.8z"/>
					<path class="st2" d="M84.3,73.6L84.3,73.6L84.3,73.6C84.3,73.6,84.3,73.6,84.3,73.6z"/>
					<path class="st1" d="M84.1,64.8c0,0-5,1.3-5.2,6.4c0,0-0.2-5.7-5.1-6.2c0,0,4.5-0.7,5.1-6.4C78.9,58.6,79.4,64.3,84.1,64.8z"/>
					<path class="st2" d="M73.1,56.9c0,0,2.3-1.5,6.2-1.4C77.5,55.5,75.4,55.9,73.1,56.9z"/>
					<path class="st2" d="M85.7,64.8c0.1,2.8-0.3,5.9-1.4,8.8c0,0,0,0-0.1,0H73.5h0c0,0,0,0,0,0c-0.1-0.2-1.3-3.3-1.3-8.5l1.7,0
						c4.9,0.5,5.1,6.2,5.1,6.2c0.1-5.1,5.2-6.4,5.2-6.4L85.7,64.8z"/>
					<path class="st2" d="M56.7,65L55,65c0,0-4.5-0.7-5.1-6.4c0,0-0.5,5.7-5.2,6.2l-1.7,0c0.1-4.6,1.1-8.2,1.1-8.2
						c1.9-0.7,3.6-1,5.1-1.1c0,0,0.1,0,0.1,0c1.9,0,4,0.4,6.2,1.4C56.4,60,56.7,62.7,56.7,65z"/>
					<path class="st1" d="M55,65c-4.9,0.5-5.1,6.2-5.1,6.2c-0.1-5.1-5.2-6.4-5.2-6.4c4.7-0.5,5.2-6.2,5.2-6.2C50.6,64.3,55,65,55,65
						z"/>
					<path class="st2" d="M49.5,55.5c3.9-0.2,6.2,1.4,6.2,1.4C53.5,55.9,51.4,55.5,49.5,55.5z"/>
					<path class="st2" d="M50,71.3c0,0,0.2-5.7,5.1-6.2l1.7,0c0,5.2-1.2,8.4-1.3,8.5c0,0,0,0,0,0h0H44.6c0,0,0,0-0.1,0
						c-1.2-2.9-1.5-6-1.4-8.8l1.7,0C44.8,64.8,49.8,66.1,50,71.3z"/>
					<path class="st2" d="M44.6,73.6L44.6,73.6L44.6,73.6C44.6,73.6,44.6,73.6,44.6,73.6z"/>
				</g>
				<g>
					<path class="st2" d="M72.1,128c-3.3,0-6.3-5-8.1-9.7c-1.9,5.1-5.3,10.5-9,9.6c-2.8-0.7-2.9-6-2.6-9.6
						c-5.2,6.3-9.1,8.8-11.4,7.2c-0.5-0.4-2.1-1.5,0.4-11.4c0,0,0-0.1,0-0.1c0.1-0.4,0.5-0.7,0.9-0.7c0.5,0,0.9,0.4,0.9,0.9
						c0,0.1,0,0.2-0.1,0.3c0,0,0,0,0,0c-1.5,6-1.5,9-1.1,9.4c0.8,0.6,4.2-0.7,10.9-9.4c0.3-0.3,0.7-0.5,1.1-0.3
						c0.4,0.2,0.6,0.6,0.5,1c-0.7,4.3-0.8,10.4,0.8,10.8c2.5,0.7,6-5.3,7.6-11c0.1-0.4,0.5-0.7,0.9-0.7s0.8,0.3,0.9,0.7
						c1.6,5.7,5.1,11.6,7.6,11c1.7-0.4,1.6-6.6,0.9-10.8c-0.1-0.4,0.2-0.8,0.5-1c0.4-0.2,0.8-0.1,1.1,0.3c6.7,8.8,10.1,10,11,9.4
						c0.4-0.4,0.4-3.4-1.1-9.4c0,0,0-0.1,0-0.1c-0.1-0.5,0.2-1,0.7-1.1c0.5-0.1,1,0.2,1.1,0.7c2.5,10,0.9,11.1,0.4,11.5
						c-2.3,1.5-6.2-0.9-11.4-7.2c0.3,3.7,0.2,8.9-2.6,9.6C72.7,128,72.4,128,72.1,128z M41.4,114.2
						C41.4,114.2,41.4,114.2,41.4,114.2C41.4,114.2,41.4,114.2,41.4,114.2z M41.4,114.2C41.4,114.2,41.4,114.2,41.4,114.2
						C41.4,114.2,41.4,114.2,41.4,114.2z M41.4,114.2L41.4,114.2L41.4,114.2z M41.7,113.5c-0.1,0.1-0.2,0.3-0.3,0.5
						C41.5,113.8,41.6,113.6,41.7,113.5z"/>
					<path class="st2" d="M27.7,122.9c-0.3,0-0.6,0-0.8-0.1c-1-0.3-1.6-0.9-1.9-1.8c-0.2-0.7-0.2-1.9,1.1-3.5
						c2.2-2.6,4.8-6.7,4.9-6.9c0-0.1,0.1-0.1,0.2-0.2c0.4-0.3,1-0.3,1.3,0.1c0.3,0.3,0.3,0.8,0,1.2c-0.3,0.5-2.9,4.5-5,7
						c-0.6,0.7-0.9,1.3-0.7,1.7c0.1,0.3,0.4,0.5,0.6,0.5c0.9,0.2,8.8-1.1,14.2-7.4c0.3-0.4,0.9-0.4,1.3-0.1s0.4,0.9,0.1,1.3
						C38,120.7,30.5,122.9,27.7,122.9z"/>
					<path class="st2" d="M18.3,115.8c-2.2,0-3.9-0.4-4.9-1.1c-1-0.9-1.5-1.8-1.3-2.7c0.2-1.3,1.4-1.9,1.5-2
						c10.4-4.3,10.6-4.4,13.1-27.9l0.3-2.6c0.4-4,0.9-8.6,1.5-13.9l0.1-1c0.1-1,0.2-1.9,0.3-2.9c0.7-6.4,2-12.6,3.8-18.4
						C36.6,30.8,43,19.5,51.3,10.5c6.3-6.8,11.6-10,12.2-10.4c0.4-0.3,1-0.1,1.3,0.3c0.3,0.4,0.1,1-0.3,1.3
						c-0.8,0.5-20.9,12.6-30,42.1c-1.8,5.7-3,11.8-3.8,18.1c-0.1,1-0.2,2-0.3,2.9l-0.1,1c-0.6,5.3-1.1,9.9-1.5,13.9l-0.3,2.6
						c-2.5,23.9-2.9,24.7-14.2,29.4c-0.1,0-0.4,0.3-0.5,0.6c0,0.2,0.2,0.6,0.7,1c1.8,1.5,11.4,0.5,16.6-2.8c0.4-0.3,1-0.2,1.3,0.3
						c0.3,0.4,0.2,1-0.3,1.3C28.6,114.4,22.6,115.8,18.3,115.8z"/>
					<path class="st2" d="M109.8,115.8c-4.4,0-10.3-1.5-14-3.8c0,0-0.1-0.1-0.1-0.1c-0.2-0.2-0.3-0.4-0.3-0.7c0-0.5,0.4-0.9,0.9-0.9
						c0.2,0,0.4,0.1,0.5,0.2c5.2,3.4,14.8,4.3,16.6,2.8c0.5-0.4,0.7-0.8,0.7-1c0-0.3-0.4-0.5-0.5-0.6c-11.2-4.6-11.6-5.4-14.1-29.3
						L99.4,81c-0.4-4.3-1-9.3-1.6-15.1c-0.1-1.3-0.3-2.6-0.4-3.9c-0.7-6.3-2-12.4-3.8-18.1c-9.1-29.5-29.1-41.6-30-42.1
						c-0.4-0.3-0.6-0.8-0.3-1.3c0.3-0.4,0.8-0.6,1.3-0.3c0.6,0.3,5.9,3.6,12.2,10.4c8.3,9,14.7,20.3,18.6,32.8
						c1.8,5.8,3.1,12,3.8,18.4c0.2,1.4,0.3,2.7,0.4,4c0.7,5.8,1.2,10.8,1.6,15.1l0.1,1.4c2.5,23.5,2.7,23.6,13,27.8
						c0.2,0.1,1.4,0.7,1.6,2c0.1,0.9-0.3,1.8-1.3,2.7C113.7,115.5,111.9,115.8,109.8,115.8z"/>
					<path class="st2" d="M100.4,122.9c-2.8,0-10.3-2.2-15.3-8.1c0-0.1-0.1-0.1-0.1-0.2c-0.2-0.3-0.1-0.8,0.2-1.1
						c0.4-0.4,0.9-0.4,1.3,0c0,0,0.1,0.1,0.1,0.1c5.4,6.3,13.3,7.6,14.2,7.4c0.2-0.1,0.6-0.2,0.6-0.5c0.1-0.4-0.2-1-0.7-1.7
						c-2.3-2.7-4.9-6.9-5-7.1c-0.3-0.4-0.1-1,0.3-1.3c0.4-0.3,1-0.1,1.3,0.3c0.1,0.2,2.7,4.3,4.9,6.9c1.3,1.6,1.3,2.7,1.1,3.5
						c-0.2,0.8-0.9,1.5-1.9,1.8C101,122.9,100.7,122.9,100.4,122.9z"/>
					<path class="st2" d="M33.6,44.5c-0.1,0-0.2,0-0.3,0c-7.6-2.4-13.7-11.9-14-12.3c-0.2-0.3-0.2-0.7,0-1C36.8,7.4,62.3,0.4,63.7,0
						c0.6-0.2,1.2,0.3,1.2,0.9c0,0.4-0.3,0.8-0.6,0.9c0,0,0,0-0.1,0c-1.1,0.3-25.8,6.9-42.9,29.8c1.4,2,6.6,9.1,12.6,11
						c0.5,0.2,0.8,0.7,0.6,1.2C34.4,44.2,34,44.5,33.6,44.5z"/>
					<path class="st2" d="M94.4,44.5c-0.4,0-0.8-0.3-0.9-0.6c-0.2-0.5,0.1-1,0.6-1.2c6-1.9,11.2-9,12.6-11
						C89.6,8.8,64.9,2.1,63.8,1.8c0,0,0,0-0.1,0c-0.4-0.1-0.6-0.5-0.6-0.9c0-0.6,0.6-1.1,1.2-0.9c1.4,0.4,26.9,7.4,44.3,31
						c0.2,0.3,0.2,0.7,0,1c-0.3,0.4-6.3,9.9-14,12.3C94.6,44.5,94.5,44.5,94.4,44.5z"/>
					<path class="st2" d="M67.8,89.8h-6.7c-2.7,0-4.6-0.7-5.7-2c-0.9-1.1-1-2.4-0.9-3c0-1.3,0.5-2.3,1.3-3.1
						c1.9-1.8,5.2-1.7,5.3-1.7h6.8c0.1,0,3.4-0.1,5.3,1.7c0.8,0.8,1.3,1.9,1.3,3.1c0.1,0.7,0,1.9-0.9,3
						C72.5,89.1,70.5,89.8,67.8,89.8z M61,81.8c-0.5,0-2.7,0.1-3.9,1.2c-0.5,0.5-0.7,1.1-0.7,1.9c0,0,0,0.1,0,0.1
						c0,0-0.1,0.9,0.5,1.6c0.7,0.8,2.2,1.3,4.3,1.3h6.7c2.1,0,3.5-0.4,4.3-1.3c0.7-0.7,0.5-1.6,0.5-1.6c0,0,0-0.1,0-0.1
						c0-0.8-0.2-1.4-0.7-1.9c-1.3-1.3-4-1.2-4-1.2L61,81.8C61.1,81.8,61,81.8,61,81.8z"/>
					<path class="st2" d="M69.3,85.8h-9.7c-0.5,0-0.9-0.4-0.9-0.9s0.4-0.9,0.9-0.9h9.7c0.5,0,0.9,0.4,0.9,0.9S69.8,85.8,69.3,85.8z"
						/>
					<path class="st2" d="M57.2,58.6c-0.2,0-0.3,0-0.5-0.1c-0.5-0.3-0.9-0.5-1.4-0.8c-2.6-1.5-5.9-1.3-5.9-1.3c-4.3,0-7.3,2-7.3,2
						c-0.4,0.3-1,0.2-1.3-0.3c-0.3-0.4-0.2-1,0.3-1.3c0.1-0.1,3.5-2.3,8.3-2.3c0.1,0,3.8-0.2,6.8,1.5c0.5,0.2,1,0.5,1.5,0.8
						c0.4,0.3,0.6,0.8,0.3,1.3C57.9,58.4,57.6,58.6,57.2,58.6z"/>
					<path class="st2" d="M55.5,74.5c-0.5,0-0.9-0.3-0.9-0.8c-0.1-0.5,0.3-1,0.8-1c0.5-0.1,1-0.1,1.5-0.2c0.5-0.1,1,0.2,1.1,0.7
						c0.1,0.5-0.2,1-0.7,1.1c-0.5,0.1-1.1,0.2-1.6,0.2C55.5,74.5,55.5,74.5,55.5,74.5z"/>
					<path class="st2" d="M50.2,74.8c-2.4,0-4.4-0.2-5.7-0.3c-0.5-0.1-0.9-0.5-0.8-1c0.1-0.5,0.5-0.9,1-0.8c2.1,0.2,6.3,0.6,10.6,0
						c0.5-0.1,1,0.3,1,0.8s-0.3,1-0.8,1C53.7,74.7,51.9,74.8,50.2,74.8z"/>
					<path class="st2" d="M44.6,74.5c0,0-0.1,0-0.1,0c-1.1-0.1-1.8-0.2-1.8-0.2c-0.5-0.1-0.8-0.6-0.7-1.1c0.1-0.5,0.6-0.8,1.1-0.7
						c0,0,0.6,0.1,1.7,0.2c0.5,0.1,0.9,0.5,0.8,1C45.4,74.2,45,74.5,44.6,74.5z"/>
					<path class="st1" d="M50,71.7C50,71.7,50,71.7,50,71.7c-0.2,0-0.4-0.2-0.4-0.4c-0.1-4.7-4.7-6-4.9-6c-0.2-0.1-0.3-0.2-0.3-0.4
						c0-0.2,0.2-0.4,0.4-0.4c4.3-0.5,4.8-5.6,4.8-5.8c0-0.2,0.2-0.4,0.4-0.4c0.2,0,0.4,0.2,0.4,0.4c0.6,5.3,4.7,6.1,4.7,6.1
						c0.2,0,0.4,0.2,0.4,0.4c0,0.2-0.2,0.4-0.4,0.4c-4.5,0.5-4.7,5.6-4.7,5.8C50.4,71.5,50.2,71.7,50,71.7z M46.2,64.9
						c1.2,0.6,3,1.8,3.8,4.1c0.5-1.5,1.5-3.3,3.6-4c-1.2-0.6-2.8-1.8-3.6-4.3C49.4,62.1,48.4,64.1,46.2,64.9z"/>
					<path class="st2" d="M44.8,47.1c-0.3,0-0.6-0.2-0.8-0.4c-0.3-0.4-0.1-1,0.3-1.3c2.3-1.4,7-3.5,13-1.7c0.5,0.1,0.8,0.7,0.6,1.2
						c-0.1,0.5-0.7,0.8-1.2,0.6c-5-1.5-9,0-11.5,1.5C45.1,47.1,45,47.1,44.8,47.1z"/>
					<path class="st2" d="M82.7,46.8c-0.1,0-0.3,0-0.4-0.1c-2.4-1.3-6.2-2.5-10.8-1.1c-0.5,0.1-1-0.1-1.2-0.6s0.1-1,0.6-1.2
						c5.3-1.6,9.6-0.2,12.3,1.2c0.4,0.2,0.6,0.8,0.4,1.3C83.4,46.6,83.1,46.8,82.7,46.8z"/>
					<path class="st2" d="M71.6,58.6c-0.3,0-0.6-0.2-0.8-0.5c-0.3-0.4-0.1-1,0.3-1.3c0.5-0.3,1-0.6,1.6-0.8c0.5-0.3,3.3-1.9,6.9-1.5
						c4.8,0.1,8.1,2.2,8.2,2.3c0.4,0.3,0.5,0.9,0.3,1.3s-0.9,0.5-1.3,0.3c0,0-3.1-2-7.3-2c0,0-0.1,0-0.1,0c-3.1-0.4-5.7,1.2-5.7,1.2
						c0,0-0.1,0-0.1,0.1c-0.5,0.2-1,0.5-1.4,0.8C71.9,58.6,71.8,58.6,71.6,58.6z"/>
					<path class="st2" d="M73.4,74.5c0,0-0.1,0-0.1,0c-0.5-0.1-1.1-0.1-1.6-0.2c-0.5-0.1-0.8-0.6-0.7-1.1s0.6-0.8,1.1-0.7
						c0.5,0.1,1,0.2,1.5,0.2c0.5,0.1,0.9,0.5,0.8,1C74.3,74.2,73.9,74.5,73.4,74.5z"/>
					<path class="st2" d="M78.7,74.8c-1.7,0-3.5-0.1-5.3-0.3c-0.5-0.1-0.9-0.5-0.8-1s0.5-0.9,1-0.8c4.3,0.6,8.5,0.2,10.6,0
						c0.5-0.1,1,0.3,1,0.8s-0.3,1-0.8,1C83.1,74.7,81.1,74.8,78.7,74.8z"/>
					<path class="st2" d="M84.3,74.5c-0.5,0-0.9-0.4-0.9-0.8c-0.1-0.5,0.3-1,0.8-1c1-0.1,1.7-0.2,1.7-0.2c0.5-0.1,1,0.2,1.1,0.7
						c0.1,0.5-0.2,1-0.7,1.1c0,0-0.7,0.1-1.8,0.2C84.4,74.5,84.4,74.5,84.3,74.5z"/>
					<path class="st1" d="M78.9,71.7c-0.2,0-0.4-0.2-0.4-0.4c0-0.2-0.2-5.3-4.7-5.8c-0.2,0-0.4-0.2-0.4-0.4c0-0.2,0.1-0.4,0.4-0.4
						c0.2,0,4.1-0.7,4.7-6.1c0-0.2,0.2-0.4,0.4-0.4c0,0,0,0,0,0c0.2,0,0.4,0.2,0.4,0.4c0,0.2,0.5,5.4,4.8,5.8c0.2,0,0.4,0.2,0.4,0.4
						c0,0.2-0.1,0.4-0.3,0.4c-0.2,0.1-4.7,1.3-4.9,6C79.3,71.5,79.1,71.7,78.9,71.7C78.9,71.7,78.9,71.7,78.9,71.7z M75.3,65
						c2.1,0.8,3.1,2.6,3.6,4c0.8-2.2,2.6-3.4,3.8-4.1c-2.2-0.8-3.2-2.8-3.8-4.3C78.1,63.1,76.5,64.4,75.3,65z"/>
				</g>
			</g>
		</g>
	</g>
</g>
</svg>
