<?xml version="1.0" encoding="utf-8"?>
<svg version="1.1" id="the-uruma-yoshiya-hand-right-1" xmlns="http://www.w3.org/2000/svg" xmlns:xlink="http://www.w3.org/1999/xlink" x="0px"
	 y="0px" viewBox="0 0 68 81" style="enable-background:new 0 0 68 81;" xml:space="preserve">
<style type="text/css">
	.st0{fill:#E84572;}
	.st1{fill:#F4AEB6;}
	.st2{fill:#231815;}
</style>
<g>
	<path class="st0" d="M25.1,48.1l9.4,16.7c-11,12.8-20.5,15.3-20.5,15.3s-10.9,3-13.2-9.6c-1.8-10,15.8-16.9,15.8-16.9
		C19.7,51.9,22.5,50.1,25.1,48.1z"/>
	<path class="st1" d="M60.2,15.2c0.3-0.1,5.4-2.5,6.7-1.3c1,1,0.1,2.4-1.5,3.3c-1.6,0.8-8.6,4.6-8.6,4.6C50.3,42.5,42,56,34.5,64.8
		l-9.4-16.7c16.3-12.4,23-29.8,23-29.8s-3.7-8.9-4-9.8c-0.6-2,0.1-3,1.3-2.9c1.6,0.2,3.9,5.4,3.9,5.4s2.7-7.7,3-8.6
		c0.3-0.9,1.4-2.2,2.9-1.6c1.6,0.5,1.1,3,1.1,3c0.5-1.5,1.7-2.1,2.9-1.6c1.5,0.7,0.9,2.8,0.8,3.1c0.4-1,1.6-2.3,3-1.7
		c1.7,0.8,0.6,3.3,0.6,3.3L60.2,15.2z"/>
	<path class="st2" d="M67.4,13.4c-1-1-3.5-0.4-5.9,0.5l2.8-6.7c0.5-1.1,0.9-3.3-0.9-4.2c-0.6-0.3-1.3-0.3-1.9-0.1
		c-0.2,0.1-0.4,0.2-0.6,0.3c-0.2-0.7-0.5-1.3-1.3-1.6c-0.7-0.3-1.5-0.3-2.2,0c-0.1,0.1-0.2,0.1-0.4,0.2c-0.2-0.7-0.7-1.4-1.5-1.6
		c-2-0.7-3.4,0.9-3.8,2.1c-0.2,0.7-1.6,4.7-2.4,7c-0.9-1.8-2.4-4.1-3.7-4.3c-0.7-0.1-1.3,0.1-1.8,0.6C43.4,6.1,43,7,43.5,8.7
		c0.2,0.9,3.2,7.9,3.9,9.6c-0.9,2.2-7.8,17.9-22.7,29.2c-2.7,2.1-5.6,3.9-8.4,5.4c-0.7,0.3-18.1,7.3-16.2,17.7
		c0.8,4.2,2.5,7.2,5.3,8.9c2,1.3,4.2,1.6,5.8,1.6c1.7,0,2.8-0.3,2.9-0.3c0.4-0.1,9.8-2.7,20.9-15.6c9.2-10.7,16.8-25.1,22.4-43
		c1.3-0.7,6.9-3.8,8.3-4.5c1.3-0.7,2.1-1.6,2.3-2.6C68.1,14.5,67.9,13.9,67.4,13.4z M13.8,79.4c0,0-4.2,1.1-7.7-1.1
		c-2.4-1.5-3.9-4.2-4.6-8c-1.7-9.3,15.2-16.1,15.4-16.2c2.7-1.4,5.4-3.2,8-5.1l8.7,15.6C23,76.8,13.9,79.4,13.8,79.4z M66.6,15
		c-0.1,0.5-0.7,1.1-1.5,1.6c-1.6,0.8-8.3,4.5-8.6,4.6c-0.2,0.1-0.3,0.2-0.3,0.4c-5.4,17.4-12.7,31.5-21.5,42L26,48.3
		C42,35.9,48.7,18.7,48.8,18.6c0.1-0.2,0.1-0.4,0-0.5c-1.5-3.5-3.8-9-4-9.7c-0.3-1-0.2-1.6,0-1.9c0,0,0.1-0.2,0.5-0.1
		c0.6,0.1,2.2,2.4,3.3,5c0.1,0.3,0.4,0.4,0.7,0.4c0.3,0,0.5-0.2,0.6-0.5c0,0,2.7-7.7,3-8.6c0,0,0.6-1.7,2.1-1.2
		c0.9,0.3,0.7,1.9,0.6,2.1l-3.2,7.9c-0.1,0.4,0,0.8,0.4,0.9c0.1,0,0.2,0.1,0.3,0.1c0.3,0,0.5-0.2,0.7-0.4L57,4
		c0.2-0.6,0.5-1,0.9-1.2c0.3-0.2,0.7-0.1,1.1,0c1,0.4,0.5,2.1,0.4,2.2c0,0,0,0,0,0c-0.5,1.1-3.1,7.7-3.2,8c-0.1,0.4,0,0.8,0.4,0.9
		c0.4,0.1,0.8,0,0.9-0.4c0-0.1,2.7-7,3.2-8c0,0,0,0,0-0.1C61,5,61.5,4.4,62,4.2c0.3-0.1,0.5-0.1,0.8,0c1,0.5,0.2,2.4,0.2,2.4
		l-3.4,8.3c-0.1,0.3-0.1,0.6,0.1,0.8c0.1,0.1,0.1,0.1,0.2,0.1c0,0,0,0,0,0c0,0,0,0,0,0c0.1,0,0.1,0,0.2,0c0,0,0,0,0,0c0,0,0,0,0,0
		c0,0,0.1,0,0.1,0c0,0,0.1,0,0.1,0c0,0,0,0,0.1,0c3.1-1.4,5.4-1.9,5.9-1.4C66.6,14.6,66.6,14.8,66.6,15z"/>
</g>
</svg>
