<?xml version="1.0" encoding="utf-8"?>
<svg version="1.1" id="the-uruma-yoshiya-dialogue-1" xmlns="http://www.w3.org/2000/svg" xmlns:xlink="http://www.w3.org/1999/xlink" x="0px"
	 y="0px" viewBox="0 0 164 241" style="enable-background:new 0 0 164 241;" xml:space="preserve">
<style type="text/css">
	.st0{fill:#FFF8EE;}
	.st1{fill:#121659;}
	.st2{fill:#E84572;}
	.st3{fill:#231815;}
</style>
<g>
	<polyline class="st0" points="3,217.7 33.8,167 42.5,176.5 54.2,152.8 49.1,68.5 69,18.8 113.5,1.3 142.5,18.4 162.7,51.5 
		162.2,123.4 162.2,195.2 144.5,239.5 85.2,236.9 61.8,215 57.3,183.7 45.8,197.1 35.5,186.3 3,217.7 	"/>
	<g>
		<path class="st1" d="M129.6,57.3h7.5v1.1h2.2V43.8h-11.8v14.6h2.1V57.3z M129.6,45.8h7.5v3.6h-7.5V45.8z M129.6,51.5h7.5v3.8h-7.5
			V51.5z"/>
		<path class="st1" d="M125.2,73.1c0.5,0.4,1.1,1.2,1.5,1.7c0.9-0.6,1.8-1.3,2.6-2.2v1.8h2.9v2.9h2.1v-2.9h2.8v-1.9
			c0.8,0.9,1.8,1.7,2.8,2.3c0.4-0.6,1.1-1.4,1.6-1.8c-2.4-1.3-4.6-3.6-5.9-6.1h5.2v-2h-6.4v-3.3h-2.1v3.3h-6.4v2h5.2
			C129.8,69.4,127.6,71.8,125.2,73.1z M134.4,68.6c0.8,1.4,1.7,2.6,2.7,3.7h-2.7V68.6z M132.3,68.7v3.7h-2.7
			C130.6,71.3,131.5,70,132.3,68.7z"/>
		<path class="st1" d="M132.2,80.1V83h-5.8v8.5h2v-0.9h3.8v5.3h2.1v-5.3h3.8v0.8h2.1V83h-5.9v-2.9H132.2z M132.2,88.6h-3.8V85h3.8
			V88.6z M138.2,85v3.6h-3.8V85H138.2z"/>
		<path class="st1" d="M128.3,113.1c1.5-2.4,2.7-6.3,3.3-8.8c0.5,0,0.9-0.1,1.1-0.1c1,0,1.6,0.2,1.6,1.5c0,1.6-0.2,3.6-0.7,4.5
			c-0.3,0.5-0.7,0.7-1.2,0.7c-0.4,0-1.4-0.2-2-0.4l0.4,2.2c0.5,0.1,1.3,0.2,2,0.2c1.3,0,2.2-0.4,2.7-1.5c0.7-1.4,0.9-4.1,0.9-6
			c0-2.4-1.2-3.1-3-3.1c-0.3,0-0.8,0-1.4,0.1l0.3-1.7c0.1-0.4,0.2-0.9,0.3-1.4l-2.4-0.3c0,1-0.1,2.2-0.3,3.5
			c-0.8,0.1-1.6,0.1-2.1,0.1c-0.6,0-1.2,0.1-1.7,0l0.2,2.2c0.5-0.1,1.4-0.2,1.8-0.3c0.3,0,0.8-0.1,1.4-0.2c-0.6,2.2-1.7,5.5-3.3,7.7
			L128.3,113.1z"/>
		<path class="st1" d="M138.4,101l-2,0.8c1.2,1.5,2.3,4.4,2.8,6.3l2.1-1C140.8,105.5,139.4,102.4,138.4,101z"/>
		<path class="st1" d="M130.1,119.1c1.3,0.3,4.9,1.1,6.6,1.3l0.5-2c-1.4-0.2-5-0.8-6.6-1.3L130.1,119.1z"/>
		<path class="st1" d="M129.7,129.1l0.6,2.2c6.8,0.6,9.2-1.7,9.2-4.7c0-2-1.7-3.8-4.6-3.8c-1.7,0-3.3,0.5-4.8,1.6
			c0.1-0.9,0.4-2.9,0.6-3.8l-2.2-0.3c-0.1,2-0.5,5.3-0.8,6.9l1.9,0.5c0.2-0.3,0.3-0.6,0.6-0.9c1-1.2,2.7-1.9,4.5-1.9
			c1.5,0,2.5,0.8,2.5,1.8C137.2,128.5,134.6,129.7,129.7,129.1z"/>
		<path class="st1" d="M141,138.2l-1.5-1c-0.5,0.6-1.2,1.3-1.9,1.8c-0.3-0.3-0.5-0.6-0.8-0.9c0.7-0.5,1.5-1.2,2.2-1.8l-1.5-1.1
			c-0.4,0.5-0.9,1.1-1.5,1.6c-0.3-0.6-0.6-1.2-0.8-1.8l-1.8,0.5c0.7,2,1.8,3.8,3.1,5.2h-6.1c1.2-1.2,2.2-2.7,2.8-4.5l-1.4-0.6
			l-0.4,0.1H127v1.7h3.5c-0.3,0.5-0.7,1.1-1.1,1.5c-0.5-0.4-1.1-0.9-1.6-1.3l-1.3,1.1c0.6,0.4,1.2,1,1.7,1.4
			c-0.9,0.7-1.8,1.3-2.8,1.7c0.4,0.4,0.9,1.1,1.2,1.5c0.8-0.4,1.5-0.8,2.3-1.3v0.6h1.4v1.9h-3.6v1.8h3.4c-0.4,1.1-1.4,2.2-3.8,2.9
			c0.4,0.4,1,1.2,1.3,1.6c3.1-1.1,4.3-2.7,4.6-4.5h2.2v1.8c0,1.9,0.5,2.5,2.3,2.5h1.8c1.5,0,2-0.7,2.2-2.9c-0.6-0.1-1.4-0.5-1.8-0.8
			c-0.1,1.6-0.2,1.9-0.6,1.9h-1.3c-0.5,0-0.5-0.1-0.5-0.7v-1.8h3.6v-1.8h-3.6v-1.9h1.5v-0.5c0.6,0.5,1.3,0.9,2.1,1.3
			c0.3-0.5,0.9-1.3,1.4-1.7c-1-0.4-1.8-0.9-2.6-1.5C139.5,139.5,140.3,138.8,141,138.2z M134.3,144.5h-2.1v-1.9h2.1V144.5z"/>
		<polygon class="st1" points="139.1,167.2 137.7,167.2 137.7,163.9 140.6,163.9 140.6,160 138.9,160 138.9,162.3 137.7,162.3 
			137.7,159.2 136,159.2 136,162.3 134.9,162.3 134.9,160 133.4,160 133.4,163.9 136,163.9 136,167.2 134.7,167.2 134.7,164.7 
			133.1,164.7 133.1,169.4 134.7,169.4 134.7,168.8 139.1,168.8 139.1,169.3 140.8,169.3 140.8,164.7 139.1,164.7 		"/>
		<path class="st1" d="M129.2,167.3V163c0.5-0.2,1.1-0.3,1.6-0.5l-0.3-1.8l-1.4,0.4v-2.4h1.5v-1.8h-1.5v-3.2h-1.8v3.2h-1.8v1.8h1.8
			v2.9c-0.8,0.2-1.5,0.4-2,0.5l0.4,1.9c0.5-0.1,1.1-0.3,1.6-0.5v3.7c0,0.2-0.1,0.3-0.3,0.3c-0.2,0-0.8,0-1.4,0
			c0.2,0.5,0.4,1.4,0.5,1.9c1.1,0,1.8-0.1,2.4-0.4C129,168.7,129.2,168.2,129.2,167.3z"/>
		<path class="st1" d="M132.9,159.7V159h7.8v-4.7H131v5.4c0,2.6-0.1,6.2-1.7,8.7c0.4,0.2,1.2,0.8,1.6,1.1
			C132.6,166.8,132.9,162.5,132.9,159.7z M132.9,155.9h5.9v1.4h-5.9V155.9z"/>
		<path class="st1" d="M133.1,184.3c-1.3,0-2.3-0.5-2.3-2.2c0-2,0.1-5.7,0.2-7.5c0-0.6,0.1-1.5,0.2-2.2l-2.6,0
			c0.1,0.7,0.2,1.4,0.2,2.2c0,1.4-0.2,5.7-0.2,7.9c0,2.8,1.7,4,4.4,4c3.8,0,6.1-2.2,7.1-3.8l-1.5-1.8
			C137.5,182.7,135.8,184.3,133.1,184.3z"/>
		<path class="st1" d="M134.5,200.8c0-0.4,0.1-0.9,0.2-1.4l-2-0.2c-0.1,0.6-0.3,1.4-0.3,2.2c0,1.7,1.4,2.6,4.2,2.6
			c1.3,0,2.4-0.1,3.4-0.2l0.1-2.1c-1.2,0.2-2.3,0.3-3.4,0.3C134.9,202,134.5,201.5,134.5,200.8z"/>
		<path class="st1" d="M133.7,197.2c1-0.1,2-0.2,3.2-0.2c1,0,2,0.1,2.8,0.2l0.1-2c-1-0.1-2-0.2-2.9-0.2c-1.1,0-2.2,0.1-3.2,0.2
			V197.2z"/>
		<path class="st1" d="M135,191.9c-0.9,0.2-1.8,0.4-2.7,0.5l0.1-0.6c0.1-0.4,0.2-1.1,0.3-1.6l-2.5-0.2c0,0.4,0,1-0.1,1.7
			c0,0.3-0.1,0.6-0.2,0.9c-0.5,0-1,0.1-1.5,0.1c-0.7,0-1.2,0-2.1-0.1l0.1,2c0.6,0,1.2,0.1,2,0.1c0.3,0,0.7,0,1.1,0
			c-0.1,0.5-0.2,0.9-0.3,1.4c-0.6,2.3-1.9,5.7-2.9,7.4l2.3,0.8c0.9-1.9,2-5.3,2.6-7.6c0.2-0.7,0.4-1.4,0.5-2.1
			c1.1-0.1,2.2-0.3,3.2-0.5V191.9z"/>
		<polygon class="st1" points="102.6,46.8 112.3,46.8 112.3,50.5 114.3,50.5 114.3,44.9 102.6,44.9 		"/>
		<polygon class="st1" points="109.9,184.7 100.2,184.7 100.2,181.1 98.2,181.1 98.2,186.7 109.9,186.7 		"/>
		<path class="st1" d="M101.6,201.6c-0.1-0.3-0.1-0.7-0.1-1.1c0-1.6,0.5-5.2,0.8-6.3c0.1-0.3,0.3-1.1,0.4-1.5l-2.3-0.2
			c0,0.5-0.1,1.2-0.2,1.6c-0.2,1.3-0.7,4.3-0.7,6.8c0,2.2,0.3,4.1,0.7,5.2l1.9-0.1c0-0.2,0-0.5,0-0.7c0-0.2,0.1-0.5,0.1-0.8
			c0.2-0.9,0.7-2.6,1.2-3.9l-1-0.8C102.1,200.4,101.8,201,101.6,201.6z"/>
		<path class="st1" d="M110.5,197.2c0.9-0.1,1.8-0.2,2.6-0.3v-2c-0.8,0.2-1.7,0.3-2.6,0.4c0-0.7,0-1.3,0-1.7c0-0.4,0.1-0.7,0.1-1.1
			h-2.4c0.1,0.3,0.1,0.8,0.1,1.1c0,0.4,0,1,0,1.8c-0.4,0-0.8,0-1.1,0c-1,0-1.9-0.1-2.9-0.2v2c1,0.1,1.9,0.1,2.9,0.1
			c0.4,0,0.8,0,1.2,0c0,1.2,0.1,2.4,0.1,3.4c-0.4-0.1-0.7-0.1-1.1-0.1c-2.2,0-3.6,1.1-3.6,2.8c0,1.7,1.4,2.7,3.7,2.7
			c2.2,0,3.1-1.1,3.2-2.7c0.7,0.5,1.3,1,2,1.7l1.1-1.7c-0.8-0.7-1.8-1.6-3.2-2.1C110.6,200.1,110.6,198.8,110.5,197.2z M108.7,202.7
			c0,1-0.3,1.5-1.3,1.5c-0.9,0-1.5-0.3-1.5-1c0-0.6,0.6-1,1.6-1c0.4,0,0.9,0.1,1.3,0.2V202.7z"/>
		<path class="st1" d="M78.8,49.5v5.4c0,0.7-0.1,1.8-0.1,2.2h2.6c-0.1-0.4-0.1-1.4-0.1-2.2v-6.8c1.6-1.1,3.1-2.3,4.4-3.6L83.8,43
			c-0.9,1.2-2.7,2.7-4.3,3.7c-1.9,1.2-4.7,2.4-7.6,3l1.2,2C75,51.2,77.1,50.4,78.8,49.5z"/>
		<path class="st1" d="M85.3,64.4l-1.4-0.7c-0.4,0.1-0.8,0.1-1.3,0.1h-3.1c0-0.5,0.1-1,0.1-1.5c0-0.4,0.1-1.1,0.1-1.5h-2.4
			c0.1,0.4,0.1,1.2,0.1,1.5c0,0.5,0,1,0,1.5H75c-0.6,0-1.5-0.1-2.2-0.1v2.2c0.7-0.1,1.6-0.1,2.2-0.1h2.2c-0.4,2.5-1.2,4.4-2.7,5.9
			c-0.7,0.7-1.5,1.2-2.2,1.6l1.9,1.5c3-2.1,4.6-4.7,5.1-9.1h3.8c0,1.8-0.2,5.1-0.7,6.2c-0.2,0.4-0.4,0.6-0.9,0.6
			c-0.7,0-1.5-0.1-2.3-0.2l0.3,2.2c0.8,0.1,1.8,0.1,2.8,0.1c1.1,0,1.8-0.4,2.1-1.3c0.7-1.7,0.9-6.3,1-8.1
			C85.2,65,85.3,64.6,85.3,64.4z"/>
		<path class="st1" d="M83.8,79.1l-1.3,0.5c0.4,0.5,0.8,1.3,1.1,2l-1.5,0.6c1.2,1.5,2.3,4.4,2.8,6.2l2.1-1c-0.5-1.5-1.7-4.2-2.7-5.7
			l0.8-0.4C84.8,80.8,84.2,79.7,83.8,79.1z"/>
		<path class="st1" d="M73.8,85.1c0.3,0,0.8-0.1,1.4-0.2c-0.6,2.2-1.7,5.5-3.3,7.7l2.2,0.9c1.5-2.4,2.7-6.3,3.3-8.8
			c0.5,0,0.9-0.1,1.1-0.1c1.1,0,1.6,0.2,1.6,1.5c0,1.6-0.2,3.6-0.7,4.5c-0.3,0.5-0.7,0.7-1.2,0.7c-0.4,0-1.4-0.2-2-0.3l0.4,2.2
			c0.6,0.1,1.4,0.2,2,0.2c1.3,0,2.2-0.4,2.7-1.5c0.7-1.4,0.9-4,0.9-6c0-2.4-1.2-3.1-3-3.1c-0.3,0-0.8,0-1.4,0.1l0.3-1.7
			c0.1-0.4,0.2-0.9,0.3-1.4L76,79.5c0,1.1-0.1,2.2-0.4,3.5c-0.8,0.1-1.6,0.1-2.1,0.1c-0.6,0-1.2,0.1-1.8,0l0.2,2.2
			C72.4,85.3,73.3,85.2,73.8,85.1z"/>
		<path class="st1" d="M84.5,78.9c0.4,0.6,1,1.6,1.3,2.3l1.3-0.6c-0.3-0.6-0.9-1.6-1.3-2.3L84.5,78.9z"/>
		<path class="st1" d="M85,101.4l-1.2,0.5c0.5,0.7,0.9,1.3,1.4,2.2l1.2-0.6C86,102.9,85.4,101.9,85,101.4z"/>
		<path class="st1" d="M85.4,98.5c-1.2,0-2.9,0.1-4.6,0.3c-3,0.3-5.7,0.5-7.1,0.6c-0.3,0-1,0.1-1.6,0.1l0.2,2.3
			c1.9-0.4,5.4-0.8,6.8-0.9c-1.1,0.8-2.4,2.6-2.4,5c0,3.6,3.3,5.4,6.7,5.6l0.8-2.3c-2.8-0.1-5.3-1.1-5.3-3.8c0-1.9,1.5-4,3.5-4.6
			c0.9-0.2,2.3-0.2,3.2-0.2L85.4,98.5z"/>
		<path class="st1" d="M83.2,104.9l1.3-0.6c-0.3-0.7-0.9-1.7-1.3-2.3l-1.2,0.5C82.4,103.4,82.8,104,83.2,104.9z"/>
		<path class="st1" d="M86,125.1l-1.5-1.8c-1.2,1.8-2.9,3.4-5.6,3.4c-1.3,0-2.3-0.5-2.3-2.2c0-2,0.1-5.7,0.2-7.5
			c0-0.6,0.1-1.5,0.2-2.2l-2.6,0c0.1,0.7,0.2,1.4,0.2,2.2c0,1.4-0.2,5.7-0.2,7.9c0,2.8,1.7,4,4.4,4C82.6,128.9,84.9,126.7,86,125.1z
			"/>
		<path class="st1" d="M86.2,141.6c-0.9-0.8-2.3-1.7-4-2.2c-0.1-0.9-0.1-1.9-0.1-2.6c1.1,0,2.6-0.1,3.6-0.2l-0.1-1.8
			c-1,0.1-2.5,0.2-3.6,0.2v-0.8c0-0.6,0.1-1.3,0.1-1.6h-2.2c0.1,0.3,0.1,1,0.1,1.6c0,0.6,0,1.6,0,2.2c0,0.7,0.1,1.7,0.1,2.6
			c-0.2,0-0.5,0-0.7,0c-2.4,0-3.7,1.1-3.7,2.6c0,1.7,1.5,2.5,3.6,2.5c2.2,0,2.9-1.1,2.9-2.3v-0.4c1.1,0.5,2,1.3,2.7,2L86.2,141.6z
			 M80.4,141.1c0,0.7-0.3,1.2-1,1.2c-0.9,0-1.6-0.3-1.6-0.8c0-0.5,0.5-0.9,1.6-0.9c0.3,0,0.7,0,1,0.1V141.1z"/>
		<path class="st1" d="M75.5,160.5l1.2,2c4.6-0.6,7.8-2.8,7.8-6.3c0-2.6-1.8-4-4.4-4c-1.9,0-3.8,0.5-5,0.7c-0.5,0.1-1.2,0.2-1.8,0.3
			l0.6,2.3c0.5-0.2,1.1-0.4,1.6-0.6c0.8-0.3,2.5-0.8,4.3-0.8c1.6,0,2.4,0.9,2.4,2C82.2,158.7,79.6,160.1,75.5,160.5z"/>
		<path class="st1" d="M82.8,151l0.3-2c-1.7,0-5.5-0.3-7.4-0.7l-0.3,2C77.3,150.6,80.9,150.9,82.8,151z"/>
		<path class="st1" d="M82.2,168.8c1.2,1.5,2.3,4.4,2.8,6.3l2.1-1c-0.5-1.6-1.9-4.7-2.9-6.1L82.2,168.8z"/>
		<path class="st1" d="M79.3,169.4c-0.3,0-0.8,0-1.4,0.1l0.3-1.7c0.1-0.4,0.2-0.9,0.3-1.4l-2.4-0.3c0,1-0.1,2.2-0.3,3.5
			c-0.8,0.1-1.6,0.1-2.1,0.1c-0.6,0-1.2,0.1-1.7,0l0.2,2.2c0.5-0.1,1.4-0.2,1.8-0.3c0.3,0,0.8-0.1,1.4-0.2c-0.6,2.2-1.7,5.5-3.3,7.7
			l2.2,0.9c1.5-2.4,2.7-6.3,3.3-8.8c0.5,0,0.9-0.1,1.1-0.1c1,0,1.6,0.2,1.6,1.5c0,1.6-0.2,3.6-0.7,4.5c-0.3,0.5-0.7,0.7-1.2,0.7
			c-0.4,0-1.4-0.2-2-0.4l0.4,2.2c0.5,0.1,1.3,0.2,2,0.2c1.3,0,2.2-0.4,2.7-1.5c0.7-1.4,0.9-4.1,0.9-6
			C82.2,170.2,81,169.4,79.3,169.4z"/>
		<path class="st1" d="M84.2,182c-1.5,0-2.7,1.2-2.7,2.7c0,1.5,1.2,2.7,2.7,2.7c1.5,0,2.7-1.2,2.7-2.7C86.9,183.2,85.7,182,84.2,182
			z M84.2,186.2c-0.8,0-1.5-0.7-1.5-1.5c0-0.8,0.7-1.5,1.5-1.5c0.8,0,1.5,0.7,1.5,1.5C85.7,185.5,85,186.2,84.2,186.2z"/>
	</g>
	<g>
		<path class="st2" d="M101.3,59.5v1.3h3.8v1.9h-4.7v1.8h4.7v2h-6v1.8h14.4v-1.8h-6.3v-2h4.7v-1.8h-4.7v-1.9h4v-1.3
			c0.6,0.4,1.2,0.8,1.8,1.1c0.4-0.6,0.8-1.3,1.3-1.8c-2.7-1.1-5.4-3.4-7.2-5.9H105c-1.3,2.1-4,4.7-6.9,6.1c0.5,0.4,1,1.2,1.3,1.6
			C100.1,60.3,100.7,59.9,101.3,59.5z M106.2,54.9c1,1.4,2.6,2.9,4.4,4.2h-8.6C103.7,57.8,105.2,56.2,106.2,54.9z"/>
		<path class="st2" d="M110.6,82.1h-1.2l0.9-0.5c-0.3-0.4-0.8-1-1.3-1.5h0.9v-1.7h-2.9v-1.6h3.2V75H102v1.8h3.2v1.6h-2.8v1.7h2.8v2
			h-3.4v1.6h8.8V82.1z M107.1,82.1v-2h1.6l-1,0.5c0.4,0.4,0.9,1,1.2,1.5H107.1z"/>
		<path class="st2" d="M113.3,72.3H99.1v15.2h2v-0.8h10v0.8h2.2V72.3z M111.2,84.7h-10V74.1h10V84.7z"/>
		<path class="st2" d="M111.1,96.8l-2.3,0.5c1.1,1,1.7,2.1,1.7,3.2c0,1.4-1.3,2.4-3.5,2.4c-1.6,0-2.4-0.7-2.4-2.1
			c0-0.3,0-0.7,0.1-1.1h0.6c1,0,2-0.1,2.9-0.2l0.1-2c-1.1,0.1-2.3,0.2-3.3,0.2h-0.1c0.1-0.7,0.2-1.5,0.3-2.2c1.4,0,2.2-0.1,3.2-0.2
			l0.1-1.9c-0.8,0.1-1.8,0.2-3,0.2l0.2-1.2c0.1-0.4,0.2-0.8,0.3-1.5l-2.3-0.1c0.1,0.5,0,1,0,1.5c0,0.4-0.1,0.8-0.1,1.3
			c-1.2-0.1-2.4-0.3-3.4-0.6l-0.1,1.9c1,0.3,2.1,0.5,3.3,0.6c-0.1,0.7-0.2,1.5-0.3,2.2c-1.1-0.1-2.2-0.3-3.3-0.7l-0.1,2
			c0.9,0.3,1.9,0.4,3.1,0.6c-0.1,0.7-0.1,1.2-0.1,1.6c0,2.8,1.8,3.9,4.4,3.9c3.6,0,5.8-1.8,5.8-4.3
			C112.7,99.4,112.2,98.3,111.1,96.8z"/>
		<path class="st2" d="M108.8,115.8l1.4-0.6c-0.3-0.6-1-1.8-1.4-2.5l-1.3,0.5C107.9,114,108.5,115.1,108.8,115.8z"/>
		<path class="st2" d="M107.9,108.7c-0.3,0.4-0.8,0.9-1.3,1.4c-1.1,1.1-3.4,2.9-4.7,4c-1.6,1.4-1.8,2.3-0.1,3.6
			c1.5,1.3,4,3.4,4.9,4.4c0.5,0.5,1,1,1.4,1.5l1.9-1.8c-1.6-1.6-4.8-4.1-6-5.1c-0.9-0.7-0.9-0.9,0-1.7c1.1-0.9,3.3-2.6,4.3-3.5
			c0.4-0.3,0.9-0.7,1.5-1.1L107.9,108.7z"/>
		<path class="st2" d="M110.8,112l-1.4,0.6c0.5,0.6,1.1,1.8,1.4,2.5l1.3-0.6C111.9,113.8,111.2,112.6,110.8,112z"/>
		<path class="st2" d="M103.1,139.2l1.2,1.9c4.4-0.8,7.2-3,7.2-7.6c0-3.6-1.8-5.9-4.1-5.9c-1.8,0-3.3,1.4-4,2.6
			c0.1-0.9,0.4-2.6,0.6-3.4l-2.2-0.1c0,0.5-0.1,1.1-0.1,1.7c-0.3,1.7-0.5,3.7-0.5,5.3c0,1.1,0.1,2.1,0.2,2.7l2-0.1
			c-0.1-0.8-0.1-1.3-0.1-1.7c0.1-2.2,1.8-5.1,3.7-5.1c1.4,0,2.2,1.4,2.2,3.9C109.4,137.4,106.8,138.6,103.1,139.2z"/>
		<path class="st2" d="M113.9,156.3v-1.7h-6.8v-0.7h5V148h-11.9v5.9h4.8v0.7h-6.5v1.7h4.3c-1.3,0.8-3.1,1.5-4.8,1.9
			c0.4,0.4,1,1.2,1.3,1.7c2-0.6,4.2-1.8,5.7-3.2v3.3h2v-3.4c1.5,1.5,3.7,2.7,5.8,3.3c0.3-0.5,0.9-1.3,1.3-1.7
			c-1.8-0.4-3.6-1.1-5-1.9H113.9z M107.1,149.4h3.1v0.8h-3.1V149.4z M107.1,151.6h3.1v0.9h-3.1V151.6z M105.2,152.5h-3v-0.9h3V152.5
			z M105.2,150.3h-3v-0.8h3V150.3z"/>
		<polygon class="st2" points="110.1,147.7 110.1,146.9 113.8,146.9 113.8,145.2 110.1,145.2 110.1,144.2 108.1,144.2 108.1,145.2 
			104.2,145.2 104.2,144.2 102.3,144.2 102.3,145.2 98.8,145.2 98.8,146.9 102.3,146.9 102.3,147.7 104.2,147.7 104.2,146.9 
			108.1,146.9 108.1,147.7 		"/>
		<path class="st2" d="M107.3,169.1c1.9-1.1,4-2.7,5.4-4.2l-1.5-1.2l-0.5,0.1h-10.5v2h8.4c-0.7,0.6-1.6,1.2-2.4,1.7h-1v2.7h-6.7v2
			h6.7v4c0,0.3-0.1,0.4-0.5,0.4c-0.4,0-1.7,0-2.9-0.1c0.3,0.6,0.7,1.5,0.8,2.1c1.5,0,2.7,0,3.5-0.4c0.8-0.3,1.1-0.9,1.1-2v-4.1h6.7
			v-2h-6.7V169.1z"/>
	</g>
	<path class="st3" d="M163.8,50.9l-20.2-33.1c-0.1-0.2-0.3-0.3-0.5-0.4l-29-17.1c-0.3-0.2-0.8-0.2-1.1-0.1L68.5,17.6
		c-0.3,0.1-0.6,0.4-0.7,0.7L47.9,68.1c-0.1,0.2-0.1,0.4-0.1,0.6l5.1,84l-10.7,21.7l-7.4-8.1c-0.3-0.3-0.7-0.5-1.1-0.4
		c-0.4,0-0.8,0.3-1,0.6l-22.3,37.4L0,221.2l12.4-11.4l23.1-21.6l9.3,9.8c0.3,0.3,0.6,0.4,1,0.4c0.4,0,0.7-0.2,1-0.5l9.6-11.2
		l4.1,28.5c0,0.3,0.2,0.6,0.4,0.8l23.4,21.9c0.2,0.2,0.5,0.3,0.8,0.4l59.3,2.5c0,0,0,0,0.1,0c0.5,0,1-0.3,1.2-0.8l17.7-44.3
		c0.1-0.2,0.1-0.3,0.1-0.5v-71.7l0.5-71.9C164,51.3,163.9,51.1,163.8,50.9z M160.9,123.4v71.5l-17.3,43.2l-57.9-2.5L63,214.4
		l-4.4-30.9c-0.1-0.5-0.4-0.9-0.9-1.1c-0.5-0.1-1,0-1.4,0.4l-10.6,12.3l-9.3-9.8c-0.2-0.3-0.6-0.4-0.9-0.4c0,0,0,0,0,0
		c-0.4,0-0.7,0.1-0.9,0.4l-24.5,23L34,169.2l7.5,8.2c0.3,0.3,0.7,0.5,1.1,0.4c0.4-0.1,0.8-0.3,1-0.7l11.7-23.7
		c0.1-0.2,0.1-0.4,0.1-0.7l-5.1-84L70,19.8l43.4-17.1l28.2,16.6l19.8,32.5L160.9,123.4z"/>
</g>
</svg>
