<?xml version="1.0" encoding="utf-8"?>
<svg version="1.1" id="the-element-ikauriko-1-hand"
	 xmlns="http://www.w3.org/2000/svg" xmlns:xlink="http://www.w3.org/1999/xlink" x="0px" y="0px" viewBox="0 0 90 66"
	 style="enable-background:new 0 0 90 66;" xml:space="preserve">
<style type="text/css">
	.st0{fill:#97D2CE;}
	.st1{fill:#FFF8EE;}
	.st2{fill:#FFFFFF;}
	.st3{fill:#E84572;}
	.st4{fill:#231815;}
</style>
<g>
	<path class="st0" d="M46.8,44.3c-4.9,9.1-15.1,14.2-15.1,14.2s-10.8,6.8-30.3,6.8V47.2C22.8,47.2,30,45,30,45s8.1-2,13.6-4.8"/>
	<path class="st0" d="M43.5,40.2c0,0.3,0,0.5,0.1,0.8c0.4,1.7,1.6,2.9,3.2,3.4"/>
	<path class="st1" d="M49.2,44.4c2.5-0.6,4.1-3.1,3.5-5.6s-3.1-4.1-5.6-3.5c-2.3,0.5-3.7,2.6-3.6,4.9c0,0.3,0,0.5,0.1,0.8
		c0.4,1.7,1.6,2.9,3.2,3.4C47.6,44.5,48.4,44.6,49.2,44.4z"/>
	<polygon class="st2" points="89.3,59.3 47.9,59.3 47.9,53.7 49.2,50.4 49.2,9.7 47.9,6.4 47.9,0.8 89.3,0.8 89.3,6.4 88,9.7 
		88,50.4 89.3,53.7 	"/>
	<path class="st3" d="M76.5,20.4h8.1V9.9H73.7v2.7h-9V9.9H53.9v10.6h9.3v2.9h-9.3v10.8h9.3V37h-9.3v10.5h9.3v2.7h12.1v-2.7h9.3V37
		h-9.3v-2.9h9.3V23.3h-9.3v-2.9H76.5z M73.7,30.3h-9v-3.4h9V30.3z"/>
	<rect x="60.7" y="15.9" class="st2" width="15.8" height="28.2"/>
	<g>
		<path class="st4" d="M88.7,9.8L90,6.7V0.1H47.2v6.5l1.3,3.2v24.8c-0.5,0-1.1,0-1.6,0.1c-2.4,0.6-4.1,2.7-4.1,5.1
			c-5.4,2.7-13,4.6-13.1,4.6s-7.4,2.2-28.4,2.2c-0.4,0-0.7,0.3-0.7,0.7v18c0,0.4,0.3,0.7,0.7,0.7c19.5,0,30.2-6.7,30.6-6.9
			s10.1-5,15.2-14c0.3,0.1,0.7,0.1,1,0.1c0.1,0,0.2,0,0.4,0v5l-1.3,3.3v6.5H90v-6.5l-1.3-3.2V9.8z M88.3,53H48.9l1-2.4v-6
			c0-0.1,0-0.2,0-0.3l0,0V9.6l-1-2.4h39.3l-0.9,2.3v41.2L88.3,53z M88.6,1.5v4.2h-40V1.5H88.6z M31.3,57.9C31.2,58,20.7,64.4,2,64.6
			V47.9c20.7,0,27.8-2.2,28-2.2c0.3-0.1,7.4-1.8,12.9-4.5c0.4,1.5,1.4,2.8,2.8,3.4C40.9,53,31.4,57.8,31.3,57.9z M47,43.6
			c-1.3-0.4-2.4-1.5-2.7-2.9c-0.1-0.2-0.1-0.4-0.1-0.6c-0.1-1.9,1.1-3.7,3-4.1c0.4-0.1,0.8-0.1,1.3-0.1v7.9
			C48,43.8,47.5,43.8,47,43.6z M48.6,58.6v-4.2h40v4.2H48.6z"/>
		<path class="st4" d="M84.5,9.2H73.7c-0.4,0-0.7,0.3-0.7,0.7v2h-7.6v-2c0-0.4-0.3-0.7-0.7-0.7H53.9c-0.4,0-0.7,0.3-0.7,0.7v10.6
			c0,0.4,0.3,0.7,0.7,0.7H60v1.5h-6.2c-0.4,0-0.7,0.3-0.7,0.7v10.8c0,0.4,0.3,0.7,0.7,0.7H60v1.5h-6.2c-0.4,0-0.7,0.3-0.7,0.7v10.5
			c0,0.4,0.3,0.7,0.7,0.7h8.6v2c0,0.4,0.3,0.7,0.7,0.7h12.1c0.4,0,0.7-0.3,0.7-0.7v-2h8.6c0.4,0,0.7-0.3,0.7-0.7V37
			c0-0.4-0.3-0.7-0.7-0.7h-7.4v-1.5h7.4c0.4,0,0.7-0.3,0.7-0.7V23.3c0-0.4-0.3-0.7-0.7-0.7h-7.4v-1.5h7.4c0.4,0,0.7-0.3,0.7-0.7V9.9
			C85.2,9.5,84.9,9.2,84.5,9.2z M61.4,43.4V16.6h14.4v26.8H61.4z M73,13.2v2.1h-7.6v-2.1H73z M54.6,19.7v-9.1H64v4.6h-4v4.5H54.6z
			 M54.6,33.4V24H60v9.4H54.6z M54.6,37.7H60v7.1h4v2h-9.4V37.7z M74.6,49.6H63.9v-1.3h0.8c0.4,0,0.7-0.3,0.7-0.7v-2.8H73v2.8
			c0,0.4,0.3,0.7,0.7,0.7h0.9V49.6z M83.8,37.7v9.2h-9.4v-2.1h2.8v-7.1H83.8z M83.8,24v9.4h-6.7V24C77.1,24,83.8,24,83.8,24z
			 M83.8,19.7h-6.7v-4.5h-2.8v-2.8v-2h9.4L83.8,19.7L83.8,19.7z"/>
	</g>
</g>
</svg>
