<?xml version="1.0" encoding="utf-8"?>
<svg version="1.1" id="the-element-tokei-1" xmlns="http://www.w3.org/2000/svg" xmlns:xlink="http://www.w3.org/1999/xlink" x="0px"
	 y="0px" viewBox="0 0 362 321" style="enable-background:new 0 0 362 321;" xml:space="preserve">
<style type="text/css">
	.st0{fill:#FFF8EE;}
	.st1{fill:#EE795E;}
	.st2{fill:#121659;}
	.st3{fill:#97D2CE;}
	.st4{fill:#FFFFFF;}
	.st5{fill:#231815;}
</style>
<g>
	<polygon class="st0" points="351.9,303.6 219.1,303.6 219.1,303.6 345.8,303.6 345.8,174.8 298.2,174.8 181,80.5 63.8,174.8 
		16.8,174.8 16.8,303.6 142.9,303.6 142.9,303.6 10.1,303.6 10.1,311.3 131.1,311.3 128.4,316.7 128.4,320.3 233.6,320.3 
		233.6,316.7 230.9,311.3 351.9,311.3 	"/>
	<polygon class="st0" points="160.9,17.2 168.3,11.1 138.7,17.2 	"/>
	<polygon class="st0" points="201.1,17.2 193.7,11.1 223.2,17.2 	"/>
	<polygon class="st1" points="181,6.9 199.5,22 220.9,22 223.2,17.2 201.1,17.2 181,0.7 160.9,17.2 138.7,17.2 141.1,22 162.5,22 	
		"/>
	<polygon class="st2" points="149.9,29.2 141.1,21.9 162.5,21.9 181,7 199.5,22 220.8,22 212.2,29.2 	"/>
	<polygon class="st0" points="210.7,88 210.7,80 206.8,80 206.8,26 155.2,26 155.2,80 151.3,80 151.3,88 145.2,106.6 216.8,106.6 	
		"/>
	<rect x="159" y="31.9" class="st3" width="44" height="48.1"/>
	<circle class="st0" cx="181" cy="56.2" r="17.5"/>
	<polygon class="st1" points="339.8,126.9 243.8,126.9 181,76.4 118.2,126.9 22.2,126.9 0.7,171.2 0.7,174.8 63.8,174.8 181,80.5 
		298.2,174.8 361.3,174.8 361.3,171.2 	"/>
	<polygon class="st1" points="174.1,93 175.2,96.1 178.4,96.1 175.8,98 176.8,101.1 174.1,99.2 171.5,101.1 172.5,98 169.9,96.1 
		173.1,96.1 	"/>
	<polygon class="st1" points="187.8,93 188.8,96.1 192.1,96.1 189.5,98 190.5,101.1 187.8,99.2 185.2,101.1 186.2,98 183.6,96.1 
		186.8,96.1 	"/>
	<rect x="37.7" y="192.3" class="st3" width="14.9" height="14.5"/>
	<rect x="37.7" y="209.6" class="st3" width="14.9" height="14.5"/>
	<polygon class="st1" points="59.3,184.1 31,184.1 33.6,188.2 56.7,188.2 	"/>
	<rect x="37.7" y="254.1" class="st3" width="14.9" height="14.5"/>
	<rect x="37.7" y="271.4" class="st3" width="14.9" height="14.5"/>
	<polygon class="st1" points="59.3,245.9 31,245.9 33.6,250 56.7,250 	"/>
	<rect x="103.2" y="188.3" class="st3" width="14.9" height="14.5"/>
	<rect x="103.2" y="205.7" class="st3" width="14.9" height="14.5"/>
	<rect x="103.2" y="252.3" class="st3" width="14.9" height="14.5"/>
	<rect x="103.2" y="269.6" class="st3" width="14.9" height="14.5"/>
	<polygon class="st1" points="124.8,244.1 96.5,244.1 99.1,248.2 122.2,248.2 	"/>
	<rect x="173.6" y="185.7" class="st3" width="14.9" height="14.5"/>
	<rect x="173.6" y="203" class="st3" width="14.9" height="14.5"/>
	<rect x="244.3" y="188.3" class="st3" width="14.9" height="14.5"/>
	<rect x="244.3" y="205.7" class="st3" width="14.9" height="14.5"/>
	<rect x="244.3" y="252.3" class="st3" width="14.9" height="14.5"/>
	<rect x="244.3" y="269.6" class="st3" width="14.9" height="14.5"/>
	<polygon class="st1" points="265.8,244.1 237.6,244.1 240.2,248.2 263.2,248.2 	"/>
	<rect x="309.5" y="192.3" class="st3" width="14.9" height="14.5"/>
	<rect x="309.5" y="209.6" class="st3" width="14.9" height="14.5"/>
	<polygon class="st1" points="331.1,184.1 302.8,184.1 305.4,188.2 328.5,188.2 	"/>
	<rect x="309.5" y="254.1" class="st3" width="14.9" height="14.5"/>
	<rect x="309.5" y="271.4" class="st3" width="14.9" height="14.5"/>
	<polygon class="st1" points="331.1,245.9 302.8,245.9 305.4,250 328.5,250 	"/>
	<rect x="168.7" y="259.4" class="st2" width="24.6" height="41.8"/>
	<polygon class="st1" points="226.7,245.7 181,228.6 135.3,245.7 	"/>
	<polygon class="st0" points="181,234.8 188.7,234.8 181,213.7 173.3,234.8 181,234.8 	"/>
	<polygon class="st1" points="181,224.5 182,227.6 185.3,227.6 182.6,229.5 183.6,232.6 181,230.7 178.4,232.6 179.4,229.5 
		176.7,227.6 180,227.6 	"/>
	<rect x="163.9" y="125.5" class="st2" width="34.2" height="13"/>
	<polygon class="st4" points="301.9,132.1 260.4,132.1 260.4,126.5 261.7,123.3 261.7,81.8 260.4,78.6 260.4,72.9 301.9,72.9 
		301.9,78.6 300.6,81.8 300.6,123.3 301.9,126.5 	"/>
	<path class="st1" d="M297.5,102.7h-2.9c0,0-2.6-9-1.1-21.2h3.7C297.2,81.5,295.1,89.8,297.5,102.7z"/>
	<path class="st1" d="M291.9,102.7H289c0,0-2.6-9-1.1-21.2h3.7C291.6,81.5,289.6,89.8,291.9,102.7z"/>
	<path class="st1" d="M286.4,102.7h-2.9c0,0-2.6-9-1.1-21.2h3.7C286.1,81.5,284,89.8,286.4,102.7z"/>
	<path class="st1" d="M280.8,102.7h-2.9c0,0-2.6-9-1.1-21.2h3.7C280.5,81.5,278.5,89.8,280.8,102.7z"/>
	<path class="st1" d="M275.3,102.7h-2.9c0,0-2.6-9-1.1-21.2h3.7C275,81.5,272.9,89.8,275.3,102.7z"/>
	<path class="st1" d="M269.7,102.7h-2.9c0,0-2.6-9-1.1-21.2h3.7C269.4,81.5,267.4,89.8,269.7,102.7z"/>
	<path class="st1" d="M264.4,102.8h2.9c0,0,2.6,9,1.1,21.2h-3.7C264.7,124,266.8,115.7,264.4,102.8z"/>
	<path class="st1" d="M270,102.8h2.9c0,0,2.6,9,1.1,21.2h-3.7C270.3,124,272.4,115.7,270,102.8z"/>
	<path class="st1" d="M275.5,102.8h2.9c0,0,2.6,9,1.1,21.2h-3.7C275.8,124,277.9,115.7,275.5,102.8z"/>
	<path class="st1" d="M281.1,102.8h2.9c0,0,2.6,9,1.1,21.2h-3.7C281.4,124,283.4,115.7,281.1,102.8z"/>
	<path class="st1" d="M286.6,102.8h2.9c0,0,2.6,9,1.1,21.2h-3.7C286.9,124,289,115.7,286.6,102.8z"/>
	<path class="st1" d="M292.2,102.8h2.9c0,0,2.6,9,1.1,21.2h-3.7C292.5,124,294.5,115.7,292.2,102.8z"/>
	<rect x="273.2" y="88.4" class="st4" width="15.8" height="28.3"/>
	<polygon class="st1" points="124.8,180.1 96.5,180.1 99.1,184.3 122.2,184.3 	"/>
	<polygon class="st1" points="195.1,177.5 166.9,177.5 169.5,181.6 192.5,181.6 	"/>
	<polygon class="st1" points="265.8,180.1 237.6,180.1 240.2,184.3 263.2,184.3 	"/>
	<g>
		<path class="st5" d="M199.2,56.2c0-10-8.2-18.2-18.2-18.2s-18.2,8.2-18.2,18.2S171,74.4,181,74.4S199.2,66.3,199.2,56.2z
			 M164.2,56.2c0-9.3,7.5-16.8,16.8-16.8c9.3,0,16.8,7.5,16.8,16.8S190.3,73,181,73C171.7,73,164.2,65.5,164.2,56.2z"/>
		<path class="st5" d="M192.6,56.7c0.4,0,0.7-0.3,0.7-0.7s-0.3-0.7-0.7-0.7h-10.9V44.8c0-0.4-0.3-0.7-0.7-0.7s-0.7,0.3-0.7,0.7V56
			c0,0.4,0.3,0.7,0.7,0.7H192.6z"/>
		<path class="st5" d="M362,171.1c0,0,0-0.1,0-0.1c0,0,0-0.1,0-0.1c0,0,0,0,0,0l-21.3-44.3c-0.1-0.2-0.4-0.4-0.6-0.4h-37.5l-1.2-3.1
			V82l1.2-3.1l0-6.6h-42.9v6.5L261,82v41.2l-1.2,3.1h-15.7l-27.3-22l-5.4-16.4V80c0-0.4-0.3-0.7-0.7-0.7h-3.2V29.9h4.6
			c0.2,0,0.3-0.1,0.4-0.2l8.8-7.2c0,0,0,0,0,0c0.1,0,0.1-0.1,0.1-0.2c0,0,0,0,0,0c0,0,0,0,0,0l2.3-4.8c0,0,0,0,0,0c0,0,0-0.1,0-0.1
			c0,0,0-0.1,0-0.1c0,0,0-0.1,0-0.1c0-0.1,0-0.2-0.1-0.3c0,0,0,0,0,0c0,0,0,0,0,0c-0.1-0.1-0.1-0.2-0.2-0.2c0,0-0.1,0-0.1,0
			c0,0-0.1,0-0.1-0.1l-29.4-6L181.4,0.2c-0.3-0.2-0.6-0.2-0.9,0L168,10.5l-29.4,6c0,0-0.1,0-0.1,0.1c0,0-0.1,0-0.1,0
			c-0.1,0.1-0.2,0.1-0.2,0.2c0,0,0,0,0,0c0,0,0,0,0,0c0,0.1-0.1,0.2-0.1,0.3c0,0,0,0.1,0,0.1c0,0,0,0.1,0,0.1c0,0,0,0.1,0,0.1
			c0,0,0,0,0,0l2.3,4.8c0,0,0,0,0,0c0,0,0,0,0,0c0,0.1,0.1,0.1,0.1,0.2c0,0,0,0,0,0l8.8,7.2c0.1,0.1,0.3,0.2,0.4,0.2h4.6v49.4h-3.2
			c-0.4,0-0.7,0.3-0.7,0.7v7.8l-5.4,16.4l-27.3,22H22c-0.3,0-0.5,0.2-0.6,0.4L0.1,170.9c0,0,0,0,0,0c0,0,0,0.1,0,0.1
			c0,0,0,0.1,0,0.1c0,0,0,0,0,0v3.6c0,0.4,0.3,0.7,0.7,0.7h15.4v127.5h-6c-0.4,0-0.7,0.3-0.7,0.7v7.7c0,0.4,0.3,0.7,0.7,0.7h119.8
			l-2.2,4.4c0,0,0,0,0,0c0,0.1-0.1,0.2-0.1,0.3v3.6c0,0.4,0.3,0.7,0.7,0.7h105.2c0.4,0,0.7-0.3,0.7-0.7v-3.6c0-0.1,0-0.2-0.1-0.3
			c0,0,0,0,0,0l-2.2-4.4h119.8c0.4,0,0.7-0.3,0.7-0.7v-7.7c0-0.4-0.3-0.7-0.7-0.7h-5.4V175.5h14.8c0.4,0,0.7-0.3,0.7-0.7L362,171.1
			C362,171.2,362,171.1,362,171.1z M261.4,79.3h39.5l-0.9,2.3l0,41.8l1,2.4h-39.5l0.9-2.3l0-41.8L261.4,79.3z M261.1,127.6h40.1v3.9
			h-40.1V127.6z M301.2,73.6v4.2h-40.1v-4.2H301.2z M259.7,127.6l0,5.3h42.9v-5.3h37l20.6,42.9h-61l-53.3-42.9H259.7z M214.7,102.6
			l-17.4-14h12.8L214.7,102.6z M210,87.3h-14.3l-8.2-6.6H203h3.7h3.2V87.3z M176.3,79.3h-16.6V32.6h42.6v46.7h-16.6l-4.3-3.5
			c-0.3-0.2-0.6-0.2-0.9,0L176.3,79.3z M159,31.2c-0.4,0-0.7,0.3-0.7,0.7v47.4h-2.3V26.7h50.1v2.4c0,0,0,0,0,0s0,0,0,0v50h-2.3V31.9
			c0-0.4-0.3-0.7-0.7-0.7H159z M216.4,16.5h-15l-5-4.1L216.4,16.5z M165.6,12.4l-5,4.1h-15L165.6,12.4z M160.9,17.9
			c0.2,0,0.3-0.1,0.4-0.2L181,1.6l19.7,16.1c0.1,0.1,0.3,0.2,0.4,0.2h21l-1.6,3.4h-20.7L181.4,6.4c-0.3-0.2-0.6-0.2-0.9,0
			l-18.3,14.9h-20.7l-1.6-3.4H160.9z M150.1,28.5l-7.1-5.8h19.5c0.2,0,0.3-0.1,0.4-0.2L181,7.8l18.1,14.7c0.1,0.1,0.3,0.2,0.4,0.2
			H219l-7.1,5.8h-4.4V26c0-0.4-0.3-0.7-0.7-0.7h-51.5c-0.4,0-0.7,0.3-0.7,0.7v2.5H150.1z M155.2,80.7h3.7h15.5l-8.2,6.6H152v-6.6
			H155.2z M151.8,88.7h12.8l-17.4,13.9L151.8,88.7z M22.4,127.6h93.8l-53.3,42.9h-61L22.4,127.6z M17.5,175.5h46.3
			c0.2,0,0.3-0.1,0.4-0.2l7-5.6v133.3H17.5V175.5z M148.8,107.3h64.4l72.1,58v137.6h-65.8l-1-2c-0.1-0.2-0.4-0.4-0.6-0.4h-1.6v-49.8
			h10.4c0.4,0,0.7-0.3,0.7-0.7v-4.3c0,0,0,0,0,0c0-0.1,0-0.1,0-0.2c0,0,0-0.1,0-0.1c0,0,0-0.1-0.1-0.1c0,0,0-0.1-0.1-0.1
			c0,0-0.1,0-0.1-0.1c0,0-0.1-0.1-0.1-0.1c0,0,0,0,0,0l-39.2-14.6l-2.9-8h7.6c0.4,0,0.7-0.3,0.7-0.7v-39.8l2.5-4
			c0.1-0.2,0.1-0.5,0-0.7s-0.4-0.4-0.6-0.4h-28.3c-0.3,0-0.5,0.1-0.6,0.4s-0.1,0.5,0,0.7l2.5,4v39.8c0,0.4,0.3,0.7,0.7,0.7h7.6
			l-2.9,8L135,245c0,0,0,0,0,0c-0.1,0-0.1,0.1-0.1,0.1c0,0-0.1,0-0.1,0.1c0,0-0.1,0.1-0.1,0.1c0,0-0.1,0.1-0.1,0.1c0,0,0,0.1,0,0.1
			c0,0.1,0,0.1,0,0.2c0,0,0,0,0,0v4.3c0,0.4,0.3,0.7,0.7,0.7h10.4v49.8h-1.6c-0.3,0-0.5,0.2-0.6,0.4l-1,2H76.7V165.3L148.8,107.3z
			 M150.5,105.9L181,81.4l30.5,24.5H150.5z M286.7,302.9V166.4l2.6,2.1v134.4H286.7z M226,311.4h-90l2.7-5.5h2.3l-0.9,1.9
			c-0.1,0.2-0.1,0.5,0,0.7s0.4,0.3,0.6,0.3h80.7c0.2,0,0.5-0.1,0.6-0.3c0.1-0.2,0.1-0.5,0-0.7l-0.9-1.9h2.3L226,311.4z M192.1,180.9
			h-22.3l-1.7-2.7h25.7L192.1,180.9z M170.2,182.3h21.6V221h-7.4l-1-2.7h5c0.4,0,0.7-0.3,0.7-0.7V203c0-0.4-0.3-0.7-0.7-0.7h-14.9
			c-0.4,0-0.7,0.3-0.7,0.7v14.5c0,0.4,0.3,0.7,0.7,0.7h5l-1,2.7h-7.4V182.3z M174.3,216.9V211h3.5v5.9H174.3z M182.8,203.7v5.9h-3.5
			v-5.9H182.8z M187.7,203.7v5.9h-3.5v-5.9H187.7z M187.7,211v5.9h-3.5V211H187.7z M177.8,209.6h-3.5v-5.9h3.5V209.6z M179.2,216.6
			V211h3.5v5.5l-1.1-3.1c-0.2-0.6-1.1-0.6-1.3,0L179.2,216.6z M181,215.8l4,11.1h-2.5l-0.9-2.6c-0.1-0.3-0.4-0.5-0.7-0.5
			s-0.6,0.2-0.7,0.5l-0.9,2.6H177L181,215.8z M182,229.7l0.3,1.1l-0.9-0.7c-0.1-0.1-0.3-0.1-0.4-0.1s-0.3,0-0.4,0.1l-0.9,0.7
			l0.3-1.1c0.1-0.3,0-0.6-0.3-0.8l-0.9-0.7h1.1c0.3,0,0.6-0.2,0.7-0.5l0.3-1.1l0.3,1.1c0.1,0.3,0.4,0.5,0.7,0.5h1.1l-0.9,0.7
			C182,229.1,181.9,229.4,182,229.7z M176.5,228.2l2.1,1.5l-0.9,2.6c-0.1,0.3,0,0.6,0.3,0.8c0.2,0.2,0.6,0.2,0.8,0l2.2-1.6l2.2,1.6
			c0.1,0.1,0.3,0.1,0.4,0.1s0.3,0,0.4-0.1c0.2-0.2,0.3-0.5,0.3-0.8l-0.9-2.6l2.1-1.5l2.1,5.9h-13.3L176.5,228.2z M172.8,235.2
			c0.1,0.2,0.3,0.3,0.6,0.3h15.3c0.2,0,0.4-0.1,0.6-0.3c0.1-0.2,0.2-0.4,0.1-0.6l-0.9-2.5l34.4,12.9h-83.7l34.4-12.9l-0.9,2.5
			C172.6,234.8,172.6,235,172.8,235.2z M136,246.4H226v2.9H136V246.4z M214.9,304.8h-0.8v-54.1h0.8V304.8z M192.6,300.5h-23.2v-40.4
			h23.2V300.5z M193.3,258.7h-24.6c-0.4,0-0.7,0.3-0.7,0.7v41.1h-18.7v-39.9l10.6-9.9h42.3l10.6,9.9v39.9H194v-41.1
			C194,259,193.7,258.7,193.3,258.7z M157.8,250.7l-8.5,8v-8H157.8z M212.7,258.7l-8.5-8h8.5V258.7z M147.9,250.7v54.1h-0.8v-54.1
			H147.9z M146.4,306.2h2.2c0.4,0,0.7-0.3,0.7-0.7v-3.6h19.4h24.6h19.4v3.6c0,0.4,0.3,0.7,0.7,0.7h2.2c0.4,0,0.7-0.3,0.7-0.7v-3.6
			h1.2l2.7,5.5h-78.4l2.7-5.5h1.2v3.6C145.7,305.9,146,306.2,146.4,306.2z M75.3,302.9h-2.6V168.5l2.6-2.1V302.9z M10.8,310.6v-6.3
			h131l-0.1,0.2h-3.4c-0.3,0-0.5,0.2-0.6,0.4l-2,4.2h-3.8c-0.3,0-0.5,0.2-0.6,0.4l-0.6,1.1H10.8z M129.1,319.6v-2.2h103.8v2.2H129.1
			z M129.5,316l2.7-5.5h2.7l-0.7,1.3c-0.1,0.2-0.1,0.5,0,0.7s0.4,0.3,0.6,0.3h92.2c0.2,0,0.5-0.1,0.6-0.3s0.1-0.5,0-0.7l-0.7-1.3
			h2.7l2.7,5.5H129.5z M351.2,310.6H231.4l-0.6-1.1c-0.1-0.2-0.4-0.4-0.6-0.4h-3.8l-2-4.2c-0.1-0.2-0.4-0.4-0.6-0.4h-3.4l-0.1-0.2
			h131V310.6z M345.1,302.9h-54.4V169.6l7.1,5.7c0.1,0.1,0.3,0.2,0.4,0.2h46.9V302.9z M360.6,174.1h-62.1L181.4,80
			c-0.3-0.2-0.6-0.2-0.9,0l-117,94.1H1.4v-2.2h61.7c0.2,0,0.3-0.1,0.4-0.2l54.9-44.2c0.2-0.1,0.3-0.2,0.4-0.3l62.2-50l62.2,50
			c0.1,0.1,0.2,0.2,0.4,0.3l54.9,44.2c0.1,0.1,0.3,0.2,0.4,0.2h61.7V174.1z"/>
		<path class="st5" d="M163.9,139.3h34.2c0.4,0,0.7-0.3,0.7-0.7v-13c0-0.4-0.3-0.7-0.7-0.7h-34.2c-0.4,0-0.7,0.3-0.7,0.7v13
			C163.2,138.9,163.5,139.3,163.9,139.3z M164.6,126.2h32.8v11.6h-32.8V126.2z"/>
		<path class="st5" d="M178.4,95.4h-2.8l-0.9-2.6c-0.1-0.3-0.4-0.5-0.7-0.5s-0.6,0.2-0.7,0.5l-0.9,2.6h-2.8c-0.3,0-0.6,0.2-0.7,0.5
			s0,0.6,0.3,0.8l2.2,1.6l-0.9,2.6c-0.1,0.3,0,0.6,0.3,0.8c0.2,0.2,0.6,0.2,0.8,0l2.2-1.6l2.2,1.6c0.1,0.1,0.3,0.1,0.4,0.1
			s0.3,0,0.4-0.1c0.2-0.2,0.3-0.5,0.3-0.8l-0.9-2.6l2.2-1.6c0.2-0.2,0.3-0.5,0.3-0.8S178.7,95.4,178.4,95.4z M175.1,98.2l0.3,1.1
			l-0.9-0.7c-0.1-0.1-0.3-0.1-0.4-0.1s-0.3,0-0.4,0.1l-0.9,0.7l0.3-1.1c0.1-0.3,0-0.6-0.3-0.8l-0.9-0.7h1.1c0.3,0,0.6-0.2,0.7-0.5
			l0.3-1.1l0.3,1.1c0.1,0.3,0.4,0.5,0.7,0.5h1.1l-0.9,0.7C175.1,97.6,175,97.9,175.1,98.2z"/>
		<path class="st5" d="M185.4,98.3l-0.9,2.6c-0.1,0.3,0,0.6,0.3,0.8c0.2,0.2,0.6,0.2,0.8,0l2.2-1.6l2.2,1.6c0.1,0.1,0.3,0.1,0.4,0.1
			s0.3,0,0.4-0.1c0.2-0.2,0.3-0.5,0.3-0.8l-0.9-2.6l2.2-1.6c0.2-0.2,0.3-0.5,0.3-0.8s-0.4-0.5-0.7-0.5h-2.8l-0.9-2.6
			c-0.1-0.3-0.4-0.5-0.7-0.5s-0.6,0.2-0.7,0.5l-0.9,2.6h-2.8c-0.3,0-0.6,0.2-0.7,0.5s0,0.6,0.3,0.8L185.4,98.3z M186.8,96.8
			c0.3,0,0.6-0.2,0.7-0.5l0.3-1.1l0.3,1.1c0.1,0.3,0.4,0.5,0.7,0.5h1.1l-0.9,0.7c-0.2,0.2-0.3,0.5-0.3,0.8l0.3,1.1l-0.9-0.7
			c-0.1-0.1-0.3-0.1-0.4-0.1s-0.3,0-0.4,0.1l-0.9,0.7l0.3-1.1c0.1-0.3,0-0.6-0.3-0.8l-0.9-0.7H186.8z"/>
		<path class="st5" d="M264,123.9c-0.1,0.2,0,0.4,0.1,0.6c0.1,0.2,0.3,0.3,0.6,0.3h3.7c0.4,0,0.7-0.3,0.7-0.6
			c1.3-10.3-0.3-18.3-0.9-20.7h1.1c2.2,12.3,0.2,20.4,0.2,20.5c-0.1,0.2,0,0.4,0.1,0.6c0.1,0.2,0.3,0.3,0.6,0.3h3.7
			c0.4,0,0.7-0.3,0.7-0.6c0.3-2.2,0.4-4.5,0.5-6.7h0.7c-0.2,4.1-0.8,6.4-0.8,6.5c-0.1,0.2,0,0.4,0.1,0.6c0.1,0.2,0.3,0.3,0.6,0.3
			h3.7c0.4,0,0.7-0.3,0.7-0.6c0.3-2.2,0.4-4.5,0.5-6.7h0.7c-0.2,4.1-0.8,6.4-0.8,6.5c-0.1,0.2,0,0.4,0.1,0.6
			c0.1,0.2,0.3,0.3,0.6,0.3h3.7c0.4,0,0.7-0.3,0.7-0.6c0.3-2.2,0.4-4.5,0.5-6.7h0.7c-0.2,4.1-0.8,6.4-0.8,6.5
			c-0.1,0.2,0,0.4,0.1,0.6c0.1,0.2,0.3,0.3,0.6,0.3h3.7c0.4,0,0.7-0.3,0.7-0.6c1.3-10.3-0.3-18.3-0.9-20.7h1.1
			c2.2,12.3,0.2,20.4,0.2,20.5c-0.1,0.2,0,0.4,0.1,0.6c0.1,0.2,0.3,0.3,0.6,0.3h3.7c0.4,0,0.7-0.3,0.7-0.6
			c1.3-10.3-0.3-18.3-0.9-20.7h1.5c0.2,0,0.4-0.1,0.5-0.3c0.1-0.2,0.2-0.4,0.2-0.6c-2.3-12.6-0.3-20.8-0.3-20.9
			c0.1-0.2,0-0.4-0.1-0.6c-0.1-0.2-0.3-0.3-0.6-0.3h-3.7c-0.4,0-0.7,0.3-0.7,0.6c-1.3,10.3,0.3,18.3,0.9,20.7h-1.1
			c-2.2-12.3-0.2-20.4-0.2-20.5c0.1-0.2,0-0.4-0.1-0.6c-0.1-0.2-0.3-0.3-0.6-0.3h-3.7c-0.4,0-0.7,0.3-0.7,0.6
			c-0.3,2.1-0.4,4.2-0.4,6.3H286c0.2-3.8,0.7-6,0.7-6c0.1-0.2,0-0.4-0.1-0.6c-0.1-0.2-0.3-0.3-0.6-0.3h-3.7c-0.4,0-0.7,0.3-0.7,0.6
			c-0.3,2.1-0.4,4.2-0.4,6.3h-0.7c0.2-3.8,0.7-6,0.7-6c0.1-0.2,0-0.4-0.1-0.6c-0.1-0.2-0.3-0.3-0.6-0.3h-3.7c-0.4,0-0.7,0.3-0.7,0.6
			c-0.3,2.1-0.4,4.2-0.4,6.3h-0.7c0.2-3.8,0.7-6,0.7-6c0.1-0.2,0-0.4-0.1-0.6c-0.1-0.2-0.3-0.3-0.6-0.3h-3.7c-0.4,0-0.7,0.3-0.7,0.6
			c-1.3,10.3,0.3,18.3,0.9,20.7h-1.1c-2.2-12.3-0.2-20.4-0.2-20.5c0.1-0.2,0-0.4-0.1-0.6c-0.1-0.2-0.3-0.3-0.6-0.3h-3.7
			c-0.4,0-0.7,0.3-0.7,0.6c-1.3,10.3,0.3,18.3,0.9,20.7h-1.5c-0.2,0-0.4,0.1-0.5,0.3c-0.1,0.2-0.2,0.4-0.2,0.6
			C266.1,115.5,264.1,123.8,264,123.9z M294.1,82.2h2.3c-0.5,2.4-1.4,9.6,0.3,19.8h-1.5C294.6,100,292.9,92.2,294.1,82.2z
			 M294.6,103.5c0.5,2,2.2,9.8,1,19.8h-2.3c0.5-2.4,1.4-9.6-0.3-19.8H294.6z M288.3,89.1v13.4c0,0.1,0,0.2,0,0.2c0,0,0,0,0,0.1
			c0,0,0,0,0,0.1c0,0.1,0,0.2,0,0.2V116h-2.8c0,0,0,0,0,0H280c0,0,0,0,0,0h-5.5c0,0,0,0,0,0h-0.6V89.1H288.3z M278.9,123.3h-2.3
			c0.2-1.1,0.5-3.1,0.6-5.9h2C279.3,119.4,279.2,121.4,278.9,123.3z M284.5,123.3h-2.3c0.2-1.1,0.5-3.1,0.6-5.9h2
			C284.8,119.4,284.7,121.4,284.5,123.3z M290,123.3h-2.3c0.2-1.1,0.5-3.1,0.6-5.9h1.3v-10.1C290.3,110.9,290.8,116.6,290,123.3z
			 M288.5,82.2h2.3c-0.5,2.4-1.4,9.6,0.3,19.8h-1.3V87.7h-1.6C288.2,85.8,288.3,84,288.5,82.2z M283,82.2h2.3
			c-0.2,1-0.5,2.9-0.6,5.5h-2C282.6,85.8,282.8,84,283,82.2z M277.4,82.2h2.3c-0.2,1-0.5,2.9-0.6,5.5h-2
			C277.1,85.8,277.2,84,277.4,82.2z M271.9,82.2h2.3c-0.2,1-0.5,2.9-0.6,5.5h-1v12.7C271.9,97.1,270.9,90.4,271.9,82.2z
			 M272.4,103.5c0,0.2,0.1,0.4,0.2,0.7v13.2h1.2c0,2-0.1,4-0.4,5.9h-2.3c0.5-2.4,1.4-9.6-0.3-19.8H272.4z M266.3,82.2h2.3
			c-0.5,2.4-1.4,9.6,0.3,19.8h-1.5C266.9,100,265.2,92.2,266.3,82.2z M266.8,103.5c0.5,2,2.2,9.8,1,19.8h-2.3
			c0.5-2.4,1.4-9.6-0.3-19.8H266.8z"/>
		<path class="st5" d="M37.7,207.5h14.9c0.4,0,0.7-0.3,0.7-0.7v-14.5c0-0.4-0.3-0.7-0.7-0.7H37.7c-0.4,0-0.7,0.3-0.7,0.7v14.5
			C37,207.2,37.3,207.5,37.7,207.5z M38.4,200.2H42v5.9h-3.5V200.2z M46.9,200.2v5.9h-3.5v-5.9H46.9z M43.4,198.8V193h3.5v5.9H43.4z
			 M48.3,206.1v-5.9h3.5v5.9H48.3z M51.9,198.8h-3.5V193h3.5V198.8z M42,193v5.9h-3.5V193H42z"/>
		<path class="st5" d="M37.7,224.8h14.9c0.4,0,0.7-0.3,0.7-0.7v-14.5c0-0.4-0.3-0.7-0.7-0.7H37.7c-0.4,0-0.7,0.3-0.7,0.7v14.5
			C37,224.5,37.3,224.8,37.7,224.8z M38.4,217.5H42v5.9h-3.5V217.5z M46.9,217.5v5.9h-3.5v-5.9H46.9z M43.4,216.1v-5.9h3.5v5.9H43.4
			z M48.3,223.4v-5.9h3.5v5.9H48.3z M51.9,216.1h-3.5v-5.9h3.5V216.1z M42,210.3v5.9h-3.5v-5.9H42z"/>
		<path class="st5" d="M59.3,183.4H31c-0.3,0-0.5,0.1-0.6,0.4s-0.1,0.5,0,0.7l2.5,4v39.8c0,0.4,0.3,0.7,0.7,0.7h23
			c0.4,0,0.7-0.3,0.7-0.7v-39.8l2.5-4c0.1-0.2,0.1-0.5,0-0.7C59.8,183.5,59.5,183.4,59.3,183.4z M56,227.5H34.3v-38.6H56V227.5z
			 M56.3,187.5H34l-1.7-2.7H58L56.3,187.5z"/>
		<path class="st5" d="M37.7,269.4h14.9c0.4,0,0.7-0.3,0.7-0.7v-14.5c0-0.4-0.3-0.7-0.7-0.7H37.7c-0.4,0-0.7,0.3-0.7,0.7v14.5
			C37,269.1,37.3,269.4,37.7,269.4z M38.4,262.1H42v5.9h-3.5V262.1z M46.9,262.1v5.9h-3.5v-5.9H46.9z M43.4,260.7v-5.9h3.5v5.9H43.4
			z M48.3,268v-5.9h3.5v5.9H48.3z M51.9,260.7h-3.5v-5.9h3.5V260.7z M42,254.8v5.9h-3.5v-5.9H42z"/>
		<path class="st5" d="M37.7,286.7h14.9c0.4,0,0.7-0.3,0.7-0.7v-14.5c0-0.4-0.3-0.7-0.7-0.7H37.7c-0.4,0-0.7,0.3-0.7,0.7V286
			C37,286.4,37.3,286.7,37.7,286.7z M38.4,279.4H42v5.9h-3.5V279.4z M46.9,279.4v5.9h-3.5v-5.9H46.9z M43.4,278v-5.9h3.5v5.9H43.4z
			 M48.3,285.3v-5.9h3.5v5.9H48.3z M51.9,278h-3.5v-5.9h3.5V278z M42,272.1v5.9h-3.5v-5.9H42z"/>
		<path class="st5" d="M59.3,245.2H31c-0.3,0-0.5,0.1-0.6,0.4s-0.1,0.5,0,0.7l2.5,4v39.8c0,0.4,0.3,0.7,0.7,0.7h23
			c0.4,0,0.7-0.3,0.7-0.7v-39.8l2.5-4c0.1-0.2,0.1-0.5,0-0.7C59.8,245.4,59.5,245.2,59.3,245.2z M56,289.4H34.3v-38.6H56V289.4z
			 M56.3,249.3H34l-1.7-2.7H58L56.3,249.3z"/>
		<path class="st5" d="M103.2,203.6h14.9c0.4,0,0.7-0.3,0.7-0.7v-14.5c0-0.4-0.3-0.7-0.7-0.7h-14.9c-0.4,0-0.7,0.3-0.7,0.7v14.5
			C102.5,203.3,102.8,203.6,103.2,203.6z M103.9,196.3h3.5v5.9h-3.5V196.3z M112.4,196.3v5.9h-3.5v-5.9H112.4z M108.9,194.9V189h3.5
			v5.9H108.9z M113.8,202.2v-5.9h3.5v5.9H113.8z M117.4,194.9h-3.5V189h3.5V194.9z M107.5,189v5.9h-3.5V189H107.5z"/>
		<path class="st5" d="M103.2,220.9h14.9c0.4,0,0.7-0.3,0.7-0.7v-14.5c0-0.4-0.3-0.7-0.7-0.7h-14.9c-0.4,0-0.7,0.3-0.7,0.7v14.5
			C102.5,220.6,102.8,220.9,103.2,220.9z M103.9,213.6h3.5v5.9h-3.5V213.6z M112.4,213.6v5.9h-3.5v-5.9H112.4z M108.9,212.2v-5.9
			h3.5v5.9H108.9z M113.8,219.5v-5.9h3.5v5.9H113.8z M117.4,212.2h-3.5v-5.9h3.5V212.2z M107.5,206.4v5.9h-3.5v-5.9H107.5z"/>
		<path class="st5" d="M98.4,184.5v39.8c0,0.4,0.3,0.7,0.7,0.7h23c0.4,0,0.7-0.3,0.7-0.7v-39.8l2.5-4c0.1-0.2,0.1-0.5,0-0.7
			s-0.4-0.4-0.6-0.4H96.5c-0.3,0-0.5,0.1-0.6,0.4s-0.1,0.5,0,0.7L98.4,184.5z M121.5,223.6H99.8V185h21.6V223.6z M123.5,180.8
			l-1.7,2.7H99.5l-1.7-2.7H123.5z"/>
		<path class="st5" d="M103.2,267.5h14.9c0.4,0,0.7-0.3,0.7-0.7v-14.5c0-0.4-0.3-0.7-0.7-0.7h-14.9c-0.4,0-0.7,0.3-0.7,0.7v14.5
			C102.5,267.2,102.8,267.5,103.2,267.5z M103.9,260.2h3.5v5.9h-3.5V260.2z M112.4,260.2v5.9h-3.5v-5.9H112.4z M108.9,258.8V253h3.5
			v5.9H108.9z M113.8,266.1v-5.9h3.5v5.9H113.8z M117.4,258.8h-3.5V253h3.5V258.8z M107.5,253v5.9h-3.5V253H107.5z"/>
		<path class="st5" d="M103.2,284.8h14.9c0.4,0,0.7-0.3,0.7-0.7v-14.5c0-0.4-0.3-0.7-0.7-0.7h-14.9c-0.4,0-0.7,0.3-0.7,0.7v14.5
			C102.5,284.5,102.8,284.8,103.2,284.8z M103.9,277.5h3.5v5.9h-3.5V277.5z M112.4,277.5v5.9h-3.5v-5.9H112.4z M108.9,276.1v-5.9
			h3.5v5.9H108.9z M113.8,283.4v-5.9h3.5v5.9H113.8z M117.4,276.1h-3.5v-5.9h3.5V276.1z M107.5,270.3v5.9h-3.5v-5.9H107.5z"/>
		<path class="st5" d="M124.8,243.4H96.5c-0.3,0-0.5,0.1-0.6,0.4s-0.1,0.5,0,0.7l2.5,4v39.8c0,0.4,0.3,0.7,0.7,0.7h23
			c0.4,0,0.7-0.3,0.7-0.7v-39.8l2.5-4c0.1-0.2,0.1-0.5,0-0.7S125,243.4,124.8,243.4z M121.5,287.5H99.8v-38.6h21.6V287.5z
			 M121.8,247.5H99.5l-1.7-2.7h25.7L121.8,247.5z"/>
		<path class="st5" d="M173.6,201h14.9c0.4,0,0.7-0.3,0.7-0.7v-14.5c0-0.4-0.3-0.7-0.7-0.7h-14.9c-0.4,0-0.7,0.3-0.7,0.7v14.5
			C172.9,200.7,173.2,201,173.6,201z M174.3,193.7h3.5v5.9h-3.5V193.7z M182.8,193.7v5.9h-3.5v-5.9H182.8z M179.2,192.3v-5.9h3.5
			v5.9H179.2z M184.2,199.6v-5.9h3.5v5.9H184.2z M187.7,192.3h-3.5v-5.9h3.5V192.3z M177.8,186.4v5.9h-3.5v-5.9H177.8z"/>
		<path class="st5" d="M244.3,203.6h14.8c0.4,0,0.7-0.3,0.7-0.7v-14.5c0-0.4-0.3-0.7-0.7-0.7h-14.8c-0.4,0-0.7,0.3-0.7,0.7v14.5
			C243.6,203.3,243.9,203.6,244.3,203.6z M245,196.3h3.5v5.9H245V196.3z M253.5,196.3v5.9h-3.5v-5.9H253.5z M249.9,194.9V189h3.5
			v5.9H249.9z M254.9,202.2v-5.9h3.5v5.9H254.9z M258.4,194.9h-3.5V189h3.5V194.9z M248.5,189v5.9H245V189H248.5z"/>
		<path class="st5" d="M244.3,220.9h14.8c0.4,0,0.7-0.3,0.7-0.7v-14.5c0-0.4-0.3-0.7-0.7-0.7h-14.8c-0.4,0-0.7,0.3-0.7,0.7v14.5
			C243.6,220.6,243.9,220.9,244.3,220.9z M245,213.6h3.5v5.9H245V213.6z M253.5,213.6v5.9h-3.5v-5.9H253.5z M249.9,212.2v-5.9h3.5
			v5.9H249.9z M254.9,219.5v-5.9h3.5v5.9H254.9z M258.4,212.2h-3.5v-5.9h3.5V212.2z M248.5,206.4v5.9H245v-5.9H248.5z"/>
		<path class="st5" d="M239.5,184.5v39.8c0,0.4,0.3,0.7,0.7,0.7h23c0.4,0,0.7-0.3,0.7-0.7v-39.8l2.5-4c0.1-0.2,0.1-0.5,0-0.7
			s-0.4-0.4-0.6-0.4h-28.3c-0.3,0-0.5,0.1-0.6,0.4s-0.1,0.5,0,0.7L239.5,184.5z M262.5,223.6h-21.6V185h21.6V223.6z M264.6,180.8
			l-1.7,2.7h-22.3l-1.7-2.7H264.6z"/>
		<path class="st5" d="M244.3,267.5h14.8c0.4,0,0.7-0.3,0.7-0.7v-14.5c0-0.4-0.3-0.7-0.7-0.7h-14.8c-0.4,0-0.7,0.3-0.7,0.7v14.5
			C243.6,267.2,243.9,267.5,244.3,267.5z M245,260.2h3.5v5.9H245V260.2z M253.5,260.2v5.9h-3.5v-5.9H253.5z M249.9,258.8V253h3.5
			v5.9H249.9z M254.9,266.1v-5.9h3.5v5.9H254.9z M258.4,258.8h-3.5V253h3.5V258.8z M248.5,253v5.9H245V253H248.5z"/>
		<path class="st5" d="M244.3,284.8h14.8c0.4,0,0.7-0.3,0.7-0.7v-14.5c0-0.4-0.3-0.7-0.7-0.7h-14.8c-0.4,0-0.7,0.3-0.7,0.7v14.5
			C243.6,284.5,243.9,284.8,244.3,284.8z M245,277.5h3.5v5.9H245V277.5z M253.5,277.5v5.9h-3.5v-5.9H253.5z M249.9,276.1v-5.9h3.5
			v5.9H249.9z M254.9,283.4v-5.9h3.5v5.9H254.9z M258.4,276.1h-3.5v-5.9h3.5V276.1z M248.5,270.3v5.9H245v-5.9H248.5z"/>
		<path class="st5" d="M239.5,248.4v39.8c0,0.4,0.3,0.7,0.7,0.7h23c0.4,0,0.7-0.3,0.7-0.7v-39.8l2.5-4c0.1-0.2,0.1-0.5,0-0.7
			s-0.4-0.4-0.6-0.4h-28.3c-0.3,0-0.5,0.1-0.6,0.4s-0.1,0.5,0,0.7L239.5,248.4z M262.5,287.5h-21.6v-38.6h21.6V287.5z M264.6,244.8
			l-1.7,2.7h-22.3l-1.7-2.7H264.6z"/>
		<path class="st5" d="M309.5,207.5h14.8c0.4,0,0.7-0.3,0.7-0.7v-14.5c0-0.4-0.3-0.7-0.7-0.7h-14.8c-0.4,0-0.7,0.3-0.7,0.7v14.5
			C308.8,207.2,309.2,207.5,309.5,207.5z M310.2,200.2h3.5v5.9h-3.5V200.2z M318.7,200.2v5.9h-3.5v-5.9H318.7z M315.2,198.8V193h3.5
			v5.9H315.2z M320.1,206.1v-5.9h3.5v5.9H320.1z M323.7,198.8h-3.5V193h3.5V198.8z M313.8,193v5.9h-3.5V193H313.8z"/>
		<path class="st5" d="M309.5,224.8h14.8c0.4,0,0.7-0.3,0.7-0.7v-14.5c0-0.4-0.3-0.7-0.7-0.7h-14.8c-0.4,0-0.7,0.3-0.7,0.7v14.5
			C308.8,224.5,309.2,224.8,309.5,224.8z M310.2,217.5h3.5v5.9h-3.5V217.5z M318.7,217.5v5.9h-3.5v-5.9H318.7z M315.2,216.1v-5.9
			h3.5v5.9H315.2z M320.1,223.4v-5.9h3.5v5.9H320.1z M323.7,216.1h-3.5v-5.9h3.5V216.1z M313.8,210.3v5.9h-3.5v-5.9H313.8z"/>
		<path class="st5" d="M304.7,188.4v39.8c0,0.4,0.3,0.7,0.7,0.7h23c0.4,0,0.7-0.3,0.7-0.7v-39.8l2.5-4c0.1-0.2,0.1-0.5,0-0.7
			s-0.4-0.4-0.6-0.4h-28.3c-0.3,0-0.5,0.1-0.6,0.4s-0.1,0.5,0,0.7L304.7,188.4z M327.8,227.5h-21.6v-38.6h21.6V227.5z M329.8,184.8
			l-1.7,2.7h-22.3l-1.7-2.7H329.8z"/>
		<path class="st5" d="M309.5,269.4h14.8c0.4,0,0.7-0.3,0.7-0.7v-14.5c0-0.4-0.3-0.7-0.7-0.7h-14.8c-0.4,0-0.7,0.3-0.7,0.7v14.5
			C308.8,269.1,309.2,269.4,309.5,269.4z M310.2,262.1h3.5v5.9h-3.5V262.1z M318.7,262.1v5.9h-3.5v-5.9H318.7z M315.2,260.7v-5.9
			h3.5v5.9H315.2z M320.1,268v-5.9h3.5v5.9H320.1z M323.7,260.7h-3.5v-5.9h3.5V260.7z M313.8,254.8v5.9h-3.5v-5.9H313.8z"/>
		<path class="st5" d="M309.5,286.7h14.8c0.4,0,0.7-0.3,0.7-0.7v-14.5c0-0.4-0.3-0.7-0.7-0.7h-14.8c-0.4,0-0.7,0.3-0.7,0.7V286
			C308.8,286.4,309.2,286.7,309.5,286.7z M310.2,279.4h3.5v5.9h-3.5V279.4z M318.7,279.4v5.9h-3.5v-5.9H318.7z M315.2,278v-5.9h3.5
			v5.9H315.2z M320.1,285.3v-5.9h3.5v5.9H320.1z M323.7,278h-3.5v-5.9h3.5V278z M313.8,272.1v5.9h-3.5v-5.9H313.8z"/>
		<path class="st5" d="M304.7,250.2v39.8c0,0.4,0.3,0.7,0.7,0.7h23c0.4,0,0.7-0.3,0.7-0.7v-39.8l2.5-4c0.1-0.2,0.1-0.5,0-0.7
			s-0.4-0.4-0.6-0.4h-28.3c-0.3,0-0.5,0.1-0.6,0.4s-0.1,0.5,0,0.7L304.7,250.2z M327.8,289.4h-21.6v-38.6h21.6V289.4z M329.8,246.6
			l-1.7,2.7h-22.3l-1.7-2.7H329.8z"/>
	</g>
</g>
</svg>
