<?xml version="1.0" encoding="utf-8"?>
<svg version="1.1" id="the-element-butsu-1" xmlns="http://www.w3.org/2000/svg" xmlns:xlink="http://www.w3.org/1999/xlink" x="0px"
	 y="0px" viewBox="0 0 280 334" style="enable-background:new 0 0 280 334;" xml:space="preserve">
<style type="text/css">
	.st0{fill:#231815;}
	.st1{fill:#E84572;}
	.st2{fill:#FFF8EE;}
	.st3{fill:#97D2CE;}
	.st4{clip-path:url(#SVGID_00000096025654036591375250000017671325576240874626_);fill:#EE795E;}
	.st5{clip-path:url(#SVGID_00000096025654036591375250000017671325576240874626_);fill:#231815;}
	.st6{fill:#FFFFFF;}
	.st7{fill:#EE795E;}
</style>
<g>
	<path class="st0" d="M177.8,111.7c-0.2,0-0.4-0.1-0.6-0.3c-0.2-0.3-0.1-0.8,0.2-1c4.4-3.1,2.9-6.5,2.8-6.6c-0.2-0.4,0-0.8,0.3-0.9
		c0.3-0.2,0.8,0,0.9,0.3c0,0,2.1,4.5-3.3,8.3C178.1,111.6,178,111.7,177.8,111.7z"/>
	<path class="st0" d="M182.4,113.5c-0.2,0-0.4-0.1-0.6-0.3c-0.2-0.3-0.1-0.8,0.2-1c4.4-3.1,2.9-6.5,2.8-6.6c-0.2-0.4,0-0.8,0.3-0.9
		c0.3-0.2,0.8,0,0.9,0.3c0,0,2.1,4.5-3.3,8.3C182.6,113.5,182.5,113.5,182.4,113.5z"/>
	<path class="st0" d="M101.2,111.6c-0.1,0-0.2,0-0.2,0c0,0-4.7-1.7-3.6-8.2c0.1-0.4,0.4-0.6,0.8-0.6c0.4,0.1,0.6,0.4,0.6,0.8
		c-0.9,5.3,2.6,6.6,2.7,6.6c0.4,0.1,0.6,0.5,0.4,0.9C101.8,111.4,101.5,111.6,101.2,111.6z"/>
	<path class="st0" d="M96.7,113.5c-0.1,0-0.2,0-0.2,0c0,0-4.7-1.7-3.6-8.2c0.1-0.4,0.4-0.6,0.8-0.6c0.4,0.1,0.6,0.4,0.6,0.8
		c-0.9,5.3,2.6,6.6,2.7,6.6c0.4,0.1,0.6,0.5,0.4,0.9C97.3,113.3,97,113.5,96.7,113.5z"/>
	<path class="st1" d="M69.2,258.7h15.5c0,0,9.4,16,23.5,16c17.2,0,26-15.5,26.3-16h5.5h5.5c0.3,0.5,9.1,16,26.3,16
		c14.1,0,23.5-16,23.5-16h2.9h12.5h1.9c0,0,5.2-0.1,11.5,2.4c10,4,23,14.5,23,42.7c-4.9,3.4-10,7.4-14.7,11.8
		c-9.1-22.4-28-29.1-28-29.1c-18.4,9-26.5,24.1-30,34.7c-4.7-11-14.7-26.8-34.4-34.7c-19.7,7.9-29.7,23.7-34.4,34.7
		c-3.5-10.6-11.6-25.8-30-34.7c0,0-18.9,6.8-28,29.1c-4.7-4.4-9.7-8.4-14.7-11.8c0-28.1,12.9-38.7,23-42.7
		c6.3-2.5,11.5-2.4,11.5-2.4H69.2z"/>
	<path class="st1" d="M84.6,258.7h49.9c-0.3,0.5-9.1,16-26.3,16C94,274.8,84.6,258.7,84.6,258.7z"/>
	<path class="st1" d="M164.8,258.7h30.6c0,0-9.4,16-23.5,16c-17.2,0-26-15.5-26.3-16H164.8z"/>
	<path class="st1" d="M104.8,180.5l0,1.8c0,0,0,29,34.2,29s34.2-29,34.2-29l1-60.6h12.1c0,0,37.9,0,37.9,36.3
		c0,30.4,0,103.2,0,103.2c-6.3-2.5-11.5-2.4-11.5-2.4h-1.9h-12.5c17.6,0,18-13.7,18-14.8c0-0.1,0-0.1,0-0.1v-6.6
		c0-2-1.6-3.6-3.6-3.6c-2,0-3.6,1.6-3.6,3.6v-7.6c0-2-1.6-3.6-3.6-3.6c-2,0-3.6,1.6-3.6,3.6v-0.8c0-2-1.6-3.6-3.6-3.6
		c-2,0-3.6,1.6-3.6,3.6c0-2-1.6-3.6-3.6-3.6c-2,0-3.6,1.6-3.6,3.6v8.4c0-2-1.6-3.6-3.6-3.6c-2,0,2.3,1.6,2.3,3.6v6.6c0,0,0,0,0,0.1
		c0,1.1-5.5,14.8,12.1,14.8h-2.9h-30.6h-19.3H140h-5.5H84.6H69.2h-1.8c0,0-5.2-0.1-11.5,2.4c0-3.4,0-73.5,0-103.2
		c0-36.3,37.9-36.3,37.9-36.3h12.1L104.8,180.5z"/>
	<path class="st2" d="M104.8,180.5l0.9-58.9h16.6v-4.3c2.8,0.7,6,1.1,9.7,1.1h7.9h7.9c3.7,0,6.9-0.4,9.7-1.1v4.3h16.6l-1,60.6
		c0,0,0,29-34.2,29s-34.2-29-34.2-29L104.8,180.5z"/>
	<path class="st1" d="M140,98.3h15.1c0,0-3.5,5.3-15.1,5.3s-15.1-5.3-15.1-5.3H140L140,98.3z"/>
	<path class="st1" d="M155.1,98.3H140h0h-15.1c0,0,6.6-5.7,9.7-6c3.1-0.3,5.4,2.6,5.4,2.6s2.3-2.9,5.4-2.6
		C148.5,92.6,155.1,98.3,155.1,98.3z"/>
	<path class="st1" d="M140,38.5c2.2,0,4,1.8,4,4c0,2.2-1.8,4-4,4c-2.2,0-4-1.8-4-4C136,40.3,137.8,38.5,140,38.5z"/>
	<path class="st2" d="M101.7,59.4c0,17,0,25.3,0,28.5c-5.6,0-5.5-4.8-5.5-4.8V72.6c0,0-2.9-4.2-2.9-8.7c0-4.6,4.6-4.5,4.6-4.5H101.7
		z"/>
	<path class="st2" d="M186.7,63.9c0,4.6-2.9,8.7-2.9,8.7v10.4c0,0,0.2,4.8-5.5,4.8c0-3.3,0-11.5,0-28.5h3.9
		C182.2,59.4,186.7,59.3,186.7,63.9z"/>
	<path class="st2" d="M157.5,62.1c-4.9,0-9,4-9,9c0,4.9,4,9,9,9c5,0,9-4,9-9c0-2.4-1-4.6-2.5-6.2C162.4,63.2,160.1,62.1,157.5,62.1z
		 M115.9,64.9c-1.5,1.6-2.5,3.8-2.5,6.2c0,4.9,4,9,9,9c5,0,9-4,9-9c0-5-4-9-9-9C119.9,62.1,117.6,63.2,115.9,64.9z M178.3,87.9
		c0,1.2,0,1.8,0,1.8c0,0.3-0.1,22.4-20.7,27.7c-2.8,0.7-6,1.1-9.7,1.1H140h-7.9c-3.7,0-6.9-0.4-9.7-1.1
		c-20.6-5.3-20.7-27.4-20.7-27.7c0,0,0-0.5,0-1.8c0-3.3,0-11.5,0-28.5c0-4.1,0-8.6,0-13.8c0-34.6,37.9-34.6,38.3-34.6
		c0.4,0,38.3,0.1,38.3,34.6c0,5.1,0,9.7,0,13.8C178.3,76.4,178.3,84.7,178.3,87.9z M140,103.6c11.7,0,15.1-5.3,15.1-5.3
		s-6.6-5.7-9.7-6c-3.1-0.3-5.4,2.6-5.4,2.6s-2.3-2.9-5.4-2.6c-3.1,0.3-9.7,6-9.7,6S128.3,103.6,140,103.6z M144,42.5
		c0-2.2-1.8-4-4-4c-2.2,0-4,1.8-4,4c0,2.2,1.8,4,4,4C142.2,46.5,144,44.7,144,42.5z"/>
	<path class="st1" d="M247.1,303.8c16.4-11.4,31.7-17.3,31.7-17.3c4.4,32.8-25,46.5-25,46.5h-17.1c-0.7-6.6-2.3-12.4-4.3-17.3
		C237.2,311.2,242.2,307.2,247.1,303.8z"/>
	<path class="st1" d="M236.8,332.9h-18.9c4-6.4,9.1-12.2,14.6-17.3C234.5,320.6,236,326.3,236.8,332.9z"/>
	<path class="st1" d="M204.4,286.5c0,0,18.9,6.8,28,29.1c-5.5,5.1-10.5,10.9-14.6,17.3h-2.4h-37.2c0,0-0.9-4.9-3.9-11.7
		C177.9,310.6,186,295.4,204.4,286.5z"/>
	<path class="st1" d="M178.3,332.9h-6.5c0,0,0.3-4.9,2.6-11.7C177.4,328,178.3,332.9,178.3,332.9z"/>
	<path class="st1" d="M174.4,321.2c-2.3,6.8-2.6,11.7-2.6,11.7H140h0h-31.8c0,0-0.3-4.9-2.6-11.7c4.7-11,14.7-26.8,34.4-34.7
		C159.7,294.3,169.7,310.2,174.4,321.2z"/>
	<path class="st2" d="M153,71.1c0,2.5,2,4.5,4.5,4.5c2.5,0,4.5-2,4.5-4.5c0-2.5-2-4.5-4.5-4.5C155.1,66.6,153,68.6,153,71.1z
		 M157.5,80.1c-4.9,0-9-4-9-9c0-5,4-9,9-9c2.5,0,4.8,1.1,6.5,2.8c1.5,1.6,2.5,3.8,2.5,6.2C166.5,76.1,162.5,80.1,157.5,80.1z"/>
	<path class="st3" d="M153,71.1c0-2.5,2-4.5,4.5-4.5c2.5,0,4.5,2,4.5,4.5c0,2.5-2,4.5-4.5,4.5C155.1,75.6,153,73.6,153,71.1z
		 M159.1,71.1c0-0.9-0.7-1.5-1.5-1.5s-1.5,0.7-1.5,1.5s0.7,1.5,1.5,1.5S159.1,72,159.1,71.1z"/>
	<path class="st0" d="M157.5,69.6c0.9,0,1.5,0.7,1.5,1.5s-0.7,1.5-1.5,1.5S156,72,156,71.1S156.7,69.6,157.5,69.6z"/>
	<path class="st0" d="M120.9,71.1c0-0.9,0.7-1.5,1.5-1.5s1.5,0.7,1.5,1.5s-0.7,1.5-1.5,1.5S120.9,72,120.9,71.1z"/>
	<path class="st2" d="M122.4,75.6c2.5,0,4.5-2,4.5-4.5c0-2.5-2-4.5-4.5-4.5c-2.5,0-4.5,2-4.5,4.5C117.9,73.6,119.9,75.6,122.4,75.6z
		 M122.4,80.1c-4.9,0-9-4-9-9c0-2.4,1-4.6,2.5-6.2c1.6-1.7,3.9-2.8,6.5-2.8c5,0,9,4,9,9C131.3,76.1,127.3,80.1,122.4,80.1z"/>
	<path class="st3" d="M117.9,71.1c0-2.5,2-4.5,4.5-4.5c2.5,0,4.5,2,4.5,4.5c0,2.5-2,4.5-4.5,4.5C119.9,75.6,117.9,73.6,117.9,71.1z
		 M123.9,71.1c0-0.9-0.7-1.5-1.5-1.5s-1.5,0.7-1.5,1.5s0.7,1.5,1.5,1.5S123.9,72,123.9,71.1z"/>
	<path class="st1" d="M108.2,332.9h-6.5c0,0,0.9-4.9,3.9-11.7C107.8,328,108.2,332.9,108.2,332.9z"/>
	<path class="st1" d="M75.6,286.5c18.4,9,26.5,24.1,30,34.7c-2.9,6.8-3.9,11.7-3.9,11.7H64.5h-2.4c-4-6.4-9.1-12.2-14.6-17.3
		C56.7,293.3,75.6,286.5,75.6,286.5z"/>
	<path class="st1" d="M62.1,332.9H43.2c0.7-6.6,2.3-12.4,4.3-17.3C53,320.7,58.1,326.5,62.1,332.9z"/>
	<path class="st1" d="M47.6,315.6c-2,5-3.6,10.7-4.3,17.3H26.2c0,0-29.4-13.6-25-46.5c0,0,15.4,5.9,31.8,17.3
		C37.8,307.2,42.8,311.2,47.6,315.6z"/>
	<path class="st0" d="M33.6,303.8h-1.4c0-28.1,12.7-39.1,23.4-43.3c6.4-2.5,11.6-2.4,11.8-2.4l145.3,0c0.2,0,5.4-0.1,11.7,2.4
		c10.7,4.2,23.4,15.2,23.4,43.3h-1.4c0-27.4-12.3-37.9-22.5-42c-6.1-2.4-11.2-2.3-11.2-2.3l-145.3,0c-0.1,0-5.1-0.1-11.2,2.3
		C45.8,265.9,33.6,276.4,33.6,303.8z"/>
	<path class="st0" d="M122.4,80.8c-5.3,0-9.7-4.3-9.7-9.7c0-2.5,1-4.9,2.7-6.7c1.8-1.9,4.4-3,7-3c5.3,0,9.7,4.3,9.7,9.7
		C132,76.4,127.7,80.8,122.4,80.8z M122.4,62.8c-2.2,0-4.4,0.9-6,2.5c-1.5,1.5-2.3,3.6-2.3,5.7c0,4.5,3.7,8.2,8.3,8.2
		c4.5,0,8.2-3.7,8.2-8.2C130.6,66.6,126.9,62.8,122.4,62.8z"/>
	<path class="st0" d="M122.4,76.3c-2.9,0-5.2-2.3-5.2-5.2c0-2.9,2.3-5.2,5.2-5.2c2.9,0,5.2,2.3,5.2,5.2
		C127.6,74,125.2,76.3,122.4,76.3z M122.4,67.3c-2.1,0-3.8,1.7-3.8,3.8c0,2.1,1.7,3.8,3.8,3.8c2.1,0,3.8-1.7,3.8-3.8
		C126.2,69,124.5,67.3,122.4,67.3z"/>
	<path class="st0" d="M119.7,63c-0.3,0-0.6-0.2-0.7-0.5l-1.1-3.3c-0.1-0.4,0.1-0.8,0.4-0.9c0.4-0.1,0.8,0.1,0.9,0.4l1.1,3.3
		c0.1,0.4-0.1,0.8-0.4,0.9C119.8,63,119.8,63,119.7,63z"/>
	<path class="st0" d="M115.9,65.6c-0.2,0-0.4-0.1-0.5-0.3l-2.6-2.6c-0.3-0.3-0.3-0.7,0-1c0.3-0.3,0.7-0.3,1,0l2.7,2.6
		c0.1,0.1,0.1,0.1,0.1,0.2c0.2,0.3,0,0.8-0.3,0.9C116.1,65.6,116,65.6,115.9,65.6z"/>
	<path class="st0" d="M125.8,63.4c-0.1,0-0.2,0-0.2,0c-0.4-0.1-0.6-0.5-0.4-0.9l1.1-3.3c0.1-0.4,0.5-0.6,0.9-0.4
		c0.4,0.1,0.6,0.5,0.4,0.9l-1.1,3.3C126.4,63.2,126.1,63.4,125.8,63.4z"/>
	<path class="st0" d="M129.5,65.9c-0.2,0-0.4-0.1-0.5-0.2c-0.3-0.3-0.3-0.7,0-1l2.7-2.7c0.3-0.3,0.7-0.3,1,0c0.3,0.3,0.3,0.7,0,1
		l-2.7,2.7C129.9,65.9,129.7,65.9,129.5,65.9z"/>
	<path class="st0" d="M157.5,80.8c-5.3,0-9.7-4.3-9.7-9.7c0-5.3,4.3-9.7,9.7-9.7c2.6,0,5.1,1.1,7,3c1.7,1.8,2.7,4.2,2.7,6.7
		C167.2,76.4,162.9,80.8,157.5,80.8z M157.5,62.8c-4.5,0-8.2,3.7-8.2,8.3c0,4.5,3.7,8.2,8.2,8.2c4.6,0,8.3-3.7,8.3-8.2
		c0-2.1-0.8-4.2-2.3-5.7C161.9,63.7,159.8,62.8,157.5,62.8z"/>
	<path class="st0" d="M157.5,76.3c-2.9,0-5.2-2.3-5.2-5.2c0-2.9,2.3-5.2,5.2-5.2c2.9,0,5.2,2.3,5.2,5.2
		C162.7,74,160.4,76.3,157.5,76.3z M157.5,67.3c-2.1,0-3.8,1.7-3.8,3.8c0,2.1,1.7,3.8,3.8,3.8c2.1,0,3.8-1.7,3.8-3.8
		C161.3,69,159.6,67.3,157.5,67.3z"/>
	<path class="st0" d="M160.2,63c-0.1,0-0.2,0-0.2,0c-0.4-0.1-0.6-0.5-0.4-0.9l1.1-3.3c0.1-0.4,0.5-0.6,0.9-0.4
		c0.4,0.1,0.6,0.5,0.4,0.9l-1.1,3.3C160.8,62.9,160.5,63,160.2,63z"/>
	<path class="st0" d="M164.5,65.4l-1-1l2.7-2.7c0.3-0.3,0.7-0.3,1,0c0.3,0.3,0.3,0.7,0,1L164.5,65.4z"/>
	<path class="st0" d="M154.1,63.4c-0.3,0-0.6-0.2-0.7-0.5l-1.1-3.3c-0.1-0.4,0.1-0.8,0.4-0.9c0.4-0.1,0.8,0.1,0.9,0.4l1.1,3.3
		c0.1,0.4-0.1,0.8-0.4,0.9C154.3,63.4,154.2,63.4,154.1,63.4z"/>
	<path class="st0" d="M150.4,65.9c-0.2,0-0.4-0.1-0.5-0.2l-2.7-2.7c-0.3-0.3-0.3-0.7,0-1s0.7-0.3,1,0l2.7,2.7c0.3,0.3,0.3,0.7,0,1
		C150.7,65.9,150.6,65.9,150.4,65.9z"/>
	<path class="st0" d="M147.9,119.2h-15.8c-3.5,0-6.9-0.4-9.9-1.2c-21-5.4-21.2-27.4-21.2-28.4v-44c0-18.2,10.6-26.9,19.4-30.9
		c9.6-4.4,19.2-4.4,19.6-4.4s10,0.1,19.6,4.4c8.9,4,19.4,12.7,19.4,30.9v44c0,0.9-0.2,23-21.2,28.4
		C154.8,118.8,151.5,119.2,147.9,119.2z M140,11.7c-0.4,0-9.7,0-19,4.3c-12.3,5.6-18.6,15.6-18.6,29.6v44c0,0.9,0.2,21.9,20.2,27
		c2.9,0.7,6.1,1.1,9.5,1.1h15.8c3.4,0,6.6-0.4,9.5-1.1c19.9-5.2,20.2-26.1,20.2-27v-44c0-14-6.3-24-18.6-29.6
		C149.7,11.8,140.4,11.7,140,11.7z"/>
	<path class="st0" d="M140,90.7c-0.2,0-0.3-0.1-0.4-0.2l-3.2-2.7c-0.2-0.1-0.3-0.3-0.3-0.5V54.1c-11.1-4.7-21.2,0.1-21.3,0.2
		c-0.3,0.2-0.8,0-0.9-0.3c-0.2-0.3,0-0.8,0.3-0.9c0.4-0.2,11.1-5.2,22.9,0c0.3,0.1,0.4,0.4,0.4,0.6V87l2.5,2.1l2.5-2.1V53.6
		c0-0.3,0.2-0.5,0.4-0.6c11.8-5.2,22.5-0.2,22.9,0c0.3,0.2,0.5,0.6,0.3,0.9c-0.2,0.3-0.6,0.5-0.9,0.3c-0.1,0-10.3-4.8-21.3-0.2v33.3
		c0,0.2-0.1,0.4-0.3,0.5l-3.2,2.7C140.3,90.6,140.2,90.7,140,90.7z"/>
	<path class="st0" d="M155.1,99h-30.3c-0.3,0-0.6-0.2-0.7-0.5c-0.1-0.3,0-0.6,0.2-0.8c0.7-0.6,6.9-5.9,10.1-6.2
		c2.5-0.2,4.5,1.4,5.5,2.3c0.9-0.9,3-2.6,5.5-2.3c3.2,0.3,9.4,5.6,10.1,6.2c0.2,0.2,0.3,0.5,0.2,0.8C155.7,98.8,155.4,99,155.1,99z
		 M126.8,97.6h26.4c-2.3-1.8-6-4.5-7.8-4.6c-2.7-0.3-4.8,2.4-4.8,2.4c-0.1,0.2-0.3,0.3-0.5,0.3l0,0c-0.2,0-0.4-0.1-0.5-0.3
		c0,0-2.1-2.6-4.8-2.4C132.8,93.2,129.1,95.8,126.8,97.6z"/>
	<path class="st0" d="M140,104.3c-11.9,0-15.6-5.4-15.7-5.6c-0.2-0.3-0.1-0.8,0.2-1c0.3-0.2,0.8-0.1,1,0.2c0,0,3.5,5,14.5,5
		s14.5-4.9,14.6-5c0.2-0.3,0.6-0.4,1-0.2c0.3,0.2,0.4,0.6,0.2,1C155.6,98.9,151.9,104.3,140,104.3z"/>
	<path class="st0" d="M178.3,88.6c-0.4,0-0.7-0.3-0.7-0.7c0-0.4,0.3-0.7,0.7-0.7c1.6,0,2.8-0.4,3.7-1.3c1.2-1.2,1.1-2.8,1.1-2.9
		l0-10.5c0-0.1,0-0.3,0.1-0.4c0,0,2.8-4,2.8-8.3c0-1.1-0.3-2.1-1-2.7c-1.1-1.1-2.9-1.1-2.9-1.1h-3.9c-0.4,0-0.7-0.3-0.7-0.7
		c0-0.4,0.3-0.7,0.7-0.7h3.9c0.1,0,2.3,0,3.9,1.5c0.9,0.9,1.4,2.2,1.4,3.7c0,4.2-2.4,8-2.9,8.9v10.2c0,0.1,0.1,2.2-1.5,3.8
		C181.9,88.1,180.3,88.6,178.3,88.6z"/>
	<path class="st0" d="M101.7,88.6c-2,0-3.6-0.6-4.7-1.7c-1.6-1.6-1.5-3.8-1.5-3.9l0-10.2c-0.6-0.9-2.9-4.7-2.9-8.9
		c0-1.5,0.5-2.8,1.4-3.7c1.5-1.5,3.8-1.5,3.9-1.5h3.8c0.4,0,0.7,0.3,0.7,0.7c0,0.4-0.3,0.7-0.7,0.7h-3.9c0,0-1.8,0-2.9,1.1
		c-0.6,0.6-1,1.5-1,2.7c0,4.3,2.8,8.3,2.8,8.3c0.1,0.1,0.1,0.3,0.1,0.4v10.4c0,0,0,1.7,1.1,2.9c0.8,0.8,2,1.3,3.7,1.3
		c0.4,0,0.7,0.3,0.7,0.7C102.4,88.3,102.1,88.6,101.7,88.6z"/>
	<path class="st0" d="M140,47.2c-2.6,0-4.7-2.1-4.7-4.7c0-2.6,2.1-4.7,4.7-4.7c2.6,0,4.7,2.1,4.7,4.7
		C144.7,45.1,142.6,47.2,140,47.2z M140,39.2c-1.8,0-3.3,1.5-3.3,3.3c0,1.8,1.5,3.3,3.3,3.3c1.8,0,3.3-1.5,3.3-3.3
		C143.3,40.7,141.8,39.2,140,39.2z"/>
	<path class="st0" d="M139,211.9c-34.5,0-34.9-29.4-34.9-29.7l0-1.8l0.9-58.9c0-0.4,0.3-0.7,0.7-0.7h15.9v-3.6
		c0-0.4,0.3-0.7,0.7-0.7c0.4,0,0.7,0.3,0.7,0.7v4.3c0,0.4-0.3,0.7-0.7,0.7h-15.9l-0.9,59.9c0,1.1,0.4,28.3,33.5,28.3
		c0.4,0,0.7,0.3,0.7,0.7S139.4,211.9,139,211.9z"/>
	<path class="st0" d="M56.6,261.3h-1.4V158c0-36.6,38.2-37,38.6-37h12.1v1.4H93.7c-0.1,0-9.5,0.1-18.7,4.5
		c-12.3,5.9-18.5,16.4-18.5,31.1V261.3z"/>
	<path class="st0" d="M139,211.9c-0.4,0-0.7-0.3-0.7-0.7s0.3-0.7,0.7-0.7c13.9,0,23.8-4.8,29.3-14.1c4.1-7,4.2-14.1,4.2-14.1
		l0.9-59.9h-15.9c-0.4,0-0.7-0.3-0.7-0.7v-4.3c0-0.4,0.3-0.7,0.7-0.7s0.7,0.3,0.7,0.7v3.6h15.9c0.2,0,0.4,0.1,0.5,0.2
		s0.2,0.3,0.2,0.5l-1,60.6C174,182.6,173.6,211.9,139,211.9z"/>
	<path class="st0" d="M224.8,261.1h-1.4V158c0-14.7-6.2-25.2-18.5-31.1c-9.2-4.4-18.6-4.5-18.7-4.5h-12.1V121h12.1
		c0.4,0,38.6,0.4,38.6,37V261.1z"/>
	<path class="st0" d="M119.8,183.4c-8.2,0-14.8-2.1-15.2-2.2v0c-0.3-0.1-0.5-0.4-0.5-0.7c0-0.4,0.3-0.7,0.7-0.7c0.1,0,0.2,0,0.3,0.1
		c0.5,0.2,14.9,4.7,27.6,0c0.4-0.1,0.8,0,0.9,0.4c0.1,0.4,0,0.8-0.4,0.9C128.7,182.8,124.1,183.4,119.8,183.4z"/>
	<path class="st0" d="M160,183.4c-8.2,0-14.8-2.1-15.2-2.2c-0.4-0.1-0.6-0.5-0.5-0.9c0.1-0.4,0.5-0.6,0.9-0.5c0.1,0,15,4.8,27.7,0
		c0.4-0.1,0.8,0,0.9,0.4c0.1,0.4,0,0.8-0.4,0.9C168.9,182.8,164.2,183.4,160,183.4z"/>
	<path class="st0" d="M43.2,333.6H26l-0.1-0.1c-0.3-0.1-29.8-14.2-25.4-47.2l0.1-0.9l0.8,0.3c0.2,0.1,15.7,6.1,31.9,17.4
		c5.4,3.8,10.4,7.8,14.7,11.9l-1,1c-4.3-4-9.2-8-14.6-11.7c-14-9.7-27.4-15.5-30.8-16.9c-3.5,30.2,22.5,43.7,24.6,44.8h16.9V333.6z"
		/>
	<path class="st0" d="M101.7,333.6H42.5l0.1-0.8c0.7-6.2,2.2-12.1,4.4-17.5c9.2-22.4,28.2-29.5,28.4-29.5l0.3-0.1l0.3,0.1
		c18.5,9,26.7,24,30.4,35.1l-1.3,0.4c-3.6-10.8-11.5-25.4-29.4-34.2c-2.3,0.9-19,8.3-27.3,28.6c-2.1,5-3.5,10.5-4.2,16.4h57.7V333.6
		z"/>
	<path class="st0" d="M254,333.6h-17.2v-1.4h16.9c2.1-1,28.1-14.6,24.6-44.8c-3.4,1.4-16.8,7.2-30.7,16.9
		c-5.4,3.8-10.3,7.7-14.6,11.8l-1-1c4.3-4.1,9.3-8.1,14.8-11.9c16.2-11.3,31.7-17.3,31.9-17.4l0.8-0.3l0.1,0.9
		c4.4,33-25.1,47-25.4,47.2L254,333.6z"/>
	<path class="st0" d="M237.5,333.6h-59.3v-1.4H236c-0.7-5.8-2.1-11.3-4.2-16.4c-8.3-20.4-25-27.7-27.3-28.6
		c-17.8,8.8-25.8,23.4-29.4,34.2l-1.3-0.4c3.7-11.1,11.9-26.2,30.4-35.1l0.3-0.1l0.3,0.1c0.2,0.1,19.3,7.1,28.4,29.5
		c2.2,5.4,3.7,11.3,4.4,17.5L237.5,333.6z"/>
	<path class="st0" d="M179.1,333.6H140v-1.4h37.4c-0.4-1.7-1.5-5.7-3.6-10.8c-4.9-11.4-14.7-26.5-33.8-34.2
		c-19,7.7-28.9,22.8-33.8,34.2c-2.2,5.1-3.3,9.1-3.6,10.8H140v1.4h-39.1l0.2-0.8c0-0.2,1-5.1,3.9-11.9c5-11.7,15.2-27.2,34.8-35.1
		l0.3-0.1l0.3,0.1c19.7,7.8,29.8,23.4,34.8,35.1c2.9,6.8,3.9,11.7,3.9,11.9L179.1,333.6z"/>
	<polygon class="st0" points="140,333.6 140,333.6 140,332.2 	"/>
	<path class="st0" d="M164.8,259.5c-0.4,0-0.7-0.3-0.7-0.6c-0.1-0.7-1.8-18.4,8.6-30.1c5.7-6.4,14-9.6,24.7-9.6
		c0.4,0,0.7,0.3,0.7,0.7s-0.3,0.7-0.7,0.7c-10.2,0-18.2,3.1-23.6,9.1c-10,11.1-8.3,28.8-8.2,29C165.5,259.1,165.2,259.4,164.8,259.5
		C164.8,259.4,164.8,259.5,164.8,259.5z"/>
	<path class="st0" d="M140,222.3c-17.5,0-30.3-6.3-38-18.9c-6.3-10.4-7.4-22.5-7.5-28.8c0-0.4,0.3-0.7,0.7-0.7c0,0,0,0,0,0
		c0.4,0,0.7,0.3,0.7,0.7c0.7,41.8,31.1,46.3,44.1,46.3c13,0,43.4-4.5,44.1-46.3c0-0.4,0.3-0.7,0.7-0.7c0.4,0,0.7,0.3,0.7,0.7
		c-0.1,6.3-1.2,18.4-7.5,28.8C170.3,216,157.6,222.3,140,222.3z"/>
	<path class="st0" d="M140,234.4c-13.8,0-22.8-5.1-27.9-9.3c-5.6-4.6-7.8-9.2-7.9-9.4c-0.2-0.3,0-0.8,0.3-0.9c0.3-0.2,0.8,0,0.9,0.3
		c0.1,0.2,9,17.9,34.6,17.9c25.6,0,34.9-17.8,34.9-17.9c0.2-0.3,0.6-0.5,0.9-0.3c0.3,0.2,0.5,0.6,0.3,0.9
		C176.1,215.8,166.5,234.4,140,234.4z"/>
	<path class="st0" d="M110,287.2c-20.9,0-33-23.6-33.2-23.8c-0.2-0.3,0-0.8,0.3-0.9c0.3-0.2,0.8,0,0.9,0.3
		c0.1,0.2,11.9,23.1,31.9,23.1c20,0,29.3-22.8,29.4-23c0.1-0.4,0.6-0.5,0.9-0.4c0.4,0.1,0.5,0.6,0.4,0.9
		C140.6,263.5,130.9,287.2,110,287.2z"/>
	<path class="st0" d="M108.2,275.5c-6,0-12-2.8-17.6-8.2c-4.1-4-6.5-8-6.6-8.1c-0.2-0.3-0.1-0.8,0.2-1c0.3-0.2,0.8-0.1,1,0.2
		c0.1,0.2,9.4,15.7,22.9,15.7c16.7,0,25.3-15,25.7-15.6c0-0.1,0.1-0.1,0.1-0.2c0.3-0.3,0.7-0.3,1,0c0.2,0.2,0.3,0.6,0.1,0.9
		C134.4,260.4,125.4,275.5,108.2,275.5z"/>
	<path class="st0" d="M53.1,291.9c-0.3,0-0.6-0.3-0.7-0.6c-4.1-27.6,15.7-33,16.6-33.2c0.1,0,0.2,0,0.2,0c0.4,0,0.7,0.3,0.7,0.7
		c0,0.4-0.3,0.6-0.6,0.7c-1.1,0.3-19.4,5.6-15.5,31.7c0.1,0.4-0.2,0.7-0.6,0.8C53.2,291.9,53.2,291.9,53.1,291.9z"/>
	<path class="st0" d="M170,287.2c-20.9,0-30.6-23.7-30.7-23.9c-0.1-0.4,0-0.8,0.4-0.9c0.4-0.1,0.8,0,0.9,0.4c0.1,0.2,9.4,23,29.4,23
		c20,0,31.8-22.8,31.9-23.1c0.2-0.3,0.6-0.5,0.9-0.3c0.3,0.2,0.5,0.6,0.3,0.9C203.1,263.6,190.9,287.2,170,287.2z"/>
	<path class="st0" d="M171.8,275.5c-17.4,0-26.4-15.5-26.9-16.3c-0.2-0.3-0.1-0.6,0.1-0.9c0.3-0.3,0.7-0.3,1,0c0,0,0.1,0.1,0.1,0.2
		c0.4,0.6,9,15.6,25.7,15.6c13.6,0,22.8-15.5,22.9-15.7c0.2-0.3,0.6-0.4,1-0.2c0.3,0.2,0.4,0.6,0.2,1c-0.1,0.2-2.4,4.1-6.6,8.1
		C183.9,272.6,177.8,275.5,171.8,275.5z"/>
	<path class="st0" d="M226.9,291.9c0,0-0.1,0-0.1,0c-0.4-0.1-0.6-0.4-0.6-0.8c3.9-26.1-14.4-31.4-15.5-31.7c-0.3,0-0.6-0.3-0.6-0.7
		c0-0.4,0.3-0.7,0.7-0.7c0.1,0,0.2,0,0.2,0c0.9,0.2,20.7,5.7,16.6,33.3C227.5,291.7,227.2,291.9,226.9,291.9z"/>
	<g>
		<circle class="st1" cx="109.2" cy="14.7" r="3.4"/>
		<path class="st0" d="M109.2,18.8c-2.3,0-4.1-1.8-4.1-4.1s1.8-4.1,4.1-4.1s4.1,1.8,4.1,4.1S111.4,18.8,109.2,18.8z M109.2,12
			c-1.5,0-2.7,1.2-2.7,2.7c0,1.5,1.2,2.7,2.7,2.7c1.5,0,2.7-1.2,2.7-2.7C111.9,13.2,110.7,12,109.2,12z"/>
	</g>
	<g>
		<circle class="st1" cx="120.1" cy="7.8" r="3.4"/>
		<path class="st0" d="M120.1,12c-2.3,0-4.1-1.8-4.1-4.1s1.8-4.1,4.1-4.1s4.1,1.8,4.1,4.1S122.3,12,120.1,12z M120.1,5.1
			c-1.5,0-2.7,1.2-2.7,2.7s1.2,2.7,2.7,2.7c1.5,0,2.7-1.2,2.7-2.7S121.6,5.1,120.1,5.1z"/>
	</g>
	<g>
		<circle class="st1" cx="125.1" cy="7.8" r="3.4"/>
		<path class="st0" d="M125.1,12c-2.3,0-4.1-1.8-4.1-4.1s1.8-4.1,4.1-4.1s4.1,1.8,4.1,4.1S127.3,12,125.1,12z M125.1,5.1
			c-1.5,0-2.7,1.2-2.7,2.7s1.2,2.7,2.7,2.7s2.7-1.2,2.7-2.7S126.5,5.1,125.1,5.1z"/>
	</g>
	<g>
		<circle class="st1" cx="130.4" cy="4.1" r="3.4"/>
		<path class="st0" d="M130.4,8.2c-2.3,0-4.1-1.8-4.1-4.1s1.8-4.1,4.1-4.1s4.1,1.8,4.1,4.1S132.6,8.2,130.4,8.2z M130.4,1.4
			c-1.5,0-2.7,1.2-2.7,2.7c0,1.5,1.2,2.7,2.7,2.7c1.5,0,2.7-1.2,2.7-2.7C133.1,2.6,131.9,1.4,130.4,1.4z"/>
	</g>
	<g>
		<circle class="st1" cx="136.7" cy="4.1" r="3.4"/>
		<path class="st0" d="M136.7,8.2c-2.3,0-4.1-1.8-4.1-4.1s1.8-4.1,4.1-4.1s4.1,1.8,4.1,4.1S139,8.2,136.7,8.2z M136.7,1.4
			c-1.5,0-2.7,1.2-2.7,2.7c0,1.5,1.2,2.7,2.7,2.7s2.7-1.2,2.7-2.7C139.4,2.6,138.2,1.4,136.7,1.4z"/>
	</g>
	<g>
		<circle class="st1" cx="143.1" cy="4.1" r="3.4"/>
		<path class="st0" d="M143.1,8.2c-2.3,0-4.1-1.8-4.1-4.1s1.8-4.1,4.1-4.1s4.1,1.8,4.1,4.1S145.4,8.2,143.1,8.2z M143.1,1.4
			c-1.5,0-2.7,1.2-2.7,2.7c0,1.5,1.2,2.7,2.7,2.7c1.5,0,2.7-1.2,2.7-2.7C145.8,2.6,144.6,1.4,143.1,1.4z"/>
	</g>
	<g>
		<circle class="st1" cx="149.5" cy="4.1" r="3.4"/>
		<path class="st0" d="M149.5,8.2c-2.3,0-4.1-1.8-4.1-4.1s1.8-4.1,4.1-4.1s4.1,1.8,4.1,4.1S151.7,8.2,149.5,8.2z M149.5,1.4
			c-1.5,0-2.7,1.2-2.7,2.7c0,1.5,1.2,2.7,2.7,2.7c1.5,0,2.7-1.2,2.7-2.7C152.2,2.6,150.9,1.4,149.5,1.4z"/>
	</g>
	<g>
		<circle class="st1" cx="130.8" cy="7.8" r="3.4"/>
		<path class="st0" d="M130.8,12c-2.3,0-4.1-1.8-4.1-4.1s1.8-4.1,4.1-4.1s4.1,1.8,4.1,4.1S133,12,130.8,12z M130.8,5.1
			c-1.5,0-2.7,1.2-2.7,2.7s1.2,2.7,2.7,2.7s2.7-1.2,2.7-2.7S132.2,5.1,130.8,5.1z"/>
	</g>
	<g>
		<circle class="st1" cx="136.5" cy="7.8" r="3.4"/>
		<path class="st0" d="M136.5,12c-2.3,0-4.1-1.8-4.1-4.1s1.8-4.1,4.1-4.1s4.1,1.8,4.1,4.1S138.7,12,136.5,12z M136.5,5.1
			c-1.5,0-2.7,1.2-2.7,2.7s1.2,2.7,2.7,2.7c1.5,0,2.7-1.2,2.7-2.7S138,5.1,136.5,5.1z"/>
	</g>
	<g>
		<circle class="st1" cx="101.7" cy="24.1" r="3.4"/>
		<path class="st0" d="M101.7,28.2c-2.3,0-4.1-1.8-4.1-4.1s1.8-4.1,4.1-4.1c2.3,0,4.1,1.8,4.1,4.1S104,28.2,101.7,28.2z M101.7,21.4
			c-1.5,0-2.7,1.2-2.7,2.7c0,1.5,1.2,2.7,2.7,2.7c1.5,0,2.7-1.2,2.7-2.7C104.4,22.6,103.2,21.4,101.7,21.4z"/>
	</g>
	<g>
		<circle class="st1" cx="100.1" cy="30.5" r="3.4"/>
		<path class="st0" d="M100.1,34.6c-2.3,0-4.1-1.8-4.1-4.1s1.8-4.1,4.1-4.1s4.1,1.8,4.1,4.1S102.3,34.6,100.1,34.6z M100.1,27.8
			c-1.5,0-2.7,1.2-2.7,2.7c0,1.5,1.2,2.7,2.7,2.7c1.5,0,2.7-1.2,2.7-2.7C102.8,29,101.6,27.8,100.1,27.8z"/>
	</g>
	<g>
		<circle class="st1" cx="100.1" cy="36.8" r="3.4"/>
		<path class="st0" d="M100.1,40.9c-2.3,0-4.1-1.8-4.1-4.1c0-2.3,1.8-4.1,4.1-4.1s4.1,1.8,4.1,4.1C104.2,39.1,102.3,40.9,100.1,40.9
			z M100.1,34.1c-1.5,0-2.7,1.2-2.7,2.7c0,1.5,1.2,2.7,2.7,2.7c1.5,0,2.7-1.2,2.7-2.7C102.8,35.3,101.6,34.1,100.1,34.1z"/>
	</g>
	<g>
		<circle class="st1" cx="100.1" cy="43" r="3.4"/>
		<path class="st0" d="M100.1,47.1c-2.3,0-4.1-1.8-4.1-4.1c0-2.3,1.8-4.1,4.1-4.1s4.1,1.8,4.1,4.1C104.2,45.3,102.3,47.1,100.1,47.1
			z M100.1,40.3c-1.5,0-2.7,1.2-2.7,2.7c0,1.5,1.2,2.7,2.7,2.7c1.5,0,2.7-1.2,2.7-2.7C102.8,41.5,101.6,40.3,100.1,40.3z"/>
	</g>
	<g>
		<circle class="st1" cx="100.1" cy="49.2" r="3.4"/>
		<path class="st0" d="M100.1,53.3c-2.3,0-4.1-1.8-4.1-4.1s1.8-4.1,4.1-4.1s4.1,1.8,4.1,4.1S102.3,53.3,100.1,53.3z M100.1,46.5
			c-1.5,0-2.7,1.2-2.7,2.7s1.2,2.7,2.7,2.7c1.5,0,2.7-1.2,2.7-2.7S101.6,46.5,100.1,46.5z"/>
	</g>
	<g>
		<circle class="st1" cx="100.1" cy="55.4" r="3.4"/>
		<path class="st0" d="M100.1,59.5c-2.3,0-4.1-1.8-4.1-4.1c0-2.3,1.8-4.1,4.1-4.1s4.1,1.8,4.1,4.1C104.2,57.7,102.3,59.5,100.1,59.5
			z M100.1,52.7c-1.5,0-2.7,1.2-2.7,2.7c0,1.5,1.2,2.7,2.7,2.7c1.5,0,2.7-1.2,2.7-2.7C102.8,53.9,101.6,52.7,100.1,52.7z"/>
	</g>
	<g>
		<circle class="st1" cx="105.8" cy="18.1" r="3.4"/>
		<path class="st0" d="M105.8,22.2c-2.3,0-4.1-1.8-4.1-4.1s1.8-4.1,4.1-4.1s4.1,1.8,4.1,4.1S108,22.2,105.8,22.2z M105.8,15.4
			c-1.5,0-2.7,1.2-2.7,2.7c0,1.5,1.2,2.7,2.7,2.7c1.5,0,2.7-1.2,2.7-2.7C108.5,16.6,107.3,15.4,105.8,15.4z"/>
	</g>
	<g>
		<circle class="st1" cx="105.8" cy="24.3" r="3.4"/>
		<path class="st0" d="M105.8,28.4c-2.3,0-4.1-1.8-4.1-4.1s1.8-4.1,4.1-4.1s4.1,1.8,4.1,4.1S108,28.4,105.8,28.4z M105.8,21.6
			c-1.5,0-2.7,1.2-2.7,2.7c0,1.5,1.2,2.7,2.7,2.7c1.5,0,2.7-1.2,2.7-2.7C108.5,22.8,107.3,21.6,105.8,21.6z"/>
	</g>
	<g>
		<circle class="st1" cx="105.8" cy="30.5" r="3.4"/>
		<path class="st0" d="M105.8,34.6c-2.3,0-4.1-1.8-4.1-4.1s1.8-4.1,4.1-4.1s4.1,1.8,4.1,4.1S108,34.6,105.8,34.6z M105.8,27.8
			c-1.5,0-2.7,1.2-2.7,2.7c0,1.5,1.2,2.7,2.7,2.7c1.5,0,2.7-1.2,2.7-2.7C108.5,29,107.3,27.8,105.8,27.8z"/>
	</g>
	<g>
		<circle class="st1" cx="105.8" cy="36.7" r="3.4"/>
		<path class="st0" d="M105.8,40.8c-2.3,0-4.1-1.8-4.1-4.1c0-2.3,1.8-4.1,4.1-4.1s4.1,1.8,4.1,4.1C109.9,38.9,108,40.8,105.8,40.8z
			 M105.8,34c-1.5,0-2.7,1.2-2.7,2.7c0,1.5,1.2,2.7,2.7,2.7c1.5,0,2.7-1.2,2.7-2.7C108.5,35.2,107.3,34,105.8,34z"/>
	</g>
	<g>
		<circle class="st1" cx="105.8" cy="42.9" r="3.4"/>
		<path class="st0" d="M105.8,47c-2.3,0-4.1-1.8-4.1-4.1s1.8-4.1,4.1-4.1s4.1,1.8,4.1,4.1S108,47,105.8,47z M105.8,40.2
			c-1.5,0-2.7,1.2-2.7,2.7c0,1.5,1.2,2.7,2.7,2.7c1.5,0,2.7-1.2,2.7-2.7C108.5,41.4,107.3,40.2,105.8,40.2z"/>
	</g>
	<g>
		<circle class="st1" cx="105.8" cy="49.1" r="3.4"/>
		<path class="st0" d="M105.8,53.2c-2.3,0-4.1-1.8-4.1-4.1c0-2.3,1.8-4.1,4.1-4.1s4.1,1.8,4.1,4.1C109.9,51.3,108,53.2,105.8,53.2z
			 M105.8,46.4c-1.5,0-2.7,1.2-2.7,2.7c0,1.5,1.2,2.7,2.7,2.7c1.5,0,2.7-1.2,2.7-2.7C108.5,47.6,107.3,46.4,105.8,46.4z"/>
	</g>
	<g>
		<circle class="st1" cx="105.8" cy="55.3" r="3.4"/>
		<path class="st0" d="M105.8,59.4c-2.3,0-4.1-1.8-4.1-4.1c0-2.3,1.8-4.1,4.1-4.1s4.1,1.8,4.1,4.1C109.9,57.5,108,59.4,105.8,59.4z
			 M105.8,52.6c-1.5,0-2.7,1.2-2.7,2.7c0,1.5,1.2,2.7,2.7,2.7c1.5,0,2.7-1.2,2.7-2.7C108.5,53.8,107.3,52.6,105.8,52.6z"/>
	</g>
	<g>
		<circle class="st1" cx="113.1" cy="11.4" r="3.4"/>
		<path class="st0" d="M113.1,15.5c-2.3,0-4.1-1.8-4.1-4.1s1.8-4.1,4.1-4.1s4.1,1.8,4.1,4.1S115.3,15.5,113.1,15.5z M113.1,8.7
			c-1.5,0-2.7,1.2-2.7,2.7s1.2,2.7,2.7,2.7s2.7-1.2,2.7-2.7S114.6,8.7,113.1,8.7z"/>
	</g>
	<g>
		<circle class="st1" cx="111.5" cy="18.1" r="3.4"/>
		<path class="st0" d="M111.5,22.2c-2.3,0-4.1-1.8-4.1-4.1s1.8-4.1,4.1-4.1c2.3,0,4.1,1.8,4.1,4.1S113.7,22.2,111.5,22.2z
			 M111.5,15.4c-1.5,0-2.7,1.2-2.7,2.7c0,1.5,1.2,2.7,2.7,2.7c1.5,0,2.7-1.2,2.7-2.7C114.2,16.6,113,15.4,111.5,15.4z"/>
	</g>
	<g>
		<circle class="st1" cx="111.5" cy="24.3" r="3.4"/>
		<path class="st0" d="M111.5,28.4c-2.3,0-4.1-1.8-4.1-4.1s1.8-4.1,4.1-4.1c2.3,0,4.1,1.8,4.1,4.1S113.7,28.4,111.5,28.4z
			 M111.5,21.6c-1.5,0-2.7,1.2-2.7,2.7c0,1.5,1.2,2.7,2.7,2.7c1.5,0,2.7-1.2,2.7-2.7C114.2,22.8,113,21.6,111.5,21.6z"/>
	</g>
	<g>
		<circle class="st1" cx="111.5" cy="30.5" r="3.4"/>
		<path class="st0" d="M111.5,34.6c-2.3,0-4.1-1.8-4.1-4.1s1.8-4.1,4.1-4.1c2.3,0,4.1,1.8,4.1,4.1S113.7,34.6,111.5,34.6z
			 M111.5,27.8c-1.5,0-2.7,1.2-2.7,2.7c0,1.5,1.2,2.7,2.7,2.7c1.5,0,2.7-1.2,2.7-2.7C114.2,29,113,27.8,111.5,27.8z"/>
	</g>
	<g>
		<circle class="st1" cx="111.5" cy="36.7" r="3.4"/>
		<path class="st0" d="M111.5,40.8c-2.3,0-4.1-1.8-4.1-4.1c0-2.3,1.8-4.1,4.1-4.1c2.3,0,4.1,1.8,4.1,4.1
			C115.6,38.9,113.7,40.8,111.5,40.8z M111.5,34c-1.5,0-2.7,1.2-2.7,2.7c0,1.5,1.2,2.7,2.7,2.7c1.5,0,2.7-1.2,2.7-2.7
			C114.2,35.2,113,34,111.5,34z"/>
	</g>
	<g>
		<circle class="st1" cx="117.2" cy="11.9" r="3.4"/>
		<path class="st0" d="M117.2,16c-2.3,0-4.1-1.8-4.1-4.1s1.8-4.1,4.1-4.1c2.3,0,4.1,1.8,4.1,4.1S119.4,16,117.2,16z M117.2,9.2
			c-1.5,0-2.7,1.2-2.7,2.7s1.2,2.7,2.7,2.7c1.5,0,2.7-1.2,2.7-2.7S118.7,9.2,117.2,9.2z"/>
	</g>
	<g>
		<circle class="st1" cx="117.2" cy="18.1" r="3.4"/>
		<path class="st0" d="M117.2,22.2c-2.3,0-4.1-1.8-4.1-4.1s1.8-4.1,4.1-4.1c2.3,0,4.1,1.8,4.1,4.1S119.4,22.2,117.2,22.2z
			 M117.2,15.4c-1.5,0-2.7,1.2-2.7,2.7c0,1.5,1.2,2.7,2.7,2.7c1.5,0,2.7-1.2,2.7-2.7C119.9,16.6,118.7,15.4,117.2,15.4z"/>
	</g>
	<g>
		<circle class="st1" cx="117.2" cy="24.3" r="3.4"/>
		<path class="st0" d="M117.2,28.4c-2.3,0-4.1-1.8-4.1-4.1s1.8-4.1,4.1-4.1c2.3,0,4.1,1.8,4.1,4.1S119.4,28.4,117.2,28.4z
			 M117.2,21.6c-1.5,0-2.7,1.2-2.7,2.7c0,1.5,1.2,2.7,2.7,2.7c1.5,0,2.7-1.2,2.7-2.7C119.9,22.8,118.7,21.6,117.2,21.6z"/>
	</g>
	<g>
		<circle class="st1" cx="117.2" cy="30.5" r="3.4"/>
		<path class="st0" d="M117.2,34.6c-2.3,0-4.1-1.8-4.1-4.1s1.8-4.1,4.1-4.1c2.3,0,4.1,1.8,4.1,4.1S119.4,34.6,117.2,34.6z
			 M117.2,27.8c-1.5,0-2.7,1.2-2.7,2.7c0,1.5,1.2,2.7,2.7,2.7c1.5,0,2.7-1.2,2.7-2.7C119.9,29,118.7,27.8,117.2,27.8z"/>
	</g>
	<g>
		<circle class="st1" cx="122.9" cy="11.9" r="3.4"/>
		<path class="st0" d="M122.9,16c-2.3,0-4.1-1.8-4.1-4.1s1.8-4.1,4.1-4.1s4.1,1.8,4.1,4.1S125.2,16,122.9,16z M122.9,9.2
			c-1.5,0-2.7,1.2-2.7,2.7s1.2,2.7,2.7,2.7s2.7-1.2,2.7-2.7S124.4,9.2,122.9,9.2z"/>
	</g>
	<g>
		<circle class="st1" cx="122.9" cy="18.1" r="3.4"/>
		<path class="st0" d="M122.9,22.2c-2.3,0-4.1-1.8-4.1-4.1s1.8-4.1,4.1-4.1s4.1,1.8,4.1,4.1S125.2,22.2,122.9,22.2z M122.9,15.4
			c-1.5,0-2.7,1.2-2.7,2.7c0,1.5,1.2,2.7,2.7,2.7s2.7-1.2,2.7-2.7C125.6,16.6,124.4,15.4,122.9,15.4z"/>
	</g>
	<g>
		<circle class="st1" cx="122.9" cy="24.3" r="3.4"/>
		<path class="st0" d="M122.9,28.4c-2.3,0-4.1-1.8-4.1-4.1s1.8-4.1,4.1-4.1s4.1,1.8,4.1,4.1S125.2,28.4,122.9,28.4z M122.9,21.6
			c-1.5,0-2.7,1.2-2.7,2.7c0,1.5,1.2,2.7,2.7,2.7s2.7-1.2,2.7-2.7C125.6,22.8,124.4,21.6,122.9,21.6z"/>
	</g>
	<g>
		<circle class="st1" cx="122.9" cy="30.5" r="3.4"/>
		<path class="st0" d="M122.9,34.6c-2.3,0-4.1-1.8-4.1-4.1s1.8-4.1,4.1-4.1s4.1,1.8,4.1,4.1S125.2,34.6,122.9,34.6z M122.9,27.8
			c-1.5,0-2.7,1.2-2.7,2.7c0,1.5,1.2,2.7,2.7,2.7s2.7-1.2,2.7-2.7C125.6,29,124.4,27.8,122.9,27.8z"/>
	</g>
	<g>
		<circle class="st1" cx="128.6" cy="11.9" r="3.4"/>
		<path class="st0" d="M128.6,16c-2.3,0-4.1-1.8-4.1-4.1s1.8-4.1,4.1-4.1s4.1,1.8,4.1,4.1S130.9,16,128.6,16z M128.6,9.2
			c-1.5,0-2.7,1.2-2.7,2.7s1.2,2.7,2.7,2.7s2.7-1.2,2.7-2.7S130.1,9.2,128.6,9.2z"/>
	</g>
	<g>
		<circle class="st1" cx="128.6" cy="18.1" r="3.4"/>
		<path class="st0" d="M128.6,22.2c-2.3,0-4.1-1.8-4.1-4.1s1.8-4.1,4.1-4.1s4.1,1.8,4.1,4.1S130.9,22.2,128.6,22.2z M128.6,15.4
			c-1.5,0-2.7,1.2-2.7,2.7c0,1.5,1.2,2.7,2.7,2.7s2.7-1.2,2.7-2.7C131.3,16.6,130.1,15.4,128.6,15.4z"/>
	</g>
	<g>
		<circle class="st1" cx="128.6" cy="24.3" r="3.4"/>
		<path class="st0" d="M128.6,28.4c-2.3,0-4.1-1.8-4.1-4.1s1.8-4.1,4.1-4.1s4.1,1.8,4.1,4.1S130.9,28.4,128.6,28.4z M128.6,21.6
			c-1.5,0-2.7,1.2-2.7,2.7c0,1.5,1.2,2.7,2.7,2.7s2.7-1.2,2.7-2.7C131.3,22.8,130.1,21.6,128.6,21.6z"/>
	</g>
	<g>
		<circle class="st1" cx="128.6" cy="30.5" r="3.4"/>
		<path class="st0" d="M128.6,34.6c-2.3,0-4.1-1.8-4.1-4.1s1.8-4.1,4.1-4.1s4.1,1.8,4.1,4.1S130.9,34.6,128.6,34.6z M128.6,27.8
			c-1.5,0-2.7,1.2-2.7,2.7c0,1.5,1.2,2.7,2.7,2.7s2.7-1.2,2.7-2.7C131.3,29,130.1,27.8,128.6,27.8z"/>
	</g>
	<g>
		<circle class="st1" cx="134.3" cy="11.9" r="3.4"/>
		<path class="st0" d="M134.3,16c-2.3,0-4.1-1.8-4.1-4.1s1.8-4.1,4.1-4.1s4.1,1.8,4.1,4.1S136.6,16,134.3,16z M134.3,9.2
			c-1.5,0-2.7,1.2-2.7,2.7s1.2,2.7,2.7,2.7c1.5,0,2.7-1.2,2.7-2.7S135.8,9.2,134.3,9.2z"/>
	</g>
	<g>
		<circle class="st1" cx="134.3" cy="18.1" r="3.4"/>
		<path class="st0" d="M134.3,22.2c-2.3,0-4.1-1.8-4.1-4.1s1.8-4.1,4.1-4.1s4.1,1.8,4.1,4.1S136.6,22.2,134.3,22.2z M134.3,15.4
			c-1.5,0-2.7,1.2-2.7,2.7c0,1.5,1.2,2.7,2.7,2.7c1.5,0,2.7-1.2,2.7-2.7C137,16.6,135.8,15.4,134.3,15.4z"/>
	</g>
	<g>
		<circle class="st1" cx="134.3" cy="24.3" r="3.4"/>
		<path class="st0" d="M134.3,28.4c-2.3,0-4.1-1.8-4.1-4.1s1.8-4.1,4.1-4.1s4.1,1.8,4.1,4.1S136.6,28.4,134.3,28.4z M134.3,21.6
			c-1.5,0-2.7,1.2-2.7,2.7c0,1.5,1.2,2.7,2.7,2.7c1.5,0,2.7-1.2,2.7-2.7C137,22.8,135.8,21.6,134.3,21.6z"/>
	</g>
	<g>
		<circle class="st1" cx="134.3" cy="30.5" r="3.4"/>
		<path class="st0" d="M134.3,34.6c-2.3,0-4.1-1.8-4.1-4.1s1.8-4.1,4.1-4.1s4.1,1.8,4.1,4.1S136.6,34.6,134.3,34.6z M134.3,27.8
			c-1.5,0-2.7,1.2-2.7,2.7c0,1.5,1.2,2.7,2.7,2.7c1.5,0,2.7-1.2,2.7-2.7C137,29,135.8,27.8,134.3,27.8z"/>
	</g>
	<g>
		<circle class="st1" cx="170.6" cy="14.7" r="3.4"/>
		<path class="st0" d="M170.6,18.8c-2.3,0-4.1-1.8-4.1-4.1s1.8-4.1,4.1-4.1c2.3,0,4.1,1.8,4.1,4.1S172.8,18.8,170.6,18.8z M170.6,12
			c-1.5,0-2.7,1.2-2.7,2.7c0,1.5,1.2,2.7,2.7,2.7c1.5,0,2.7-1.2,2.7-2.7C173.3,13.2,172,12,170.6,12z"/>
	</g>
	<g>
		<circle class="st1" cx="159.4" cy="7.8" r="3.4"/>
		<path class="st0" d="M159.4,12c-2.3,0-4.1-1.8-4.1-4.1s1.8-4.1,4.1-4.1s4.1,1.8,4.1,4.1S161.7,12,159.4,12z M159.4,5.1
			c-1.5,0-2.7,1.2-2.7,2.7s1.2,2.7,2.7,2.7s2.7-1.2,2.7-2.7S160.9,5.1,159.4,5.1z"/>
	</g>
	<g>
		<circle class="st1" cx="154.7" cy="7.8" r="3.4"/>
		<path class="st0" d="M154.7,12c-2.3,0-4.1-1.8-4.1-4.1s1.8-4.1,4.1-4.1s4.1,1.8,4.1,4.1S156.9,12,154.7,12z M154.7,5.1
			c-1.5,0-2.7,1.2-2.7,2.7s1.2,2.7,2.7,2.7s2.7-1.2,2.7-2.7S156.2,5.1,154.7,5.1z"/>
	</g>
	<g>
		<circle class="st1" cx="149" cy="7.8" r="3.4"/>
		<path class="st0" d="M149,12c-2.3,0-4.1-1.8-4.1-4.1s1.8-4.1,4.1-4.1s4.1,1.8,4.1,4.1S151.2,12,149,12z M149,5.1
			c-1.5,0-2.7,1.2-2.7,2.7s1.2,2.7,2.7,2.7c1.5,0,2.7-1.2,2.7-2.7S150.5,5.1,149,5.1z"/>
	</g>
	<g>
		<circle class="st1" cx="143.3" cy="7.8" r="3.4"/>
		<path class="st0" d="M143.3,12c-2.3,0-4.1-1.8-4.1-4.1s1.8-4.1,4.1-4.1s4.1,1.8,4.1,4.1S145.5,12,143.3,12z M143.3,5.1
			c-1.5,0-2.7,1.2-2.7,2.7s1.2,2.7,2.7,2.7c1.5,0,2.7-1.2,2.7-2.7S144.8,5.1,143.3,5.1z"/>
	</g>
	<g>
		<circle class="st1" cx="178" cy="24.1" r="3.4"/>
		<path class="st0" d="M178,28.2c-2.3,0-4.1-1.8-4.1-4.1s1.8-4.1,4.1-4.1s4.1,1.8,4.1,4.1S180.3,28.2,178,28.2z M178,21.4
			c-1.5,0-2.7,1.2-2.7,2.7c0,1.5,1.2,2.7,2.7,2.7s2.7-1.2,2.7-2.7C180.7,22.6,179.5,21.4,178,21.4z"/>
	</g>
	<g>
		<circle class="st1" cx="179.7" cy="30.5" r="3.4"/>
		<path class="st0" d="M179.7,34.6c-2.3,0-4.1-1.8-4.1-4.1s1.8-4.1,4.1-4.1c2.3,0,4.1,1.8,4.1,4.1S181.9,34.6,179.7,34.6z
			 M179.7,27.8c-1.5,0-2.7,1.2-2.7,2.7c0,1.5,1.2,2.7,2.7,2.7c1.5,0,2.7-1.2,2.7-2.7C182.4,29,181.2,27.8,179.7,27.8z"/>
	</g>
	<g>
		<circle class="st1" cx="179.7" cy="36.8" r="3.4"/>
		<path class="st0" d="M179.7,40.9c-2.3,0-4.1-1.8-4.1-4.1c0-2.3,1.8-4.1,4.1-4.1c2.3,0,4.1,1.8,4.1,4.1
			C183.8,39.1,181.9,40.9,179.7,40.9z M179.7,34.1c-1.5,0-2.7,1.2-2.7,2.7c0,1.5,1.2,2.7,2.7,2.7c1.5,0,2.7-1.2,2.7-2.7
			C182.4,35.3,181.2,34.1,179.7,34.1z"/>
	</g>
	<g>
		<circle class="st1" cx="179.7" cy="43" r="3.4"/>
		<path class="st0" d="M179.7,47.1c-2.3,0-4.1-1.8-4.1-4.1c0-2.3,1.8-4.1,4.1-4.1c2.3,0,4.1,1.8,4.1,4.1
			C183.8,45.3,181.9,47.1,179.7,47.1z M179.7,40.3c-1.5,0-2.7,1.2-2.7,2.7c0,1.5,1.2,2.7,2.7,2.7c1.5,0,2.7-1.2,2.7-2.7
			C182.4,41.5,181.2,40.3,179.7,40.3z"/>
	</g>
	<g>
		<circle class="st1" cx="179.7" cy="49.2" r="3.4"/>
		<path class="st0" d="M179.7,53.3c-2.3,0-4.1-1.8-4.1-4.1s1.8-4.1,4.1-4.1c2.3,0,4.1,1.8,4.1,4.1S181.9,53.3,179.7,53.3z
			 M179.7,46.5c-1.5,0-2.7,1.2-2.7,2.7s1.2,2.7,2.7,2.7c1.5,0,2.7-1.2,2.7-2.7S181.2,46.5,179.7,46.5z"/>
	</g>
	<g>
		<circle class="st1" cx="179.7" cy="55.4" r="3.4"/>
		<path class="st0" d="M179.7,59.5c-2.3,0-4.1-1.8-4.1-4.1c0-2.3,1.8-4.1,4.1-4.1c2.3,0,4.1,1.8,4.1,4.1
			C183.8,57.7,181.9,59.5,179.7,59.5z M179.7,52.7c-1.5,0-2.7,1.2-2.7,2.7c0,1.5,1.2,2.7,2.7,2.7c1.5,0,2.7-1.2,2.7-2.7
			C182.4,53.9,181.2,52.7,179.7,52.7z"/>
	</g>
	<g>
		<circle class="st1" cx="174" cy="18.1" r="3.4"/>
		<path class="st0" d="M174,22.2c-2.3,0-4.1-1.8-4.1-4.1s1.8-4.1,4.1-4.1s4.1,1.8,4.1,4.1S176.2,22.2,174,22.2z M174,15.4
			c-1.5,0-2.7,1.2-2.7,2.7c0,1.5,1.2,2.7,2.7,2.7c1.5,0,2.7-1.2,2.7-2.7C176.7,16.6,175.5,15.4,174,15.4z"/>
	</g>
	<g>
		<circle class="st1" cx="174" cy="24.3" r="3.4"/>
		<path class="st0" d="M174,28.4c-2.3,0-4.1-1.8-4.1-4.1s1.8-4.1,4.1-4.1s4.1,1.8,4.1,4.1S176.2,28.4,174,28.4z M174,21.6
			c-1.5,0-2.7,1.2-2.7,2.7c0,1.5,1.2,2.7,2.7,2.7c1.5,0,2.7-1.2,2.7-2.7C176.7,22.8,175.5,21.6,174,21.6z"/>
	</g>
	<g>
		<circle class="st1" cx="174" cy="30.5" r="3.4"/>
		<path class="st0" d="M174,34.6c-2.3,0-4.1-1.8-4.1-4.1s1.8-4.1,4.1-4.1s4.1,1.8,4.1,4.1S176.2,34.6,174,34.6z M174,27.8
			c-1.5,0-2.7,1.2-2.7,2.7c0,1.5,1.2,2.7,2.7,2.7c1.5,0,2.7-1.2,2.7-2.7C176.7,29,175.5,27.8,174,27.8z"/>
	</g>
	<g>
		<circle class="st1" cx="174" cy="36.7" r="3.4"/>
		<path class="st0" d="M174,40.8c-2.3,0-4.1-1.8-4.1-4.1c0-2.3,1.8-4.1,4.1-4.1s4.1,1.8,4.1,4.1C178.1,38.9,176.2,40.8,174,40.8z
			 M174,34c-1.5,0-2.7,1.2-2.7,2.7c0,1.5,1.2,2.7,2.7,2.7c1.5,0,2.7-1.2,2.7-2.7C176.7,35.2,175.5,34,174,34z"/>
	</g>
	<g>
		<circle class="st1" cx="174" cy="42.9" r="3.4"/>
		<path class="st0" d="M174,47c-2.3,0-4.1-1.8-4.1-4.1s1.8-4.1,4.1-4.1s4.1,1.8,4.1,4.1S176.2,47,174,47z M174,40.2
			c-1.5,0-2.7,1.2-2.7,2.7c0,1.5,1.2,2.7,2.7,2.7c1.5,0,2.7-1.2,2.7-2.7C176.7,41.4,175.5,40.2,174,40.2z"/>
	</g>
	<g>
		<circle class="st1" cx="174" cy="49.1" r="3.4"/>
		<path class="st0" d="M174,53.2c-2.3,0-4.1-1.8-4.1-4.1c0-2.3,1.8-4.1,4.1-4.1s4.1,1.8,4.1,4.1C178.1,51.3,176.2,53.2,174,53.2z
			 M174,46.4c-1.5,0-2.7,1.2-2.7,2.7c0,1.5,1.2,2.7,2.7,2.7c1.5,0,2.7-1.2,2.7-2.7C176.7,47.6,175.5,46.4,174,46.4z"/>
	</g>
	<g>
		<circle class="st1" cx="174" cy="55.3" r="3.4"/>
		<path class="st0" d="M174,59.4c-2.3,0-4.1-1.8-4.1-4.1c0-2.3,1.8-4.1,4.1-4.1s4.1,1.8,4.1,4.1C178.1,57.5,176.2,59.4,174,59.4z
			 M174,52.6c-1.5,0-2.7,1.2-2.7,2.7c0,1.5,1.2,2.7,2.7,2.7c1.5,0,2.7-1.2,2.7-2.7C176.7,53.8,175.5,52.6,174,52.6z"/>
	</g>
	<g>
		<circle class="st1" cx="166.7" cy="11.4" r="3.4"/>
		<path class="st0" d="M166.7,15.5c-2.3,0-4.1-1.8-4.1-4.1s1.8-4.1,4.1-4.1s4.1,1.8,4.1,4.1S168.9,15.5,166.7,15.5z M166.7,8.7
			c-1.5,0-2.7,1.2-2.7,2.7s1.2,2.7,2.7,2.7c1.5,0,2.7-1.2,2.7-2.7S168.2,8.7,166.7,8.7z"/>
	</g>
	<g>
		<circle class="st1" cx="168.3" cy="18.1" r="3.4"/>
		<path class="st0" d="M168.3,22.2c-2.3,0-4.1-1.8-4.1-4.1s1.8-4.1,4.1-4.1s4.1,1.8,4.1,4.1S170.5,22.2,168.3,22.2z M168.3,15.4
			c-1.5,0-2.7,1.2-2.7,2.7c0,1.5,1.2,2.7,2.7,2.7s2.7-1.2,2.7-2.7C171,16.6,169.7,15.4,168.3,15.4z"/>
	</g>
	<g>
		<circle class="st1" cx="168.3" cy="24.3" r="3.4"/>
		<path class="st0" d="M168.3,28.4c-2.3,0-4.1-1.8-4.1-4.1s1.8-4.1,4.1-4.1s4.1,1.8,4.1,4.1S170.5,28.4,168.3,28.4z M168.3,21.6
			c-1.5,0-2.7,1.2-2.7,2.7c0,1.5,1.2,2.7,2.7,2.7s2.7-1.2,2.7-2.7C171,22.8,169.7,21.6,168.3,21.6z"/>
	</g>
	<g>
		<circle class="st1" cx="168.3" cy="30.5" r="3.4"/>
		<path class="st0" d="M168.3,34.6c-2.3,0-4.1-1.8-4.1-4.1s1.8-4.1,4.1-4.1s4.1,1.8,4.1,4.1S170.5,34.6,168.3,34.6z M168.3,27.8
			c-1.5,0-2.7,1.2-2.7,2.7c0,1.5,1.2,2.7,2.7,2.7s2.7-1.2,2.7-2.7C171,29,169.7,27.8,168.3,27.8z"/>
	</g>
	<g>
		<circle class="st1" cx="168.3" cy="36.7" r="3.4"/>
		<path class="st0" d="M168.3,40.8c-2.3,0-4.1-1.8-4.1-4.1c0-2.3,1.8-4.1,4.1-4.1s4.1,1.8,4.1,4.1C172.4,38.9,170.5,40.8,168.3,40.8
			z M168.3,34c-1.5,0-2.7,1.2-2.7,2.7c0,1.5,1.2,2.7,2.7,2.7s2.7-1.2,2.7-2.7C171,35.2,169.7,34,168.3,34z"/>
	</g>
	<g>
		<circle class="st1" cx="162.6" cy="11.9" r="3.4"/>
		<path class="st0" d="M162.6,16c-2.3,0-4.1-1.8-4.1-4.1s1.8-4.1,4.1-4.1s4.1,1.8,4.1,4.1S164.8,16,162.6,16z M162.6,9.2
			c-1.5,0-2.7,1.2-2.7,2.7s1.2,2.7,2.7,2.7s2.7-1.2,2.7-2.7S164,9.2,162.6,9.2z"/>
	</g>
	<g>
		<circle class="st1" cx="162.6" cy="18.1" r="3.4"/>
		<path class="st0" d="M162.6,22.2c-2.3,0-4.1-1.8-4.1-4.1s1.8-4.1,4.1-4.1s4.1,1.8,4.1,4.1S164.8,22.2,162.6,22.2z M162.6,15.4
			c-1.5,0-2.7,1.2-2.7,2.7c0,1.5,1.2,2.7,2.7,2.7s2.7-1.2,2.7-2.7C165.3,16.6,164,15.4,162.6,15.4z"/>
	</g>
	<g>
		<circle class="st1" cx="162.6" cy="24.3" r="3.4"/>
		<path class="st0" d="M162.6,28.4c-2.3,0-4.1-1.8-4.1-4.1s1.8-4.1,4.1-4.1s4.1,1.8,4.1,4.1S164.8,28.4,162.6,28.4z M162.6,21.6
			c-1.5,0-2.7,1.2-2.7,2.7c0,1.5,1.2,2.7,2.7,2.7s2.7-1.2,2.7-2.7C165.3,22.8,164,21.6,162.6,21.6z"/>
	</g>
	<g>
		<circle class="st1" cx="162.6" cy="30.5" r="3.4"/>
		<path class="st0" d="M162.6,34.6c-2.3,0-4.1-1.8-4.1-4.1s1.8-4.1,4.1-4.1s4.1,1.8,4.1,4.1S164.8,34.6,162.6,34.6z M162.6,27.8
			c-1.5,0-2.7,1.2-2.7,2.7c0,1.5,1.2,2.7,2.7,2.7s2.7-1.2,2.7-2.7C165.3,29,164,27.8,162.6,27.8z"/>
	</g>
	<g>
		<circle class="st1" cx="156.8" cy="11.9" r="3.4"/>
		<path class="st0" d="M156.8,16c-2.3,0-4.1-1.8-4.1-4.1s1.8-4.1,4.1-4.1s4.1,1.8,4.1,4.1S159.1,16,156.8,16z M156.8,9.2
			c-1.5,0-2.7,1.2-2.7,2.7s1.2,2.7,2.7,2.7s2.7-1.2,2.7-2.7S158.3,9.2,156.8,9.2z"/>
	</g>
	<g>
		<circle class="st1" cx="156.8" cy="18.1" r="3.4"/>
		<path class="st0" d="M156.8,22.2c-2.3,0-4.1-1.8-4.1-4.1s1.8-4.1,4.1-4.1s4.1,1.8,4.1,4.1S159.1,22.2,156.8,22.2z M156.8,15.4
			c-1.5,0-2.7,1.2-2.7,2.7c0,1.5,1.2,2.7,2.7,2.7s2.7-1.2,2.7-2.7C159.6,16.6,158.3,15.4,156.8,15.4z"/>
	</g>
	<g>
		<circle class="st1" cx="156.8" cy="24.3" r="3.4"/>
		<path class="st0" d="M156.8,28.4c-2.3,0-4.1-1.8-4.1-4.1s1.8-4.1,4.1-4.1s4.1,1.8,4.1,4.1S159.1,28.4,156.8,28.4z M156.8,21.6
			c-1.5,0-2.7,1.2-2.7,2.7c0,1.5,1.2,2.7,2.7,2.7s2.7-1.2,2.7-2.7C159.6,22.8,158.3,21.6,156.8,21.6z"/>
	</g>
	<g>
		<circle class="st1" cx="156.8" cy="30.5" r="3.4"/>
		<path class="st0" d="M156.8,34.6c-2.3,0-4.1-1.8-4.1-4.1s1.8-4.1,4.1-4.1s4.1,1.8,4.1,4.1S159.1,34.6,156.8,34.6z M156.8,27.8
			c-1.5,0-2.7,1.2-2.7,2.7c0,1.5,1.2,2.7,2.7,2.7s2.7-1.2,2.7-2.7C159.6,29,158.3,27.8,156.8,27.8z"/>
	</g>
	<g>
		<circle class="st1" cx="151.1" cy="11.9" r="3.4"/>
		<path class="st0" d="M151.1,16c-2.3,0-4.1-1.8-4.1-4.1s1.8-4.1,4.1-4.1c2.3,0,4.1,1.8,4.1,4.1S153.4,16,151.1,16z M151.1,9.2
			c-1.5,0-2.7,1.2-2.7,2.7s1.2,2.7,2.7,2.7c1.5,0,2.7-1.2,2.7-2.7S152.6,9.2,151.1,9.2z"/>
	</g>
	<g>
		<circle class="st1" cx="151.1" cy="18.1" r="3.4"/>
		<path class="st0" d="M151.1,22.2c-2.3,0-4.1-1.8-4.1-4.1s1.8-4.1,4.1-4.1c2.3,0,4.1,1.8,4.1,4.1S153.4,22.2,151.1,22.2z
			 M151.1,15.4c-1.5,0-2.7,1.2-2.7,2.7c0,1.5,1.2,2.7,2.7,2.7c1.5,0,2.7-1.2,2.7-2.7C153.8,16.6,152.6,15.4,151.1,15.4z"/>
	</g>
	<g>
		<circle class="st1" cx="151.1" cy="24.3" r="3.4"/>
		<path class="st0" d="M151.1,28.4c-2.3,0-4.1-1.8-4.1-4.1s1.8-4.1,4.1-4.1c2.3,0,4.1,1.8,4.1,4.1S153.4,28.4,151.1,28.4z
			 M151.1,21.6c-1.5,0-2.7,1.2-2.7,2.7c0,1.5,1.2,2.7,2.7,2.7c1.5,0,2.7-1.2,2.7-2.7C153.8,22.8,152.6,21.6,151.1,21.6z"/>
	</g>
	<g>
		<circle class="st1" cx="151.1" cy="30.5" r="3.4"/>
		<path class="st0" d="M151.1,34.6c-2.3,0-4.1-1.8-4.1-4.1s1.8-4.1,4.1-4.1c2.3,0,4.1,1.8,4.1,4.1S153.4,34.6,151.1,34.6z
			 M151.1,27.8c-1.5,0-2.7,1.2-2.7,2.7c0,1.5,1.2,2.7,2.7,2.7c1.5,0,2.7-1.2,2.7-2.7C153.8,29,152.6,27.8,151.1,27.8z"/>
	</g>
	<g>
		<circle class="st1" cx="145.4" cy="11.9" r="3.4"/>
		<path class="st0" d="M145.4,16c-2.3,0-4.1-1.8-4.1-4.1s1.8-4.1,4.1-4.1s4.1,1.8,4.1,4.1S147.7,16,145.4,16z M145.4,9.2
			c-1.5,0-2.7,1.2-2.7,2.7s1.2,2.7,2.7,2.7c1.5,0,2.7-1.2,2.7-2.7S146.9,9.2,145.4,9.2z"/>
	</g>
	<g>
		<circle class="st1" cx="145.4" cy="18.1" r="3.4"/>
		<path class="st0" d="M145.4,22.2c-2.3,0-4.1-1.8-4.1-4.1s1.8-4.1,4.1-4.1s4.1,1.8,4.1,4.1S147.7,22.2,145.4,22.2z M145.4,15.4
			c-1.5,0-2.7,1.2-2.7,2.7c0,1.5,1.2,2.7,2.7,2.7c1.5,0,2.7-1.2,2.7-2.7C148.1,16.6,146.9,15.4,145.4,15.4z"/>
	</g>
	<g>
		<circle class="st1" cx="145.4" cy="24.3" r="3.4"/>
		<path class="st0" d="M145.4,28.4c-2.3,0-4.1-1.8-4.1-4.1s1.8-4.1,4.1-4.1s4.1,1.8,4.1,4.1S147.7,28.4,145.4,28.4z M145.4,21.6
			c-1.5,0-2.7,1.2-2.7,2.7c0,1.5,1.2,2.7,2.7,2.7c1.5,0,2.7-1.2,2.7-2.7C148.1,22.8,146.9,21.6,145.4,21.6z"/>
	</g>
	<g>
		<circle class="st1" cx="145.4" cy="30.5" r="3.4"/>
		<path class="st0" d="M145.4,34.6c-2.3,0-4.1-1.8-4.1-4.1s1.8-4.1,4.1-4.1s4.1,1.8,4.1,4.1S147.7,34.6,145.4,34.6z M145.4,27.8
			c-1.5,0-2.7,1.2-2.7,2.7c0,1.5,1.2,2.7,2.7,2.7c1.5,0,2.7-1.2,2.7-2.7C148.1,29,146.9,27.8,145.4,27.8z"/>
	</g>
	<g>
		<circle class="st1" cx="140" cy="11.9" r="3.4"/>
		<path class="st0" d="M140,16c-2.3,0-4.1-1.8-4.1-4.1s1.8-4.1,4.1-4.1s4.1,1.8,4.1,4.1S142.3,16,140,16z M140,9.2
			c-1.5,0-2.7,1.2-2.7,2.7s1.2,2.7,2.7,2.7c1.5,0,2.7-1.2,2.7-2.7S141.5,9.2,140,9.2z"/>
	</g>
	<g>
		<circle class="st1" cx="140" cy="18.1" r="3.4"/>
		<path class="st0" d="M140,22.2c-2.3,0-4.1-1.8-4.1-4.1s1.8-4.1,4.1-4.1s4.1,1.8,4.1,4.1S142.3,22.2,140,22.2z M140,15.4
			c-1.5,0-2.7,1.2-2.7,2.7c0,1.5,1.2,2.7,2.7,2.7c1.5,0,2.7-1.2,2.7-2.7C142.7,16.6,141.5,15.4,140,15.4z"/>
	</g>
	<g>
		<circle class="st1" cx="140" cy="24.3" r="3.4"/>
		<path class="st0" d="M140,28.4c-2.3,0-4.1-1.8-4.1-4.1s1.8-4.1,4.1-4.1s4.1,1.8,4.1,4.1S142.3,28.4,140,28.4z M140,21.6
			c-1.5,0-2.7,1.2-2.7,2.7c0,1.5,1.2,2.7,2.7,2.7c1.5,0,2.7-1.2,2.7-2.7C142.7,22.8,141.5,21.6,140,21.6z"/>
	</g>
	<g>
		<circle class="st1" cx="140" cy="30.5" r="3.4"/>
		<path class="st0" d="M140,34.6c-2.3,0-4.1-1.8-4.1-4.1s1.8-4.1,4.1-4.1s4.1,1.8,4.1,4.1S142.3,34.6,140,34.6z M140,27.8
			c-1.5,0-2.7,1.2-2.7,2.7c0,1.5,1.2,2.7,2.7,2.7c1.5,0,2.7-1.2,2.7-2.7C142.7,29,141.5,27.8,140,27.8z"/>
	</g>
	<g>
		<path class="st1" d="M84.5,230.2v-40.8c0,0,1.8-24.3-22.2-24.3s-22.6,23.4-22.6,23.4v41.9c0,0-1,20.1,22.4,20.1
			S84.5,230.2,84.5,230.2z"/>
		<path class="st0" d="M62.1,251.2c-7.7,0-13.6-2.1-17.6-6.4c-5.8-6.1-5.4-14.1-5.4-14.5l0-41.9c0-0.4-0.6-10.6,6.1-17.7
			c4-4.3,9.8-6.5,17.2-6.5c7.2,0,12.9,2.2,16.9,6.4c6.8,7.3,6.1,18.2,6.1,18.6l0,40.7c0,0.5,0.2,8.6-5.6,14.7
			C75.6,249.1,69.7,251.2,62.1,251.2z M62.3,165.8c-7,0-12.4,2-16.2,6c-6.2,6.6-5.7,16.6-5.7,16.7l0,42c0,0.1-0.3,7.9,5,13.5
			c3.7,3.9,9.3,5.9,16.6,5.9c7.2,0,12.8-2,16.6-5.9c5.5-5.7,5.2-13.6,5.2-13.7c0,0,0,0,0,0v-40.8c0-0.2,0.7-10.7-5.7-17.6
			C74.5,167.8,69.1,165.8,62.3,165.8z M85.2,230.2L85.2,230.2L85.2,230.2z"/>
	</g>
	<path class="st2" d="M48.5,187.2v21.1c0,0,5.8,7.1,13.5,7.1c8.1,0,13.7-6.5,13.7-6.5V187"/>
	<path class="st0" d="M62,234.8c-4.5,0-8-1.3-10.4-4c-4.2-4.5-3.8-11.2-3.7-11.5l0-32.1c0-0.4,0.3-0.7,0.7-0.7
		c0.4,0,0.7,0.3,0.7,0.7v32.1c0,0.1-0.4,6.4,3.4,10.5c2.2,2.3,5.3,3.5,9.4,3.5c4.2,0,7.4-1.2,9.6-3.6c3.7-3.9,3.4-9.8,3.4-9.9
		l0-32.9c0-0.4,0.3-0.7,0.7-0.7s0.7,0.3,0.7,0.7v32.8c0,0.2,0.4,6.5-3.8,10.9C70.2,233.4,66.6,234.8,62,234.8z"/>
	<path class="st0" d="M62.5,216c-0.1,0-0.1,0-0.2,0c-8.2-0.1-14.1-6.5-14.3-6.8c-0.3-0.3-0.2-0.7,0-1c0.3-0.3,0.7-0.2,1,0
		c0.1,0.1,5.7,6.2,13.3,6.3c4.5,0,8.9-2.1,12.9-6.3c0.3-0.3,0.7-0.3,1,0c0.3,0.3,0.3,0.7,0,1C72,213.8,67.4,216,62.5,216z"/>
	<path class="st2" d="M57.9,194.2c0,0-0.1,0-0.2,0c-0.1,0-14.2-3.8-14.2-20.6v-27.9c0-2.3,1.9-4.2,4.2-4.2c1,0,2,0.4,2.8,1.1
		l0.2,0.2v-5.5c0-2.3,1.9-4.2,4.2-4.2c1.4,0,2.7,0.7,3.5,1.9l0.1,0.2l0.1-0.2c0.8-1.2,2.1-1.9,3.5-1.9c1.6,0,3,0.9,3.7,2.3l0.1,0.2
		l0.1-0.1c0.8-1,2-1.6,3.2-1.6c2.3,0,4.2,1.9,4.2,4.2v11.4l0.2-0.2c0.8-0.7,1.8-1.1,2.8-1.1c2.3,0,4.2,1.9,4.2,4.2v21.2
		c0,8.8-3.9,13.9-7.1,16.6c-3,2.6-6,3.6-6.9,3.9l-0.1,0v0.1H57.9z"/>
	<path class="st0" d="M57.9,194.3c-0.1,0-0.1,0-0.2,0c-0.1,0-14.3-3.8-14.3-20.7v-27.9c0-2.4,1.9-4.3,4.3-4.3c2.4,0,4.3,1.9,4.3,4.3
		v17.3c0,0.4-0.3,0.7-0.7,0.7c-0.4,0-0.7-0.3-0.7-0.7v-17.3c0-1.6-1.3-2.9-2.9-2.9c-1.6,0-2.9,1.3-2.9,2.9v27.9
		c0,15.7,12.7,19.2,13.3,19.3c0.4,0.1,0.6,0.5,0.5,0.9C58.5,194,58.2,194.3,57.9,194.3z"/>
	<path class="st0" d="M58.5,163.6c-0.4,0-0.7-0.3-0.7-0.7v-25.6c0-1.6-1.3-2.9-2.9-2.9s-2.9,1.3-2.9,2.9v25.6c0,0.4-0.3,0.7-0.7,0.7
		c-0.4,0-0.7-0.3-0.7-0.7v-25.6c0-2.4,1.9-4.3,4.3-4.3s4.3,1.9,4.3,4.3v25.6C59.2,163.3,58.9,163.6,58.5,163.6z"/>
	<path class="st0" d="M65.7,163.6c-0.4,0-0.7-0.3-0.7-0.7v-25.6c0-1.6-1.3-2.9-2.9-2.9c-1.6,0-2.9,1.3-2.9,2.9v25.6
		c0,0.4-0.3,0.7-0.7,0.7c-0.4,0-0.7-0.3-0.7-0.7v-25.6c0-2.4,1.9-4.3,4.3-4.3s4.3,1.9,4.3,4.3v25.6C66.4,163.3,66,163.6,65.7,163.6z
		"/>
	<path class="st0" d="M72.8,163.6c-0.4,0-0.7-0.3-0.7-0.7V138c0-1.6-1.3-2.9-2.9-2.9c-1.6,0-2.9,1.3-2.9,2.9v24.9
		c0,0.4-0.3,0.7-0.7,0.7s-0.7-0.3-0.7-0.7V138c0-2.4,1.9-4.3,4.3-4.3c2.4,0,4.3,1.9,4.3,4.3v24.9C73.5,163.3,73.2,163.6,72.8,163.6z
		"/>
	<path class="st0" d="M66.2,194.3c-0.3,0-0.6-0.2-0.7-0.5c-0.1-0.4,0.1-0.8,0.5-0.9c0.5-0.1,13.3-3.6,13.3-19.3v-21.2
		c0-1.6-1.3-2.9-2.9-2.9s-2.9,1.3-2.9,2.9v17.4c0,0.2-0.1,0.4-0.2,0.5c-0.2,0.1-0.4,0.2-0.6,0.2c0,0-3.4-0.4-6,1.9
		c-2.2,1.9-3.3,5.1-3.3,9.6c0,0.4-0.3,0.7-0.7,0.7c-0.4,0-0.7-0.3-0.7-0.7c0-4.9,1.3-8.4,3.8-10.6c2.3-2,5-2.3,6.3-2.3c0,0,0,0,0,0
		v-16.7c0-2.4,1.9-4.3,4.3-4.3s4.3,1.9,4.3,4.3v21.2c0,8.8-3.9,13.9-7.1,16.7c-3.5,3-7,3.9-7.2,4C66.4,194.2,66.3,194.3,66.2,194.3z
		"/>
	<g>
		<defs>
			<rect id="SVGID_1_" x="140" y="98.8" width="16.6" height="28.4"/>
		</defs>
		<clipPath id="SVGID_00000139273731028808883630000013148524859891109774_">
			<use xlink:href="#SVGID_1_"  style="overflow:visible;"/>
		</clipPath>
		<path style="clip-path:url(#SVGID_00000139273731028808883630000013148524859891109774_);fill:#EE795E;" d="M155,123.4
			c0,0,0.5,0.4-0.1,0.7c-0.3,0.2-3.3,0.2-5.6-1.8c-1.3-1.1-2.4-2.8-2.8-5.4c-1.1-7.3,2-12.7-4.4-18.8l0,0c1.9-2.2,3.7-4.3,5.2-6.4
			c0,0,4.1,4.8,5.1,10C154.1,111,148.8,117.4,155,123.4z"/>
		<path style="clip-path:url(#SVGID_00000139273731028808883630000013148524859891109774_);fill:#231815;" d="M149.7,102.6
			c-0.8,0.8-2.1,0.6-2.5-0.5c-0.2-0.5-0.1-1.1,0.3-1.5c0.8-0.8,2.1-0.6,2.5,0.5C150.1,101.6,150,102.2,149.7,102.6z"/>
		<path style="clip-path:url(#SVGID_00000139273731028808883630000013148524859891109774_);fill:#231815;" d="M150.2,108
			c-0.7,0.4-1.6,0.3-2-0.4c-0.4-0.7-0.3-1.6,0.4-2c0.7-0.4,1.6-0.3,2,0.4C151.1,106.6,150.9,107.5,150.2,108z"/>
		<path style="clip-path:url(#SVGID_00000139273731028808883630000013148524859891109774_);fill:#231815;" d="M150.1,113.6
			c-0.7,0.4-1.6,0.3-2-0.4c-0.4-0.7-0.3-1.6,0.4-2c0.7-0.4,1.6-0.3,2,0.4C150.9,112.3,150.8,113.2,150.1,113.6z"/>
		<path style="clip-path:url(#SVGID_00000139273731028808883630000013148524859891109774_);fill:#231815;" d="M154.2,124.9
			c-1.4,0-3.6-0.5-5.4-2.1c-1.7-1.4-2.7-3.4-3.1-5.8c-0.4-2.3-0.3-4.4-0.2-6.4c0.1-4.4,0.2-7.9-4-11.9l1-1c4.7,4.4,4.6,8.6,4.4,13
			c-0.1,2-0.1,4,0.2,6.2c0.3,2.1,1.2,3.8,2.6,5c1.6,1.3,3.5,1.7,4.4,1.7c-3.6-3.8-3.1-7.6-2.6-12.1c0.3-2.8,0.7-6,0.1-9.6
			c-0.9-4.9-4.9-9.6-4.9-9.6l1.1-0.9c0.2,0.2,4.2,5,5.2,10.3c0.7,3.8,0.3,7.1-0.1,10c-0.5,4.4-1,7.9,2.5,11.3c0,0,0.4,0.4,0.4,0.9
			c0,0.2-0.1,0.6-0.6,0.9C155.1,124.8,154.7,124.9,154.2,124.9z M154.6,123.5L154.6,123.5L154.6,123.5z"/>
	</g>
	<path class="st0" d="M158.1,102.8c-0.2,0-0.4-0.1-0.5-0.2c-0.3-0.3-0.3-0.7,0-1c1.2-1.1,1.7-2.2,1.6-3.2c-0.2-1.7-2.1-2.9-2.2-2.9
		c-0.3-0.2-0.4-0.6-0.2-1c0.2-0.3,0.6-0.4,1-0.2c0.1,0.1,2.6,1.5,2.8,4c0.2,1.5-0.5,3-2,4.4C158.5,102.8,158.3,102.8,158.1,102.8z"
		/>
	<polygon class="st6" points="228,241.5 173.7,241.5 173.7,234.2 175.4,229.9 175.4,175.7 173.7,171.5 173.7,164.1 228,164.1 
		228,171.5 226.3,175.7 226.3,229.9 228,234.2 	"/>
	<path class="st0" d="M228.7,242.2H173V234l1.7-4.3v-53.9l-1.7-4.3v-8.2h55.7v8.2l-1.7,4.3v53.9l1.7,4.3V242.2z M174.4,240.8h52.9
		v-6.5l-1.7-4.3v-54.4l1.7-4.3v-6.5h-52.9v6.5l1.7,4.3V230l-1.7,4.3V240.8z"/>
	<rect x="173.7" y="170.8" class="st0" width="54.3" height="1.4"/>
	<rect x="173.7" y="233.5" class="st0" width="54.3" height="1.4"/>
	<g>
		<path class="st7" d="M222.1,203h-3.8c0,0-3.4-11.8-1.5-27.7h4.9C221.8,175.3,219.1,186.2,222.1,203z"/>
		<path class="st0" d="M222.1,203.7h-3.8c-0.3,0-0.6-0.2-0.7-0.5c0-0.1-3.5-12.1-1.5-28c0-0.4,0.3-0.6,0.7-0.6h4.9
			c0.2,0,0.4,0.1,0.6,0.3s0.2,0.4,0.1,0.6c0,0.1-2.6,11,0.4,27.5c0,0.2,0,0.4-0.2,0.6C222.6,203.6,222.4,203.7,222.1,203.7z
			 M218.9,202.3h2.4c-2.4-13.9-1-23.5-0.4-26.3h-3.4C215.9,189.5,218.3,200,218.9,202.3z"/>
	</g>
	<g>
		<path class="st7" d="M214.9,203h-3.8c0,0-3.4-11.8-1.5-27.7h4.9C214.5,175.3,211.8,186.2,214.9,203z"/>
		<path class="st0" d="M214.9,203.7h-3.8c-0.3,0-0.6-0.2-0.7-0.5c0-0.1-3.5-12.1-1.5-28c0-0.4,0.3-0.6,0.7-0.6h4.9
			c0.2,0,0.4,0.1,0.6,0.3s0.2,0.4,0.1,0.6c0,0.1-2.6,11,0.4,27.5c0,0.2,0,0.4-0.2,0.6C215.3,203.6,215.1,203.7,214.9,203.7z
			 M211.6,202.3h2.4c-2.4-13.9-1-23.5-0.4-26.3h-3.4C208.7,189.5,211,200,211.6,202.3z"/>
	</g>
	<g>
		<path class="st7" d="M207.6,203h-3.8c0,0-3.4-11.8-1.5-27.7h4.9C207.3,175.3,204.6,186.2,207.6,203z"/>
		<path class="st0" d="M207.6,203.7h-3.8c-0.3,0-0.6-0.2-0.7-0.5c0-0.1-3.5-12.1-1.5-28c0-0.4,0.3-0.6,0.7-0.6h4.9
			c0.2,0,0.4,0.1,0.6,0.3s0.2,0.4,0.1,0.6c0,0.1-2.6,11,0.4,27.5c0,0.2,0,0.4-0.2,0.6C208,203.6,207.8,203.7,207.6,203.7z
			 M204.4,202.3h2.4c-2.4-13.9-1-23.5-0.4-26.3H203C201.4,189.5,203.8,200,204.4,202.3z"/>
	</g>
	<g>
		<path class="st7" d="M200.4,203h-3.8c0,0-3.4-11.8-1.5-27.7h4.9C200,175.3,197.3,186.2,200.4,203z"/>
		<path class="st0" d="M200.4,203.7h-3.8c-0.3,0-0.6-0.2-0.7-0.5c0-0.1-3.5-12.1-1.5-28c0-0.4,0.3-0.6,0.7-0.6h4.9
			c0.2,0,0.4,0.1,0.6,0.3s0.2,0.4,0.1,0.6c0,0.1-2.6,11,0.4,27.5c0,0.2,0,0.4-0.2,0.6C200.8,203.6,200.6,203.7,200.4,203.7z
			 M197.1,202.3h2.4c-2.4-13.9-1-23.5-0.4-26.3h-3.4C194.2,189.5,196.5,200,197.1,202.3z"/>
	</g>
	<g>
		<path class="st7" d="M193.1,203h-3.8c0,0-3.4-11.8-1.5-27.7h4.9C192.8,175.3,190,186.2,193.1,203z"/>
		<path class="st0" d="M193.1,203.7h-3.8c-0.3,0-0.6-0.2-0.7-0.5c0-0.1-3.5-12.1-1.5-28c0-0.4,0.3-0.6,0.7-0.6h4.9
			c0.2,0,0.4,0.1,0.6,0.3s0.2,0.4,0.1,0.6c0,0.1-2.6,11,0.4,27.5c0,0.2,0,0.4-0.2,0.6C193.5,203.6,193.3,203.7,193.1,203.7z
			 M189.9,202.3h2.4c-2.4-13.9-1-23.5-0.4-26.3h-3.4C186.9,189.5,189.3,200,189.9,202.3z"/>
	</g>
	<g>
		<path class="st7" d="M185.9,203h-3.8c0,0-3.4-11.8-1.5-27.7h4.9C185.5,175.3,182.8,186.2,185.9,203z"/>
		<path class="st0" d="M185.9,203.7h-3.8c-0.3,0-0.6-0.2-0.7-0.5c0-0.1-3.5-12.1-1.5-28c0-0.4,0.3-0.6,0.7-0.6h4.9
			c0.2,0,0.4,0.1,0.6,0.3s0.2,0.4,0.1,0.6c0,0.1-2.6,11,0.4,27.5c0,0.2,0,0.4-0.2,0.6C186.3,203.6,186.1,203.7,185.9,203.7z
			 M182.6,202.3h2.4c-2.4-13.9-1-23.5-0.4-26.3h-3.4C179.7,189.5,182,200,182.6,202.3z"/>
	</g>
	<g>
		<path class="st7" d="M179,203.2h3.8c0,0,3.4,11.8,1.5,27.7h-4.9C179.3,230.9,182.1,220,179,203.2z"/>
		<path class="st0" d="M184.2,231.6h-4.9c-0.2,0-0.4-0.1-0.6-0.3s-0.2-0.4-0.1-0.6c0-0.1,2.6-11-0.4-27.5c0-0.2,0-0.4,0.2-0.6
			c0.1-0.2,0.3-0.3,0.5-0.3h3.8c0.3,0,0.6,0.2,0.7,0.5c0,0.1,3.5,12.1,1.5,28C184.9,231.4,184.6,231.6,184.2,231.6z M180.2,230.2
			h3.4c1.6-13.5-0.8-24-1.4-26.3h-2.4C182.2,217.7,180.8,227.4,180.2,230.2z"/>
	</g>
	<g>
		<path class="st7" d="M186.2,203.2h3.8c0,0,3.4,11.8,1.5,27.7h-4.9C186.6,230.9,189.3,220,186.2,203.2z"/>
		<path class="st0" d="M191.5,231.6h-4.9c-0.2,0-0.4-0.1-0.6-0.3s-0.2-0.4-0.1-0.6c0-0.1,2.6-11-0.4-27.5c0-0.2,0-0.4,0.2-0.6
			c0.1-0.2,0.3-0.3,0.5-0.3h3.8c0.3,0,0.6,0.2,0.7,0.5c0,0.1,3.5,12.1,1.5,28C192.1,231.4,191.8,231.6,191.5,231.6z M187.5,230.2
			h3.4c1.6-13.5-0.8-24-1.4-26.3h-2.4C189.5,217.7,188,227.4,187.5,230.2z"/>
	</g>
	<g>
		<path class="st7" d="M193.5,203.2h3.8c0,0,3.4,11.8,1.5,27.7h-4.9C193.9,230.9,196.6,220,193.5,203.2z"/>
		<path class="st0" d="M198.7,231.6h-4.9c-0.2,0-0.4-0.1-0.6-0.3s-0.2-0.4-0.1-0.6c0-0.1,2.6-11-0.4-27.5c0-0.2,0-0.4,0.2-0.6
			c0.1-0.2,0.3-0.3,0.5-0.3h3.8c0.3,0,0.6,0.2,0.7,0.5c0,0.1,3.5,12.1,1.5,28C199.4,231.4,199.1,231.6,198.7,231.6z M194.7,230.2
			h3.4c1.6-13.5-0.8-24-1.4-26.3h-2.4C196.7,217.7,195.3,227.4,194.7,230.2z"/>
	</g>
	<g>
		<path class="st7" d="M200.7,203.2h3.8c0,0,3.4,11.8,1.5,27.7h-4.9C201.1,230.9,203.8,220,200.7,203.2z"/>
		<path class="st0" d="M206,231.6h-4.9c-0.2,0-0.4-0.1-0.6-0.3s-0.2-0.4-0.1-0.6c0-0.1,2.6-11-0.4-27.5c0-0.2,0-0.4,0.2-0.6
			c0.1-0.2,0.3-0.3,0.5-0.3h3.8c0.3,0,0.6,0.2,0.7,0.5c0,0.1,3.5,12.1,1.5,28C206.7,231.4,206.4,231.6,206,231.6z M202,230.2h3.4
			c1.6-13.5-0.8-24-1.4-26.3h-2.4C204,217.7,202.5,227.4,202,230.2z"/>
	</g>
	<g>
		<path class="st7" d="M208,203.2h3.8c0,0,3.4,11.8,1.5,27.7h-4.9C208.4,230.9,211.1,220,208,203.2z"/>
		<path class="st0" d="M213.3,231.6h-4.9c-0.2,0-0.4-0.1-0.6-0.3s-0.2-0.4-0.1-0.6c0-0.1,2.6-11-0.4-27.5c0-0.2,0-0.4,0.2-0.6
			c0.1-0.2,0.3-0.3,0.5-0.3h3.8c0.3,0,0.6,0.2,0.7,0.5c0,0.1,3.5,12.1,1.5,28C213.9,231.4,213.6,231.6,213.3,231.6z M209.2,230.2
			h3.4c1.6-13.5-0.8-24-1.4-26.3h-2.4C211.2,217.7,209.8,227.4,209.2,230.2z"/>
	</g>
	<g>
		<path class="st7" d="M215.3,203.2h3.8c0,0,3.4,11.8,1.5,27.7h-4.9C215.6,230.9,218.3,220,215.3,203.2z"/>
		<path class="st0" d="M220.5,231.6h-4.9c-0.2,0-0.4-0.1-0.6-0.3s-0.2-0.4-0.1-0.6c0-0.1,2.6-11-0.4-27.5c0-0.2,0-0.4,0.2-0.6
			c0.1-0.2,0.3-0.3,0.5-0.3h3.8c0.3,0,0.6,0.2,0.7,0.5c0,0.1,3.5,12.1,1.5,28C221.2,231.4,220.9,231.6,220.5,231.6z M216.5,230.2
			h3.4c1.6-13.5-0.8-24-1.4-26.3h-2.4C218.5,217.7,217,227.4,216.5,230.2z"/>
	</g>
	<g>
		<rect x="190.5" y="184.3" class="st6" width="20.7" height="37"/>
		<path class="st0" d="M211.8,222h-22.1v-38.4h22.1V222z M191.2,220.6h19.3V185h-19.3V220.6z"/>
	</g>
	<path class="st2" d="M198.1,228.9c0-2,1.6-3.6,3.6-3.6c2,0,3.6,1.6,3.6,3.6v0.8c0-2,1.6-3.6,3.6-3.6c2,0,3.6,1.6,3.6,3.6v7.6
		c0-2,1.6-3.6,3.6-3.6c2,0,3.6,1.6,3.6,3.6v6.6c0,0,0,0,0,0.1c0,1.1-0.4,14.8-18,14.8s-18-13.7-18-14.8c0-0.1,0-0.1,0-0.1v-6.6
		c0-2,1.6-3.6,3.6-3.6c2,0,3.6,1.6,3.6,3.6v-8.4c0-2,1.6-3.6,3.6-3.6C196.5,225.3,198.1,226.9,198.1,228.9z"/>
	<path class="st0" d="M201.7,259.5c-9.5,0-14-4-16.2-7.3c-2.4-3.7-2.5-7.5-2.5-8.2v-6.7c0-2.4,1.9-4.3,4.3-4.3
		c2.4,0,4.3,1.9,4.3,4.3c0,0.4-0.3,0.7-0.7,0.7c-0.4,0-0.7-0.3-0.7-0.7c0-1.6-1.3-2.9-2.9-2.9c-1.6,0-2.9,1.3-2.9,2.9v6.6
		c0,1.5,0.5,14.2,17.3,14.2c0.4,0,0.7,0.3,0.7,0.7C202.4,259.1,202.1,259.5,201.7,259.5z"/>
	<path class="st0" d="M201.7,259.5c-0.4,0-0.7-0.3-0.7-0.7c0-0.4,0.3-0.7,0.7-0.7c16.8,0,17.3-12.7,17.3-14.1v-6.7
		c0-1.6-1.3-2.9-2.9-2.9s-2.9,1.3-2.9,2.9c0,0.4-0.3,0.7-0.7,0.7c-0.4,0-0.7-0.3-0.7-0.7c0-2.4,1.9-4.3,4.3-4.3
		c2.4,0,4.3,1.9,4.3,4.3v6.6C220.4,244.6,220.1,259.5,201.7,259.5z"/>
	<path class="st0" d="M190.9,244.6c-0.4,0-0.7-0.3-0.7-0.7v-15c0-2.4,1.9-4.3,4.3-4.3c2.4,0,4.3,1.9,4.3,4.3c0,0.4-0.3,0.7-0.7,0.7
		s-0.7-0.3-0.7-0.7c0-1.6-1.3-2.9-2.9-2.9s-2.9,1.3-2.9,2.9v15C191.6,244.2,191.3,244.6,190.9,244.6z"/>
	<path class="st0" d="M198.1,244.6c-0.4,0-0.7-0.3-0.7-0.7v-15c0-2.4,1.9-4.3,4.3-4.3s4.3,1.9,4.3,4.3v0.8c0,0.4-0.3,0.7-0.7,0.7
		s-0.7-0.3-0.7-0.7v-0.8c0-1.6-1.3-2.9-2.9-2.9s-2.9,1.3-2.9,2.9v15C198.8,244.2,198.5,244.6,198.1,244.6z"/>
	<path class="st0" d="M212.5,244.6c-0.4,0-0.7-0.3-0.7-0.7v-14.2c0-0.8-0.3-1.5-0.9-2.1c-0.6-0.6-1.3-0.8-2.1-0.8
		c-1.9,0.1-2.7,1.1-2.7,3.1v14c0,0.4-0.3,0.7-0.7,0.7s-0.7-0.3-0.7-0.7v-14c0-3.5,2.2-4.4,4.1-4.5c1.2-0.1,2.3,0.4,3.2,1.2
		c0.9,0.8,1.3,1.9,1.3,3.1v14.2C213.2,244.2,212.9,244.6,212.5,244.6z"/>
</g>
</svg>
