<?xml version="1.0" encoding="utf-8"?>
<svg version="1.1" id="the-ikastore-building-foot-2" xmlns="http://www.w3.org/2000/svg" xmlns:xlink="http://www.w3.org/1999/xlink" x="0px"
	 y="0px" viewBox="0 0 265 116" style="enable-background:new 0 0 265 116;" xml:space="preserve">
<style type="text/css">
	.st0{fill:#F0785F;}
	.st1{fill:#FFFFFF;}
	.st2{fill:#96D2CD;}
	.st3{fill:#231815;}
</style>
<g>
	<path class="st0" d="M250.6,69.7c0,0,23.6,19.3,9,38.4C245,127.3,214,102,214,102s-52.3-42.2-61-48.2C114.3,23.9,88,45.4,47.2,45.6
		C32.8,45.7,22.5,41,15.4,34.9C2.6,23.8,0,7.7,0.9,5.7c1.4-3.1,3.9-1,3.9-1c37.9,28.4,67.8-5.6,120-4c29,0.9,58.1,19.1,58.1,19.1
		S221,44.6,250.6,69.7z"/>
	<path class="st1" d="M126.8,16.4c-2.1,4.5-0.1,9.9,4.4,11.9s9.9,0.1,11.9-4.4c2.1-4.5,0.1-9.9-4.4-11.9
		C134.2,9.9,128.8,11.9,126.8,16.4z"/>
	<path class="st2" d="M137.4,14.8c3,1.4,4.3,4.9,2.9,7.8c-1.4,3-4.9,4.3-7.8,2.9c-3-1.4-4.3-4.9-2.9-7.8
		C130.9,14.7,134.4,13.4,137.4,14.8z"/>
	<path class="st1" d="M95.7,16.7c-2.1,4.5-0.1,9.9,4.4,11.9c4.5,2.1,9.9,0.1,11.9-4.4c2.1-4.5,0.1-9.9-4.4-11.9S97.8,12.2,95.7,16.7
		z"/>
	<path class="st2" d="M106.3,15.1c3,1.4,4.3,4.9,2.9,7.8c-1.4,3-4.9,4.3-7.8,2.9c-3-1.4-4.3-4.9-2.9-7.8
		C99.8,15,103.4,13.7,106.3,15.1z"/>
	<path class="st1" d="M64.4,22.2c-2.1,4.5-0.1,9.9,4.4,11.9s9.9,0.1,11.9-4.4c2.1-4.5,0.1-9.9-4.4-11.9S66.5,17.7,64.4,22.2z"/>
	<path class="st2" d="M75.1,20.6c3,1.4,4.3,4.9,2.9,7.8c-1.4,3-4.9,4.3-7.8,2.9c-3-1.4-4.3-4.9-2.9-7.8
		C68.6,20.5,72.1,19.2,75.1,20.6z"/>
	<g>
		<path class="st3" d="M251,69.2c-29.3-24.9-67.4-49.7-67.8-49.9C183,19.1,153.6,1,124.8,0.1c-20.7-0.6-38,4.3-53.3,8.7
			C48.1,15.4,28,21.2,5.3,4.2c-0.1,0-1.4-1.1-2.9-0.8c-0.9,0.2-1.6,0.9-2.2,2c-1.2,2.6,2,19,14.7,30c8.3,7.2,19.1,10.9,32,10.9
			c0.1,0,0.2,0,0.3,0c12.6-0.1,23.8-2.1,34.5-4.1c23.8-4.4,44.3-8.3,70.9,12.2c8.5,5.9,60.4,47.7,60.9,48.1c0,0,4.7,3.8,11.1,7.3
			c7.5,4.1,14.2,6.1,20.1,6.1c0.9,0,1.8-0.1,2.7-0.2c5.2-0.6,9.4-3.1,12.6-7.3C274.8,89.2,251.6,69.6,251,69.2z M259,107.7
			c-3,3.9-6.9,6.2-11.7,6.7c-14.6,1.7-32.7-12.8-32.9-13c-0.5-0.4-52.5-42.3-61-48.2c-16-12.4-29.8-16.1-43.5-16.1
			c-9.4,0-18.6,1.7-28.5,3.6c-10.7,2-21.8,4.1-34.3,4.1C34.6,45,24,41.4,15.9,34.4C3.3,23.5,0.7,7.8,1.5,6c0.3-0.7,0.7-1.1,1.2-1.2
			c0.7-0.2,1.4,0.3,1.7,0.5c23.3,17.5,43.8,11.6,67.5,4.8c15.2-4.4,32.4-9.3,52.9-8.6c28.5,0.9,57.5,18.8,57.8,19
			c0.4,0.2,38.4,25,67.6,49.8l0,0C250.4,70.5,273,89.3,259,107.7z"/>
		<path class="st3" d="M137.7,14.1c-1.6-0.7-3.4-0.8-5.1-0.2c-1.7,0.6-3,1.8-3.7,3.4c-0.7,1.6-0.8,3.4-0.2,5.1
			c0.6,1.7,1.8,3,3.4,3.7c0.9,0.4,1.8,0.6,2.7,0.6c2.5,0,4.9-1.4,6-3.9C142.5,19.6,141,15.6,137.7,14.1z M139.7,22.3
			c-1.2,2.6-4.3,3.8-6.9,2.6c-1.3-0.6-2.2-1.6-2.7-2.9c-0.5-1.3-0.4-2.7,0.1-4c0.6-1.3,1.6-2.2,2.9-2.7c0.6-0.2,1.2-0.3,1.8-0.3
			c0.7,0,1.5,0.2,2.2,0.5C139.7,16.6,140.9,19.7,139.7,22.3z"/>
		<path class="st3" d="M139,11.3c-2.4-1.1-5-1.2-7.4-0.3c-2.4,0.9-4.4,2.7-5.4,5.1c-2.2,4.9-0.1,10.6,4.8,12.9
			c1.3,0.6,2.7,0.9,4,0.9c1.1,0,2.3-0.2,3.4-0.6c2.4-0.9,4.4-2.7,5.4-5.1C146,19.3,143.9,13.5,139,11.3z M142.5,23.6
			c-0.9,2-2.6,3.6-4.7,4.3c-2.1,0.8-4.3,0.7-6.3-0.2c-2-0.9-3.6-2.6-4.3-4.7c-0.8-2.1-0.7-4.3,0.2-6.3c0.9-2,2.6-3.6,4.7-4.3
			c0.9-0.4,1.9-0.5,2.9-0.5c1.2,0,2.3,0.3,3.4,0.8c2,0.9,3.5,2.6,4.3,4.7C143.5,19.3,143.4,21.6,142.5,23.6z"/>
		<path class="st3" d="M106.6,14.4c-1.6-0.7-3.4-0.8-5.1-0.2c-1.7,0.6-3,1.8-3.7,3.4c-0.7,1.6-0.8,3.4-0.2,5.1s1.8,3,3.4,3.7
			c0.9,0.4,1.8,0.6,2.7,0.6c0.8,0,1.6-0.1,2.3-0.4c1.7-0.6,3-1.8,3.7-3.4c0.7-1.6,0.8-3.4,0.2-5.1C109.4,16.5,108.2,15.2,106.6,14.4
			z M108.6,22.6c-0.6,1.3-1.6,2.2-2.9,2.7c-1.3,0.5-2.7,0.4-4-0.1c-1.3-0.6-2.2-1.6-2.7-2.9c-0.5-1.3-0.4-2.7,0.1-4
			c0.6-1.3,1.6-2.2,2.9-2.7c0.6-0.2,1.2-0.3,1.8-0.3c0.7,0,1.5,0.2,2.2,0.5c1.3,0.6,2.2,1.6,2.7,2.9
			C109.2,19.9,109.2,21.3,108.6,22.6z"/>
		<path class="st3" d="M107.9,11.6c-2.4-1.1-5-1.2-7.4-0.3c-2.4,0.9-4.4,2.7-5.4,5.1c-1.1,2.4-1.2,5-0.3,7.4
			c0.9,2.4,2.7,4.4,5.1,5.4c1.3,0.6,2.7,0.9,4,0.9c3.7,0,7.2-2.1,8.8-5.7C114.9,19.6,112.8,13.9,107.9,11.6z M111.4,23.9
			c-1.9,4.2-6.8,6-11,4.1c-2-0.9-3.6-2.6-4.3-4.7c-0.8-2.1-0.7-4.3,0.2-6.3c0.9-2,2.6-3.6,4.7-4.3c0.9-0.4,1.9-0.5,2.9-0.5
			c1.2,0,2.3,0.3,3.4,0.8C111.5,14.8,113.3,19.7,111.4,23.9z"/>
		<path class="st3" d="M75.4,19.9c-1.6-0.7-3.4-0.8-5.1-0.2c-1.7,0.6-3,1.8-3.7,3.4c-1.5,3.3-0.1,7.2,3.3,8.8
			c0.9,0.4,1.8,0.6,2.8,0.6c0.8,0,1.6-0.1,2.3-0.4c1.7-0.6,3-1.8,3.7-3.4c0.7-1.6,0.8-3.4,0.2-5.1C78.2,22,77,20.7,75.4,19.9z
			 M77.4,28.1c-1.2,2.6-4.3,3.8-6.9,2.6c-2.6-1.2-3.8-4.3-2.6-6.9c0.6-1.3,1.6-2.2,2.9-2.7c0.6-0.2,1.2-0.3,1.8-0.3
			c0.7,0,1.5,0.2,2.2,0.5c1.3,0.6,2.2,1.6,2.7,2.9C78,25.4,77.9,26.8,77.4,28.1z"/>
		<path class="st3" d="M76.7,17.1C71.8,14.9,66,17,63.8,21.9c-1.1,2.4-1.2,5-0.3,7.4c0.9,2.4,2.7,4.4,5.1,5.4c1.3,0.6,2.7,0.9,4,0.9
			c3.7,0,7.2-2.1,8.8-5.7C83.7,25.1,81.5,19.3,76.7,17.1z M80.2,29.4c-0.9,2-2.6,3.6-4.7,4.3c-2.1,0.8-4.3,0.7-6.3-0.2
			c-2-0.9-3.5-2.6-4.3-4.7c-0.8-2.1-0.7-4.3,0.2-6.4c1.4-3,4.4-4.8,7.6-4.8c1.2,0,2.3,0.2,3.4,0.8C80.2,20.3,82.1,25.2,80.2,29.4z"
			/>
	</g>
</g>
</svg>
