<?xml version="1.0" encoding="utf-8"?>
<!-- Generator: Adobe Illustrator 25.4.1, SVG Export Plug-In . SVG Version: 6.00 Build 0)  -->
<svg version="1.1" id="the-uruma-yoshiya-hand-left-1" xmlns="http://www.w3.org/2000/svg" xmlns:xlink="http://www.w3.org/1999/xlink" x="0px"
	 y="0px" viewBox="0 0 56 88" style="enable-background:new 0 0 56 88;" xml:space="preserve">
<style type="text/css">
	.st0{fill:#E84572;}
	.st1{fill:#F4AEB6;}
	.st2{fill:#231815;}
</style>
<g>
	<path class="st0" d="M35.6,35L23.1,20.5C31.4,5.8,40.2,1.4,40.2,1.4S50.3-3.7,55,8.3C58.8,17.7,42.9,28,42.9,28
		C40.2,30.2,37.7,32.6,35.6,35z"/>
	<path class="st1" d="M7.6,74.1c-0.2,0.2-4.8,3.5-6.3,2.6c-1.2-0.8-0.6-2.3,0.8-3.5C3.6,72.1,9.7,67,9.7,67
		c2.3-21.6,7.7-36.5,13.4-46.5L35.6,35C22,50.4,18.8,68.7,18.8,68.7s5.4,8,5.8,8.8c0.9,1.8,0.5,3-0.7,3.1c-1.6,0.1-4.9-4.6-4.9-4.6
		s-1.1,8.1-1.3,9c-0.1,1-0.9,2.4-2.6,2.2c-1.7-0.2-1.7-2.7-1.7-2.7c-0.2,1.6-1.3,2.4-2.5,2.1c-1.6-0.3-1.4-2.6-1.4-2.8
		c-0.2,1.1-1.1,2.6-2.6,2.2c-1.8-0.5-1.2-3.1-1.2-3.1L7.6,74.1z"/>
	<path class="st2" d="M55.7,8c-1.6-4-3.9-6.6-6.9-7.7c-4.4-1.7-8.7,0.4-8.8,0.5C39.6,1,30.8,5.4,22.5,20.1C15.6,32.4,11,48.1,9,66.7
		c-1.1,0.9-6,5-7.3,6c-1.1,0.9-1.8,2-1.7,3c0,0.7,0.4,1.2,1,1.6c1.2,0.8,3.5-0.3,5.7-1.6l-1.4,7.1c-0.3,1.2-0.3,3.5,1.7,4
		c0.2,0.1,0.4,0.1,0.6,0.1c0.4,0,0.9-0.1,1.2-0.4C9,86.3,9.1,86.2,9.3,86c0.3,0.6,0.8,1.2,1.6,1.3c0.2,0,0.4,0.1,0.6,0.1
		c0.6,0,1.1-0.2,1.5-0.5c0.1-0.1,0.2-0.2,0.3-0.3c0.3,0.7,0.9,1.2,1.8,1.3c0.1,0,0.3,0,0.4,0c1.8,0,2.8-1.6,2.9-2.8
		c0.1-0.7,0.7-4.9,1-7.3c1.2,1.6,3.1,3.6,4.5,3.5c0.7-0.1,1.3-0.4,1.6-1c0.3-0.5,0.5-1.5-0.3-3.1c-0.4-0.8-4.7-7.1-5.7-8.6
		c0.5-2.3,4.1-19,16.5-33.1c2.3-2.6,4.7-4.9,7.2-6.9C43.9,28.1,59.6,17.8,55.7,8z M18.3,69.1c2.2,3.2,5.5,8.1,5.8,8.7
		c0.5,1,0.5,1.6,0.4,1.8c0,0.1-0.1,0.2-0.5,0.2c-0.6,0.1-2.6-1.9-4.3-4.3c-0.2-0.2-0.5-0.3-0.7-0.3c-0.3,0.1-0.5,0.3-0.5,0.6
		c0,0-1.1,8.1-1.3,9c0,0-0.3,1.8-1.8,1.6c-0.9-0.1-1-1.7-1.1-2l1.5-8.4c0.1-0.4-0.2-0.7-0.6-0.8c-0.4-0.1-0.7,0.2-0.8,0.6l-1.6,8.5
		c-0.1,0.6-0.3,1-0.6,1.3c-0.3,0.2-0.6,0.3-1,0.2c-1-0.2-0.9-2-0.9-2.1c0.2-1.2,1.5-8.2,1.5-8.5c0.1-0.4-0.2-0.7-0.6-0.8
		c-0.4-0.1-0.7,0.2-0.8,0.6c0,0.1-1.3,7.4-1.5,8.4c0,0,0,0,0,0.1c-0.1,0.6-0.5,1.3-1,1.6c-0.2,0.1-0.5,0.2-0.8,0.1
		c-1.1-0.3-0.7-2.3-0.7-2.3l1.7-8.8C8.4,74,8.3,73.7,8,73.6c-0.2-0.1-0.3-0.1-0.5-0.1c0,0,0,0-0.1,0c-0.1,0-0.1,0-0.2,0.1
		c0,0-0.1,0-0.1,0c0,0,0,0,0,0l0,0c-2.8,2-5,2.9-5.5,2.6c-0.3-0.2-0.3-0.4-0.3-0.5c0-0.5,0.5-1.2,1.2-1.8c1.4-1.1,7.3-6,7.5-6.2
		c0.1-0.1,0.2-0.3,0.2-0.5c1.9-18.1,6.2-33.3,12.9-45.4L34.7,35C21.5,50.3,18.2,68.4,18.2,68.6C18.1,68.8,18.2,69,18.3,69.1z
		 M42.4,27.4c-2.4,2-4.7,4.2-6.9,6.5L24,20.4C32,6.4,40.5,2.1,40.6,2c0,0,3.9-1.9,7.7-0.4c2.6,1,4.7,3.3,6.1,6.9
		C57.9,17.3,42.7,27.3,42.4,27.4z"/>
</g>
</svg>
