<?xml version="1.0" encoding="utf-8"?>
<svg version="1.1" id="the-ikastore-building-parts-1"
	 xmlns="http://www.w3.org/2000/svg" xmlns:xlink="http://www.w3.org/1999/xlink" x="0px" y="0px" viewBox="0 0 581 450"
	 style="enable-background:new 0 0 581 450;" xml:space="preserve">
<style type="text/css">
	.st0{fill:#F0785F;}
	.st1{fill:#97D2CE;}
	.st2{fill:#231815;}
</style>
<path class="st0" d="M172.8,205.6h-5.4L26.1,273.4L38.6,450c0,0,133.5,0,134.2,0C171.8,450,172.8,205.6,172.8,205.6z"/>
<g>
	<polygon class="st1" points="135.9,254.4 110.8,263.7 106.9,305.1 128.8,299.7 	"/>
</g>
<g>
	<polygon class="st1" points="103.7,266.3 82.8,274.1 81.9,311.3 100.5,306.7 	"/>
</g>
<g>
	<polygon class="st1" points="76.8,276.3 59.2,282.8 60.5,316.6 76.5,312.7 	"/>
</g>
<g>
	<polygon class="st1" points="54.1,284.7 39.1,290.3 42,321.2 55.9,317.8 	"/>
</g>
<g>
	<path class="st2" d="M106.1,306l23.4-5.9l7.3-46.9l-26.6,9.9L106.1,306z M135,255.4l-6.8,43.7l-20.5,5.1l3.8-40L135,255.4z"/>
	<path class="st2" d="M81.2,312.2l19.9-5l3.3-41.9l-22.3,8.3L81.2,312.2z M83.5,274.6l19.3-7.3l-3,38.8l-17.2,4.3L83.5,274.6z"/>
	<path class="st2" d="M59.9,317.5l17.3-4.3l0.3-37.9l-19,7.1L59.9,317.5z M76.1,277.3l-0.3,34.8l-14.6,3.6l-1.3-32.4L76.1,277.3z"/>
	<path class="st2" d="M38.3,289.9l3.1,32.2l15.1-3.7l-1.8-34.6L38.3,289.9z M42.6,320.3l-2.8-29.5l13.6-5.1l1.7,31.5L42.6,320.3z"/>
	<polygon class="st2" points="167.2,204.8 25.4,273 37.9,450 39.3,450 26.8,273.8 167.6,206.2 172.8,206.2 172.8,204.8 	"/>
</g>
</svg>
