<?xml version="1.0" encoding="utf-8"?>
<svg version="1.1" id="the-curtain-left-12" xmlns="http://www.w3.org/2000/svg" xmlns:xlink="http://www.w3.org/1999/xlink" x="0px"
	 y="0px" viewBox="0 0 581 450" style="enable-background:new 0 0 581 450;" xml:space="preserve">
<style type="text/css">
	.st0{fill:#E64673;}
</style>
<path class="st0" d="M276.8,238.1v-7.5l0,0l-7.4,0.6v7.1c0,0-15.8,0.8-19.9,1.4v-7h-0.1l-6.3,1v6.9c-11.3,1.1-11.2,1.3-15.6,1.6
	v-6.5l-6.4,1.1v6l-9.1,1.1c0,0.1-0.1,0.2-0.1,0.3c-0.7,1.8-1.6,3.9-2.6,6.5c-0.2,0.5-0.4,1.1-0.7,1.6
	c-0.1,14.6-2.1,110.2-29.2,148.9c0,0,45.5,13.3,88.6,9.6c0,0,8.7-19.2,22.6-114.3l6.3-59C296.8,237.6,280.9,237.5,276.8,238.1z"/>
</svg>
