<?xml version="1.0" encoding="utf-8"?>
<svg version="1.1" id="the-ikastore-building-kids-boy-1"
	 xmlns="http://www.w3.org/2000/svg" xmlns:xlink="http://www.w3.org/1999/xlink" x="0px" y="0px" viewBox="0 0 581 450"
	 style="enable-background:new 0 0 581 450;" xml:space="preserve">
<style type="text/css">
	.st0{fill:#97D2CE;}
	.st1{fill:#231815;}
	.st2{fill:#F4AEB6;}
	.st3{fill:#FFF8EE;}
</style>
<g>
	<path class="st0" d="M318.4,93.7c-7-9.4-13.7-11.1-13.7-11.1S298,84.3,291,93.7c0,0,2,2.2,5,2.8l0,0c-0.9,3.6-1.3,8-0.9,13.3
		c0,0-1.8,2.8-3.4,3.5c0,0,2.1,0.8,4.2,0c-0.8,1.7-1.1,3.2-1.2,4.3v0.1c0,0.2-0.1,0.4-0.1,0.6l0,0c0,0.5,0,0.8,0,0.8h10.3h10.3
		c0,0,0-0.6-0.1-1.5l0,0c-0.1-1-0.5-2.5-1.2-4.2c2,0.6,3.9-0.1,3.9-0.1c-1.6-0.7-3.4-3.5-3.4-3.5c0.4-5.4-0.1-9.7-0.9-13.3l0,0
		C316.4,95.9,318.4,93.7,318.4,93.7z"/>
	<path class="st1" d="M294.5,119.8c-0.4,0-0.7-0.3-0.7-0.7c0-3.4,1.3-5.6,2.1-6.5c0.2-0.3,0.7-0.4,1-0.1c0.3,0.2,0.4,0.7,0.1,1
		c-0.7,0.8-1.8,2.7-1.8,5.7C295.2,119.5,294.9,119.8,294.5,119.8z"/>
	<path class="st1" d="M315.2,119.8c-0.4,0-0.7-0.3-0.7-0.7c0-2.9-1-4.7-1.6-5.5c-0.2-0.3-0.2-0.8,0.2-1c0.3-0.2,0.8-0.2,1,0.2
		c0.7,1,1.8,3.1,1.9,6.3C315.9,119.5,315.6,119.8,315.2,119.8L315.2,119.8z"/>
	<path class="st2" d="M312.2,119.1c-0.2-1-1.2-2-3.3-2c-1.7,0-2.2,1.2-2.4,2H312.2z"/>
	<path class="st2" d="M303.7,119.1c0-1.3-0.6-2-2.9-2c-1.8,0-2.5,1.2-2.7,2H303.7z"/>
	<path class="st2" d="M295.4,99.9c0,0-2.4-0.1-2.6,2.2c-0.2,2.3,2.2,2.8,2.2,2.8"/>
	<path class="st2" d="M314.1,99.9c0,0,2.4-0.1,2.6,2.2c0.2,2.3-2.2,2.8-2.2,2.8"/>
	<path class="st1" d="M304.7,116.7c-0.1,0-0.1,0-0.2,0c-1.5-0.4-2.2-1.9-2.5-3.2c-2.1,2.4-5.8,2.7-5.9,2.7c-0.3,0-0.6-0.1-0.7-0.4
		s-0.1-0.6,0.1-0.8c0.1-0.1,0.4-0.6,0.7-1.1c-1.8,0.7-3.7,0.5-4.8,0.1c-0.3-0.1-0.5-0.4-0.5-0.6c0-0.3,0.2-0.6,0.4-0.7
		c1.1-0.4,2.4-2.2,3-3c-1.4-20.9,9.5-27.3,10-27.6c0.2-0.1,0.5-0.1,0.7,0c0.5,0.3,11.4,6.7,10,27.6c0.6,0.8,1.9,2.6,3,3
		c0.3,0.1,0.4,0.4,0.4,0.7c0,0.3-0.2,0.5-0.5,0.6c-1.1,0.4-3,0.7-4.8-0.1c0.3,0.6,0.5,1,0.7,1.1c0.2,0.2,0.3,0.5,0.1,0.8
		c-0.1,0.3-0.4,0.4-0.7,0.4c-0.2,0-3.8-0.2-5.9-2.7c-0.4,1.3-1.1,2.8-2.5,3.2C304.9,116.7,304.8,116.7,304.7,116.7z M302.4,110.9
		h0.1c0.3,0,0.6,0.3,0.6,0.6c0.1,0.8,0.5,3.2,1.7,3.8c1.2-0.6,1.6-2.9,1.7-3.8c0-0.3,0.3-0.6,0.6-0.6c0.3-0.1,0.6,0.1,0.8,0.4
		c0.8,2,2.9,2.9,4.3,3.2c-0.6-1.1-1.2-2.4-1.4-3c-0.1-0.3,0-0.7,0.3-0.9c0.3-0.2,0.7-0.1,0.9,0.2c1.1,1.8,2.9,2.1,4.1,2
		c-1.2-1.1-2.1-2.5-2.3-2.7c-0.1-0.1-0.1-0.3-0.1-0.4c0.7-10.6-1.8-17.2-4.1-20.9c-1.9-3.2-4-4.8-4.8-5.4
		c-1.8,1.3-10.2,8.2-8.9,26.3c0,0.2,0,0.3-0.1,0.4c-0.1,0.2-1.1,1.7-2.3,2.7c1.3,0.1,3-0.2,4.1-2c0.2-0.3,0.6-0.4,0.9-0.2
		c0.3,0.2,0.5,0.6,0.3,0.9c-0.2,0.5-0.8,1.9-1.4,3c1.4-0.4,3.5-1.2,4.3-3.2C301.8,111,302.1,110.9,302.4,110.9z"/>
	<path class="st1" d="M296.1,97.2H296c-3.2-0.6-5.3-2.9-5.4-3c-0.2-0.2-0.2-0.6,0-0.9c7-9.5,13.8-11.3,14-11.4
		c0.4-0.1,0.8,0.1,0.8,0.5c0.1,0.4-0.1,0.8-0.5,0.9c-0.1,0-6.3,1.7-12.9,10.4c0.7,0.6,2.2,1.8,4.2,2.1c0.4,0.1,0.6,0.4,0.6,0.8
		C296.7,97,296.4,97.2,296.1,97.2z"/>
	<path class="st1" d="M313.4,97.2c-0.3,0-0.6-0.2-0.7-0.6s0.2-0.7,0.6-0.8c2-0.4,3.5-1.5,4.2-2.1c-6.6-8.6-12.8-10.3-12.9-10.4
		c-0.4-0.1-0.6-0.5-0.5-0.9s0.5-0.6,0.8-0.5s7,1.9,14,11.4c0.2,0.3,0.2,0.6,0,0.9c-0.1,0.1-2.2,2.4-5.4,3
		C313.5,97.2,313.5,97.2,313.4,97.2z"/>
	<path class="st2" d="M304.7,109.3c0,0,6.8,0.4,6.8-7.4s-6.8-7.9-6.8-7.9s-6.8,0.1-6.8,7.9S304.7,109.3,304.7,109.3z"/>
	<path class="st3" d="M307.6,95.1l-1.5,3.4l-1.4-1.3l-1.4,1.3l-2-3.4C301.3,95.1,304.6,92.7,307.6,95.1z"/>
	<path class="st1" d="M304.9,110c-0.1,0-0.1,0-0.2,0c-0.4,0-3.2,0.1-5.3-1.9c-1.5-1.4-2.3-3.5-2.3-6.1c0-8.4,7.4-8.6,7.5-8.6
		s7.5,0.2,7.5,8.6c0,2.7-0.8,4.7-2.3,6.1C308.1,109.8,305.7,110,304.9,110z M304.7,94.7c-0.2,0-6.1,0.2-6.1,7.2c0,2.3,0.6,4,1.8,5.1
		c1.8,1.7,4.2,1.5,4.3,1.5h0.1c0,0,2.5,0.1,4.3-1.6c1.2-1.1,1.8-2.9,1.8-5.1C310.9,94.9,305,94.7,304.7,94.7z"/>
	<path class="st1" d="M295,105.6h-0.1c-1.1-0.2-3-1.2-2.8-3.5s2.3-2.9,3.4-2.9c0.4,0,0.7,0.3,0.7,0.7c0,0.4-0.3,0.7-0.7,0.7l0,0l0,0
		c-0.2,0-1.8,0-1.9,1.6s1.5,2,1.7,2c0.4,0.1,0.6,0.4,0.5,0.8C295.6,105.4,295.3,105.6,295,105.6z"/>
	<path class="st1" d="M314.5,105.6c-0.3,0-0.6-0.2-0.7-0.6s0.2-0.7,0.6-0.8c0.2,0,1.8-0.4,1.7-2c-0.1-1.6-1.8-1.6-1.9-1.6l0,0
		c-0.4,0-0.7-0.3-0.7-0.7c0-0.4,0.3-0.7,0.7-0.7c1.1,0,3.2,0.5,3.4,2.9c0.2,2.3-1.7,3.3-2.8,3.5
		C314.6,105.6,314.5,105.6,314.5,105.6z"/>
	<circle class="st1" cx="302" cy="101.6" r="1.1"/>
	<circle class="st1" cx="307.6" cy="101.6" r="1.1"/>
	<path class="st1" d="M304.7,106.5c-0.1,0-0.2,0-0.3-0.1l-1.8-0.9c-0.3-0.2-0.5-0.6-0.3-0.9s0.6-0.5,0.9-0.3l1.5,0.7l1.5-0.7
		c0.3-0.2,0.8,0,0.9,0.3c0.2,0.3,0,0.8-0.3,0.9l-1.8,0.9C305,106.4,304.9,106.5,304.7,106.5z"/>
	<path class="st1" d="M303.7,119.8c-0.4,0-0.7-0.3-0.7-0.7c0-0.7,0-1.3-2.2-1.3c-1.1,0-1.8,0.5-2,1.5c-0.1,0.4-0.5,0.6-0.9,0.5
		s-0.6-0.5-0.5-0.9c0.5-1.6,1.7-2.5,3.4-2.5c1.7,0,3.6,0.3,3.6,2.7C304.4,119.5,304,119.8,303.7,119.8z"/>
	<path class="st1" d="M306.6,119.8h-0.1c-0.4-0.1-0.6-0.4-0.6-0.8c0.3-1.7,1.4-2.7,3.1-2.6c2,0,3.5,0.9,3.9,2.3
		c0.1,0.4-0.1,0.8-0.5,0.9s-0.8-0.1-0.9-0.5c-0.3-0.8-1.2-1.3-2.6-1.3c-0.4,0-1.4,0-1.6,1.5C307.2,119.5,306.9,119.8,306.6,119.8z"
		/>
	<path class="st1" d="M306.1,99.2c-0.2,0-0.3-0.1-0.5-0.2l-0.9-0.9l-0.9,0.9c-0.2,0.1-0.4,0.2-0.6,0.2s-0.4-0.2-0.5-0.3l-2-3.4
		c-0.2-0.3-0.1-0.8,0.2-1c0.3-0.2,0.8-0.1,1,0.2l1.6,2.6l0.7-0.7c0.3-0.3,0.7-0.3,1,0l0.7,0.6l1.1-2.5c0.2-0.4,0.6-0.5,0.9-0.4
		c0.4,0.2,0.5,0.6,0.4,0.9l-1.5,3.4c-0.1,0.2-0.3,0.4-0.5,0.4C306.2,99.2,306.1,99.2,306.1,99.2z"/>
</g>
</svg>
