<?xml version="1.0" encoding="utf-8"?>
<svg version="1.1" id="the-element-theroad-1" xmlns="http://www.w3.org/2000/svg" xmlns:xlink="http://www.w3.org/1999/xlink" x="0px"
	 y="0px" viewBox="0 0 770 330" style="enable-background:new 0 0 770 330;" xml:space="preserve">
<style type="text/css">
	.st0{fill:#97D2CE;}
	.st1{fill:#231815;}
	.st2{fill:#FFF8EE;}
</style>
<polygon class="st0" points="522.3,0 247.7,0 3.9,330 766.1,330 "/>
<polygon class="st1" points="523.2,0 521.4,0 765.2,330 767,330 "/>
<polygon class="st1" points="248.6,0 246.8,0 3,330 4.8,330 "/>
<g>
	<path class="st2" d="M529,44.1l19.5,30h-10.9L497.7,8.4h8.5c8.7,0,14.8,2.9,19.9,10l9,12.5c7,9.7,5.1,13.4-3.8,13.4
		C530.4,44.2,529.7,44.1,529,44.1z M523.8,36.2c2.7,0,5.4,0,3.8-2.8l-9.4-13.9c-2.9-4.2-4.7-5-8.5-5L523.8,36.2z"/>
	<path class="st2" d="M522.4,61.6c6.3,10.9,0.7,14.3-6.2,14.3c-6.7,0-15.9-3.3-20.9-14.3L474.1,16c-3.1-6.6,1.6-8.5,6.6-8.5
		c5,0,11.6,1.8,15.4,8.5L522.4,61.6z M511,65.6c2.1,0,2.7-0.9,0.5-5l-23.4-44c-1.4-2.6-2.6-3.2-4.2-3.2c-1.7,0-2.3,0.6-1,3.2
		l22.3,44C507.2,64.6,508.8,65.6,511,65.6z"/>
	<polygon class="st2" points="464.2,8.4 492.5,74.1 481.5,74.1 467.3,37.4 462.1,37.4 475.5,74.1 464.5,74.1 443.5,8.4 451.6,8.4 
		459.2,29.2 464.2,29.2 456.1,8.4 	"/>
	<path class="st2" d="M452.2,61.6c3.1,10.9-3.5,14.3-10.4,14.3c-6.7,0-14.9-3.3-16.8-14.3l-3-17.2h9.6l3.5,16.2c0.9,4,2.2,5,4.4,5
		c2.1,0,3-0.9,2-5l-2-8.1c-2.4-10-19.4-18.9-21.1-28.7l-1.4-7.9c-1.1-6.6,4.1-8.5,9-8.5c5,0,11.1,1.8,13,8.5l3.3,11.7h-8.9
		l-2.7-11.1c-0.6-2.6-1.6-3.2-3.3-3.2c-1.7,0-2.5,0.6-1.9,3.2l1.5,6.8c0.9,4.1,19.2,17.8,21.2,24.8L452.2,61.6z"/>
	<polygon class="st2" points="404,63.1 404.9,74.1 380.4,74.1 381.2,8.4 399.2,8.4 399.7,15 389.5,15 389.9,29.4 400.5,29.4 
		401.2,37.6 390.2,37.6 390.9,63.1 	"/>
	<path class="st2" d="M373.8,8.4l-3.3,65.7h-16.2l-0.1-37.8c0-7.7,0-14.1,0.2-20.5h-0.3c-0.3,2.3-0.5,4.7-0.8,7.1l-7.6,51.3h-9
		l12.1-65.7H361l0.7,15.2c0.5,11.2,1.2,24.1,0.8,38.2h0.4l0.4-4.2c0.6-7.3,0.9-14.3,1.5-20.8l2.5-28.5H373.8z"/>
	<polygon class="st2" points="342.1,8.4 327.7,74.1 316.8,74.1 334,8.4 	"/>
	<polygon class="st2" points="318.1,8.4 299.1,63.1 312.4,63.1 309.2,74.1 284.4,74.1 310,8.4 	"/>
	<path class="st2" d="M303.4,8.4l-27.9,65.7h-16.2l14.1-37.8c2.9-7.7,5.3-14.1,7.9-20.5h-0.3c-1.2,2.3-2.2,4.7-3.4,7.1l-26.8,51.3
		h-9l36.7-65.7h12.1l-5,15.2c-3.6,11.2-7.8,24.1-13.5,38.2h0.4l1.9-4.2c3.4-7.3,6.3-14.3,9.3-20.8l13.1-28.5H303.4z"/>
	<path class="st2" d="M261.9,7.5c5,0,9.5,1.8,5.5,8.5l-27,45.6c-6.5,10.9-16,14.3-22.9,14.3c-6.7,0-12-3.3-4.2-14.3L245.4,16
		C250.1,9.3,257,7.5,261.9,7.5z M258.6,16.6c1.7-2.6,1.2-3.2-0.5-3.2c-1.7,0-3,0.6-4.7,3.2l-29.1,44c-2.7,4-2.2,5,0,5
		c2.1,0,3.8-0.9,6.3-5L258.6,16.6z"/>
</g>
<g>
	<path class="st1" d="M549.8,74.8h-12.6l-0.2-0.3L496.4,7.7h9.7c9.1,0,15.2,3.1,20.4,10.3l9,12.5c3.9,5.4,5.1,9.1,3.9,11.5
		c-1,2-3.7,3-8.3,3c-0.3,0-0.5,0-0.8,0L549.8,74.8z M538,73.4h9.2l-19.5-30h1.3c0.4,0,0.8,0,1.1,0.1c0.3,0,0.7,0,1,0
		c3.9,0,6.3-0.7,7.1-2.2c0.9-1.8-0.3-5.2-3.8-10l-9-12.5c-4.9-6.8-10.7-9.7-19.3-9.7h-7.2L538,73.4z M523.8,36.9h-0.4l-15-23.1h1.3
		c3.9,0,6,0.7,9.1,5.3l9.4,13.9c0.7,1.1,0.8,2,0.4,2.7C527.9,36.9,525.9,36.9,523.8,36.9z M511,15.2l13.2,20.3c1.3,0,2.9,0,3.2-0.5
		c0.1-0.2,0-0.6-0.4-1.3l-9.4-13.8C515.2,16.4,513.7,15.4,511,15.2z"/>
	<path class="st1" d="M516.2,76.6c-3.5,0-15.3-1.1-21.6-14.7l-21.2-45.6c-1.3-2.8-1.4-5-0.3-6.6c1.5-2.3,4.9-2.8,7.5-2.8
		c3.3,0,11.5,0.9,16,8.8L523,61.3c2.9,5,3.6,9,2,11.7C523.6,75.3,520.6,76.6,516.2,76.6z M480.7,8.2c-3.2,0-5.4,0.8-6.3,2.2
		c-0.8,1.2-0.6,3,0.4,5.3l21.2,45.6c6,12.9,17,13.9,20.3,13.9c2.2,0,6.1-0.4,7.6-3c1.3-2.2,0.6-5.8-2-10.3l-26.3-45.6
		C491.3,9,483.7,8.2,480.7,8.2z M511,66.3c-2.7,0-4.4-1.4-6.4-5.3l-22.3-44c-0.8-1.7-1-2.7-0.6-3.4c0.5-0.7,1.4-0.8,2.2-0.8
		c2.1,0,3.4,1,4.8,3.6l23.4,44c1.4,2.6,1.7,4.1,1.2,5C512.8,66.2,511.7,66.3,511,66.3z M483.9,14.1c-0.9,0-1,0.2-1,0.2
		c0,0-0.2,0.4,0.6,2l22.3,44c2,3.8,3.3,4.6,5.2,4.6c0.8,0,1.1-0.2,1.1-0.3c0.1-0.2,0.2-1-1.2-3.7l-23.4-44
		C486.2,14.6,485.2,14.1,483.9,14.1z"/>
	<path class="st1" d="M493.5,74.8h-12.5l-14.2-36.8h-3.7l13.3,36.8H464L442.6,7.7h9.5l7.5,20.8h3.5l-8-20.8h9.6L493.5,74.8z
		 M482,73.4h9.4L463.8,9.1h-6.6l8,20.8h-6.5l-7.5-20.8h-6.6L465,73.4h9.4l-13.3-36.8h6.7L482,73.4z"/>
	<path class="st1" d="M441.9,76.6c-3.5,0-15.1-1.1-17.5-14.9l-3.1-18h11l3.6,16.7c0.9,4.1,2.1,4.4,3.7,4.4c1,0,1.3-0.2,1.4-0.4
		c0.4-0.5,0.4-1.7-0.1-3.7l-2-8.1c-1.1-4.7-5.9-9.4-10.4-13.9c-4.8-4.8-9.8-9.7-10.7-14.8l-1.4-7.9c-0.5-2.6,0-4.7,1.3-6.3
		c2.1-2.5,5.7-3,8.4-3c3.3,0,11.3,0.9,13.7,9l3.6,12.6h-10.4l-2.8-11.6c-0.6-2.5-1.4-2.7-2.6-2.7c-0.7,0-1.1,0.1-1.2,0.3
		c-0.2,0.2-0.3,0.7,0,2.1l1.5,6.8c0.3,1.6,4.4,5.5,8.3,9.3c5.5,5.3,11.7,11.3,12.8,15.4l3.8,13.4c1.4,4.8,1,8.5-1,11.2
		C450,75.2,446.4,76.6,441.9,76.6z M422.9,45.1l2.8,16.4c2.2,12.7,12.9,13.7,16.1,13.7c4.1,0,7.3-1.2,8.9-3.4c1.7-2.3,2-5.6,0.7-9.9
		l-3.8-13.4c-1.1-3.7-7.1-9.6-12.5-14.8c-5.1-5-8.3-8.1-8.7-10.1l-1.5-6.8c-0.3-1.6-0.3-2.6,0.3-3.2c0.6-0.7,1.5-0.8,2.3-0.8
		c2.2,0,3.3,1,4,3.7l2.5,10.5h7.4l-3.1-10.8c-2-6.9-8.6-8-12.3-8c-2,0-5.5,0.3-7.3,2.5c-1.1,1.3-1.4,3-1,5.2l1.4,7.9
		c0.8,4.7,5.6,9.5,10.3,14.1c4.7,4.6,9.5,9.4,10.8,14.5l2,8.1c0.6,2.5,0.6,4-0.2,4.9c-0.7,0.8-1.8,0.9-2.5,0.9c-2.8,0-4.2-1.5-5-5.5
		l-3.4-15.6H422.9z"/>
	<path class="st1" d="M405.6,74.8h-26l0.8-67.1h19.4l0.7,8h-10.3l0.4,13h10.6l0.8,9.6h-11.1l0.7,24h13L405.6,74.8z M381.1,73.4h23
		l-0.8-9.7h-13l-0.8-26.8h11l-0.6-6.8h-10.6l-0.5-15.8H399l-0.4-5.2h-16.7L381.1,73.4z"/>
	<path class="st1" d="M371.1,74.8h-17.5l-0.1-38.5l0-1.8c0-3,0-5.8,0-8.5l-7.2,48.8H336l12.3-67.1h13.4l0.8,17.1
		c0.3,7,0.7,14.6,0.8,22.7c0-0.3,0-0.5,0.1-0.8c0.2-3.5,0.4-6.7,0.7-9.9l2.5-29.1h8L371.1,74.8z M355,73.4h14.8l3.3-64.3h-5.3
		L365.4,37c-0.3,3.2-0.5,6.4-0.7,9.9c-0.2,3.5-0.5,7.1-0.8,10.9l-0.4,4.8h-1.7l0-0.7c0.4-13.6-0.2-26-0.8-36.9l-0.1-1.3l-0.6-14.5
		h-10.9l-11.8,64.3h7.5l7.5-50.7c0.2-1.1,0.3-2.3,0.4-3.5c0.1-1.2,0.2-2.4,0.4-3.6l0.1-0.6h1.6l0,0.7c-0.2,5.9-0.2,11.9-0.2,18.7
		l0,1.8L355,73.4z"/>
	<path class="st1" d="M328.3,74.8h-12.4l17.6-67.1h9.5L328.3,74.8z M317.7,73.4h9.5l14.1-64.3h-6.7L317.7,73.4z"/>
	<path class="st1" d="M309.7,74.8h-26.4l26.2-67.1h9.6l-19,54.6h13.2L309.7,74.8z M285.4,73.4h23.3l2.8-9.7h-13.3l19-54.6h-6.6
		L285.4,73.4z"/>
	<path class="st1" d="M275.9,74.8h-17.6l15.1-40.4c1-2.6,1.9-5,2.8-7.4l-25,47.8h-10.6L278,7.7h13.5l-5.6,17
		c-2.2,6.6-4.5,13.8-7.2,21.5c1.5-3.4,2.9-6.5,4.3-9.6l13.3-28.9h8.2L275.9,74.8z M260.2,73.4h14.7l27.4-64.3h-5.1l-12.9,28.1
		c-1.5,3.2-2.9,6.5-4.5,10c-1.5,3.5-3.1,7.1-4.8,10.7l-2.1,4.6H271l0.4-1c5.5-13.8,9.6-26.2,13.2-37.2l0.3-0.9l4.7-14.2h-10.8
		l-35.9,64.3h7.4l26.6-50.9c0.6-1.1,1.2-2.3,1.7-3.5c0.6-1.2,1.1-2.4,1.7-3.6l0.2-0.4h1.8l-0.4,1c-2.4,5.9-4.7,11.9-7.3,18.8
		l-0.6,1.7L260.2,73.4z"/>
	<path class="st1" d="M217.5,76.6c-4.2,0-7-1.2-8.2-3.5c-1.4-2.7-0.3-6.7,3.4-11.9l32.2-45.6c5.6-7.9,13.8-8.8,17-8.8
		c3.7,0,6.2,1,7.2,2.8c1,1.7,0.6,4-1.1,6.8L241,62C233,75.5,221,76.6,217.5,76.6z M261.9,8.2c-3,0-10.7,0.8-15.9,8.2L213.8,62
		c-3.3,4.7-4.4,8.3-3.3,10.5c1.2,2.4,4.9,2.7,7,2.7c3.3,0,14.6-1,22.3-13.9l27-45.6c1.4-2.4,1.8-4.2,1.1-5.4
		C267.2,8.9,265,8.2,261.9,8.2z M224.3,66.3c-0.8,0-1.9-0.1-2.3-1c-0.5-1,0-2.4,1.8-5.1l29.1-44c1.7-2.6,3.1-3.5,5.3-3.5
		c0.7,0,1.6,0.1,2,0.8c0.4,0.7,0.1,1.7-1,3.4l-27.9,44C228.8,64.9,226.9,66.3,224.3,66.3z M258.1,14.1c-1.5,0-2.5,0.4-4.1,2.9
		l-29.1,44c-1.9,2.9-1.7,3.6-1.7,3.7c0,0,0.1,0.2,1.1,0.2c1.8,0,3.3-0.8,5.7-4.6l27.9-44c1-1.6,0.9-2,0.9-2
		C258.9,14.3,258.8,14.1,258.1,14.1z"/>
</g>
<polygon class="st2" points="381.3,102.9 397.3,102.9 401.3,157.6 377.3,157.6 "/>
<polygon class="st2" points="374.9,189.4 403.7,189.4 411.2,291.2 367.4,291.2 "/>
<path class="st1" d="M402.1,158.3h-25.5l4.1-56.1h17.3L402.1,158.3z M378,156.9h22.5l-3.9-53.3H382L378,156.9z"/>
<path class="st1" d="M412,291.9h-45.3l0.1-0.8l7.6-102.4h30.1L412,291.9z M368.2,290.5h42.3L403,190.1h-27.4L368.2,290.5z"/>
</svg>
