<?xml version="1.0" encoding="utf-8"?>
<svg version="1.1" id="the-element-otera-1" xmlns="http://www.w3.org/2000/svg" xmlns:xlink="http://www.w3.org/1999/xlink" x="0px"
	 y="0px" viewBox="0 0 160 423" style="enable-background:new 0 0 160 423;" xml:space="preserve">
<style type="text/css">
	.st0{fill:#FFF8EE;}
	.st1{fill:#EE795E;}
	.st2{fill:#121659;}
	.st3{fill:#E84572;}
	.st4{fill:#231815;}
</style>
<g>
	<path class="st0" d="M107.2,354.3v5.2h-5h-3.6H92h-3.6h-6.5h-3.6h-6.5H68h-6.5h-3.6h-4.2v-5.1c1.2,0.8,2.6,1.3,4.2,1.3
		c4.1,0,7.4-3.3,7.4-7.4c0,4.1,3.3,7.4,7.4,7.4s7.4-3.3,7.4-7.4c0,4.1,3.3,7.4,7.4,7.4c4.1,0,7.4-3.3,7.4-7.4c0,4.1,3.3,7.4,7.4,7.4
		c1.7,0,3.2-0.5,4.4-1.5L107.2,354.3z"/>
	<path class="st1" d="M80,342H40.8v6.3h9.6c0,2.5,1.3,4.8,3.2,6.1c1.2,0.8,2.6,1.3,4.2,1.3c4.1,0,7.4-3.3,7.4-7.4
		c0,4.1,3.3,7.4,7.4,7.4s7.4-3.3,7.4-7.4c0,4.1,3.3,7.4,7.4,7.4c4.1,0,7.4-3.3,7.4-7.4c0,4.1,3.3,7.4,7.4,7.4c1.7,0,3.2-0.5,4.4-1.5
		c1.8-1.4,3-3.5,3-5.9h9.6V342H80z"/>
	<path class="st0" d="M107.2,302.1v5.2h-5h-3.6H92h-3.6h-6.5h-3.6h-6.5H68h-6.5h-3.6h-4.2v-5.1c1.2,0.8,2.6,1.3,4.2,1.3
		c4.1,0,7.4-3.3,7.4-7.4c0,4.1,3.3,7.4,7.4,7.4s7.4-3.3,7.4-7.4c0,4.1,3.3,7.4,7.4,7.4c4.1,0,7.4-3.3,7.4-7.4c0,4.1,3.3,7.4,7.4,7.4
		c1.7,0,3.2-0.5,4.4-1.5L107.2,302.1z"/>
	<path class="st1" d="M80,289.7H40.8v6.3h9.6c0,2.5,1.3,4.8,3.2,6.1v0c1.2,0.8,2.6,1.3,4.2,1.3c4.1,0,7.4-3.3,7.4-7.4
		c0,4.1,3.3,7.4,7.4,7.4s7.4-3.3,7.4-7.4c0,4.1,3.3,7.4,7.4,7.4c4.1,0,7.4-3.3,7.4-7.4c0,4.1,3.3,7.4,7.4,7.4c1.7,0,3.2-0.5,4.4-1.5
		c1.8-1.3,3-3.5,3-5.9h9.6v-6.3H80z"/>
	<path class="st0" d="M107.2,249.8v5.2h-5h-3.6H92h-3.6h-6.5h-3.6h-6.5H68h-6.5h-3.6h-4.2v-5.1c1.2,0.8,2.6,1.3,4.2,1.3
		c4.1,0,7.4-3.3,7.4-7.4c0,4.1,3.3,7.4,7.4,7.4s7.4-3.3,7.4-7.4c0,4.1,3.3,7.4,7.4,7.4c4.1,0,7.4-3.3,7.4-7.4c0,4.1,3.3,7.4,7.4,7.4
		c1.7,0,3.2-0.6,4.4-1.5L107.2,249.8z"/>
	<path class="st1" d="M80,237.4H40.8v6.3h9.6c0,2.5,1.3,4.8,3.2,6.1c1.2,0.8,2.6,1.3,4.2,1.3c4.1,0,7.4-3.3,7.4-7.4
		c0,4.1,3.3,7.4,7.4,7.4s7.4-3.3,7.4-7.4c0,4.1,3.3,7.4,7.4,7.4c4.1,0,7.4-3.3,7.4-7.4c0,4.1,3.3,7.4,7.4,7.4c1.7,0,3.2-0.6,4.4-1.5
		c1.8-1.4,3-3.5,3-5.9h9.6v-6.3H80z"/>
	<path class="st0" d="M107.2,197.5v5.2h-5h-3.6H92h-3.6h-6.5h-3.6h-6.5H68h-6.5h-3.6h-4.2v-5.1c1.2,0.8,2.6,1.3,4.2,1.3
		c4.1,0,7.4-3.3,7.4-7.4c0,4.1,3.3,7.4,7.4,7.4s7.4-3.3,7.4-7.4c0,4.1,3.3,7.4,7.4,7.4c4.1,0,7.4-3.3,7.4-7.4c0,4.1,3.3,7.4,7.4,7.4
		c1.7,0,3.2-0.5,4.4-1.5L107.2,197.5z"/>
	<path class="st1" d="M80,185.2H40.8v6.3h9.6c0,2.5,1.3,4.8,3.2,6.1v0c1.2,0.8,2.6,1.3,4.2,1.3c4.1,0,7.4-3.3,7.4-7.4
		c0,4.1,3.3,7.4,7.4,7.4s7.4-3.3,7.4-7.4c0,4.1,3.3,7.4,7.4,7.4c4.1,0,7.4-3.3,7.4-7.4c0,4.1,3.3,7.4,7.4,7.4c1.7,0,3.2-0.5,4.4-1.5
		c1.8-1.3,3-3.5,3-5.9h9.6v-6.3H80z"/>
	<path class="st0" d="M107.2,145.3v5.2h-5h-3.6H92h-3.6h-6.5h-3.6h-6.5H68h-6.5h-3.6h-4.2v-5.1c1.2,0.8,2.6,1.3,4.2,1.3
		c4.1,0,7.4-3.3,7.4-7.4c0,4.1,3.3,7.4,7.4,7.4s7.4-3.3,7.4-7.4c0,4.1,3.3,7.4,7.4,7.4c4.1,0,7.4-3.3,7.4-7.4c0,4.1,3.3,7.4,7.4,7.4
		c1.7,0,3.2-0.5,4.4-1.5L107.2,145.3z"/>
	<path class="st1" d="M80,132.9H40.8v6.3h9.6c0,2.5,1.3,4.8,3.2,6.1c1.2,0.8,2.6,1.3,4.2,1.3c4.1,0,7.4-3.3,7.4-7.4
		c0,4.1,3.3,7.4,7.4,7.4s7.4-3.3,7.4-7.4c0,4.1,3.3,7.4,7.4,7.4c4.1,0,7.4-3.3,7.4-7.4c0,4.1,3.3,7.4,7.4,7.4c1.7,0,3.2-0.5,4.4-1.5
		c1.8-1.4,3-3.5,3-5.9h9.6v-6.3H80z"/>
	<polygon class="st2" points="159.3,128 119.2,132.9 80,132.9 40.8,132.9 0.7,128 80,128 	"/>
	<polygon class="st3" points="159.3,128 80,128 0.7,128 73.6,95.2 74.3,95.2 77.6,95.2 82.4,95.2 85.7,95.2 86.4,95.2 	"/>
	<polygon class="st2" points="159.3,180.2 119.2,185.2 80,185.2 40.8,185.2 0.7,180.2 80,180.2 	"/>
	<polygon class="st3" points="159.3,180.2 80,180.2 0.7,180.2 50.4,166.8 57.8,166.8 61.4,166.8 68,166.8 71.6,166.8 78.2,166.8 
		80,166.8 81.8,166.8 88.4,166.8 92,166.8 98.6,166.8 102.2,166.8 109.6,166.8 	"/>
	<polygon class="st2" points="159.3,232.5 119.2,237.4 80,237.4 40.8,237.4 0.7,232.5 80,232.5 	"/>
	<polygon class="st3" points="159.3,232.5 80,232.5 0.7,232.5 50.4,219.1 57.8,219.1 61.4,219.1 68,219.1 71.6,219.1 78.2,219.1 
		80,219.1 81.8,219.1 88.4,219.1 92,219.1 98.6,219.1 102.2,219.1 109.6,219.1 	"/>
	<polygon class="st2" points="159.3,284.7 119.2,289.7 80,289.7 40.8,289.7 0.7,284.7 80,284.7 	"/>
	<polygon class="st3" points="159.3,284.7 80,284.7 0.7,284.7 50.4,271.3 57.8,271.3 61.4,271.3 68,271.3 71.6,271.3 78.2,271.3 
		80,271.3 81.8,271.3 88.4,271.3 92,271.3 98.6,271.3 102.2,271.3 109.6,271.3 	"/>
	<polygon class="st2" points="159.3,337 119.2,342 80,342 40.8,342 0.7,337 80,337 	"/>
	<polygon class="st3" points="159.3,337 80,337 0.7,337 50.4,323.6 57.8,323.6 61.4,323.6 68,323.6 71.6,323.6 78.2,323.6 80,323.6 
		81.8,323.6 88.4,323.6 92,323.6 98.6,323.6 102.2,323.6 109.6,323.6 	"/>
	<path class="st1" d="M85.7,6.4v11.4h-3.3h-4.8h-3.3V6.4c0-3.1,2.5-5.7,5.7-5.7C83.1,0.7,85.7,3.2,85.7,6.4z"/>
	<polygon class="st1" points="85.7,31.1 85.7,25.6 82.4,25.6 82.4,17.8 77.6,17.8 77.6,25.6 74.3,25.6 74.3,31.1 77.6,31.1 
		77.6,36.3 74.3,36.3 74.3,41.8 77.6,41.8 77.6,47 74.3,47 74.3,52.5 77.6,52.5 77.6,57.7 74.3,57.7 74.3,63.2 77.6,63.2 77.6,68.4 
		74.3,68.4 74.3,73.8 77.6,73.8 77.6,79.1 74.3,79.1 74.3,84.5 77.6,84.5 77.6,89.8 74.3,89.8 74.3,95.2 77.6,95.2 82.4,95.2 
		85.7,95.2 85.7,89.8 82.4,89.8 82.4,84.5 85.7,84.5 85.7,79.1 82.4,79.1 82.4,73.8 85.7,73.8 85.7,68.4 82.4,68.4 82.4,63.2 
		85.7,63.2 85.7,57.7 82.4,57.7 82.4,52.5 85.7,52.5 85.7,47 82.4,47 82.4,41.8 85.7,41.8 85.7,36.3 82.4,36.3 82.4,31.1 	"/>
	<path class="st2" d="M109.6,310.9v-3.6h-2.4h-5h-3.6H92h-3.6h-6.5h-3.6h-6.5H68h-6.5h-3.6h-4.2h-3.2v3.6h7.4v4.5h-7.4v3.6h7.4v4.6
		h3.6V319H68v4.6h3.6V319h6.5v4.6H80h1.8V319h6.5v4.6H92V319h6.6v4.6h3.6V319h7.4v-3.6h-7.4v-4.5H109.6z M61.4,315.3v-4.5H68v4.5
		H61.4z M71.6,315.3v-4.5h6.5v4.5H71.6z M81.8,315.3v-4.5h6.5v4.5H81.8z M98.6,315.3H92v-4.5h6.6V315.3z"/>
	<path class="st2" d="M109.6,258.6v-3.6h-2.4h-5h-3.6H92h-3.6h-6.5h-3.6h-6.5H68h-6.5h-3.6h-4.2h-3.2v3.6h7.4v4.5h-7.4v3.6h7.4v4.6
		h3.6v-4.6H68v4.6h3.6v-4.6h6.5v4.6H80h1.8v-4.6h6.5v4.6H92v-4.6h6.6v4.6h3.6v-4.6h7.4v-3.6h-7.4v-4.5H109.6z M61.4,263.1v-4.5H68
		v4.5H61.4z M71.6,263.1v-4.5h6.5v4.5H71.6z M81.8,263.1v-4.5h6.5v4.5H81.8z M98.6,263.1H92v-4.5h6.6V263.1z"/>
	<path class="st2" d="M109.6,206.3v-3.6h-2.4h-5h-3.6H92h-3.6h-6.5h-3.6h-6.5H68h-6.5h-3.6h-4.2h-3.2v3.6h7.4v4.5h-7.4v3.6h7.4v4.6
		h3.6v-4.6H68v4.6h3.6v-4.6h6.5v4.6H80h1.8v-4.6h6.5v4.6H92v-4.6h6.6v4.6h3.6v-4.6h7.4v-3.6h-7.4v-4.5H109.6z M61.4,210.8v-4.5H68
		v4.5H61.4z M71.6,210.8v-4.5h6.5v4.5H71.6z M81.8,210.8v-4.5h6.5v4.5H81.8z M98.6,210.8H92v-4.5h6.6V210.8z"/>
	<path class="st2" d="M109.6,154.1v-3.6h-2.4h-5h-3.6H92h-3.6h-6.5h-3.6h-6.5H68h-6.5h-3.6h-4.2h-3.2v3.6h7.4v4.5h-7.4v3.6h7.4v4.6
		h3.6v-4.6H68v4.6h3.6v-4.6h6.5v4.6H80h1.8v-4.6h6.5v4.6H92v-4.6h6.6v4.6h3.6v-4.6h7.4v-3.6h-7.4v-4.5H109.6z M61.4,158.6v-4.5H68
		v4.5H61.4z M71.6,158.6v-4.5h6.5v4.5H71.6z M81.8,158.6v-4.5h6.5v4.5H81.8z M98.6,158.6H92v-4.5h6.6V158.6z"/>
	<path class="st2" d="M109.6,363.1v-3.6h-2.4h-5h-3.6H92h-3.6h-6.5h-3.6h-6.5H68h-6.5h-3.6h-4.2h-3.2v3.6h7.4v4.5h-7.4v3.6h7.4v4.6
		h-3.7h-3.6v3.6v6.4v3.6v4.1v3.6V415v3.6v3.6h59.2v-3.6V415v-17.8v-3.6v-4.1v-3.6v-6.4v-3.6h-3.6h-3.7v-4.6h7.4v-3.6h-7.4v-4.5
		H109.6z M88.4,363.1v4.5h-6.5v-4.5H88.4z M88.4,375.8h-6.5v-4.6h6.5V375.8z M71.6,371.2h6.5v4.6h-6.5V371.2z M78.2,363.1v4.5h-6.5
		v-4.5H78.2z M61.4,363.1H68v4.5h-6.5V363.1z M61.4,371.2H68v4.6h-6.5V371.2z M54.1,389.5h14.1v4.1H54.1V389.5z M88.2,393.6H71.8
		v-4.1h16.4V393.6z M88.2,415H71.8v-17.8h16.4V415z M54.1,397.2h14.1V415H54.1V397.2z M105.9,415H91.8v-17.8h14.1V415z M105.9,393.6
		H91.8v-4.1h14.1V393.6z M105.9,379.5v6.4H91.8h-3.6H71.8h-3.6H54.1v-6.4H105.9z M98.6,375.8H92v-4.6h6.6V375.8z M98.6,367.6H92
		v-4.5h6.6V367.6z"/>
	<path class="st4" d="M160,180.1c0-0.1,0-0.1-0.1-0.2c0,0,0-0.1,0-0.1c0,0-0.1-0.1-0.1-0.1c0,0,0,0-0.1-0.1c-0.1,0-0.1-0.1-0.2-0.1
		c0,0,0,0-0.1,0c0,0,0,0,0,0l-49.7-13.4c-0.1,0-0.1,0-0.2,0h-6.7v-3.2h6.7c0.4,0,0.7-0.3,0.7-0.7v-3.6c0-0.4-0.3-0.7-0.7-0.7h-6.7
		v-3.1h6.7c0.4,0,0.7-0.3,0.7-0.7v-3.6c0-0.4-0.3-0.7-0.7-0.7h-1.7v-4.5c0-0.1,0-0.2-0.1-0.3c1.4-1.4,2.2-3.1,2.4-5.1h8.9
		c0.4,0,0.7-0.3,0.7-0.7v-5.6l39.5-4.9c0,0,0,0,0.1,0c0.1,0,0.1,0,0.2-0.1c0,0,0.1,0,0.1,0c0,0,0.1-0.1,0.1-0.1c0,0,0,0,0.1-0.1
		c0,0,0.1-0.1,0.1-0.1c0,0,0-0.1,0-0.1c0,0,0,0,0,0c0-0.1,0-0.1,0-0.2c0,0,0,0,0,0c0,0,0,0,0,0c0-0.1,0-0.2-0.1-0.2c0,0,0,0,0-0.1
		c0,0-0.1-0.1-0.1-0.1c0,0,0,0-0.1-0.1c0,0-0.1,0-0.1-0.1L86.7,94.6c-0.1,0-0.2-0.1-0.3-0.1v-4.8c0-0.4-0.3-0.7-0.7-0.7h-2.6v-3.8
		h2.6c0.4,0,0.7-0.3,0.7-0.7v-5.5c0-0.4-0.3-0.7-0.7-0.7h-2.6v-3.8h2.6c0.4,0,0.7-0.3,0.7-0.7v-5.5c0-0.4-0.3-0.7-0.7-0.7h-2.6v-3.8
		h2.6c0.4,0,0.7-0.3,0.7-0.7v-5.5c0-0.4-0.3-0.7-0.7-0.7h-2.6v-3.8h2.6c0.4,0,0.7-0.3,0.7-0.7V47c0-0.4-0.3-0.7-0.7-0.7h-2.6v-3.8
		h2.6c0.4,0,0.7-0.3,0.7-0.7v-5.5c0-0.4-0.3-0.7-0.7-0.7h-2.6v-3.8h2.6c0.4,0,0.7-0.3,0.7-0.7v-5.5c0-0.4-0.3-0.7-0.7-0.7h-2.6v-6.5
		h2.6c0.4,0,0.7-0.3,0.7-0.7V6.4C86.4,2.9,83.5,0,80,0c-3.5,0-6.4,2.9-6.4,6.4v11.4c0,0.4,0.3,0.7,0.7,0.7h2.6v6.5h-2.6
		c-0.4,0-0.7,0.3-0.7,0.7v5.5c0,0.4,0.3,0.7,0.7,0.7h2.6v3.8h-2.6c-0.4,0-0.7,0.3-0.7,0.7v5.5c0,0.4,0.3,0.7,0.7,0.7h2.6v3.8h-2.6
		c-0.4,0-0.7,0.3-0.7,0.7v5.5c0,0.4,0.3,0.7,0.7,0.7h2.6V57h-2.6c-0.4,0-0.7,0.3-0.7,0.7v5.5c0,0.4,0.3,0.7,0.7,0.7h2.6v3.8h-2.6
		c-0.4,0-0.7,0.3-0.7,0.7v5.5c0,0.4,0.3,0.7,0.7,0.7h2.6v3.8h-2.6c-0.4,0-0.7,0.3-0.7,0.7v5.5c0,0.4,0.3,0.7,0.7,0.7h2.6v3.8h-2.6
		c-0.4,0-0.7,0.3-0.7,0.7v4.8c-0.1,0-0.2,0-0.3,0.1L0.4,127.3c0,0-0.1,0-0.1,0.1c0,0-0.1,0-0.1,0.1c0,0-0.1,0.1-0.1,0.1
		c0,0,0,0-0.1,0.1c0,0.1-0.1,0.2-0.1,0.2c0,0,0,0,0,0c0,0,0,0,0,0c0,0.1,0,0.1,0,0.2c0,0,0,0,0,0c0,0,0,0.1,0,0.1c0,0,0,0.1,0.1,0.1
		c0,0,0,0,0.1,0.1c0,0,0.1,0.1,0.1,0.1c0,0,0.1,0,0.1,0c0,0,0.1,0,0.2,0.1c0,0,0,0,0.1,0l39.5,4.9v5.7c0,0.4,0.3,0.7,0.7,0.7h8.9
		c0.2,2.3,1.3,4.3,3.2,5.7v4.1h-2.5c-0.4,0-0.7,0.3-0.7,0.7v3.6c0,0.4,0.3,0.7,0.7,0.7h6.7v3.1h-6.7c-0.4,0-0.7,0.3-0.7,0.7v3.6
		c0,0.4,0.3,0.7,0.7,0.7h6.7v3.2h-6.7c-0.1,0-0.1,0-0.2,0L0.5,179.5c0,0,0,0,0,0c0,0,0,0,0,0c-0.1,0-0.1,0.1-0.2,0.1
		c0,0,0,0-0.1,0.1c0,0-0.1,0.1-0.1,0.1c0,0,0,0.1,0,0.1c0,0.1,0,0.1-0.1,0.2c0,0,0,0,0,0c0,0,0,0.1,0,0.1c0,0,0,0.1,0,0.1
		c0,0,0,0,0,0.1c0,0,0,0.1,0,0.1c0,0,0,0.1,0.1,0.1c0,0,0,0.1,0.1,0.1c0,0,0.1,0.1,0.1,0.1c0,0,0.1,0,0.1,0.1c0,0,0.1,0,0.1,0
		c0,0,0,0,0.1,0l39.5,4.9v5.7c0,0.4,0.3,0.7,0.7,0.7h8.9c0.2,2.3,1.3,4.3,3.2,5.7v4.1h-2.5c-0.4,0-0.7,0.3-0.7,0.7v3.6
		c0,0.4,0.3,0.7,0.7,0.7h6.7v3.1h-6.7c-0.4,0-0.7,0.3-0.7,0.7v3.6c0,0.4,0.3,0.7,0.7,0.7h6.7v3.2h-6.7c-0.1,0-0.1,0-0.2,0L0.5,231.8
		c0,0,0,0,0,0c0,0-0.1,0-0.1,0c0,0-0.1,0-0.1,0.1c0,0,0,0-0.1,0.1c0,0-0.1,0.1-0.1,0.1c0,0,0,0.1,0,0.1c0,0.1,0,0.1-0.1,0.2
		c0,0,0,0,0,0c0,0,0,0.1,0,0.1c0,0,0,0.1,0,0.1c0,0,0,0,0,0.1c0,0,0,0.1,0,0.1c0,0,0,0.1,0.1,0.1c0,0,0,0.1,0.1,0.1
		c0,0,0.1,0.1,0.1,0.1c0,0,0.1,0,0.1,0.1c0,0,0.1,0,0.1,0c0,0,0,0,0.1,0l39.5,4.9v5.7c0,0.4,0.3,0.7,0.7,0.7h8.9
		c0.2,2.3,1.3,4.3,3.2,5.7v4.1h-2.5c-0.4,0-0.7,0.3-0.7,0.7v3.6c0,0.4,0.3,0.7,0.7,0.7h6.7v3.1h-6.7c-0.4,0-0.7,0.3-0.7,0.7v3.6
		c0,0.4,0.3,0.7,0.7,0.7h6.7v3.2h-6.7c-0.1,0-0.1,0-0.2,0L0.5,284.1c0,0,0,0,0,0c0,0,0,0,0,0c-0.1,0-0.1,0.1-0.2,0.1
		c0,0,0,0-0.1,0.1c0,0-0.1,0.1-0.1,0.1c0,0,0,0.1,0,0.1c0,0.1,0,0.1-0.1,0.2c0,0,0,0,0,0c0,0,0,0.1,0,0.1c0,0,0,0.1,0,0.1
		c0,0,0,0,0,0.1c0,0,0,0.1,0,0.1c0,0,0,0.1,0.1,0.1c0,0,0,0.1,0.1,0.1c0,0,0.1,0.1,0.1,0.1c0,0,0.1,0,0.1,0.1c0,0,0.1,0,0.1,0
		c0,0,0,0,0.1,0l39.5,4.9v5.7c0,0.4,0.3,0.7,0.7,0.7h8.9c0.2,2.3,1.3,4.3,3.2,5.7v4.1h-2.5c-0.4,0-0.7,0.3-0.7,0.7v3.6
		c0,0.4,0.3,0.7,0.7,0.7h6.7v3.1h-6.7c-0.4,0-0.7,0.3-0.7,0.7v3.6c0,0.4,0.3,0.7,0.7,0.7h6.7v3.2h-6.7c-0.1,0-0.1,0-0.2,0L0.5,336.3
		c0,0,0,0,0,0c0,0-0.1,0-0.1,0.1c0,0-0.1,0-0.1,0.1c0,0,0,0.1-0.1,0.1c0,0-0.1,0.1-0.1,0.1c0,0,0,0.1,0,0.1c0,0.1,0,0.1-0.1,0.2
		c0,0,0,0,0,0c0,0,0,0.1,0,0.1c0,0,0,0.1,0,0.1c0,0,0,0,0,0.1c0,0,0,0.1,0,0.1c0,0,0,0.1,0.1,0.1c0,0,0,0.1,0.1,0.1
		c0,0,0.1,0.1,0.1,0.1c0,0,0.1,0,0.1,0.1c0,0,0.1,0,0.1,0c0,0,0,0,0.1,0l39.5,4.9v5.7c0,0.4,0.3,0.7,0.7,0.7h8.9
		c0.2,2.3,1.3,4.3,3.2,5.7v4.1h-2.5c-0.4,0-0.7,0.3-0.7,0.7v3.6c0,0.4,0.3,0.7,0.7,0.7h6.7v3.1h-6.7c-0.4,0-0.7,0.3-0.7,0.7v3.6
		c0,0.4,0.3,0.7,0.7,0.7h6.7v3.2h-6.7c-0.4,0-0.7,0.3-0.7,0.7v3.6v6.4v3.6v4.1v3.6V415v3.6v3.6c0,0.4,0.3,0.7,0.7,0.7h59.2
		c0.4,0,0.7-0.3,0.7-0.7v-3.6V415v-17.8v-3.6v-4.1v-3.6v-6.4v-3.6c0-0.4-0.3-0.7-0.7-0.7h-6.7V372h6.7c0.4,0,0.7-0.3,0.7-0.7v-3.6
		c0-0.4-0.3-0.7-0.7-0.7h-6.7v-3.1h6.7c0.4,0,0.7-0.3,0.7-0.7v-3.6c0-0.4-0.3-0.7-0.7-0.7h-1.7v-4.5c0-0.1,0-0.2-0.1-0.3
		c1.4-1.4,2.2-3.1,2.4-5.1h8.9c0.4,0,0.7-0.3,0.7-0.7v-5.6l39.5-4.9c0,0,0,0,0.1,0c0.1,0,0.1,0,0.1,0c0,0,0.1,0,0.1-0.1
		c0,0,0.1-0.1,0.1-0.1c0,0,0-0.1,0.1-0.1c0,0,0-0.1,0.1-0.1c0,0,0-0.1,0-0.1c0,0,0,0,0-0.1c0,0,0-0.1,0-0.1c0,0,0-0.1,0-0.1
		c0,0,0,0,0,0c0-0.1,0-0.1-0.1-0.2c0,0,0-0.1,0-0.1c0,0-0.1-0.1-0.1-0.1c0,0,0,0-0.1-0.1c-0.1,0-0.1-0.1-0.2-0.1c0,0,0,0-0.1,0
		c0,0,0,0,0,0l-49.7-13.4c-0.1,0-0.1,0-0.2,0h-6.7v-3.2h6.7c0.4,0,0.7-0.3,0.7-0.7v-3.6c0-0.4-0.3-0.7-0.7-0.7h-6.7v-3.1h6.7
		c0.4,0,0.7-0.3,0.7-0.7v-3.6c0-0.4-0.3-0.7-0.7-0.7h-1.7v-4.5c0-0.1,0-0.2-0.1-0.3c1.4-1.4,2.2-3.2,2.4-5.1h8.9
		c0.4,0,0.7-0.3,0.7-0.7v-5.7l39.5-4.9c0,0,0,0,0.1,0c0.1,0,0.1,0,0.1,0c0,0,0.1,0,0.1-0.1c0,0,0.1-0.1,0.1-0.1c0,0,0-0.1,0.1-0.1
		c0,0,0-0.1,0.1-0.1c0,0,0-0.1,0-0.1c0,0,0,0,0-0.1c0,0,0-0.1,0-0.1c0,0,0-0.1,0-0.1c0,0,0,0,0,0c0-0.1,0-0.1-0.1-0.2
		c0,0,0-0.1,0-0.1c0-0.1-0.1-0.1-0.1-0.1c0,0,0,0,0,0c-0.1-0.1-0.2-0.1-0.2-0.1l-49.7-13.4c-0.1,0-0.1,0-0.2,0h-6.7v-3.2h6.7
		c0.4,0,0.7-0.3,0.7-0.7v-3.6c0-0.4-0.3-0.7-0.7-0.7h-6.7v-3.1h6.7c0.4,0,0.7-0.3,0.7-0.7v-3.6c0-0.4-0.3-0.7-0.7-0.7h-1.7v-4.5
		c0-0.1,0-0.2-0.1-0.3c1.4-1.4,2.2-3.1,2.4-5.1h8.9c0.4,0,0.7-0.3,0.7-0.7v-5.6l39.5-4.9c0,0,0,0,0.1,0c0.1,0,0.1,0,0.1,0
		c0,0,0.1,0,0.1-0.1c0,0,0.1-0.1,0.1-0.1c0,0,0-0.1,0.1-0.1c0,0,0-0.1,0.1-0.1c0,0,0-0.1,0-0.1c0,0,0,0,0-0.1c0,0,0-0.1,0-0.1
		c0,0,0-0.1,0-0.1c0,0,0,0,0,0c0-0.1,0-0.1-0.1-0.2c0,0,0-0.1,0-0.1c0,0-0.1-0.1-0.1-0.1c0,0,0,0-0.1-0.1c-0.1,0-0.1-0.1-0.2-0.1
		c0,0,0,0,0,0c0,0,0,0,0,0l-49.7-13.4c-0.1,0-0.1,0-0.2,0h-6.7v-3.2h6.7c0.4,0,0.7-0.3,0.7-0.7v-3.6c0-0.4-0.3-0.7-0.7-0.7h-6.7V207
		h6.7c0.4,0,0.7-0.3,0.7-0.7v-3.6c0-0.4-0.3-0.7-0.7-0.7h-1.7v-4.5c0-0.1,0-0.2-0.1-0.3c1.4-1.4,2.2-3.2,2.4-5.1h8.9
		c0.4,0,0.7-0.3,0.7-0.7v-5.7l39.5-4.9c0,0,0,0,0.1,0c0.1,0,0.1,0,0.1,0c0,0,0.1,0,0.1-0.1c0,0,0.1-0.1,0.1-0.1c0,0,0-0.1,0.1-0.1
		c0,0,0-0.1,0.1-0.1c0,0,0-0.1,0-0.1c0,0,0,0,0-0.1c0,0,0-0.1,0-0.1C160,180.2,160,180.2,160,180.1C160,180.1,160,180.1,160,180.1z
		 M119.2,184.5l-78.2,0l-28.9-3.6H148L119.2,184.5z M101.5,166.1h-2.2v-3.2h2.2V166.1z M92.7,166.1v-3.2h5.2v3.2H92.7z M89.1,166.1
		v-3.2h2.2v3.2H89.1z M82.5,166.1v-3.2h5.1v3.2H82.5z M78.9,166.1v-3.2h2.2v3.2H78.9z M72.3,166.1v-3.2h5.1v3.2H72.3z M68.7,166.1
		v-3.2h2.2v3.2H68.7z M62.1,166.1v-3.2h5.1v3.2H62.1z M101.5,157.9h-2.2v-3.1h2.2V157.9z M92.7,157.9v-3.1h5.2v3.1H92.7z
		 M89.1,157.9v-3.1h2.2v3.1H89.1z M82.5,157.9v-3.1h5.1v3.1H82.5z M78.9,157.9v-3.1h2.2v3.1H78.9z M72.3,157.9v-3.1h5.1v3.1H72.3z
		 M68.7,157.9v-3.1h2.2v3.1H68.7z M62.1,157.9v-3.1h5.1v3.1H62.1z M106.2,144.6c-1.2,0.9-2.6,1.3-4,1.3c-3.5,0-6.3-2.6-6.7-6h13.3
		C108.6,141.7,107.7,143.4,106.2,144.6z M40.9,132.2L12,128.7H148l-28.8,3.6L40.9,132.2z M75,6.4c0-2.7,2.2-5,5-5c2.7,0,5,2.2,5,5
		v10.7H75V6.4z M78.3,18.5h3.4v6.5h-3.4V18.5z M75,26.3h10v4.1H75V26.3z M78.3,31.8h3.4v3.8h-3.4V31.8z M75,37h10v4.1H75V37z
		 M78.3,42.5h3.4v3.8h-3.4V42.5z M75,47.7h10v4.1H75V47.7z M78.3,53.2h3.4V57h-3.4V53.2z M75,58.4h10v4.1H75V58.4z M78.3,63.9h3.4
		v3.8h-3.4V63.9z M75,69.1h10v4.1H75V69.1z M78.3,74.5h3.4v3.8h-3.4V74.5z M75,79.8h10v4.1H75V79.8z M78.3,85.2h3.4v3.8h-3.4V85.2z
		 M75,90.5h10v4.1H75V90.5z M73.8,95.9h0.5h11.4h0.5l69.8,31.3H4L73.8,95.9z M41.5,133.6H80l38.5,0v4.9H41.5V133.6z M94.1,139.9
		c-0.4,3.4-3.2,6-6.7,6c-3.5,0-6.3-2.6-6.7-6H94.1z M79.3,139.9c-0.4,3.4-3.2,6-6.7,6c-3.5,0-6.3-2.6-6.7-6H79.3z M51.2,139.9h13.3
		c-0.4,3.4-3.2,6-6.7,6c-1.4,0-2.7-0.4-3.8-1.2C52.4,143.6,51.4,141.8,51.2,139.9z M54.3,146.5c1.1,0.5,2.3,0.8,3.5,0.8
		c3.3,0,6.1-2,7.4-4.8c1.3,2.8,4.1,4.8,7.4,4.8c3.3,0,6.1-2,7.4-4.8c1.3,2.8,4.1,4.8,7.4,4.8c3.3,0,6.1-2,7.4-4.8
		c1.3,2.8,4.1,4.8,7.4,4.8c1.5,0,3-0.5,4.3-1.3v3.7H54.3V146.5z M51.1,151.1h57.8v2.2H51.1V151.1z M58.5,154.8h2.2v3.1h-2.2V154.8z
		 M51.1,159.3h57.8v2.2H51.1V159.3z M58.5,162.9h2.2v3.2h-2.2V162.9z M50.5,167.5h59l44.5,12H6L50.5,167.5z M51.2,192.2h13.3
		c-0.4,3.4-3.2,6-6.7,6c-1.4,0-2.7-0.4-3.8-1.2c0,0,0,0,0,0C52.4,195.8,51.4,194.1,51.2,192.2z M58.5,207h2.2v3.1h-2.2V207z
		 M67.3,207v3.1h-5.1V207H67.3z M70.9,207v3.1h-2.2V207H70.9z M77.5,207v3.1h-5.1V207H77.5z M81.1,207v3.1h-2.2V207H81.1z M87.7,207
		v3.1h-5.1V207H87.7z M91.3,207v3.1h-2.2V207H91.3z M97.9,207v3.1h-5.2V207H97.9z M58.5,215.2h2.2v3.2h-2.2V215.2z M67.3,215.2v3.2
		h-5.1v-3.2H67.3z M70.9,215.2v3.2h-2.2v-3.2H70.9z M77.5,215.2v3.2h-5.1v-3.2H77.5z M81.1,215.2v3.2h-2.2v-3.2H81.1z M87.7,215.2
		v3.2h-5.1v-3.2H87.7z M91.3,215.2v3.2h-2.2v-3.2H91.3z M97.9,215.2v3.2h-5.2v-3.2H97.9z M119.2,236.7l-78.2,0L12,233.2H148
		L119.2,236.7z M51.2,244.4h13.3c-0.4,3.4-3.2,6-6.7,6c-1.4,0-2.7-0.4-3.8-1.2C52.4,248.1,51.4,246.3,51.2,244.4z M58.5,259.3h2.2
		v3.1h-2.2V259.3z M67.3,259.3v3.1h-5.1v-3.1H67.3z M70.9,259.3v3.1h-2.2v-3.1H70.9z M77.5,259.3v3.1h-5.1v-3.1H77.5z M81.1,259.3
		v3.1h-2.2v-3.1H81.1z M87.7,259.3v3.1h-5.1v-3.1H87.7z M91.3,259.3v3.1h-2.2v-3.1H91.3z M97.9,259.3v3.1h-5.2v-3.1H97.9z
		 M58.5,267.4h2.2v3.2h-2.2V267.4z M67.3,267.4v3.2h-5.1v-3.2H67.3z M70.9,267.4v3.2h-2.2v-3.2H70.9z M77.5,267.4v3.2h-5.1v-3.2
		H77.5z M81.1,267.4v3.2h-2.2v-3.2H81.1z M87.7,267.4v3.2h-5.1v-3.2H87.7z M91.3,267.4v3.2h-2.2v-3.2H91.3z M97.9,267.4v3.2h-5.2
		v-3.2H97.9z M119.2,289l-78.2,0l-28.9-3.6H148L119.2,289z M51.2,296.7h13.3c-0.4,3.4-3.2,6-6.7,6c-1.4,0-2.7-0.4-3.8-1.2
		c0,0,0,0,0,0C52.4,300.4,51.4,298.6,51.2,296.7z M58.5,311.6h2.2v3.1h-2.2V311.6z M67.3,311.6v3.1h-5.1v-3.1H67.3z M70.9,311.6v3.1
		h-2.2v-3.1H70.9z M77.5,311.6v3.1h-5.1v-3.1H77.5z M81.1,311.6v3.1h-2.2v-3.1H81.1z M87.7,311.6v3.1h-5.1v-3.1H87.7z M91.3,311.6
		v3.1h-2.2v-3.1H91.3z M97.9,311.6v3.1h-5.2v-3.1H97.9z M58.5,319.7h2.2v3.2h-2.2V319.7z M67.3,319.7v3.2h-5.1v-3.2H67.3z
		 M70.9,319.7v3.2h-2.2v-3.2H70.9z M77.5,319.7v3.2h-5.1v-3.2H77.5z M81.1,319.7v3.2h-2.2v-3.2H81.1z M87.7,319.7v3.2h-5.1v-3.2
		H87.7z M91.3,319.7v3.2h-2.2v-3.2H91.3z M97.9,319.7v3.2h-5.2v-3.2H97.9z M119.2,341.3l-78.2,0L12,337.7H148L119.2,341.3z
		 M51.2,348.9h13.3c-0.4,3.4-3.2,6-6.7,6c-1.4,0-2.7-0.4-3.8-1.2C52.4,352.6,51.4,350.9,51.2,348.9z M58.5,363.8h2.2v3.1h-2.2V363.8
		z M67.3,363.8v3.1h-5.1v-3.1H67.3z M70.9,363.8v3.1h-2.2v-3.1H70.9z M77.5,363.8v3.1h-5.1v-3.1H77.5z M81.1,363.8v3.1h-2.2v-3.1
		H81.1z M87.7,363.8v3.1h-5.1v-3.1H87.7z M91.3,363.8v3.1h-2.2v-3.1H91.3z M97.9,363.8v3.1h-5.2v-3.1H97.9z M58.5,372h2.2v3.2h-2.2
		V372z M67.3,372v3.2h-5.1V372H67.3z M70.9,372v3.2h-2.2V372H70.9z M77.5,372v3.2h-5.1V372H77.5z M81.1,372v3.2h-2.2V372H81.1z
		 M87.7,372v3.2h-5.1V372H87.7z M91.3,372v3.2h-2.2V372H91.3z M97.9,372v3.2h-5.2V372H97.9z M108.9,376.5v2.2H51.1v-2.2H108.9z
		 M105.2,380.2v5H54.8v-5H105.2z M108.9,380.2v5h-2.2v-5H108.9z M106.6,414.3v-16.4h2.2v16.4H106.6z M92.5,414.3v-16.4h12.7v16.4
		H92.5z M88.9,414.3v-16.4h2.2v16.4H88.9z M72.5,414.3v-16.4h15v16.4H72.5z M68.9,414.3v-16.4h2.2v16.4H68.9z M54.8,414.3v-16.4
		h12.7v16.4H54.8z M51.1,414.3v-16.4h2.2v16.4H51.1z M108.9,386.6v2.2H51.1v-2.2H108.9z M108.9,396.5H51.1v-2.2h57.8V396.5z
		 M67.5,390.2v2.7H54.8v-2.7H67.5z M71.1,390.2v2.7h-2.2v-2.7H71.1z M87.5,390.2v2.7h-15v-2.7H87.5z M91.1,390.2v2.7h-2.2v-2.7H91.1
		z M92.5,392.9v-2.7h12.7v2.7H92.5z M53.4,390.2v2.7h-2.2v-2.7H53.4z M106.6,392.9v-2.7h2.2v2.7H106.6z M53.4,385.2h-2.2v-5h2.2
		V385.2z M51.1,415.7h57.8v2.2H51.1V415.7z M108.9,421.6H51.1v-2.2h57.8V421.6z M101.5,375.1h-2.2V372h2.2V375.1z M108.9,370.5H51.1
		v-2.2h57.8V370.5z M101.5,366.9h-2.2v-3.1h2.2V366.9z M108.9,362.4H51.1v-2.2h57.8V362.4z M54.3,358.8v-3.2
		c1.1,0.5,2.3,0.8,3.5,0.8c3.3,0,6.1-2,7.4-4.8c1.3,2.8,4.1,4.8,7.4,4.8c3.3,0,6.1-2,7.4-4.8c1.3,2.8,4.1,4.8,7.4,4.8
		c3.3,0,6.1-2,7.4-4.8c1.3,2.8,4.1,4.8,7.4,4.8c1.6,0,3-0.5,4.3-1.3v3.7H54.3z M65.9,348.9h13.3c-0.4,3.4-3.2,6-6.7,6
		C69.1,354.9,66.3,352.3,65.9,348.9z M80.7,348.9h13.3c-0.4,3.4-3.2,6-6.7,6C83.9,354.9,81.1,352.3,80.7,348.9z M106.2,353.6
		c-1.2,0.9-2.6,1.3-4,1.3c-3.5,0-6.3-2.6-6.7-6h13.3C108.6,350.8,107.7,352.5,106.2,353.6z M41.5,347.5v-4.9H80l38.5,0v4.9H41.5z
		 M154,336.3H6l44.5-12h59L154,336.3z M101.5,322.9h-2.2v-3.2h2.2V322.9z M108.9,318.3H51.1V316h57.8V318.3z M101.5,314.6h-2.2v-3.1
		h2.2V314.6z M108.9,310.2H51.1v-2.2h57.8V310.2z M54.3,306.5v-3.2c1.1,0.5,2.3,0.8,3.5,0.8c3.3,0,6.1-2,7.4-4.8
		c1.3,2.8,4.1,4.8,7.4,4.8c3.3,0,6.1-2,7.4-4.8c1.3,2.8,4.1,4.8,7.4,4.8c3.3,0,6.1-2,7.4-4.8c1.3,2.8,4.1,4.8,7.4,4.8
		c1.6,0,3-0.5,4.3-1.3v3.7H54.3z M65.9,296.7h13.3c-0.4,3.4-3.2,6-6.7,6C69.2,302.7,66.3,300,65.9,296.7z M80.7,296.7h13.3
		c-0.4,3.4-3.2,6-6.7,6C83.9,302.7,81.1,300,80.7,296.7z M106.2,301.3c-1.2,0.9-2.6,1.3-4,1.3c-3.5,0-6.3-2.6-6.7-6h13.3
		C108.6,298.5,107.7,300.2,106.2,301.3z M41.5,295.3v-4.9H80l38.5,0v4.9H41.5z M154,284H6l44.5-12h59L154,284z M101.5,270.6h-2.2
		v-3.2h2.2V270.6z M108.9,266H51.1v-2.2h57.8V266z M101.5,262.4h-2.2v-3.1h2.2V262.4z M108.9,257.9H51.1v-2.2h57.8V257.9z
		 M54.3,254.2V251c1.1,0.5,2.3,0.8,3.5,0.8c3.3,0,6.1-2,7.4-4.8c1.3,2.8,4.1,4.8,7.4,4.8c3.3,0,6.1-2,7.4-4.8
		c1.3,2.8,4.1,4.8,7.4,4.8c3.3,0,6.1-2,7.4-4.8c1.3,2.8,4.1,4.8,7.4,4.8c1.5,0,3-0.5,4.3-1.3v3.7H54.3z M65.9,244.4h13.3
		c-0.4,3.4-3.2,6-6.7,6C69.1,250.4,66.3,247.8,65.9,244.4z M80.7,244.4h13.3c-0.4,3.4-3.2,6-6.7,6C83.9,250.4,81.1,247.8,80.7,244.4
		z M106.2,249.1c-1.2,0.9-2.6,1.3-4,1.3c-3.5,0-6.3-2.6-6.7-6h13.3C108.6,246.3,107.7,247.9,106.2,249.1z M41.5,243v-4.9H80l38.5,0
		v4.9H41.5z M154,231.8H6l44.5-12h59L154,231.8z M101.5,218.4h-2.2v-3.2h2.2V218.4z M108.9,213.8H51.1v-2.2h57.8V213.8z
		 M101.5,210.1h-2.2V207h2.2V210.1z M108.9,205.6H51.1v-2.2h57.8V205.6z M54.3,202v-3.2c1.1,0.5,2.3,0.8,3.5,0.8
		c3.3,0,6.1-2,7.4-4.8c1.3,2.8,4.1,4.8,7.4,4.8c3.3,0,6.1-2,7.4-4.8c1.3,2.8,4.1,4.8,7.4,4.8c3.3,0,6.1-2,7.4-4.8
		c1.3,2.8,4.1,4.8,7.4,4.8c1.6,0,3-0.5,4.3-1.3v3.7H54.3z M65.9,192.2h13.3c-0.4,3.4-3.2,6-6.7,6C69.2,198.1,66.3,195.5,65.9,192.2z
		 M80.7,192.2h13.3c-0.4,3.4-3.2,6-6.7,6C83.9,198.1,81.1,195.5,80.7,192.2z M106.2,196.8c-1.2,0.9-2.6,1.3-4,1.3
		c-3.5,0-6.3-2.6-6.7-6h13.3C108.6,194,107.7,195.7,106.2,196.8z M41.5,190.8v-4.9H80l38.5,0v4.9H41.5z"/>
</g>
</svg>
