<?xml version="1.0" encoding="utf-8"?>
<svg version="1.1" id="the-element-ika-model" xmlns="http://www.w3.org/2000/svg" xmlns:xlink="http://www.w3.org/1999/xlink" x="0px"
	 y="0px" viewBox="0 0 109 106" style="enable-background:new 0 0 109 106;" xml:space="preserve">
<style type="text/css">
	.svg__m__color{fill:#14195A;}
	.svg__pnk__color {fill: #e64673;}
	.svg__ong__color {fill: #f0785f;}
	.svg__grn__color {fill: #96d2cd;}
	.svg__mlgt__color {fill: #fff8ee;}
	.svg__blk__color {fill: #000000;}
	.svg__skin__color{fill:#f5afb4;}
	.svg__w__color{fill:#ffffff;}
</style>
<g>
	<path class="svg__mlgt__color usesvg_ika_model_body_color" d="M103.6,64.3c-0.9,0-1.6,0.2-2.2,0.6l-0.7-0.7c-6.9-7.2-17.4-9.8-17.4-9.8c-0.1-1.1-0.2-2.2-0.4-3.3
		c-0.6-5.6-1.7-10.6-3.2-15.1c6.1-1.9,11.2-9.9,11.2-9.9C76.5,6.5,55.3,0.9,54.5,0.7c-0.8,0.2-22,5.8-36.4,25.5
		c0,0,5.1,7.9,11.2,9.9c-1.4,4.5-2.5,9.6-3.2,15.1c-0.1,1.1-0.3,2.2-0.4,3.3c0,0-11.1,2.8-18,10.5c-0.7-0.4-1.5-0.7-2.4-0.7
		c-2.6,0-4.7,2.1-4.7,4.7s2.1,4.7,4.7,4.7c2.3,0,4.2-1.7,4.6-3.9c6-1.5,14.3-1.6,14.3-1.6c-2.1,19.7-2.4,20-11.3,23.7
		c0,0-1.9,1,0,2.6c1.9,1.7,10.4,0.5,14.7-2.3c-0.1,0.2-2.3,3.6-4.1,5.8c-1.4,1.6-0.9,2.7,0.3,3.1c1.1,0.3,8-1,12.6-6.4
		c-0.1,0.3-2,7.7-0.6,8.7c1.4,1,4.8-0.9,10.2-8c0,0-1.5,9.1,1.3,9.9c2.8,0.7,5.9-4.9,7.3-9.6c1.3,4.7,4.5,10.4,7.3,9.6
		c2.8-0.7,1.3-9.9,1.3-9.9c5.4,7,8.7,8.9,10.1,8c1.4-1-0.5-8.4-0.6-8.7c4.6,5.4,11.5,6.8,12.6,6.4c1.1-0.3,1.6-1.5,0.3-3.1
		c-1.8-2.2-4-5.6-4.1-5.8c4.4,2.8,12.8,3.9,14.7,2.3c1.8-1.7-0.1-2.7-0.1-2.7c-8.9-3.7-9.2-4-11.3-23.7c0,0,8.3,0.1,14.3,1.6
		c0,0,0,0.1,0,0.1c0.4,2.2,2.3,3.9,4.6,3.9c2.6,0,4.7-2.1,4.7-4.7C108.3,66.4,106.2,64.3,103.6,64.3z"/>

	<path class="svg__skin__color usesvg_ika_model_mouse" d="M62.5,70.3c0,0,0.6,3.3-4.8,3.3h-2.8h-2.8c-5.3,0-4.8-3.3-4.8-3.3c0-3.5,4.7-3.3,4.7-3.3h2.8h2.8
		C57.8,67,62.5,66.8,62.5,70.3z"/>
	
	<path class="svg__blk__color usesvg_ika_model_path" d="M103.6,63.6c-0.8,0-1.5,0.2-2.2,0.5c-6.2-6.7-15.3-9.5-17.5-10.1c-0.1-0.9-0.2-1.8-0.3-2.8
			c-0.6-5.1-1.6-10-3-14.6c6-2.3,10.7-9.6,10.9-9.9c0.2-0.2,0.1-0.6,0-0.8C77.1,6.1,55.9,0.3,54.7,0c0,0,0,0-0.1,0l0,0
			c0,0,0,0-0.1,0h-0.1h-0.1c0,0,0,0-0.1,0c0,0,0,0-0.1,0c-1,0.3-22.1,6.1-36.6,25.7c-0.2,0.2-0.2,0.5,0,0.8s4.9,7.6,10.9,9.9
			C27,41.1,26,46,25.4,51c-0.1,0.8-0.2,1.6-0.3,2.4v0.4C23,54.4,13.8,57.3,7.6,64c-0.7-0.3-1.4-0.5-2.2-0.5c-3,0-5.4,2.4-5.4,5.4
			s2.4,5.4,5.4,5.4c2.5,0,4.6-1.7,5.2-4c4.8-1.1,10.9-1.4,13-1.4c-2,18.7-2.3,18.8-10.8,22.4c-0.1,0.1-1.1,0.6-1.2,1.6
			c-0.1,0.7,0.3,1.5,1.1,2.2c0.8,0.6,2.2,0.9,4,0.9c2.8,0,6.3-0.7,9.1-1.9c-0.8,1.1-1.7,2.4-2.6,3.5c-1.1,1.3-1.1,2.2-0.9,2.8
			c0.2,0.7,0.7,1.2,1.5,1.4c0.2,0,0.4,0.1,0.7,0.1c2,0,6.9-1.4,10.9-4.9c-1.3,6-0.2,6.8,0.2,7c1.9,1.3,5.2-0.8,9.5-6.1
			c-0.3,3-0.3,7.5,2.1,8.1c3,0.8,5.9-3.9,7.4-8.1c1.4,3.9,3.9,8.2,6.7,8.2c0.2,0,0.5,0,0.7-0.1c2.4-0.6,2.4-5.1,2.1-8.1
			c4.4,5.3,7.6,7.4,9.5,6.1c0.4-0.3,1.5-1,0.2-7c4,3.5,8.9,4.9,10.9,4.9c0.3,0,0.5,0,0.7-0.1c0.8-0.2,1.3-0.7,1.5-1.4
			c0.2-0.6,0.2-1.5-0.9-2.8c-0.9-1-1.8-2.4-2.6-3.5c2.9,1.2,6.4,1.9,9.1,1.9c1.8,0,3.2-0.3,4-0.9c0.8-0.7,1.2-1.4,1.1-2.2
			c-0.1-1-1.1-1.6-1.3-1.6c-8.5-3.5-8.8-3.6-10.8-22.3c2.1,0.1,8.2,0.3,12.9,1.4c0.6,2.3,2.7,4,5.2,4c3,0,5.4-2.4,5.4-5.4
			C109,66,106.6,63.6,103.6,63.6z M100.2,64.8c-1.2,1-1.9,2.4-1.9,4c-5-1.1-11-1.3-12.9-1.4l-0.1-0.6c-0.3-3.3-0.7-7.1-1.2-11.5
			C86.9,56.3,94.8,59.1,100.2,64.8z M90.1,26.2c-1.1,1.5-5.1,7.1-9.9,9C77,25.1,71.8,15.9,65,8.7c-2.4-2.5-4.5-4.5-6.3-5.9
			C65.7,5.5,79.6,12.2,90.1,26.2z M18.9,26.2c10.5-14,24.4-20.7,31.4-23.4c-1.7,1.4-3.9,3.3-6.3,5.9C37.3,16,32,25.1,28.8,35.2
			C24,33.3,20,27.7,18.9,26.2z M24.9,55.4c-0.4,3.9-0.8,7.4-1.1,10.4l-0.2,1.6c-1.9,0-7.9,0.3-12.9,1.4c0-1.6-0.8-3-1.9-4
			C14.2,59.1,22.2,56.2,24.9,55.4z M5.4,72.9c-2.2,0-4-1.8-4-4s1.8-4,4-4c0.7,0,1.4,0.2,2,0.5l0,0c1.2,0.7,2,2,2,3.4
			c0,0.2,0,0.4-0.1,0.7C8.9,71.5,7.3,72.9,5.4,72.9z M95.8,92.4c0.1,0.1,0.5,0.3,0.5,0.5s-0.2,0.6-0.6,0.9
			c-1.5,1.3-9.4,0.5-13.9-2.3l0,0l0,0c-0.1,0-0.1-0.1-0.2-0.1l0,0h-0.1h-0.1c0,0,0,0-0.1,0s-0.1,0-0.2,0.1l0,0l0,0
			c-0.1,0-0.1,0.1-0.2,0.2l0,0c0,0.1-0.1,0.1-0.1,0.2c0,0,0,0,0,0.1v0.1v0.1v0.1c0,0.1,0,0.1,0.1,0.2l0,0c0,0,2.3,3.6,4.2,5.9
			c0.5,0.6,0.7,1.2,0.6,1.5s-0.4,0.4-0.6,0.5c-0.9,0.3-7.5-1.1-11.9-6.2c0,0,0-0.1-0.1-0.1c-0.3-0.3-0.7-0.3-1,0
			c-0.2,0.2-0.2,0.5-0.1,0.8l0,0c1.3,5.1,1.2,7.5,0.9,7.9c-0.8,0.5-3.6-0.5-9.2-7.8c-0.2-0.3-0.5-0.3-0.8-0.2
			c-0.3,0.1-0.5,0.4-0.4,0.8c0.6,3.4,0.7,8.7-0.8,9.1c-2.1,0.6-5.1-4.4-6.4-9.1c-0.1-0.3-0.4-0.5-0.7-0.5s-0.6,0.2-0.7,0.5
			c-1.4,4.8-4.3,9.7-6.4,9.1c-1.5-0.4-1.3-5.6-0.8-9.1c0.1-0.3-0.1-0.6-0.4-0.8c-0.3-0.1-0.6,0-0.8,0.2c-5.6,7.3-8.4,8.3-9.2,7.8
			c-0.3-0.3-0.4-2.8,0.9-7.9c0-0.1,0-0.2,0-0.2c0-0.4-0.3-0.7-0.7-0.7c-0.1,0-0.2,0-0.3,0.1l0,0c-0.1,0-0.1,0.1-0.2,0.2l0,0
			c-4.4,5.1-11,6.4-11.9,6.2c-0.2-0.1-0.5-0.2-0.6-0.5c-0.1-0.4,0.1-0.9,0.6-1.5c1.8-2.1,3.9-5.4,4.2-5.8l0,0l0,0
			c0-0.1,0.1-0.1,0.1-0.2l0,0c0-0.1,0-0.2,0-0.2l0,0c0-0.1,0-0.1-0.1-0.2l0,0l0,0c0,0,0-0.1-0.1-0.1c0,0,0,0-0.1,0
			c0,0-0.1,0-0.1-0.1c-0.1,0-0.1-0.1-0.2-0.1h-0.1h-0.1h-0.1c0,0-0.1,0-0.1,0.1c0,0,0,0-0.1,0c-4.4,2.8-12.4,3.6-13.9,2.3
			c-0.4-0.4-0.6-0.7-0.6-0.9c0-0.2,0.3-0.5,0.4-0.5c9.3-3.8,9.6-4.5,11.7-24.3l0.2-2.2c0.3-3.3,0.7-7.1,1.2-11.4l0.1-0.8
			c0.1-0.8,0.2-1.6,0.3-2.4c0.6-5.2,1.7-10.3,3.1-15C37,13.4,52,3.1,54.5,1.5C57,3.1,72,13.4,79.1,36.2l0,0l0,0l0,0
			c1.5,4.7,2.5,9.8,3.1,15c0.1,1.1,0.3,2.2,0.4,3.3c0.5,4.8,1,9,1.4,12.5l0.1,1.2C86.2,88,86.5,88.6,95.8,92.4z M103.6,72.9
			c-1.9,0-3.6-1.4-3.9-3.3c0-0.2-0.1-0.4-0.1-0.6c0-1.4,0.7-2.7,2-3.4l0,0c0.6-0.4,1.3-0.5,2-0.5c2.2,0,4,1.8,4,4
			C107.6,71.1,105.8,72.9,103.6,72.9z M62.1,67.7c-1.6-1.5-4.3-1.4-4.4-1.4H52c-0.1,0-2.8-0.1-4.4,1.4c-0.7,0.7-1,1.5-1.1,2.6
			c0,0.3-0.1,1.4,0.8,2.4c0.9,1.1,2.5,1.6,4.7,1.6h5.6c2.2,0,3.8-0.5,4.7-1.6c0.9-1,0.8-2.1,0.8-2.4C63.2,69.2,62.8,68.4,62.1,67.7z
			 M61.3,71.8c-0.6,0.7-1.9,1.1-3.6,1.1h-5.6c-1.7,0-3-0.4-3.6-1.1c-0.6-0.6-0.5-1.4-0.5-1.4v-0.1c0-0.7,0.2-1.2,0.6-1.6
			c1-1,2.9-1,3.3-1H52h5.7c0,0,2.2-0.1,3.4,1c0.4,0.4,0.6,0.9,0.6,1.6v0.1C61.8,70.4,61.9,71.2,61.3,71.8z 
			M58.9,69.6h-8.1c-0.4,0-0.7,0.3-0.7,0.7s0.3,0.7,0.7,0.7h8.1c0.4,0,0.7-0.3,0.7-0.7S59.3,69.6,58.9,69.6z 
			M38.5,38.9c0.1,0,0.2,0,0.4-0.1c2.1-1.3,5.4-2.5,9.6-1.2c0.4,0.1,0.8-0.1,0.9-0.5c0.1-0.4-0.1-0.8-0.5-0.9
			c-4.9-1.5-8.8,0.2-10.7,1.4c-0.3,0.2-0.4,0.6-0.2,1C38.1,38.8,38.3,38.9,38.5,38.9z M60.7,37.6c3.9-1.2,7.1-0.2,9.1,0.9c0.1,0.1,0.2,0.1,0.3,0.1c0.2,0,0.5-0.1,0.6-0.4c0.2-0.3,0.1-0.8-0.3-0.9
			c-2.2-1.2-5.8-2.4-10.1-1c-0.4,0.1-0.6,0.5-0.5,0.9C59.9,37.5,60.3,37.7,60.7,37.6z M47.5,61.6L47.5,61.6c0.5-0.1,0.9-0.1,1.3-0.2c0.4-0.1,0.6-0.4,0.6-0.8C49.3,60.2,49,60,48.6,60
			c-0.3,0.1-0.6,0.1-0.9,0.1c0.3-1.1,0.8-3.3,0.8-6.3c0-1.7-0.2-3.7-0.6-5.9c0.2,0.1,0.5,0.2,0.7,0.4c0.1,0.1,0.2,0.1,0.4,0.1
			s0.5-0.1,0.6-0.3c0.2-0.3,0.1-0.8-0.2-1c-0.4-0.2-0.9-0.5-1.3-0.7c-2.5-1.4-5.5-1.2-5.6-1.2c-4,0-6.8,1.9-6.9,1.9
			c-0.3,0.2-0.4,0.6-0.2,1c0.2,0.3,0.6,0.4,1,0.2c0,0,0.6-0.4,1.7-0.8c-0.3,1.1-0.7,3.4-0.8,6.1c0,2.1,0.2,4.4,0.9,6.5
			c-0.6-0.1-1-0.1-1.1-0.1c-0.4-0.1-0.7,0.2-0.8,0.6c-0.1,0.4,0.2,0.7,0.6,0.8c0,0,0.6,0.1,1.5,0.2l0,0l0,0c1.1,0.1,2.8,0.3,4.7,0.3
			C44.4,61.9,45.9,61.8,47.5,61.6L47.5,61.6z M67.4,45.2c-0.1,0-3.2-0.2-5.6,1.2c-0.5,0.2-0.9,0.4-1.3,0.7c-0.3,0.2-0.4,0.6-0.2,1c0.1,0.2,0.4,0.3,0.6,0.3
			c0.1,0,0.2,0,0.4-0.1s0.5-0.3,0.7-0.4c-0.4,2.2-0.6,4.2-0.6,5.9c0,3.1,0.5,5.3,0.8,6.3c-0.3,0-0.6-0.1-0.9-0.1
			c-0.4-0.1-0.7,0.2-0.8,0.6c-0.1,0.4,0.2,0.7,0.6,0.8c0.4,0.1,0.9,0.1,1.3,0.2l0,0l0,0c1.5,0.2,3.1,0.3,4.4,0.3
			c2,0,3.7-0.1,4.7-0.3l0,0l0,0c0.9-0.1,1.5-0.2,1.5-0.2c0.4-0.1,0.6-0.4,0.6-0.8c-0.1-0.4-0.4-0.6-0.8-0.6c0,0-0.4,0.1-1.1,0.1
			c0.7-2.2,1-4.5,0.9-6.5c0-2.7-0.5-5.1-0.8-6.1c1,0.4,1.7,0.8,1.7,0.8c0.3,0.2,0.8,0.1,1-0.2s0.1-0.8-0.2-1
			C74.1,47.1,71.4,45.3,67.4,45.2z"/>

	<path class="svg__w__color usesvg_ika_model_shinging_left" d="M47,53.3c-0.1,0-3.3-0.6-3.8-4.9c0-0.2-0.2-0.3-0.3-0.3c-0.2,0-0.3,0.1-0.3,0.3s-0.4,4.3-3.9,4.7
		c-0.2,0-0.3,0.1-0.3,0.3s0.1,0.3,0.3,0.4c0.2,0,3.8,1,3.9,4.8c0,0.2,0.2,0.3,0.3,0.3l0,0c0.2,0,0.3-0.1,0.3-0.3s0.2-4.3,3.8-4.7
		c0.2,0,0.3-0.2,0.3-0.3C47.2,53.5,47.1,53.4,47,53.3z"/>

	<path class="svg__w__color usesvg_ika_model_shinging_right" d="M62.8,53.3c0.1,0,3.3-0.6,3.8-4.9c0-0.2,0.2-0.3,0.3-0.3c0.2,0,0.3,0.1,0.3,0.3s0.4,4.3,3.9,4.7
		c0.2,0,0.3,0.1,0.3,0.3s-0.1,0.3-0.3,0.4c-0.2,0-3.8,1-3.9,4.8c0,0.2-0.2,0.3-0.3,0.3l0,0c-0.2,0-0.3-0.1-0.3-0.3s-0.2-4.3-3.8-4.7
		c-0.2,0-0.3-0.2-0.3-0.3S62.6,53.4,62.8,53.3z"/>	
</g>
</svg>
