<?xml version="1.0" encoding="utf-8"?>
<svg version="1.1" id="the-curtain-left-1" xmlns="http://www.w3.org/2000/svg" xmlns:xlink="http://www.w3.org/1999/xlink" x="0px"
	 y="0px" viewBox="0 0 581 450" style="enable-background:new 0 0 581 450;" xml:space="preserve">
<style type="text/css">
	.st0{fill:#E64673;}
</style>
<path class="st0" d="M292.4,277.3L292.4,277.3l4.2-39.8c0,0-15.9,0-20,0.6v-7.5l0,0l-7.4,0.6v7.1c0,0-15.8,0.8-19.9,1.4v-7h-0.1
	l-6.3,1v6.9c-11.3,1.1-11.2,1.3-15.6,1.6v-6.5l-6.4,1.1v6l-9.1,1.1c0,0.1-0.1,0.2-0.1,0.3c-0.7,1.8-1.6,3.9-2.6,6.5
	c-0.2,0.5-0.4,1.1-0.7,1.6c0,0-1,39.6-2.6,80.5c0,0.4-0.1,0.8-0.1,1.1c-3.8,42-2.7,83.4-2.7,83.4c1.2,0.4,2.4,0.8,3.6,1.2l0,0l0,0
	c6.4,1.9,13.7,3.2,21.2,4.1c17.2,2.4,40.5,1.1,65.9-1.9C293.8,420.8,290,300.4,292.4,277.3z"/>
</svg>
