<?xml version="1.0" encoding="utf-8"?>
<svg version="1.1" id="the-element-bird-1" xmlns="http://www.w3.org/2000/svg" xmlns:xlink="http://www.w3.org/1999/xlink" x="0px"
	 y="0px" viewBox="0 0 100 91" style="enable-background:new 0 0 100 91;" xml:space="preserve">
<style type="text/css">
	.st0{fill:#FFF8EE;}
	.st1{fill:#EE795E;}
	.st2{fill:#E84572;}
	.st3{fill:#121659;}
	.st4{fill:#FFFFFF;}
	.st5{fill:#97D2CE;}
	.st6{fill:#231815;}
</style>
<g>
	<path class="st0" d="M78.3,9.4c0,0,5.5-2.5,9.6-2.5s9.1,3.4,7.4,10.7c0,0-7.2-8.4-17-0.2V9.4z"/>
	<path class="st0" d="M78.3,21.6v6.9c0,0,13.7,4.6,16.3-6.1C94.6,22.4,83.5,26.9,78.3,21.6z"/>
	<circle class="st1" cx="94.9" cy="19.8" r="4.4"/>
	<path class="st2" d="M66.7,44.9c0,0,8.3,1.2,8.3,9.5S75,66,75,66H32.2L7.9,5.5c0,0,27-3.6,41,39.4h9.9"/>
	<path class="st0" d="M51.1,65.8L38.8,81.8c0,0,5.1,3.2,3.9,8.5c0,0-11.1-7.1-12.1-7.7c2.4-3.5,5.3-2.7,5.3-2.7L47,65.8"/>
	<path class="st0" d="M64.3,65.8L52,81.8c0,0,5.1,3.2,3.9,8.5c0,0-11.1-7.1-12.1-7.7c2.4-3.5,5.3-2.7,5.3-2.7l11.2-14.1"/>
	<path class="st2" d="M78.3,28.5V9.4c0,0-2.5-8.7-14.1-8.7s-17.8,8-17.7,18.7c0.1,11.7,10.8,15.8,18,15.9
		C74.8,35.6,78.3,28.5,78.3,28.5z"/>
	<polyline class="st3" points="66.7,35.3 66.7,44.9 58.8,44.9 58.8,34.4 	"/>
	<path class="st3" d="M24.9,47.9H0.7c0,0,8.7,18.1,31.5,18.1"/>
	<path class="st4" d="M67.2,10.5c-1.3-0.6-2.7-1-4.2-1c-5.1,0-9.3,4.2-9.3,9.3c0,5.1,4.2,9.3,9.3,9.3c5.1,0,9.3-4.2,9.3-9.3
		C72.3,15.2,70.2,12.1,67.2,10.5z"/>
	<path class="st5" d="M63,13.3c3,0,5.5,2.5,5.5,5.5c0,3.1-2.5,5.5-5.5,5.5c-3.1,0-5.5-2.5-5.5-5.5C57.4,15.8,59.9,13.3,63,13.3z"/>
	<g>
		<path class="st6" d="M63,16.8c-1.1,0-2,0.9-2,2c0,1.1,0.9,2,2,2c1.1,0,2-0.9,2-2C65,17.7,64.1,16.8,63,16.8z"/>
		<path class="st6" d="M68.1,10.3l1-1.6c0.2-0.3,0.1-0.8-0.3-1c-0.3-0.2-0.8-0.1-1,0.3l-1,1.7c-1-0.4-2.1-0.7-3.2-0.8V7.1
			c0-0.4-0.3-0.7-0.7-0.7s-0.7,0.3-0.7,0.7v1.8c-1,0.1-2,0.3-2.9,0.6L58.5,8c-0.2-0.3-0.6-0.5-1-0.3c-0.3,0.2-0.5,0.6-0.3,1l0.8,1.4
			c-3.1,1.7-5.2,5-5.2,8.8c0,5.5,4.5,10,10,10c5.5,0,10-4.5,10-10C73,15.3,71.1,12.1,68.1,10.3z M63,27.5c-4.8,0-8.6-3.9-8.6-8.6
			c0-4.8,3.9-8.6,8.6-8.6c1.4,0,2.7,0.3,3.9,0.9c0,0,0,0,0,0c2.9,1.5,4.7,4.4,4.7,7.7C71.6,23.6,67.7,27.5,63,27.5z"/>
		<path class="st6" d="M63,12.6c-3.4,0-6.2,2.8-6.2,6.2s2.8,6.2,6.2,6.2c3.4,0,6.2-2.8,6.2-6.2S66.4,12.6,63,12.6z M63,23.7
			c-2.7,0-4.8-2.2-4.8-4.8S60.3,14,63,14c2.7,0,4.8,2.2,4.8,4.8S65.6,23.7,63,23.7z"/>
		<path class="st6" d="M96.3,14.9c0-2.7-0.9-4.5-1.8-5.6c-1.6-1.9-4-3.1-6.6-3.1c-3.4,0-7.6,1.6-9.2,2.3c-0.4-0.9-1.1-2.4-2.6-3.9
			C74.1,2.5,70.5,0,64.2,0c-5.4,0-9.9,1.7-13.2,5c-3.5,3.5-5.3,8.5-5.2,14.4c0.1,9.2,6.3,13.7,12.2,15.5v9.2h-8.7
			C35.3,1.6,8.1,4.7,7.8,4.8c-0.2,0-0.4,0.2-0.5,0.3c-0.1,0.2-0.1,0.4,0,0.6l4.3,10.8c0,0,0,0,0,0L15,25c0,0,0,0,0,0l3.4,8.5
			c0,0,0,0,0,0l3.4,8.5c0,0,0,0,0,0l2.1,5.1H0.7c-0.2,0-0.5,0.1-0.6,0.3C0,47.7,0,48,0.1,48.2c0.1,0.2,9.2,18.5,32.1,18.5h13.2
			l-9.9,12.4c-1-0.1-3.5,0-5.5,3.1c-0.1,0.2-0.1,0.4-0.1,0.5c0,0.2,0.1,0.3,0.3,0.5c1,0.6,12.1,7.7,12.1,7.7
			c0.1,0.1,0.2,0.1,0.4,0.1c0.1,0,0.2,0,0.3-0.1c0.2-0.1,0.4-0.3,0.4-0.5c1-4.6-2.2-7.7-3.6-8.8l11.5-14.9h7.4l-9.9,12.4
			c-1-0.1-3.5,0-5.5,3.1c-0.1,0.2-0.1,0.4-0.1,0.5c0,0.2,0.1,0.3,0.3,0.5c1,0.6,12.1,7.7,12.1,7.7c0.1,0.1,0.2,0.1,0.4,0.1
			c0.1,0,0.2,0,0.3-0.1c0.2-0.1,0.4-0.3,0.4-0.5c1-4.6-2.2-7.7-3.6-8.8l11.5-14.9H75c0.4,0,0.7-0.3,0.7-0.7V54.4
			c0-7.4-6.3-9.6-8.3-10.1v-8.4c7.1-0.8,10.3-5.1,11.2-6.6c1,0.3,3.4,0.9,6,0.9c2,0,4.3-0.3,6.2-1.4c1.6-0.9,2.8-2.2,3.6-3.9
			c0.2,0,0.3,0,0.5,0c2.8,0,5.1-2.3,5.1-5.1C100,17.5,98.4,15.5,96.3,14.9z M93.4,10.1c1,1.2,1.4,2.7,1.5,4.5c0,0,0,0-0.1,0
			c-0.6,0-1.1,0.1-1.7,0.3c-1.5-1-3.7-1.9-6.3-1.9c-2.3,0-5,0.7-7.9,2.8V9.8c1.3-0.6,5.6-2.3,8.9-2.3C90.1,7.6,92.2,8.5,93.4,10.1z
			 M79,17.7c5.5-4.4,10-3.5,12.8-2c-1.2,0.9-2.1,2.4-2.1,4.1c0,1.1,0.4,2.2,1,3c-3.5,0.8-8.6,1.4-11.7-1.5V17.7z M1.9,48.6h22.6
			l4.2,10.6c0,0,0,0,0,0l2.5,6.1C12.9,64.8,4.1,52.3,1.9,48.6z M38.2,81.3c-0.1,0.2-0.2,0.4-0.1,0.6s0.2,0.4,0.3,0.5
			c0.2,0.1,4,2.6,3.7,6.8c-2.3-1.5-8.5-5.4-10.6-6.7c1.9-2.3,4-1.9,4.1-1.8c0.3,0.1,0.6,0,0.7-0.2l10.8-13.6h2.3L38.2,81.3z
			 M51.5,81.3c-0.1,0.2-0.2,0.4-0.1,0.6s0.2,0.4,0.3,0.5c0.2,0.1,4,2.6,3.7,6.8c-2.3-1.5-8.5-5.4-10.6-6.7c1.9-2.3,4-1.9,4.1-1.8
			c0.3,0.1,0.6,0,0.7-0.2l10.8-13.6h2.3L51.5,81.3z M74.3,54.4v11H32.7l-2.3-5.7h8.5c0.4,0,0.7-0.3,0.7-0.7c0-0.4-0.3-0.7-0.7-0.7
			h-9l-2.9-7.1h8.5c0.4,0,0.7-0.3,0.7-0.7s-0.3-0.7-0.7-0.7h-9l-0.8-2c0,0,0,0,0,0l-2.1-5.1H32c0.4,0,0.7-0.3,0.7-0.7
			s-0.3-0.7-0.7-0.7h-9L20.1,34h8.5c0.4,0,0.7-0.3,0.7-0.7s-0.3-0.7-0.7-0.7h-9l-2.9-7.1h8.5c0.4,0,0.7-0.3,0.7-0.7S25.5,24,25.1,24
			h-9l-2.9-7.1h8.5c0.4,0,0.7-0.3,0.7-0.7s-0.3-0.7-0.7-0.7h-9L8.9,6.1c2.1-0.1,7.6,0.2,14,3.6C36.7,17,44.3,33,48.3,45.1
			c0.1,0.3,0.4,0.5,0.7,0.5h9.9h7.9C67.3,45.7,74.3,47,74.3,54.4z M66,44.2h-6.5v-8.8c1.8,0.5,3.6,0.7,5.1,0.7c0.2,0,0.3,0,0.5,0
			c0.3,0,0.7,0,1,0V44.2z M64.6,34.6c-1.6,0-3.5-0.3-5.5-0.9c0,0,0,0,0,0c-5.6-1.6-11.7-5.7-11.8-14.4C47.2,13.8,48.9,9.2,52.1,6
			c3-3,7.2-4.6,12.2-4.6c10.4,0,13.1,7.1,13.4,8.1v7.9v4.3v6.7C77.1,29.3,73.6,34.8,64.6,34.6z M90.1,27.5
			c-3.9,2.2-9.5,0.9-11.1,0.4v-4.8c3.9,2.7,9.5,1.8,12.9,0.9c0.3,0.2,0.7,0.4,1.1,0.6C92.3,25.8,91.4,26.8,90.1,27.5z M94.9,23.5
			c-2.1,0-3.7-1.7-3.7-3.7s1.7-3.7,3.7-3.7s3.7,1.7,3.7,3.7S96.9,23.5,94.9,23.5z"/>
	</g>
</g>
</svg>
