<?xml version="1.0" encoding="utf-8"?>
<svg version="1.1" id="the-element-couple-female-1" xmlns="http://www.w3.org/2000/svg" xmlns:xlink="http://www.w3.org/1999/xlink" x="0px"
	 y="0px" viewBox="0 0 308 240" style="enable-background:new 0 0 308 240;" xml:space="preserve">
<style type="text/css">
	.st0{fill:#E84572;}
	.st1{fill:#231815;}
	.st2{fill:#FFFFFF;}
	.st3{fill:#F4AEB6;}
	.st4{fill:#FFF8EE;}
	.st5{fill:#97D2CE;}
	.st6{clip-path:url(#SVGID_00000161602157697394346040000016765585344406567809_);}
	.st7{fill:#EE795E;}
</style>
<g>
	<path class="st0" d="M190.8,174.4c0,0-2.6-10.9,1.6-13.3c4.2-2.4,8.3-4.6,8.3-2.4s-4.3,24.6-4.3,24.6l-5,3.4l-1.9-4.1L190.8,174.4z
		"/>
	<g>
		<path class="st0" d="M242.8,151.6h4.8c0,0,19.6,0.8,19.6,18.8s0,68.9,0,68.9h-36.7h-36.7c0,0,0-50.8,0-68.9s19.6-18.8,19.6-18.8
			h4.8"/>
		<path class="st1" d="M267.1,240h-73.4c-0.4,0-0.8-0.4-0.8-0.8v-68.9c0-18.6,20.1-19.6,20.4-19.6h4.8c0.4,0,0.8,0.4,0.8,0.8
			s-0.4,0.8-0.8,0.8h-4.8c0,0-4.8,0.2-9.5,2.6c-6.2,3.1-9.3,8.3-9.3,15.4v68.1h71.8v-68.1c0-7.1-3.1-12.3-9.3-15.4
			c-4.7-2.4-9.5-2.6-9.5-2.6h-4.7c-0.4,0-0.8-0.4-0.8-0.8s0.4-0.8,0.8-0.8h4.8c0.2,0,20.4,1,20.4,19.6v68.9
			C267.9,239.6,267.6,240,267.1,240z"/>
	</g>
	<path class="st2" d="M242.7,151.9c0,0,0,5.2-6.3,5.2c-6.3,0-6.1-5.6-6.1-5.6v0.3c0,0,0,5.2-6.3,5.2c-6.3,0-6.1-5.6-6.1-5.6
		L242.7,151.9z"/>
	<path class="st3" d="M219.2,165.1c0,0-2.6-4.6-4.6-0.2c-2,4.4-2,4.4-2,4.4s-2.6,2.1,1.4,2.1s10.2,0,10.2,0s3.5,0.6,0.9-1.5
		C222.4,167.8,219.2,165.1,219.2,165.1z"/>
	<g>
		<rect x="218.1" y="143.4" class="st3" width="24.7" height="8.2"/>
		<path class="st1" d="M242.8,152.4h-24.7c-0.4,0-0.8-0.4-0.8-0.8v-8.2c0-0.4,0.4-0.8,0.8-0.8h24.7c0.4,0,0.8,0.4,0.8,0.8v8.2
			C243.6,152,243.2,152.4,242.8,152.4z M218.9,150.8H242v-6.6h-23.1V150.8z"/>
	</g>
	<g>
		<path class="st3" d="M230.4,36.1c0,0,44.7-3.8,38.4,61.8c0,0-2.4,21.5-26,45.5h-4.5h-7.9H218c-23.7-24-26-45.5-26-45.5
			C185.7,32.3,230.4,36.1,230.4,36.1"/>
		<path class="st1" d="M242.8,144.2H218c-0.2,0-0.4-0.1-0.6-0.2c-12.3-12.5-18.8-24.3-22.1-32c-3.6-8.4-4.2-13.8-4.2-14
			c-2.3-24,1.9-41.5,12.4-52.2c11.2-11.4,25.6-10.6,26.8-10.5c1.3-0.1,15.6-0.9,26.8,10.5c10.5,10.6,14.7,28.2,12.4,52.2
			c0,0.2-2.7,22.1-26.3,46C243.2,144.1,243,144.2,242.8,144.2z M218.3,142.6h24.1c23-23.4,25.6-44.6,25.6-44.8
			c2.2-23.5-1.8-40.6-12-50.9c-11-11.1-25.5-10-25.6-10c0,0-0.1,0-0.1,0c-0.1,0-14.6-1.1-25.6,10c-10.2,10.3-14.2,27.4-12,50.9
			C192.8,98,195.4,119.2,218.3,142.6z"/>
	</g>
	<path class="st1" d="M271.3,140.1c-0.3,0-0.5-0.1-0.7-0.3c-0.3-0.4-0.2-0.9,0.2-1.1c4.4-3.1,2.8-6.5,2.8-6.5
		c-0.2-0.4,0-0.9,0.4-1.1c0.4-0.2,0.9,0,1.1,0.4c0,0,2.1,4.6-3.3,8.5C271.6,140.1,271.5,140.1,271.3,140.1z"/>
	<path class="st1" d="M275.8,142c-0.3,0-0.5-0.1-0.7-0.3c-0.3-0.4-0.2-0.9,0.2-1.1c4.3-3.1,2.9-6.4,2.8-6.5c-0.2-0.4,0-0.9,0.4-1.1
		c0.4-0.2,0.9,0,1.1,0.4c0,0,2.1,4.6-3.3,8.5C276.2,141.9,276,142,275.8,142z"/>
	<path class="st1" d="M188.4,139.6c-0.1,0-0.2,0-0.3,0c0,0-4.8-1.7-3.7-8.3c0.1-0.4,0.5-0.7,0.9-0.7c0.4,0.1,0.7,0.5,0.7,0.9
		c-0.8,5.2,2.5,6.5,2.7,6.6c0.4,0.1,0.6,0.6,0.5,1C189.1,139.4,188.8,139.6,188.4,139.6z"/>
	<path class="st1" d="M183.9,141.5c-0.1,0-0.2,0-0.3,0c0,0-4.8-1.7-3.7-8.3c0.1-0.4,0.5-0.7,0.9-0.7c0.4,0.1,0.7,0.5,0.7,0.9
		c-0.8,5.2,2.5,6.5,2.7,6.6c0.4,0.1,0.6,0.6,0.5,1C184.6,141.3,184.2,141.5,183.9,141.5z"/>
	<path class="st0" d="M230.4,120.4h15.2c0,0-3.5,5.3-15.2,5.3s-15.2-5.3-15.2-5.3H230.4L230.4,120.4z"/>
	<path class="st0" d="M245.6,120.4h-15.2h0h-15.2c0,0,6.7-5.8,9.8-6.1c3.1-0.3,5.4,2.7,5.4,2.7s2.3-3,5.4-2.7
		C238.9,114.6,245.6,120.4,245.6,120.4z"/>
	<path class="st4" d="M242.5,91.3c0,2.5,2,4.5,4.5,4.5c2.5,0,4.5-2,4.5-4.5c0-2.5-2-4.5-4.5-4.5C244.5,86.8,242.5,88.8,242.5,91.3z
		 M247,100.3c-5,0-9-4-9-9c0-5,4-9,9-9c2.6,0,4.9,1.1,6.5,2.8c1.6,1.6,2.5,3.8,2.5,6.2C256,96.3,252,100.3,247,100.3z"/>
	<path class="st5" d="M242.5,91.3c0-2.5,2-4.5,4.5-4.5c2.5,0,4.5,2,4.5,4.5c0,2.5-2,4.5-4.5,4.5C244.5,95.8,242.5,93.8,242.5,91.3z
		 M248.5,91.3c0-0.9-0.7-1.5-1.5-1.5s-1.5,0.7-1.5,1.5s0.7,1.5,1.5,1.5S248.5,92.2,248.5,91.3z"/>
	<path class="st1" d="M247,89.8c0.9,0,1.5,0.7,1.5,1.5s-0.7,1.5-1.5,1.5s-1.5-0.7-1.5-1.5S246.1,89.8,247,89.8z"/>
	<path class="st1" d="M212.2,91.3c0-0.9,0.7-1.5,1.5-1.5c0.9,0,1.5,0.7,1.5,1.5s-0.7,1.5-1.5,1.5C212.9,92.9,212.2,92.2,212.2,91.3z
		"/>
	<path class="st4" d="M213.7,95.8c2.5,0,4.5-2,4.5-4.5c0-2.5-2-4.5-4.5-4.5c-2.5,0-4.5,2-4.5,4.5C209.2,93.8,211.2,95.8,213.7,95.8z
		 M213.7,100.3c-5,0-9-4-9-9c0-2.4,1-4.6,2.5-6.2c1.6-1.7,3.9-2.8,6.5-2.8c5,0,9,4,9,9C222.7,96.3,218.7,100.3,213.7,100.3z"/>
	<path class="st5" d="M209.2,91.3c0-2.5,2-4.5,4.5-4.5c2.5,0,4.5,2,4.5,4.5c0,2.5-2,4.5-4.5,4.5C211.2,95.8,209.2,93.8,209.2,91.3z
		 M215.3,91.3c0-0.9-0.7-1.5-1.5-1.5c-0.9,0-1.5,0.7-1.5,1.5s0.7,1.5,1.5,1.5C214.6,92.9,215.3,92.2,215.3,91.3z"/>
	<path class="st1" d="M213.7,101.1c-5.4,0-9.8-4.4-9.8-9.8c0-2.5,1-5,2.7-6.8c1.8-1.9,4.4-3,7.1-3c5.4,0,9.8,4.4,9.8,9.8
		C223.5,96.7,219.1,101.1,213.7,101.1z M213.7,83.1c-2.2,0-4.4,0.9-5.9,2.5c-1.5,1.5-2.3,3.5-2.3,5.7c0,4.5,3.7,8.2,8.2,8.2
		c4.5,0,8.2-3.7,8.2-8.2C221.9,86.8,218.2,83.1,213.7,83.1z"/>
	<path class="st1" d="M213.7,96.6c-2.9,0-5.3-2.4-5.3-5.3c0-2.9,2.4-5.3,5.3-5.3c2.9,0,5.3,2.4,5.3,5.3
		C219,94.3,216.6,96.6,213.7,96.6z M213.7,87.6c-2,0-3.7,1.7-3.7,3.7c0,2,1.7,3.7,3.7,3.7c2,0,3.7-1.7,3.7-3.7
		C217.4,89.3,215.7,87.6,213.7,87.6z"/>
	<path class="st1" d="M211,83.3c-0.3,0-0.6-0.2-0.8-0.5l-1.1-3.3c-0.1-0.4,0.1-0.9,0.5-1c0.4-0.1,0.9,0.1,1,0.5l1.1,3.3
		c0.1,0.4-0.1,0.9-0.5,1C211.2,83.3,211.1,83.3,211,83.3z"/>
	<path class="st1" d="M207.2,85.9c-0.2,0-0.5-0.1-0.6-0.3L204,83c-0.3-0.3-0.3-0.8,0-1.1c0.3-0.3,0.8-0.3,1.1,0l2.7,2.6
		c0.1,0.1,0.1,0.1,0.2,0.2c0.2,0.4,0.1,0.9-0.3,1.1C207.5,85.9,207.3,85.9,207.2,85.9z"/>
	<path class="st1" d="M217.1,83.7c-0.1,0-0.2,0-0.3,0c-0.4-0.1-0.6-0.6-0.5-1l1.1-3.3c0.1-0.4,0.6-0.6,1-0.5c0.4,0.1,0.6,0.6,0.5,1
		l-1.1,3.3C217.8,83.5,217.5,83.7,217.1,83.7z"/>
	<path class="st1" d="M220.9,86.3c-0.2,0-0.4-0.1-0.6-0.2c-0.3-0.3-0.3-0.8,0-1.1l2.7-2.7c0.3-0.3,0.8-0.3,1.1,0
		c0.3,0.3,0.3,0.8,0,1.1l-2.7,2.7C221.3,86.2,221.1,86.3,220.9,86.3z"/>
	<path class="st1" d="M247,101.1c-5.4,0-9.8-4.4-9.8-9.8c0-5.4,4.4-9.8,9.8-9.8c2.7,0,5.2,1.1,7.1,3c1.8,1.8,2.7,4.2,2.7,6.8
		C256.8,96.7,252.4,101.1,247,101.1z M247,83.1c-4.5,0-8.2,3.7-8.2,8.2c0,4.5,3.7,8.2,8.2,8.2c4.5,0,8.2-3.7,8.2-8.2
		c0-2.1-0.8-4.1-2.3-5.7C251.3,84,249.2,83.1,247,83.1z"/>
	<path class="st1" d="M247,96.6c-2.9,0-5.3-2.4-5.3-5.3c0-2.9,2.4-5.3,5.3-5.3c2.9,0,5.3,2.4,5.3,5.3
		C252.3,94.3,249.9,96.6,247,96.6z M247,87.6c-2,0-3.7,1.7-3.7,3.7c0,2,1.7,3.7,3.7,3.7c2,0,3.7-1.7,3.7-3.7
		C250.7,89.3,249,87.6,247,87.6z"/>
	<path class="st1" d="M249.7,83.3c-0.1,0-0.2,0-0.3,0c-0.4-0.1-0.6-0.6-0.5-1l1.1-3.3c0.1-0.4,0.6-0.6,1-0.5c0.4,0.1,0.6,0.6,0.5,1
		l-1.1,3.3C250.4,83.1,250,83.3,249.7,83.3z"/>
	<path class="st1" d="M253.5,85.9c-0.2,0-0.4-0.1-0.6-0.2c-0.3-0.3-0.3-0.8,0-1.1l0,0l2.7-2.7c0.3-0.3,0.8-0.3,1.1,0
		c0.3,0.3,0.3,0.8,0,1.1l-2.7,2.6C253.9,85.8,253.7,85.9,253.5,85.9z"/>
	<path class="st1" d="M243.6,83.7c-0.3,0-0.6-0.2-0.8-0.5l-1.1-3.3c-0.1-0.4,0.1-0.9,0.5-1c0.4-0.1,0.9,0.1,1,0.5l1.1,3.3
		c0.1,0.4-0.1,0.9-0.5,1C243.8,83.7,243.7,83.7,243.6,83.7z"/>
	<path class="st1" d="M239.8,86.3c-0.2,0-0.4-0.1-0.6-0.2l-2.7-2.7c-0.3-0.3-0.3-0.8,0-1.1c0.3-0.3,0.8-0.3,1.1,0l2.7,2.7
		c0.3,0.3,0.3,0.8,0,1.1C240.2,86.2,240,86.3,239.8,86.3z"/>
	<path class="st1" d="M245.6,121.2h-30.4c-0.3,0-0.6-0.2-0.8-0.5c-0.1-0.3,0-0.7,0.2-0.9c0.7-0.6,6.9-5.9,10.2-6.2
		c2.5-0.2,4.5,1.3,5.5,2.3c1-0.9,3-2.5,5.5-2.3c3.3,0.3,9.5,5.6,10.2,6.2c0.3,0.2,0.3,0.6,0.2,0.9
		C246.2,121,245.9,121.2,245.6,121.2z M217.4,119.6h25.9c-2.3-1.8-5.8-4.3-7.6-4.5c-2.6-0.2-4.7,2.3-4.7,2.4
		c-0.2,0.2-0.4,0.3-0.6,0.3l0,0c-0.2,0-0.5-0.1-0.6-0.3c0,0-2.1-2.6-4.7-2.4C223.2,115.3,219.8,117.8,217.4,119.6z"/>
	<path class="st1" d="M230.4,126.5c-12,0-15.7-5.5-15.9-5.7c-0.2-0.4-0.1-0.9,0.2-1.1c0.4-0.2,0.9-0.1,1.1,0.2c0,0,3.5,5,14.5,5
		s14.5-4.9,14.5-5c0.2-0.4,0.7-0.5,1.1-0.2c0.4,0.2,0.5,0.7,0.2,1.1C246.1,121.1,242.4,126.5,230.4,126.5z"/>
	<path class="st1" d="M249.1,123.9c-0.2,0-0.4-0.1-0.6-0.3c-0.3-0.3-0.3-0.8,0-1.1c0.6-0.6,0.9-1.2,0.8-1.9
		c-0.1-0.9-0.8-1.7-1.1-1.9c-0.4-0.2-0.5-0.7-0.3-1.1c0.2-0.4,0.7-0.5,1.1-0.3c0.7,0.4,1.8,1.6,1.9,3.1c0.1,0.8-0.1,2.1-1.3,3.2
		C249.5,123.8,249.3,123.9,249.1,123.9z"/>
	<polygon class="st2" points="253,239.2 205.4,239.2 205.4,232.7 206.9,229 206.9,181.6 205.4,177.8 205.4,171.4 253,171.4 
		253,177.8 251.5,181.6 251.5,229 253,232.7 	"/>
	<path class="st1" d="M253.8,240h-49.2v-7.4l1.5-3.7v-47.2l-1.5-3.7v-7.4h49.2v7.4l-1.5,3.7v47.2l1.5,3.7V240z M206.2,238.4h46v-5.5
		l-1.5-3.7v-47.8l1.5-3.7v-5.5h-46v5.5l1.5,3.7v47.8l-1.5,3.7V238.4z"/>
	<rect x="205.4" y="177" class="st1" width="47.6" height="1.6"/>
	<rect x="205.4" y="231.9" class="st1" width="47.6" height="1.6"/>
	<g>
		<path class="st5" d="M209.7,225.5c0,0,2.9-3.8,7.9-3.8c5.1,0,8.9,3.2,8.9,3.2l4.4-2.1v6.4l-4.4-2.1c0,0-3.7,2.1-8.7,2.1
			S209.7,225.5,209.7,225.5z"/>
		<path class="st1" d="M231,229.9c-0.1,0-0.2,0-0.3-0.1l-4.1-1.9c-1.1,0.5-4.4,2-8.8,2c-5.4,0-8.6-3.8-8.7-3.9c-0.2-0.3-0.2-0.7,0-1
			c0.1-0.2,3.2-4.1,8.6-4.1l0,0c4.4,0,7.8,2.2,9,3l4-1.9c0.2-0.1,0.5-0.1,0.8,0.1c0.2,0.1,0.4,0.4,0.4,0.7v6.4
			c0,0.3-0.1,0.5-0.4,0.7C231.3,229.9,231.2,229.9,231,229.9z M210.8,225.5c1,0.9,3.5,2.9,7,2.9c4.8,0,8.3-1.9,8.3-2
			c0.2-0.1,0.5-0.1,0.7,0l3.3,1.5V224l-3.3,1.5c-0.3,0.1-0.6,0.1-0.8-0.1c0,0-3.7-3-8.4-3C214.1,222.5,211.8,224.5,210.8,225.5z"/>
	</g>
	<g>
		<path class="st5" d="M227.2,222.1c0,0,2.9-3.8,7.9-3.8c5.1,0,8.9,3.2,8.9,3.2l4.4-2.1v6.4l-4.4-2.1c0,0-3.7,2.1-8.7,2.1
			S227.2,222.1,227.2,222.1z"/>
		<path class="st1" d="M235.3,226.6c-5.4,0-8.6-3.8-8.7-3.9c-0.2-0.3-0.2-0.7,0-1c0.1-0.2,3.2-4.1,8.6-4.1c4.4,0,7.8,2.2,9,3l4-1.9
			c0.2-0.1,0.5-0.1,0.8,0.1c0.2,0.1,0.4,0.4,0.4,0.7v6.4c0,0.3-0.1,0.5-0.4,0.7c-0.2,0.1-0.5,0.2-0.8,0.1l-4.1-1.9
			C243,225.2,239.6,226.6,235.3,226.6z M228.3,222.1c1,0.9,3.5,2.9,7,2.9c4.8,0,8.3-1.9,8.3-2c0.2-0.1,0.5-0.1,0.7,0l3.3,1.5v-3.8
			l-3.3,1.5c-0.3,0.1-0.6,0.1-0.8-0.1c0,0-3.7-3-8.4-3C231.6,219.1,229.2,221.1,228.3,222.1z"/>
	</g>
	<g>
		<path class="st5" d="M209.7,216.1c0,0,2.9-3.8,7.9-3.8c5.1,0,8.9,3.2,8.9,3.2l4.4-2.1v6.4l-4.4-2.1c0,0-3.7,2.1-8.7,2.1
			S209.7,216.1,209.7,216.1z"/>
		<path class="st1" d="M217.8,220.6c-5.4,0-8.6-3.8-8.7-3.9c-0.2-0.3-0.2-0.7,0-1c0.1-0.2,3.2-4.1,8.6-4.1c4.4,0,7.8,2.2,9,3l4-1.9
			c0.2-0.1,0.5-0.1,0.8,0.1c0.2,0.1,0.4,0.4,0.4,0.7v6.4c0,0.3-0.1,0.5-0.4,0.7c-0.2,0.1-0.5,0.2-0.8,0.1l-4.1-1.9
			C225.5,219.1,222.2,220.6,217.8,220.6z M210.8,216.1c1,0.9,3.5,2.9,7,2.9c4.8,0,8.3-1.9,8.3-2c0.2-0.1,0.5-0.1,0.7,0l3.3,1.5v-3.8
			l-3.3,1.5c-0.3,0.1-0.6,0.1-0.8-0.1c0,0-3.7-3-8.4-3C214.1,213.1,211.8,215.1,210.8,216.1z"/>
	</g>
	<g>
		<path class="st5" d="M227.2,212.8c0,0,2.9-3.8,7.9-3.8c5.1,0,8.9,3.2,8.9,3.2l4.4-2.1v6.4l-4.4-2.1c0,0-3.7,2.1-8.7,2.1
			S227.2,212.8,227.2,212.8z"/>
		<path class="st1" d="M248.5,217.2c-0.1,0-0.2,0-0.3-0.1l-4.1-1.9c-1.1,0.5-4.4,2-8.8,2c-5.4,0-8.6-3.8-8.7-3.9
			c-0.2-0.3-0.2-0.7,0-1c0.1-0.2,3.2-4.1,8.6-4.1l0,0c4.4,0,7.8,2.2,9,3l4-1.9c0.2-0.1,0.5-0.1,0.8,0.1c0.2,0.1,0.4,0.4,0.4,0.7v6.4
			c0,0.3-0.1,0.5-0.4,0.7C248.8,217.2,248.6,217.2,248.5,217.2z M228.3,212.7c1,0.9,3.5,2.9,7,2.9c4.8,0,8.3-1.9,8.3-2
			c0.2-0.1,0.5-0.1,0.7,0l3.3,1.5v-3.8l-3.3,1.5c-0.3,0.1-0.6,0.1-0.8-0.1c0,0-3.7-3-8.4-3C231.6,209.8,229.2,211.8,228.3,212.7z"/>
	</g>
	<g>
		<path class="st5" d="M209.7,206.7c0,0,2.9-3.8,7.9-3.8c5.1,0,8.9,3.2,8.9,3.2l4.4-2.1v6.4l-4.4-2.1c0,0-3.7,2.1-8.7,2.1
			S209.7,206.7,209.7,206.7z"/>
		<path class="st1" d="M217.8,211.2c-5.4,0-8.6-3.8-8.7-3.9c-0.2-0.3-0.2-0.7,0-1c0.1-0.2,3.2-4.1,8.6-4.1c4.4,0,7.8,2.2,9,3l4-1.9
			c0.2-0.1,0.5-0.1,0.8,0.1c0.2,0.1,0.4,0.4,0.4,0.7v6.4c0,0.3-0.1,0.5-0.4,0.7c-0.2,0.1-0.5,0.2-0.8,0.1l-4.1-1.9
			C225.5,209.7,222.2,211.2,217.8,211.2z M210.8,206.7c1,0.9,3.5,2.9,7,2.9c4.8,0,8.3-1.9,8.3-2c0.2-0.1,0.5-0.1,0.7,0l3.3,1.5v-3.8
			l-3.3,1.5c-0.3,0.1-0.6,0.1-0.8-0.1c0,0-3.7-3-8.4-3C214.1,203.7,211.8,205.7,210.8,206.7z"/>
	</g>
	<g>
		<path class="st5" d="M227.2,203.4c0,0,2.9-3.8,7.9-3.8c5.1,0,8.9,3.2,8.9,3.2l4.4-2.1v6.4L244,205c0,0-3.7,2.1-8.7,2.1
			S227.2,203.4,227.2,203.4z"/>
		<path class="st1" d="M248.5,207.8c-0.1,0-0.2,0-0.3-0.1l-4.1-1.9c-1.1,0.5-4.4,2-8.8,2c-5.4,0-8.6-3.8-8.7-3.9
			c-0.2-0.3-0.2-0.7,0-1c0.1-0.2,3.2-4.1,8.6-4.1l0,0c4.4,0,7.8,2.2,9,3l4-1.9c0.2-0.1,0.5-0.1,0.8,0.1c0.2,0.1,0.4,0.4,0.4,0.7v6.4
			c0,0.3-0.1,0.5-0.4,0.7C248.8,207.8,248.6,207.8,248.5,207.8z M228.3,203.4c1,0.9,3.5,2.9,7,2.9c4.8,0,8.3-1.9,8.3-2
			c0.2-0.1,0.5-0.1,0.7,0l3.3,1.5v-3.8l-3.3,1.5c-0.3,0.1-0.6,0.1-0.8-0.1c0,0-3.7-3-8.4-3C231.6,200.4,229.2,202.4,228.3,203.4z"/>
	</g>
	<g>
		<path class="st5" d="M209.7,197.4c0,0,2.9-3.8,7.9-3.8c5.1,0,8.9,3.2,8.9,3.2l4.4-2.1v6.4l-4.4-2.1c0,0-3.7,2.1-8.7,2.1
			S209.7,197.4,209.7,197.4z"/>
		<path class="st1" d="M231,201.8c-0.1,0-0.2,0-0.3-0.1l-4.1-1.9c-1.1,0.5-4.4,2-8.8,2c-5.4,0-8.6-3.8-8.7-3.9c-0.2-0.3-0.2-0.7,0-1
			c0.1-0.2,3.2-4.1,8.6-4.1c4.4,0,7.8,2.2,9,3l4-1.9c0.2-0.1,0.5-0.1,0.8,0.1c0.2,0.1,0.4,0.4,0.4,0.7v6.4c0,0.3-0.1,0.5-0.4,0.7
			C231.3,201.8,231.2,201.8,231,201.8z M210.8,197.3c1,0.9,3.5,2.9,7,2.9c4.8,0,8.3-1.9,8.3-2c0.2-0.1,0.5-0.1,0.7,0l3.3,1.5v-3.8
			l-3.3,1.5c-0.3,0.1-0.6,0.1-0.8-0.1c0,0-3.7-3-8.4-3C214.2,194.3,211.8,196.4,210.8,197.3z"/>
	</g>
	<g>
		<path class="st5" d="M227.2,194c0,0,2.9-3.8,7.9-3.8c5.1,0,8.9,3.2,8.9,3.2l4.4-2.1v6.4l-4.4-2.1c0,0-3.7,2.1-8.7,2.1
			S227.2,194,227.2,194z"/>
		<path class="st1" d="M235.3,198.5c-5.4,0-8.6-3.8-8.7-3.9c-0.2-0.3-0.2-0.7,0-1c0.1-0.2,3.2-4.1,8.6-4.1c4.4,0,7.8,2.2,9,3l4-1.9
			c0.2-0.1,0.5-0.1,0.8,0.1c0.2,0.1,0.4,0.4,0.4,0.7v6.4c0,0.3-0.1,0.5-0.4,0.7c-0.2,0.1-0.5,0.2-0.8,0.1l-4.1-1.9
			C243,197,239.6,198.5,235.3,198.5z M228.3,194c1,0.9,3.5,2.9,7,2.9c4.8,0,8.3-1.9,8.3-2c0.2-0.1,0.5-0.1,0.7,0l3.3,1.5v-3.8
			l-3.3,1.5c-0.3,0.1-0.6,0.1-0.8-0.1c0,0-3.7-3-8.4-3C231.6,191,229.2,193,228.3,194z"/>
	</g>
	<g>
		<path class="st5" d="M209.7,188c0,0,2.9-3.8,7.9-3.8c5.1,0,8.9,3.2,8.9,3.2l4.4-2.1v6.4l-4.4-2.1c0,0-3.7,2.1-8.7,2.1
			S209.7,188,209.7,188z"/>
		<path class="st1" d="M231,192.4c-0.1,0-0.2,0-0.3-0.1l-4.1-1.9c-1.1,0.5-4.4,2-8.8,2c-5.4,0-8.6-3.8-8.7-3.9c-0.2-0.3-0.2-0.7,0-1
			c0.1-0.2,3.2-4.1,8.6-4.1l0,0c4.4,0,7.8,2.2,9,3l4-1.9c0.2-0.1,0.5-0.1,0.8,0.1c0.2,0.1,0.4,0.4,0.4,0.7v6.4
			c0,0.3-0.1,0.5-0.4,0.7C231.3,192.4,231.2,192.4,231,192.4z M210.8,188c1,0.9,3.5,2.9,7,2.9c4.8,0,8.3-1.9,8.3-2
			c0.2-0.1,0.5-0.1,0.7,0l3.3,1.5v-3.8l-3.3,1.5c-0.3,0.1-0.6,0.1-0.8-0.1c0,0-3.7-3-8.4-3C214.1,185,211.8,187,210.8,188z"/>
	</g>
	<g>
		<path class="st5" d="M227.2,184.6c0,0,2.9-3.8,7.9-3.8c5.1,0,8.9,3.2,8.9,3.2l4.4-2.1v6.4l-4.4-2.1c0,0-3.7,2.1-8.7,2.1
			S227.2,184.6,227.2,184.6z"/>
		<path class="st1" d="M235.3,189.1c-5.4,0-8.6-3.8-8.7-3.9c-0.2-0.3-0.2-0.7,0-1c0.1-0.2,3.2-4.1,8.6-4.1c4.4,0,7.8,2.2,9,3l4-1.9
			c0.2-0.1,0.5-0.1,0.8,0.1c0.2,0.1,0.4,0.4,0.4,0.7v6.4c0,0.3-0.1,0.5-0.4,0.7c-0.2,0.1-0.5,0.2-0.8,0.1l-4.1-1.9
			C243,187.7,239.6,189.1,235.3,189.1z M228.3,184.6c1,0.9,3.5,2.9,7,2.9c4.8,0,8.3-1.9,8.3-2c0.2-0.1,0.5-0.1,0.7,0l3.3,1.5v-3.8
			l-3.3,1.5c-0.3,0.1-0.6,0.1-0.8-0.1c0,0-3.7-3-8.4-3C231.6,181.6,229.2,183.7,228.3,184.6z"/>
	</g>
	<g>
		<rect x="220.2" y="189.1" class="st2" width="18.1" height="32.4"/>
		<path class="st1" d="M239.1,222.3h-19.7v-34h19.7V222.3z M221,220.7h16.5v-30.8H221V220.7z"/>
	</g>
	<path class="st1" d="M230.4,110.3c-1.4,0-2.7-0.7-3.5-1.8c-0.8-1.1-1.1-2.5-0.8-3.6c0.5-1.6,3.1-8.6,3.5-9.8c0-0.1,0.1-0.2,0.1-0.3
		c0.3-0.4,1-0.4,1.3,0c0.1,0.1,0.1,0.2,0.1,0.3c0.4,1.1,3,8.2,3.5,9.8c0.3,1.1,0,2.5-0.8,3.6C233.1,109.7,231.8,110.3,230.4,110.3z
		 M230.4,97.6c-0.9,2.5-2.4,6.7-2.8,7.8c-0.2,0.6,0,1.5,0.5,2.2c0.3,0.4,1,1.2,2.2,1.2c1.2,0,1.9-0.7,2.2-1.2
		c0.5-0.7,0.7-1.6,0.5-2.2C232.8,104.2,231.3,100.1,230.4,97.6z"/>
	<g>
		<defs>
			<rect id="SVGID_1_" x="230.7" y="120.1" width="11.8" height="18.9"/>
		</defs>
		<clipPath id="SVGID_00000054971369055091001840000015244014267786252711_">
			<use xlink:href="#SVGID_1_"  style="overflow:visible;"/>
		</clipPath>
		<g style="clip-path:url(#SVGID_00000054971369055091001840000015244014267786252711_);">
			<path class="st5" d="M236.9,116.5c0,0,3.7,2.8,3.7,7.7c0,4.9-3.1,8.6-3.1,8.6l2,4.3h-6.2l2-4.3c0,0-2-3.5-2-8.5
				S236.9,116.5,236.9,116.5z"/>
			<path class="st1" d="M239.5,137.9h-6.2c-0.3,0-0.5-0.1-0.7-0.4c-0.1-0.2-0.2-0.5-0.1-0.8l1.8-4c-0.5-1.1-1.9-4.3-1.9-8.5
				c0-5.2,3.7-8.3,3.8-8.5c0.3-0.2,0.7-0.2,1,0c0.2,0.1,4,3.1,4,8.3c0,4.3-2.1,7.6-3,8.7l1.8,3.9c0.1,0.2,0.1,0.5-0.1,0.8
				C240,137.8,239.8,137.9,239.5,137.9z M234.6,136.3h3.7l-1.5-3.2c-0.1-0.3-0.1-0.6,0.1-0.8c0,0,2.9-3.6,2.9-8.1
				c0-3.4-1.9-5.7-2.9-6.6c-0.9,1-2.8,3.4-2.8,6.8c0,4.6,1.9,8,1.9,8.1c0.1,0.2,0.1,0.5,0,0.7L234.6,136.3z"/>
		</g>
	</g>
	<path class="st1" d="M245.6,121.2h-30.4c-0.4,0-0.8-0.4-0.8-0.8s0.4-0.8,0.8-0.8h30.4c0.4,0,0.8,0.4,0.8,0.8S246,121.2,245.6,121.2
		z"/>
	<path class="st1" d="M227.2,172.2c-0.2,0-0.3-0.1-0.5-0.2l-11-8.5c-0.4-0.3-0.4-0.8-0.1-1.1c0.3-0.4,0.8-0.4,1.1-0.1l11,8.5
		c0.4,0.3,0.4,0.8,0.1,1.1C227.7,172.1,227.4,172.2,227.2,172.2z"/>
	<path class="st3" d="M244.6,207l9.7,0.4c-0.2-0.2-4.6-4.6-3.8-6.3c0.7-1.4,2.4-1,3.9,0.3c1.4,1.3,8.3,7.3,8.3,7.3l-0.1,9.4
		c0,0-8.3,7.4-9.1,8c-1.8,1.3-3.1,1.1-3.4-0.2c-0.4-1.7,4.1-5.9,4.1-5.9s-8.8,0.1-9.8,0.1c-1,0-2.7-0.6-2.8-2.4
		c0-1.8,2.6-2.2,2.6-2.2c-1.7,0.1-2.8-1-2.7-2.4c0.1-1.8,2.5-2,2.8-2c-1.2-0.1-2.9-0.7-2.8-2.4C241.7,206.8,244.6,207,244.6,207z"/>
	<path class="st1" d="M253.4,216.6C253.4,216.6,253.4,216.6,253.4,216.6l-9.3-0.3c-1,0.1-2-0.3-2.6-0.9c-0.6-0.6-0.9-1.4-0.8-2.3
		c0.1-2.1,2.4-2.7,3.6-2.7c0,0,0,0,0,0c0.4,0,0.8,0.3,0.8,0.8c0,0.4-0.3,0.8-0.8,0.8c0,0-2,0.1-2,1.2c0,0.4,0.1,0.8,0.4,1
		c0.3,0.3,0.8,0.5,1.5,0.5l9.3,0.3c0.4,0,0.8,0.4,0.8,0.8C254.2,216.2,253.9,216.6,253.4,216.6z"/>
	<path class="st1" d="M253.6,212.2C253.6,212.2,253.6,212.2,253.6,212.2c-0.3,0-7.8-0.2-9.2-0.3c0,0-0.1,0-0.1,0c0,0,0,0-0.1,0
		c-0.9-0.1-2.2-0.4-2.9-1.3c-0.5-0.5-0.7-1.2-0.6-2c0.2-2.2,2.7-2.6,4-2.5l9.6,0.4c0.4,0,0.8,0.4,0.8,0.8c0,0.4-0.4,0.8-0.8,0.8
		l-9.7-0.4c-0.1,0-2.2-0.2-2.3,1c0,0.3,0,0.6,0.2,0.8c0.4,0.4,1.1,0.7,1.7,0.7c0,0,0.1,0,0.1,0c1.1,0.1,9.1,0.3,9.2,0.3
		c0.4,0,0.8,0.4,0.8,0.8C254.4,211.9,254,212.2,253.6,212.2z"/>
	<path class="st1" d="M251.4,227.8c-0.3,0-0.6-0.1-0.8-0.1c-0.7-0.2-1.1-0.8-1.3-1.6c-0.3-1.4,1.5-3.7,2.9-5.3
		c-2.6,0-7.1,0.1-7.9,0.1c-1.7,0-3.5-1.1-3.6-3.2c0-2,2-2.8,3.3-3c0.4-0.1,0.8,0.2,0.9,0.7c0.1,0.4-0.2,0.8-0.7,0.9
		c0,0-2,0.4-1.9,1.4c0,1.6,1.9,1.6,2,1.6c1,0,9.5-0.1,9.8-0.1c0,0,0,0,0,0c0.3,0,0.6,0.2,0.7,0.5c0.1,0.3,0,0.7-0.2,0.9
		c-2.2,2.1-4,4.5-3.8,5.2c0.1,0.4,0.2,0.4,0.3,0.4c0.3,0.1,0.9,0,1.8-0.7c0.6-0.4,5.5-4.7,8.8-7.7l0.1-8.7c-1.3-1.1-6.8-5.8-8.1-7
		c-0.8-0.7-1.6-1.1-2.1-1c-0.1,0-0.3,0.1-0.5,0.4c-0.2,0.5,0.8,2.4,3.6,5.3c0.1,0.1,0.2,0.3,0.3,0.5c0.1,0.4-0.2,0.8-0.6,0.9
		c-0.3,0-0.6,0-0.7-0.2c-3.3-3.4-4.6-5.8-3.9-7.2c0.3-0.7,0.9-1.2,1.6-1.3c1-0.2,2.3,0.3,3.5,1.4c1.4,1.3,8.2,7.2,8.3,7.2
		c0.2,0.2,0.3,0.4,0.3,0.6l-0.1,9.4c0,0.2-0.1,0.4-0.3,0.6c-0.9,0.8-8.4,7.4-9.2,8C252.8,227.5,252,227.8,251.4,227.8z"/>
	<path class="st1" d="M230.4,240h-36.7c-0.4,0-0.8-0.4-0.8-0.8v-68.9c0-18.6,20.1-19.6,20.4-19.6h4.8c0.4,0,0.8,0.4,0.8,0.8
		s-0.4,0.8-0.8,0.8h-4.8c0,0-4.8,0.2-9.5,2.6c-6.2,3.1-9.3,8.3-9.3,15.4v68.1h35.9c0.4,0,0.8,0.4,0.8,0.8S230.9,240,230.4,240z"/>
	<path class="st1" d="M267.1,240h-36.7c-0.4,0-0.8-0.4-0.8-0.8s0.4-0.8,0.8-0.8h35.9v-68.1c0-7.1-3.1-12.3-9.3-15.4
		c-4.7-2.4-9.5-2.6-9.5-2.6h-4.7c-0.4,0-0.8-0.4-0.8-0.8s0.4-0.8,0.8-0.8h4.8c0.2,0,20.4,1,20.4,19.6v68.9
		C267.9,239.6,267.6,240,267.1,240z"/>
	<path class="st0" d="M267.1,184.2c0,0,18,4.3,16.6,14s-21.1,8.5-21.1,8.5V221c0,0,33.7,2.2,37.8-20.7s-14.6-40.4-46.8-47.5"/>
	<path class="st1" d="M264.8,221.8c-1.3,0-2.1,0-2.2,0c-0.4,0-0.7-0.4-0.7-0.8v-14.3c0-0.2,0.1-0.4,0.3-0.6c0.2-0.2,0.4-0.2,0.6-0.2
		c0.2,0,19,1,20.3-7.8c1.2-8.8-15.9-13.1-16-13.1c-0.4-0.1-0.7-0.5-0.6-1c0.1-0.4,0.5-0.7,1-0.6c0.8,0.2,18.7,4.6,17.2,14.9
		c-1.3,9.2-17.2,9.3-21.1,9.2v12.7c4.9,0.1,32.6,0,36.2-20.1c3.9-21.9-13.4-39.3-46.2-46.6c-0.4-0.1-0.7-0.5-0.6-1
		c0.1-0.4,0.5-0.7,1-0.6c33.7,7.5,51.5,25.6,47.4,48.5C297.7,220.3,272.4,221.8,264.8,221.8z"/>
	<path class="st1" d="M180.9,197c-0.2,0-0.4-0.1-0.6-0.3c-0.3-0.3-0.3-0.8,0.1-1.1l12.9-11.2c0.3-0.3,0.8-0.3,1.1,0.1
		c0.3,0.3,0.3,0.8-0.1,1.1l-12.9,11.2C181.2,196.9,181,197,180.9,197z"/>
	<path class="st1" d="M177.7,170.9c-0.3,0-0.5-0.1-0.7-0.4c-0.2-0.4-0.1-0.9,0.3-1.1l21.5-13c0.4-0.2,0.9-0.1,1.1,0.3
		c0.2,0.4,0.1,0.9-0.3,1.1l-21.5,13C177.9,170.9,177.8,170.9,177.7,170.9z"/>
	<path class="st1" d="M224.1,157.9c-2.2,0-3.9-0.6-5.1-1.9c-1.8-1.9-1.7-4.4-1.7-4.5c0-0.4,0.4-0.8,0.8-0.8c0.4,0,0.8,0.4,0.8,0.8
		c0,0,0,2,1.3,3.4c0.9,0.9,2.2,1.4,4,1.4c5.3,0,5.4-4,5.5-4.4c0-0.4,0.3-0.8,0.8-0.8c0.4,0,0.8,0.4,0.8,0.8
		C231.2,151.9,231.1,157.9,224.1,157.9z"/>
	<path class="st1" d="M236.4,157.9c-2.2,0-3.9-0.6-5.1-1.9c-1.8-1.9-1.7-4.4-1.7-4.5c0-0.4,0.4-0.8,0.8-0.8c0.4,0,0.8,0.4,0.8,0.8
		l0,0c0,0,0,2,1.3,3.4c0.9,0.9,2.2,1.4,4,1.4c5.3,0,5.4-4,5.5-4.4c0-0.4,0.4-0.8,0.8-0.8c0.4,0,0.8,0.4,0.8,0.8
		C243.5,151.9,243.4,157.9,236.4,157.9z"/>
	<g>
		<path class="st7" d="M230.4,20.7c45,0,51,41.4,51.9,55c1,15.7-1,36.7-11.9,55.1c-6.1,10.4-15.2,12.2-15.2,12.2
			c14-34,4.7-70.7,4.7-70.7s-14.9,0-29.5,0s-19.5-15.5-19.5-15.5s-7.3,5.2-10.4,17.6c0,0-8.8,34.7,5.2,68.7c0,0-8.3-0.7-15.7-13.7
			c-9.9-17.5-12.3-39.4-11.4-53.6C179.4,62,185.4,20.7,230.4,20.7"/>
		<path class="st1" d="M255.2,143.7c-0.2,0-0.5-0.1-0.6-0.3c-0.2-0.2-0.2-0.5-0.1-0.8c12.7-31,5.9-64.7,4.8-69.6h-28.9
			c-12.8,0-18.4-11.4-19.9-15c-2,1.7-6.9,6.9-9.2,16.4c-0.1,0.4-8.6,34.8,5.1,68.2c0.1,0.3,0.1,0.6-0.1,0.8
			c-0.2,0.2-0.4,0.3-0.7,0.3c-0.4,0-8.9-0.9-16.4-14.1c-9.9-17.5-12.4-39.4-11.5-54c0.5-7.2,2.3-21,9.5-32.9
			c9.1-15.1,23.6-22.8,43.2-22.8c19.6,0,34.1,7.7,43.2,22.8c7.2,12,9,25.8,9.5,32.9c0.8,11.9,0.2,34.8-12,55.5
			c-6.2,10.6-15.4,12.5-15.8,12.6C255.3,143.7,255.3,143.7,255.2,143.7z M230.4,21.5c-14.3,0-48,5.3-51.1,54.2
			c-0.9,14.4,1.6,36,11.3,53.1c5.3,9.3,11.1,12.1,13.7,13c-13.1-33.4-4.7-67.4-4.6-67.7c3.1-12.5,10.4-17.8,10.7-18
			c0.2-0.1,0.5-0.2,0.7-0.1c0.2,0.1,0.4,0.3,0.5,0.5c0,0.1,4.9,15,18.8,15h29.5c0.4,0,0.7,0.2,0.8,0.6c0.1,0.4,8.9,36.2-4.1,69.6
			c2.8-1,8.8-3.9,13.2-11.4c12-20.3,12.5-42.9,11.8-54.6C278.4,26.7,244.8,21.5,230.4,21.5z"/>
	</g>
	<g>
		<path class="st0" d="M211.5,171l4.6-9.9c0,0-1.4-2.2-8.7-2c-10.9,0.3-33.3,12-40.6,18.1c-7.3,6.1-15,16.2-6.3,24.3
			c13.3,12.4,35.3-25.7,44.9-30.1L211.5,171z"/>
		<path class="st1" d="M166.5,204.8c-2.4,0-4.6-0.9-6.5-2.7c-2.8-2.6-4.2-5.7-4.1-9c0.2-6.9,6.6-13.3,10.5-16.6
			c7.1-5.9,29.8-18,41.1-18.3c7.5-0.2,9.2,2.1,9.4,2.4c0.2,0.2,0.2,0.5,0.1,0.8l-4.6,9.9c-0.1,0.3-0.4,0.4-0.7,0.5l-5.9,0.4
			c-3,1.5-7.5,6.5-12.2,11.9c-8.4,9.5-18,20.3-26.5,20.7C166.8,204.8,166.7,204.8,166.5,204.8z M208.2,159.9c-0.2,0-0.5,0-0.8,0
			c-11,0.3-33.2,12.1-40.1,17.9c-3.6,3-9.7,9.1-9.9,15.4c-0.1,2.9,1.1,5.5,3.6,7.8c1.7,1.6,3.7,2.4,5.8,2.3
			c7.8-0.4,17.5-11.4,25.3-20.2c5.1-5.8,9.6-10.8,12.9-12.3c0.1,0,0.2-0.1,0.3-0.1l5.6-0.3l4.2-8.9
			C214.5,160.8,212.7,159.9,208.2,159.9z M211.5,171L211.5,171L211.5,171z"/>
	</g>
	<g>
		<path class="st7" d="M224.2,59.1c0,0,6.8,13.1,14,13.1"/>
		<path class="st1" d="M238.2,73c-7.6,0-14.4-13-14.7-13.6c-0.2-0.4,0-0.9,0.3-1.1c0.4-0.2,0.9,0,1.1,0.3
			c0.1,0.1,6.6,12.7,13.3,12.7c0.4,0,0.8,0.4,0.8,0.8S238.7,73,238.2,73z"/>
	</g>
	<g>
		<path class="st7" d="M236.7,59.1c0,0,6.8,13.1,14,13.1"/>
		<path class="st1" d="M250.7,73c-7.6,0-14.4-13-14.7-13.6c-0.2-0.4,0-0.9,0.3-1.1c0.4-0.2,0.9,0,1.1,0.3
			c0.1,0.1,6.6,12.7,13.3,12.7c0.4,0,0.8,0.4,0.8,0.8S251.1,73,250.7,73z"/>
	</g>
</g>
</svg>
