<?xml version="1.0" encoding="utf-8"?>
<svg version="1.1" id="the-element-mtfuji-1" xmlns="http://www.w3.org/2000/svg" xmlns:xlink="http://www.w3.org/1999/xlink" x="0px"
	 y="0px" viewBox="0 0 655 372" style="enable-background:new 0 0 655 372;" xml:space="preserve">
<style type="text/css">
	.st0{fill:#121659;}
	.st1{fill:#FFF8EE;}
	.st2{fill:#231815;}
</style>
<g>
	<path class="st0" d="M418.7,152.8C397,124,375.6,92.2,355.2,57.2h-55.4c-20.3,34.9-41.7,66.6-63.3,95.3
		C121.9,304.6,0.7,371.3,0.7,371.3h653.6C654.3,371.3,533.3,304.7,418.7,152.8z"/>
	<path class="st1" d="M276.9,150.3l-2.4-2.4l-10.7,10.7l-4.6-4.6l-6.1-6.1l-10.7,10.7l-6.1-6.1c21.6-28.7,43-60.4,63.3-95.3h55.4
		c20.4,35,41.8,66.9,63.5,95.6l-5.8,5.8l-10.7-10.7l-3.4,3.4l-7.2,7.2L381,147.9l-9.4,9.4l-1.3,1.3l-10.7-10.7L349,158.6l-10.7-10.7
		l-10.7,10.7l-10.6-10.7l-10.7,10.7l-10.6-10.7l-10.7,10.7L276.9,150.3z"/>
	<g>
		<path class="st2" d="M654.6,370.7c-0.3-0.2-30.7-17-74.8-52.2c-40.6-32.5-101.5-87.7-160.6-166.1C396.4,122,375,89.8,355.8,56.8
			c-0.1-0.2-0.4-0.3-0.6-0.3h-55.4c-0.2,0-0.5,0.1-0.6,0.3c-19.1,32.9-40.4,65-63.3,95.3c-59.1,78.5-120,133.7-160.7,166.3
			c-44.1,35.2-74.5,52.1-74.8,52.3c-0.3,0.2-0.4,0.5-0.3,0.8c0.1,0.3,0.4,0.5,0.7,0.5h653.6c0.3,0,0.6-0.2,0.7-0.5
			C655.1,371.2,654.9,370.8,654.6,370.7z M300.2,57.9h54.6c19.1,32.8,40.3,64.7,63,94.9l-4.9,4.9l-10.2-10.2c-0.3-0.3-0.7-0.3-1,0
			l-2.8,2.8c-10.2-15-16.6-25.5-16.6-25.6c-0.2-0.3-0.6-0.4-1-0.2c-0.3,0.2-0.4,0.6-0.2,1c0.1,0.1,6.5,10.7,16.8,25.9l-6.3,6.3
			l-10.2-10.2c-0.3-0.3-0.7-0.3-1,0l-8.7,8.7c-8.6-15.9-14.4-28.1-14.5-28.2c-0.2-0.3-0.6-0.5-0.9-0.3c-0.3,0.2-0.5,0.6-0.3,0.9
			c0.1,0.1,6,12.5,14.7,28.6l-0.4,0.4l-10.2-10.2c-0.3-0.3-0.7-0.3-1,0L349,157.6l-10.2-10.2c-0.3-0.3-0.7-0.3-1,0l-10.2,10.2
			l-10.1-10.2c-0.1-0.1-0.3-0.2-0.5-0.2c-0.2,0-0.4,0.1-0.5,0.2l-10.2,10.2l-10.1-10.2c-0.1-0.1-0.3-0.2-0.5-0.2
			c-0.2,0-0.4,0.1-0.5,0.2l-10.2,10.2l-7.4-7.4c14.5-23.5,22.6-43,22.7-43.2c0.1-0.4,0-0.8-0.4-0.9c-0.4-0.2-0.8,0-0.9,0.4
			c-0.1,0.2-8.1,19.4-22.4,42.7l-1.7-1.7c-0.1-0.1-0.3-0.2-0.5-0.2h0c-0.2,0-0.4,0.1-0.5,0.2l-10.2,10.2l-3.7-3.7
			c15.2-23.3,25.3-41.3,25.4-41.5c0.2-0.3,0.1-0.8-0.3-1c-0.3-0.2-0.8-0.1-1,0.3c-0.1,0.2-10.1,18-25.2,41.2l-5.5-5.5
			c-0.3-0.3-0.7-0.3-1,0l-10.2,10.2l-5.2-5.2C260,122.4,281.2,90.5,300.2,57.9z M3.3,370.6c7.9-4.6,35.5-21.3,72.7-51.1
			c40.6-32.5,101.4-87.6,160.5-165.9l5.5,5.5c0.3,0.3,0.7,0.3,1,0l10.2-10.2l5.2,5.2c-16.9,26-42.4,61.7-67.7,85.6
			c-0.3,0.3-0.3,0.7,0,1c0.1,0.1,0.3,0.2,0.5,0.2c0.2,0,0.3-0.1,0.5-0.2c25.4-23.9,50.8-59.6,67.8-85.6l4,4c0.1,0.1,0.3,0.2,0.5,0.2
			c0,0,0,0,0,0c0.2,0,0.4-0.1,0.5-0.2l10.2-10.2l1.5,1.5c-4.4,7.1-9,14-13.7,20.4c-0.2,0.3-0.2,0.8,0.2,1c0.1,0.1,0.3,0.1,0.4,0.1
			c0.2,0,0.4-0.1,0.6-0.3c4.6-6.3,9.2-13.1,13.6-20.2l7.7,7.7c0.3,0.3,0.7,0.3,1,0l10.2-10.2l10.1,10.2c0.1,0.1,0.3,0.2,0.5,0.2
			c0.2,0,0.4-0.1,0.5-0.2l10.2-10.2l10.1,10.2c0.1,0.1,0.3,0.2,0.5,0.2c0.2,0,0.4-0.1,0.5-0.2l10.2-10.2l10.2,10.2
			c0.3,0.3,0.7,0.3,1,0l10.1-10.2l10.2,10.2c0.3,0.3,0.7,0.3,1,0l0.6-0.6c9.6,17.7,18.7,32.6,27,44.5c0.1,0.2,0.4,0.3,0.6,0.3
			c0.1,0,0.3,0,0.4-0.1c0.3-0.2,0.4-0.7,0.2-1c-8.3-11.9-17.4-27-27.1-44.8l8.5-8.5l10.2,10.2c0.3,0.3,0.7,0.3,1,0l6.6-6.6
			c12.2,17.9,31,43.6,51.9,66.1c0.1,0.1,0.3,0.2,0.5,0.2c0.2,0,0.3-0.1,0.5-0.2c0.3-0.3,0.3-0.7,0-1c-20.9-22.6-39.7-48.3-51.9-66.2
			l2.5-2.5l10.2,10.2c0.1,0.1,0.3,0.2,0.5,0.2c0.2,0,0.4-0.1,0.5-0.2l5.2-5.2C477.7,232,538.4,287.1,579,319.6
			c37.2,29.8,64.8,46.4,72.6,51H3.3z"/>
		<path class="st2" d="M415.1,186c-0.2-0.3-0.7-0.4-1-0.2c-0.3,0.2-0.4,0.7-0.2,1c0.3,0.4,26.7,38.9,58.9,63.8
			c0.1,0.1,0.3,0.1,0.4,0.1c0.2,0,0.4-0.1,0.6-0.3c0.2-0.3,0.2-0.7-0.1-1C441.7,224.7,415.4,186.4,415.1,186z"/>
	</g>
</g>
</svg>
