<?xml version="1.0" encoding="utf-8"?>
<svg version="1.1" id="the-element-drive-2-body" xmlns="http://www.w3.org/2000/svg" xmlns:xlink="http://www.w3.org/1999/xlink" x="0px"
	 y="0px" viewBox="0 0 275 117" style="enable-background:new 0 0 275 117;" xml:space="preserve">
<style type="text/css">
	.st0{fill:#F0785F;}
	.st1{fill:#FFF8EE;}
	.st2{fill:#97D2CE;}
	.st3{fill:#FFFFFF;}
	.st4{fill:#F4B2B7;}
	.st5{fill:#FF6C9A;}
	.st6{fill:#121659;}
	.st7{fill:#231815;}
</style>
<g>
	<rect x="238.6" y="54" class="st0" width="35.7" height="47.8"/>
	<path class="st0" d="M37,54H0.7v47.8h27.9C28.6,89.2,38.8,79,51.4,79s22.8,10.2,22.8,22.8h57.4c0-12.6,10.2-22.8,22.8-22.8
		c12.6,0,22.8,10.2,22.8,22.8h61.4V54h-60H37z"/>
	<polygon class="st1" points="145.1,0.7 180.8,0.7 214.3,54 178.6,54 	"/>
	<polygon class="st2" points="178.6,54 145.1,0.7 66.3,0.7 37,54 	"/>
	<polygon class="st3" points="115.6,29.6 115.9,28.7 115.9,27.2 109,27.2 109,22.7 109.4,21.8 109.4,20.2 102.3,20.2 102.3,13.3 
		102.7,12.4 102.7,10.9 91.3,10.9 91.3,12.4 91.6,13.3 91.6,20.2 86.7,20.2 86.7,13.3 87,12.4 87,10.9 75.6,10.9 75.6,12.4 76,13.3 
		76,20.2 71,20.2 71,13.3 71.3,12.4 71.3,10.9 60.7,10.9 59.9,12.2 59.9,12.4 60.3,13.3 60.3,20.2 55.5,20.2 41.3,46.1 41.3,53.3 
		52,53.3 57,53.3 67.7,53.3 72.7,53.3 83.4,53.3 88.4,53.3 99.1,53.3 104,53.3 114.7,53.3 120.8,53.3 120.8,53 120.8,51.4 
		120.4,50.5 120.4,39.2 120.8,38.3 120.8,36.7 115.6,36.7 	"/>
	<rect x="266.1" y="64.8" class="st1" width="8.2" height="11.8"/>
	<rect x="221.9" y="64.8" class="st1" width="26.3" height="11.8"/>
	<path class="st4" d="M98.6,32l-2.3-3.1l0,0c0.2-1.4,0.3-2.8,0.3-4.2c0-10-5.5-16.8-14.5-16c-8.5,0.8-12.2,10-11.4,16.3
		c0,0-3.3,0-2.5,3c0.6,2.1,3.5,2,3.5,2c1.7,6.5,4.7,14.6,4.7,14.6h14.8c0,0,2.9-6,4.4-12.7l0,0H98.6z"/>
	<path class="st3" d="M88.8,19.5C86.1,20.3,84,23.3,86,26c2,2.7,10.2,2,10.4,2c0.1-1.1,0.2-2.2,0.2-3.3c0-2-0.2-3.8-0.6-5.5
		C95.9,19.3,91.5,18.7,88.8,19.5z"/>
	<path class="st5" d="M91.1,33.4c-0.8,0.2-3,0.6-2.9,2.2c0.1,1.6,2,2.1,5.9,1.9c0.4-1.3,0.9-2.7,1.2-4.1
		C95.3,33.4,92.2,33.2,91.1,33.4z"/>
	<polygon class="st6" points="95.1,53.3 91.3,44.6 76.4,44.6 74.6,53.3 	"/>
	<path class="st2" d="M92.2,19.1c0,0-1.7,3.5,0,8.9c2.2,0.1,4.1,0,4.2,0c0.1-1.1,0.2-2.2,0.2-3.3c0-2-0.2-3.8-0.6-5.5
		C95.9,19.3,94.2,19.1,92.2,19.1z"/>
	<path class="st4" d="M142.8,32l-2.3-3.1l0,0c0.2-1.4,0.3-2.8,0.3-4.2c0-10-5.5-16.8-14.5-16c-8.5,0.8-12.2,10-11.4,16.3
		c0,0-3.3,0-2.5,3c0.6,2.1,3.5,2,3.5,2c1.7,6.5,4.7,14.6,4.7,14.6h14.8c0,0,2.9-6,4.4-12.7l0,0H142.8z"/>
	<path class="st3" d="M133,19.5c-2.7,0.8-4.8,3.7-2.8,6.5c2,2.7,10.2,2,10.4,2c0.1-1.1,0.2-2.2,0.2-3.3c0-2-0.2-3.8-0.6-5.5
		C140.1,19.3,135.7,18.7,133,19.5z"/>
	<path class="st5" d="M135.3,33.4c-0.8,0.2-3,0.6-2.9,2.2c0.1,1.6,2,2.1,5.9,1.9c0.4-1.3,0.9-2.7,1.2-4.1
		C139.5,33.4,136.4,33.2,135.3,33.4z"/>
	<polygon class="st0" points="139.3,53.3 135.5,44.6 120.7,44.6 118.9,53.3 	"/>
	<path class="st2" d="M136.4,19.1c0,0-1.7,3.5,0,8.9c2.2,0.1,4.1,0,4.2,0c0.1-1.1,0.2-2.2,0.2-3.3c0-2-0.2-3.8-0.6-5.5
		C140.2,19.3,138.4,19.1,136.4,19.1z"/>
	<path class="st7" d="M274.3,53.3h-35.7h-23.9l-33.3-53C181.3,0.1,181,0,180.8,0H66.3c-0.3,0-0.5,0.1-0.6,0.4l-29.1,53H0.7
		C0.3,53.3,0,53.6,0,54v47.8c0,0.4,0.3,0.7,0.7,0.7h27.9c0.4,0,0.7-0.3,0.7-0.7c0-12.2,9.9-22.1,22.1-22.1
		c12.2,0,22.1,9.9,22.1,22.1c0,0.4,0.3,0.7,0.7,0.7h57.4c0.4,0,0.7-0.3,0.7-0.7c0-12.2,9.9-22.1,22.1-22.1s22.1,9.9,22.1,22.1
		c0,0.4,0.3,0.7,0.7,0.7h61.4h35.7c0.4,0,0.7-0.3,0.7-0.7V76.6V64.8V54C275,53.6,274.7,53.3,274.3,53.3z M180.4,1.4L213,53.3h-34
		L146.4,1.4H180.4z M66.7,1.4h78l32.6,51.9h-37.3l-2.6-5.9c0,0,0,0,0,0l-1.2-2.7c0.6-1.3,2.8-6.3,4.2-12h2.3c0.3,0,0.5-0.1,0.6-0.4
		c0.1-0.2,0.1-0.5-0.1-0.7l-2.1-2.8c0.2-1.3,0.3-2.7,0.3-4c0-2-0.2-3.8-0.6-5.5c0-0.1,0-0.1,0-0.2c-0.8-3.2-2.3-5.9-4.4-7.8
		c-2.7-2.4-6.2-3.5-10.2-3.2c-3.3,0.3-6.3,1.9-8.4,4.6c-2.5,3.1-3.9,7.7-3.6,11.8c-0.6,0.1-1.5,0.4-2.1,1.1
		c-0.2,0.3-0.3,0.6-0.4,0.9h-2v-3.6L110,22c0-0.1,0.1-0.2,0.1-0.3v-1.5c0-0.4-0.3-0.7-0.7-0.7H103v-6.1l0.3-0.8
		c0-0.1,0.1-0.2,0.1-0.3v-1.5c0-0.4-0.3-0.7-0.7-0.7H91.3c-0.1,0-0.2,0-0.3,0.1c-2.5-1.7-5.6-2.5-9-2.2c-2.2,0.2-4.1,0.9-5.9,2.1
		h-0.6c-0.4,0-0.7,0.3-0.7,0.7v0.3c-0.5,0.4-0.9,0.9-1.3,1.4c-0.7,0.9-1.4,2-1.9,3.1v-2.2l0.3-0.8c0-0.1,0.1-0.2,0.1-0.3v-1.5
		c0-0.4-0.3-0.7-0.7-0.7h-9.5L66.7,1.4z M115.1,42.8h-4.6v-3.6c0-0.1,0-0.2-0.1-0.3l-0.3-0.8v-0.7h7.3c1.2,3.5,2.2,6.5,2.5,7.3
		l-1.8,8.6h-2.7V46l0.3-0.8c0-0.1,0.1-0.2,0.1-0.3v-1.5C115.8,43.1,115.5,42.8,115.1,42.8z M104.7,45.7l-0.3-0.8v-0.7h10v0.7
		l-0.3,0.8c0,0.1-0.1,0.2-0.1,0.3v7.4h-9.3v-7.4C104.7,45.8,104.7,45.7,104.7,45.7z M103,45.3l0.3,0.8v7.3h-3.6V46l0.3-0.8
		c0-0.1,0.1-0.2,0.1-0.3v-1.5c0-0.4-0.3-0.7-0.7-0.7h-4.6v-3.6c0-0.1,0-0.2-0.1-0.3l-0.2-0.4c0.1-0.3,0.2-0.7,0.4-1h9.5v0.7
		l-0.3,0.8c0,0.1-0.1,0.2-0.1,0.3v3.6h-0.4c-0.4,0-0.7,0.3-0.7,0.7V45C103,45.1,103,45.2,103,45.3z M73.3,45.7L73,44.9v-0.7h2.5
		c0.1,0.2,0.1,0.4,0.2,0.5l-1.8,8.6h-0.5v-7.4C73.4,45.8,73.4,45.7,73.3,45.7z M71.7,45.3L72,46v7.3h-3.6V46l0.3-0.8
		c0-0.1,0.1-0.2,0.1-0.3v-1.5c0-0.4-0.3-0.7-0.7-0.7h-4.6v-3.6c0-0.1,0-0.2-0.1-0.3l-0.3-0.8v-0.7h10v0.7l-0.3,0.8
		c0,0.1-0.1,0.2-0.1,0.3v3.6h-0.4c-0.4,0-0.7,0.3-0.7,0.7V45C71.6,45.1,71.7,45.2,71.7,45.3z M57.7,45.7l-0.3-0.8v-0.7h10v0.7
		l-0.3,0.8c0,0.1-0.1,0.2-0.1,0.3v7.4h-9.3v-7.4C57.7,45.8,57.7,45.7,57.7,45.7z M114.9,30.6V36h-5.5c-0.4,0-0.7,0.3-0.7,0.7v1.5
		c0,0.1,0,0.2,0.1,0.3l0.3,0.8v3.5h-3.6v-3.5l0.3-0.8c0-0.1,0.1-0.2,0.1-0.3v-1.5c0-0.2-0.1-0.4-0.2-0.5v-6.6c0-0.1,0-0.2-0.1-0.3
		l-0.3-0.8v-0.7h6.5c0,0.1,0,0.2,0.1,0.4C112.3,29.9,113.8,30.4,114.9,30.6z M113.2,26.4c0.2-0.3,0.7-0.5,1.1-0.6
		c0.2,1,0.4,2.2,0.7,3.4c-0.7-0.1-1.6-0.5-1.9-1.4C113,27.2,113,26.8,113.2,26.4z M108.7,21.7l-0.3,0.8c0,0.1-0.1,0.2-0.1,0.3v3.8
		h-3.8c-0.4,0-0.7,0.3-0.7,0.7v1.5c0,0.1,0,0.2,0.1,0.3l0.3,0.8V36h-3.6v-6.3l0.3-0.8c0-0.1,0.1-0.2,0.1-0.3v-1.5
		c0-0.4-0.3-0.7-0.7-0.7H99v-3.8c0-0.1,0-0.2-0.1-0.3l-0.3-0.8v-0.7h10V21.7z M95.9,25.8c0,0.5-0.1,1-0.1,1.5c-0.8,0-1.9,0.1-3,0
		c-1.1-3.8-0.4-6.6-0.1-7.6c1.1,0,2.2,0.1,2.7,0.1c0.1,0.6,0.2,1.3,0.3,2c-0.8,0-2,0.3-2,1.8C93.6,25.2,95,25.7,95.9,25.8z
		 M96.3,32.7h2.3c0.3,0,0.5-0.1,0.6-0.4c0,0,0-0.1,0-0.1V36h-3.9C95.7,34.9,96,33.8,96.3,32.7z M96.6,31.3c0-0.2,0.1-0.4,0.1-0.6
		l0.5,0.6H96.6z M99.1,31.6L97,28.7c0-0.3,0.1-0.6,0.1-0.9h2.4v0.7l-0.3,0.8c0,0.1-0.1,0.2-0.1,0.3v2.2
		C99.2,31.7,99.2,31.6,99.1,31.6z M102,12.3l-0.3,0.8c0,0.1-0.1,0.2-0.1,0.3v6.2H98c-0.4,0-0.7,0.3-0.7,0.7v1.5c0,0.1,0,0.2,0.1,0.3
		l0.3,0.8v3.6h-0.4c0-0.6,0.1-1.2,0.1-1.7c0-2-0.2-3.8-0.6-5.5c0-0.1,0-0.1,0-0.2c-0.7-3-2.1-5.6-4-7.5h9.4V12.3z M95,18.5
		c-1.5-0.1-4.4-0.2-6.4,0.4c-1.9,0.6-3.4,1.9-3.9,3.6c-0.4,1.3-0.2,2.8,0.7,4c1.5,2,5.7,2.4,8.5,2.4c0.7,0,1.2,0,1.7,0
		c-0.2,1.3-0.5,2.7-0.8,4c-1-0.1-2.9-0.1-3.8,0.1c-0.9,0.2-3.6,0.7-3.5,2.9c0.1,2.2,2.5,2.6,5.1,2.6c0.2,0,0.3,0,0.5,0
		c-0.7,2-1.4,3.6-1.9,4.7c-0.1,0.1-0.1,0.2-0.2,0.3c-0.1,0.2-0.2,0.4-0.3,0.6H76.9c-0.4-1-1.4-3.8-2.5-7.1v-0.1
		c0-0.2-0.1-0.4-0.2-0.5c-1.3-3.9-2.5-8.3-2.9-11.2c-0.5-3.9,0.8-8.5,3.3-11.5c1.9-2.4,4.5-3.8,7.5-4.1c3.6-0.3,6.8,0.6,9.1,2.8
		C93,13.8,94.3,15.9,95,18.5z M91.2,27.3c-2-0.2-4-0.7-4.7-1.7c-0.6-0.9-0.8-1.8-0.5-2.7c0.4-1.2,1.6-2.2,3-2.7
		c0.6-0.2,1.4-0.3,2.2-0.4C90.8,21.2,90.4,23.8,91.2,27.3z M90.8,36.2h3c-0.1,0.2-0.2,0.5-0.2,0.7c-4.6,0.2-4.7-0.9-4.7-1.3
		c0-0.7,0.7-1.1,2.4-1.5c0.6-0.1,2.1-0.1,3.2,0c-0.1,0.2-0.1,0.5-0.2,0.7h-3.4c-0.4,0-0.7,0.3-0.7,0.7S90.4,36.2,90.8,36.2z
		 M93.4,41.6v1.2h-0.5C93,42.4,93.2,42,93.4,41.6z M91.5,46.9H76.7l0.3-1.6h13.8L91.5,46.9z M75,42.8h-0.9v-2.6
		C74.5,41.2,74.8,42.1,75,42.8z M72.7,36h-3.5v-5.8c0.7,0.3,1.4,0.5,1.9,0.5C71.6,32.5,72.2,34.3,72.7,36z M68.9,27.8
		c-0.2-0.6-0.1-1.1,0.1-1.4c0.2-0.3,0.7-0.5,1.1-0.6c0.2,1,0.4,2.2,0.7,3.4C70.1,29.1,69.2,28.7,68.9,27.8z M70,24.5
		c-0.6,0.1-1.5,0.4-2.1,1.1c-0.1,0.1-0.1,0.2-0.2,0.4v-3.3c0-0.1,0-0.2-0.1-0.3l-0.3-0.8v-0.7h2.8C69.9,22.1,69.9,23.3,70,24.5z
		 M67.5,27.9c0,0.1,0,0.2,0.1,0.4c0.1,0.3,0.2,0.6,0.4,0.9l-0.1,0.2c0,0.1-0.1,0.2-0.1,0.3V36h-5.5c-0.4,0-0.7,0.3-0.7,0.7v1.5
		c0,0.1,0,0.2,0.1,0.3l0.3,0.8v3.5h-3.6v-3.5l0.3-0.8c0-0.1,0.1-0.2,0.1-0.3v-1.5c0-0.2-0.1-0.4-0.2-0.5v-6.6c0-0.1,0-0.2-0.1-0.3
		l-0.3-0.8v-0.7H67.5z M76.4,48.3h15.7l2.2,5H75.4L76.4,48.3z M93.2,47.4C93.2,47.4,93.2,47.4,93.2,47.4L92,44.6
		c0.1-0.1,0.1-0.3,0.2-0.5h6.5v0.7l-0.3,0.8c0,0.1-0.1,0.2-0.1,0.3v7.4h-2.5L93.2,47.4z M140.1,25.8c0,0.5-0.1,1-0.1,1.5
		c-0.8,0-1.9,0.1-3,0c-1.1-3.8-0.4-6.6-0.1-7.6c1.1,0,2.2,0.1,2.7,0.1c0.1,0.6,0.2,1.3,0.3,2c-0.8,0-2,0.3-2,1.8
		C137.8,25.2,139.2,25.7,140.1,25.8z M132.8,18.9c-1.9,0.6-3.4,1.9-3.9,3.6c-0.4,1.3-0.2,2.8,0.7,4c1.5,2,5.7,2.4,8.5,2.4
		c0.7,0,1.2,0,1.7,0c-0.2,1.3-0.5,2.7-0.8,4c-1-0.1-2.9-0.1-3.8,0.1c-0.9,0.2-3.6,0.7-3.5,2.9c0.1,2.2,2.5,2.6,5.1,2.6
		c0.2,0,0.3,0,0.5,0c-1,2.7-1.9,4.8-2.3,5.6h-13.9c-0.9-2.4-4.9-13.4-5.5-18.9c-0.5-3.9,0.8-8.5,3.3-11.5c1.9-2.4,4.5-3.8,7.5-4.1
		c3.6-0.3,6.8,0.6,9.1,2.8c1.7,1.6,2.9,3.7,3.7,6.2C137.7,18.4,134.9,18.2,132.8,18.9z M135.5,27.3c-2-0.2-4-0.7-4.7-1.7
		c-0.6-0.9-0.8-1.8-0.5-2.7c0.4-1.2,1.6-2.2,3-2.7c0.6-0.2,1.4-0.3,2.2-0.4C135,21.2,134.6,23.8,135.5,27.3z M135,36.2h3
		c-0.1,0.2-0.2,0.5-0.2,0.7c-4.6,0.2-4.7-0.9-4.7-1.3c0-0.7,0.7-1.1,2.4-1.5c0.6-0.1,2.1-0.1,3.2,0c-0.1,0.2-0.1,0.5-0.2,0.7H135
		c-0.4,0-0.7,0.3-0.7,0.7S134.6,36.2,135,36.2z M135.7,46.9h-14.8l0.3-1.6H135L135.7,46.9z M116.9,36h-0.7v-2.2
		C116.5,34.6,116.7,35.3,116.9,36z M120.6,48.3h15.7l2.2,5h-18.9L120.6,48.3z M140.8,31.3c0-0.2,0.1-0.4,0.1-0.6l0.5,0.6H140.8z
		 M61.1,11.6h9.5v0.7l-0.3,0.8c0,0.1-0.1,0.2-0.1,0.3v5.8c0,0.1,0,0.2,0.1,0.3c0,0,0,0.1,0,0.1h-3.7c-0.4,0-0.7,0.3-0.7,0.7v1.5
		c0,0.1,0,0.2,0.1,0.3l0.3,0.8v3.6h-3.6v-3.6L63,22c0-0.1,0.1-0.2,0.1-0.3v-1.5c0-0.4-0.3-0.7-0.7-0.7H61v-6.2c0-0.1,0-0.2-0.1-0.3
		l-0.3-0.7L61.1,11.6z M59.6,14.3v5.2h-2.9L59.6,14.3z M56,20.9h5.7v0.7l-0.3,0.8c0,0.1-0.1,0.2-0.1,0.3v3.8h-3.8
		c-0.4,0-0.7,0.3-0.7,0.7v1.5c0,0.1,0,0.2,0.1,0.3l0.3,0.8V36h-3.6v-6.3l0.3-0.8c0-0.1,0.1-0.2,0.1-0.3v-1.5c0-0.4-0.3-0.7-0.7-0.7
		h-0.3L56,20.9z M52.2,27.8c0.1,0,0.1,0,0.2,0h0.1v0.7l-0.3,0.8c0,0.1-0.1,0.2-0.1,0.3V36h-4.5L52.2,27.8z M47.4,37.4h10v0.7
		l-0.3,0.8c0,0.1-0.1,0.2-0.1,0.3v3.6h-0.4c-0.4,0-0.7,0.3-0.7,0.7V45c0,0.1,0,0.2,0.1,0.3l0.3,0.8v7.3h-3.6V46l0.3-0.8
		c0-0.1,0.1-0.2,0.1-0.3v-1.5c0-0.4-0.3-0.7-0.7-0.7h-4.6v-3.6c0-0.1,0-0.2-0.1-0.3l-0.3-0.8V37.4z M46.2,38.8l0.2,0.5v3.5H44
		L46.2,38.8z M42,46.3l1.1-2.1h8.5v0.7l-0.3,0.8c0,0.1-0.1,0.2-0.1,0.3v7.4H42V46.3z M40.6,48.8v4.5h-2.5L40.6,48.8z M74.9,101.1
		c-0.4-12.6-10.8-22.8-23.5-22.8c-12.7,0-23.1,10.2-23.5,22.8h-4c0.4-14.9,12.6-26.8,27.5-26.8s27.2,12,27.5,26.8H74.9z
		 M177.9,101.1c-0.4-12.6-10.8-22.8-23.5-22.8s-23.1,10.2-23.5,22.8h-3.8c0.4-14.9,12.6-26.8,27.5-26.8c15,0,27.2,12,27.5,26.8
		H177.9z M237.9,75.9h-15.3V65.5h15.3V75.9z M237.9,64.1h-16c-0.4,0-0.7,0.3-0.7,0.7v11.8c0,0.4,0.3,0.7,0.7,0.7h16v23.8h-54.3
		c-0.4-15.6-13.2-28.2-28.9-28.2s-28.6,12.6-28.9,28.2H80.3C80,85.4,67.1,72.8,51.4,72.8s-28.6,12.6-28.9,28.2H1.4V54.7h236.5V64.1z
		 M239.3,65.5h8.1v10.4h-8.1V65.5z M273.6,75.9h-6.8V65.5h6.8V75.9z M273.6,64.1h-7.5c-0.4,0-0.7,0.3-0.7,0.7v11.8
		c0,0.4,0.3,0.7,0.7,0.7h7.5v23.8h-34.3V77.3h8.8c0.4,0,0.7-0.3,0.7-0.7V64.8c0-0.4-0.3-0.7-0.7-0.7h-8.8v-9.4h34.3V64.1z"/>
</g>
</svg>
