<?xml version="1.0" encoding="utf-8"?>
<svg version="1.1" id="the-element-cloud-2" xmlns="http://www.w3.org/2000/svg" xmlns:xlink="http://www.w3.org/1999/xlink" x="0px"
	 y="0px" viewBox="0 0 205 85" style="enable-background:new 0 0 205 85;" xml:space="preserve">
<style type="text/css">
	.st0{fill:#FFF8EE;}
	.st1{fill:#231815;}
</style>
<g>
	<path class="st0" d="M180.3,15.5c-5.2,0-9.9,1.6-13.8,4.4c-4.4-6-11.4-10-19.5-10c-8.5,0-16,4.5-20.3,11.2C125,9.7,115,0.9,103,0.9
		c-8.6,0-16.1,4.5-20.3,11.3C78.4,5.7,71,1.4,62.7,1.4c-12.9,0-23.4,10.2-24,23c-3.9-2.9-8.8-4.6-14.1-4.6c-13.2,0-24,10.7-24,24
		c0,13.2,10.7,24,24,24c5.8,0,11.2-2.1,15.4-5.6c1,12.3,11.3,21.9,23.9,21.9c9.6,0,17.8-5.6,21.7-13.7c1.9,0.5,3.8,0.7,5.8,0.7
		c8,0,15-3.9,19.4-9.9c4,7.6,12,12.8,21.2,12.8c11,0,20.3-7.5,23.1-17.6c2-0.7,3.9-1.7,5.7-3c4.4,6,11.4,10,19.5,10
		c13.2,0,24-10.7,24-24S193.6,15.5,180.3,15.5z"/>
	<path class="st1" d="M63.9,84.8c-12.3,0-22.8-9.2-24.4-21.3c-4.3,3.2-9.5,4.9-14.8,4.9C11.1,68.5,0,57.4,0,43.8
		s11.1-24.7,24.7-24.7c4.8,0,9.4,1.4,13.4,4C39.3,10.4,49.8,0.7,62.7,0.7c8,0,15.3,3.8,20,10.2C87.3,4.2,94.8,0.2,103,0.2
		c11.5,0,21.5,8.1,24.1,19.2c4.6-6.4,12-10.1,19.9-10.1c7.7,0,15,3.6,19.6,9.7c4.1-2.7,8.8-4.1,13.7-4.1c13.6,0,24.7,11.1,24.7,24.7
		s-11.1,24.7-24.7,24.7c-7.7,0-15-3.6-19.6-9.7c-1.6,1-3.2,1.9-5,2.6c-3,10.5-12.7,17.8-23.7,17.8c-8.8,0-16.9-4.7-21.3-12.3
		c-4.7,5.8-11.8,9.3-19.3,9.3c-1.8,0-3.7-0.2-5.5-0.6C81.8,79.5,73.2,84.8,63.9,84.8z M40,61.5c0.1,0,0.2,0,0.3,0.1
		c0.2,0.1,0.4,0.3,0.4,0.6c1,11.9,11.2,21.3,23.2,21.3c9,0,17.2-5.2,21.1-13.3c0.1-0.3,0.5-0.5,0.8-0.4c1.9,0.5,3.8,0.7,5.7,0.7
		c7.4,0,14.4-3.6,18.8-9.6c0.1-0.2,0.4-0.3,0.6-0.3c0.2,0,0.5,0.2,0.6,0.4c4,7.7,11.9,12.5,20.6,12.5c10.4,0,19.7-7,22.4-17.1
		c0.1-0.2,0.2-0.4,0.4-0.5c1.9-0.7,3.8-1.7,5.5-2.9c0.3-0.2,0.7-0.2,1,0.2c4.4,6.1,11.4,9.7,18.9,9.7c12.8,0,23.3-10.4,23.3-23.3
		s-10.4-23.3-23.3-23.3c-4.8,0-9.5,1.5-13.4,4.3c-0.3,0.2-0.7,0.2-1-0.2c-4.4-6.1-11.4-9.7-18.9-9.7c-8,0-15.4,4.1-19.7,10.9
		c-0.2,0.2-0.5,0.4-0.7,0.3c-0.3-0.1-0.5-0.3-0.5-0.6C124.3,10,114.4,1.6,103,1.6c-8.1,0-15.5,4.1-19.8,11c-0.1,0.2-0.3,0.3-0.6,0.3
		c0,0,0,0,0,0c-0.2,0-0.5-0.1-0.6-0.3C77.8,6,70.5,2.1,62.7,2.1c-12.5,0-22.7,9.8-23.3,22.3c0,0.3-0.2,0.5-0.4,0.6
		c-0.2,0.1-0.5,0.1-0.7-0.1c-4-2.9-8.7-4.4-13.6-4.4C11.8,20.5,1.4,31,1.4,43.8s10.4,23.3,23.3,23.3c5.4,0,10.7-1.9,14.9-5.4
		C39.7,61.6,39.9,61.5,40,61.5z"/>
</g>
</svg>
