<?xml version="1.0" encoding="utf-8"?>
<svg version="1.1" id="the-element-common-dailogue-1" xmlns="http://www.w3.org/2000/svg" xmlns:xlink="http://www.w3.org/1999/xlink" x="0px"
	 y="0px" viewBox="0 0 370 502" style="enable-background:new 0 0 370 502;" xml:space="preserve">
<style type="text/css">
	.st0{fill:#231815;}
	.st1{fill:#FFFFFF;}
</style>
<g>
	<path class="st0" d="M369.8,91.9L300.4,0.4c-0.2-0.2-0.5-0.4-0.8-0.4h-99.1c-0.2,0-0.5,0.1-0.7,0.2l-91.5,80.1
		c-0.2,0.2-0.3,0.4-0.3,0.7L99,267.4l-44.4-21.2c-0.3-0.2-0.7-0.1-1,0.1c-0.3,0.2-0.5,0.5-0.5,0.9l1.6,42.5L1.4,265.9
		c-0.5-0.2-1,0-1.3,0.4c-0.3,0.4-0.1,1,0.3,1.3L71.6,321c0.3,0.2,0.7,0.3,1.1,0.1s0.5-0.5,0.5-0.9l-1.4-33.3l30.4,19.4l22.1,131.1
		c0,0.2,0.1,0.4,0.3,0.6l70,63.7c0.2,0.2,0.4,0.3,0.7,0.3c0.1,0,0.1,0,0.2,0l102.9-18.8c0.2,0,0.4-0.2,0.6-0.3
		c0.2-0.2,16.9-20.5,33.3-40.9c33.6-41.4,33.6-42.6,33.6-43.3c0-2.4,4-303.1,4.1-306.1C370,92.3,369.9,92.1,369.8,91.9z"/>
	<path class="st1" d="M70.2,284.1c0.3-0.2,0.7-0.2,1,0l32.4,20.7c0.2,0.2,0.4,0.4,0.4,0.7l22.1,131.2l69.4,63.1l102.1-18.6
		c25.9-31.5,64.5-79.1,66.2-82.8c0.1-7.7,3.9-289.2,4.1-305.7L299.1,2h-98.3l-90.9,79.5L101,269c0,0.3-0.2,0.6-0.5,0.8
		c-0.3,0.2-0.6,0.2-0.9,0l-44.3-21.1l1.6,42.4c0,0.3-0.2,0.7-0.4,0.9c-0.3,0.2-0.7,0.2-1,0.1L8.6,271.3l62.4,46.9l-1.4-33.1
		C69.7,284.7,69.9,284.3,70.2,284.1z"/>
</g>
</svg>
