<?xml version="1.0" encoding="utf-8"?>
<svg version="1.1" id="the-element-plant-1" xmlns="http://www.w3.org/2000/svg" xmlns:xlink="http://www.w3.org/1999/xlink" x="0px"
	 y="0px" viewBox="0 0 332 100" style="enable-background:new 0 0 332 100;" xml:space="preserve">
<style type="text/css">
	.st0{fill:#FFF8EE;}
	.st1{fill:#231815;}
</style>
<g>
	<path class="st0" d="M1,100c0,0,44.7-93.5,147.7-97.6S312.4,60.5,331,100H1z"/>
	<path class="st1" d="M31.8,78.7c-0.1,0-0.2,0-0.3-0.1c-0.3-0.2-0.5-0.6-0.3-1c3-5.4,7-10.3,11.8-14.1c0.3-0.2,0.7-0.2,1,0.1
		c0.2,0.3,0.2,0.7-0.1,1c-4.6,3.8-8.6,8.5-11.5,13.7C32.3,78.6,32.1,78.7,31.8,78.7z"/>
	<path class="st1" d="M55.5,53.8c-0.1,0-0.3,0-0.4-0.1c-0.3-0.2-0.4-0.7-0.1-1c3.6-4.7,8.4-8.1,12.9-11.3c0.7-0.5,1.4-1,2.1-1.5
		c0.3-0.2,0.8-0.2,1,0.2c0.2,0.3,0.2,0.8-0.2,1c-0.7,0.5-1.4,1-2.1,1.5C64,45.8,59.6,49,56.1,53.5C56,53.7,55.8,53.8,55.5,53.8z"/>
	<path class="st1" d="M81.7,32.2c-0.2,0-0.4-0.1-0.5-0.2c-0.3-0.3-0.2-0.7,0.1-1c4.8-4.3,10.6-7.7,16.8-9.9c0.4-0.1,0.8,0.1,0.9,0.4
		c0.1,0.4-0.1,0.8-0.4,0.9c-6,2.1-11.6,5.4-16.3,9.6C82,32.2,81.8,32.2,81.7,32.2z"/>
	<path class="st1" d="M115.3,17.6c-0.3,0-0.5-0.2-0.6-0.4c-0.2-0.4,0-0.8,0.4-0.9c8.9-3.8,19.1-4.4,28.1-4.9c0.4,0,0.7,0.3,0.7,0.7
		c0,0.4-0.3,0.7-0.7,0.7c-9.3,0.5-18.9,1.1-27.6,4.8C115.5,17.6,115.4,17.6,115.3,17.6z"/>
	<path class="st1" d="M182.2,12.5C182.2,12.5,182.1,12.5,182.2,12.5c-7.6-1.1-15.3-1.5-23-1.2c-0.4,0-0.7-0.3-0.7-0.7
		c0-0.4,0.3-0.7,0.7-0.7c7.7-0.3,15.5,0.1,23.1,1.2c0.4,0.1,0.7,0.4,0.6,0.8C182.8,12.2,182.5,12.5,182.2,12.5z"/>
	<path class="st1" d="M218.4,19.3c-0.1,0-0.1,0-0.2,0l-4.3-1.1c-5.4-1.4-10.9-2.9-16.5-3.7c-0.4-0.1-0.7-0.4-0.6-0.8
		c0.1-0.4,0.4-0.6,0.8-0.6c5.6,0.8,11.2,2.3,16.6,3.7l4.3,1.1c0.4,0.1,0.6,0.5,0.5,0.9C219,19.1,218.7,19.3,218.4,19.3z"/>
	<path class="st1" d="M255.3,35.8c-0.1,0-0.3,0-0.4-0.1c-6.8-4.3-14.1-7.6-21.8-9.9c-0.4-0.1-0.6-0.5-0.5-0.9
		c0.1-0.4,0.5-0.6,0.9-0.5c7.8,2.4,15.3,5.8,22.2,10.1c0.3,0.2,0.4,0.6,0.2,1C255.8,35.7,255.6,35.8,255.3,35.8z"/>
	<path class="st1" d="M280.6,54.7c-0.2,0-0.3-0.1-0.5-0.2c-4.2-4.1-9-7.5-14.2-10.3c-0.3-0.2-0.5-0.6-0.3-0.9
		c0.2-0.3,0.6-0.5,0.9-0.3c5.3,2.8,10.2,6.3,14.5,10.5c0.3,0.3,0.3,0.7,0,1C280.9,54.7,280.8,54.7,280.6,54.7z"/>
	<path class="st1" d="M303.1,76.1c-0.2,0-0.4-0.1-0.5-0.2c-4.3-4.8-9.3-9.1-14.6-12.8c-0.3-0.2-0.4-0.7-0.2-1c0.2-0.3,0.7-0.4,1-0.2
		c5.4,3.7,10.4,8.1,14.8,13c0.3,0.3,0.2,0.7-0.1,1C303.4,76,303.2,76.1,303.1,76.1z"/>
	<path class="st1" d="M312.1,95.2c-0.2,0-0.5-0.1-0.6-0.3c-2.4-3.9-5.1-7.6-8-11.1c-0.2-0.3-0.2-0.7,0.1-1c0.3-0.2,0.7-0.2,1,0.1
		c3,3.6,5.7,7.3,8.2,11.3c0.2,0.3,0.1,0.8-0.2,1C312.4,95.2,312.2,95.2,312.1,95.2z"/>
	<path class="st1" d="M32.1,92.3c-0.1,0-0.2,0-0.4-0.1c-0.3-0.2-0.4-0.6-0.2-1c2.8-4.7,6.4-8.9,10.5-12.5c0.3-0.2,0.7-0.2,1,0.1
		c0.3,0.3,0.2,0.7-0.1,1c-4.1,3.5-7.5,7.6-10.3,12.1C32.5,92.1,32.3,92.3,32.1,92.3z"/>
	<path class="st1" d="M55.2,67.1c-0.1,0-0.3,0-0.4-0.1c-0.3-0.2-0.4-0.7-0.1-1c1-1.4,3.9-4.7,8.1-6.7c0.3-0.2,0.8,0,0.9,0.3
		c0.2,0.3,0,0.8-0.3,0.9c-2.7,1.3-5.5,3.6-7.6,6.3C55.6,67,55.4,67.1,55.2,67.1z"/>
	<path class="st1" d="M74.6,51.2c-0.2,0-0.4-0.1-0.5-0.2c-0.2-0.3-0.2-0.7,0.1-1c6.2-5.3,12.1-9,20.4-12.9c0.3-0.2,0.8,0,0.9,0.3
		c0.2,0.4,0,0.8-0.3,0.9c-8.2,3.8-14,7.5-20.1,12.7C74.9,51.2,74.8,51.2,74.6,51.2z"/>
	<path class="st1" d="M109.6,31.8c-0.3,0-0.5-0.1-0.6-0.4c-0.2-0.3,0-0.8,0.3-0.9c8.3-4.3,19.7-7,28.9-6.8c0.4,0,0.7,0.3,0.7,0.7
		c0,0.4-0.4,0.7-0.7,0.7c-10.2-0.2-21.5,3.2-28.2,6.6C109.8,31.7,109.7,31.8,109.6,31.8z"/>
	<path class="st1" d="M150.4,24.8c-0.3,0-0.6-0.2-0.7-0.5c-0.1-0.4,0.1-0.8,0.5-0.9c5.6-1.4,11.6-1.7,17.2-0.9
		c0.4,0.1,0.6,0.4,0.6,0.8c-0.1,0.4-0.4,0.7-0.8,0.6c-5.5-0.8-11.3-0.5-16.7,0.9C150.5,24.7,150.4,24.8,150.4,24.8z"/>
	<path class="st1" d="M210.1,30.8c-0.1,0-0.2,0-0.3-0.1c-7.9-4.2-17.8-6.2-29.3-6c-0.4,0-0.7-0.3-0.7-0.7c0-0.4,0.3-0.7,0.7-0.7
		c11.7-0.2,21.9,1.9,30,6.1c0.3,0.2,0.5,0.6,0.3,0.9C210.6,30.7,210.3,30.8,210.1,30.8z"/>
	<path class="st1" d="M230.5,39.7c-0.2,0-0.3-0.1-0.5-0.2c-2.2-2-5-3.4-8.2-4.1c-0.4-0.1-0.6-0.5-0.5-0.8c0.1-0.4,0.5-0.6,0.8-0.5
		c3.5,0.8,6.4,2.3,8.8,4.5c0.3,0.3,0.3,0.7,0.1,1C230.9,39.6,230.7,39.7,230.5,39.7z"/>
	<path class="st1" d="M251.9,48c-0.1,0-0.3,0-0.4-0.1c-3.6-2.7-7.6-5-11.9-6.7c-0.4-0.1-0.5-0.5-0.4-0.9c0.1-0.4,0.5-0.5,0.9-0.4
		c4.3,1.7,8.4,4,12.2,6.8c0.3,0.2,0.4,0.7,0.1,1C252.3,47.9,252.1,48,251.9,48z"/>
	<path class="st1" d="M278.4,68.6c-0.2,0-0.3-0.1-0.5-0.2c-5.7-5.3-12.1-10-18.8-13.9c-0.3-0.2-0.5-0.6-0.3-1c0.2-0.3,0.6-0.5,1-0.3
		c6.9,4,13.3,8.7,19.1,14c0.3,0.3,0.3,0.7,0,1C278.8,68.6,278.6,68.6,278.4,68.6z"/>
	<path class="st1" d="M282.7,84.2c-0.2,0-0.4-0.1-0.5-0.2c-3.6-4.1-7.8-7.7-12.3-10.7c-0.3-0.2-0.4-0.6-0.2-1c0.2-0.3,0.6-0.4,1-0.2
		c4.7,3.1,8.9,6.7,12.6,10.9c0.3,0.3,0.2,0.7-0.1,1C283,84.2,282.8,84.2,282.7,84.2z"/>
	<path class="st1" d="M132.1,41.2c-0.3,0-0.6-0.2-0.7-0.6c-0.1-0.4,0.2-0.7,0.5-0.8c6.8-1.4,13.7-2.3,20.6-2.8
		c3.4-0.2,7.3-0.4,11.1,0.6c0.4,0.1,0.6,0.5,0.5,0.9c-0.1,0.4-0.5,0.6-0.9,0.5c-3.6-0.9-7.4-0.8-10.7-0.6
		c-6.8,0.4-13.7,1.4-20.4,2.8C132.2,41.2,132.1,41.2,132.1,41.2z"/>
	<path class="st1" d="M193,39.4c-0.1,0-0.1,0-0.2,0c-4.5-1.1-9.1-1.5-13.7-1.2c-0.4,0-0.7-0.3-0.7-0.7c0-0.4,0.3-0.7,0.7-0.7
		c4.7-0.3,9.5,0.1,14.1,1.2c0.4,0.1,0.6,0.5,0.5,0.8C193.6,39.2,193.3,39.4,193,39.4z"/>
	<path class="st1" d="M234.4,54.5c-0.1,0-0.3,0-0.4-0.1c-7.4-5.3-16.2-8.4-24.6-11.3c-0.4-0.1-0.6-0.5-0.4-0.9
		c0.1-0.4,0.5-0.6,0.9-0.4c8.6,3,17.4,6.1,25,11.5c0.3,0.2,0.4,0.7,0.2,1C234.8,54.4,234.6,54.5,234.4,54.5z"/>
	<path class="st1" d="M254,70.9c-0.2,0-0.4-0.1-0.5-0.2c-3.1-3.3-8-6.6-11.8-7.9c-0.4-0.1-0.6-0.5-0.4-0.9c0.1-0.4,0.5-0.6,0.9-0.4
		c4,1.4,9.1,4.8,12.3,8.3c0.3,0.3,0.2,0.7,0,1C254.3,70.9,254.2,70.9,254,70.9z"/>
	<path class="st1" d="M147.7,53.6c-0.3,0-0.6-0.2-0.7-0.6c-0.1-0.4,0.2-0.7,0.6-0.8c7.6-1.5,15.3-1.8,22.9-0.9
		c0.4,0,0.7,0.4,0.6,0.8c0,0.4-0.4,0.7-0.8,0.6c-7.5-0.8-15.1-0.6-22.5,0.9C147.8,53.6,147.8,53.6,147.7,53.6z"/>
	<path class="st1" d="M207.4,60.7c-0.1,0-0.2,0-0.3-0.1c-7.5-4-15.9-6.3-24.4-6.7c-0.4,0-0.7-0.3-0.7-0.7c0-0.4,0.4-0.7,0.7-0.7
		c8.7,0.4,17.3,2.8,25,6.9c0.3,0.2,0.5,0.6,0.3,0.9C207.9,60.5,207.7,60.7,207.4,60.7z"/>
	<path class="st1" d="M138.6,92.4c-0.1,0-0.1,0-0.2,0c-0.4-0.1-0.6-0.5-0.5-0.9c0.9-3.2,3.2-5.9,6.1-7.4c0.3-0.2,0.8-0.1,0.9,0.3
		c0.2,0.3,0.1,0.8-0.3,0.9c-2.6,1.4-4.6,3.8-5.4,6.6C139.2,92.2,138.9,92.4,138.6,92.4z"/>
	<path class="st1" d="M156.6,87.8c-0.3,0-0.5-0.2-0.6-0.4c-0.2-0.4,0-0.8,0.4-0.9c9-3.9,18.9-4.2,27.9-0.7c0.4,0.1,0.5,0.5,0.4,0.9
		c-0.1,0.4-0.5,0.5-0.9,0.4c-8.7-3.3-18.2-3.1-26.9,0.7C156.8,87.8,156.7,87.8,156.6,87.8z"/>
	<path class="st1" d="M186.1,77.7c-0.1,0-0.1,0-0.2,0c-6.7-2-13.8-2.1-20.5-0.4c-0.4,0.1-0.8-0.1-0.9-0.5c-0.1-0.4,0.1-0.8,0.5-0.9
		c7-1.8,14.4-1.7,21.3,0.4c0.4,0.1,0.6,0.5,0.5,0.9C186.7,77.5,186.4,77.7,186.1,77.7z"/>
	<path class="st1" d="M205.6,88.2c-0.2,0-0.3,0-0.4-0.1c-3.9-3-8.4-5.2-13.2-6.4c-0.4-0.1-0.6-0.5-0.5-0.8c0.1-0.4,0.5-0.6,0.8-0.5
		c5,1.2,9.7,3.5,13.7,6.6c0.3,0.2,0.4,0.7,0.1,1C206,88.1,205.8,88.2,205.6,88.2z"/>
	<path class="st1" d="M183.1,95.2c-0.1,0-0.2,0-0.3-0.1c-4.9-2.1-10.4-2.4-15.5-1.1c-0.4,0.1-0.8-0.1-0.9-0.5
		c-0.1-0.4,0.1-0.8,0.5-0.9c5.4-1.5,11.2-1.1,16.4,1.1c0.4,0.2,0.5,0.6,0.4,0.9C183.7,95.1,183.4,95.2,183.1,95.2z"/>
	<path class="st1" d="M193.6,68.4c-0.1,0-0.2,0-0.3-0.1c-6.5-3.2-15.5-4.1-24-2.6c-0.4,0.1-0.7-0.2-0.8-0.6
		c-0.1-0.4,0.2-0.7,0.6-0.8c8.9-1.6,18-0.6,24.9,2.7c0.3,0.2,0.5,0.6,0.3,0.9C194.1,68.3,193.9,68.4,193.6,68.4z"/>
	<path class="st1" d="M217.1,83c-0.2,0-0.3-0.1-0.4-0.2c-4.1-3.4-8.8-5.9-13.9-7.6c-0.4-0.1-0.6-0.5-0.4-0.9
		c0.1-0.4,0.5-0.6,0.9-0.4c5.2,1.8,10,4.4,14.3,7.9c0.3,0.2,0.3,0.7,0.1,1C217.5,82.9,217.3,83,217.1,83z"/>
	<path class="st1" d="M230.5,76.7c-0.1,0-0.3,0-0.4-0.1c-3.8-2.5-7.9-4.7-12.1-6.5c-0.4-0.1-0.5-0.6-0.4-0.9
		c0.1-0.4,0.6-0.5,0.9-0.4c4.3,1.8,8.5,4,12.4,6.6c0.3,0.2,0.4,0.6,0.2,1C230.9,76.6,230.7,76.7,230.5,76.7z"/>
	<path class="st1" d="M239.7,95.3c-0.2,0-0.4-0.1-0.5-0.2c-3.3-3.2-7-5.9-11-8.1c-0.3-0.2-0.5-0.6-0.3-1c0.2-0.3,0.6-0.5,1-0.3
		c4.1,2.3,7.9,5.1,11.2,8.3c0.3,0.3,0.3,0.7,0,1C240.1,95.3,239.9,95.3,239.7,95.3z"/>
	<path class="st1" d="M261.3,91.5c-0.2,0-0.3-0.1-0.5-0.2c-5.6-5.2-11.8-9.7-18.4-13.4c-0.3-0.2-0.5-0.6-0.3-1
		c0.2-0.3,0.6-0.5,1-0.3c6.7,3.8,13,8.4,18.7,13.6c0.3,0.3,0.3,0.7,0,1C261.7,91.4,261.5,91.5,261.3,91.5z"/>
	<path class="st1" d="M225.3,61.3c-0.2,0-0.4-0.1-0.5-0.2c-2.4-2.3-5.3-3.4-8.1-4.3c-0.4-0.1-0.6-0.5-0.5-0.9
		c0.1-0.4,0.5-0.6,0.9-0.5c2.9,0.9,6,2.1,8.6,4.6c0.3,0.3,0.3,0.7,0,1C225.6,61.2,225.4,61.3,225.3,61.3z"/>
	<path class="st1" d="M72.1,71.7c-0.1,0-0.3,0-0.4-0.1c-0.3-0.2-0.4-0.7-0.2-1c2.6-3.6,6.7-6.7,12.5-9.5c0.3-0.2,0.8,0,0.9,0.3
		c0.2,0.3,0,0.8-0.3,0.9c-5.6,2.7-9.5,5.7-12,9.1C72.6,71.6,72.3,71.7,72.1,71.7z"/>
	<path class="st1" d="M93.5,56.1c-0.2,0-0.4-0.1-0.6-0.3c-0.2-0.3-0.2-0.7,0.1-1c7.3-5.6,15.8-9.5,24.8-11.4
		c0.4-0.1,0.7,0.2,0.8,0.5c0.1,0.4-0.2,0.7-0.5,0.8c-8.8,1.8-17.1,5.7-24.2,11.1C93.8,56,93.6,56.1,93.5,56.1z"/>
	<path class="st1" d="M113.3,61.6c-0.2,0-0.4-0.1-0.6-0.3c-0.2-0.3-0.1-0.8,0.2-1c3.4-2.3,7.6-3.9,13.1-4.8c0.4-0.1,0.7,0.2,0.8,0.6
		c0.1,0.4-0.2,0.7-0.6,0.8c-5.3,0.9-9.3,2.4-12.6,4.6C113.6,61.5,113.5,61.6,113.3,61.6z"/>
	<path class="st1" d="M81,85.8c-0.2,0-0.3-0.1-0.5-0.2c-0.3-0.3-0.3-0.7,0-1C85.7,78.9,92,74.1,99,70.5c0.3-0.2,0.8,0,0.9,0.3
		c0.2,0.3,0,0.8-0.3,0.9c-6.8,3.5-12.9,8.2-18.1,13.8C81.3,85.7,81.1,85.8,81,85.8z"/>
	<path class="st1" d="M55.8,92c-0.1,0-0.1,0-0.2,0c-0.4-0.1-0.6-0.5-0.5-0.9c1.6-5.1,5.2-9.5,9.8-12.1c0.3-0.2,0.8-0.1,1,0.3
		c0.2,0.3,0.1,0.8-0.3,1c-4.4,2.4-7.7,6.5-9.2,11.3C56.4,91.9,56.1,92,55.8,92z"/>
	<path class="st1" d="M89,95.7c-0.2,0-0.4-0.1-0.5-0.2c-0.2-0.2-0.3-0.6-0.1-0.9c2.5-3.5,5.4-6.7,8.7-9.5c0.3-0.2,0.7-0.2,1,0.1
		c0.2,0.3,0.2,0.7-0.1,1c-2.8,2.4-5.4,5.1-7.6,8c0,0,0,0,0,0.1c-0.2,0.5-0.6,1-1,1.3C89.3,95.7,89.2,95.7,89,95.7z"/>
	<path class="st1" d="M116.2,75.1c-0.2,0-0.4-0.1-0.5-0.3c-0.2-0.3-0.2-0.7,0.1-1c7.9-6.4,17.9-10.6,28-11.8c0.4,0,0.7,0.2,0.8,0.6
		c0,0.4-0.2,0.7-0.6,0.8c-9.9,1.2-19.6,5.2-27.3,11.5C116.5,75,116.3,75.1,116.2,75.1z"/>
	<path class="st1" d="M116.3,94.1c-0.1,0-0.2,0-0.3,0c-0.4-0.1-0.5-0.5-0.4-0.9c1.2-3,3.3-5.8,6.3-8.3c2.7-2.2,5.7-4,8.6-5.7
		c0.3-0.2,0.8-0.1,1,0.3c0.2,0.3,0.1,0.8-0.3,1c-2.9,1.7-5.9,3.4-8.4,5.6c-2.9,2.4-4.9,5-5.9,7.8C116.8,93.9,116.6,94.1,116.3,94.1z
		"/>
	<path class="st1" d="M141.2,75.1c-0.2,0-0.5-0.1-0.6-0.3c-0.2-0.3-0.1-0.8,0.2-1c4.2-2.6,6.7-3.6,12.3-4.2c0.4,0,0.7,0.2,0.8,0.6
		c0,0.4-0.2,0.7-0.6,0.8c-5.4,0.6-7.6,1.5-11.7,4C141.5,75.1,141.4,75.1,141.2,75.1z"/>
	<path class="st1" d="M331.3,100H0.7c-0.2,0-0.5-0.1-0.6-0.3C0,99.5,0,99.2,0.1,99c0.1-0.2,11.5-23.8,35.4-47.4
		C57.6,29.7,95.1,3.1,148.6,1c45.5-1.8,88.2,9.4,123.4,32.6c26.3,17.2,48.7,41.7,59.9,65.4c0.1,0.2,0.1,0.5,0,0.7
		C331.8,99.9,331.5,100,331.3,100z M1.8,98.6h328.3c-11.3-23.2-33.2-47-58.9-63.9c-35-23-77.4-34.1-122.6-32.3
		C95.6,4.5,58.4,30.8,36.5,52.5C15.5,73.3,4.3,93.9,1.8,98.6z"/>
</g>
</svg>
