<?xml version="1.0" encoding="utf-8"?>
<svg version="1.1" id="the-element-walkman-1" xmlns="http://www.w3.org/2000/svg" xmlns:xlink="http://www.w3.org/1999/xlink" x="0px"
	 y="0px" viewBox="0 0 110 189" style="enable-background:new 0 0 110 189;" xml:space="preserve">
<style type="text/css">
	.st0{fill:#FFF8EE;}
	.st1{fill:#97D2CE;}
	.st2{fill:#F4AEB6;}
	.st3{fill:#E84572;}
	.st4{fill:#121659;}
	.st5{fill:#231815;}
</style>
<g>
	<rect x="46.5" y="20.2" class="st0" width="12.8" height="15.2"/>
	<g>
		<g>
			<g id="XMLID_150_">
				<g>
					<path class="st1" d="M47.1,32.6c-1.9,0.3-4.2,0.4-7,0.4c-0.1-0.3-0.1-0.6-0.2-1c-0.2-1.1-0.4-2.2-0.5-3.3l0.4,1.9
						c1.6,0,3-1.3,3-3c0-1.6-1.3-3-3-3c-0.3,0-0.5,0-0.8,0.1c-0.1-0.9-0.1-1.7-0.1-2.5h0.1c0,0,3.5-0.4,7.4-0.3
						C46.7,22.4,49,26,47.1,32.6L47.1,32.6z"/>
					<path class="st2" d="M101.1,120.8l-3.3-5.2c0,0.2-0.7,4.1-1.9,4.3c-1,0.2-1.4-0.9-1.2-2.2c0.2-1.3,0.8-7.1,0.8-7.1l5-3.4
						c0,0,7,1.7,7.6,1.9c1.4,0.5,1.7,1.2,1.1,1.9c-0.7,0.8-4.6,0-4.6,0s3.3,4.6,3.7,5.1c0.4,0.6,0.7,1.6-0.2,2.3
						c-0.9,0.7-2.1-0.6-2.1-0.6c0.7,0.9,0.5,1.8-0.3,2.3c-1,0.6-2-0.6-2.1-0.8c0.4,0.6,0.7,1.8-0.2,2.3
						C102.1,122.4,101.1,120.8,101.1,120.8z"/>
					<path class="st0" d="M47.3,186.3H39v-0.9c0-3.6,2.5-5.6,5.1-5.6c0.5,0,1.1,0.1,1.7,0.2C45.8,180,47.3,182.2,47.3,186.3z"/>
					<polygon class="st0" points="64,186.3 64,188.3 39,188.3 39,186.3 47.3,186.3 					"/>
					<polygon class="st0" points="80.3,181.8 94.8,173.5 95.8,175.3 74.2,187.7 73.2,185.9 					"/>
					<path class="st0" d="M80.3,181.8l-7.2,4.1l-0.4-0.8c-1.8-3.1-0.6-6.2,1.6-7.4c0.5-0.3,1-0.5,1.5-0.7
						C75.9,177.1,78.3,178.3,80.3,181.8z"/>
					<path class="st3" d="M54.9,184.4c0.4,0,0.8-0.4,0.8-0.8c0-0.4-0.4-0.8-0.8-0.8s-0.8,0.4-0.8,0.8
						C54.1,184,54.4,184.4,54.9,184.4z M57.7,183.6c0-0.4-0.4-0.8-0.8-0.8s-0.8,0.4-0.8,0.8c0,0.4,0.4,0.8,0.8,0.8
						S57.7,184,57.7,183.6z M64,186.3H47.3c0-4.1-1.5-6.3-1.5-6.3c2.1,0.3,4.2,1,5.1,0.9c1.1-0.1,1.4-1.8,1.9-2.3
						c0.5-0.5,2.7,0,2.7,0s2.8,0.3,2.8,2.1c0,1.7,3,1.5,3,1.5v-2.4c3,0.4,2.6,2.3,2.6,2.3V186.3z"/>
					<path class="st3" d="M87.7,175.4c0.4-0.2,0.5-0.7,0.3-1.1c-0.2-0.4-0.7-0.5-1.1-0.3c-0.4,0.2-0.5,0.7-0.3,1.1
						C86.8,175.5,87.3,175.6,87.7,175.4z M86.2,175.3c-0.2-0.4-0.7-0.5-1.1-0.3c-0.4,0.2-0.5,0.7-0.3,1.1c0.2,0.4,0.7,0.5,1.1,0.3
						C86.3,176.1,86.4,175.7,86.2,175.3z M94.8,173.5l-14.5,8.3c-2-3.5-4.4-4.7-4.4-4.7c2-0.8,4.1-1.2,4.9-1.7
						c0.9-0.7,0.3-2.3,0.6-2.9c0.2-0.7,2.3-1.3,2.3-1.3s2.6-1.1,3.5,0.4c0.9,1.5,3.4-0.2,3.4-0.2l-1.2-2.1c2.8-1.1,3.4,0.7,3.4,0.7
						L94.8,173.5z"/>
					<polygon class="st4" points="87.9,162.5 86.1,163.5 81,166.5 81,166.5 79.3,167.6 68.2,155.5 75,117.2 					"/>
					<polygon class="st4" points="55.5,173.4 51.7,173.4 41.4,117.2 75,117.2 68.2,155.5 65.1,173.4 61.4,173.4 					"/>
					<path class="st1" d="M67.1,62c10.3,0,9.4,21.4,9.4,21.4v33.8H75H41.4h-1.5c0,0,0-10.8,0-25.1c0-2.7,0-5.6,0-8.5
						c0-8.7,2.2-14,4.5-17.2c0,0,0-0.1,0-0.1c2.5-3.4,5.1-4.3,5.1-4.3H67.1z"/>
					<path class="st1" d="M44.4,66.3c-2.3,3.2-4.5,8.5-4.5,17.2c0,2.9,0,5.8,0,8.5c0,0-12.9,3.9-20.7-1.4C5.6,81.6,6,64.6,6,64.6
						h0.2h6.5c0,0,3.9,14.2,12.2,14.3C32.9,79.1,43.6,67.2,44.4,66.3z"/>
					<path class="st2" d="M89.3,169.2l1.2,2.1c0,0-2.5,1.7-3.4,0.2c-0.9-1.5-3.5-0.4-3.5-0.4l-2.6-4.6v0l5-3v0L89.3,169.2z"/>
					<path class="st2" d="M61.4,179.8v2.4c0,0-3,0.3-3-1.5c0-1.7-2.8-2.1-2.8-2.1v-5.2h5.8V179.8z"/>
					<polygon class="st2" points="67.1,57.5 67.1,62 49.5,62 49.5,57.5 58.3,57.5 					"/>
					<path class="st2" d="M6.6,51.3c1.1,0,1.4,1.7,1.4,1.7c-0.1-1.1,0.6-1.8,1.5-1.7c1.1,0.1,1.3,1.6,1.3,1.8c0-0.8,0.5-1.9,1.5-1.8
						c1.3,0.1,1.2,2,1.2,2l-0.2,6.2c0.1-0.1,2.9-2.9,4-2.5c0.9,0.4,0.7,1.5-0.2,2.5c-0.9,0.9-4.5,5.1-4.5,5.1H6.2v-0.2
						c0,0-4.5-4.9-4.9-5.4c-0.8-1.2-0.7-2,0.1-2.2c1.1-0.3,3.8,2.6,3.8,2.6s-0.1-5.6-0.1-6.3C5.1,52.4,5.5,51.4,6.6,51.3z"/>
					<path class="st2" d="M44.9,48L44.9,48c-0.9-1.9-1.7-4.1-2.5-6.4l0.1,0h8.1c0,0,3.8-0.1,3.8,3.4c0,2.9-3.8,3-3.8,3H44.9z"/>
					<path class="st2" d="M40.1,33.1c0.4,2.2,1,4.3,1.6,6.3c-2.5,0.7-5.2-0.2-5.2-0.2l3.4-7C40,32.4,40.1,32.8,40.1,33.1z"/>
					<path class="st2" d="M77.2,29.3c0,0,3.6-1.1,3.6,3.5c0,4.6-5.2,4.6-5.3,4.6h0C76.2,34.9,76.8,32.1,77.2,29.3z"/>
					<path class="st2" d="M46.5,22.1c-3.9-0.1-7.4,0.3-7.4,0.3H39c0-3.2,0.6-5.9,1.4-8.3H60c0,0,8-0.4,9.8,8.9
						c0.9,4.5,7.6,4.7,7.6,4.7c-0.1,0.5-0.1,1.1-0.2,1.6c-0.4,2.8-1,5.6-1.7,8.1c-3.1,11.6-8.4,20.1-8.4,20.1h-0.1h-8.7h-8.8
						c0,0-2.3-3.7-4.7-9.5l0,0h5.8c0,0,3.8-0.1,3.8-3c0-3.5-3.8-3.4-3.8-3.4h-8.1l-0.1,0c-0.2-0.8-0.5-1.5-0.7-2.3
						c-0.6-2-1.1-4.1-1.6-6.3c2.8,0,5.1-0.2,7-0.4c10.3-1.4,9.6-5.7,9.6-5.7C56.5,23.3,51.2,22.3,46.5,22.1z"/>
					<path class="st3" d="M58.3,1.8c9.5,0,20.6,6.7,19.3,23.8c0,0.7-0.1,1.4-0.2,2.1c0,0-6.8-0.1-7.6-4.7C68,13.7,60,14.1,60,14.1
						H40.4C43.5,5.4,51.4,1.8,58.3,1.8z"/>
					<path class="st5" d="M87.7,175.4c-0.4,0.2-0.9,0.1-1.1-0.3c-0.2-0.4-0.1-0.9,0.3-1.1c0.4-0.2,0.9-0.1,1.1,0.3
						C88.2,174.7,88,175.1,87.7,175.4z"/>
					<path class="st5" d="M86.2,175.3c0.2,0.4,0.1,0.9-0.3,1.1c-0.4,0.2-0.9,0.1-1.1-0.3c-0.2-0.4-0.1-0.9,0.3-1.1
						C85.5,174.8,86,174.9,86.2,175.3z"/>
					<circle class="st5" cx="56.9" cy="183.6" r="0.8"/>
					<circle class="st5" cx="54.9" cy="183.6" r="0.8"/>
					<path class="st5" d="M39.4,28.8c-0.1-1-0.3-2.1-0.3-3.2c0-0.2,0-0.5,0-0.7c0.2-0.1,0.5-0.1,0.8-0.1c1.6,0,3,1.3,3,3
						c0,1.6-1.3,3-3,3L39.4,28.8L39.4,28.8z"/>
					<path class="st5" d="M39.4,28.8l-0.8-3.7c0.1-0.1,0.2-0.1,0.4-0.1c0,0.2,0,0.5,0,0.7C39.1,26.7,39.3,27.7,39.4,28.8z"/>
				</g>
				<g>
					<path class="st5" d="M67.1,58.2H49.5c-0.2,0-0.5-0.1-0.6-0.3c-0.1-0.2-2.3-3.8-4.8-9.6c-0.9-2.1-1.7-4.2-2.4-6.5
						c-0.2-0.8-0.5-1.5-0.7-2.4c-0.6-2.1-1.2-4.2-1.6-6.3l-0.2-1C39,31.1,38.9,30,38.7,29c0,0,0,0,0,0C38.6,27,38.3,25,38.3,25
						c-0.1-0.9-0.1-1.8-0.1-2.6c0-3.1,0.5-6,1.5-8.5C43.1,4.5,51.6,1.1,58.3,1.1c5.7,0,11,2.2,14.7,6.2c4.1,4.4,5.9,10.7,5.3,18.4
						c-0.1,0.7-0.1,1.4-0.2,2.1c-0.1,0.5-0.1,1.1-0.2,1.6c-0.4,2.7-0.9,5.4-1.7,8.2c-3.1,11.6-8.4,20.2-8.5,20.3
						C67.6,58.1,67.4,58.2,67.1,58.2z M49.9,56.9h16.8c1-1.7,5.4-9.5,8.1-19.6c0.7-2.7,1.3-5.4,1.7-8.1c0.1-0.5,0.1-1.1,0.2-1.6
						c0.1-0.7,0.2-1.4,0.2-2.1c0.6-7.2-1.1-13.2-4.9-17.3c-3.4-3.6-8.3-5.7-13.6-5.7C52,2.5,44.2,5.6,41,14.3
						c-0.9,2.4-1.3,5.1-1.4,8.1c0,0.8,0,1.6,0.1,2.4l0,0c0,0,0.2,2,0.4,3.9c0.1,1,0.3,2.1,0.5,3.2l0.2,1c0.4,2.1,0.9,4.1,1.6,6.2
						c0.2,0.8,0.5,1.6,0.7,2.3c0.7,2.2,1.5,4.3,2.4,6.3C47.4,52.5,49.3,55.8,49.9,56.9z"/>
					<path class="st5" d="M39.7,40.3c-1.8,0-3.3-0.5-3.4-0.5c-0.2-0.1-0.3-0.2-0.4-0.4c-0.1-0.2-0.1-0.4,0-0.6l3.4-7
						c0.2-0.3,0.6-0.5,0.9-0.3c0.3,0.2,0.5,0.6,0.3,0.9l-3,6.2c0.9,0.2,2.5,0.4,4,0c0.4-0.1,0.7,0.1,0.9,0.5
						c0.1,0.4-0.1,0.7-0.5,0.9C41.1,40.2,40.4,40.3,39.7,40.3z"/>
					<path class="st5" d="M44.9,48.7c-0.4,0-0.7-0.3-0.7-0.7s0.3-0.7,0.7-0.7h5.8c0.1,0,3.2-0.1,3.2-2.3c0-0.8-0.2-1.4-0.7-1.9
						c-0.9-0.9-2.4-0.9-2.5-0.9h-8.1c-0.4,0-0.7-0.3-0.7-0.7s0.3-0.7,0.7-0.7h8.1c0.1,0,2.1,0,3.4,1.3c0.7,0.7,1.1,1.7,1.1,2.9
						c0,2.8-3,3.6-4.5,3.7H44.9z"/>
					<path class="st5" d="M50.9,45.6h-7.3c-0.4,0-0.7-0.3-0.7-0.7s0.3-0.7,0.7-0.7h7.3c0.4,0,0.7,0.3,0.7,0.7S51.3,45.6,50.9,45.6z"
						/>
					<path class="st5" d="M75.5,38.1c-0.4,0-0.7-0.3-0.7-0.7c0-0.4,0.3-0.7,0.7-0.7c0.2,0,4.6-0.1,4.6-3.9c0-1.3-0.3-2.2-0.9-2.6
						c-0.8-0.6-1.8-0.3-1.8-0.3c-0.4,0.1-0.8-0.1-0.9-0.5c-0.1-0.4,0.1-0.7,0.5-0.9c0.1,0,1.7-0.5,3.1,0.5c1,0.7,1.4,2,1.4,3.7
						C81.5,37,77.6,38.1,75.5,38.1z"/>
					<path class="st5" d="M39.9,33.8c-0.4,0-0.7-0.3-0.7-0.7s0.3-0.7,0.7-0.7h0.2c2.5,0,4.8-0.2,6.9-0.4c9.3-1.3,9-4.8,9-4.9
						c-0.1-3.4-6-4.1-9.5-4.3c-3.8-0.1-7.2,0.3-7.3,0.3c-0.4,0-0.7-0.2-0.8-0.6s0.2-0.7,0.6-0.8c0.1,0,3.6-0.4,7.5-0.3
						c8.8,0.3,10.8,3.2,10.9,5.5c0,0,0.2,1.1-0.8,2.4c-1.5,2-4.6,3.3-9.4,4c-2.1,0.3-4.5,0.4-7.1,0.5H39.9z"/>
					<path class="st5" d="M47.1,33.3c-0.1,0-0.1,0-0.2,0c-0.4-0.1-0.6-0.5-0.5-0.9c1.8-6.1-0.3-9.5-0.5-9.9
						c-0.2-0.3-0.2-0.7,0.1-0.9c0.3-0.3,0.7-0.3,1,0l0,0c0,0,0.1,0.1,0.1,0.1c0.5,0.7,2.6,4.5,0.7,11.1
						C47.7,33.1,47.4,33.3,47.1,33.3z"/>
					<path class="st5" d="M77.4,28.4C77.4,28.4,77.4,28.4,77.4,28.4c-0.3,0-7.3-0.2-8.3-5.2c-1.7-8.7-8.8-8.4-9.1-8.4l-19.6,0
						c-0.4,0-0.7-0.3-0.7-0.7s0.3-0.7,0.7-0.7H60c0,0,8.6-0.3,10.5,9.5c0.8,3.9,6.9,4.1,7,4.1c0.4,0,0.7,0.3,0.7,0.7
						C78.1,28.1,77.8,28.4,77.4,28.4z"/>
					<path class="st5" d="M67.1,62.7H49.5c-0.4,0-0.7-0.3-0.7-0.7v-4.5c0-0.4,0.3-0.7,0.7-0.7s0.7,0.3,0.7,0.7v3.8h16.1v-3.8
						c0-0.4,0.3-0.7,0.7-0.7s0.7,0.3,0.7,0.7V62C67.8,62.4,67.4,62.7,67.1,62.7z"/>
					<path class="st5" d="M76.5,117.9H39.8c-0.4,0-0.7-0.3-0.7-0.7V83.5c0-7.5,1.6-13.4,4.7-17.6c0.2-0.3,0.7-0.4,1-0.1
						c0.3,0.2,0.4,0.7,0.1,1c-2,2.7-4.4,7.9-4.4,16.8v32.9h35.3V83.4c0-0.2,0.5-13.7-4.4-18.8c-1.2-1.3-2.6-1.9-4.3-1.9
						c-0.4,0-0.7-0.3-0.7-0.7s0.3-0.7,0.7-0.7c2.1,0,3.9,0.8,5.3,2.3c5.3,5.5,4.8,19.2,4.8,19.8l0,33.8
						C77.2,117.5,76.9,117.9,76.5,117.9z"/>
					<path class="st5" d="M44.4,67c-0.1,0-0.3,0-0.4-0.1c-0.3-0.2-0.4-0.7-0.1-1c2.6-3.5,5.3-4.5,5.4-4.5c0.4-0.1,0.8,0.1,0.9,0.4
						c0.1,0.4-0.1,0.8-0.4,0.9c-0.1,0-2.5,0.9-4.8,4C44.8,66.9,44.6,67,44.4,67z"/>
					<path class="st5" d="M79.3,168.3c-0.2,0-0.4-0.1-0.5-0.2l-11-12.1c-0.3-0.3-0.2-0.7,0-1c0.3-0.3,0.7-0.2,1,0l10.6,11.7l1.3-0.8
						c0.3-0.2,0.8-0.1,0.9,0.2c0.2,0.3,0.1,0.8-0.2,0.9l-1.8,1C79.5,168.2,79.4,168.3,79.3,168.3z"/>
					<path class="st5" d="M65.1,174.1H51.7c-0.3,0-0.6-0.2-0.7-0.6l-10.3-56.2c-0.1-0.4,0.2-0.7,0.6-0.8c0.4-0.1,0.7,0.2,0.8,0.6
						l10.2,55.7h12.2l9.8-55.7c0.1-0.3,0.3-0.6,0.6-0.6c0.3,0,0.6,0.2,0.7,0.5l12.9,45.3c0.1,0.3,0,0.6-0.3,0.8l-6.8,4
						c-0.3,0.2-0.8,0.1-0.9-0.2c-0.2-0.3-0.1-0.8,0.2-0.9l6.4-3.8l-11.9-41.9l-9.4,53.3C65.7,173.9,65.4,174.1,65.1,174.1z"/>
					<path class="st5" d="M60.9,182.9c-0.7,0-1.9-0.1-2.7-0.8c-0.4-0.4-0.6-0.8-0.6-1.4c0-1.1-2.2-1.4-2.2-1.4
						c-0.3,0-0.6-0.3-0.6-0.7v-5.2c0-0.4,0.3-0.7,0.7-0.7s0.7,0.3,0.7,0.7v4.7c1.3,0.3,2.8,1.1,2.8,2.7c0,0.2,0,0.3,0.2,0.4
						c0.3,0.3,0.9,0.4,1.5,0.4v-8.1c0-0.4,0.3-0.7,0.7-0.7s0.7,0.3,0.7,0.7v8.8c0,0.4-0.3,0.7-0.6,0.7
						C61.4,182.9,61.2,182.9,60.9,182.9z"/>
					<path class="st5" d="M64,189H39c-0.4,0-0.7-0.3-0.7-0.7v-2.9c0-1.9,0.7-3.5,1.8-4.7c1.1-1,2.5-1.6,4-1.6c0.6,0,1.1,0.1,1.8,0.2
						c0.9,0.1,1.7,0.3,2.5,0.5c1,0.2,2,0.5,2.4,0.4c0.3,0,0.6-0.5,0.9-1.1c0.2-0.4,0.4-0.8,0.7-1c0.7-0.6,2.4-0.4,3.3-0.2
						c0.4,0.1,0.6,0.4,0.5,0.8c-0.1,0.4-0.4,0.6-0.8,0.5c-0.9-0.2-1.9-0.3-2.1-0.1c-0.1,0.1-0.2,0.4-0.3,0.6c-0.4,0.7-0.9,1.7-2,1.8
						c-0.7,0.1-1.6-0.1-2.9-0.4c-0.7-0.2-1.6-0.4-2.4-0.5c-0.6-0.1-1.1-0.1-1.6-0.2c-1.1,0-2.2,0.4-3,1.2c-0.7,0.6-1.4,1.8-1.4,3.7
						v2.2h23.6v-5.5c0,0,0-0.1,0-0.1c0,0,0.1-0.4-0.2-0.7c-0.3-0.4-0.9-0.7-1.8-0.8c-0.4,0-0.6-0.4-0.6-0.8c0-0.4,0.4-0.6,0.8-0.6
						c1.3,0.2,2.3,0.6,2.8,1.4c0.5,0.7,0.5,1.4,0.4,1.7v6.1C64.7,188.7,64.4,189,64,189z"/>
					<path class="st5" d="M64,187H39c-0.4,0-0.7-0.3-0.7-0.7c0-0.4,0.3-0.7,0.7-0.7H64c0.4,0,0.7,0.3,0.7,0.7
						C64.7,186.7,64.4,187,64,187z"/>
					<path class="st5" d="M47.3,187c-0.4,0-0.7-0.3-0.7-0.7c0-3.8-1.3-5.9-1.3-5.9c-0.2-0.3-0.1-0.7,0.2-1c0.3-0.2,0.7-0.1,1,0.2
						c0.1,0.1,1.6,2.4,1.6,6.7C48,186.7,47.7,187,47.3,187z"/>
					<path class="st5" d="M49.7,183.8c-0.3,0-0.6-0.2-0.7-0.5l-0.7-2.2c-0.1-0.4,0.1-0.8,0.5-0.9c0.4-0.1,0.8,0.1,0.9,0.5l0.7,2.2
						c0.1,0.4-0.1,0.8-0.5,0.9C49.8,183.8,49.8,183.8,49.7,183.8z"/>
					<path class="st5" d="M51.8,183.8c-0.3,0-0.5-0.2-0.6-0.4l-0.9-2.1c-0.1-0.4,0-0.8,0.4-0.9c0.4-0.1,0.8,0,0.9,0.4l0.9,2.1
						c0.1,0.4,0,0.8-0.4,0.9C51.9,183.8,51.9,183.8,51.8,183.8z"/>
					<path class="st5" d="M88.3,172.8c-0.2,0-0.3,0-0.5-0.1c-0.5-0.1-1-0.4-1.2-0.9c-0.5-0.9-2.6-0.1-2.6-0.1
						c-0.3,0.1-0.7,0-0.9-0.3l-2.6-4.6c-0.1-0.1-0.1-0.2-0.1-0.3c0-0.4,0.3-0.7,0.7-0.7c0.3,0,0.5,0.2,0.6,0.4l2.3,4
						c1.2-0.4,3-0.5,3.8,0.9c0.1,0.1,0.2,0.2,0.3,0.2c0.4,0.1,1-0.1,1.5-0.4l-4.1-7.1c-0.2-0.3-0.1-0.8,0.3-0.9
						c0.3-0.2,0.8-0.1,0.9,0.3l4.4,7.7c0.2,0.3,0.1,0.7-0.2,0.9C90.7,171.9,89.5,172.8,88.3,172.8z"/>
					<path class="st5" d="M74.2,188.4c-0.1,0-0.1,0-0.2,0c-0.2,0-0.3-0.2-0.4-0.3l-1.4-2.5c-0.9-1.6-1.2-3.4-0.7-5
						c0.4-1.4,1.4-2.6,2.6-3.3c0.5-0.3,1.1-0.5,1.6-0.7c0.8-0.3,1.7-0.6,2.4-0.8c0.9-0.3,1.9-0.6,2.2-0.8c0.3-0.2,0.3-0.7,0.2-1.4
						c0-0.4-0.1-0.8,0.1-1.2c0.3-0.9,1.9-1.5,2.8-1.8c0.4-0.1,0.8,0.1,0.9,0.5c0.1,0.4-0.1,0.8-0.5,0.9c-0.9,0.3-1.8,0.7-1.9,0.9
						c0,0.1,0,0.4,0,0.6c0,0.8,0.1,1.9-0.8,2.6c-0.5,0.4-1.5,0.7-2.7,1c-0.7,0.2-1.6,0.5-2.4,0.8c-0.5,0.2-1,0.4-1.5,0.7
						c-0.9,0.5-1.7,1.4-2,2.5c-0.3,0.9-0.4,2.3,0.6,3.9l1.1,1.9L94.8,175l-2.7-4.7c0,0,0-0.1-0.1-0.1c0,0-0.1-0.3-0.5-0.5
						c-0.5-0.2-1.2-0.1-2,0.2c-0.4,0.1-0.8,0-0.9-0.4c-0.1-0.4,0-0.8,0.4-0.9c1.2-0.5,2.3-0.6,3.1-0.2c0.8,0.4,1.1,1,1.2,1.3l3,5.3
						c0.1,0.2,0.1,0.3,0.1,0.5c0,0.2-0.2,0.3-0.3,0.4l-21.6,12.4C74.4,188.3,74.3,188.4,74.2,188.4z"/>
					<path class="st5" d="M73.2,186.6c-0.2,0-0.5-0.1-0.6-0.3c-0.2-0.3-0.1-0.8,0.3-0.9l21.6-12.4c0.3-0.2,0.8-0.1,0.9,0.3
						c0.2,0.3,0.1,0.8-0.3,0.9l-21.6,12.4C73.4,186.6,73.3,186.6,73.2,186.6z"/>
					<path class="st5" d="M80.3,182.5c-0.2,0-0.5-0.1-0.6-0.3c-1.9-3.3-4.1-4.4-4.1-4.4c-0.3-0.2-0.5-0.6-0.3-0.9
						c0.2-0.3,0.6-0.5,0.9-0.3c0.1,0.1,2.6,1.3,4.7,5c0.2,0.3,0.1,0.8-0.3,0.9C80.6,182.5,80.4,182.5,80.3,182.5z"/>
					<path class="st5" d="M80.8,178.5c-0.2,0-0.3-0.1-0.5-0.2l-1.7-1.6c-0.3-0.3-0.3-0.7,0-1c0.3-0.3,0.7-0.3,1,0l1.7,1.6
						c0.3,0.3,0.3,0.7,0,1C81.2,178.4,81,178.5,80.8,178.5z"/>
					<path class="st5" d="M82.6,177.5c-0.1,0-0.3,0-0.4-0.1l-1.8-1.4c-0.3-0.2-0.4-0.7-0.1-1c0.2-0.3,0.7-0.4,1-0.1l1.8,1.4
						c0.3,0.2,0.4,0.7,0.1,1C83,177.4,82.8,177.5,82.6,177.5z"/>
					<path class="st5" d="M30,94.1c-3.7,0-7.9-0.7-11.2-2.9C5,82.1,5.3,64.7,5.3,64.6c0-0.4,0.3-0.7,0.7-0.7h6.6
						c0.3,0,0.6,0.2,0.7,0.5c0,0.1,3.8,13.7,11.5,13.8c0,0,0.1,0,0.1,0c7.5,0,17.7-11.1,18.9-12.4c0,0,0.1-0.1,0.1-0.1
						c0.3-0.3,0.7-0.3,1,0c0.3,0.3,0.3,0.7,0,1c-2,2.2-12,12.9-20,12.9c-0.1,0-0.1,0-0.2,0c-7.9-0.1-11.9-11.7-12.7-14.3H6.7
						c0.1,3.2,1.2,17.1,12.8,24.8c7.5,5,20,1.3,20.1,1.3c0.4-0.1,0.8,0.1,0.9,0.5c0.1,0.4-0.1,0.8-0.5,0.9
						C39.7,92.8,35.2,94.1,30,94.1z"/>
					<path class="st5" d="M7.9,59.7C7.9,59.7,7.9,59.7,7.9,59.7c-0.4,0-0.7-0.3-0.7-0.7l0.2-6c0-0.7,0.2-1.4,0.6-1.8
						c0.4-0.4,1-0.6,1.6-0.6c1.3,0.1,1.9,1.4,1.9,2.5c0,0.4-0.3,0.7-0.7,0.7c-0.4,0-0.7-0.3-0.7-0.7c0,0-0.1-1.1-0.6-1.1
						c-0.2,0-0.4,0-0.5,0.2c-0.2,0.2-0.3,0.5-0.2,0.8l-0.2,6C8.6,59.4,8.3,59.7,7.9,59.7z"/>
					<path class="st5" d="M13.3,60.2C13.3,60.2,13.3,60.2,13.3,60.2c-0.4,0-0.7-0.3-0.7-0.7l0.2-6.2c0,0,0.1-1.2-0.5-1.3
						c-0.2,0-0.3,0-0.4,0.1c-0.3,0.2-0.4,0.7-0.4,1.1c0,0.6-0.1,4.1-0.1,5.9c0,0.4-0.3,0.7-0.7,0.7c-0.4,0-0.7-0.3-0.7-0.7
						c0-0.2,0.1-5.2,0.1-6c0-0.3,0.1-1.4,0.9-2c0.4-0.3,0.9-0.5,1.4-0.4c1.6,0.1,1.8,1.9,1.8,2.7L14,59.5
						C14,59.9,13.6,60.2,13.3,60.2z"/>
					<path class="st5" d="M12.6,65.3c-0.2,0-0.3-0.1-0.5-0.2c-0.3-0.3-0.3-0.7-0.1-1c0.1-0.2,3.6-4.2,4.5-5.1c0.5-0.5,0.6-1,0.6-1.2
						c0,0,0-0.1-0.2-0.2c-0.2-0.1-1.2,0.3-3.2,2.3l0,0c-0.1,0.2-0.3,0.3-0.5,0.3c-0.4,0-0.7-0.3-0.7-0.7c0-0.2,0.1-0.4,0.2-0.5
						c3.3-3.2,4.4-2.7,4.8-2.6c0.5,0.2,0.8,0.6,0.9,1.2c0.1,0.7-0.2,1.6-0.9,2.4c-0.8,0.9-4.4,5-4.5,5.1
						C13,65.2,12.8,65.3,12.6,65.3z"/>
					<path class="st5" d="M6.2,65.1c-0.2,0-0.4-0.1-0.5-0.2c-0.8-0.8-4.6-4.9-5-5.5c-0.8-1.1-0.8-1.8-0.6-2.3c0.2-0.5,0.6-0.8,1.1-1
						c0.9-0.2,2.2,0.7,3.3,1.6c0-1.7-0.1-4.2-0.1-4.7c0-1.2,0.7-2.4,2.2-2.5c1.4-0.1,2,1.4,2.1,2.2c0.1,0.4-0.2,0.7-0.6,0.8
						c-0.4,0.1-0.7-0.2-0.8-0.6c0-0.2-0.3-1.1-0.7-1.1c-0.9,0-0.9,1-0.9,1.1c0,0.7,0.1,6.3,0.1,6.3c0,0.3-0.2,0.5-0.4,0.7
						c-0.3,0.1-0.6,0-0.8-0.2c-1.2-1.3-2.8-2.4-3.2-2.4c0,0-0.1,0-0.1,0.1c0,0.1,0,0.4,0.4,1c0.3,0.4,3.1,3.5,4.9,5.3
						c0.3,0.3,0.2,0.7,0,1C6.5,65,6.4,65.1,6.2,65.1z"/>
					<path class="st5" d="M104.9,121.1c-0.9,0-1.7-0.7-2.1-1.2c-0.2-0.3-0.2-0.7,0.1-1c0.3-0.2,0.7-0.2,1,0.1c0,0,0.7,0.9,1.1,0.6
						c0.2-0.1,0.3-0.3,0.3-0.5c0-0.2,0-0.5-0.3-0.8l-3.3-5c-0.2-0.3-0.1-0.7,0.2-1c0.3-0.2,0.7-0.1,1,0.2l3.3,5
						c0.4,0.5,0.6,1.2,0.5,1.9c-0.1,0.6-0.5,1.1-1,1.4C105.5,121,105.2,121.1,104.9,121.1z"/>
					<path class="st5" d="M102.7,122.6c-0.9,0-1.7-0.7-2.2-1.5l-3.3-5.2c-0.2-0.3-0.1-0.8,0.2-1c0.3-0.2,0.7-0.1,1,0.2l3.3,5.2
						c0,0,0.7,1.1,1.2,0.8c0.1-0.1,0.2-0.2,0.2-0.3c0.1-0.3-0.1-0.7-0.2-1c0,0,0,0,0-0.1c-0.4-0.6-3.2-4.9-3.3-5
						c-0.2-0.3-0.1-0.7,0.2-1c0.3-0.2,0.7-0.1,1,0.2c0.1,0.2,2.7,4.1,3.2,4.9c0,0,0,0,0,0c0,0,0,0,0.1,0.1c0.2,0.3,0.7,1.2,0.4,2.2
						c-0.1,0.5-0.4,0.9-0.9,1.1C103.2,122.6,102.9,122.6,102.7,122.6z"/>
					<path class="st5" d="M95.6,120.6c-0.4,0-0.8-0.2-1.1-0.4c-0.5-0.5-0.8-1.4-0.6-2.5c0.2-1.2,0.8-7,0.8-7c0-0.2,0.1-0.4,0.3-0.5
						l5-3.4c0.2-0.1,0.4-0.1,0.6-0.1c0.7,0.2,7,1.7,7.6,1.9c1.3,0.4,1.7,1.1,1.8,1.6c0.1,0.5,0,1-0.4,1.4c-0.6,0.7-2.2,0.7-3.6,0.5
						c1,1.4,2.5,3.4,2.7,3.8c0.7,1,0.8,2.4-0.4,3.3c-1.1,0.8-2.4,0-3-0.6c-0.3-0.3-0.3-0.7,0-1c0.3-0.3,0.7-0.3,1,0
						c0.2,0.2,0.9,0.8,1.2,0.5c0.7-0.5,0.1-1.3,0.1-1.4c-0.4-0.5-3.7-5.1-3.7-5.1c-0.2-0.2-0.2-0.5,0-0.8c0.2-0.2,0.4-0.4,0.7-0.3
						c1.7,0.4,3.6,0.4,4,0.2c0,0,0.1-0.1,0.1-0.1c0-0.1-0.2-0.4-0.9-0.6c-0.4-0.1-4.5-1.1-7.2-1.8L96,111c-0.1,1.2-0.6,5.7-0.7,6.8
						c-0.1,0.7,0,1.2,0.2,1.3c0,0,0.1,0.1,0.2,0c0.3-0.1,0.9-1.3,1.3-3.7c0-0.2,0.1-0.3,0.2-0.4c0.3-0.3,0.7-0.3,1,0
						c0.2,0.2,0.3,0.4,0.2,0.6c-0.6,3-1.4,4.7-2.5,4.9C95.9,120.6,95.7,120.6,95.6,120.6z"/>
				</g>
			</g>
		</g>
		<g>
			<path class="st1" d="M58.3,67.4c0,0-9,0.4-9,9.4c0,7.7,9.7,11.3,9.7,11.3s24.1,7.9,35.4,23.2l6.3-4.3c0,0-10.6-17.9-28.7-33.8
				C72.1,73.1,65.7,67.4,58.3,67.4z"/>
			<path class="st5" d="M94.5,111.9c-0.2,0-0.4-0.1-0.6-0.3c-11-15-34.8-22.9-35-23c-0.4-0.2-10.2-3.8-10.2-11.9
				c0-9.5,9.5-10,9.6-10.1c0,0,0,0,0,0c7.6,0,13.9,5.6,14.2,5.9c17.9,15.8,28.7,33.8,28.8,34c0.2,0.3,0.1,0.7-0.2,0.9l-6.3,4.3
				C94.7,111.9,94.6,111.9,94.5,111.9z M58.4,68.1c-0.5,0-8.3,0.6-8.3,8.7c0,7.2,9.2,10.6,9.3,10.6c0.2,0.1,23.8,7.9,35.3,22.9
				l5.2-3.6c-2-3.1-12.2-19-28.2-33.1C71.6,73.6,65.4,68.1,58.4,68.1z"/>
		</g>
	</g>
</g>
</svg>
