<?xml version="1.0" encoding="utf-8"?>
<svg version="1.1" id="the-ika-back-top-1" xmlns="http://www.w3.org/2000/svg" xmlns:xlink="http://www.w3.org/1999/xlink" x="0px"
	 y="0px" viewBox="0 0 112 138" style="enable-background:new 0 0 112 138;" xml:space="preserve">
<style type="text/css">
	.st0{fill:#FFF8EE;}
	.st1{fill:#E84572;}
	.st2{fill:#F4AEB6;}
	.st3{fill:#97D2CE;}
	.st4{fill:#231815;}
</style>
<g>
	<g>
		<path d="M28.7,2h-4.1V0.3H35V2h-4.1v11.7h-2.2V2z"/>
		<path d="M37.4,7c0-4.3,2.5-7,6.1-7c3.6,0,6.1,2.6,6.1,7s-2.5,7-6.1,7C39.9,14,37.4,11.3,37.4,7z M47.3,7c0-3.2-1.5-5.1-3.8-5.1
			c-2.3,0-3.8,1.9-3.8,5.1c0,3.2,1.5,5.2,3.8,5.2C45.8,12.1,47.3,10.1,47.3,7z"/>
		<path d="M53.5,0.3h4.2c3.1,0,5.3,1,5.3,4.1c0,3-2.2,4.3-5.3,4.3h-2.1v5.1h-2.2V0.3z M57.6,6.9c2.2,0,3.3-0.8,3.3-2.6
			S59.8,2,57.5,2h-1.8v5H57.6z"/>
		<path d="M71.9,7.2c0.9-0.9,2.5-2.9,3.6-4.2c1.2-1.3,2.3-1.5,3.6-0.2c1.2,1.1,2.7,3,3.8,4.2c1.2,1.2,2.9,3,4.6,4.5l-1.5,1.7
			c-1.4-1.3-3.1-3.1-4.3-4.5c-1.2-1.3-2.6-3.1-3.5-4c-0.8-0.8-1.1-0.7-1.7,0.1c-0.8,1-2.3,2.9-3.2,4c-0.4,0.5-0.8,1.1-1.2,1.5
			l-1.8-1.8C71,8.1,71.4,7.7,71.9,7.2z"/>
	</g>
	<g>
		<path class="st0" d="M4.4,77c-2.6-0.6-4.1-3.2-3.5-5.8c0.6-2.6,3.2-4.2,5.8-3.5c2.3,0.6,3.8,2.7,3.6,5c0,0.3-0.1,0.5-0.1,0.8
			c-0.4,1.7-1.7,3-3.3,3.4C6.1,77.1,5.3,77.2,4.4,77z"/>
		<path class="st1" d="M10.2,73.4c0.1-0.3,0.1-0.5,0.1-0.8l0,0c5.6,2.9,13.9,5,13.9,5c-0.5,3.9-1.2,8.5-1.8,14
			c0,0-10.4-5.5-15.4-14.8C8.5,76.4,9.8,75.1,10.2,73.4z"/>
		<path class="st2" d="M43.7,99.5c-0.9,2.8,1.2,4.5,3.6,5c2.4,0.5,6.1,0.4,6.1,0.4s3.7,0,6.1-0.4c2.4-0.5,4.5-2.2,3.6-5
			c-0.8-2.5-3.2-2.7-5.1-2.4c-1.9,0.3-4.5,0.3-4.5,0.3s-2.6,0-4.5-0.3C46.9,96.8,44.5,97,43.7,99.5z"/>
		<path class="st0" d="M47.9,83.5c0,4.5-3.6,8.1-8.1,8.1s-8.1-3.6-8.1-8.1c0-2.4,1.1-4.6,2.8-6.1c0.8-0.7,1.6-1.2,2.6-1.6
			c0.8-0.3,1.8-0.5,2.7-0.5c0.6,0,1.1,0.1,1.7,0.2c1.1,0.2,2.1,0.7,3,1.3C46.5,78.4,47.9,80.8,47.9,83.5z M39.8,88.2
			c2.6,0,4.7-2.1,4.7-4.7c0-2.6-2.1-4.7-4.7-4.7c-2.6,0-4.7,2.1-4.7,4.7C35.1,86.1,37.2,88.2,39.8,88.2z"/>
		<path class="st3" d="M44.5,83.5c0,2.6-2.1,4.7-4.7,4.7c-2.6,0-4.7-2.1-4.7-4.7c0-2.6,2.1-4.7,4.7-4.7
			C42.4,78.9,44.5,80.9,44.5,83.5z M39.8,85c0.8,0,1.5-0.7,1.5-1.5c0-0.8-0.7-1.5-1.5-1.5c-0.8,0-1.5,0.7-1.5,1.5
			C38.3,84.4,39,85,39.8,85z"/>
		<path class="st3" d="M71.5,83.5c0,2.6-2.1,4.7-4.7,4.7c-2.6,0-4.7-2.1-4.7-4.7c0-2.6,2.1-4.7,4.7-4.7
			C69.4,78.9,71.5,80.9,71.5,83.5z M66.8,85c0.8,0,1.5-0.7,1.5-1.5c0-0.8-0.7-1.5-1.5-1.5s-1.5,0.7-1.5,1.5C65.3,84.4,66,85,66.8,85
			z"/>
		<path class="st0" d="M74.9,83.5c0,4.5-3.6,8.1-8.1,8.1s-8.1-3.6-8.1-8.1c0-2.4,1.1-4.6,2.8-6.1c0.8-0.7,1.6-1.2,2.6-1.6
			c0.8-0.3,1.8-0.5,2.7-0.5c0.6,0,1.1,0.1,1.7,0.2c1.1,0.2,2.1,0.7,3,1.3C73.6,78.4,74.9,80.8,74.9,83.5z M66.8,88.2
			c2.6,0,4.7-2.1,4.7-4.7c0-2.6-2.1-4.7-4.7-4.7c-2.6,0-4.7,2.1-4.7,4.7C62.1,86.1,64.2,88.2,66.8,88.2z"/>
		<path class="st1" d="M82.8,83.5c0.6,5.2,1.1,9.7,1.5,13.5h0c9.4-0.6,18.8-7.5,18.8-7.5l0,0c-0.8-0.8-1.2-2-1.2-3.2
			c0-0.7,0.1-1.3,0.4-1.9C102.2,84.5,93.6,85.9,82.8,83.5z"/>
		<path class="st0" d="M102.2,84.5c-0.2,0.6-0.4,1.2-0.4,1.9c0,1.2,0.5,2.3,1.2,3.2c0.9,1,2.1,1.6,3.6,1.6c2.6,0,4.8-2.1,4.8-4.8
			c0-2.6-2.1-4.8-4.8-4.8C104.6,81.5,102.9,82.7,102.2,84.5z"/>
		<path class="st0" d="M15.8,55.9c0,0,5.2,8.2,11.5,10.2c8-25.7,25.4-36,26-36.4C52.5,29.9,30.7,35.7,15.8,55.9z"/>
		<path class="st1" d="M68.5,75.6c-0.5-0.1-1.1-0.2-1.7-0.2c-1,0-1.9,0.2-2.7,0.5c-1,0.4-1.9,0.9-2.6,1.6c-1.7,1.5-2.8,3.7-2.8,6.1
			c0,4.5,3.6,8.1,8.1,8.1s8.1-3.6,8.1-8.1c0-2.7-1.4-5.2-3.4-6.6C70.6,76.3,69.6,75.8,68.5,75.6z M39.8,75.4c-1,0-1.9,0.2-2.7,0.5
			c-1,0.4-1.9,0.9-2.6,1.6c-1.7,1.5-2.8,3.7-2.8,6.1c0,4.5,3.6,8.1,8.1,8.1s8.1-3.6,8.1-8.1c0-2.7-1.4-5.2-3.4-6.6
			c-0.9-0.6-1.9-1.1-3-1.3C40.9,75.5,40.4,75.4,39.8,75.4z M79.3,66.1c1.5,4.7,2.6,9.9,3.2,15.6c0.1,0.6,0.1,1.3,0.2,1.9
			c0.6,5.2,1.1,9.7,1.5,13.5c2.4,22.4,2.4,22.5,11.9,26.4c0,0,2,1,0,2.7c-2,1.7-10.7,0.5-15.2-2.4c0.1,0.2,2.4,3.7,4.2,6
			c1.4,1.7,0.9,2.8-0.3,3.2c-1.2,0.4-8.3-1.1-13-6.6c0.1,0.4,2.1,8,0.6,9c-1.5,1-4.9-0.9-10.4-8.2c0,0,1.6,9.4-1.3,10.1
			c-2.9,0.8-6.1-5.1-7.5-9.9c-1.4,4.8-4.6,10.7-7.5,9.9c-2.9-0.8-1.3-10.1-1.3-10.1c-5.5,7.3-9,9.2-10.4,8.2c-1.4-1,0.6-8.6,0.6-9
			c-4.7,5.5-11.8,7-13,6.6c-1.2-0.4-1.7-1.5-0.3-3.2c1.9-2.3,4.1-5.7,4.2-6c-4.5,2.9-13.2,4.1-15.2,2.4s0-2.7,0-2.7
			c9.2-3.8,9.5-4,11.6-24.3c0.4-3.9,0.9-8.5,1.5-14.1c0.1-1.1,0.2-2.2,0.4-3.4c0.7-5.7,1.8-10.9,3.2-15.6c8-25.7,25.4-36,26-36.4
			c0,0,0,0,0,0s0,0,0,0C54,30.1,71.4,40.4,79.3,66.1z M53.3,104.9c0,0,3.7,0,6.1-0.4c2.4-0.5,4.5-2.2,3.6-5
			c-0.8-2.5-3.2-2.7-5.1-2.4c-1.9,0.3-4.5,0.3-4.5,0.3s-2.6,0-4.5-0.3c-1.9-0.3-4.3-0.1-5.1,2.4c-0.9,2.8,1.2,4.5,3.6,5
			C49.6,105,53.3,104.9,53.3,104.9z"/>
		<path class="st0" d="M53.4,29.7c0.6,0.4,18,10.7,26,36.4c6.3-2,11.5-10.2,11.5-10.2C76,35.7,54.1,29.9,53.4,29.7z"/>
		<g>
			<path class="st4" d="M39.8,82c-0.8,0-1.5,0.7-1.5,1.5c0,0.8,0.7,1.5,1.5,1.5c0.8,0,1.5-0.7,1.5-1.5C41.3,82.7,40.6,82,39.8,82z"
				/>
			<path class="st4" d="M66.8,82c-0.8,0-1.5,0.7-1.5,1.5c0,0.8,0.7,1.5,1.5,1.5c0.8,0,1.5-0.7,1.5-1.5C68.3,82.7,67.6,82,66.8,82z"
				/>
			<path class="st4" d="M72.4,76.8l1-1.5c0.2-0.3,0.1-0.7-0.2-1c-0.3-0.2-0.7-0.1-1,0.2l-1,1.5c-0.6-0.4-1.3-0.7-2-0.9l0.3-1.9
				c0.1-0.4-0.2-0.7-0.6-0.8c-0.4-0.1-0.7,0.2-0.8,0.6l-0.3,1.8c-1.1-0.1-2.2-0.1-3.3,0.2l-0.3-1.7c-0.1-0.4-0.4-0.6-0.8-0.6
				c-0.4,0.1-0.6,0.4-0.6,0.8l0.3,1.9c-0.6,0.3-1.2,0.6-1.7,1l-1-1.4c-0.2-0.3-0.7-0.4-1-0.2c-0.3,0.2-0.4,0.7-0.2,1l1.1,1.5
				C58.9,79,58,81.2,58,83.5c0,4.9,3.9,8.8,8.8,8.8c4.8,0,8.8-3.9,8.8-8.8C75.6,80.9,74.4,78.4,72.4,76.8z M66.8,90.9
				c-4.1,0-7.4-3.3-7.4-7.4c0-2.1,0.9-4.2,2.5-5.6c0,0,0,0,0,0c0.7-0.6,1.5-1.1,2.4-1.4c0.8-0.3,1.6-0.4,2.5-0.4
				c0.5,0,1,0.1,1.5,0.2c1,0.2,1.9,0.6,2.7,1.2c2,1.4,3.1,3.7,3.1,6.1C74.2,87.6,70.9,90.9,66.8,90.9z"/>
			<path class="st4" d="M66.8,78.2c-3,0-5.4,2.4-5.4,5.4c0,3,2.4,5.4,5.4,5.4c3,0,5.4-2.4,5.4-5.4C72.2,80.6,69.8,78.2,66.8,78.2z
				 M66.8,87.5c-2.2,0-4-1.8-4-4c0-2.2,1.8-4,4-4c2.2,0,4,1.8,4,4C70.8,85.7,69,87.5,66.8,87.5z"/>
			<path class="st4" d="M48.6,83.5c0-2.6-1.2-5.1-3.2-6.8l1-1.5c0.2-0.3,0.1-0.7-0.2-1c-0.3-0.2-0.7-0.1-1,0.2l-1,1.5
				c-0.6-0.4-1.3-0.7-2-0.9l0.3-1.9c0.1-0.4-0.2-0.7-0.6-0.8c-0.4-0.1-0.7,0.2-0.8,0.6l-0.3,1.8c-1.1-0.1-2.2-0.1-3.3,0.2l-0.3-1.7
				c-0.1-0.4-0.4-0.6-0.8-0.6c-0.4,0.1-0.6,0.4-0.6,0.8l0.3,1.9c-0.6,0.3-1.2,0.6-1.7,1l-1-1.4c-0.2-0.3-0.7-0.4-1-0.2
				c-0.3,0.2-0.4,0.7-0.2,1l1.1,1.5C31.9,79,31,81.2,31,83.5c0,4.9,3.9,8.8,8.8,8.8C44.6,92.3,48.6,88.4,48.6,83.5z M39.8,90.9
				c-4.1,0-7.4-3.3-7.4-7.4c0-2.1,0.9-4.2,2.5-5.6c0,0,0,0,0,0c0.7-0.6,1.5-1.1,2.4-1.4c0.8-0.3,1.6-0.4,2.5-0.4
				c0.5,0,1,0.1,1.5,0.2c1,0.2,1.9,0.6,2.7,1.2c2,1.4,3.1,3.7,3.1,6.1C47.2,87.6,43.9,90.9,39.8,90.9z"/>
			<path class="st4" d="M39.8,78.2c-3,0-5.4,2.4-5.4,5.4c0,3,2.4,5.4,5.4,5.4c3,0,5.4-2.4,5.4-5.4C45.1,80.6,42.7,78.2,39.8,78.2z
				 M39.8,87.5c-2.2,0-4-1.8-4-4c0-2.2,1.8-4,4-4c2.2,0,4,1.8,4,4C43.8,85.7,42,87.5,39.8,87.5z"/>
			<path class="st4" d="M57.8,96.4c-1.8,0.3-4.4,0.2-4.4,0.2c0,0-2.6,0-4.4-0.2c-3.9-0.6-5.3,1.2-5.9,2.9c-0.4,1.2-0.3,2.4,0.3,3.4
				c0.7,1.2,2.1,2.1,3.8,2.4c2.1,0.4,5.2,0.4,6,0.4c0.2,0,0.2,0,0.4,0c0.8,0,3.9,0,6-0.4c1.7-0.3,3.1-1.2,3.8-2.4
				c0.6-1,0.7-2.2,0.2-3.4C62.9,97,60.8,96,57.8,96.4z M62.2,102c-0.5,0.9-1.6,1.5-2.9,1.8c-2,0.4-5.1,0.4-5.8,0.4
				c-0.2,0-0.2,0-0.2,0c0,0,0,0,0,0c0,0-3.7,0-6-0.4c-1.3-0.3-2.4-0.9-2.9-1.8c-0.4-0.7-0.4-1.4-0.1-2.3c0.2-0.6,0.8-2.5,4.4-1.9
				c1.9,0.3,4.5,0.3,4.6,0.3c0.1,0,2.7,0,4.6-0.3c3.5-0.5,4.2,1.3,4.4,1.9C62.6,100.6,62.6,101.4,62.2,102z"/>
			<path class="st4" d="M59.6,100c-0.1,0-5.4,0.9-12.6,0c-0.4,0-0.7,0.2-0.8,0.6c0,0.4,0.2,0.7,0.6,0.8c2.5,0.3,4.8,0.4,6.7,0.4
				c3.8,0,6.2-0.4,6.3-0.4c0.4-0.1,0.6-0.4,0.6-0.8C60.4,100.2,60,100,59.6,100z"/>
			<path class="st4" d="M106.6,80.9c-2.1,0-3.9,1.2-4.9,3c-1.6,0.2-9.1,1-18.3-0.9l-0.2-1.4c-0.6-5.2-1.7-10.3-3.1-15.1
				c6.2-2.4,11-9.9,11.3-10.2c0.2-0.2,0.1-0.6,0-0.8C76.5,35.3,54.7,29.3,53.5,29c0,0,0,0,0,0c0,0,0,0,0,0c0,0-0.1,0-0.1,0
				c0,0-0.1,0-0.1,0c0,0,0,0,0,0c0,0,0,0,0,0c0,0,0,0,0,0c-1.2,0.3-23,6.3-37.9,26.5c-0.2,0.2-0.2,0.5,0,0.8
				c0.2,0.3,5.1,7.9,11.3,10.2c-1,3.4-1.8,6.9-2.4,10.4c-1.5-0.4-8.2-2.3-13-4.7c0-2.5-1.7-4.6-4.2-5.2c-1.4-0.3-2.9-0.1-4.1,0.6
				c-1.3,0.8-2.1,2-2.5,3.4c-0.7,2.9,1.1,5.9,4,6.6c0.4,0.1,0.9,0.2,1.3,0.2c0.4,0,0.7,0,1-0.1c5.1,9.1,15,14.4,15.5,14.7
				c0,0,0.1,0,0.1,0c-0.2,1.6-0.3,3.1-0.5,4.6L21.5,99c-2.1,20.1-2.3,20.1-11.3,23.8c-0.1,0.1-1.1,0.6-1.3,1.6
				c-0.1,0.7,0.3,1.5,1.1,2.2c0.8,0.7,2.3,1,4.1,1c2.9,0,6.5-0.7,9.5-2c-0.8,1.2-1.8,2.6-2.7,3.7c-1.1,1.3-1.1,2.3-0.9,2.9
				c0.2,0.7,0.8,1.2,1.5,1.4c0.2,0,0.4,0.1,0.7,0.1c2.1,0,7.2-1.4,11.3-5.1c-1.3,6.2-0.2,7,0.2,7.3c1.9,1.3,5.3-0.9,9.8-6.4
				c-0.3,3.1-0.3,7.8,2.1,8.4c3.1,0.8,6.1-4.1,7.7-8.4c1.5,4,4.1,8.5,7,8.5c0.2,0,0.5,0,0.7-0.1c2.4-0.6,2.4-5.3,2.1-8.4
				c4.5,5.5,7.9,7.7,9.8,6.4c0.4-0.3,1.5-1.1,0.2-7.3c4.1,3.7,9.2,5.1,11.3,5.1c0.3,0,0.5,0,0.7-0.1c0.8-0.2,1.3-0.8,1.5-1.4
				c0.2-0.6,0.2-1.6-0.9-2.9c-0.9-1.1-1.9-2.5-2.7-3.7c3,1.3,6.6,2,9.5,2c1.8,0,3.3-0.3,4.1-1c0.8-0.7,1.2-1.5,1.1-2.2
				c-0.1-1.1-1.1-1.6-1.3-1.7c-9-3.7-9.1-3.7-11.4-25.2c8.1-0.8,16-5.8,17.9-7.2c1,0.9,2.3,1.4,3.6,1.4c3,0,5.5-2.5,5.5-5.5
				C112.1,83.3,109.6,80.9,106.6,80.9z M95.5,85.6c2.6,0,4.6-0.2,5.7-0.3c-0.1,0.3-0.1,0.7-0.1,1c0,1.1,0.3,2.1,0.9,3
				c-2.1,1.4-9.6,6.2-17.2,6.9c-0.4-3.4-0.8-7.4-1.3-11.9C88.2,85.3,92.3,85.6,95.5,85.6z M90,55.9c-1.1,1.6-5.3,7.3-10.2,9.3
				c-3.3-10.4-8.7-19.8-15.7-27.3c-2.5-2.7-4.8-4.7-6.6-6.1C64.6,34.5,79.1,41.4,90,55.9z M16.7,55.9C27.5,41.4,42,34.5,49.2,31.8
				c-1.8,1.4-4.1,3.5-6.6,6.1c-6.9,7.5-12.3,16.9-15.7,27.3C21.9,63.2,17.7,57.5,16.7,55.9z M4.6,76.3c-2.2-0.5-3.5-2.8-3-5
				c0.3-1.1,0.9-2,1.9-2.5c0.7-0.4,1.4-0.6,2.1-0.6c0.3,0,0.6,0,1,0.1c2,0.5,3.3,2.3,3.1,4.3c0,0.2,0,0.4-0.1,0.6
				c-0.3,1.4-1.4,2.5-2.8,2.9c0,0,0,0,0,0C6,76.4,5.3,76.5,4.6,76.3z M7.9,77.2c1.4-0.7,2.5-2,2.9-3.5c5.1,2.5,11.7,4.3,13,4.6
				c-0.2,1.1-0.3,2.2-0.5,3.3c-0.1,0.8-0.2,1.6-0.3,2.4L23,85c-0.2,2.1-0.5,4.1-0.7,5.9C20.6,89.9,12.4,84.9,7.9,77.2z M95.8,124.1
				c0.1,0.1,0.5,0.3,0.5,0.6c0,0.2-0.2,0.6-0.6,1c-1.6,1.4-9.7,0.5-14.3-2.4c0,0,0,0,0,0c-0.1,0-0.1-0.1-0.2-0.1c0,0-0.1,0-0.1,0
				c-0.1,0-0.1,0-0.2,0c0,0,0,0-0.1,0c-0.1,0-0.1,0-0.2,0.1c0,0,0,0-0.1,0c0,0-0.1,0-0.1,0c0,0,0,0.1-0.1,0.1c0,0,0,0,0,0
				c0,0,0,0,0,0c0,0.1-0.1,0.1-0.1,0.2c0,0,0,0,0,0.1c0,0.1,0,0.1,0,0.2c0,0,0,0,0,0c0,0.1,0,0.2,0.1,0.2c0.2,0.3,2.4,3.8,4.3,6
				c0.5,0.6,0.8,1.2,0.7,1.6c-0.1,0.3-0.4,0.4-0.6,0.5c-0.9,0.3-7.7-1.1-12.3-6.4c-0.1-0.2-0.3-0.3-0.5-0.3c-0.4,0-0.7,0.3-0.7,0.7
				c0,0.1,0,0.1,0,0.2c0,0,0,0,0,0.1c0,0,0,0,0,0l0,0c1.3,5.3,1.3,7.8,0.9,8.1c-0.8,0.6-3.7-0.5-9.5-8.1c-0.2-0.3-0.5-0.3-0.8-0.2
				c-0.3,0.1-0.5,0.4-0.4,0.7c0.6,3.5,0.8,9-0.8,9.4c-2.2,0.6-5.2-4.5-6.6-9.4c-0.1-0.3-0.4-0.5-0.7-0.5s-0.6,0.2-0.7,0.5
				c-1.4,4.9-4.5,10-6.6,9.4c-1.6-0.4-1.4-5.8-0.8-9.4c0.1-0.3-0.1-0.6-0.4-0.7c-0.3-0.1-0.6,0-0.8,0.2c-5.8,7.5-8.7,8.6-9.5,8.1
				c-0.4-0.3-0.4-2.8,0.9-8.2c0,0,0,0,0,0c0.1-0.2,0-0.5-0.2-0.6c-0.3-0.3-0.7-0.3-1,0c0,0-0.1,0.1-0.1,0.1
				c-4.5,5.3-11.3,6.6-12.2,6.3c-0.2-0.1-0.5-0.2-0.6-0.5c-0.1-0.4,0.1-0.9,0.7-1.6c2-2.4,4.3-6,4.3-6c0,0,0,0,0,0
				c0-0.1,0-0.1,0.1-0.2c0,0,0-0.1,0-0.1c0,0,0-0.1,0-0.1c0,0,0-0.1,0-0.1c0,0,0,0,0,0c0-0.1,0-0.1-0.1-0.2c0,0,0,0,0,0
				c0-0.1-0.1-0.1-0.2-0.2c0,0,0,0,0,0c0,0,0,0,0,0c-0.1,0-0.1-0.1-0.2-0.1c0,0,0,0,0,0c0,0-0.1,0-0.1,0c-0.1,0-0.1,0-0.1,0
				c0,0,0,0,0,0c-0.1,0-0.2,0.1-0.2,0.1c0,0,0,0,0,0c0,0,0,0,0,0c-4.6,2.9-12.7,3.7-14.3,2.4c-0.4-0.4-0.7-0.7-0.6-1
				c0-0.3,0.4-0.5,0.5-0.6c9.6-3.9,9.9-4.6,12.1-24.9l0.2-2.1c0.4-3.4,0.8-7.4,1.3-11.9l0.1-1c0.1-0.8,0.2-1.6,0.3-2.4
				c0.6-5.4,1.7-10.6,3.2-15.5c7.3-23.6,22.8-34.2,25.4-35.8c2.5,1.6,18,12.2,25.3,35.8c0,0,0,0,0,0c0,0,0,0,0,0c0,0,0,0,0,0
				c1.5,4.9,2.6,10.1,3.2,15.5l0.2,1.9c0.6,5.2,1.1,9.7,1.5,13.5C85.9,119.6,86,120,95.8,124.1z M106.6,90.4c-1.2,0-2.3-0.5-3.1-1.4
				c-0.7-0.7-1-1.7-1-2.7c0-0.5,0.1-1.1,0.3-1.6c0.7-1.5,2.1-2.5,3.8-2.5c2.3,0,4.1,1.8,4.1,4.1C110.7,88.6,108.9,90.4,106.6,90.4z"
				/>
		</g>
	</g>
</g>
</svg>
