<?xml version="1.0" encoding="utf-8"?>
<svg version="1.1" id="the-element-cloud-1" xmlns="http://www.w3.org/2000/svg" xmlns:xlink="http://www.w3.org/1999/xlink" x="0px"
	 y="0px" viewBox="0 0 210 84" style="enable-background:new 0 0 210 84;" xml:space="preserve">
<style type="text/css">
	.st0{fill:#FFF8EE;}
	.st1{fill:#231815;}
</style>
<g>
	<path class="st0" d="M185.4,21.7c-2.2,0-4.3,0.3-6.3,0.8c-4.3-6.5-11.6-10.7-19.9-10.7c-11,0-20.3,7.5-23,17.7
		c-1.3-0.9-2.7-1.6-4.1-2.2c0.1-0.8,0.1-1.7,0.1-2.6c0-13.2-10.7-23.9-23.9-23.9c-12.5,0-22.7,9.6-23.8,21.8c-0.7-0.1-1.3-0.1-2-0.1
		c-1.7,0-3.3,0.2-4.8,0.5C76.9,10.6,66.5,0.8,53.9,0.8C42.4,0.8,32.8,9,30.6,19.9c-1.9-0.5-3.9-0.8-6-0.8C11.4,19.2,0.7,29.9,0.7,43
		c0,13.2,10.7,23.9,23.9,23.9c2.7,0,5.2-0.4,7.6-1.2c2.8,10.1,12,17.5,23,17.5c9.5,0,17.8-5.6,21.6-13.7c1.9,0.5,3.8,0.7,5.8,0.7
		c7.9,0,14.9-3.9,19.3-9.8c4,7.6,12,12.8,21.1,12.8c11,0,20.3-7.5,23-17.7c3.8,2.5,8.3,4,13.2,4c2.2,0,4.3-0.3,6.3-0.8
		c4.3,6.5,11.6,10.7,19.9,10.7c13.2,0,23.9-10.7,23.9-23.9S198.6,21.7,185.4,21.7z"/>
	<g>
		<path class="st1" d="M55.2,83.9c-10.8,0-20.3-7.1-23.5-17.3c-2.3,0.7-4.7,1-7.1,1C11,67.6,0,56.6,0,43s11-24.6,24.6-24.6
			c1.8,0,3.7,0.2,5.5,0.6c2.6-11,12.5-19,23.9-19c12.6,0,23.2,9.6,24.4,22c1.8-0.3,3.7-0.4,5.6-0.3C85.4,9.6,96,0.1,108.4,0.1
			c13.5,0,24.6,11,24.6,24.6c0,0.7,0,1.4-0.1,2.1c1,0.4,2,1,3,1.5c3.2-10.2,12.7-17.3,23.5-17.3c8.1,0,15.6,4,20.2,10.6
			c1.9-0.5,4-0.7,6-0.7C199,21,210,32,210,45.5c0,13.5-11,24.6-24.6,24.6c-8.1,0-15.6-4-20.2-10.6c-1.9,0.5-4,0.7-6,0.7
			c-4.5,0-9-1.2-12.8-3.6c-3.2,10.2-12.7,17.3-23.5,17.3c-8.8,0-16.8-4.6-21.2-12.2c-4.6,5.8-11.7,9.2-19.2,9.2
			c-1.8,0-3.7-0.2-5.4-0.6C73,78.6,64.4,83.9,55.2,83.9z M32.9,65.6c2.8,10,11.9,16.9,22.3,16.9c8.9,0,17.1-5.2,21-13.3
			c0.2-0.3,0.5-0.5,0.9-0.4c1.8,0.5,3.7,0.7,5.6,0.7c7.2,0,14.1-3.4,18.5-9.2c-0.2-0.3,0-0.8,0.3-0.9c0.3-0.2,0.7-0.1,0.9,0.2
			c0.1,0,0.1,0.1,0.2,0.1c0.2,0.2,0.3,0.5,0.3,0.7c4.1,7.5,11.8,12.1,20.3,12.1c10.5,0,19.6-7,22.4-17.1c0-0.1,0-0.1,0.1-0.2
			c0.2-0.3,0.6-0.4,0.9-0.3c0.1,0,0.1,0.1,0.2,0.1c3.8,2.5,8.2,3.8,12.8,3.8c2.1,0,4.1-0.3,6.1-0.8c0.3-0.1,0.6,0,0.8,0.3l0.1,0.2
			c4.3,6.4,11.5,10.2,19.2,10.2c12.8,0,23.2-10.4,23.2-23.2c0-12.8-10.4-23.2-23.2-23.2c-2.1,0-4.2,0.3-6.2,0.8
			c-0.4,0.1-0.8-0.1-0.9-0.5l0-0.1c-4.3-6.3-11.5-10.1-19.1-10.1c-10.5,0-19.6,7-22.4,17.1c0,0.1-0.1,0.2-0.1,0.2
			c-0.2,0.3-0.6,0.4-0.9,0.3c-0.1,0-0.1-0.1-0.1-0.1c-1.2-0.8-2.5-1.5-3.8-2c0,0,0,0-0.1,0c-0.3-0.1-0.6-0.4-0.5-0.7
			c0.1-0.8,0.1-1.7,0.1-2.5c0-12.8-10.4-23.2-23.2-23.2c-11.9,0-22,9.3-23.1,21.1c0,0.2-0.1,0.4-0.2,0.5c-0.1,0.1-0.3,0.2-0.5,0.2
			c-0.7-0.1-1.3-0.1-2-0.1c-1.6,0-3.1,0.2-4.7,0.5c-0.4,0.1-0.7-0.2-0.8-0.5c0,0,0-0.1,0-0.1C76.2,11,66,1.5,53.9,1.5
			c-11,0-20.5,7.8-22.7,18.6c0,0.2-0.2,0.4-0.3,0.5c-0.2,0.1-0.4,0.1-0.5,0.1c-1.9-0.5-3.8-0.7-5.8-0.7C11.8,19.9,1.4,30.3,1.4,43
			s10.4,23.2,23.2,23.2c2.5,0,5-0.4,7.4-1.2c0,0,0,0,0.1,0C32.3,64.9,32.7,65.1,32.9,65.6C32.8,65.5,32.8,65.5,32.9,65.6z"/>
	</g>
</g>
</svg>
