<?xml version="1.0" encoding="utf-8"?>
<svg version="1.1" id="the-element-petwalk-1" xmlns="http://www.w3.org/2000/svg" xmlns:xlink="http://www.w3.org/1999/xlink" x="0px"
	 y="0px" viewBox="0 0 220 209" style="enable-background:new 0 0 220 209;" xml:space="preserve">
<style type="text/css">
	.st0{fill:#FFF8EE;}
	.st1{fill:#121659;}
	.st2{fill:#F4AEB6;}
	.st3{fill:#231815;}
	.st4{fill:#EE795E;}
	.st5{fill:#97D2CE;}
	.st6{clip-path:url(#SVGID_00000122714659673305910090000016998862925354682260_);fill:#FFFFFF;}
	.st7{clip-path:url(#SVGID_00000122714659673305910090000016998862925354682260_);fill:#231815;}
	.st8{clip-path:url(#SVGID_00000122714659673305910090000016998862925354682260_);}
	.st9{fill:#FFFFFF;}
</style>
<g>
	<rect x="165" y="22.3" class="st0" width="14.6" height="19.7"/>
	<path class="st1" d="M174,83c-3.6,2.3-7.9,6.8-11.3,15.6c-1.2,3-2.3,5.9-3.4,8.6c0,0-14.5-1.2-20.4-9.6c-10.2-14.5-3-31.5-3-31.5
		l0.2,0.1l6.5,2.5c0,0-1.7,15.9,6.7,19.3C157.3,91.3,172.8,83.5,174,83z"/>
	<path class="st2" d="M141.7,53c1.2,0.4,0.8,2.3,0.8,2.3c0.4-1.1,1.3-1.6,2.2-1.1c1.1,0.5,0.6,2.1,0.6,2.3c0.3-0.7,1.2-1.7,2.2-1.2
		c1.3,0.6,0.4,2.5,0.4,2.5l-2.7,6.2c0.2-0.1,4.1-1.8,5-0.9c0.7,0.8,0.1,1.8-1.2,2.4c-1.2,0.6-6.5,3.4-6.5,3.4l-6.5-2.5l0.1-0.2
		c0,0-2.7-6.7-2.9-7.4c-0.4-1.5,0.1-2.3,1-2.2c1.2,0.2,2.9,4.1,2.9,4.1s2.1-5.7,2.4-6.4C139.7,53.5,140.5,52.5,141.7,53z"/>
	<path class="st3" d="M159.3,107.9C159.2,107.9,159.2,107.9,159.3,107.9c-0.7-0.1-15-1.3-21-9.9c-10.3-14.6-3.1-32-3.1-32.2
		c0.1-0.3,0.5-0.5,0.9-0.4l6.7,2.6c0.3,0.1,0.5,0.4,0.4,0.7c0,0.2-1.5,15.4,6.3,18.6c7.6,3.1,22.5-4.2,24.1-5c0,0,0.1-0.1,0.1-0.1
		c0.4-0.2,0.8,0,0.9,0.4c0.2,0.3,0,0.8-0.3,0.9c-2.9,1.5-17.4,8.4-25.4,5.1c-8-3.3-7.4-16.6-7.2-19.5l-5.6-2.2
		c-1.1,3.2-5.6,17.8,3.2,30.2c5.6,8,19.7,9.3,19.9,9.3c0.4,0,0.7,0.4,0.6,0.8C159.9,107.6,159.6,107.9,159.3,107.9z"/>
	<path class="st3" d="M140,61.9c-0.1,0-0.2,0-0.3-0.1c-0.4-0.1-0.5-0.6-0.4-0.9l2.5-6c0.2-0.7,0.7-1.3,1.3-1.6
		c0.6-0.3,1.2-0.2,1.8,0c1.3,0.6,1.3,2.1,0.9,3.2c-0.1,0.4-0.5,0.6-0.9,0.4c-0.4-0.1-0.6-0.5-0.4-0.9c0,0,0.4-1.2-0.2-1.5
		c-0.2-0.1-0.5-0.1-0.7,0c-0.3,0.1-0.5,0.4-0.6,0.8l-2.5,6C140.5,61.7,140.2,61.9,140,61.9z"/>
	<path class="st3" d="M145.2,64.5c-0.1,0-0.2,0-0.3-0.1c-0.4-0.2-0.5-0.6-0.4-0.9l2.7-6.2c0,0,0.6-1.3,0-1.6c-0.2-0.1-0.3-0.1-0.4,0
		c-0.4,0.1-0.7,0.6-0.9,0.9c-0.3,0.7-2.5,5.9-2.5,6c-0.1,0.4-0.6,0.5-0.9,0.4c-0.4-0.1-0.5-0.6-0.4-0.9c0.1-0.2,2.2-5.3,2.5-6
		c0.1-0.3,0.7-1.3,1.7-1.7c0.5-0.2,1-0.1,1.5,0.1c1.5,0.7,1.1,2.6,0.7,3.4l-2.7,6.2C145.7,64.4,145.5,64.5,145.2,64.5z"/>
	<path class="st3" d="M142.5,69.4c-0.3,0-0.5-0.1-0.6-0.4c-0.2-0.3,0-0.8,0.3-0.9c0.2-0.1,5.3-2.8,6.5-3.4c0.7-0.3,1-0.8,1.1-1
		c0-0.1,0-0.2-0.1-0.3c-0.2-0.1-1.3-0.2-4.2,1l0,0c-0.2,0.1-0.4,0.1-0.6,0c-0.4-0.1-0.5-0.5-0.4-0.9c0.1-0.2,0.2-0.3,0.4-0.4
		c4.6-1.9,5.5-1,5.8-0.7c0.4,0.4,0.6,0.9,0.5,1.5c-0.1,0.8-0.8,1.5-1.8,2.1c-1.2,0.6-6.5,3.3-6.5,3.4
		C142.8,69.4,142.7,69.4,142.5,69.4z"/>
	<path class="st3" d="M136.1,66.7c-0.3,0-0.5-0.2-0.7-0.4c-0.3-0.7-2.7-6.8-2.9-7.5c-0.4-1.4-0.1-2.1,0.3-2.5
		c0.4-0.4,0.9-0.6,1.5-0.5c1,0.1,2,1.7,2.7,3c0.6-1.8,1.6-4.4,1.8-4.8c0.4-1.2,1.7-2.1,3.1-1.6c1.4,0.5,1.4,2.1,1.2,3.1
		c-0.1,0.4-0.4,0.6-0.8,0.5c-0.4-0.1-0.6-0.4-0.5-0.8c0.1-0.3,0.1-1.3-0.3-1.4c-0.9-0.3-1.3,0.7-1.3,0.8c-0.2,0.7-2.4,6.4-2.4,6.4
		c-0.1,0.3-0.4,0.5-0.6,0.5c-0.3,0-0.6-0.2-0.7-0.4c-0.8-1.8-1.9-3.6-2.3-3.7c-0.1,0-0.2,0-0.2,0c-0.1,0.1-0.2,0.5,0,1.2
		c0.1,0.5,1.8,4.7,2.8,7.3c0.1,0.4,0,0.8-0.4,0.9C136.3,66.7,136.2,66.7,136.1,66.7z"/>
	<path class="st0" d="M119.2,166.6h3.5c0,0,0.2,5.8-8.1,5.8v14.2H95.8h-0.1v-5.2h10.5v-14.8H119.2z"/>
	<path class="st1" d="M100,155.1c-1.1-1-1.7-2.4-1.7-3.9c0-2.9,2.4-5.3,5.3-5.3c2.9,0,5.3,2.4,5.3,5.3c0,2.9-2.4,5.3-5.3,5.3
		C102.2,156.5,101,156,100,155.1z"/>
	<path class="st1" d="M90.6,165.2c3.2,2.6,4.4,6.8,4.9,10.2c-19.6,0-21.2-12.8-21.2-12.8h8.3C86.2,162.7,88.7,163.7,90.6,165.2z"/>
	<path class="st0" d="M29.1,208.3h-3.9v-1.4c0-4.9,4.9-4.8,4.9-4.8h4.3v-39.5h21.4h18.6c0,0,1.6,12.8,21.2,12.8
		c0.5,3.3,0.2,5.9,0.2,5.9v5.2v21.7H80.9h-4.1c0-6.8,7.2-6.2,7.2-6.2h2.8v-18.6H63.7v24.8H50.9h-4c0-5.5,4-5.6,4-5.6h4v-19H40.6
		v24.6H29.1z"/>
	<rect x="34.3" y="156.4" class="st4" width="21.4" height="6.2"/>
	<path class="st2" d="M26.7,143.6h-4.6c0,0,0.2-9.4,4.7-9.4c4.5,0,4.5,9.4,4.5,9.4H26.7z"/>
	<path class="st1" d="M0.7,135.1c0-10.2,9-9.1,9-9.1s-0.2,9.6-9,10.1C0.7,135.9,0.7,135.5,0.7,135.1z"/>
	<path class="st0" d="M0.7,143.6c0-0.4,0-2,0-7.4c8.7-0.5,9-10.1,9-10.1h8.6c0,0,2.6,0,6.3,0c0.2,0,0.5,0,0.7,0
		c4,0,10.6-1.1,10.6-4.9c0-3.6-1.8-4.5-5.8-5.3c-1.3-0.3-3.5-0.4-5.6-0.5c-3.1-0.1-6.1-0.1-6.1-0.1l-0.1,0c0.8-11.9,13-10.7,13-10.7
		h0.6h4.5c0,0-1.5,13.1,19.3,13.8v3.4v6.2v6.2v6.2v6.2v6.2v3.6H34.3v-3.1c0,0-15.8,0-25.2,0S0.7,143.6,0.7,143.6z M22.1,143.6h4.6
		h4.6c0,0,0-9.4-4.5-9.4C22.3,134.1,22.1,143.6,22.1,143.6z"/>
	<path class="st0" d="M30.2,115.8c4,0.8,5.8,1.8,5.8,5.3c0,3.9-6.6,4.9-10.6,4.9c-0.2,0-0.5,0-0.7,0c3.5-6.6,0-10.8,0-10.8
		C26.7,115.4,28.9,115.5,30.2,115.8z"/>
	<path class="st5" d="M24.6,115.3c0,0,3.5,4.2,0,10.8c-3.7,0-6.3,0-6.3,0V123c0,0,2.8,0.1,2.7-2.3c-0.1-2.3-2.7-1.7-2.7-1.7v-2.5
		c0-0.4,0-0.8,0-1.2l0.1,0C18.5,115.2,21.5,115.2,24.6,115.3z"/>
	<path class="st1" d="M36.4,104.6h1.8l3.6-9.3l3.1-8.2l5.9,18c5.5,1.7,4.9,9.3,4.9,9.3v1v2.9C34.9,117.7,36.4,104.6,36.4,104.6z"/>
	<polygon class="st1" points="38.6,87.1 41.8,95.3 38.2,104.6 36.4,104.6 31.9,104.6 	"/>
	<path class="st3" d="M21.1,120.7c0.1,2.3-2.7,2.3-2.7,2.3v-4C18.3,119,21,118.3,21.1,120.7z"/>
	<path class="st3" d="M95.7,209H76.8c-0.4,0-0.7-0.3-0.7-0.7c0-2.1,0.7-3.8,2-5c2.3-2.1,5.8-1.8,6-1.8l2.1,0v-17.2H64.4v24.1
		c0,0.4-0.3,0.7-0.7,0.7H46.9c-0.4,0-0.7-0.3-0.7-0.7c0-6.1,4.6-6.3,4.7-6.3l3.3,0v-17.6H41.3v23.9c0,0.4-0.3,0.7-0.7,0.7H25.2
		c-0.4,0-0.7-0.3-0.7-0.7v-1.4c0-1.7,0.5-3,1.5-4c1.6-1.6,4-1.5,4.1-1.5l3.6,0v-38.8c0-0.4,0.3-0.7,0.7-0.7s0.7,0.3,0.7,0.7v39.5
		c0,0.4-0.3,0.7-0.7,0.7H30c0,0-1.9,0-3.1,1.1c-0.7,0.7-1.1,1.7-1.1,2.9v0.7h14.1v-23.9c0-0.4,0.3-0.7,0.7-0.7h14.2
		c0.4,0,0.7,0.3,0.7,0.7v19c0,0.4-0.3,0.7-0.7,0.7h-4c-0.1,0-3,0.2-3.3,4.2H63v-24.1c0-0.4,0.3-0.7,0.7-0.7h23.1
		c0.4,0,0.7,0.3,0.7,0.7v18.6c0,0.4-0.3,0.7-0.7,0.7H84c-0.1,0-3.1-0.2-5,1.5c-0.9,0.8-1.4,1.9-1.5,3.3H95v-26.2
		c0-0.1,0.2-2.7-0.2-5.8c-0.4-3-1.6-7.2-4.7-9.8c-1.9-1.6-4.4-2.4-7.4-2.4h-27c-0.4,0-0.7-0.3-0.7-0.7s0.3-0.7,0.7-0.7h27
		c3.3,0,6.1,0.9,8.3,2.7c3.4,2.8,4.7,7.4,5.2,10.7c0.5,3.3,0.2,6,0.2,6.1l0,26.9C96.4,208.7,96.1,209,95.7,209z"/>
	<path class="st3" d="M34.3,157.1c-0.4,0-0.7-0.3-0.7-0.7V154H9.1c-2.9,0-5.2-0.9-6.8-2.7c-2.7-3.1-2.2-7.6-2.2-7.8
		c0-0.4,0.4-0.7,0.7-0.6c0.4,0,0.7,0.3,0.7,0.7v0.1c0,0.1,0,0.1,0,0.2c-0.1,0.9-0.1,4.3,1.9,6.5c1.3,1.4,3.2,2.2,5.8,2.2h25.2
		c0.4,0,0.7,0.3,0.7,0.7v3.1C35,156.8,34.7,157.1,34.3,157.1z"/>
	<path class="st3" d="M55.8,157.1c-0.4,0-0.7-0.3-0.7-0.7v-42c0-0.1,0.5-7.1-4.4-8.6c-0.2-0.1-0.4-0.2-0.5-0.5l-5.3-16.2l-6,15.6
		c-0.1,0.3-0.4,0.4-0.7,0.4h-6.9c-0.1,0-5.4-0.5-8.9,2.6c-2,1.7-3.1,4.2-3.4,7.5c0,0.4,0,0.8,0,1.2v9.6c0,0.4-0.3,0.7-0.7,0.7H9.7
		c-0.1,0-3.5-0.4-5.9,1.7c-1.6,1.4-2.4,3.7-2.4,6.7v8.4c0,0.4-0.3,0.7-0.7,0.7S0,144,0,143.6v-8.4c0-3.4,1-6,2.9-7.7
		c2.9-2.5,6.7-2.1,6.9-2l7.8,0v-8.9c0-0.4,0-0.9,0-1.3c0.2-3.6,1.5-6.5,3.9-8.5c4-3.4,9.7-2.9,9.9-2.9l6.3,0l6.5-17
		c0.1-0.3,0.4-0.5,0.7-0.4c0.3,0,0.6,0.2,0.6,0.5l5.8,17.7c5.6,2,5.1,9.6,5.1,9.9l0,41.9C56.5,156.8,56.2,157.1,55.8,157.1z"/>
	<path class="st3" d="M55.8,163.4H34.3c-0.4,0-0.7-0.3-0.7-0.7v-6.2c0-0.4,0.3-0.7,0.7-0.7h21.4c0.4,0,0.7,0.3,0.7,0.7v6.2
		C56.5,163,56.2,163.4,55.8,163.4z M35,162h20v-4.8H35V162z"/>
	<path class="st3" d="M61.8,116.1h-6.1c-0.4,0-0.7-0.3-0.7-0.7s0.3-0.7,0.7-0.7h6.1c0.4,0,0.7,0.3,0.7,0.7S62.2,116.1,61.8,116.1z"
		/>
	<path class="st3" d="M61.8,122.4h-6.1c-0.4,0-0.7-0.3-0.7-0.7s0.3-0.7,0.7-0.7h6.1c0.4,0,0.7,0.3,0.7,0.7S62.2,122.4,61.8,122.4z"
		/>
	<path class="st3" d="M61.8,128.6h-6.1c-0.4,0-0.7-0.3-0.7-0.7c0-0.4,0.3-0.7,0.7-0.7h6.1c0.4,0,0.7,0.3,0.7,0.7
		C62.5,128.3,62.2,128.6,61.8,128.6z"/>
	<path class="st3" d="M61.8,134.8h-6.1c-0.4,0-0.7-0.3-0.7-0.7s0.3-0.7,0.7-0.7h6.1c0.4,0,0.7,0.3,0.7,0.7S62.2,134.8,61.8,134.8z"
		/>
	<path class="st3" d="M61.8,141.1h-6.1c-0.4,0-0.7-0.3-0.7-0.7s0.3-0.7,0.7-0.7h6.1c0.4,0,0.7,0.3,0.7,0.7S62.2,141.1,61.8,141.1z"
		/>
	<path class="st3" d="M61.8,147.3h-6.1c-0.4,0-0.7-0.3-0.7-0.7s0.3-0.7,0.7-0.7h6.1c0.4,0,0.7,0.3,0.7,0.7S62.2,147.3,61.8,147.3z"
		/>
	<path class="st3" d="M61.8,153.5h-6.1c-0.4,0-0.7-0.3-0.7-0.7s0.3-0.7,0.7-0.7h6.1c0.4,0,0.7,0.3,0.7,0.7S62.2,153.5,61.8,153.5z"
		/>
	<path class="st3" d="M55.8,119C55.8,119,55.8,119,55.8,119c-8-0.2-13.8-2.3-17.1-6.2c-3.4-3.9-2.9-8.2-2.9-8.4
		c0-0.4,0.4-0.7,0.8-0.6c0.4,0,0.7,0.4,0.6,0.8l0,0c0,0-0.4,3.9,2.6,7.3c3.1,3.5,8.5,5.4,16.1,5.7c0.4,0,0.7,0.3,0.7,0.7
		C56.5,118.7,56.1,119,55.8,119z"/>
	<path class="st3" d="M0.7,136.9c-0.4,0-0.7-0.3-0.7-0.7c0-0.4,0.3-0.7,0.7-0.7c8-0.4,8.3-9.1,8.3-9.4c0-0.4,0.3-0.7,0.7-0.7
		c0.4,0,0.7,0.3,0.7,0.7C10.4,126.2,10.1,136.4,0.7,136.9C0.8,136.9,0.8,136.9,0.7,136.9z"/>
	<path class="st3" d="M31.3,144.3H0.7c-0.4,0-0.7-0.3-0.7-0.7s0.3-0.7,0.7-0.7h20.7c0.1-2.3,0.9-9.4,5.4-9.4c5.2,0,5.2,9.7,5.2,10.1
		C32,144,31.7,144.3,31.3,144.3z M22.8,142.9h7.8c-0.1-2.8-0.9-8-3.8-8C23.9,134.8,23,140.1,22.8,142.9z"/>
	<path class="st3" d="M26.7,144.3c-0.4,0-0.7-0.3-0.7-0.7v-5.5c0-0.4,0.3-0.7,0.7-0.7s0.7,0.3,0.7,0.7v5.5
		C27.4,144,27.1,144.3,26.7,144.3z"/>
	<path class="st3" d="M25.3,126.8h-7c-0.4,0-0.7-0.3-0.7-0.7s0.3-0.7,0.7-0.7h7c3.4,0,9.9-0.9,9.9-4.2c0-3-1.3-3.8-5.2-4.7
		c-1.1-0.2-3-0.4-5.5-0.5c-3.1-0.1-6.1-0.1-6.1-0.1c-0.4,0-0.7-0.3-0.7-0.7c0-0.4,0.3-0.7,0.7-0.7c0,0,3.1-0.1,6.2,0.1
		c1.8,0.1,4.2,0.2,5.7,0.5c3.6,0.8,6.3,1.7,6.3,6C36.7,125.3,30.6,126.8,25.3,126.8z"/>
	<path class="st3" d="M24.6,126.8c-0.1,0-0.2,0-0.3-0.1c-0.3-0.2-0.5-0.6-0.3-0.9c3.2-6,0.2-9.8,0.1-10c-0.2-0.3-0.2-0.7,0.1-1
		c0.3-0.2,0.7-0.2,1,0.1c0.2,0.2,3.7,4.7,0.1,11.6C25.1,126.6,24.9,126.8,24.6,126.8z"/>
	<path class="st3" d="M31.9,105.3c-0.1,0-0.2,0-0.3,0c-0.4-0.1-0.5-0.5-0.4-0.9L38,86.8c0.1-0.3,0.4-0.4,0.7-0.4c0,0,0,0,0,0
		c0.3,0,0.5,0.2,0.7,0.4l3.2,8.2c0.1,0.4,0,0.8-0.4,0.9c-0.4,0.1-0.8,0-0.9-0.4L38.6,89l-6.1,15.8C32.4,105.1,32.2,105.3,31.9,105.3
		z"/>
	<path class="st3" d="M95.5,176.1c-10.4,0-15.8-3.6-18.4-6.6c-3-3.3-3.4-6.6-3.4-6.8c0-0.4,0.2-0.7,0.6-0.8c0.4,0,0.7,0.2,0.8,0.6
		c0.1,0.5,1.8,12.2,20.5,12.2c0.4,0,0.7,0.3,0.7,0.7S95.9,176.1,95.5,176.1z"/>
	<path class="st3" d="M90.6,165.9c-0.2,0-0.3-0.1-0.5-0.2c-0.3-0.3-0.3-0.7,0-1l9.4-10.1l1,1l-9.4,10.1
		C91,165.9,90.8,165.9,90.6,165.9z"/>
	<path class="st3" d="M103.6,157.2c-1.5,0-2.9-0.6-4-1.6c-1.2-1.1-1.9-2.7-1.9-4.4c0-3.3,2.7-6,6-6c3.3,0,6,2.7,6,6
		C109.6,154.5,106.9,157.2,103.6,157.2z M103.6,146.7c-2.5,0-4.6,2-4.6,4.6c0,1.3,0.5,2.5,1.5,3.4c0.8,0.8,1.9,1.2,3.1,1.2
		c2.5,0,4.6-2,4.6-4.6C108.2,148.7,106.1,146.7,103.6,146.7z"/>
	<path class="st3" d="M114.6,187.3H95.8c-0.4,0-0.7-0.3-0.7-0.7s0.3-0.7,0.7-0.7h18.1v-13.5c0-0.4,0.3-0.7,0.7-0.7
		c2.8,0,4.8-0.7,6.1-2c0.8-0.9,1.1-1.8,1.2-2.4h-15v14.1c0,0.4-0.3,0.7-0.7,0.7H95.7c-0.4,0-0.7-0.3-0.7-0.7s0.3-0.7,0.7-0.7h9.8
		v-14.1c0-0.4,0.3-0.7,0.7-0.7h16.4c0.4,0,0.7,0.3,0.7,0.7c0,0.1,0.1,2.3-1.7,4.1c-1.4,1.5-3.6,2.3-6.4,2.4v13.5
		C115.3,187,115,187.3,114.6,187.3z"/>
	<path class="st3" d="M29.1,209c-0.3,0-0.6-0.2-0.7-0.5c0-0.1-0.4-1.7,0.6-3.1c0.8-1,2.1-1.5,4-1.5c0.4,0,0.7,0.3,0.7,0.7
		s-0.3,0.7-0.7,0.7c-1.4,0-2.4,0.3-2.9,1c-0.6,0.8-0.4,1.9-0.4,1.9c0.1,0.4-0.1,0.8-0.5,0.8C29.2,209,29.2,209,29.1,209z"/>
	<path class="st3" d="M50.9,209c-0.3,0-0.6-0.2-0.7-0.5c0-0.1-0.4-1.7,0.6-3.1c0.8-1,2.1-1.5,4-1.5c0.4,0,0.7,0.3,0.7,0.7
		s-0.3,0.7-0.7,0.7c-1.4,0-2.4,0.3-2.9,1c-0.6,0.8-0.4,1.8-0.4,1.9c0.1,0.4-0.1,0.8-0.5,0.9C51,209,51,209,50.9,209z"/>
	<path class="st3" d="M80.9,209c-0.3,0-0.6-0.2-0.7-0.5c0-0.1-0.4-1.7,0.6-3.1c0.8-1,2.1-1.5,4-1.5c0.4,0,0.7,0.3,0.7,0.7
		s-0.3,0.7-0.7,0.7c-1.4,0-2.4,0.3-2.9,1c-0.6,0.8-0.4,1.8-0.4,1.9c0.1,0.4-0.1,0.8-0.5,0.9C81,209,81,209,80.9,209z"/>
	<path class="st3" d="M114.8,170.2c-0.4,0-0.7-0.3-0.7-0.7c0-0.4,0.3-0.7,0.7-0.7c0,0,3.7-0.1,3.7-2.2c0-0.4,0.3-0.7,0.7-0.7
		s0.7,0.3,0.7,0.7C119.9,169.4,116.7,170.2,114.8,170.2C114.8,170.2,114.8,170.2,114.8,170.2z"/>
	<path class="st5" d="M166.5,39.4c-2.1,0.3-4.6,0.5-7.6,0.5c-0.1-0.3-0.1-0.7-0.2-1c-0.2-1.2-0.4-2.3-0.6-3.5l0.4,2.1
		c1.8,0,3.2-1.4,3.2-3.2c0-1.8-1.4-3.2-3.2-3.2c-0.3,0-0.6,0-0.8,0.1c-0.1-0.9-0.1-1.8-0.1-2.7h0.2c0,0,3.8-0.5,8-0.3
		C166,28.4,168.5,32.3,166.5,39.4L166.5,39.4z"/>
	<path class="st2" d="M125.3,130.4l6-3.1c-0.2-0.1-4.3-1.2-4.4-2.5c-0.1-1.1,1.1-1.4,2.5-1.1c1.3,0.3,7.5,1.6,7.5,1.6l3.2,5.7
		c0,0-2.5,7.3-2.8,8c-0.6,1.4-1.5,1.7-2.1,1c-0.8-0.9,0.4-5,0.4-5s-5.3,3.1-5.9,3.4c-0.6,0.4-1.8,0.6-2.5-0.5
		c-0.6-1.1,0.8-2.2,0.8-2.2c-1,0.6-2,0.4-2.4-0.5c-0.5-1.1,0.9-2,1-2.2c-0.7,0.3-2,0.6-2.5-0.5C123.5,131.3,125.3,130.4,125.3,130.4
		z"/>
	<path class="st0" d="M166.7,206.1h-8.9v-0.9c0-3.9,2.8-6.1,5.5-6c0.6,0,1.2,0.1,1.8,0.2C165.1,199.3,166.7,201.7,166.7,206.1z"/>
	<polygon class="st0" points="184.8,206.1 184.8,208.3 157.7,208.3 157.7,206.1 166.7,206.1 	"/>
	<polygon class="st0" points="202.5,201.3 218.2,192.3 219.3,194.1 195.8,207.6 194.8,205.7 	"/>
	<path class="st0" d="M202.5,201.3l-7.8,4.4l-0.5-0.8c-1.9-3.3-0.6-6.7,1.8-8c0.5-0.3,1.1-0.5,1.7-0.8
		C197.7,196.2,200.3,197.4,202.5,201.3z"/>
	<path class="st5" d="M184.8,206.1h-27c0.6-8.8,7.4-6.8,7.4-6.8c2.3,0.4,4.6,1.1,5.5,1c1.2-0.2,1.5-2,2.1-2.5c0.6-0.5,2.9,0,2.9,0
		s3.1,0.4,3.1,2.3c0,1.9,3.3,1.6,3.3,1.6v-2.6c3.3,0.4,2.8,2.5,2.8,2.5V206.1z"/>
	<path class="st5" d="M218.2,192.3l-23.5,13.4c-4.1-7.2,3-9.5,3-9.5c2.1-0.8,4.5-1.3,5.3-1.9c1-0.7,0.4-2.5,0.6-3.2
		c0.3-0.7,2.5-1.4,2.5-1.4s2.8-1.2,3.8,0.4c0.9,1.6,3.6-0.2,3.6-0.2l-1.3-2.3c3.1-1.2,3.7,0.8,3.7,0.8L218.2,192.3z"/>
	<polygon class="st4" points="210.7,180.3 208.8,181.4 203.3,184.7 203.3,184.7 201.4,185.8 189.4,172.7 196.7,131.1 	"/>
	<polygon class="st4" points="175.6,192.1 171.5,192.1 160.3,131.1 196.7,131.1 189.4,172.7 186,192.1 181.9,192.1 	"/>
	<path class="st1" d="M188.1,71.3c11.2,0,10.2,23.2,10.2,23.2v36.7h-1.7h-36.5h-1.7c0,0,0-11.8,0-27.2c0-3,0-6.1,0-9.2
		c0-9.5,2.4-15.2,4.9-18.7c0,0,0.1-0.1,0.1-0.1c2.7-3.7,5.5-4.6,5.5-4.6H188.1z"/>
	<path class="st2" d="M212.2,187.5l1.3,2.3c0,0-2.7,1.9-3.6,0.2c-0.9-1.6-3.8-0.4-3.8-0.4l-2.9-5v0l5.5-3.2v0L212.2,187.5z"/>
	<path class="st2" d="M181.9,199.1v2.6c0,0-3.3,0.3-3.3-1.6c0-1.9-3.1-2.3-3.1-2.3v-5.7h6.3V199.1z"/>
	<polygon class="st2" points="188.1,66.5 188.1,71.3 169.1,71.3 169.1,66.5 178.7,66.5 	"/>
	<path class="st2" d="M164.1,56.2L164.1,56.2c-0.9-2.1-1.8-4.4-2.7-6.9l0.1,0h8.8c0,0,4.2-0.1,4.2,3.7c0,3.1-4.2,3.2-4.2,3.2H164.1z
		"/>
	<path class="st2" d="M158.9,39.9c0.5,2.4,1.1,4.6,1.7,6.8c-2.7,0.7-5.6-0.2-5.6-0.2l3.7-7.6C158.8,39.2,158.8,39.6,158.9,39.9z"/>
	<path class="st2" d="M199.1,35.8c0,0,3.9-1.2,3.9,3.8c0,5-5.7,5-5.7,5h0C198.1,41.9,198.7,38.9,199.1,35.8z"/>
	<path class="st2" d="M165.8,28c-4.2-0.1-8,0.3-8,0.3h-0.2c0-3.4,0.6-6.4,1.5-9h21.3c0,0,8.7-0.5,10.6,9.7c0.9,4.9,8.3,5.1,8.3,5.1
		c-0.1,0.6-0.1,1.2-0.2,1.7c-0.4,3.1-1.1,6-1.8,8.8c-3.4,12.6-9.1,21.8-9.1,21.8h-0.1h-9.5h-9.5c0,0-2.5-4-5.1-10.3l0.1,0h6.2
		c0,0,4.2-0.1,4.2-3.2c0-3.8-4.2-3.7-4.2-3.7h-8.8l-0.1,0c-0.3-0.8-0.5-1.7-0.8-2.5c-0.6-2.2-1.2-4.4-1.7-6.8c3,0,5.5-0.2,7.6-0.5
		c11.2-1.5,10.4-6.2,10.4-6.2C176.7,29.3,170.9,28.2,165.8,28z"/>
	<path class="st4" d="M148.6,1.1l3.6,6.6l-3.3,3l3.2,3.4l-3.2,5.2h31.5c0,0,6.5,0.4,8.7,4.5s1.7,7.6,5.3,9.1c3.6,1.5,4.9,1.2,5-0.3
		c0.1-1.5,1.9-12.6-2.1-19.9s-10.3-7.6-13.6-8.1S148.6,1.1,148.6,1.1z"/>
	<path class="st0" d="M163.3,54.1c0,0-2.2-2.3,1.3-2.3s7.6-0.1,8,2.4c0.4,2.5-2.3,3.1-4.8,3.2C165.2,57.4,164,57.1,163.3,54.1z"/>
	<path class="st3" d="M158.1,35.3c-0.2-1.1-0.3-2.3-0.4-3.5c0-0.3,0-0.5,0-0.8c0.3-0.1,0.5-0.1,0.8-0.1c1.8,0,3.2,1.4,3.2,3.2
		c0,1.8-1.4,3.2-3.2,3.2L158.1,35.3L158.1,35.3z"/>
	<path class="st3" d="M158.1,35.3l-0.8-4.1c0.1-0.1,0.3-0.1,0.4-0.2c0,0.2,0,0.5,0,0.8C157.8,33,158,34.1,158.1,35.3z"/>
	<path class="st3" d="M158.4,47.7c-2,0-3.5-0.5-3.6-0.6c-0.2-0.1-0.3-0.2-0.4-0.4c-0.1-0.2-0.1-0.4,0-0.6l3.7-7.6
		c0.2-0.3,0.6-0.5,0.9-0.3c0.3,0.2,0.5,0.6,0.3,0.9L156,46c1,0.2,2.8,0.5,4.4,0c0.4-0.1,0.8,0.1,0.9,0.5c0.1,0.4-0.1,0.8-0.5,0.9
		C160,47.6,159.2,47.7,158.4,47.7z"/>
	<path class="st3" d="M170.4,60.5C170.3,60.5,170.3,60.5,170.4,60.5l-4.8,0c-0.4,0-0.7-0.3-0.7-0.7c0-0.4,0.3-0.7,0.7-0.7h4.7
		c0,0,2.5,0,3.9-1.3c0.7-0.7,1-1.6,1-2.7c0-1.8-0.5-3.1-1.4-4c-1.4-1.3-3.4-1.1-3.4-1.1l-8.8,0c-0.4,0-0.7-0.3-0.7-0.7
		s0.3-0.7,0.7-0.7h8.8c0,0,2.6-0.2,4.4,1.5c1.3,1.1,1.9,2.8,1.9,5c0,1.5-0.5,2.8-1.4,3.7C173.5,60.4,170.9,60.5,170.4,60.5z"/>
	<path class="st3" d="M197.3,45.4c-0.4,0-0.7-0.3-0.7-0.7c0-0.4,0.3-0.7,0.7-0.7c0.2,0,5-0.1,5-4.3c0-1.4-0.3-2.4-1-2.9
		c-0.8-0.6-2-0.3-2-0.3c-0.4,0.1-0.8-0.1-0.9-0.5c-0.1-0.4,0.1-0.8,0.5-0.9c0.1,0,1.9-0.5,3.3,0.5c1,0.8,1.6,2.1,1.6,4
		C203.8,44.2,199.5,45.4,197.3,45.4z"/>
	<path class="st3" d="M158.7,40.6c-0.4,0-0.7-0.3-0.7-0.7s0.3-0.7,0.7-0.7h0.2c2.7,0,5.3-0.2,7.5-0.5c10.2-1.4,9.8-5.3,9.8-5.4
		c-0.1-3.6-5.7-4.5-10.4-4.7c-4.1-0.1-7.8,0.3-7.9,0.3c-0.4,0-0.7-0.2-0.8-0.6c0-0.4,0.2-0.7,0.6-0.8c0.2,0,3.9-0.5,8.1-0.3
		c9.5,0.3,11.6,3.4,11.7,5.9c0,0,0.2,1.2-0.8,2.6c-1.6,2.1-5,3.6-10.1,4.3c-2.3,0.3-4.8,0.5-7.7,0.5H158.7z"/>
	<path class="st3" d="M166.5,40.1c-0.1,0-0.1,0-0.2,0c-0.4-0.1-0.6-0.5-0.5-0.9c1.9-6.6-0.3-10.3-0.6-10.8c-0.2-0.3-0.2-0.7,0.1-0.9
		c0.3-0.3,0.7-0.3,1,0l0,0c0,0,0.1,0.1,0.1,0.1c0.5,0.7,2.8,4.8,0.8,12C167.1,39.9,166.8,40.1,166.5,40.1z"/>
	<path class="st3" d="M188.2,67.2h-19.1c-0.2,0-0.5-0.1-0.6-0.3c0,0-2.5-4.1-5.2-10.4c-0.9-2.2-1.8-4.6-2.6-7
		c-0.3-0.8-0.5-1.7-0.8-2.6c-0.7-2.2-1.2-4.5-1.7-6.8L158,39c-0.2-1.2-0.4-2.4-0.6-3.6c-0.2-2.1-0.4-4.3-0.4-4.3
		c-0.1-1-0.1-1.9-0.1-2.8c0-3,0.5-5.8,1.3-8.3l-9.3,0c-0.3,0-0.5-0.1-0.6-0.4c-0.1-0.2-0.1-0.5,0-0.7l3-4.6l-3.3-3
		c-0.1-0.1-0.2-0.3-0.2-0.5c0-0.2,0.1-0.4,0.3-0.5l3.4-2.9l-3.9-6.1c-0.1-0.2-0.2-0.5,0-0.7c0.1-0.2,0.4-0.4,0.7-0.3l38.2,4.3
		c0.1,0,9.8,0.8,12.8,10.9c2.2,7.3,1.1,16.1,1,16.5c-0.1,0.7-0.1,1.5-0.2,2.3c0,0,0,0,0,0c-0.1,0.6-0.1,1.2-0.2,1.8
		c-0.4,2.9-1,5.9-1.8,8.9c-3.4,12.5-9.1,21.9-9.2,22C188.7,67,188.5,67.2,188.2,67.2z M169.5,65.8h18.3c1-1.8,5.9-10.3,8.8-21.3
		c0.8-3,1.4-5.9,1.8-8.7c0-0.3,0.1-0.7,0.1-1c-2-0.2-7.3-1.1-8.2-5.6c-1.8-9.4-9.6-9.1-9.9-9.1l-20.8,0c-0.8,2.5-1.3,5.3-1.3,8.3
		c0,0.9,0,1.7,0.1,2.7l0,0c0,0,0.3,2.2,0.4,4.3c0.1,1.1,0.3,2.3,0.6,3.5l0.2,1c0.5,2.2,1,4.5,1.7,6.7c0.3,0.9,0.5,1.7,0.8,2.5
		c0.8,2.4,1.6,4.7,2.6,6.9C166.8,61.1,168.9,64.7,169.5,65.8z M180.6,18.6c1.2,0,9.3,0.4,11.2,10.3c0.7,3.5,5.3,4.3,7,4.4
		c0.1-0.5,0.1-1,0.1-1.6c0-0.1,1.1-9-1-16c-2.7-9.2-11.2-9.9-11.6-9.9l-36.8-4.1l3.5,5.4c0.2,0.3,0.1,0.7-0.1,0.9l-3.3,2.7l3.1,2.9
		c0.3,0.2,0.3,0.6,0.1,0.9l-2.6,4h9c0,0,0,0,0,0h21.2C180.5,18.6,180.5,18.6,180.6,18.6z"/>
	<path class="st3" d="M188.1,72h-19c-0.4,0-0.7-0.3-0.7-0.7v-4.8c0-0.4,0.3-0.7,0.7-0.7s0.7,0.3,0.7,0.7v4.1h17.6v-4.1
		c0-0.4,0.3-0.7,0.7-0.7s0.7,0.3,0.7,0.7v4.8C188.8,71.7,188.5,72,188.1,72z"/>
	<path class="st3" d="M198.4,131.8h-39.8c-0.4,0-0.7-0.3-0.7-0.7V94.6c0-8.1,1.7-14.5,5.1-19.1c0.2-0.3,0.7-0.4,1-0.2
		c0.3,0.2,0.4,0.7,0.2,1c-2.2,3-4.8,8.6-4.8,18.2v35.8h38.4v-36c0-0.2,0.6-14.8-4.8-20.4c-1.3-1.4-2.9-2.1-4.7-2.1
		c-0.4,0-0.7-0.3-0.7-0.7s0.3-0.7,0.7-0.7c2.2,0,4.2,0.8,5.8,2.5c5.8,6,5.2,20.8,5.2,21.4l0,36.6
		C199.1,131.5,198.8,131.8,198.4,131.8z"/>
	<path class="st3" d="M163.6,76.6c-0.1,0-0.3,0-0.4-0.1c-0.3-0.2-0.4-0.7-0.1-1c2.8-3.8,5.8-4.8,5.9-4.9c0.4-0.1,0.8,0.1,0.9,0.4
		c0.1,0.4-0.1,0.8-0.4,0.9c-0.1,0-2.7,1-5.2,4.4C164,76.5,163.8,76.6,163.6,76.6z"/>
	<path class="st3" d="M201.4,186.5c-0.2,0-0.4-0.1-0.5-0.2l-12-13.1c-0.3-0.3-0.2-0.7,0-1c0.3-0.3,0.7-0.2,1,0l11.6,12.7l1.4-0.8
		c0.3-0.2,0.8-0.1,1,0.2c0.2,0.3,0.1,0.8-0.2,1l-1.9,1.1C201.6,186.5,201.5,186.5,201.4,186.5z"/>
	<path class="st3" d="M186,192.8h-14.5c-0.3,0-0.6-0.2-0.7-0.6l-11.2-61c-0.1-0.4,0.2-0.7,0.6-0.8c0.4-0.1,0.7,0.2,0.8,0.6
		l11.1,60.4h13.3L196,131c0.1-0.3,0.3-0.6,0.7-0.6c0.3,0,0.6,0.2,0.7,0.5l14,49.2c0.1,0.3,0,0.6-0.3,0.8l-7.4,4.4
		c-0.3,0.2-0.8,0.1-1-0.2c-0.2-0.3-0.1-0.8,0.2-1l6.9-4.1l-13-45.7l-10.2,58C186.6,192.6,186.3,192.8,186,192.8z"/>
	<path class="st3" d="M181.5,202.4c-0.7,0-2.1-0.1-2.9-0.8c-0.4-0.4-0.6-0.9-0.6-1.5c0-1.2-2.4-1.6-2.4-1.6c-0.4,0-0.6-0.3-0.6-0.7
		v-5.7c0-0.4,0.3-0.7,0.7-0.7s0.7,0.3,0.7,0.7v5.1c1.3,0.3,3.1,1.1,3.1,2.8c0,0.2,0.1,0.3,0.2,0.4c0.3,0.3,1.1,0.4,1.7,0.5v-8.9
		c0-0.4,0.3-0.7,0.7-0.7s0.7,0.3,0.7,0.7v9.5c0,0.4-0.3,0.7-0.6,0.7C181.9,202.4,181.7,202.4,181.5,202.4z"/>
	<path class="st3" d="M184.8,209h-27c-0.4,0-0.7-0.3-0.7-0.7v-3.1c0-2,0.7-3.8,2-5c1.1-1.1,2.7-1.7,4.3-1.7c0.6,0,1.2,0.1,1.9,0.2
		c0.9,0.1,1.9,0.4,2.7,0.5c1.1,0.2,2.2,0.5,2.6,0.4c0.4,0,0.7-0.5,1-1.2c0.2-0.4,0.4-0.8,0.7-1.1c0.7-0.6,2.5-0.4,3.5-0.2
		c0.4,0.1,0.6,0.5,0.5,0.8c-0.1,0.4-0.5,0.6-0.8,0.5c-1-0.2-2.1-0.3-2.3-0.1c-0.1,0.1-0.2,0.4-0.4,0.7c-0.4,0.8-0.9,1.8-2.1,2
		c-0.7,0.1-1.8-0.2-3.1-0.5c-0.8-0.2-1.7-0.4-2.6-0.5c-0.6-0.1-1.2-0.2-1.7-0.2c-1.2,0-2.4,0.4-3.2,1.3c-0.7,0.7-1.6,2-1.6,4v2.4
		h25.6v-6c0,0,0-0.1,0-0.1c0,0,0.1-0.4-0.2-0.8c-0.3-0.5-1-0.8-2-0.9c-0.4-0.1-0.7-0.4-0.6-0.8c0.1-0.4,0.4-0.7,0.8-0.6
		c1.4,0.2,2.4,0.7,3,1.5c0.5,0.8,0.5,1.5,0.5,1.8v6.6C185.5,208.7,185.2,209,184.8,209z"/>
	<path class="st3" d="M184.8,206.8h-27c-0.4,0-0.7-0.3-0.7-0.7s0.3-0.7,0.7-0.7h27c0.4,0,0.7,0.3,0.7,0.7S185.2,206.8,184.8,206.8z"
		/>
	<path class="st3" d="M211.1,191.4c-0.2,0-0.3,0-0.5-0.1c-0.6-0.1-1-0.5-1.3-1c-0.6-1-2.9-0.2-2.9-0.1c-0.3,0.1-0.7,0-0.9-0.3
		l-2.9-5c-0.1-0.1-0.1-0.2-0.1-0.3c0-0.4,0.3-0.7,0.7-0.7c0.3,0,0.5,0.2,0.6,0.4l2.5,4.4c1.3-0.4,3.2-0.5,4.1,1
		c0.1,0.2,0.2,0.3,0.4,0.3c0.5,0.1,1.1-0.2,1.7-0.4l-4.5-7.8c-0.2-0.3-0.1-0.8,0.3-1c0.3-0.2,0.8-0.1,1,0.3l4.8,8.4
		c0.2,0.3,0.1,0.7-0.2,0.9C213.8,190.5,212.4,191.4,211.1,191.4z"/>
	<path class="st3" d="M195.8,208.3c-0.1,0-0.1,0-0.2,0c-0.2,0-0.3-0.2-0.4-0.3l-1.6-2.7c-1-1.7-1.3-3.6-0.8-5.4
		c0.4-1.5,1.5-2.8,2.8-3.6c0.6-0.3,1.2-0.6,1.8-0.8c0.9-0.3,1.8-0.6,2.7-0.9c1.1-0.3,2.1-0.6,2.4-0.9c0.3-0.2,0.3-0.8,0.3-1.6
		c0-0.5-0.1-0.9,0.1-1.3c0.3-0.9,2-1.6,3-1.9c0.4-0.1,0.8,0.1,0.9,0.5c0.1,0.4-0.1,0.8-0.5,0.9c-0.9,0.3-1.9,0.8-2.1,1
		c0,0.1,0,0.5,0,0.7c0.1,0.9,0.1,2.1-0.8,2.8c-0.6,0.4-1.6,0.7-2.9,1.1c-0.8,0.2-1.7,0.5-2.6,0.9c-0.5,0.2-1.1,0.4-1.6,0.7
		c-1,0.6-1.8,1.6-2.2,2.7c-0.3,1-0.4,2.5,0.7,4.3l1.2,2.1l22.2-12.8l-3-5.2c0,0,0-0.1-0.1-0.1c0,0-0.2-0.4-0.6-0.6
		c-0.5-0.2-1.3-0.2-2.2,0.2c-0.4,0.1-0.8,0-0.9-0.4c-0.1-0.4,0-0.8,0.4-0.9c1.3-0.5,2.4-0.6,3.3-0.2c0.9,0.4,1.2,1.1,1.3,1.3
		l3.3,5.8c0.1,0.2,0.1,0.4,0.1,0.5c0,0.2-0.2,0.3-0.3,0.4l-23.5,13.5C196.1,208.3,196,208.3,195.8,208.3z"/>
	<path class="st3" d="M194.8,206.4c-0.2,0-0.5-0.1-0.6-0.4c-0.2-0.3-0.1-0.8,0.3-1l23.5-13.4c0.3-0.2,0.8-0.1,1,0.3
		c0.2,0.3,0.1,0.8-0.3,1l-23.5,13.4C195,206.4,194.9,206.4,194.8,206.4z"/>
	<path class="st3" d="M126.9,136.8c-0.2,0-0.4,0-0.6-0.1c-0.6-0.2-1.1-0.6-1.4-1.2c-0.7-1.4,0.6-2.6,1.3-3.1c0.3-0.2,0.8-0.1,1,0.2
		c0.2,0.3,0.1,0.8-0.2,1c0,0-1,0.7-0.8,1.2c0.1,0.2,0.3,0.4,0.5,0.4c0.3,0.1,0.6,0,0.9-0.2l5.8-3c0.3-0.2,0.8,0,0.9,0.3
		c0.2,0.3,0,0.8-0.3,0.9l-5.7,3C127.8,136.6,127.3,136.8,126.9,136.8z"/>
	<path class="st3" d="M125.3,134c-0.3,0-0.6,0-0.8-0.1c-0.5-0.2-0.9-0.6-1.1-1.1c-0.7-1.5,0.8-2.7,1.6-3.1l6-3
		c0.3-0.2,0.8,0,0.9,0.3c0.2,0.3,0,0.8-0.3,0.9l-6,3.1c0,0-1.3,0.6-1,1.2c0.1,0.2,0.2,0.3,0.3,0.3c0.3,0.1,0.8,0,1.2-0.1
		c0,0,0.1,0,0.1,0c0.7-0.3,5.6-3,5.7-3c0.3-0.2,0.8-0.1,0.9,0.3c0.2,0.3,0.1,0.8-0.3,0.9c-0.2,0.1-4.8,2.5-5.7,3c0,0,0,0,0,0
		c0,0-0.1,0-0.1,0C126.6,133.8,126,134,125.3,134z"/>
	<path class="st3" d="M135.8,141.1c-0.4,0-0.9-0.2-1.2-0.6c-0.7-0.7-0.5-2.5-0.2-4c-1.6,0.9-4,2.3-4.5,2.6c-1.1,0.6-2.7,0.6-3.5-0.7
		c-0.8-1.3,0.3-2.6,1-3.2c0.3-0.2,0.7-0.2,1,0.1c0.2,0.3,0.2,0.7-0.1,1c-0.2,0.2-0.9,0.9-0.7,1.3c0.5,0.8,1.5,0.3,1.5,0.2
		c0.6-0.4,5.9-3.4,5.9-3.4c0.2-0.1,0.6-0.1,0.8,0.1c0.2,0.2,0.3,0.5,0.2,0.8c-0.6,1.9-0.9,3.9-0.6,4.3c0.1,0.1,0.1,0.1,0.2,0.1
		c0.1,0,0.4-0.2,0.8-1c0.2-0.4,1.7-4.7,2.7-7.6l-2.8-5.2c-1.3-0.3-6.1-1.2-7.3-1.5c-0.7-0.2-1.3-0.1-1.5,0.1c-0.1,0-0.1,0.1-0.1,0.3
		c0.1,0.3,1.1,1.1,3.9,1.9c0.2,0,0.3,0.1,0.4,0.3c0.2,0.3,0.2,0.7-0.1,1c-0.2,0.1-0.4,0.2-0.7,0.1c-3.2-0.9-4.9-2-4.9-3.1
		c0-0.6,0.2-1.1,0.6-1.5c0.6-0.5,1.6-0.7,2.7-0.4c1.3,0.3,7.5,1.5,7.5,1.6c0.2,0,0.4,0.2,0.5,0.3l3.2,5.7c0.1,0.2,0.1,0.4,0,0.6
		c-0.3,0.8-2.5,7.4-2.9,8c-0.6,1.3-1.3,1.7-1.8,1.8C135.9,141.1,135.9,141.1,135.8,141.1z"/>
	<g>
		<path class="st1" d="M187.5,89.9c0,0,0.5-9.7-9.2-10.7c-8.4-0.8-13.2,9.3-13.2,9.3s-11,25.2-28.8,35.7l4,7.3
			c0,0,20.5-9.6,39.5-27.4C179.9,104.1,186.7,97.8,187.5,89.9z"/>
		<path class="st3" d="M140.3,132.2c-0.2,0-0.5-0.1-0.6-0.4l-4-7.3c-0.2-0.3-0.1-0.7,0.3-0.9c17.4-10.3,28.4-35.2,28.5-35.4
			c0.2-0.5,5.1-10.6,13.9-9.7c10.2,1,9.8,11.3,9.8,11.4c0,0,0,0,0,0c-0.8,8.2-7.5,14.4-7.8,14.7c-18.9,17.7-39.5,27.4-39.7,27.5
			C140.5,132.2,140.4,132.2,140.3,132.2z M137.3,124.5l3.4,6.1c3.5-1.7,21.8-11.1,38.8-27c0.1-0.1,6.6-6.2,7.4-13.8
			c0-0.5,0.2-9.1-8.5-9.9c-7.8-0.7-12.4,8.8-12.5,8.9C165.6,89,154.7,113.7,137.3,124.5z M187.5,89.9L187.5,89.9L187.5,89.9z"/>
	</g>
	<path class="st3" d="M169.2,58c-0.2,0-0.4,0-0.5,0l-4.2,0c-0.4,0-0.7-0.3-0.7-0.7s0.3-0.7,0.7-0.7h4.2c0.6,0,2.3,0,3-0.7
		c0.3-0.3,0.4-0.6,0.4-1.1c0-2.1-1.8-2.3-2-2.3l-7.8,0c-0.4,0-0.7-0.3-0.7-0.7s0.3-0.7,0.7-0.7h7.8c1.2,0.1,3.3,1,3.3,3.7
		c0,0.8-0.3,1.6-0.9,2.1C171.7,57.9,170,58,169.2,58z"/>
	<g>
		<circle class="st4" cx="157.1" cy="57.9" r="3.2"/>
		<path class="st3" d="M157.1,61.8c-2.1,0-3.9-1.7-3.9-3.9c0-2.1,1.7-3.9,3.9-3.9s3.9,1.7,3.9,3.9C160.9,60,159.2,61.8,157.1,61.8z
			 M157.1,55.5c-1.4,0-2.5,1.1-2.5,2.5c0,1.4,1.1,2.5,2.5,2.5c1.4,0,2.5-1.1,2.5-2.5C159.5,56.6,158.4,55.5,157.1,55.5z"/>
	</g>
	<g>
		<circle class="st4" cx="148.2" cy="52.7" r="3.2"/>
		<path class="st3" d="M148.2,56.5c-2.1,0-3.9-1.7-3.9-3.9c0-2.1,1.7-3.9,3.9-3.9s3.9,1.7,3.9,3.9C152,54.8,150.3,56.5,148.2,56.5z
			 M148.2,50.2c-1.4,0-2.5,1.1-2.5,2.5c0,1.4,1.1,2.5,2.5,2.5c1.4,0,2.5-1.1,2.5-2.5C150.6,51.3,149.5,50.2,148.2,50.2z"/>
	</g>
	<g>
		<defs>
			<polygon id="SVGID_1_" points="172.7,134.9 175.2,127.7 185.7,113.2 204.1,127.2 191.8,144.1 189,146.5 			"/>
		</defs>
		<clipPath id="SVGID_00000127009045822991616130000009370117915944884670_">
			<use xlink:href="#SVGID_1_"  style="overflow:visible;"/>
		</clipPath>
		<polygon style="clip-path:url(#SVGID_00000127009045822991616130000009370117915944884670_);fill:#FFFFFF;" points="185.8,151 
			169.6,139.9 171.1,137.7 172.4,136.8 183.6,120.6 183.9,119 185.4,116.8 201.6,127.9 200.1,130.1 198.8,131 187.6,147.2 
			187.3,148.8 		"/>
		<path style="clip-path:url(#SVGID_00000127009045822991616130000009370117915944884670_);fill:#231815;" d="M185.9,152l-17.4-11.9
			l2.1-3l1.3-0.8l11-15.9l0.4-1.6l2-2.9l17.4,11.9l-2.1,3l-1.3,0.8l-11,15.9l-0.4,1.6L185.9,152z M170.5,139.7l15.1,10.3l1-1.5
			l0.4-1.6l11.4-16.5l1.3-0.8l1-1.5l-15.1-10.3l-1,1.5l-0.4,1.6l-11.4,16.5l-1.3,0.8L170.5,139.7z"/>
		
			<rect x="191.3" y="114.7" transform="matrix(0.5665 -0.8241 0.8241 0.5665 -19.3947 212.2353)" style="clip-path:url(#SVGID_00000127009045822991616130000009370117915944884670_);fill:#231815;" width="1.4" height="19.7"/>
		
			<rect x="178.5" y="133.4" transform="matrix(0.5665 -0.8241 0.8241 0.5665 -40.3811 209.7523)" style="clip-path:url(#SVGID_00000127009045822991616130000009370117915944884670_);fill:#231815;" width="1.4" height="19.7"/>
		<g style="clip-path:url(#SVGID_00000127009045822991616130000009370117915944884670_);">
			<polygon class="st9" points="183.5,143.7 177.4,139.5 186.3,126.3 192.5,130.5 			"/>
			<path class="st3" d="M183.7,144.7l-7.3-5l9.7-14.4l7.3,5L183.7,144.7z M178.3,139.3l5,3.4l8.2-12.1l-5-3.4L178.3,139.3z"/>
		</g>
	</g>
	<path class="st3" d="M190.9,148.2c-0.1,0-0.3,0-0.4-0.1L170.5,134c-0.3-0.2-0.4-0.7-0.2-1c0.2-0.3,0.7-0.4,1-0.2l19.9,14.1
		c0.3,0.2,0.4,0.7,0.2,1C191.3,148.1,191.1,148.2,190.9,148.2z"/>
	<path class="st3" d="M173.6,204.7c-0.4,0-0.7,0-0.9-0.1c-0.8-0.4-1.3-0.9-1.4-1.6c-0.1-1,0.8-1.9,0.9-1.9c0.3-0.2,0.7-0.2,1,0.1
		c0.2,0.3,0.2,0.7-0.1,1c-0.2,0.2-0.5,0.5-0.4,0.7c0,0.1,0.2,0.3,0.6,0.5c0.8,0.3,6.2-1,10.8-2.3c0.4-0.1,0.8,0.1,0.9,0.5
		c0.1,0.4-0.1,0.8-0.5,0.9C181.8,203.1,176.1,204.7,173.6,204.7z"/>
	<path class="st3" d="M206.6,197.2c-0.8,0-1.4-0.2-1.7-0.7c-0.6-0.9-0.2-2-0.1-2.2c0.1-0.4,0.6-0.5,0.9-0.4c0.4,0.1,0.5,0.6,0.4,0.9
		l0,0c-0.1,0.2-0.2,0.7,0,0.8c0.1,0.1,0.3,0.2,0.7,0.2c0.9-0.1,5-3.8,8.4-7.2c0.3-0.3,0.7-0.3,1,0c0.3,0.3,0.3,0.7,0,1
		c-2.3,2.2-7.7,7.5-9.3,7.6C206.7,197.2,206.7,197.2,206.6,197.2z"/>
	<g>
		<line class="st4" x1="55.8" y1="159.5" x2="124" y2="132.6"/>
		
			<rect x="53.2" y="145.3" transform="matrix(0.9299 -0.3678 0.3678 0.9299 -47.4138 43.3007)" class="st3" width="73.4" height="1.4"/>
	</g>
</g>
</svg>
