<?xml version="1.0" encoding="utf-8"?>
<svg version="1.1" id="the-element-sun-1" xmlns="http://www.w3.org/2000/svg" xmlns:xlink="http://www.w3.org/1999/xlink" x="0px"
	 y="0px" viewBox="0 0 140 140" style="enable-background:new 0 0 140 140;" xml:space="preserve">
<style type="text/css">
	.st0{fill:#EE795E;}
	.st1{fill:#231815;}
	.st2{fill:#FFF8EE;}
	.st3{fill:#FFFFFF;}
	.st4{fill:#97D2CE;}
	.st5{fill:#F4AEB6;}
</style>
<g>
	<circle class="st0" cx="70.8" cy="69.7" r="42.3"/>
	<path class="st1" d="M70.8,112.7c-23.7,0-43-19.3-43-43c0-23.7,19.3-43,43-43c23.7,0,43,19.3,43,43
		C113.7,93.4,94.5,112.7,70.8,112.7z M70.8,28.1c-22.9,0-41.6,18.7-41.6,41.6c0,22.9,18.7,41.6,41.6,41.6
		c22.9,0,41.6-18.7,41.6-41.6C112.3,46.8,93.7,28.1,70.8,28.1z"/>
	<g>
		<path class="st2" d="M97.7,99.9c-3.6-11.7-14.5-20.2-27.4-20.2c-13.2,0-24.4,9-27.7,21.2c0,0,10.7,11.1,27.4,11.1
			S98.8,102.9,97.7,99.9"/>
	</g>
	<path class="st1" d="M70,112.7c-16.8,0-27.8-11.2-27.9-11.3c-0.2-0.2-0.2-0.4-0.2-0.7C45.4,88,57.1,79.1,70.3,79.1
		c12.9,0,24.2,8.3,28.1,20.6c0.3,0.7,0,1.6-0.7,2.7C94.7,106.7,83.4,112.7,70,112.7z M43.4,100.7c1.8,1.7,11.9,10.6,26.6,10.6
		c14,0,24.2-6.3,26.6-9.7c0.4-0.6,0.6-1.1,0.5-1.4c0,0,0,0,0,0c-3.7-11.8-14.4-19.7-26.7-19.7C57.8,80.5,46.8,88.8,43.4,100.7z"/>
	<path class="st0" d="M74.8,28c0,0,0-17.1-4.8-27.3C65.2,10.9,65.2,28,65.2,28"/>
	<circle class="st3" cx="70" cy="28" r="4.8"/>
	<path class="st0" d="M74.8,112c0,0,0,17.1-4.8,27.3c-4.8-10.2-4.8-27.3-4.8-27.3"/>
	<circle class="st3" cx="70" cy="112" r="4.8"/>
	<path class="st0" d="M112,74.8c0,0,17.1,0,27.3-4.8c-10.2-4.8-27.3-4.8-27.3-4.8"/>
	<circle class="st3" cx="112" cy="70" r="4.8"/>
	<path class="st0" d="M28,74.8c0,0-17.1,0-27.3-4.8C10.9,65.2,28,65.2,28,65.2"/>
	<circle class="st3" cx="28" cy="70" r="4.8"/>
	<path class="st0" d="M96.3,103.1c0,0,12.1,12.1,22.7,15.9c-3.8-10.6-15.9-22.7-15.9-22.7"/>
	<circle class="st3" cx="99.7" cy="99.7" r="4.8"/>
	<path class="st0" d="M36.9,43.7c0,0-12.1-12.1-15.9-22.7c10.6,3.8,22.7,15.9,22.7,15.9"/>
	<circle class="st3" cx="40.3" cy="40.3" r="4.8"/>
	<path class="st0" d="M36.9,96.3c0,0-12.1,12.1-15.9,22.7c10.6-3.8,22.7-15.9,22.7-15.9"/>
	<circle class="st3" cx="40.3" cy="99.7" r="4.8"/>
	<path class="st0" d="M96.3,36.9c0,0,12.1-12.1,22.7-15.9c-3.8,10.6-15.9,22.7-15.9,22.7"/>
	<circle class="st3" cx="99.7" cy="40.3" r="4.8"/>
	<circle class="st3" cx="55.5" cy="60.2" r="8.5"/>
	<circle class="st4" cx="55.5" cy="60.2" r="5.4"/>
	<circle class="st3" cx="85.7" cy="60.2" r="8.5"/>
	<circle class="st4" cx="85.7" cy="60.2" r="5.4"/>
	<path class="st5" d="M70,93.2c0,0-8.9,0.7-9.3-5.1c-0.4-5.8,6-3.4,9-3.4s8-1.5,9.7,0.2C81.2,86.8,81.9,93.2,70,93.2z"/>
	<g>
		<path class="st1" d="M70,33.5c3,0,5.5-2.5,5.5-5.5c0-0.7-0.1-17.4-4.9-27.6c-0.2-0.5-1-0.5-1.3,0c-4.8,10.2-4.9,26.9-4.9,27.6
			C64.5,31,67,33.5,70,33.5z M70,2.4c2.8,7,3.7,16.5,4,21.8c-1-1.1-2.4-1.7-4-1.7s-3,0.7-4,1.7C66.3,19,67.2,9.4,70,2.4z M70,23.9
			c2.3,0,4.1,1.8,4.1,4.1s-1.8,4.1-4.1,4.1s-4.1-1.8-4.1-4.1S67.7,23.9,70,23.9z"/>
		<path class="st1" d="M70,30.8c1.6,0,2.8-1.3,2.8-2.8c0-1.6-1.3-2.8-2.8-2.8s-2.8,1.3-2.8,2.8C67.2,29.5,68.4,30.8,70,30.8z
			 M70,26.6c0.8,0,1.4,0.6,1.4,1.4c0,0.8-0.6,1.4-1.4,1.4s-1.4-0.6-1.4-1.4C68.6,27.2,69.2,26.6,70,26.6z"/>
		<path class="st1" d="M70,106.5c-3,0-5.5,2.5-5.5,5.5c0,0.7,0.1,17.4,4.9,27.6c0.1,0.2,0.4,0.4,0.6,0.4s0.5-0.2,0.6-0.4
			c4.8-10.2,4.9-26.9,4.9-27.6C75.5,108.9,73,106.5,70,106.5z M70,137.5c-2.8-7-3.7-16.5-4-21.8c1,1.1,2.4,1.7,4,1.7s3-0.7,4-1.7
			C73.7,121,72.8,130.6,70,137.5z M70,116.1c-2.3,0-4.1-1.8-4.1-4.1s1.8-4.1,4.1-4.1s4.1,1.8,4.1,4.1S72.3,116.1,70,116.1z"/>
		<path class="st1" d="M70,109.2c-1.6,0-2.8,1.3-2.8,2.8c0,1.6,1.3,2.8,2.8,2.8s2.8-1.3,2.8-2.8C72.8,110.4,71.6,109.2,70,109.2z
			 M70,113.4c-0.8,0-1.4-0.6-1.4-1.4c0-0.8,0.6-1.4,1.4-1.4s1.4,0.6,1.4,1.4C71.4,112.8,70.8,113.4,70,113.4z"/>
		<path class="st1" d="M114.8,70c0-1.6-1.3-2.8-2.8-2.8c-1.6,0-2.8,1.3-2.8,2.8s1.3,2.8,2.8,2.8C113.5,72.8,114.8,71.5,114.8,70z
			 M110.6,70c0-0.8,0.6-1.4,1.4-1.4c0.8,0,1.4,0.6,1.4,1.4s-0.6,1.4-1.4,1.4C111.2,71.4,110.6,70.8,110.6,70z"/>
		<path class="st1" d="M139.6,69.4c-10.2-4.8-26.9-4.9-27.6-4.9c-3,0-5.5,2.5-5.5,5.5s2.5,5.5,5.5,5.5c0.7,0,17.4-0.1,27.6-4.9
			c0.2-0.1,0.4-0.4,0.4-0.6S139.8,69.5,139.6,69.4z M107.9,70c0-2.3,1.8-4.1,4.1-4.1s4.1,1.8,4.1,4.1s-1.8,4.1-4.1,4.1
			S107.9,72.2,107.9,70z M115.8,74c1.1-1,1.7-2.4,1.7-4s-0.7-3-1.7-4c5.2,0.3,14.8,1.2,21.8,4C130.6,72.8,121,73.7,115.8,74z"/>
		<path class="st1" d="M33.5,70c0-3-2.5-5.5-5.5-5.5c-0.7,0-17.4,0.1-27.6,4.9C0.2,69.5,0,69.7,0,70s0.2,0.5,0.4,0.6
			c10.2,4.8,26.9,4.9,27.6,4.9C31,75.5,33.5,73,33.5,70z M32.1,70c0,2.3-1.8,4.1-4.1,4.1s-4.1-1.8-4.1-4.1s1.8-4.1,4.1-4.1
			S32.1,67.7,32.1,70z M2.4,70c7-2.8,16.5-3.7,21.8-4c-1.1,1-1.7,2.4-1.7,4s0.7,3,1.7,4C19,73.7,9.4,72.8,2.4,70z"/>
		<path class="st1" d="M25.2,70c0,1.6,1.3,2.8,2.8,2.8c1.6,0,2.8-1.3,2.8-2.8s-1.3-2.8-2.8-2.8C26.5,67.2,25.2,68.4,25.2,70z
			 M29.4,70c0,0.8-0.6,1.4-1.4,1.4c-0.8,0-1.4-0.6-1.4-1.4s0.6-1.4,1.4-1.4C28.8,68.6,29.4,69.2,29.4,70z"/>
		<path class="st1" d="M99.7,102.5c0.8,0,1.5-0.3,2-0.8s0.8-1.2,0.8-2s-0.3-1.5-0.8-2c-1.1-1.1-2.9-1.1-4,0c-0.5,0.5-0.8,1.2-0.8,2
			s0.3,1.5,0.8,2S98.9,102.5,99.7,102.5z M98.7,98.7c0.3-0.3,0.6-0.4,1-0.4s0.7,0.1,1,0.4c0.3,0.3,0.4,0.6,0.4,1s-0.1,0.7-0.4,1
			c-0.5,0.5-1.5,0.5-2,0c-0.3-0.3-0.4-0.6-0.4-1S98.4,98.9,98.7,98.7z"/>
		<path class="st1" d="M103.6,95.8c-2.1-2.1-5.6-2.1-7.8,0c-2.1,2.1-2.1,5.6,0,7.8c0.5,0.5,12.3,12.3,23,16.1c0.1,0,0.2,0,0.2,0
			c0.2,0,0.4-0.1,0.5-0.2c0.2-0.2,0.3-0.5,0.2-0.7C115.9,108.1,104.1,96.3,103.6,95.8z M96.8,96.8c0.8-0.8,1.9-1.2,2.9-1.2
			c1.1,0,2.1,0.4,2.9,1.2c0.8,0.8,1.2,1.8,1.2,2.9c0,1.1-0.4,2.1-1.2,2.9c-0.8,0.8-1.8,1.2-2.9,1.2c-1.1,0-2.1-0.4-2.9-1.2
			C95.2,101,95.2,98.4,96.8,96.8z M99.6,105.2c0,0,0.1,0,0.1,0c1.5,0,2.9-0.6,3.9-1.6s1.6-2.4,1.6-3.9c0,0,0-0.1,0-0.1
			c3.5,3.9,9.6,11.3,12.6,18.2C110.8,114.8,103.4,108.7,99.6,105.2z"/>
		<path class="st1" d="M38.3,38.3c-0.5,0.5-0.8,1.2-0.8,2s0.3,1.5,0.8,2s1.2,0.8,2,0.8s1.5-0.3,2-0.8s0.8-1.2,0.8-2s-0.3-1.5-0.8-2
			C41.2,37.2,39.4,37.2,38.3,38.3z M41.3,41.3c-0.5,0.5-1.5,0.5-2,0c-0.3-0.3-0.4-0.6-0.4-1s0.1-0.7,0.4-1c0.3-0.3,0.6-0.4,1-0.4
			s0.7,0.1,1,0.4c0.3,0.3,0.4,0.6,0.4,1S41.6,41,41.3,41.3z"/>
		<path class="st1" d="M21.2,20.3c-0.3-0.1-0.5,0-0.7,0.2c-0.2,0.2-0.3,0.5-0.2,0.7c3.8,10.6,15.6,22.5,16.1,23
			c1.1,1.1,2.5,1.6,3.9,1.6c1.4,0,2.8-0.5,3.9-1.6c2.1-2.1,2.1-5.6,0-7.8C43.7,35.9,31.9,24.1,21.2,20.3z M22.2,22.2
			c6.9,2.9,14.3,9.1,18.2,12.6c0,0-0.1,0-0.1,0c-1.5,0-2.9,0.6-3.9,1.6s-1.6,2.4-1.6,3.9c0,0,0,0.1,0,0.1
			C31.3,36.5,25.2,29.2,22.2,22.2z M43.2,43.2c-1.6,1.6-4.2,1.6-5.8,0c-0.8-0.8-1.2-1.8-1.2-2.9c0-1.1,0.4-2.1,1.2-2.9
			c0.8-0.8,1.8-1.2,2.9-1.2c1.1,0,2.1,0.4,2.9,1.2C44.8,39,44.8,41.6,43.2,43.2z"/>
		<path class="st1" d="M36.4,95.8c-0.5,0.5-12.3,12.3-16.1,23c-0.1,0.3,0,0.5,0.2,0.7c0.1,0.1,0.3,0.2,0.5,0.2c0.1,0,0.2,0,0.2,0
			c10.6-3.8,22.5-15.6,23-16.1c2.1-2.1,2.1-5.6,0-7.8C42.1,93.6,38.6,93.6,36.4,95.8z M22.2,117.7c2.9-6.9,9.1-14.3,12.6-18.2
			c0,0,0,0.1,0,0.1c0,1.5,0.6,2.9,1.6,3.9s2.4,1.6,3.9,1.6c0,0,0.1,0,0.1,0C36.6,108.7,29.2,114.8,22.2,117.7z M43.2,102.6
			c-0.8,0.8-1.8,1.2-2.9,1.2c-1.1,0-2.1-0.4-2.9-1.2c-0.8-0.8-1.2-1.8-1.2-2.9c0-1.1,0.4-2.1,1.2-2.9c0.8-0.8,1.9-1.2,2.9-1.2
			c1.1,0,2.1,0.4,2.9,1.2C44.8,98.4,44.8,101,43.2,102.6z"/>
		<path class="st1" d="M38.3,97.7c-0.5,0.5-0.8,1.2-0.8,2s0.3,1.5,0.8,2s1.2,0.8,2,0.8s1.5-0.3,2-0.8s0.8-1.2,0.8-2s-0.3-1.5-0.8-2
			C41.2,96.6,39.4,96.6,38.3,97.7z M41.3,100.7c-0.5,0.5-1.5,0.5-2,0c-0.3-0.3-0.4-0.6-0.4-1s0.1-0.7,0.4-1c0.3-0.3,0.6-0.4,1-0.4
			s0.7,0.1,1,0.4c0.3,0.3,0.4,0.6,0.4,1S41.6,100.4,41.3,100.7z"/>
		<path class="st1" d="M99.7,45.8c1.4,0,2.8-0.5,3.9-1.6c0.5-0.5,12.3-12.3,16.1-23c0.1-0.3,0-0.5-0.2-0.7c-0.2-0.2-0.5-0.3-0.7-0.2
			c-10.6,3.8-22.5,15.6-23,16.1c-2.1,2.1-2.1,5.6,0,7.8C96.9,45.3,98.3,45.8,99.7,45.8z M117.8,22.2c-2.9,6.9-9.1,14.3-12.6,18.2
			c0,0,0-0.1,0-0.1c0-1.5-0.6-2.9-1.6-3.9s-2.4-1.6-3.9-1.6c0,0-0.1,0-0.1,0C103.4,31.3,110.8,25.2,117.8,22.2z M96.8,37.4
			c0.8-0.8,1.8-1.2,2.9-1.2c1.1,0,2.1,0.4,2.9,1.2c0.8,0.8,1.2,1.8,1.2,2.9c0,1.1-0.4,2.1-1.2,2.9c-1.6,1.6-4.2,1.6-5.8,0
			C95.2,41.6,95.2,39,96.8,37.4z"/>
		<path class="st1" d="M99.7,43.1c0.8,0,1.5-0.3,2-0.8s0.8-1.2,0.8-2s-0.3-1.5-0.8-2c-1.1-1.1-2.9-1.1-4,0c-0.5,0.5-0.8,1.2-0.8,2
			s0.3,1.5,0.8,2S98.9,43.1,99.7,43.1z M98.7,39.3c0.3-0.3,0.6-0.4,1-0.4s0.7,0.1,1,0.4c0.3,0.3,0.4,0.6,0.4,1s-0.1,0.7-0.4,1
			c-0.5,0.5-1.5,0.5-2,0c-0.3-0.3-0.4-0.6-0.4-1S98.4,39.6,98.7,39.3z"/>
		<path class="st1" d="M92.5,73.1l-6.8-3.8c0,0,0,0,0.1,0c5.1,0,9.2-4.1,9.2-9.2c0-3.1-1.5-5.8-3.9-7.5l0.9-1.5
			c0.2-0.3,0.1-0.8-0.2-1c-0.3-0.2-0.8-0.1-1,0.2l-1,1.6c-1-0.5-2.2-0.8-3.4-0.9v-1.8c0-0.4-0.3-0.7-0.7-0.7S85,48.8,85,49.2V51
			c-1.2,0.1-2.3,0.4-3.4,0.9l-1-1.6c-0.2-0.3-0.6-0.4-1-0.2c-0.3,0.2-0.4,0.6-0.2,1l0.9,1.5c-2.4,1.7-3.9,4.4-3.9,7.5
			c0,1.8,0.5,3.5,1.4,4.9l-4.7-2.6c-0.3-0.2-0.8-0.1-1,0.3c-0.2,0.3-0.1,0.8,0.3,1l16.9,9.5l-16.2,0.3c-0.2,0-0.5,0.1-0.6,0.3
			c-0.1,0.2-2.5,4.1-6.6,1.8c-1.3-0.7-1.6-2.4-1.3-3.8c0.2-0.9,0.8-2,1.8-2.1c0.4,0,0.7-0.4,0.6-0.8c0-0.4-0.4-0.7-0.8-0.6
			c-1.4,0.1-2.6,1.3-3,3.1c-0.4,1.8,0.1,4.2,2,5.3c1.2,0.7,2.2,0.9,3.2,0.9c2.4,0,4.2-1.6,5.1-2.9l18.4-0.3c0.3,0,0.6-0.2,0.7-0.5
			C92.9,73.6,92.7,73.3,92.5,73.1z M85.7,52.4c4.3,0,7.8,3.5,7.8,7.8c0,4.3-3.5,7.8-7.8,7.8s-7.8-3.5-7.8-7.8
			C77.9,55.9,81.4,52.4,85.7,52.4z"/>
		<path class="st1" d="M64.7,60.2c0-3.1-1.5-5.8-3.9-7.5l0.9-1.5c0.2-0.3,0.1-0.8-0.2-1c-0.3-0.2-0.8-0.1-1,0.2l-1,1.6
			c-1-0.5-2.2-0.8-3.4-0.9v-1.8c0-0.4-0.3-0.7-0.7-0.7s-0.7,0.3-0.7,0.7V51c-1.2,0.1-2.3,0.4-3.4,0.9l-1-1.6c-0.2-0.3-0.6-0.4-1-0.2
			c-0.3,0.2-0.4,0.6-0.2,1l0.9,1.5c-2.4,1.7-3.9,4.4-3.9,7.5c0,5.1,4.1,9.2,9.2,9.2C60.6,69.3,64.7,65.2,64.7,60.2z M55.5,67.9
			c-4.3,0-7.8-3.5-7.8-7.8c0-4.3,3.5-7.8,7.8-7.8c4.3,0,7.8,3.5,7.8,7.8C63.3,64.4,59.8,67.9,55.5,67.9z"/>
		<path class="st1" d="M55.5,54c-3.4,0-6.1,2.8-6.1,6.1s2.8,6.1,6.1,6.1s6.1-2.8,6.1-6.1S58.9,54,55.5,54z M55.5,64.9
			c-2.6,0-4.7-2.1-4.7-4.7s2.1-4.7,4.7-4.7s4.7,2.1,4.7,4.7S58.1,64.9,55.5,64.9z"/>
		<path class="st1" d="M85.7,66.3c3.4,0,6.1-2.8,6.1-6.1S89.1,54,85.7,54s-6.1,2.8-6.1,6.1S82.3,66.3,85.7,66.3z M85.7,55.4
			c2.6,0,4.7,2.1,4.7,4.7s-2.1,4.7-4.7,4.7S81,62.8,81,60.2S83.1,55.4,85.7,55.4z"/>
		<path class="st1" d="M72.8,83.7c-1.1,0.1-2.2,0.3-3.1,0.3c-0.6,0-1.3-0.1-2.1-0.2c-2.3-0.3-4.9-0.7-6.4,0.8
			c-0.8,0.8-1.2,2-1.1,3.6c0.1,1.5,0.7,2.7,1.8,3.7c2.2,1.9,5.7,2.1,7.3,2.1c0.4,0,0.7,0,0.8,0c7.3,0,9.9-2.4,10.7-4.3
			c0.8-1.9,0.2-4-0.9-5.1C78.4,83,75.6,83.4,72.8,83.7z M79.4,89c-0.6,1.3-2.5,3.5-9.4,3.5c0,0,0,0-0.1,0c0,0-2.2,0.1-4.3-0.4
			c-2.7-0.7-4.1-2-4.2-4.1c-0.1-1.2,0.1-2,0.6-2.5c0.5-0.5,1.4-0.7,2.4-0.7c0.9,0,1.9,0.1,2.9,0.3c0.9,0.1,1.7,0.2,2.3,0.2
			c1,0,2.1-0.1,3.3-0.3c2.3-0.3,5-0.6,5.9,0.3C79.5,86.1,80,87.7,79.4,89z"/>
		<path class="st1" d="M75.7,87.4c-5.9,1.6-11,0-11,0c-0.4-0.1-0.8,0.1-0.9,0.4c-0.1,0.4,0.1,0.8,0.4,0.9c0.1,0,2.5,0.8,5.9,0.8
			c1.7,0,3.8-0.2,5.9-0.8c0.4-0.1,0.6-0.5,0.5-0.9C76.5,87.5,76.1,87.3,75.7,87.4z"/>
	</g>
	<circle class="st1" cx="53.3" cy="60.2" r="3.1"/>
	<circle class="st1" cx="83.5" cy="60.2" r="3.1"/>
</g>
</svg>
