<?xml version="1.0" encoding="utf-8"?>
<svg version="1.1" id="the-element-ikauriko-1-body" xmlns="http://www.w3.org/2000/svg" xmlns:xlink="http://www.w3.org/1999/xlink" x="0px"
	 y="0px" viewBox="0 0 146 110" style="enable-background:new 0 0 146 110;" xml:space="preserve">
<style type="text/css">
	.st0{fill:#97D2CE;}
	.st1{fill:#FFF8EE;}
	.st2{fill:#FFFFFF;}
	.st3{fill:#231815;}
</style>
<g>
	<path class="st0" d="M99.1,95.8c-8.9-3.7-9.3-4-11.3-23.8c-0.4-3.8-0.9-8.3-1.5-13.7c-0.1-1.1-0.2-2.2-0.4-3.3
		c-1.3-11.4-4.6-20.6-8.4-27.9c-2.2-4.2-4.6-7.7-7-10.7C63.7,7.9,57.3,4.2,57.3,4.2S51,7.9,44.2,16.4c-2.4,3-4.8,6.5-7,10.7
		c-3.8,7.3-7.1,16.5-8.4,27.9c-0.1,0.6-0.1,1.2-0.2,1.8c0,0,0,0,0,0c-10.5,2.3-18.9,0.9-18.9,0.9c0.2,0.6,0.4,1.2,0.4,1.8
		c0,1.2-0.4,2.3-1.2,3.1c0,0,9.1,6.7,18.3,7.3h0c-2.3,21.8-2.3,22-11.6,25.8c0,0-2,1,0,2.6c2,1.7,10.4,0.5,14.8-2.3
		c-0.1,0.2-2.3,3.6-4.1,5.8c-1.4,1.6-0.9,2.8,0.3,3.1c1.2,0.3,8.1-1,12.7-6.4c-0.1,0.3-2,7.8-0.6,8.7c1.4,1,4.8-0.9,10.2-8
		c0,0-1.6,9.2,1.3,9.9c2.8,0.8,6-5,7.3-9.7c1.3,4.7,4.5,10.4,7.3,9.7c2.8-0.8,1.3-9.9,1.3-9.9c5.4,7.1,8.8,9,10.2,8
		c1.4-1-0.5-8.4-0.6-8.7c4.6,5.4,11.5,6.8,12.7,6.4c1.2-0.3,1.7-1.5,0.3-3.1c-1.8-2.2-4-5.6-4.1-5.8c4.4,2.8,12.8,4,14.8,2.3
		C101,96.7,99.1,95.8,99.1,95.8z"/>
	<polygon class="st1" points="64.6,66.4 66.7,70.4 62.7,70.4 	"/>
	<polygon class="st1" points="49.4,66.4 51.5,70.4 47.4,70.4 	"/>
	<path class="st1" d="M9.7,57.7c0.2,0.6,0.4,1.2,0.4,1.8c0,1.2-0.4,2.3-1.2,3.1c-0.9,1-2.1,1.6-3.5,1.6c-2.6,0-4.7-2.1-4.7-4.7
		c0-2.6,2.1-4.7,4.7-4.7C7.3,54.8,9,56,9.7,57.7z"/>
	<path class="st2" d="M64,54.9c0.4,2.5,2.7,4.2,5.2,3.8c2.5-0.4,4.2-2.7,3.8-5.2l3.3-0.5c0.7,4.3-2.3,8.4-6.6,9
		c-4.3,0.7-8.4-2.3-9-6.6"/>
	<path class="st2" d="M49.9,54.9c-0.4,2.5-2.7,4.2-5.2,3.8c-2.5-0.4-4.2-2.7-3.8-5.2l-3.3-0.5c-0.7,4.3,2.3,8.4,6.6,9
		c4.3,0.7,8.4-2.3,9-6.6"/>
	<path class="st1" d="M89.1,1.2c0,0,6.7,18.9-11.6,25.8l0,0c-2.2-4.2-4.6-7.7-7-10.7l0,0C70.6,16.4,87.2,12.2,89.1,1.2z"/>
	<path class="st1" d="M44.2,16.4c-2.4,3-4.8,6.5-7,10.7c-18.3-7-11.6-25.8-11.6-25.8C27.5,12,44.2,16.4,44.2,16.4z"/>
	<g>
		<path class="st3" d="M99.3,95.1c-8.7-3.6-8.8-3.6-10.9-23.2l-0.2-2.1c-0.3-3.3-0.8-7.2-1.3-11.6l-0.1-0.9
			c-0.1-0.8-0.2-1.6-0.3-2.4c-1.2-10-3.9-19.2-8.1-27.4C96.3,20.1,89.8,1.2,89.8,1c-0.1-0.3-0.4-0.5-0.7-0.5c-0.3,0-0.6,0.3-0.6,0.6
			c-1.7,9.5-15.2,13.8-17.7,14.5C64.1,7.3,58,3.8,57.7,3.6c-0.2-0.1-0.5-0.1-0.7,0c-0.3,0.1-6.4,3.7-13.1,11.9
			c-2.6-0.8-16-5.2-17.6-14.5c-0.1-0.3-0.3-0.5-0.6-0.6c-0.3,0-0.6,0.2-0.7,0.5C24.9,1.2,18.4,20,36.2,27.4
			c-4.2,8.2-7,17.5-8.1,27.4L28,56.2C19.1,58,11.7,57.2,10.1,57c-0.9-1.8-2.7-2.9-4.8-2.9c-3,0-5.4,2.4-5.4,5.4c0,3,2.4,5.4,5.4,5.4
			c1.3,0,2.6-0.5,3.6-1.4c2,1.4,9.6,6.2,17.5,7c-2.2,20.9-2.3,21-11.1,24.6c-0.1,0.1-1.1,0.6-1.2,1.6c-0.1,0.7,0.3,1.5,1.1,2.2
			c1.9,1.6,8.4,1,13.2-1c-0.8,1.1-1.7,2.5-2.6,3.5c-1.1,1.3-1.1,2.2-0.9,2.8c0.2,0.7,0.7,1.2,1.5,1.4c0.2,0,0.4,0.1,0.7,0.1
			c2,0,7-1.4,11-4.9c-1.3,6-0.2,6.8,0.2,7.1c1.9,1.3,5.2-0.8,9.6-6.2c-0.3,3-0.3,7.5,2.1,8.2c0.2,0.1,0.5,0.1,0.7,0.1
			c2.8,0,5.3-4.3,6.8-8.2c1.6,4.3,4.4,8.9,7.5,8.1c2.4-0.6,2.4-5.1,2.1-8.2c4.4,5.3,7.7,7.5,9.6,6.2c0.4-0.3,1.5-1,0.2-7.1
			c4,3.6,8.9,4.9,11,4.9c0.3,0,0.5,0,0.7-0.1c0.8-0.2,1.3-0.7,1.5-1.4c0.2-0.6,0.2-1.6-0.9-2.8c-0.9-1.1-1.8-2.4-2.6-3.5
			c2.9,1.2,6.4,1.9,9.2,1.9c1.8,0,3.3-0.3,4-0.9c0.8-0.7,1.2-1.4,1.1-2.2C100.5,95.7,99.5,95.2,99.3,95.1z M89.1,3.9
			c0.4,1.9,0.7,4.6,0.4,7.6c-0.8,7-4.7,11.9-11.7,14.7c-1.8-3.3-3.8-6.5-6.1-9.4C75,15.8,85.8,12,89.1,3.9z M25.3,11.5
			c-0.3-3,0-5.8,0.4-7.6c3.2,7.9,14,11.8,17.3,12.9c-2.3,2.9-4.3,6.1-6.1,9.4C30,23.3,26,18.4,25.3,11.5z M27.8,57.6
			c-0.5,4.4-0.9,8.2-1.2,11.5c-7.4-0.7-14.7-5.3-16.7-6.7c0.6-0.9,0.9-1.9,0.9-2.9c0-0.3,0-0.7-0.1-1c1.1,0.1,3,0.3,5.5,0.3
			C19.3,58.8,23.3,58.5,27.8,57.6z M1.4,59.5c0-2.2,1.8-4,4-4c1.6,0,3,1,3.7,2.4c0.2,0.5,0.3,1,0.3,1.6c0,1-0.4,1.9-1,2.6
			c-0.8,0.8-1.8,1.3-3,1.3C3.2,63.5,1.4,61.7,1.4,59.5z M98.6,97.9c-1.5,1.3-9.5,0.5-13.9-2.3c0,0,0,0,0,0c0,0,0,0,0,0
			c-0.1,0-0.1-0.1-0.2-0.1c0,0,0,0,0,0c0,0-0.1,0-0.1,0c0,0-0.1,0-0.1,0c0,0,0,0-0.1,0c-0.1,0-0.2,0-0.2,0.1c0,0,0,0,0,0
			c0,0,0,0,0,0c-0.1,0-0.1,0.1-0.2,0.2c0,0,0,0,0,0c0,0.1-0.1,0.1-0.1,0.2c0,0,0,0,0,0.1c0,0,0,0.1,0,0.1c0,0,0,0.1,0,0.1
			c0,0,0,0.1,0,0.1c0,0.1,0,0.1,0.1,0.2c0,0,0,0,0,0c0.1,0.1,2.3,3.6,4.2,5.9c0.5,0.6,0.7,1.2,0.6,1.5c-0.1,0.3-0.4,0.4-0.6,0.5
			c-0.9,0.3-7.5-1.1-11.9-6.2c0,0,0-0.1-0.1-0.1c-0.3-0.3-0.7-0.3-1,0c-0.2,0.2-0.2,0.5-0.2,0.7l0,0c1.3,5.1,1.2,7.6,0.9,7.9
			c-0.8,0.5-3.6-0.5-9.2-7.9c-0.2-0.3-0.5-0.3-0.8-0.2c-0.3,0.1-0.5,0.4-0.4,0.8c0.6,3.4,0.7,8.7-0.8,9.1c-2.1,0.6-5.1-4.4-6.4-9.2
			c-0.1-0.3-0.4-0.5-0.7-0.5s-0.6,0.2-0.7,0.5c-1.4,4.8-4.3,9.8-6.4,9.2c-1.5-0.4-1.3-5.7-0.8-9.1c0.1-0.3-0.1-0.6-0.4-0.8
			c-0.3-0.1-0.6,0-0.8,0.2c-5.6,7.3-8.4,8.4-9.2,7.9c-0.3-0.3-0.4-2.8,0.9-8c0-0.1,0-0.2,0-0.2c0-0.4-0.3-0.7-0.7-0.7
			c-0.2,0-0.4,0.1-0.5,0.2c0,0,0,0,0,0c-4.4,5.1-11,6.5-11.9,6.2c-0.2-0.1-0.5-0.2-0.6-0.5c-0.1-0.4,0.1-0.9,0.6-1.5
			c1.8-2.1,3.8-5.3,4.2-5.8c0,0,0,0,0,0c0,0,0,0,0,0c0-0.1,0.1-0.1,0.1-0.2c0,0,0,0,0,0c0-0.1,0-0.2,0-0.2c0,0,0,0,0,0
			c0-0.1,0-0.1-0.1-0.2c0,0,0,0,0,0c0,0,0,0,0,0c0,0,0-0.1-0.1-0.1c0,0,0,0-0.1,0c0,0-0.1,0-0.1-0.1c0,0-0.1-0.1-0.2-0.1
			c0,0-0.1,0-0.1,0c-0.1,0-0.1,0-0.1,0c0,0-0.1,0-0.1,0c0,0-0.1,0-0.1,0.1c0,0,0,0-0.1,0c-4.5,2.9-12.4,3.7-14,2.4
			c-0.4-0.4-0.6-0.7-0.6-0.9c0-0.2,0.3-0.5,0.4-0.5c9.6-4,9.7-4.4,12-26.4c0.4-3.7,0.8-8.1,1.4-13.1l0.2-1.8
			c1.2-10.1,4-19.4,8.3-27.6c2-3.8,4.3-7.3,6.9-10.6c0,0,0,0,0,0c0,0,0,0,0,0C50.5,9.6,55.9,5.9,57.3,5c1.4,0.9,6.9,4.6,12.6,11.8
			c2.6,3.3,4.9,6.8,6.9,10.6c4.4,8.2,7.2,17.5,8.3,27.6c0.1,0.8,0.2,1.6,0.3,2.4l0.1,0.9c0.5,4.4,0.9,8.2,1.2,11.6L87,72
			c2.1,19.9,2.4,20.5,11.7,24.4c0.1,0.1,0.5,0.3,0.5,0.5C99.3,97.2,99,97.5,98.6,97.9z"/>
		<path class="st3" d="M53.9,55.5c0-0.2,0-0.4-0.1-0.5c-0.1-0.1-0.3-0.3-0.5-0.3L41,52.8c0,0,0,0,0,0c0,0,0,0,0,0l-3.3-0.5
			c-0.4-0.1-0.7,0.2-0.8,0.6c-0.7,4.7,2.5,9.1,7.2,9.8c0.4,0.1,0.9,0.1,1.3,0.1c1.8,0,3.6-0.6,5.1-1.7
			C52.3,59.7,53.6,57.7,53.9,55.5z M41.6,54.3l1.6,0.3c0.2,0.9,0.9,1.7,1.9,1.9c1,0.2,1.9-0.4,2.3-1.2l1.6,0.3
			c-0.3,0.7-0.7,1.4-1.4,1.8c-0.8,0.6-1.8,0.9-2.9,0.7C42.9,57.7,41.6,56.1,41.6,54.3z M44.3,61.3c-3.7-0.6-6.3-3.9-6.1-7.5l2,0.3
			c0,1.1,0.3,2.3,1,3.2c0.8,1.1,2,1.9,3.4,2.1c0.3,0,0.5,0.1,0.8,0.1c2.3,0,4.4-1.5,5-3.8l2,0.3c-0.4,1.6-1.4,3-2.7,4
			C48.1,61.1,46.2,61.6,44.3,61.3z"/>
		<path class="st3" d="M76.7,52.3c-0.2-0.1-0.3-0.2-0.5-0.1l-12.3,2c0,0,0,0,0,0c0,0,0,0,0,0l-3.3,0.5c-0.2,0-0.3,0.1-0.5,0.3
			c-0.1,0.2-0.2,0.3-0.1,0.5c0.7,4.2,4.4,7.2,8.5,7.2c0.4,0,0.9,0,1.4-0.1c4.7-0.8,7.9-5.2,7.1-9.9C76.9,52.6,76.8,52.4,76.7,52.3z
			 M70.8,54.5l1.5-0.2c0,0.8-0.3,1.5-0.7,2.2c-0.6,0.8-1.5,1.4-2.5,1.5c-1,0.2-2-0.1-2.9-0.7c-0.6-0.5-1.1-1.1-1.4-1.8l1.6-0.3
			c0.4,0.8,1.4,1.4,2.3,1.2c1-0.2,1.7-0.9,1.9-1.9L70.8,54.5C70.8,54.5,70.8,54.5,70.8,54.5z M74.3,58.4c-1.1,1.6-2.8,2.6-4.7,2.9
			c-3.7,0.6-7.2-1.7-8.1-5.3l2-0.3c0.7,2.2,2.7,3.7,5,3.7c0.3,0,0.6,0,0.8-0.1c2.6-0.4,4.5-2.7,4.4-5.3l2-0.3
			C75.8,55.4,75.3,57,74.3,58.4z"/>
		<path class="st3" d="M65.3,66.1c-0.1-0.2-0.4-0.4-0.6-0.4c-0.3,0-0.5,0.2-0.6,0.4l-1.7,3.6H51.9l-1.9-3.7
			c-0.1-0.2-0.4-0.4-0.6-0.4c-0.3,0-0.5,0.2-0.6,0.4l-2,4c-0.1,0.2-0.1,0.5,0,0.7c0.1,0.2,0.4,0.3,0.6,0.3h4.1h11.2h4
			c0.2,0,0.5-0.1,0.6-0.3s0.1-0.5,0-0.7L65.3,66.1z M48.6,69.7l0.9-1.8l0.9,1.8H48.6z M63.8,69.7l0.8-1.8l0.9,1.8H63.8z"/>
	</g>
</g>
</svg>
