<?xml version="1.0" encoding="utf-8"?>
<svg version="1.1" id="the-close-btn-icon-1" xmlns="http://www.w3.org/2000/svg" xmlns:xlink="http://www.w3.org/1999/xlink" x="0px"
	 y="0px" viewBox="0 0 38 38" style="enable-background:new 0 0 38 38;" xml:space="preserve">
<style type="text/css">
	.st0{fill:#121659;}
</style>
<path class="st0" d="M21.1,19L37.6,2.6c0.6-0.6,0.6-1.5,0-2.1s-1.5-0.6-2.1,0L19,16.9L2.6,0.4C2-0.1,1-0.1,0.4,0.4s-0.6,1.5,0,2.1
	L16.9,19L0.4,35.4c-0.6,0.6-0.6,1.5,0,2.1C0.7,37.9,1.1,38,1.5,38s0.8-0.1,1.1-0.4L19,21.1l16.4,16.4c0.3,0.3,0.7,0.4,1.1,0.4
	s0.8-0.1,1.1-0.4c0.6-0.6,0.6-1.5,0-2.1L21.1,19z"/>
</svg>
