<?xml version="1.0" encoding="utf-8"?>
<svg version="1.1" id="the-ika-foot-use-for-nav-switch-1" xmlns="http://www.w3.org/2000/svg" xmlns:xlink="http://www.w3.org/1999/xlink" x="0px"
	 y="0px" viewBox="0 0 60 14.5" style="enable-background:new 0 0 60 14.5;" xml:space="preserve">
<style type="text/css">
	.svg__m__color{fill:#14195A;}
	.svg__pnk__color {fill: #e64673;}
	.svg__ong__color {fill: #f0785f;}
	.svg__grn__color {fill: #96d2cd;}
	.svg__mlgt__color {fill: #fff8ee;}
	.svg__blk__color {fill: #000000;}
</style>
<g id="use-ika-foot-element">
	<path class="svg__ong__color" d="M3.9,4.8c0,0,8.1-3.9,16.1-4.3S36.1,9.1,45,7.7s13.4-5.3,14.5-4.1s-8.5,9.9-19.6,9.5
		C28.8,12.7,28,8.3,19.8,9.2c-7.2,0.8-14,4.5-14,4.5"/>
	<ellipse transform="matrix(0.9992 -4.008047e-02 4.008047e-02 0.9992 -0.3734 0.1822)" class="svg__mlgt__color" cx="4.4" cy="9.4" rx="3.9" ry="4.6"/>
	<ellipse class="svg__mlgt__color" cx="13.1" cy="6.2" rx="1.7" ry="1.6"/>
	<ellipse class="svg__mlgt__color" cx="20.9" cy="4.6" rx="1.7" ry="1.6"/>
	<ellipse class="svg__mlgt__color" cx="28.9" cy="6.9" rx="1.7" ry="1.6"/>
	<ellipse class="svg__mlgt__color" cx="35.7" cy="9.5" rx="1.3" ry="1.2"/>
	<g>
		<path class="svg__blk__color" d="M59.8,3.3c-0.7-0.8-2-0.3-4.4,0.7c-2.3,1-5.9,2.4-10.6,3.2c-4.6,0.8-9-1.4-13.3-3.6C27.8,1.7,23.9-0.2,20,0
			C11.9,0.4,3.8,4.3,3.7,4.4c0,0,0,0,0,0c-1,0.2-1.9,0.7-2.6,1.6C0.4,6.9,0,8.2,0,9.5c0,1.3,0.5,2.6,1.4,3.5
			c0.8,0.9,1.9,1.4,3.1,1.4c0,0,0.1,0,0.1,0c0.5,0,1-0.2,1.5-0.4c0,0,0,0,0,0c0,0,0,0,0,0c0.1,0,0.2-0.1,0.3-0.2
			c1.4-0.7,7.4-3.6,13.5-4.3c4.1-0.5,6.2,0.4,8.8,1.4c2.6,1,5.6,2.2,11.1,2.4c9.8,0.3,18.5-6.2,20-9C60.1,4,60.1,3.6,59.8,3.3z
			 M4.5,13.6c-0.9,0-1.7-0.4-2.4-1.1C1.4,11.7,1,10.6,1,9.5c0-1.1,0.3-2.2,0.9-3c0.6-0.8,1.4-1.2,2.3-1.3c0,0,0.1,0,0.1,0
			c0.8,0,1.7,0.4,2.3,1.1c0.7,0.8,1.1,1.8,1.1,3c0,1.1-0.3,2.2-0.9,3c-0.3,0.3-0.6,0.6-0.9,0.8c-0.1,0.1-0.2,0.1-0.3,0.2
			C5.2,13.5,4.9,13.6,4.5,13.6z M57.8,5.5c-3,3-10.2,7.3-17.9,7.1c-5.4-0.2-8.3-1.3-10.8-2.3c-2.7-1.1-5-2-9.3-1.5
			c-4.6,0.5-9,2.2-11.6,3.3c0.4-0.8,0.7-1.8,0.6-2.8c0-1.3-0.5-2.6-1.4-3.5c-0.5-0.6-1.1-1-1.8-1.2c2.7-1.1,8.6-3.3,14.5-3.6
			c3.6-0.2,7.2,1.6,11.1,3.5c4.4,2.2,9,4.5,13.9,3.7c4.8-0.8,8.4-2.3,10.8-3.3c1.4-0.6,3-1.2,3.2-1C59,3.9,58.8,4.5,57.8,5.5z"/>
		<path class="svg__blk__color" d="M13,4.2c-1.2,0-2.1,1-2.1,2.1c0,1.1,1,2,2.2,2c0,0,0,0,0.1,0c1.2,0,2.1-1,2.1-2.1C15.2,5,14.2,4.1,13,4.2z
			 M13.1,7.4c-0.6,0-1.2-0.5-1.2-1.1c0-0.6,0.5-1.1,1.1-1.2c0,0,0,0,0,0c0.6,0,1.2,0.5,1.2,1.1C14.3,6.8,13.8,7.4,13.1,7.4z"/>
		<path class="svg__blk__color" d="M20.8,2.6c-1.2,0-2.1,1-2.1,2.1c0,1.1,1,2,2.2,2c0,0,0,0,0.1,0c1.2,0,2.1-1,2.1-2.1c0-0.6-0.3-1.1-0.7-1.4
			C22,2.8,21.4,2.6,20.8,2.6z M20.9,5.8c-0.7,0-1.2-0.5-1.2-1.1s0.5-1.1,1.1-1.2c0,0,0,0,0,0c0.3,0,0.6,0.1,0.8,0.3
			c0.2,0.2,0.4,0.5,0.4,0.8h0C22.1,5.2,21.6,5.8,20.9,5.8z"/>
		<path class="svg__blk__color" d="M28.8,4.9c-0.6,0-1.1,0.2-1.5,0.7c-0.4,0.4-0.6,0.9-0.6,1.5s0.3,1.1,0.7,1.4C27.8,8.8,28.4,9,28.9,9
			c0,0,0,0,0.1,0c1.2,0,2.1-1,2.1-2.1c0-0.6-0.3-1.1-0.7-1.4C30,5.1,29.4,4.9,28.8,4.9z M28.9,8.1c-0.3,0-0.6-0.1-0.8-0.3
			c-0.2-0.2-0.4-0.5-0.4-0.8c0-0.3,0.1-0.6,0.3-0.8c0.2-0.2,0.5-0.3,0.8-0.4c0,0,0,0,0,0c0.3,0,0.6,0.1,0.8,0.3
			c0.2,0.2,0.4,0.5,0.4,0.8h0C30.1,7.5,29.6,8,28.9,8.1z"/>
		<path class="svg__blk__color" d="M35.7,7.8c-1,0-1.8,0.8-1.7,1.8c0,0.5,0.2,0.9,0.6,1.2c0.3,0.3,0.8,0.5,1.2,0.5c0,0,0,0,0.1,0
			c1,0,1.8-0.8,1.7-1.8c0-0.5-0.2-0.9-0.6-1.2C36.6,8,36.2,7.8,35.7,7.8z M35.8,10.3c-0.2,0-0.4-0.1-0.6-0.2
			C35,10,34.9,9.8,34.9,9.6c0-0.4,0.3-0.8,0.8-0.8c0,0,0,0,0,0c0.2,0,0.4,0.1,0.6,0.2c0.2,0.1,0.2,0.3,0.3,0.5
			C36.6,9.9,36.2,10.3,35.8,10.3z"/>
	</g>
</g>
</svg>
