<?xml version="1.0" encoding="utf-8"?>
<svg version="1.1" id="the-element-jets-screw-1" xmlns="http://www.w3.org/2000/svg" xmlns:xlink="http://www.w3.org/1999/xlink" x="0px"
	 y="0px" viewBox="0 0 17 8" style="enable-background:new 0 0 17 8;" xml:space="preserve">
<style type="text/css">
	.st0{fill:#E84572;}
	.st1{fill:#231815;}
</style>
<g>
	<path class="st0" d="M12,0.7c1,0,1.6,0,1.6,0s1.6-0.1,2.4,1.4c0.2,0.4,0.4,0.8,0.4,1.5c0.1,0.8-0.1,1.6-0.4,2.1
		c-0.8,1.3-2.4,1.5-2.4,1.5s-0.6,0-1.6,0c-1.1,0-2.7-0.1-4.3-0.3C6.3,6.6,4.9,6.4,3.8,6.1C2,5.7,0.7,4.9,0.7,4S2,2.3,3.8,1.8
		C5,1.5,6.4,1.3,7.7,1.1C9.3,0.8,10.9,0.7,12,0.7z"/>
	<path class="st1" d="M13.6,7.9L13.6,7.9c0,0-0.6,0-1.7,0c-1,0-2.7-0.1-4.3-0.3s-3-0.4-4-0.7C2.7,6.5,0,5.8,0,3.9s2.7-2.6,3.6-2.8
		c1.1-0.3,2.4-0.5,4-0.7S10.9,0,11.9,0l0,0c1,0,1.6,0,1.6,0c0.1,0,2-0.1,3,1.8C16.8,2.3,17,2.8,17,3.6c0.1,0.9-0.1,1.9-0.6,2.6
		c-1,1.5-2.8,1.8-2.8,1.8C13.7,7.9,13.6,7.9,13.6,7.9z M12,1.5c-1,0.1-2.7,0.1-4.2,0.3S5,2.2,4,2.5C2.1,3.1,1.5,3.6,1.5,4
		c0,0.3,0.7,0.9,2.5,1.5C5,5.8,6.3,6,7.8,6.1C9.4,6.3,11,6.4,12,6.4c0.8,0,1.3,0,1.5,0c0.3-0.1,1.3-0.3,1.9-1.2
		c0.3-0.4,0.4-0.9,0.3-1.6c-0.1-0.5-0.2-0.8-0.4-1.2c-0.6-1.1-1.7-1.1-1.8-1.1C13.6,1.4,13,1.4,12,1.5z"/>
</g>
</svg>
