<?xml version="1.0" encoding="utf-8"?>
<svg version="1.1" id="the-element-drive-1-body" xmlns="http://www.w3.org/2000/svg" xmlns:xlink="http://www.w3.org/1999/xlink" x="0px"
	 y="0px" viewBox="0 0 275 117" style="enable-background:new 0 0 275 117;" xml:space="preserve">
<style type="text/css">
	.st0{fill:#FFF8EE;}
	.st1{fill:#97D2CE;}
	.st2{fill:#121659;}
	.st3{fill:#F4B2B7;}
	.st4{fill:#FFFFFF;}
	.st5{fill:#FF6C9A;}
	.st6{fill:#E84572;}
	.st7{fill:#231815;}
</style>
<polygon class="st0" points="145.1,0.7 180.8,0.7 214.3,54 178.6,54 "/>
<polygon class="st1" points="178.6,54 145.1,0.7 66.3,0.7 37,54 "/>
<path class="st2" d="M37,54H0.7v47.8h27.9C28.6,89.2,38.8,79,51.4,79s22.8,10.2,22.8,22.8h57.4c0-12.6,10.2-22.8,22.8-22.8
	s22.8,10.2,22.8,22.8h61.4V54h-60H37z"/>
<rect x="238.6" y="54" class="st2" width="35.7" height="47.8"/>
<rect x="266.1" y="64.8" class="st1" width="8.2" height="11.8"/>
<rect x="221.9" y="64.8" class="st1" width="26.3" height="11.8"/>
<path class="st3" d="M98.6,32l-2.3-3.1l0,0c0.2-1.4,0.3-2.8,0.3-4.2c0-10-5.5-16.8-14.5-16c-8.5,0.8-12.2,10-11.4,16.3
	c0,0-3.3,0-2.5,3c0.6,2.1,3.5,2,3.5,2c1.7,6.5,4.7,14.6,4.7,14.6h14.8c0,0,2.9-6,4.4-12.7l0,0H98.6z"/>
<path class="st4" d="M88.8,19.5C86.1,20.3,84,23.3,86,26c2,2.7,10.2,2,10.4,2c0.1-1.1,0.2-2.2,0.2-3.3c0-2-0.2-3.8-0.6-5.5
	C95.9,19.3,91.5,18.7,88.8,19.5z"/>
<path class="st5" d="M91.1,33.4c-0.8,0.2-3,0.6-2.9,2.2c0.1,1.6,2,2.1,5.9,1.9c0.4-1.3,0.9-2.7,1.2-4.1
	C95.3,33.4,92.2,33.2,91.1,33.4z"/>
<polygon class="st6" points="95.1,53.3 91.3,44.6 76.4,44.6 74.6,53.3 "/>
<path class="st6" d="M92.2,19.1c0,0-1.7,3.5,0,8.9c2.2,0.1,4.1,0,4.2,0c0.1-1.1,0.2-2.2,0.2-3.3c0-2-0.2-3.8-0.6-5.5
	C95.9,19.3,94.2,19.1,92.2,19.1z"/>
<path class="st3" d="M142.8,32l-2.3-3.1l0,0c0.2-1.4,0.3-2.8,0.3-4.2c0-10-5.5-16.8-14.5-16c-8.5,0.8-12.2,10-11.4,16.3
	c0,0-3.3,0-2.5,3c0.6,2.1,3.5,2,3.5,2c1.7,6.5,4.7,14.6,4.7,14.6h14.8c0,0,2.9-6,4.4-12.7l0,0H142.8z"/>
<path class="st4" d="M133,19.5c-2.7,0.8-4.8,3.7-2.8,6.5c2,2.7,10.2,2,10.4,2c0.1-1.1,0.2-2.2,0.2-3.3c0-2-0.2-3.8-0.6-5.5
	C140.1,19.3,135.7,18.7,133,19.5z"/>
<path class="st5" d="M135.3,33.4c-0.8,0.2-3,0.6-2.9,2.2c0.1,1.6,2,2.1,5.9,1.9c0.4-1.3,0.9-2.7,1.2-4.1
	C139.5,33.4,136.4,33.2,135.3,33.4z"/>
<polygon class="st6" points="139.3,53.3 135.5,44.6 120.7,44.6 118.9,53.3 "/>
<path class="st6" d="M136.4,19.1c0,0-1.7,3.5,0,8.9c2.2,0.1,4.1,0,4.2,0c0.1-1.1,0.2-2.2,0.2-3.3c0-2-0.2-3.8-0.6-5.5
	C140.2,19.3,138.4,19.1,136.4,19.1z"/>
<path class="st7" d="M274.3,53.3h-35.7h-23.9l-33.3-53C181.3,0.1,181,0,180.8,0H66.3c-0.3,0-0.5,0.1-0.6,0.4l-29.1,53H0.7
	C0.3,53.3,0,53.6,0,54v47.8c0,0.4,0.3,0.7,0.7,0.7h27.9c0.4,0,0.7-0.3,0.7-0.7c0-12.2,9.9-22.1,22.1-22.1c12.2,0,22.1,9.9,22.1,22.1
	c0,0.4,0.3,0.7,0.7,0.7h57.4c0.4,0,0.7-0.3,0.7-0.7c0-12.2,9.9-22.1,22.1-22.1c12.2,0,22.1,9.9,22.1,22.1c0,0.4,0.3,0.7,0.7,0.7
	h61.4h35.7c0.4,0,0.7-0.3,0.7-0.7V76.6V64.8V54C275,53.6,274.7,53.3,274.3,53.3z M213,53.3h-34L146.4,1.4h34L213,53.3z M66.7,1.4h78
	l32.6,51.9h-37.3l-2.6-5.9c0,0,0,0,0,0l-1.2-2.7c0.6-1.3,2.8-6.3,4.2-12h2.3c0.3,0,0.5-0.1,0.6-0.4c0.1-0.2,0.1-0.5-0.1-0.7
	l-2.1-2.8c0.2-1.3,0.3-2.7,0.3-4c0-2-0.2-3.8-0.6-5.5c0-0.1,0-0.1,0-0.2c-0.8-3.2-2.3-5.9-4.4-7.8c-2.7-2.4-6.2-3.5-10.2-3.2
	c-3.3,0.3-6.3,1.9-8.4,4.6c-2.5,3.1-3.9,7.7-3.6,11.8c-0.6,0.1-1.5,0.4-2.1,1.1c-0.5,0.7-0.6,1.6-0.3,2.6c0.6,1.9,2.6,2.4,3.6,2.5
	c1.6,5.9,4.1,12.7,4.5,14l-1.8,8.6H95.8l-2.6-5.9c0,0,0,0,0,0L92,44.6c0.6-1.3,2.8-6.3,4.2-12h2.3c0.3,0,0.5-0.1,0.6-0.4
	c0.1-0.2,0.1-0.5-0.1-0.7L97,28.7c0.2-1.3,0.3-2.7,0.3-4c0-2-0.2-3.8-0.6-5.5c0-0.1,0-0.1,0-0.2c-0.8-3.2-2.3-5.9-4.4-7.8
	C89.6,8.8,86.1,7.7,82,8c-3.3,0.3-6.3,1.9-8.4,4.6c-2.5,3.1-3.9,7.7-3.6,11.8c-0.6,0.1-1.5,0.4-2.1,1.1c-0.5,0.7-0.6,1.6-0.3,2.6
	c0.6,1.9,2.6,2.4,3.6,2.5c1.6,5.9,4.1,12.7,4.5,14l-1.8,8.6H38.2L66.7,1.4z M114.3,25.9c0.2,1,0.4,2.2,0.7,3.4
	c-0.7-0.1-1.6-0.5-1.9-1.4c-0.2-0.6-0.1-1.1,0.1-1.4C113.5,26.1,113.9,25.9,114.3,25.9z M115.6,25c-0.5-3.9,0.8-8.5,3.3-11.5
	c1.9-2.4,4.5-3.8,7.5-4.1c3.6-0.3,6.8,0.6,9.1,2.8c1.7,1.6,2.9,3.7,3.7,6.2c-1.5-0.1-4.4-0.2-6.4,0.4c-1.9,0.6-3.4,1.9-3.9,3.6
	c-0.4,1.3-0.2,2.8,0.7,4c1.5,2,5.7,2.4,8.5,2.4c0.7,0,1.2,0,1.7,0c-0.2,1.3-0.5,2.7-0.8,4c-1-0.1-2.9-0.1-3.8,0.1
	c-0.9,0.2-3.6,0.7-3.5,2.9c0.1,2.2,2.5,2.6,5.1,2.6c0.2,0,0.3,0,0.5,0c-1,2.7-1.9,4.8-2.3,5.6h-13.9C120.3,41.6,116.3,30.5,115.6,25
	z M138.5,34.8H135c-0.4,0-0.7,0.3-0.7,0.7s0.3,0.7,0.7,0.7h3c-0.1,0.2-0.2,0.5-0.2,0.7c-4.6,0.2-4.7-0.9-4.7-1.3
	c0-0.7,0.7-1.1,2.4-1.5c0.6-0.1,2.1-0.1,3.2,0C138.6,34.3,138.5,34.6,138.5,34.8z M137,27.4c-1.1-3.8-0.4-6.6-0.1-7.6
	c1.1,0,2.2,0.1,2.7,0.1c0.1,0.6,0.2,1.3,0.3,2c-0.8,0-2,0.3-2,1.8c-0.1,1.5,1.3,2,2.2,2.2c0,0.5-0.1,1-0.1,1.5
	C139.2,27.4,138.1,27.4,137,27.4z M135.5,27.3c-2-0.2-4-0.7-4.7-1.7c-0.6-0.9-0.8-1.8-0.5-2.7c0.4-1.2,1.6-2.2,3-2.7
	c0.6-0.2,1.4-0.3,2.2-0.4C135,21.2,134.6,23.8,135.5,27.3z M140.9,30.6l0.5,0.6h-0.6C140.8,31.1,140.9,30.8,140.9,30.6z M121.2,45.3
	H135l0.7,1.6h-14.8L121.2,45.3z M120.6,48.3h15.7l2.2,5h-18.9L120.6,48.3z M70.1,25.9c0.2,1,0.4,2.2,0.7,3.4
	c-0.7-0.1-1.6-0.5-1.9-1.4c-0.2-0.6-0.1-1.1,0.1-1.4C69.3,26.1,69.7,25.9,70.1,25.9z M71.4,25c-0.5-3.9,0.8-8.5,3.3-11.5
	c1.9-2.4,4.5-3.8,7.5-4.1c3.6-0.3,6.8,0.6,9.1,2.8c1.7,1.6,2.9,3.7,3.7,6.2c-1.5-0.1-4.4-0.2-6.4,0.4c-1.9,0.6-3.4,1.9-3.9,3.6
	c-0.4,1.3-0.2,2.8,0.7,4c1.5,2,5.7,2.4,8.5,2.4c0.7,0,1.2,0,1.7,0c-0.2,1.3-0.5,2.7-0.8,4c-1-0.1-2.9-0.1-3.8,0.1
	c-0.9,0.2-3.6,0.7-3.5,2.9c0.1,2.2,2.5,2.6,5.1,2.6c0.2,0,0.3,0,0.5,0c-1,2.7-1.9,4.8-2.3,5.6H76.9C76.1,41.6,72.1,30.5,71.4,25z
	 M94.2,34.8h-3.4c-0.4,0-0.7,0.3-0.7,0.7s0.3,0.7,0.7,0.7h3c-0.1,0.2-0.2,0.5-0.2,0.7c-4.6,0.2-4.7-0.9-4.7-1.3
	c0-0.7,0.7-1.1,2.4-1.5c0.6-0.1,2.1-0.1,3.2,0C94.4,34.3,94.3,34.6,94.2,34.8z M92.7,27.4c-1.1-3.8-0.4-6.6-0.1-7.6
	c1.1,0,2.2,0.1,2.7,0.1c0.1,0.6,0.2,1.3,0.3,2c-0.8,0-2,0.3-2,1.8c-0.1,1.5,1.3,2,2.2,2.2c0,0.5-0.1,1-0.1,1.5
	C95,27.4,93.9,27.4,92.7,27.4z M91.2,27.3c-2-0.2-4-0.7-4.7-1.7c-0.6-0.9-0.8-1.8-0.5-2.7c0.4-1.2,1.6-2.2,3-2.7
	c0.6-0.2,1.4-0.3,2.2-0.4C90.8,21.2,90.4,23.8,91.2,27.3z M96.7,30.6l0.5,0.6h-0.6C96.6,31.1,96.7,30.8,96.7,30.6z M77,45.3h13.8
	l0.7,1.6H76.7L77,45.3z M76.4,48.3h15.7l2.2,5H75.4L76.4,48.3z M1.4,54.7h236.5v9.4h-16c-0.4,0-0.7,0.3-0.7,0.7v11.8
	c0,0.4,0.3,0.7,0.7,0.7h16v23.8h-54.3c-0.4-15.6-13.2-28.2-28.9-28.2c-15.7,0-28.6,12.6-28.9,28.2H80.3C80,85.4,67.1,72.8,51.4,72.8
	c-15.7,0-28.6,12.6-28.9,28.2H1.4V54.7z M237.9,75.9h-15.3V65.5h15.3V75.9z M239.3,65.5h8.1v10.4h-8.1V65.5z M51.4,78.3
	c-12.7,0-23.1,10.2-23.5,22.8h-4c0.4-14.9,12.6-26.8,27.5-26.8c15,0,27.2,12,27.5,26.8h-4C74.5,88.5,64.1,78.3,51.4,78.3z
	 M154.4,78.3c-12.7,0-23.1,10.2-23.5,22.8h-3.8c0.4-14.9,12.6-26.8,27.5-26.8c15,0,27.2,12,27.5,26.8h-4.3
	C177.5,88.5,167.2,78.3,154.4,78.3z M239.3,101.1V77.3h8.8c0.4,0,0.7-0.3,0.7-0.7V64.8c0-0.4-0.3-0.7-0.7-0.7h-8.8v-9.4h34.3v9.4
	h-7.5c-0.4,0-0.7,0.3-0.7,0.7v11.8c0,0.4,0.3,0.7,0.7,0.7h7.5v23.8H239.3z M273.6,75.9h-6.8V65.5h6.8V75.9z"/>
</svg>
