<?xml version="1.0" encoding="utf-8"?>
<svg version="1.1" id="the-element-moon-1" xmlns="http://www.w3.org/2000/svg" xmlns:xlink="http://www.w3.org/1999/xlink" x="0px"
	 y="0px" viewBox="0 0 75 140" style="enable-background:new 0 0 75 140;" xml:space="preserve">
<style type="text/css">
	.st0{fill:#E84572;}
	.st1{fill:#F4AEB6;}
	.st2{fill:#121659;}
	.st3{fill:#FFFFFF;}
	.st4{fill:#97D2CE;}
	.st5{fill:#231815;}
</style>
<g>
	<path class="st0" d="M34.7,60c-11.9,24.4-34,26.8-34,26.8c0.7-0.1,2.9,1.9,3.5,2.2c3,1.8,6.1,3.3,9.3,4.6
		c8.9,3.6,18.9,5.4,28.3,3.1C57.4,92.9,68.9,78,72.7,63c2.5-9.8,2.1-20.8-1.8-30.2C67.4,24,61,16.9,53.3,11.6
		c-5.8-4-12.4-7.1-19.1-9.3c-1.8-0.6-3.6-1.1-5.4-1.5c0,0,16.7,20.5,10.2,47.3L14.4,53L34.7,60c0,0,1.3,6.2,7.5,4.9
		c3.8-0.8,4.6-6.8,1.7-8"/>
	<path class="st1" d="M38.2,73c0,0-3.4-0.2-6.1,1.6c-2.8,1.9-2.5,5.9,1.2,6.4c2,0.3,2.6-0.6,5.5-0.3c2.9,0.3,6.1,1.7,7.2-2
		C47,75.4,42.9,73,38.2,73z"/>
	<polygon class="st2" points="52.5,92.1 39,97.3 43.4,102.7 39.8,132.5 45.7,139.2 51.5,132 47.3,102.7 	"/>
	<path class="st3" d="M48.8,50.6c0,0,0.2-2.9,3.6-5.2c3.5-2.3,11-0.4,15.5,6c0,0-4.7,2.8-10.9,2.8S48.8,50.6,48.8,50.6z"/>
	<path class="st4" d="M62.1,46.2c0,0-3.6-2.9-4.7,0.6s-1.6,7.9,3,7.2s8-2.1,7.1-3.2C66.5,49.7,64.2,47.2,62.1,46.2z"/>
	<g>
		<path class="st5" d="M71.6,32.5c-3.3-8.2-9.5-15.7-17.9-21.5C48,7.1,41.5,3.9,34.4,1.6c-2.2-0.7-3.8-1.2-5.5-1.5
			c-0.3-0.1-0.6,0.1-0.7,0.3c-0.2,0.3-0.1,0.6,0.1,0.8c0.2,0.2,16.3,20.4,10.2,46.3l-24.3,4.8c-0.3,0.1-0.5,0.3-0.6,0.6
			c0,0.3,0.2,0.6,0.5,0.7l19.6,6.8C22.1,83.5,1.5,86,0.7,86.1c-0.4,0-0.7,0.4-0.7,0.8c0,0.4,0.4,0.7,0.7,0.6c0.4,0.1,1.6,1,2.2,1.5
			c0.4,0.3,0.7,0.6,0.9,0.7c3,1.8,6.1,3.3,9.4,4.6c6.8,2.8,13.5,4.2,19.8,4.2c1.9,0,3.8-0.2,5.7-0.4l4,4.8l-3.5,29.5
			c0,0.2,0,0.4,0.2,0.5l5.9,6.7c0.1,0.2,0.3,0.2,0.5,0.2c0,0,0,0,0,0c0.2,0,0.4-0.1,0.5-0.3l5.7-7.2c0.1-0.2,0.2-0.3,0.1-0.5
			L48,102.8l5.1-10.2c10.6-6.9,17.6-18.7,20.4-29.4C76,52.9,75.4,41.7,71.6,32.5z M45.7,138.1l-5.1-5.9l3.4-28.9h2.7l4,28.5
			L45.7,138.1z M46.9,102h-3.1l-3.5-4.2c0.6-0.1,1.1-0.2,1.7-0.4c3.2-0.8,6.2-2,8.9-3.5L46.9,102z M72.1,62.8
			c-3.5,13.7-14.3,29.3-30.5,33.3c-8.3,2-17.9,1-27.9-3.1c-3.2-1.3-6.2-2.8-9.2-4.5c-0.2-0.1-0.4-0.3-0.8-0.6
			c-0.3-0.3-0.6-0.5-0.9-0.7C8.5,86,24.6,81,34.6,61.8c0.9,1.9,3.1,4.8,7.8,3.9c2.5-0.5,3.8-2.8,4-4.9c0.2-2.1-0.6-3.8-2.1-4.4
			c-0.4-0.1-0.8,0-0.9,0.4c-0.1,0.4,0,0.8,0.4,0.9c1.1,0.4,1.3,1.9,1.2,3c-0.2,1.6-1.1,3.4-2.9,3.7c-5.4,1.1-6.6-4.1-6.7-4.4
			c0-0.2-0.2-0.4-0.4-0.5c0,0-0.1,0-0.1,0L17,53.2l22.1-4.4c0.3-0.1,0.5-0.3,0.5-0.5c5.5-22.6-5.5-41-9.2-46.4c1,0.3,2.2,0.6,3.5,1
			c7,2.3,13.3,5.4,18.9,9.2C61.1,17.8,67.1,25,70.3,33C74,42,74.6,52.8,72.1,62.8z"/>
		<path class="st5" d="M38.2,72.3c-0.4,0-3.7-0.1-6.5,1.7c-1.7,1.1-2.5,3-2.1,4.7c0.4,1.6,1.7,2.7,3.5,3c1,0.1,1.7,0,2.5-0.1
			c0.8-0.1,1.6-0.3,3-0.2c0.5,0,1.1,0.1,1.6,0.2c0.8,0.1,1.6,0.3,2.4,0.3c1.7,0,3.2-0.6,4-2.9c0.4-1.3,0.2-2.6-0.6-3.7
			C44.6,73.4,41.6,72.3,38.2,72.3z M45.3,78.6c-0.7,2.3-2.2,2.1-4.8,1.7c-0.6-0.1-1.1-0.2-1.7-0.2c-0.4,0-0.8-0.1-1.1-0.1
			c-1,0-1.7,0.1-2.3,0.2c-0.7,0.1-1.2,0.2-2,0.1c-1.3-0.2-2.1-0.9-2.4-1.9c-0.3-1.2,0.3-2.4,1.5-3.2c2.5-1.7,5.6-1.5,5.6-1.5
			c0,0,0,0,0.1,0c2.9-0.1,5.6,0.9,6.7,2.4C45.5,76.9,45.6,77.7,45.3,78.6z"/>
		<path class="st5" d="M42.6,77c-5.1-1.8-9,0-9.2,0c-0.4,0.2-0.5,0.6-0.3,0.9c0.2,0.4,0.6,0.5,0.9,0.3c0,0,3.6-1.6,8.2,0
			c0.1,0,0.2,0,0.2,0c0.3,0,0.6-0.2,0.7-0.5C43.2,77.5,43,77.1,42.6,77z"/>
		<path class="st5" d="M62.6,45.7l0.9-1.3c0.2-0.3,0.2-0.7-0.1-1c-0.3-0.2-0.7-0.2-1,0.1L61.4,45c0,0,0,0,0,0
			c-0.8-0.4-1.6-0.7-2.4-0.9c-0.1,0-0.2-0.1-0.3-0.1c-0.5-0.1-1-0.2-1.5-0.3v-1.3c0-0.4-0.3-0.7-0.7-0.7s-0.7,0.3-0.7,0.7v1.2
			c-1.2,0-2.2,0.3-3.1,0.7l-1-1.3c-0.2-0.3-0.7-0.3-1-0.1c-0.3,0.2-0.3,0.7-0.1,1l0.9,1.1c-3.1,2.4-3.3,5.2-3.3,5.3
			c0,0.1,0,0.3,0.1,0.4c0.1,0.1,1.3,2.3,4.7,3.4l-1.1,1.5c-0.2,0.3-0.2,0.8,0.2,1c0.1,0.1,0.3,0.1,0.4,0.1c0.2,0,0.4-0.1,0.6-0.3
			l1.4-1.9c0.8,0.1,1.6,0.2,2.5,0.2c0,0,0,0.1,0,0.1v2.3c0,0.4,0.3,0.7,0.7,0.7s0.7-0.3,0.7-0.7v-2.3c0-0.1,0-0.1,0-0.2
			c1.4-0.1,2.7-0.3,3.9-0.5C62,54.5,61.9,54.8,62,55l0.8,2c0.1,0.3,0.4,0.4,0.6,0.4c0.1,0,0.2,0,0.3-0.1c0.4-0.1,0.5-0.6,0.4-0.9
			l-0.8-2c-0.1-0.1-0.2-0.2-0.3-0.3c3.1-0.8,5.1-2,5.2-2.1c0.2-0.1,0.3-0.3,0.3-0.5c0-0.2,0-0.4-0.1-0.5
			C66.9,48.7,64.8,46.9,62.6,45.7z M49.6,50.5c0.1-0.6,0.7-2.7,3.3-4.5c1.1-0.8,2.8-1,4.6-0.7c-0.9,1.4-2.1,4.3-0.8,8.3
			C52,53.4,50,51.1,49.6,50.5z M58.2,53.5c-1.7-4.2,0-7,0.7-7.9c2.8,0.8,5.8,2.7,8,5.6C65.5,51.9,62.2,53.2,58.2,53.5z"/>
	</g>
	<circle class="st5" cx="63" cy="49.2" r="2.3"/>
</g>
</svg>
