<?xml version="1.0" encoding="utf-8"?>
<svg version="1.1" id="the-ikastore-building-main-1"
	 xmlns="http://www.w3.org/2000/svg" xmlns:xlink="http://www.w3.org/1999/xlink" x="0px" y="0px" viewBox="0 0 581 450"
	 style="enable-background:new 0 0 581 450;" xml:space="preserve">
<style type="text/css">
	.st0{fill:#EE795E;}
	.st1{fill:#121659;}
	.st2{fill:#97D2CE;}
	.st3{fill:#FFF8EE;}
	.st4{fill:#FFFFFF;}
	.st5{fill:#231815;}
</style>
<g>
	<path class="st0" d="M172.5,189.9c-4.6,13.6-9.1,28-13.3,43.5c-16,57.8-29.3,129.1-36.6,216.6h336c-7.3-87.6-20.6-158.8-36.6-216.6
		c-4.3-15.4-8.7-29.9-13.3-43.5c-1.5-4.5-3.1-8.9-4.6-13.2c0,0,0,0,0-0.1l0,0c35.4-24.1,50.3-63.9,50.3-63.9
		C353.1,13.1,290.5,0.9,290.5,0.9S228,13.1,126.8,112.7c0,0,14.9,39.8,50.3,63.9l0,0c0,0,0,0,0,0.1C175.5,181,174,185.4,172.5,189.9
		z"/>
	<path class="st1" d="M431.5,450c-10.9-71.8-42.8-158.1-57-194.4c-1.9-4.8-3.5-8.8-4.7-11.7c-1.5-3.7-2.3-5.6-2.3-5.6
		c-6.1-10.8-16.2-18-27.1-22.9c-8.2-3.7-16.9-6-24.7-7.5c-14.1-2.7-25.2-2.5-25.2-2.5s-10.9-0.1-24.7,2.4
		c-7.7,1.4-16.4,3.7-24.7,7.3c-11.1,4.9-21.4,12.2-27.6,23.1c0,0-0.8,2-2.3,5.6c-0.7,1.8-1.6,3.9-2.6,6.5
		c-12.9,32.5-47.6,124.1-59.1,199.6L431.5,450L431.5,450z"/>
	<path class="st2" d="M340.4,215.5c-8.2-3.7-16.9-6-24.7-7.5c-14.1-2.7-25.2-2.5-25.2-2.5s-10.9-0.1-24.7,2.4
		c-7.7,1.4-16.4,3.7-24.7,7.3c-11.1,4.9-21.4,12.2-27.6,23.1c0,0,2.7-0.6,7.6-1.6c4.8-0.9,11.6-2.1,20.1-3.1c2.6-0.3,5.4-0.7,8.3-1
		h0.1c5-0.5,10.5-1,16.4-1.4c3.5-0.2,7.2-0.4,11-0.6l0,0c4.4-0.2,9-0.3,13.7-0.3c4.5,0,9,0,13.7,0.2c3.8,0.1,7.6,0.3,11.5,0.5
		c5.2,0.3,10.5,0.8,15.9,1.3c2.9,0.3,5.8,0.7,8.8,1.1c6.5,0.9,13,1.9,19.6,3.3c2.5,0.5,5,1.1,7.6,1.6
		C361.4,227.6,351.3,220.3,340.4,215.5z"/>
	<path class="st3" d="M290.5,56.1c0,0,19.5-0.3,25.9,19.1c6.5,19.5,7.1,44.5,7.1,44.5h-33h-33c0,0,0.6-25,7.1-44.5
		C271.1,55.8,290.5,56.1,290.5,56.1z"/>
	<path class="st4" d="M282.3,179.6c0.9,1.2,1.4,2.7,1.4,4.3s-0.5,3.1-1.4,4.3c-0.7,0.9-1.6,1.7-2.7,2.2c-0.9,0.4-1.9,0.7-3,0.7
		c-1,0-2-0.2-2.9-0.6c-1.1-0.5-2-1.2-2.7-2.2c-0.9-1.2-1.4-2.7-1.4-4.3s0.5-3.1,1.4-4.3c0.7-0.9,1.6-1.7,2.7-2.2
		c0.9-0.4,1.9-0.6,2.9-0.6c1.1,0,2.1,0.2,3,0.7C280.7,177.9,281.6,178.7,282.3,179.6z"/>
	<path class="st4" d="M309.5,179.6c0.9,1.2,1.4,2.7,1.4,4.3s-0.5,3.1-1.4,4.3c-0.7,0.9-1.6,1.7-2.7,2.2c-0.9,0.4-1.9,0.7-3,0.7
		c-1,0-2-0.2-2.9-0.6c-1.1-0.5-2-1.2-2.7-2.2c-0.9-1.2-1.4-2.7-1.4-4.3s0.5-3.1,1.4-4.3c0.7-0.9,1.6-1.7,2.7-2.2
		c0.9-0.4,1.9-0.6,2.9-0.6c1.1,0,2.1,0.2,3,0.7C307.9,177.9,308.8,178.7,309.5,179.6z"/>
	<path class="st3" d="M226.8,141.6c0,0-19.1,7.2-13.6,32.1c4.9,22.2,32.8,10.5,39.5,4.9c10.4-8.6,14.5-20.1,7.8-29.2
		C253.8,140.3,241.9,134.9,226.8,141.6z"/>
	<path class="st3" d="M353.6,141.6c0,0,19.1,7.2,13.6,32.1c-4.9,22.2-32.8,10.5-39.6,4.9c-10.4-8.6-14.5-20.1-7.8-29.2
		S338.6,134.9,353.6,141.6z"/>
	<path class="st5" d="M457.8,450.1c-6.7-80.3-19-153.1-36.6-216.5c-4.1-14.8-8.6-29.4-13.3-43.4c-1.5-4.4-3.1-8.9-4.6-13.2
		C377.4,105.3,348,61.4,327.9,37.3c-20-24-34.9-33.9-37.4-35.5c-2.5,1.5-17.4,11.4-37.4,35.5c-20.1,24.2-49.5,68-75.4,139.7
		c-1.6,4.4-3.1,8.9-4.6,13.2c-4.7,13.9-9.2,28.5-13.3,43.4c-17.6,63.4-29.9,136.3-36.6,216.5l-1.4-0.1c6.7-80.3,19-153.3,36.6-216.8
		c4.1-14.9,8.6-29.6,13.4-43.5c1.5-4.4,3.1-8.9,4.6-13.3c26-71.9,55.5-115.9,75.7-140.2C274,9.9,290,0.5,290.2,0.4l0.4-0.2l0.4,0.2
		c0.2,0.1,16.2,9.6,38.1,35.9c20.2,24.3,49.7,68.3,75.7,140.2c1.6,4.4,3.1,8.9,4.6,13.3c4.8,14,9.3,28.7,13.4,43.5
		c17.6,63.5,29.9,136.4,36.6,216.8H457.8z"/>
	<path class="st5" d="M150.2,450.1l-1.4-0.2c11.3-74.7,45.1-164.6,59.1-199.7c1-2.5,1.9-4.7,2.6-6.5c1.5-3.7,2.3-5.6,2.3-5.6
		c5.6-9.9,15-17.8,28-23.5c7.3-3.2,15.6-5.7,24.8-7.4c13.8-2.5,24.7-2.4,24.8-2.4c0.1,0,11.3-0.1,25.3,2.5
		c9.2,1.7,17.6,4.3,24.8,7.5c12.7,5.7,21.9,13.5,27.5,23.2c0,0.1,0.9,2.1,2.4,5.7c1.5,3.6,3,7.6,4.7,11.7
		c13.5,34.4,46.1,122.2,57,194.5l-1.4,0.2c-10.9-72.2-43.5-159.9-57-194.2c-1.6-4.1-3.2-8-4.6-11.7c-1.5-3.7-2.3-5.6-2.3-5.6
		c-5.3-9.4-14.3-17-26.8-22.5c-7.2-3.2-15.4-5.7-24.5-7.4c-13.9-2.6-25-2.5-25.1-2.5s-11-0.1-24.6,2.4c-9.1,1.7-17.3,4.1-24.5,7.3
		c-12.7,5.6-21.9,13.2-27.3,22.8c0,0-0.8,2-2.3,5.6c-0.7,1.8-1.6,3.9-2.6,6.5C195.2,285.8,161.5,375.6,150.2,450.1z"/>
	<path class="st5" d="M367.4,239c-2.5-0.6-5-1.1-7.5-1.6c-6.5-1.3-13-2.4-19.5-3.3c-2.8-0.4-5.8-0.8-8.8-1.1
		c-5.3-0.6-10.6-1-15.8-1.3c-3.9-0.2-7.7-0.4-11.5-0.5c-4.5-0.1-9.1-0.2-13.7-0.2c-4.5,0-9.1,0.1-13.7,0.3c-3.6,0.1-7.2,0.3-11,0.6
		c-5.4,0.4-10.9,0.8-16.3,1.4c-3,0.3-5.8,0.6-8.3,1c-7,0.9-13.7,1.9-20,3.1c-4.8,0.9-7.5,1.5-7.5,1.5l-0.3-1.4c0,0,2.8-0.7,7.6-1.6
		c6.4-1.2,13.1-2.2,20.1-3.1c2.6-0.3,5.3-0.7,8.3-1c5.5-0.6,11-1.1,16.4-1.4c3.8-0.3,7.4-0.4,11-0.6c4.6-0.2,9.2-0.3,13.8-0.3
		c4.6,0,9.2,0,13.7,0.2c3.8,0.1,7.7,0.3,11.5,0.5c5.3,0.3,10.6,0.8,15.9,1.3c3,0.3,6,0.7,8.8,1.1c6.5,0.9,13.1,2,19.6,3.3
		c2.5,0.5,5.1,1.1,7.6,1.6L367.4,239z"/>
	<rect x="289.8" y="205.5" class="st5" width="1.4" height="24.8"/>
	<rect x="265.1" y="207.9" class="st5" width="1.4" height="23.3"/>
	<rect x="240.4" y="215.2" class="st5" width="1.4" height="18.4"/>
	<polygon class="st5" points="316.4,231.3 315,231.3 315,208 316.4,207.9 	"/>
	<rect x="339.7" y="215.2" class="st5" width="1.4" height="18.4"/>
	<path class="st5" d="M276.6,191.7c-1.1,0-2.2-0.2-3.2-0.7c-1.2-0.5-2.2-1.4-3-2.4c-1-1.4-1.6-3-1.6-4.7s0.6-3.3,1.6-4.7
		c0.8-1,1.8-1.9,3-2.4c2-0.9,4.4-0.9,6.5,0c1.2,0.5,2.2,1.4,3,2.4c1,1.4,1.6,3,1.6,4.7s-0.5,3.3-1.6,4.7c-0.8,1-1.8,1.9-3,2.4
		C278.9,191.4,277.8,191.7,276.6,191.7z M276.6,177.5c-0.9,0-1.8,0.2-2.6,0.6c-1,0.4-1.8,1.1-2.5,2c-0.9,1.1-1.3,2.5-1.3,3.9
		s0.5,2.8,1.3,3.9c0.6,0.8,1.5,1.5,2.5,2c1.7,0.8,3.6,0.8,5.3,0c1-0.4,1.8-1.1,2.4-2c0.8-1.1,1.3-2.4,1.3-3.8c0-1.4-0.4-2.7-1.3-3.8
		l0,0c-0.6-0.8-1.5-1.5-2.4-2C278.5,177.7,277.6,177.5,276.6,177.5z"/>
	<rect x="275.9" y="176.8" class="st5" width="1.4" height="14.2"/>
	<rect x="273" y="177.4" class="st5" width="1.4" height="12.9"/>
	<rect x="270.4" y="179.7" class="st5" width="1.4" height="8.4"/>
	<polygon class="st5" points="278.9,190.3 278.9,177.4 280.3,177.4 280.3,190.3 	"/>
	<rect x="281.5" y="179.7" class="st5" width="1.4" height="8.4"/>
	<path class="st5" d="M303.8,191.7c-1.1,0-2.2-0.2-3.2-0.7c-1.2-0.5-2.2-1.4-3-2.4c-1-1.4-1.6-3-1.6-4.7s0.5-3.3,1.6-4.7
		c0.8-1,1.8-1.9,3-2.4c2-0.9,4.4-0.9,6.5,0c1.2,0.5,2.2,1.4,3,2.4l0,0c1,1.4,1.6,3,1.6,4.7s-0.5,3.3-1.6,4.7c-0.8,1-1.8,1.9-3,2.4
		C306.1,191.4,305,191.7,303.8,191.7z M303.8,177.5c-0.9,0-1.8,0.2-2.6,0.6c-1,0.4-1.8,1.1-2.5,2c-0.9,1.1-1.3,2.5-1.3,3.9
		s0.5,2.8,1.3,3.9c0.6,0.9,1.5,1.5,2.5,2c1.7,0.8,3.6,0.8,5.3,0c1-0.4,1.8-1.1,2.4-2c0.8-1.1,1.3-2.4,1.3-3.8c0-1.4-0.4-2.7-1.3-3.9
		l0,0c-0.6-0.8-1.5-1.5-2.4-2C305.7,177.7,304.8,177.5,303.8,177.5z"/>
	<rect x="303.1" y="176.8" class="st5" width="1.4" height="14.2"/>
	<rect x="300.2" y="177.4" class="st5" width="1.4" height="12.9"/>
	<rect x="297.6" y="179.7" class="st5" width="1.4" height="8.4"/>
	<polygon class="st5" points="306.1,190.3 306.1,177.4 307.5,177.4 307.5,190.3 	"/>
	<rect x="308.7" y="179.7" class="st5" width="1.4" height="8.4"/>
	<path class="st5" d="M229.5,187.4c-2.3,0-4.6-0.3-6.8-1.1c-5.4-1.8-8.8-6.1-10.2-12.5c-5.4-24.8,13.2-32.6,14-32.9
		c13.5-6,26.4-3,34.5,8.1c6.6,8.9,3.5,20.8-7.9,30.2C249.6,182.1,239.1,187.4,229.5,187.4z M239.9,139.3c-4.1,0-8.4,1-12.8,2.9l0,0
		c-0.8,0.3-18.4,7.3-13.2,31.3c1.3,6,4.4,9.8,9.3,11.5c10.3,3.5,25-3.6,29.1-7c10.7-8.9,13.8-20,7.7-28.2
		C254.9,142.9,247.8,139.3,239.9,139.3z"/>
	<path class="st5" d="M351,187.4c-9.6,0-20.1-5.3-23.7-8.3c-11.4-9.4-14.5-21.2-7.9-30.2c8.1-11,21.1-14.1,34.5-8.1
		c0.8,0.3,19.5,8.1,14,32.9c-1.4,6.5-4.8,10.7-10.2,12.5C355.6,187.1,353.3,187.4,351,187.4z M340.6,139.3c-7.9,0-15,3.6-20.1,10.5
		c-6.1,8.3-3.1,19.4,7.6,28.2c4.1,3.4,18.9,10.5,29.1,7c4.9-1.7,8-5.6,9.3-11.5c5.2-24-12.4-31-13.2-31.3l0,0
		C349,140.3,344.7,139.3,340.6,139.3z"/>
	<path class="st5" d="M404.3,177.2l-0.8-1.2c32.8-22.4,48.1-58.8,49.8-63.2C356,17.1,293.8,2.3,290.5,1.6
		c-3.3,0.7-65.5,15.6-162.8,111.3c1.7,4.3,17,40.8,49.8,63.2l-0.8,1.2c-35.1-23.9-50.4-63.8-50.5-64.2l-0.2-0.4l0.3-0.3
		c52.3-51.5,94.1-79.2,119.9-93.4c28-15.4,44-18.6,44.1-18.7h0.1h0.1c0.2,0,16.1,3.3,44.1,18.7c25.8,14.2,67.6,41.9,119.9,93.4
		l0.3,0.3l-0.2,0.4C454.7,113.3,439.4,153.3,404.3,177.2z"/>
	<path class="st5" d="M324.2,120.5h-67.5v-0.7c0-0.3,0.7-25.4,7.1-44.7c6.5-19.5,26-19.6,26.6-19.6s20.1,0.1,26.6,19.6
		c6.4,19.3,7.1,44.5,7.1,44.7L324.2,120.5z M258.2,119.1h64.6c-0.2-4.2-1.3-26.3-7-43.6c-6.2-18.7-24.5-18.6-25.2-18.6l0,0l0,0
		c-0.8,0-19-0.1-25.2,18.6C259.5,92.8,258.4,114.9,258.2,119.1z"/>
</g>
</svg>
