<?xml version="1.0" encoding="utf-8"?>
<!-- Generator: Adobe Illustrator 25.4.1, SVG Export Plug-In . SVG Version: 6.00 Build 0)  -->
<svg version="1.1" id="the-nav-ikaicon-1" xmlns="http://www.w3.org/2000/svg" xmlns:xlink="http://www.w3.org/1999/xlink" x="0px"
	 y="0px" viewBox="0 0 100 78" style="enable-background:new 0 0 100 78;" xml:space="preserve">
<style type="text/css">
	.svg__m__color{fill:#14195A;}
	.svg__pnk__color {fill: #e64673;}
	.svg__ong__color {fill: #f0785f;}
	.svg__grn__color {fill: #96d2cd;}
	.svg__mlgt__color {fill: #fff8ee;}
	.svg__blk__color {fill: #000000;}
	.svg__skin__color{fill:#f5afb4;}
	.svg__w__color{fill:#ffffff;}
</style>
<g id="use-ika-for-navi-element">
	<path class="svg__ong__color" d="M88,50.9c0,0-6.4-4.7-10-0.7s2.2,9.5,2.2,9.5l-1.4,1.6c0,0-7.4-7-2.4-12.5c4.9-5.6,13.2,0.4,13.2,0.4L88,50.9z
		"/>
	<path class="svg__blk__color" d="M78.7,61.9c-0.1,0-0.2,0-0.3-0.1c-0.1-0.1-7.6-7.4-2.5-13.2c5.2-5.8,13.7,0.3,13.8,0.4
		c0.2,0.2,0.3,0.5,0.1,0.7c-0.2,0.2-0.5,0.3-0.7,0.1c-0.1-0.1-7.9-5.7-12.5-0.5c-4.6,5.1,2.1,11.6,2.4,11.8c0.2,0.2,0.2,0.5,0,0.7
		C78.9,61.9,78.8,61.9,78.7,61.9z"/>
	<path class="svg__blk__color" d="M80.1,60.3c-0.1,0-0.2,0-0.3-0.1c-2.1-2-5.3-6.7-2.2-10.2c3.9-4.4,10.6,0.5,10.7,0.6c0.2,0.2,0.3,0.5,0.1,0.7
		c-0.2,0.2-0.5,0.3-0.7,0.1c-0.1,0-6.1-4.4-9.4-0.7c-3.3,3.7,2.1,8.8,2.1,8.8c0.2,0.2,0.2,0.5,0,0.7C80.3,60.3,80.2,60.3,80.1,60.3z
		"/>
	<path class="svg__mlgt__color" d="M76.6,47.5c1.9,0,3.4,1.5,3.4,3.4c0,1.9-1.5,3.4-3.4,3.4c-1.7,0-3.1-1.2-3.4-2.9c0-0.2-0.1-0.4-0.1-0.6
		c0-1.3,0.7-2.4,1.7-3C75.4,47.7,76,47.5,76.6,47.5z"/>
	<path class="svg__mlgt__color" d="M73.2,51c0,0.2,0,0.4,0.1,0.6h0c-4.4-1.1-10.6-1.2-10.6-1.2c-0.3-2.8-0.6-6.1-1.1-10.1h0c0,0,8.2,2.1,13.3,7.7
		C73.9,48.6,73.2,49.7,73.2,51z"/>
	<path class="svg__skin__color" d="M46.2,52c0,0,0.4,2.5-3.5,2.5h-2.1h-2.1C34.6,54.5,35,52,35,52c0-2.6,3.5-2.5,3.5-2.5h2.1h2.1
		C42.7,49.6,46.2,49.4,46.2,52z"/>
	<path class="svg__mlgt__color" d="M19,40.3L19,40.3c-0.4,4-0.8,7.3-1.1,10.1h0c0,0-6.1,0.1-10.6,1.2c0-0.2,0.1-0.4,0.1-0.6c0-1.3-0.7-2.4-1.7-3
		C10.8,42.4,19,40.3,19,40.3z"/>
	<path class="svg__mlgt__color" d="M7.4,51c0,0.2,0,0.4-0.1,0.6c-0.3,1.6-1.7,2.9-3.4,2.9c-1.9,0-3.4-1.5-3.4-3.4c0-1.9,1.5-3.4,3.4-3.4
		c0.6,0,1.2,0.2,1.7,0.5C6.7,48.6,7.4,49.7,7.4,51z"/>
	<path class="svg__mlgt__color" d="M40.3,0.5c-0.5,0.3-13,7.7-18.7,26.2c-4.5-1.4-8.3-7.3-8.3-7.3C24,4.8,39.7,0.6,40.3,0.5z"/>
	<path class="svg__mlgt__color" d="M52.8,45.1c0.7-1.8,0.9-3.7,0.9-5.4c0-2.8-0.7-5-0.7-5c-1.2-0.4-2.2-0.6-3.1-0.7c0,0-0.1,0-0.1,0
		c-2.4-0.1-3.8,0.8-3.8,0.8c-0.4,1.9-0.6,3.6-0.6,5c0,3.2,0.7,5.1,0.8,5.2c0,0,0,0,0,0h0C48.8,45.4,51.3,45.2,52.8,45.1L52.8,45.1
		L52.8,45.1z M26.9,69.6c-3.4,4-8.5,5-9.3,4.7c-0.8-0.3-1.2-1.1-0.2-2.3c1.4-1.6,3-4.1,3.1-4.3c-3.2,2.1-9.5,2.9-10.9,1.7
		s0-1.9,0-1.9c6.6-2.7,6.8-2.5,8.4-17.1c0.3-2.8,0.6-6.1,1.1-10.1c0.1-0.8,0.2-1.6,0.3-2.4c0.5-4.1,1.3-7.8,2.3-11.2
		C27.3,8.2,39.8,0.8,40.3,0.5c0,0,0,0,0,0s0,0,0,0c0.5,0.3,13,7.7,18.7,26.2c1,3.4,1.9,7.1,2.3,11.2c0.1,0.8,0.2,1.6,0.3,2.4
		c0.5,4,0.8,7.3,1.1,10.1c1.5,14.6,1.8,14.4,8.4,17.1c0,0,1.4,0.7,0,1.9c-1.4,1.2-7.7,0.4-10.9-1.7c0.1,0.2,1.7,2.7,3.1,4.3
		c1,1.2,0.6,2-0.2,2.3c-0.8,0.3-5.9-0.8-9.3-4.7c0.1,0.3,1.5,5.7,0.5,6.4c-1.1,0.7-3.5-0.7-7.5-5.9c0,0,1.1,6.7-0.9,7.3
		c-2.1,0.6-4.4-3.6-5.4-7.1c-1,3.5-3.3,7.7-5.4,7.1c-2.1-0.5-0.9-7.3-0.9-7.3c-4,5.2-6.5,6.6-7.5,5.9C25.4,75.3,26.9,69.9,26.9,69.6
		z M35,45.1c0-0.1,0.8-2,0.8-5.2c0-1.4-0.2-3.1-0.6-5c0,0-1.4-0.9-3.8-0.8c0,0,0,0-0.1,0c-0.9,0-2,0.2-3.2,0.7c0,0-0.7,2.2-0.7,5
		c0,1.7,0.2,3.6,0.9,5.4v0h0C29.8,45.2,32.3,45.4,35,45.1L35,45.1C35,45.1,35,45.1,35,45.1z M42.7,54.5c3.9,0,3.5-2.5,3.5-2.5
		c0-2.6-3.5-2.5-3.5-2.5h-2.1h-2.1c0,0-3.5-0.1-3.5,2.5c0,0-0.4,2.5,3.5,2.5h2.1H42.7z"/>
	<path class="svg__mlgt__color" d="M67.3,19.3c0,0-3.7,5.9-8.3,7.3C53.3,8.2,40.8,0.8,40.3,0.5C40.9,0.6,56.6,4.8,67.3,19.3z"/>
	<path class="svg__blk__color" d="M53.7,39.7l-1,0c-2.9-0.3-3.2-3.8-3.2-3.8c-0.4,3.5-3.1,3.9-3.1,3.9l-1,0c0-1.4,0.2-3.1,0.6-5
		c1.4-0.6,2.7-0.8,3.8-0.8c0,0,0,0,0.1,0c0.9,0,2,0.2,3.1,0.7C53,34.7,53.6,36.9,53.7,39.7z"/>
	<path class="svg__blk__color" d="M52.8,45.1L52.8,45.1L52.8,45.1C52.8,45.1,52.8,45.1,52.8,45.1z"/>
	<path class="svg__w__color" d="M52.6,39.7c0,0-3.1,0.8-3.2,3.9c0,0-0.1-3.5-3.1-3.8c0,0,2.7-0.4,3.1-3.9C49.5,35.9,49.8,39.4,52.6,39.7z"/>
	<path class="svg__blk__color" d="M45.9,34.8c0,0,1.4-0.9,3.8-0.8C48.6,34,47.3,34.2,45.9,34.8z"/>
	<path class="svg__blk__color" d="M53.7,39.7c0,1.7-0.2,3.6-0.9,5.4c0,0,0,0,0,0h-6.7h0c0,0,0,0,0,0c0-0.1-0.8-2-0.8-5.2l1,0
		c3,0.3,3.1,3.8,3.1,3.8c0.1-3.2,3.2-3.9,3.2-3.9L53.7,39.7z"/>
	<path class="svg__blk__color" d="M35.8,39.8l-1,0c0,0-2.7-0.4-3.1-3.9c0,0-0.3,3.5-3.2,3.8l-1,0c0-2.8,0.7-5,0.7-5c1.2-0.4,2.2-0.6,3.2-0.7
		c0,0,0,0,0.1,0c1.2,0,2.5,0.2,3.8,0.8C35.6,36.7,35.8,38.4,35.8,39.8z"/>
	<path class="svg__w__color" d="M34.8,39.8c-3,0.3-3.1,3.8-3.1,3.8c-0.1-3.2-3.2-3.9-3.2-3.9c2.9-0.3,3.2-3.8,3.2-3.8
		C32,39.4,34.8,39.8,34.8,39.8z"/>
	<path class="svg__blk__color" d="M31.4,34c2.4-0.1,3.8,0.8,3.8,0.8C33.8,34.2,32.5,34,31.4,34z"/>
	<path class="svg__blk__color" d="M31.7,43.7c0,0,0.1-3.5,3.1-3.8l1,0c0,3.2-0.7,5.1-0.8,5.2c0,0,0,0,0,0h0h-6.7c0,0,0,0,0,0
		c-0.7-1.8-0.9-3.7-0.9-5.4l1,0C28.5,39.7,31.6,40.5,31.7,43.7z"/>
	<path class="svg__blk__color" d="M28.4,45.1L28.4,45.1L28.4,45.1C28.3,45.1,28.4,45.1,28.4,45.1z"/>
	<path class="svg__blk__color" d="M45.3,78c-2.1,0-3.9-3.2-5-6.1c-1.1,3.1-3.3,6.6-5.5,6c-1.8-0.5-1.7-3.8-1.5-6.1c-3.2,3.9-5.7,5.5-7.1,4.6
		c-0.3-0.2-1.3-0.9,0.2-6.9c0,0,0,0,0-0.1c0.1-0.2,0.2-0.4,0.5-0.4c0.3,0,0.5,0.2,0.5,0.5c0,0.1,0,0.1,0,0.2c-1,3.8-0.9,5.6-0.7,5.9
		c0.6,0.4,2.7-0.4,6.8-5.8c0.1-0.2,0.4-0.2,0.6-0.2c0.2,0.1,0.3,0.3,0.3,0.5c-0.4,2.5-0.5,6.4,0.6,6.7c1.6,0.4,3.8-3.2,4.8-6.8
		c0.1-0.4,0.8-0.4,1,0c1,3.5,3.2,7.2,4.8,6.8c1.1-0.3,1-4.2,0.6-6.7c0-0.2,0.1-0.5,0.3-0.5c0.2-0.1,0.5,0,0.6,0.2
		c4.1,5.4,6.2,6.2,6.8,5.8c0.3-0.2,0.3-2-0.7-5.8l0.5-0.2l0.5-0.1c1.5,6.1,0.6,6.8,0.3,7c-1.4,0.9-3.8-0.6-7.1-4.6
		c0.2,2.2,0.2,5.6-1.5,6.1C45.6,78,45.5,78,45.3,78z"/>
	<path class="svg__blk__color" d="M18,74.9c-0.2,0-0.4,0-0.5-0.1c-0.6-0.2-1-0.5-1.1-1c-0.1-0.4-0.1-1.1,0.7-2.1c1.4-1.6,3-4.2,3-4.2
		c0,0,0-0.1,0.1-0.1c0.2-0.2,0.5-0.2,0.7,0c0.2,0.2,0.2,0.5,0,0.7c-0.2,0.3-1.7,2.7-3.1,4.3c-0.4,0.5-0.5,0.9-0.5,1.1
		c0.1,0.2,0.3,0.3,0.4,0.4c0.7,0.2,5.6-0.8,8.8-4.6c0.2-0.2,0.5-0.2,0.7-0.1c0.2,0.2,0.2,0.5,0.1,0.7C24.2,73.5,19.7,74.9,18,74.9z"
		/>
	<path class="svg__blk__color" d="M12.2,70.5c-1.3,0-2.4-0.2-2.9-0.7c-0.6-0.5-0.9-1-0.8-1.6c0.1-0.8,0.8-1.1,0.9-1.2c6.4-2.7,6.6-2.3,8.1-16.7
		l0.2-1.5c0.3-2.5,0.6-5.3,0.9-8.6l0.1-0.5c0.1-0.6,0.1-1.2,0.2-1.9c0.5-3.9,1.2-7.7,2.4-11.3C26.9,8,39.5,0.4,40,0.1
		c0.2-0.1,0.5-0.1,0.7,0.2c0.1,0.2,0.1,0.5-0.2,0.7C40,1.2,27.7,8.7,22.1,26.8c-1.1,3.5-1.9,7.3-2.3,11.1c-0.1,0.6-0.1,1.3-0.2,1.9
		l-0.1,0.5c-0.4,3.3-0.7,6.1-0.9,8.6l-0.2,1.5C16.9,65.1,16.6,65.2,9.7,68c-0.1,0-0.3,0.2-0.3,0.4c0,0.2,0.1,0.4,0.5,0.7
		c1.1,1,7,0.4,10.3-1.7c0.2-0.1,0.5-0.1,0.7,0.1c0.1,0.2,0.1,0.5-0.1,0.7C18.5,69.7,14.8,70.5,12.2,70.5z"/>
	<path class="svg__blk__color" d="M68.4,70.5c-2.7,0-6.3-0.9-8.6-2.3c0,0-0.1,0-0.1-0.1c-0.1-0.1-0.1-0.2-0.1-0.4c0-0.4,0.5-0.6,0.8-0.4
		c3.3,2.1,9.1,2.7,10.3,1.7c0.3-0.3,0.5-0.5,0.5-0.7c0-0.2-0.3-0.4-0.4-0.4c-6.8-2.8-7.1-2.9-8.6-17.5l-0.1-0.8
		c-0.3-2.6-0.6-5.7-1-9.3c-0.1-0.8-0.2-1.6-0.3-2.4c-0.4-3.9-1.2-7.6-2.3-11.1C52.9,8.7,40.6,1.2,40.1,0.9c-0.2-0.1-0.3-0.4-0.2-0.7
		C40,0,40.3-0.1,40.6,0.1c0.5,0.3,13.2,8,18.9,26.4c1.1,3.6,1.9,7.4,2.4,11.3c0.1,0.8,0.2,1.6,0.3,2.4c0.4,3.6,0.7,6.7,1,9.3
		l0.1,0.8c1.5,14.4,1.6,14.1,8.1,16.7c0.1,0.1,0.8,0.4,0.9,1.2c0.1,0.5-0.2,1.1-0.8,1.6C70.8,70.3,69.7,70.5,68.4,70.5z"/>
	<path class="svg__blk__color" d="M62.7,74.9c-1.7,0-6.3-1.3-9.4-5c0,0,0-0.1-0.1-0.1c-0.1-0.2-0.1-0.4,0.1-0.6c0.2-0.2,0.5-0.2,0.7,0
		c0,0,0,0,0.1,0.1c3.3,3.8,8.1,4.7,8.8,4.6c0.2-0.1,0.4-0.2,0.4-0.4c0.1-0.3-0.1-0.7-0.5-1.1c-1.4-1.7-3.1-4.3-3.1-4.3
		c-0.1-0.2-0.1-0.5,0.2-0.7c0.2-0.1,0.5-0.1,0.7,0.2c0,0,1.6,2.6,3,4.2c0.8,0.9,0.8,1.6,0.7,2.1c-0.1,0.5-0.5,0.9-1.1,1
		C63,74.9,62.9,74.9,62.7,74.9z"/>
	<path class="svg__blk__color" d="M21.6,27.2c0,0-0.1,0-0.2,0c-4.7-1.5-8.4-7.3-8.5-7.5c-0.1-0.2-0.1-0.4,0-0.6C23.6,4.5,39.3,0.2,40.1,0
		c0.3-0.1,0.7,0.1,0.7,0.5c0,0.2-0.1,0.4-0.3,0.5c0,0,0,0,0,0C39.8,1.2,24.5,5.2,14,19.4c0.8,1.2,4.1,5.6,7.8,6.8
		c0.3,0.1,0.4,0.4,0.3,0.6C22,27,21.8,27.2,21.6,27.2z"/>
	<path class="svg__blk__color" d="M59,27.2c-0.2,0-0.4-0.1-0.5-0.3c-0.1-0.3,0.1-0.5,0.3-0.6c3.7-1.2,7-5.6,7.8-6.8C56.1,5.2,40.8,1.2,40.2,1
		c0,0,0,0,0,0c-0.2-0.1-0.3-0.3-0.3-0.5c0-0.3,0.3-0.6,0.7-0.5c0.9,0.2,16.5,4.5,27.2,19c0.1,0.2,0.1,0.4,0,0.6
		c-0.2,0.2-3.9,6-8.5,7.5C59.1,27.1,59,27.2,59,27.2z"/>
	<path class="svg__blk__color" d="M76.6,54.9c-1.9,0-3.6-1.4-3.9-3.3c0-0.2-0.1-0.4-0.1-0.6c0-1.4,0.7-2.7,1.9-3.4c0.6-0.4,1.3-0.6,2-0.6
		c2.2,0,3.9,1.8,3.9,3.9S78.8,54.9,76.6,54.9z M76.6,48c-0.5,0-1,0.1-1.5,0.4c0,0,0,0,0,0c-0.9,0.5-1.5,1.5-1.5,2.5
		c0,0.2,0,0.3,0,0.5c0.2,1.4,1.5,2.5,2.9,2.5c1.6,0,2.9-1.3,2.9-2.9S78.3,48,76.6,48z M74.9,48L74.9,48L74.9,48z"/>
	<path class="svg__blk__color" d="M73.2,52.1c0,0-0.1,0-0.1,0c-4.3-1.1-10.4-1.1-10.4-1.1c-0.3,0-0.5-0.2-0.5-0.5c0-0.3,0.2-0.5,0.5-0.5
		c0,0,0,0,0,0c0.3,0,6.2,0.1,10.7,1.2c0.3,0.1,0.4,0.3,0.4,0.6C73.7,51.9,73.5,52.1,73.2,52.1z"/>
	<path class="svg__blk__color" d="M74.9,48.5c-0.1,0-0.3-0.1-0.4-0.2c-4.9-5.5-13-7.6-13-7.6c-0.3-0.1-0.4-0.3-0.4-0.6c0.1-0.3,0.3-0.4,0.6-0.4
		c0.3,0.1,8.4,2.2,13.5,7.9c0.2,0.2,0.2,0.5,0,0.7C75.1,48.5,75,48.5,74.9,48.5z"/>
	<path class="svg__blk__color" d="M3.9,54.9C1.8,54.9,0,53.2,0,51S1.8,47,3.9,47c0.7,0,1.4,0.2,2,0.6c1.2,0.7,1.9,2,1.9,3.4c0,0.2,0,0.4-0.1,0.7
		C7.5,53.5,5.9,54.9,3.9,54.9z M3.9,48C2.3,48,1,49.4,1,51s1.3,2.9,2.9,2.9c1.4,0,2.7-1,2.9-2.5c0-0.2,0-0.3,0-0.5
		c0-1-0.6-2-1.5-2.5c0,0,0,0,0,0C5,48.2,4.5,48,3.9,48z"/>
	<path class="svg__blk__color" d="M7.3,52.1c-0.2,0-0.4-0.2-0.5-0.4c-0.1-0.3,0.1-0.5,0.4-0.6c4.4-1.1,10.4-1.2,10.7-1.2c0,0,0,0,0,0
		c0.3,0,0.5,0.2,0.5,0.5c0,0.3-0.2,0.5-0.5,0.5c-0.1,0-6.1,0.1-10.4,1.1C7.4,52,7.4,52.1,7.3,52.1z"/>
	<path class="svg__blk__color" d="M5.7,48.5c-0.1,0-0.2,0-0.3-0.1c-0.2-0.2-0.2-0.5,0-0.7c5.1-5.7,13.2-7.8,13.5-7.9c0.3-0.1,0.5,0.1,0.6,0.4
		c0.1,0.3-0.1,0.5-0.4,0.6c-0.1,0-8.1,2.1-13,7.6C6,48.5,5.8,48.5,5.7,48.5z"/>
	<path class="svg__blk__color" d="M42.7,55h-4.1c-1.6,0-2.8-0.4-3.5-1.2c-0.7-0.8-0.6-1.8-0.6-1.8c0-0.7,0.3-1.3,0.8-1.8c1.1-1.1,3.1-1,3.2-1
		l4.2,0c0.1,0,2.1-0.1,3.2,1c0.5,0.5,0.8,1.1,0.8,1.9c0,0,0,0,0,0c0,0,0.1,0.9-0.6,1.8C45.5,54.6,44.3,55,42.7,55z M38.4,50.1
		c-0.3,0-1.7,0-2.5,0.8c-0.3,0.3-0.5,0.7-0.5,1.2c0,0.1-0.1,0.6,0.3,1.1c0.5,0.5,1.4,0.8,2.7,0.8h4.1c1.3,0,2.2-0.3,2.7-0.8
		c0.4-0.5,0.3-1,0.3-1c0-0.6-0.2-1-0.5-1.3c-0.7-0.7-2-0.8-2.5-0.8H38.4C38.5,50.1,38.5,50.1,38.4,50.1z"/>
	<path class="svg__blk__color" d="M43.5,52.5h-6c-0.3,0-0.5-0.2-0.5-0.5s0.2-0.5,0.5-0.5h6c0.3,0,0.5,0.2,0.5,0.5S43.8,52.5,43.5,52.5z"/>
	<path class="svg__blk__color" d="M36.1,35.8c-0.1,0-0.2,0-0.3-0.1c-0.3-0.2-0.6-0.3-0.9-0.5c-1.6-0.9-3.6-0.8-3.7-0.8c-2.6,0-4.5,1.2-4.5,1.3
		c-0.2,0.2-0.5,0.1-0.7-0.1c-0.2-0.2-0.1-0.5,0.1-0.7c0.1-0.1,2.1-1.4,5.1-1.4c0.1,0,2.3-0.1,4.2,0.9c0.3,0.1,0.6,0.3,0.9,0.5
		c0.2,0.1,0.3,0.4,0.2,0.7C36.5,35.7,36.3,35.8,36.1,35.8z"/>
	<path class="svg__blk__color" d="M35,45.6c-0.2,0-0.5-0.2-0.5-0.4c0-0.3,0.2-0.5,0.4-0.6c0.3,0,0.6-0.1,0.9-0.1c0.3,0,0.5,0.1,0.6,0.4
		c0,0.3-0.1,0.5-0.4,0.6C35.8,45.5,35.4,45.5,35,45.6C35.1,45.6,35.1,45.6,35,45.6z"/>
	<path class="svg__blk__color" d="M31.8,45.8c-1.5,0-2.7-0.1-3.5-0.2c-0.3,0-0.5-0.3-0.4-0.6c0-0.3,0.3-0.5,0.6-0.4c1.3,0.1,3.9,0.3,6.5,0
		c0.3,0,0.5,0.2,0.6,0.4c0,0.3-0.2,0.5-0.4,0.6C33.9,45.7,32.8,45.8,31.8,45.8z"/>
	<path class="svg__blk__color" d="M28.3,45.6C28.3,45.6,28.3,45.6,28.3,45.6c-0.7-0.1-1.2-0.2-1.2-0.2c-0.3,0-0.5-0.3-0.4-0.6s0.3-0.5,0.6-0.4
		c0,0,0.4,0.1,1,0.1c0.3,0,0.5,0.3,0.4,0.6C28.8,45.4,28.6,45.6,28.3,45.6z"/>
	<path class="svg__w__color" d="M31.7,43.9C31.7,43.9,31.7,43.9,31.7,43.9c-0.2,0-0.3-0.1-0.3-0.3c-0.1-2.9-2.9-3.7-3-3.7
		c-0.1,0-0.2-0.2-0.2-0.3c0-0.1,0.1-0.2,0.2-0.3c2.6-0.3,2.9-3.4,2.9-3.6c0-0.1,0.1-0.3,0.3-0.3c0,0,0,0,0,0c0.1,0,0.3,0.1,0.3,0.3
		c0.3,3.2,2.8,3.7,2.9,3.7c0.1,0,0.2,0.1,0.2,0.3c0,0.1-0.1,0.3-0.2,0.3c-2.7,0.3-2.9,3.5-2.9,3.5C31.9,43.8,31.8,43.9,31.7,43.9z
		 M29.4,39.8c0.7,0.4,1.8,1.1,2.3,2.4c0.3-0.9,0.9-1.9,2.1-2.4c-0.7-0.4-1.7-1.1-2.2-2.6C31.3,38.1,30.7,39.3,29.4,39.8z"/>
	<path class="svg__blk__color" d="M28.5,28.8c-0.2,0-0.3-0.1-0.4-0.2c-0.1-0.2-0.1-0.5,0.2-0.7c1.4-0.9,4.3-2.1,7.9-1c0.3,0.1,0.4,0.4,0.3,0.6
		s-0.4,0.4-0.6,0.3c-3.1-0.9-5.6,0-7.1,0.9C28.7,28.8,28.6,28.8,28.5,28.8z"/>
	<path class="svg__blk__color" d="M51.8,28.6c-0.1,0-0.2,0-0.2-0.1c-1.5-0.8-3.8-1.6-6.7-0.7c-0.3,0.1-0.5-0.1-0.6-0.3c-0.1-0.3,0.1-0.5,0.3-0.6
		c3.2-1,5.9-0.1,7.5,0.8c0.2,0.1,0.3,0.4,0.2,0.7C52.2,28.5,52,28.6,51.8,28.6z"/>
	<path class="svg__blk__color" d="M45,35.8c-0.2,0-0.3-0.1-0.4-0.2c-0.1-0.2-0.1-0.5,0.2-0.7c0.3-0.2,0.7-0.4,1-0.5c0,0,1.9-1.2,4.2-0.9
		c2.9,0,4.9,1.4,5,1.4c0.2,0.2,0.3,0.5,0.1,0.7c-0.2,0.2-0.5,0.3-0.7,0.1c0,0-1.9-1.2-4.5-1.3c-2-0.2-3.6,0.8-3.6,0.8
		c-0.4,0.2-0.7,0.3-1,0.5C45.1,35.8,45.1,35.8,45,35.8z"/>
	<path class="svg__blk__color" d="M46.1,45.6C46.1,45.6,46,45.6,46.1,45.6c-0.4,0-0.7-0.1-1-0.2c-0.3,0-0.5-0.3-0.4-0.6c0-0.3,0.3-0.5,0.6-0.4
		c0.3,0.1,0.6,0.1,0.9,0.1c0.3,0,0.5,0.3,0.4,0.6C46.5,45.4,46.3,45.6,46.1,45.6z"/>
	<path class="svg__blk__color" d="M49.3,45.8c-1,0-2.1-0.1-3.3-0.2c-0.3,0-0.5-0.3-0.4-0.6c0-0.3,0.3-0.5,0.6-0.4c2.7,0.3,5.2,0.1,6.5,0
		c0.3,0,0.5,0.2,0.6,0.4c0,0.3-0.2,0.5-0.4,0.6C52,45.7,50.8,45.8,49.3,45.8z"/>
	<path class="svg__blk__color" d="M52.8,45.6c-0.3,0-0.5-0.2-0.5-0.4c0-0.3,0.2-0.5,0.4-0.6c0.6-0.1,1-0.1,1-0.1c0.3-0.1,0.5,0.1,0.6,0.4
		c0,0.3-0.1,0.5-0.4,0.6C53.9,45.4,53.5,45.5,52.8,45.6C52.8,45.6,52.8,45.6,52.8,45.6z"/>
	<path class="svg__w__color" d="M49.5,43.9c-0.2,0-0.3-0.1-0.3-0.3c0-0.1-0.1-3.2-2.9-3.5c-0.1,0-0.2-0.1-0.2-0.3c0-0.1,0.1-0.3,0.2-0.3
		c0.1,0,2.5-0.5,2.9-3.7c0-0.1,0.1-0.3,0.3-0.3c0,0,0,0,0,0c0.1,0,0.3,0.1,0.3,0.3c0,0.1,0.3,3.3,2.9,3.6c0.1,0,0.2,0.1,0.2,0.3
		c0,0.1-0.1,0.3-0.2,0.3c-0.1,0-2.9,0.8-3,3.7C49.7,43.8,49.6,43.9,49.5,43.9C49.5,43.9,49.5,43.9,49.5,43.9z M47.3,39.8
		c1.2,0.5,1.8,1.5,2.1,2.4c0.5-1.3,1.5-2,2.3-2.4c-1.3-0.5-1.9-1.7-2.3-2.6C49,38.7,48,39.4,47.3,39.8z"/>
	<g>
		<polyline class="svg__ong__color" points="99.5,55.7 86.8,70.6 76.4,61.8 89.2,46.9 		"/>
		<path class="svg__blk__color" d="M86.8,71.1c-0.1,0-0.2,0-0.3-0.1l-10.3-8.8c-0.1-0.1-0.2-0.2-0.2-0.3s0-0.3,0.1-0.4l12.7-14.9
			c0.2-0.2,0.5-0.2,0.7-0.1c0.2,0.2,0.2,0.5,0.1,0.7L77.1,61.7l9.6,8.2l12.4-14.5c0.2-0.2,0.5-0.2,0.7-0.1c0.2,0.2,0.2,0.5,0.1,0.7
			L87.1,70.9C87,71,86.9,71.1,86.8,71.1C86.8,71.1,86.8,71.1,86.8,71.1z"/>
	</g>
	<g>
		<line class="svg__ong__color" x1="89.2" y1="46.9" x2="99.5" y2="55.7"/>
		<path class="svg__blk__color" d="M99.5,56.2c-0.1,0-0.2,0-0.3-0.1l-10.3-8.8c-0.2-0.2-0.2-0.5-0.1-0.7c0.2-0.2,0.5-0.2,0.7-0.1l10.3,8.8
			c0.2,0.2,0.2,0.5,0.1,0.7C99.8,56.1,99.6,56.2,99.5,56.2z"/>
	</g>
</g>
</svg>
