<?xml version="1.0" encoding="utf-8"?>
<svg version="1.1" id="the-element-drive-tire-1" xmlns="http://www.w3.org/2000/svg" xmlns:xlink="http://www.w3.org/1999/xlink" x="0px"
	 y="0px" viewBox="0 0 275 117" style="enable-background:new 0 0 275 117;" xml:space="preserve">
<style type="text/css">
	.st0{fill:#FFF8EE;}
	.st1{fill:#231815;}
</style>
<g>
	<circle class="st0" cx="51.3" cy="101.8" r="14.5"/>
	<path class="st1" d="M51.3,117c-8.4,0-15.2-6.8-15.2-15.2c0-8.4,6.8-15.2,15.2-15.2c8.4,0,15.2,6.8,15.2,15.2
		C66.5,110.2,59.7,117,51.3,117z M51.3,88c-7.6,0-13.8,6.2-13.8,13.8c0,7.6,6.2,13.8,13.8,13.8c7.6,0,13.8-6.2,13.8-13.8
		C65.1,94.2,58.9,88,51.3,88z"/>
	<path class="st1" d="M51.3,96.4c-2.9,0-5.3,2.4-5.3,5.3c0,2.9,2.4,5.3,5.3,5.3c2.9,0,5.3-2.4,5.3-5.3
		C56.6,98.8,54.2,96.4,51.3,96.4z"/>
</g>
<g>
	<circle class="st0" cx="154.7" cy="101.8" r="14.5"/>
	<path class="st1" d="M154.7,117c-8.4,0-15.2-6.8-15.2-15.2c0-8.4,6.8-15.2,15.2-15.2c8.4,0,15.2,6.8,15.2,15.2
		C169.9,110.2,163.1,117,154.7,117z M154.7,88c-7.6,0-13.8,6.2-13.8,13.8c0,7.6,6.2,13.8,13.8,13.8c7.6,0,13.8-6.2,13.8-13.8
		C168.5,94.2,162.3,88,154.7,88z"/>
	<path class="st1" d="M154.7,96.4c-2.9,0-5.3,2.4-5.3,5.3c0,2.9,2.4,5.3,5.3,5.3s5.3-2.4,5.3-5.3C160.1,98.8,157.7,96.4,154.7,96.4z
		"/>
</g>
</svg>
