<?xml version="1.0" encoding="utf-8"?>
<svg version="1.1" id="the-ikastore-building-eye-left-1" xmlns="http://www.w3.org/2000/svg" xmlns:xlink="http://www.w3.org/1999/xlink" x="0px"
	 y="0px" viewBox="0 0 26 23" style="enable-background:new 0 0 26 23;" xml:space="preserve">
<style type="text/css">
	.st0{fill:#97D2CE;}
	.st1{fill:#231815;}
</style>
<path class="st0" d="M24.1,6.3c-3.4-5.6-10-6.9-15.7-4.6c0,0-8.9,2.7-7.5,13.1s14.1,7.6,18.5,5.4C23.8,18.1,27.5,11.9,24.1,6.3z"/>
<path class="st1" d="M10.3,23c-2,0-4.1-0.3-5.8-1.2c-2.5-1.3-4-3.6-4.4-6.9C-1.2,4.5,7.5,1.3,8.1,1.1C14.6-1.5,21.3,0.5,24.6,6
	c1.4,2.4,1.8,5.1,1,7.9c-0.9,3-3.2,5.6-5.9,7.1C17.6,21.9,14,23,10.3,23z M13.9,1.3c-1.8,0-3.6,0.4-5.2,1H8.6
	c-0.3,0.1-8.2,2.7-7,12.3c0.4,2.7,1.6,4.6,3.7,5.7c4.4,2.3,11.2,0.4,13.8-0.9c2.4-1.2,4.5-3.6,5.2-6.2c0.7-2.3,0.4-4.6-0.9-6.7
	C21.2,2.9,17.5,1.3,13.9,1.3z"/>
<path class="st1" d="M16.8,5.1C15,3.2,12,2.9,10.3,3.7C8.6,4.2,5.6,6.1,6,9.9c0.2,1.8,1.1,2.6,1.9,3c0.6,0.3,1.2,0.4,1.8,0.4
	c1.7,0,3.6-0.8,4.4-1.4c1.5-0.9,3.2-2.8,3.4-4.6C17.6,6.4,17.4,5.7,16.8,5.1z"/>
</svg>
