<?xml version="1.0" encoding="utf-8"?>
<svg version="1.1" id="the-ikastore-sign-1" xmlns="http://www.w3.org/2000/svg" xmlns:xlink="http://www.w3.org/1999/xlink"
	 x="0px" y="0px" viewBox="0 0 581 450" style="enable-background:new 0 0 581 450;" xml:space="preserve">
<style type="text/css">
	.st0{fill:#FFFFFF;}
</style>
<g>
	<g>
		<g>
			<path class="st0" d="M243.6,270.2c0,0.2,0.1,0.5,0.1,0.7c0.5-0.2,0.9-0.3,1.4-0.5c0.5-0.1,0.9-0.2,1.4-0.3
				c2.3-0.5,4.3-0.4,5.7,0.4c1.4,0.7,2.3,2,2.6,3.8s-0.1,3.4-1.2,4.7c-1.1,1.4-2.6,2.3-4.6,2.7c-0.3,0.1-0.5,0-0.7-0.1
				s-0.4-0.3-0.7-0.5c-0.2-0.1-0.3-0.3-0.5-0.4c-0.2-0.2-0.4-0.3-0.7-0.5c-0.3,0.3-0.6,0.5-0.8,0.7c-0.3,0.2-0.5,0.3-0.7,0.4
				c-0.2,0-0.3,0-0.5-0.1c-0.1-0.1-0.3-0.3-0.5-0.5c-0.4,0.4-0.9,0.8-1.4,1.1c-0.5,0.3-1,0.5-1.5,0.6c-0.8,0.2-1.3,0.2-1.7,0
				s-0.7-0.7-0.9-1.5c-0.1-0.1-0.2-0.2-0.4-0.3c-0.1-0.1-0.2-0.2-0.3-0.3c-0.4-0.3-0.7-0.6-0.9-0.8c-0.3-0.2-0.4-0.5-0.5-0.8
				c-0.2-0.9,0-1.8,0.6-2.9c0.7-1.2,1.9-2.2,3.4-3.2c-0.1-0.4-0.2-0.8-0.3-1.2c-0.9,0.3-1.8,0.7-2.7,1c-0.8,0.2-1.4,0.3-1.8,0.2
				c-0.4-0.1-0.7-0.3-0.8-0.7c0-0.1,0-0.3,0-0.5s0.1-0.4,0.2-0.7c0.1-0.3,0.2-0.5,0.3-0.8s0.3-0.6,0.5-1c0.2,0.1,0.4,0.1,0.6,0.1
				c0.2,0,0.4,0,0.6-0.1c0.1,0,0.1,0,0.1,0h0.1c0.7-0.2,1.5-0.5,2.2-0.7c-0.1-0.4-0.3-0.6-0.5-0.8c-0.2-0.1-0.6-0.2-1-0.2
				c0.3-0.3,0.6-0.7,0.9-0.9c0.3-0.3,0.5-0.5,0.8-0.8c0.2-0.2,0.4-0.4,0.6-0.5c0.2-0.1,0.4-0.2,0.6-0.3c0.6-0.2,1.3-0.1,1.9,0.1
				c0.6,0.2,1,0.5,1.1,0.8c0,0.1,0,0.3,0,0.5c-0.1,0.2-0.1,0.5-0.2,0.8c0.8-0.3,1.7-0.5,2.5-0.8c0.4-0.1,0.8-0.2,1-0.4
				c0.3-0.2,0.5-0.4,0.7-0.7c1.4,0,2.4,0.2,3.1,0.5c0.7,0.3,1.2,0.8,1.3,1.5c0.1,0.5,0,0.8-0.3,1.1c-0.3,0.3-0.7,0.5-1.3,0.6
				c-0.3,0.1-0.6,0.1-1,0.1s-0.8,0-1.2,0C246.6,269.2,245.1,269.7,243.6,270.2z M242.1,277.8c-0.2-0.4-0.4-0.7-0.5-1.1
				c-0.2-0.4-0.3-0.8-0.5-1.2c-0.7,0.6-1.2,1.3-1.5,1.9c-0.3,0.5-0.4,1-0.3,1.3c0,0.2,0.1,0.3,0.3,0.3c0.1,0.1,0.3,0.1,0.6,0
				c0.2,0,0.4-0.2,0.8-0.4C241.2,278.5,241.6,278.2,242.1,277.8z M245.9,273.4c-0.1-0.2-0.1-0.3-0.2-0.5c-0.3,0.1-0.5,0.2-0.8,0.3
				c-0.2,0.1-0.5,0.2-0.7,0.3c0.1,0.3,0.2,0.6,0.3,0.9s0.2,0.6,0.4,1c0.2-0.2,0.3-0.4,0.5-0.6c0.1-0.2,0.3-0.5,0.4-0.7
				c0.1-0.1,0.1-0.2,0.1-0.3C245.9,273.6,245.9,273.5,245.9,273.4z M246.3,277.9c0.1,0.2,0.2,0.4,0.4,0.5c0.1,0,0.3,0,0.4-0.1
				c0.1,0,0.3,0,0.4-0.1c1.1-0.2,2-0.7,2.5-1.4c0.6-0.7,0.8-1.5,0.6-2.3c-0.1-0.6-0.4-1.1-1-1.4c-0.5-0.4-1.3-0.5-2.2-0.5
				c0.3,0.3,0.5,0.5,0.7,0.7s0.3,0.4,0.3,0.7c0.1,0.5-0.1,1-0.5,1.7C247.8,276.3,247.2,277,246.3,277.9z"/>
			<path class="st0" d="M262,264.3c0-0.2-0.1-0.5-0.1-0.7c-0.1-0.4-0.1-0.7-0.3-0.8c-0.1-0.1-0.4-0.2-0.8-0.1c0.5-0.8,1-1.3,1.5-1.7
				c0.5-0.4,0.9-0.6,1.4-0.7c0.7-0.1,1.4,0,2.1,0.2c0.6,0.2,1,0.5,1,0.8c0,0.2,0,0.4-0.2,0.7c-0.1,0.3-0.2,0.7-0.2,1.1
				c0.5-0.2,1-0.4,1.3-0.5c0.3-0.2,0.5-0.4,0.6-0.6c1,0.1,1.9,0.2,2.5,0.4c0.6,0.2,1,0.6,1,1.3c0,0.4-0.1,0.8-0.3,1.1
				c-0.3,0.3-0.7,0.6-1.2,0.8c-0.7,0.3-1.4,0.6-2.1,0.8c-0.7,0.2-1.4,0.5-2.1,0.6c-0.5,4.7-0.9,7.7-1.3,9.2
				c-0.5,1.6-1.2,2.5-2.3,2.7c-0.5,0.1-0.9-0.1-1.2-0.4c-0.4-0.4-0.6-1-0.7-1.8c-0.1-0.7-0.2-1.3-0.3-2c0.4-0.2,0.7-0.8,1-1.9
				c0.2-1,0.5-2.5,0.7-4.6c-0.6,0.1-1.2,0.3-1.8,0.4c-0.7,0.1-1.2,0.1-1.7-0.1c-0.4-0.2-0.6-0.4-0.7-0.8c0-0.2,0-0.5,0.2-0.9
				s0.4-0.8,0.7-1.4c0.1-0.2,0.1-0.3,0.2-0.5s0.2-0.4,0.3-0.5c0.1,0.2,0.2,0.4,0.4,0.5c0.2,0.1,0.5,0.1,0.8,0
				C260.9,264.5,261.5,264.4,262,264.3z M274.6,269c-0.3,0-0.6,0.1-0.9,0.1c-1.1,0.3-2.1,0.8-2.9,1.4c-0.7,0.6-1.1,1.2-1,1.7
				c0,0.3,0.3,0.5,0.7,0.7c0.5,0.2,1.1,0.2,1.9,0.1c0.7-0.1,1.3-0.2,1.8-0.3c0.4-0.1,0.8-0.3,1-0.4c1,0.1,1.8,0.3,2.4,0.7
				c0.6,0.4,0.9,0.9,0.9,1.5c0,0.7-0.3,1.3-1,1.7c-0.7,0.4-1.8,0.6-3.3,0.7c-1.9,0.2-3.4,0-4.5-0.6c-1.1-0.5-1.7-1.3-1.8-2.4
				c-0.1-1.1,0.2-2.1,1-3.1s2-1.9,3.7-2.7c-0.3-0.2-0.6-0.4-1-0.5s-0.8-0.1-1.3-0.1c-0.4,0-0.9,0.1-1.3,0.3
				c-0.5,0.1-0.9,0.3-1.4,0.5c1-1.2,2-2.1,3-2.8c1-0.6,2-1,3.1-1.1c1.2-0.1,2.2,0.1,2.9,0.5c0.8,0.5,1.2,1.1,1.2,1.9
				c0,0.5-0.1,1-0.4,1.3s-0.7,0.5-1.2,0.6c-0.2,0-0.4,0-0.6,0C275.2,269,274.9,269,274.6,269z"/>
			<path class="st0" d="M289,267.5c0,0.5,0.1,1.1,0.1,1.6c0,0.6-0.2,1.1-0.5,1.5c-0.4,0.4-0.8,0.5-1.4,0.6c-0.9,0-1.6-0.3-2.4-1.1
				c-0.7-0.7-1.1-1.7-1.2-2.9c0-0.9,0.2-2.1,0.8-3.6c0.4-1,0.5-1.6,0.5-2c0-0.3-0.1-0.5-0.3-0.7c-0.2-0.2-0.5-0.3-0.8-0.4
				c0.6-0.4,1.1-0.7,1.5-1c0.5-0.2,0.9-0.3,1.3-0.3c0.6,0,1.2,0.2,1.7,0.7s0.8,1,0.8,1.6c0,0.5-0.1,0.9-0.3,1.2
				c-0.2,0.4-0.5,0.7-0.8,1.1c-0.2,0.3-0.4,0.5-0.6,0.7s-0.3,0.4-0.4,0.6s-0.2,0.4-0.3,0.5c-0.1,0.2-0.1,0.3-0.1,0.4
				c0,0.2,0.1,0.5,0.2,0.6c0.2,0.2,0.3,0.3,0.5,0.3c0.1,0,0.3-0.1,0.4-0.2s0.3-0.3,0.4-0.6c0.8-1.7,1.6-2.9,2.6-3.8
				c1-0.8,2-1.2,3.2-1.2c1.3,0,2.3,0.6,3,1.9c0.8,1.3,1.1,3.1,1,5.3c-0.1,2.8-1,4.9-2.5,6.4c-1.6,1.4-3.6,2.1-6,2.1
				c-0.7,0-1.2-0.1-1.6-0.2c-0.3-0.1-0.7-0.4-1-0.9l-0.1-0.1c0,0,0-0.1-0.1-0.1c-0.1-0.2-0.3-0.5-0.6-0.8c-0.3-0.3-0.6-0.7-1.2-1
				c0.4,0.1,0.8,0.1,1.2,0.1c0.4,0,0.7,0,1,0c2,0,3.6-0.5,4.8-1.5c1.1-0.9,1.7-2.5,1.8-4.8c0-1.4-0.1-2.5-0.4-3.1s-0.7-1-1.3-1
				c-0.6,0-1.2,0.3-1.8,0.8c-0.6,0.5-1,1.3-1.3,2.2c0,0.2-0.1,0.4-0.1,0.6C289,267.1,289,267.3,289,267.5z"/>
			<path class="st0" d="M305,263.4c-0.2,0-0.4,0-0.5,0c0.4-0.8,0.9-1.4,1.5-1.8s1.2-0.6,1.8-0.5c0.6,0,1,0.3,1.3,0.8
				c0.3,0.4,0.5,1.1,0.7,2.1c0.4-0.2,0.9-0.3,1.3-0.4c0.5-0.1,0.9-0.2,1.4-0.2c0.1-0.6,0-1.1-0.1-1.4c-0.2-0.3-0.6-0.5-1.2-0.5
				c0.7-0.5,1.3-0.9,1.9-1.2c0.6-0.2,1.1-0.3,1.7-0.3c0.6,0.1,1.1,0.3,1.5,0.7c0.4,0.4,0.6,0.9,0.5,1.5c-0.1,0.4-0.1,0.8-0.2,1.2
				c2.2,0.4,3.9,1.4,5,2.8c1.1,1.5,1.4,3.2,1.1,5.3c-0.2,1.4-0.7,2.5-1.4,3.5c-0.7,0.9-1.7,1.7-2.9,2.2c-0.6,0.3-1.4,0.5-2.1,0.6
				c-0.8,0.1-1.5,0.2-2.1,0.1s-1-0.2-1.3-0.5c-0.3-0.2-0.5-0.6-0.6-1v-0.1v-0.1c0-0.2-0.1-0.5-0.2-0.7c-0.1-0.3-0.3-0.6-0.6-0.9
				c-0.8,0.7-1.6,1.1-2.3,1.5c-0.7,0.3-1.3,0.4-1.8,0.4c-0.4,0-0.8-0.2-1.1-0.4c-0.3-0.2-0.5-0.5-0.7-0.9c-0.1-0.1-0.1-0.4-0.2-0.8
				s-0.2-0.7-0.3-1.1c-0.6-0.6-1-1.2-1.3-1.6c-0.3-0.5-0.4-1-0.4-1.4c0-0.7,0.3-1.5,0.9-2.3s1.4-1.6,2.4-2.3
				c-0.3-0.8-0.5-1.4-0.7-1.7C305.6,263.7,305.3,263.5,305,263.4z M307.6,268.4c-0.4,0.4-0.7,0.8-0.9,1.2c-0.2,0.4-0.3,0.9-0.4,1.4
				c0,0.5,0.1,1,0.3,1.3c0.2,0.3,0.5,0.5,0.7,0.5s0.5-0.1,0.8-0.4s0.7-0.7,1.2-1.2c-0.3-0.4-0.7-0.9-0.9-1.4
				C308,269.5,307.8,269,307.6,268.4z M312.2,266.3c-0.3,0-0.6,0.1-0.9,0.2s-0.6,0.1-0.9,0.2c0.1,0.5,0.2,0.9,0.4,1.3
				c0.2,0.4,0.4,0.7,0.6,1c0.2-0.5,0.4-0.9,0.5-1.3C312,267.2,312.1,266.8,312.2,266.3z M312.4,273.7c-0.1,0.1-0.3,0.3-0.4,0.4
				c0.3,0,0.6,0.1,1,0.1c1.7,0.2,3.1,0,4.1-0.7c1-0.6,1.6-1.6,1.7-2.8c0.1-0.9-0.1-1.8-0.6-2.6c-0.5-0.8-1.2-1.3-2.2-1.6
				c-0.3,1-0.5,1.9-0.9,2.8c-0.3,0.9-0.7,1.6-1.1,2.3c0.2,0.1,0.3,0.1,0.4,0.2c0.1,0,0.1,0.1,0.1,0.2c-0.1,0.5-0.3,1-0.7,1.4
				c-0.4,0.4-0.7,0.6-0.9,0.6C312.7,273.8,312.6,273.8,312.4,273.7z"/>
			<path class="st0" d="M335,277c-1,0.7-1.9,1.3-2.8,1.6c-0.8,0.3-1.6,0.4-2.2,0.3c-0.7-0.1-1.2-0.5-1.6-1.1s-0.6-1.4-0.8-2.5
				c-0.3-0.9-0.5-1.7-0.7-2.4c-0.2-0.7-0.2-1.4-0.1-2c0.2-1.3,0.9-2.4,2-3.4s2.6-1.8,4.4-2.2c0.8-0.2,1.7-0.3,2.7-0.3
				s2.1,0.1,3.1,0.4c2.7,0.6,4.6,1.9,5.9,3.8c1.2,1.9,1.5,4,0.9,6.3c-0.6,2.2-1.7,3.7-3.4,4.8c-1.7,1-3.5,1.3-5.5,0.8
				c-0.5-0.1-0.9-0.3-1.2-0.5c-0.3-0.2-0.4-0.5-0.4-0.8c0,0,0-0.1,0-0.3C335.2,278.6,335.2,277.8,335,277z M337.5,274.2
				c-0.3,0.4-0.6,0.8-0.9,1.2c-0.3,0.4-0.6,0.7-0.9,1c0.2,0.2,0.5,0.3,0.7,0.4s0.5,0.2,0.7,0.2c1,0.2,2,0.1,2.8-0.3
				c0.8-0.5,1.4-1.5,1.8-3s0.2-2.7-0.6-3.7c-0.8-1-1.9-1.6-3.3-2c-1-0.2-2-0.2-3-0.1c-1,0.2-1.9,0.6-2.7,1.1c-0.6,0.5-1.2,1-1.6,1.5
				c-0.4,0.6-0.6,1.1-0.7,1.7s-0.1,1.1,0.1,1.6c0.2,0.4,0.5,0.7,0.8,0.7c0.2,0,0.5,0,0.9-0.2s0.8-0.4,1.1-0.8c0.5-0.6,1-1.1,1.3-1.7
				c0.3-0.5,0.5-1,0.6-1.4c0.1-0.3,0-0.5-0.1-0.6c-0.1-0.2-0.4-0.3-0.8-0.5c0.7-0.3,1.4-0.5,2-0.6s1.1-0.1,1.6,0
				c0.7,0.2,1.2,0.6,1.7,1.2c0.5,0.7,0.6,1.2,0.5,1.6c0,0.2-0.3,0.4-0.7,0.8C338.2,273.2,337.8,273.8,337.5,274.2z"/>
		</g>
	</g>
	<g>
		<g>
			<path class="st0" d="M215,320.4c-0.2-0.7-0.4-1.3-0.6-2c0.7-0.1,1.4-0.6,1.9-1.7c0.5-1,1-2.6,1.4-4.6c0.3-1.5,0.5-2.8,0.5-4
				c0.1-1.1,0-1.9-0.1-2.5c-0.1-0.5-0.3-0.8-0.6-1s-0.7-0.3-1.4-0.3c0.8-1.1,1.6-1.9,2.3-2.4c0.7-0.6,1.4-1,2.2-1.1
				c1.1-0.2,2.3,0,3.6,0.7s2.1,1.4,2.2,2.3c0.1,0.4,0.1,0.7,0,1.2c0,0.4-0.1,0.8-0.3,1.3c-0.2,6.2-1,10.9-2.3,14.3
				c-1.3,3.5-3.2,5.4-5.8,6c-0.7,0.2-1.4,0.1-1.9-0.2c-0.5-0.3-0.8-0.8-1-1.4c-0.1-0.3-0.1-0.9-0.1-1.7
				C215.2,321.9,215.1,321.1,215,320.4z M240.1,319.3c0-0.5,0-1-0.1-1.5c-0.2-1-0.7-2.7-1.8-5.1c-1.4-3.1-3.2-6.4-5.4-9.7
				c-1.1-1.6-2.1-2.9-2.9-3.8c-0.9-0.9-1.9-1.4-3.2-1.4c0.9-1.3,1.8-2.4,2.7-3.1c0.9-0.8,1.9-1.2,2.9-1.4c1.7-0.3,3.3,0.4,4.9,2
				c1.1,1.1,2.9,3.5,5.1,7.2c2,3.3,3.6,6.3,4.7,9c1,2.3,1.6,4,1.7,5.2c0.2,1.4,0,2.6-0.6,3.6c-0.5,1-1.2,1.5-2,1.6
				c-0.3,0-0.7,0-1.1-0.1c-0.4-0.1-0.9-0.3-1.4-0.5s-1.1-0.5-1.7-0.8C241.5,320.1,240.8,319.7,240.1,319.3z"/>
			<path class="st0" d="M255,312.5c-0.5-5.2-1-10.3-1.5-15.5c0-0.6-0.2-1.1-0.7-1.4s-1.3-0.5-2.3-0.7c1.3-1.7,2.4-2.9,3.2-3.6
				c1-0.9,1.9-1.3,2.8-1.4c1.5-0.1,3,0.3,4.6,1.2c1.6,0.9,2.4,1.9,2.5,2.8c0,0.4-0.1,0.9-0.4,1.4s-0.7,1.2-1.2,1.9
				c0.4,5.3,0.8,10.5,1.2,15.8c3.8-1,7.1-2.9,9.9-5.8c2.5-2.6,3.8-5,3.7-7.3c0-0.3-0.1-0.6-0.1-0.9c-0.1-0.3-0.2-0.7-0.3-1.2
				c1.2,0.1,2.3,0.3,3.5,0.4c1.1,0.1,2,0.5,2.9,1.3s1.3,2,1.4,3.7c0,1.8-0.6,3.8-1.9,6c-1.3,2.4-3.2,4.5-5.5,6.4
				c-1.7,1.5-3.7,2.7-5.9,3.8c-2.2,1.1-4.6,1.9-7.3,2.7c-0.3,0.6-0.6,1-0.9,1.3s-0.7,0.4-1.1,0.5c-0.5,0-1-0.1-1.6-0.4
				c-0.6-0.4-1.3-0.9-2-1.7c-1.1-1-2-2-2.6-3c-0.5-0.8-0.8-1.5-0.9-2c0-0.3,0.1-0.7,0.4-1.2c0.3-0.5,0.4-1.3,0.3-2.3
				c0-0.1,0-0.2,0-0.3C255,312.7,255,312.6,255,312.5z"/>
			<path class="st0" d="M298.4,303.8c0.1-3,0.2-6.1,0.3-9.1c0-0.9-0.1-1.5-0.5-2c-0.3-0.5-0.8-0.8-1.5-0.8c1.2-1.2,2.3-2.1,3.3-2.7
				s1.9-0.9,2.7-0.9c1.1,0,2.3,0.5,3.4,1.4c1.2,0.9,1.7,1.7,1.7,2.5c0,0.3-0.2,0.8-0.5,1.3c-0.3,0.6-0.5,1.3-0.5,2.3
				c-0.1,2.6-0.3,5.2-0.4,7.9c-0.1,1.7-0.4,3-1.1,3.9s-1.5,1.3-2.4,1.3c-1.1,0-2.1-0.6-3.2-1.5c-1-0.9-1.5-1.8-1.5-2.5
				c0-0.1,0-0.3,0.1-0.4C298.4,304.2,298.4,304,298.4,303.8z M315.6,303.4c0.2-2.5,0.4-4.9,0.6-7.4c0.2-1,0-1.8-0.4-2.4
				c-0.5-0.6-1.3-1.1-2.5-1.5c1.8-1.3,3.2-2.3,4.1-2.8c1.1-0.7,2-1,2.6-0.9c1.1,0.1,2.4,0.8,3.8,2s2,2.3,1.9,3.2
				c0,0.4-0.3,0.9-0.7,1.4c-0.4,0.5-0.6,1.1-0.7,1.9c-0.2,2.2-0.4,4.5-0.7,6.7c0,0.3-0.1,0.7-0.1,1s0,0.7-0.1,1
				c-0.6,6.2-2.5,10.9-5.5,14.1s-6.6,4.6-10.9,4.4c-1.6-0.1-2.5-0.4-2.9-1.1c-0.3-0.6-0.6-1.4-0.7-2.3c0-0.1,0-0.3,0-0.4
				s0-0.3,0-0.4c-0.2-1-0.5-1.9-1-2.7c-0.5-0.8-1.2-1.6-2-2.2c0.6,0.2,1.2,0.3,1.9,0.4c0.6,0.1,1.3,0.1,2,0.2
				c3.8,0.2,6.5-0.6,8.3-2.5C314.4,311.1,315.4,307.9,315.6,303.4z"/>
			<path class="st0" d="M359.3,315.8c-6.5-1.3-13-2.3-19.5-3.2c-0.8-0.2-1.8-0.2-3,0.1c-0.5,0.1-0.9,0.2-1.1,0.1
				c-1.2-0.2-2.5-0.8-3.9-1.9s-2-2.1-1.9-3s0.7-1.8,1.7-2.8c0.8-0.7,2.2-1.8,4.4-3.2c0,0.8,0.2,1.3,0.6,1.7c0.4,0.3,1,0.6,1.9,0.6
				c7.3,0.9,14.7,2,22,3.4c1.4,0.1,2.5,0.8,3.3,2.1c0.8,1.3,1,2.6,0.7,3.9c-0.2,1.1-0.8,1.8-1.5,2.3c-0.8,0.4-1.8,0.5-3.1,0.2
				c-0.1,0-0.2,0-0.3-0.1C359.5,315.9,359.4,315.9,359.3,315.8z"/>
		</g>
	</g>
</g>
</svg>
