<?xml version="1.0" encoding="utf-8"?>
<svg version="1.1" id="the-ikastore-building-parts-2"
	 xmlns="http://www.w3.org/2000/svg" xmlns:xlink="http://www.w3.org/1999/xlink" x="0px" y="0px" viewBox="0 0 581 450"
	 style="enable-background:new 0 0 581 450;" xml:space="preserve">
<style type="text/css">
	.st0{fill:#F0785F;}
	.st1{fill:#97D2CE;}
	.st2{fill:#231815;}
</style>
<path class="st0" d="M408.2,205.6h5.4l141.2,67.8L542.4,450c0,0-133.5,0-134.2,0C409.2,450,408.2,205.6,408.2,205.6z"/>
<polygon class="st1" points="452.2,299.7 474.1,305.1 470.2,263.7 445.1,254.4 "/>
<polygon class="st1" points="480.5,306.7 499.1,311.3 498.2,274.1 477.3,266.3 "/>
<polygon class="st1" points="504.5,312.7 520.5,316.6 521.8,282.8 504.2,276.3 "/>
<polygon class="st1" points="525.1,317.8 539,321.2 541.9,290.3 526.9,284.7 "/>
<g>
	<path class="st2" d="M444.2,253.2l7.3,46.9l23.4,5.9l-4.1-42.9L444.2,253.2z M452.8,299.1l-6.8-43.7l23.5,8.8l3.8,40L452.8,299.1z"
		/>
	<path class="st2" d="M476.6,265.3l3.3,41.9l19.9,5l-0.9-38.6L476.6,265.3z M481.2,306.1l-3-38.8l19.3,7.3l0.9,35.8L481.2,306.1z"/>
	<path class="st2" d="M503.8,313.2l17.3,4.3l1.4-35.1l-19-7.1L503.8,313.2z M521.1,283.3l-1.3,32.4l-14.6-3.6l-0.3-34.8L521.1,283.3
		z"/>
	<path class="st2" d="M526.3,283.8l-1.8,34.6l15.1,3.7l3.1-32.2L526.3,283.8z M538.4,320.3l-12.5-3.1l1.7-31.5l13.6,5.1L538.4,320.3
		z"/>
	<polygon class="st2" points="413.9,204.9 413.8,204.8 408.2,204.8 408.2,206.2 413.4,206.2 554.2,273.8 541.7,450 542.4,450 
		543.1,450 555.6,273.5 555.6,273 	"/>
</g>
</svg>
