<?xml version="1.0" encoding="utf-8"?>
<svg version="1.1" id="the-element-baloon-1" xmlns="http://www.w3.org/2000/svg" xmlns:xlink="http://www.w3.org/1999/xlink" x="0px"
	 y="0px" viewBox="0 0 45 84" style="enable-background:new 0 0 45 84;" xml:space="preserve">
<style type="text/css">
	.st0{fill:#EE795E;}
	.st1{fill:#F4B2B7;}
	.st2{fill:#FFFFFF;}
	.st3{fill:#97D2CE;}
	.st4{fill:#231815;}
</style>
<g>
	<g>
		<g>
			<path class="st0" d="M44.3,25c0-13.4-9.7-24.3-21.8-24.3c-9.2,0-17.1,6.4-20.3,15.4c-0.5,1.4-0.9,3-1.1,4.5c0,0,0,0,0,0.1
				c0,0,0,0.1,0,0.1c0,0,0,0,0,0c-0.2,1.4-0.3,2.8-0.3,4.2c0,0.8,0,1.6,0.1,2.3c0,0,0,0,0,0c0.1,1.1,0.2,2.2,0.5,3.2h0
				c0.5,2.2,1.2,4.3,2.2,6.2c0.4,0.8,0.9,1.6,1.3,2.4c0.5,0.7,1,1.4,1.5,2.1c4,5,9.8,8.1,16.2,8.1C34.6,49.4,44.3,38.5,44.3,25z"/>
			<polygon class="st0" points="22.2,53.2 25.2,53.2 22.5,49.4 19.2,53.2 			"/>
		</g>
		<path class="st1" d="M4.8,39.2c-0.5-0.8-0.9-1.5-1.3-2.4c0,0,7-0.2,9.1-0.2s3.2,0.8,3.4,2.2c0.2,1.4-2.1,2.2-3.4,2.3
			c-1.3,0.1-6.3,0.1-6.3,0.1C5.8,40.6,5.3,39.9,4.8,39.2z"/>
		<path class="st2" d="M17.1,23.4c0-2.5-2-4.1-4.5-5.2c-1.1-0.5-2.4-0.9-3.6-1.1c-0.8-0.2-1.6-0.3-2.3-0.4c-0.4-0.1-0.9-0.1-1.3-0.2
			v0c-1.9-0.2-3.2-0.3-3.2-0.3h0c-0.5,1.4-0.9,3-1.1,4.5c0,0,0,0,0,0.1c0,0,0,0.1,0,0.1c0,0,0,0,0,0c-0.2,1.4-0.3,2.8-0.3,4.2
			c0,0.8,0,1.6,0.1,2.3c0,0,0,0,0,0c0.1,1.1,0.2,2.2,0.5,3.2h0c2.2,0.1,4.1,0.1,5.8,0C18,29.6,17.1,23.4,17.1,23.4z"/>
		<path class="st3" d="M6.7,16.6c-0.4-0.1-0.9-0.1-1.3-0.2v0c-1.9-0.2-3.2-0.3-3.2-0.3h0c-0.5,1.4-0.9,3-1.1,4.5c0,0,0,0,0,0.1
			c0,0,0,0.1,0,0.1c0,0,0,0,0,0c-0.2,1.4-0.3,2.8-0.3,4.2c0,0.8,0,1.6,0.1,2.3c0,0,0,0,0,0c0.1,1.1,0.2,2.2,0.5,3.2h0
			c2.2,0.1,4.1,0.1,5.8,0C9.7,22.3,6.7,16.6,6.7,16.6z"/>
	</g>
	<path class="st4" d="M45,25C45,11.3,34.9,0,22.5,0C13.2,0,5,6.3,1.6,15.9c-0.5,1.5-0.9,3.1-1.2,4.7c0,0,0,0,0,0c0,0,0,0,0,0
		c0,0.1-0.7,3.6-0.2,6.9c0.1,1.1,0.3,2.2,0.5,3.3c0,0,0,0,0,0c0.5,2.2,1.2,4.4,2.2,6.4c0.4,0.8,0.9,1.6,1.4,2.4
		c0.5,0.8,1,1.5,1.5,2.1c3.9,4.9,9.4,7.8,15.3,8.3l-2.4,2.7c-0.2,0.2-0.2,0.5-0.1,0.7c0.1,0.2,0.4,0.4,0.6,0.4h2.3
		c0.1,3.5,0.4,20.5-4.5,29c-0.2,0.3-0.1,0.8,0.3,1c0.1,0.1,0.2,0.1,0.3,0.1c0.2,0,0.5-0.1,0.6-0.4c5.1-8.9,4.8-25.9,4.7-29.7h2.3
		c0.3,0,0.5-0.1,0.6-0.4c0.1-0.2,0.1-0.5-0.1-0.7l-2-2.8C35.6,49.3,45,38.4,45,25z M8.8,17.7c1.3,0.3,2.5,0.7,3.5,1.1c0,0,0,0,0,0
		c0,0,0,0,0,0c2.7,1.2,4,2.7,4,4.6c0,0,0,0.1,0,0.1c0,0.1,0.2,1.5-1,3.1c-1.3,1.7-3.8,2.7-7.3,3.2C9.6,24,8.6,19.6,7.9,17.5
		C8.2,17.6,8.5,17.6,8.8,17.7z M5.3,17.1C5.3,17.1,5.4,17.1,5.3,17.1c0.3,0,0.6,0.1,0.9,0.1c0.5,1.2,2.2,6.1,0.4,12.7
		c-1.4,0.1-3,0.1-4.7,0c-0.2-0.8-0.3-1.7-0.4-2.6c0,0,0,0,0,0c0.9-0.2,2.5-1,2.5-3.1c0-2.1-1.4-3-2.2-3.3l0,0c0,0,0,0,0,0
		c0,0,0,0,0,0c0.2-1.3,0.5-2.6,1-3.9C3.3,16.9,4.2,17,5.3,17.1z M6.7,40.6c-0.2-0.2-0.4-0.5-0.6-0.7c2.4-0.1,5.8-0.2,6.5-0.2
		c0.4,0,0.7-0.3,0.7-0.7c0-0.4-0.3-0.7-0.7-0.7c-0.9,0-5.9,0.2-7.4,0.2c-0.2-0.3-0.4-0.7-0.6-1c2.1-0.1,6.4-0.2,8-0.2
		c2.2,0,2.6,0.8,2.7,1.6c0,0.1,0,0.3-0.2,0.5c-0.5,0.6-1.7,1-2.6,1.1C11.5,40.6,7.8,40.6,6.7,40.6z M20.7,52.5l1.7-2l1.4,2H20.7z
		 M22.5,48.7c-5.5,0-10.7-2.4-14.7-6.7c1.6,0,4,0,4.8-0.1c0.9-0.1,2.6-0.5,3.5-1.6c0.4-0.5,0.5-1,0.5-1.5c-0.1-1.3-1-2.8-4.1-2.8
		c-1.8,0-7.1,0.1-8.7,0.2c-0.7-1.5-1.3-3.1-1.7-4.8c0.6,0,1.2,0,1.8,0c1.1,0,2.2,0,3.2-0.1c4.5-0.4,7.6-1.7,9.3-3.9
		c1.4-1.8,1.3-3.7,1.3-4c0-2.3-1.4-4.1-4.3-5.5l0.7-1.7c0.2-0.4,0-0.8-0.4-0.9c-0.4-0.2-0.8,0-0.9,0.4l-0.7,1.7
		c-0.7-0.3-1.5-0.5-2.4-0.8l0.4-2.2c0.1-0.4-0.2-0.7-0.6-0.8c-0.4-0.1-0.7,0.2-0.8,0.6l-0.4,2.1c-0.5-0.1-1.1-0.2-1.6-0.3
		c-0.2,0-0.4-0.1-0.6-0.1l0.2-2.1c0-0.4-0.3-0.7-0.6-0.8c-0.4,0-0.7,0.3-0.8,0.6l-0.1,2c-0.6-0.1-1.1-0.1-1.5-0.1
		C6.6,6.9,14.1,1.4,22.5,1.4C34.1,1.4,43.6,12,43.6,25C43.6,38.1,34.1,48.7,22.5,48.7z"/>
</g>
</svg>
