<?xml version="1.0" encoding="utf-8"?>
<svg version="1.1" id="the-main-logo-1" xmlns="http://www.w3.org/2000/svg" xmlns:xlink="http://www.w3.org/1999/xlink" x="0px"
	 y="0px" viewBox="0 0 405 216" style="enable-background:new 0 0 405 216;" xml:space="preserve">
<style type="text/css">
	.svg__m__color{fill:#14195A;}
	.svg__pnk__color {fill: #e64673;}
	.svg__ong__color {fill: #f0785f;}
	.svg__grn__color {fill: #96d2cd;}
	.svg__mlgt__color {fill: #fff8ee;}
	.svg__blk__color {fill: #000000;}
	.svg__skin__color{fill:#f5afb4;}
	.svg__w__color{fill:#ffffff;}
</style>
<g>
	<path class="svg__m__color usesvg_mlogo usesvg_mlogo_jp usesvg_mlogo_jp_1" d="M70.9,47.3c0-6.9-2.3-12.1-6.8-15.9c-4.5-3.7-11-5.6-19.3-5.6c-1.6,0-3.2,0.1-4.9,0.2
		c-1.7,0.1-3.4,0.3-5.1,0.6L35,24l16.6-1.8c1.5,0.4,2.8,0.8,4.1,1c1.2,0.3,2.4,0.4,3.3,0.4c2.1,0,3.7-0.5,4.8-1.4
		c1.1-0.9,1.7-2.3,1.7-4c0-2.6-1.1-4.7-3.4-6.5c-2.2-1.6-5.6-3-10.2-4.1c-0.8,0.9-1.7,1.7-2.7,2.2c-1.1,0.5-2.3,0.8-3.8,0.8
		l-9.1,0.8c0.5-1.1,0.9-2.1,1.2-2.8c0.3-0.7,0.5-1.3,0.5-1.7c0-1.2-1-2.5-2.9-3.8c-2-1.3-4.1-2-6.3-2c-0.7,0-1.4,0.2-2.1,0.5
		c-0.7,0.3-1.6,0.8-2.5,1.3c-0.9,0.6-2,1.3-3.1,2.1c-1.1,0.8-2.3,1.7-3.6,2.7c1.4,0.3,2.5,0.9,3.2,1.6c0.7,0.8,1.1,1.9,1.2,3.3
		l-7.9,0.7c-0.2,0-0.3,0-0.5,0c-0.2,0-0.4,0-0.5,0c-0.7,0-1.3-0.1-2-0.3c-0.6-0.2-1.3-0.5-1.8-0.8c-0.9,1.2-1.7,2.3-2.4,3.2
		C6,16.3,5.4,17.2,4.8,18c-0.5,0.8-0.9,1.5-1.2,2.2c-0.3,0.7-0.4,1.3-0.4,1.8c0,1.5,0.7,2.7,2.1,3.4c1.3,0.7,3.5,1,6.4,1l10-1.1V30
		c-6.1,2.2-10.9,5-14.4,8.5c-3.3,3.3-4.9,6.6-4.9,10c0,1.1,0.3,2.2,1,3.3c0.6,1.1,1.5,2.3,2.5,3.8c0.3,0.5,0.6,0.9,0.9,1.3
		c0.3,0.4,0.7,0.9,1,1.3c0.1,3.1,0.7,5.2,1.9,6.4s3.2,1.7,6.1,1.7c1.9,0,3.8-0.3,5.8-1c1.9-0.6,3.8-1.6,5.8-2.8
		c0.4,1,0.8,1.7,1.2,2.2c0.4,0.4,1,0.7,1.6,0.7c0.8,0,1.7-0.2,2.8-0.7c1.1-0.5,2.3-1.1,3.6-2c0.8,0.8,1.5,1.6,2.1,2.3
		c0.6,0.7,1.1,1.4,1.6,2.1c0.8,1,1.5,1.9,2.1,2.5c0.6,0.6,1.5,0.9,2.6,0.9c7.3,0,13.5-2.2,18.5-6.5C68.4,59.6,70.9,54.1,70.9,47.3z
		 M19,52.6c-1.3,0.5-2.3,0.7-3,0.7c-0.9,0-1.6-0.2-2.1-0.5c-0.5-0.4-0.7-0.9-0.7-1.5c0-1.2,0.7-2.7,2.2-4.4c1.6-1.9,3.8-3.7,6.7-5.4
		c0.2,1.6,0.3,3.2,0.6,4.7c0.2,1.5,0.5,3,0.9,4.5C21.6,51.6,20,52.2,19,52.6z M35.5,43.9c-0.3-1.4-0.4-2.7-0.6-3.9
		c-0.1-1.2-0.2-2.4-0.2-3.6c0.8-0.2,1.6-0.4,2.5-0.5c0.9-0.1,1.8-0.2,2.8-0.3l0.4,2c0,0.4-0.1,0.8-0.2,1.1c-0.2,0.4-0.4,0.8-0.7,1.1
		c-0.6,0.9-1.3,1.7-2,2.3C36.9,42.8,36.2,43.4,35.5,43.9z M52.6,53.6c-2.5,2.1-5.8,3.2-10,3.2c-0.5,0-1.1,0-1.6-0.1
		c-0.5,0-1.1-0.1-1.6-0.1l-0.9-2.3c3.7-2.5,6.3-4.7,7.9-6.5c1.9-2,2.8-4,2.8-5.8c0-0.9-0.2-1.8-0.7-2.7c-0.4-0.9-1.1-2-1.8-3.2
		c3.1,0.7,5.5,1.9,7.1,3.6c1.6,1.7,2.5,3.7,2.5,6C56.4,48.9,55.1,51.5,52.6,53.6z"/>
	<path class="svg__m__color usesvg_mlogo usesvg_mlogo_jp usesvg_mlogo_jp_2" d="M90.2,27.2c1.5,0.9,3.4,1.3,5.7,1.3l6.5-0.5c-1.8,7.5-3.4,13-4.8,16.6c-1.5,3.7-3,5.9-4.4,6.4v7.5
		c-0.1,3.1,0.5,5.5,1.6,7.2c1,1.5,2.4,2.3,4.1,2.3c4.1,0,7.4-2.9,9.8-8.7c2.1-5.2,5-16.3,8.5-33.6c2.4-0.4,4.9-1,7.4-1.6
		c2.5-0.6,5-1.3,7.5-2.1c2-0.6,3.5-1.4,4.5-2.5c1-1.1,1.5-2.4,1.5-3.9c0-2.6-1-4.3-3.1-5.1c-2.1-0.8-4.8-1.6-8.4-2.3
		c-0.4,0.8-1.1,1.4-2.2,2c-1,0.5-2.5,1-4.5,1.4c0.3-1.6,0.7-3,1.3-4.1c0.5-1.1,0.8-1.9,0.8-2.5c0-1.1-1-2.2-3-3.3
		c-2.2-1.2-4.5-1.8-7-1.8c-1.7,0-3.4,0.7-5.1,2c-1.6,1.1-3.5,3-5.7,5.6c1.5-0.1,2.5,0.1,2.8,0.7c0.3,0.6,0.5,1.7,0.5,3.3v2.8
		l-5.7,0.7c-1.2,0-2.1-0.2-2.8-0.6c-0.6-0.4-1.1-1-1.3-2c-0.5,0.7-0.9,1.3-1.3,1.9c-0.4,0.6-0.7,1.2-1,1.7c-1.3,1.8-2.3,3.4-3,4.6
		c-0.7,1.3-1.1,2.3-1.1,3.2C88.3,25.3,89,26.4,90.2,27.2z M121.6,32.8c1.9-0.6,3.6-1.1,5.3-1.4c1.7-0.3,3.3-0.5,4.8-0.5c1.7,0,3.2,0.2,4.4,0.6c1.3,0.4,2.4,1.1,3.4,2.1
		c-6.2,2.4-10.8,5.3-14,8.7c-3.1,3.4-4.7,7.1-4.7,11.1c0,4.1,1.9,7.4,5.7,9.8c4,2.4,9.5,3.7,16.5,3.7c5.6,0,9.7-0.6,12.3-1.8
		c2.8-1.2,4.1-3.2,4.1-6c0-2.4-1-4.4-3-6c-2-1.6-4.8-2.6-8.6-3.1c-0.7,0.5-1.9,1-3.6,1.3c-1.8,0.3-3.9,0.5-6.5,0.5
		c-2.9,0-5.2-0.4-7-1.2c-1.6-0.8-2.4-1.7-2.4-2.8c0-1.9,1.4-3.9,4.2-6c3-2.2,6.5-3.7,10.6-4.4l3.3-0.1c1.1,0,2.1,0.1,2.9,0.2
		c0.9,0.1,1.6,0.2,2.2,0.2c1.9,0,3.4-0.6,4.5-1.8c1.1-1.2,1.7-2.8,1.7-4.8c0-3.2-1.3-5.7-3.8-7.6c-2.5-1.9-5.9-2.8-10.1-2.8
		c-3.6,0-7.2,1-11,3.1C129.3,25.7,125.5,28.7,121.6,32.8z"/>
	<path class="svg__m__color usesvg_mlogo usesvg_mlogo_jp usesvg_mlogo_jp_3" d="M177.3,32.1c0,4.5,1.3,8.1,3.8,10.9c2.5,2.8,5.3,4.2,8.4,4.2c2.1,0,3.9-0.7,5.2-2c1.3-1.3,2-3.2,2-5.6
		l-0.3-6.1c0-0.7,0.1-1.3,0.2-2.1c0.1-0.7,0.2-1.4,0.4-2.2c0.9-3.4,2.4-6.1,4.5-8.2c1.9-1.9,4-2.9,6.1-2.9c2,0,3.5,1.2,4.6,3.6
		c1.1,2.5,1.6,6.5,1.6,11.8c0,8.4-2.1,14.4-6.2,18c-4.1,3.6-9.9,5.4-17.4,5.4c-1.1,0-2.3-0.1-3.6-0.2c-1.3-0.1-2.8-0.3-4.3-0.5
		c1.9,1.4,3.3,2.8,4.2,4c0.9,1.3,1.6,2.3,2.1,3.1c0.1,0.1,0.2,0.3,0.3,0.5c0.1,0.2,0.2,0.3,0.3,0.4c1.2,1.8,2.4,3,3.6,3.5
		c1.2,0.5,3.1,0.8,5.7,0.8c9.2,0,16.6-2.7,22.1-8.1c5.6-5.4,8.4-13.4,8.4-24.1c0-8.4-1.4-15-4.2-19.7c-2.6-4.5-6.1-6.8-10.5-6.8
		c-4,0-7.6,1.6-11,4.7c-3.4,3.2-6.4,7.9-9.2,14.1c-0.5,1-1,1.8-1.5,2.3c-0.5,0.5-1,0.7-1.5,0.7c-0.6,0-1.1-0.3-1.6-1
		c-0.5-0.7-0.8-1.4-0.8-2.4c0-0.5,0.1-1,0.3-1.6c0.2-0.6,0.5-1.2,1-1.9c0.4-0.6,0.9-1.4,1.5-2.2c0.6-0.8,1.2-1.7,2-2.7
		c1.1-1.4,2-2.8,2.8-4.1c0.7-1.3,1.1-2.9,1.1-4.6c0-2.3-0.9-4.4-2.7-6.1c-1.8-1.7-3.7-2.6-5.9-2.6c-1.3,0-2.9,0.4-4.5,1.2
		c-1.5,0.7-3.3,1.9-5.4,3.4c1.2,0.2,2.2,0.7,2.8,1.4c0.6,0.7,0.9,1.6,0.9,2.7c0,1.4-0.7,3.9-2,7.6C178.3,24.3,177.3,28.8,177.3,32.1
		z"/>
	<path class="svg__m__color usesvg_mlogo usesvg_mlogo_jp usesvg_mlogo_jp_4" d="M314.3,53.5c2.1-3.9,3.2-8.4,3.2-13.7c0-7.8-2.2-14.2-6.7-19c-4.5-4.8-10.6-7.5-18.4-8.1l0.2-4.5
		c0-2.3-0.8-4.2-2.3-5.5c-1.5-1.3-3.3-2-5.5-2c-1.7,0-3.6,0.6-5.5,1.7c-1.9,1.1-3.9,2.8-6.1,5c2-0.1,3.4,0.4,4.1,1.4
		c0.7,1,1.1,2.8,1,5.2c-1.7,0.4-3.3,0.8-4.9,1.4c-1.6,0.5-3.1,1.2-4.5,1.9c-0.9-3.4-1.9-5.9-3-7.4c-1.3-1.6-2.9-2.5-4.8-2.5
		c-2.1,0-4.2,0.8-6.2,2.4c-2,1.6-3.6,3.9-4.9,7l1.9-0.3c1.2,0,2.3,0.7,3.2,2.1c0.7,1.2,1.6,3.2,2.7,6.1c-3.4,3.1-6,6.2-7.9,9.4
		c-1.7,3.1-2.6,6-2.6,8.6c0,1.6,0.6,3.4,1.7,5.1c1,1.6,2.7,3.5,5,5.7c0.7,1.2,1.2,2.5,1.5,3.9c0.3,1.4,0.7,2.4,1,2.9
		c0.7,1.4,1.7,2.5,2.9,3.2c1.2,0.7,2.5,1.1,4.1,1.1c2,0,4.2-0.6,6.6-1.9c2.5-1.4,5.1-3.5,7.8-6.2c1.2,1,2,2.1,2.5,3.1
		c0.4,1,0.8,1.9,1,2.7c0.1,0.2,0.1,0.4,0.2,0.5c0.1,0.2,0.1,0.3,0.2,0.5c0.6,1.6,1.6,2.8,2.8,3.6c1.2,0.8,2.9,1.2,5,1.2
		c2.3,0,4.8-0.4,7.6-1.3c2.8-0.8,5.3-2,7.5-3.4C309,60.7,312.1,57.4,314.3,53.5z M265.3,50c-1.1,1-2,1.6-2.7,1.6
		c-1,0-1.9-0.6-2.8-1.8c-0.9-1.4-1.3-3-1.3-4.9c0-1.9,0.3-3.7,0.9-5.4c0.6-1.7,1.6-3.4,2.9-4.9c0.9,2.1,2,4,3.1,5.8
		c1.1,1.8,2.4,3.4,3.8,4.9C267.7,47.3,266.4,49,265.3,50z M277,30.2c-0.4,1.7-0.8,3.5-1.3,5.2c-0.9-1-1.7-2.2-2.4-3.6
		c-0.7-1.4-1.3-2.9-1.8-4.6c1.1-0.4,2.2-0.8,3.2-1.2c1-0.4,2.1-0.7,3.2-0.9C277.7,26.8,277.4,28.5,277,30.2z M297.8,50
		c-3.2,2.9-8,4.3-14.3,4.3H280l1.3-1.6l1.9,0.5c1,0,2.1-0.8,3.2-2.5c1.2-1.7,1.9-3.6,1.9-5.5c0-0.3-0.1-0.6-0.4-0.7
		c-0.3-0.1-0.7-0.3-1.4-0.5c1-2.7,2-5.7,2.8-9c0.8-3.3,1.4-6.9,1.9-10.8c3.5,0.8,6.3,2.5,8.4,5.1c2.1,2.7,3.2,5.8,3.2,9.3
		C302.7,43.3,301,47.1,297.8,50z"/>
	<path class="svg__m__color usesvg_mlogo usesvg_mlogo_jp usesvg_mlogo_jp_5" d="M340,50.5c1.4,3.9,2.9,6.7,4.6,8.6c1.7,1.9,3.9,2.8,6.4,2.8c2.3,0,4.9-0.9,7.6-2.6c2.9-1.8,5.7-4.5,8.6-8.1
		c1.1,2.7,2,5.6,2.4,8.6c0.1,0.6,0.2,1,0.2,1.1c0.4,1.2,1.1,2.1,2.2,2.6c1.1,0.5,2.7,0.8,4.8,0.8c7.6,0,13.9-2.7,18.9-8
		c5-5.3,7.4-12.2,7.4-20.6c0-9-2.9-16.3-8.6-22c-5.8-5.7-13.3-8.6-22.5-8.6c-3.8,0-7.4,0.4-10.7,1.2c-3.4,0.8-6.3,1.8-8.8,3.1
		c-5.9,3.1-10.4,6.9-13.5,11.4c-3.1,4.5-4.7,9.1-4.7,13.8c0,2.4,0.5,4.8,1.6,7.3C337,44.5,338.3,47.4,340,50.5z M346.8,31.6
		c1-2.3,2.4-4.6,4.3-6.8c2.4-2.6,5.2-4.7,8.5-6.1c3.3-1.5,6.7-2.2,10.3-2.2c5.1,0,9.3,1.5,12.7,4.4c3.4,2.9,5.1,7.2,5.1,12.8
		c-0.1,5.8-1.3,9.9-3.7,12.4c-2.4,2.4-5.5,3.7-9.4,3.7c-0.9,0-1.9-0.1-2.8-0.3c-0.9-0.2-1.8-0.5-2.8-0.9c0.8-1.4,1.6-2.8,2.3-4.4
		c0.8-1.6,1.4-3.3,2.1-5.1c0.7-2,1.9-4.3,3.6-7c1.1-1.7,1.7-2.9,1.7-3.6c0-1.6-1.1-3.5-3.2-5.5c-2.1-2-4.3-3.1-6.7-3.1
		c-1.7,0-3.5,0.5-5.3,1.4c-1.8,0.9-3.9,2.2-6.2,3.8c1.5,0.3,2.5,0.7,3,1.2c0.5,0.5,0.8,1.2,0.8,2.3c0,1.6-0.4,3.5-1.1,5.6
		c-0.8,2.3-1.9,4.6-3.4,7.2c-0.9,1.6-2.1,2.8-3.3,3.7c-1.1,0.8-2.2,1.3-3,1.3c-1.1,0-2.2-0.7-3.3-2.1c-1-1.6-1.6-3.6-1.6-5.7
		C345.4,36.2,345.8,33.9,346.8,31.6z"/>
	<path class="svg__m__color usesvg_mlogo usesvg_mlogo_jp usesvg_mlogo_jp_6" d="M37.6,103.3c-3.2-2.4-6.3-3.6-9.3-3.6c-2,0-4.2,0.6-6.4,1.8c-2.1,1.1-4.5,2.8-7.3,5.2c1.6,0.4,2.8,0.9,3.5,1.5
		c0.7,0.7,1,1.7,1,3c0,1.7-0.4,3.9-1.1,6.6c-0.9,3.2-2.1,6.6-3.7,10.3c-2.2,5.1-4.3,8.9-6.4,11.3c-2.1,2.4-4.2,3.5-6.3,3.3l0.5,5.6
		c0,1.7-0.4,4-1.2,6.9c-0.6,2.1-0.9,3.7-0.9,4.6c0,1.8,0.6,3.2,1.8,4.3c1.2,1.1,3,1.7,5.2,1.7c7.6,0,14.3-4.2,20-12.6
		c5.5-8.2,10.1-20.3,13.7-36.4c0.6-1.1,1-2.2,1.3-3.3c0.3-1.1,0.5-2.1,0.5-3.1C42.5,108.1,40.8,105.7,37.6,103.3z M86.6,113.6c-4.9-10.5-8.7-17.4-11.3-20.8c-3.6-4.8-7.7-7.2-12.2-7.2c-2.8,0-5.5,0.8-8.2,2.4
		c-2.7,1.6-5.6,4-8.5,7.1c3.3,0.5,5.9,2.2,7.8,5c1.9,2.8,3.9,6.6,6.2,11.4c4.6,9.6,8.2,18.9,10.8,27.7c1.9,6.6,2.9,11.3,2.9,14.1
		l-0.4,4.1c1.9,1.4,3.7,2.7,5.3,3.8c1.6,1.1,3.2,2,4.6,2.8c1.4,0.8,2.7,1.5,3.8,1.8c1.1,0.4,2.2,0.6,3.2,0.6c2.2,0,4.3-1.2,6.3-3.6
		c1.9-2.4,2.9-5.5,2.9-9.3c0-3.1-1-7.9-3.1-14.4C94.2,131.6,90.9,123.1,86.6,113.6z"/>
	<path class="svg__m__color usesvg_mlogo usesvg_mlogo_jp usesvg_mlogo_jp_7" d="M199.7,113.6c-2.4-2.1-5.1-3.3-8-3.7l-9.6-1.5c0.4,1.2,0.6,2.3,0.8,3.2c0.2,0.9,0.3,1.8,0.3,2.5
		c0,6-3.8,12.4-11.3,19c-8.2,7.3-17.9,11.9-29,13.8v-42.3c1.6-1.8,2.8-3.4,3.7-4.8c0.9-1.3,1.3-2.5,1.3-3.6c0-2.4-2-5-6.1-7.8
		c-4-2.8-8-4.2-11.9-4.2c-2.4,0-5,1-7.9,3.1c-2.3,1.7-5.5,4.6-9.6,8.8c2.9,0.7,4.9,1.5,6.1,2.4c1.2,1.1,1.7,2.4,1.5,4v41.5
		c0,0.3,0,0.6,0,0.9s0,0.6,0,0.9c0,2.6-0.5,4.7-1.5,6c-1,1.4-1.5,2.4-1.5,3.1c0,1.3,0.7,3.1,2,5.4c1.6,2.8,3.8,5.7,6.7,8.7
		c2.1,2.1,3.9,3.8,5.5,4.9c1.6,1,3.2,1.5,4.6,1.5c1.2,0,2.3-0.3,3.3-1c1-0.7,1.9-1.8,2.9-3.3c8.1-1.3,15.4-3.3,22-5.8
		c6.6-2.5,12.4-5.7,17.6-9.5c6.8-5,12.2-10.6,16.1-16.8c3.7-5.8,5.5-11.1,5.5-15.9C203.3,118.9,202.1,115.7,199.7,113.6z"/>
	<path class="svg__m__color usesvg_mlogo usesvg_mlogo_jp usesvg_mlogo_jp_8" d="M241.6,134.3c1.7-2.4,2.6-5.9,2.5-10.5v-21c-0.1-2.5,0.3-4.6,1.1-6.1c0.8-1.5,1.2-2.7,1.2-3.6
		c0-2-1.6-4.2-4.8-6.4c-3.2-2.2-6.4-3.4-9.4-3.4c-2.1,0-4.5,0.9-7.1,2.6c-2.5,1.6-5.4,4.1-8.6,7.4c1.8,0.1,3.2,0.9,4.1,2.1
		c0.9,1.3,1.4,3,1.4,5.3v24.3c0.1,0.6,0,1.1-0.2,1.5c-0.2,0.4-0.3,0.8-0.3,1.1c0,1.9,1.4,4.1,4.3,6.5c3,2.5,6.1,3.8,9.1,3.8
		C237.6,138,239.8,136.7,241.6,134.3z M292.1,122.9c0-0.9-0.1-1.8-0.1-2.7v-18c0.1-2.2,0.6-3.9,1.5-5.2c0.9-1.3,1.4-2.6,1.4-3.8c0-2.4-2-5.1-6.1-8
		c-4-2.9-7.6-4.4-10.6-4.4c-1.6,0-3.8,1-6.7,3c-2.5,1.7-6,4.5-10.5,8.3c3.3,0.8,5.6,1.9,7,3.5c1.4,1.6,1.9,3.6,1.7,6.3v19.8
		c0.5,12-1.6,20.7-6.3,26.1c-4.7,5.4-12.5,8.1-23.4,8.1c-2,0-4-0.1-5.8-0.2c-1.8-0.1-3.7-0.5-5.4-0.9c2.5,1.8,4.5,3.7,6,5.8
		c1.5,2.1,2.6,4.4,3.2,7c0.1,0.4,0.1,0.7,0.2,1.1c0,0.3,0.1,0.7,0.2,1.1c0.5,2.3,1.3,4.3,2.4,5.9c1.1,1.7,4,2.5,8.7,2.5
		c12.8,0,23.1-4.6,30.9-13.7c7.9-9.2,11.8-22.1,11.8-38.8C292.2,124.7,292.2,123.8,292.1,122.9z"/>
	<path class="svg__m__color usesvg_mlogo usesvg_mlogo_jp usesvg_mlogo_jp_9" d="M400.7,119.3c-2.9-2.9-6.3-4-10.1-3.5l-61.4,1.1c-2.4,0.1-4.2-0.2-5.4-1c-1.2-0.8-1.9-2.2-2.2-4.3
		c-5.4,4.7-9.1,8-10.9,10.1c-2.6,2.9-3.9,5.6-3.9,7.9c0,2.5,2.1,4.9,6.4,7.4c4.3,2.5,8.2,3.7,11.8,3.7c0.6,0,1.6-0.3,3-0.8
		c3.1-1.1,5.9-1.5,8.3-1.4l55.8-0.8c0.3,0,0.6,0,0.8,0.1c0.3,0,0.5,0.1,0.7,0.1c3.7,0,6.5-0.8,8.4-2.3c1.9-1.5,2.8-3.8,2.8-6.8
		C405,125.4,403.5,122.1,400.7,119.3z"/>
	<path class="svg__m__color usesvg_mlogo usesvg_mlogo_en" d="M10.3,207.9L4.3 207.9 4.3 202.8 2 202.8 2 215.6 4.3 215.6 4.3 210 10.3 210 10.3 215.6 12.6 215.6 12.6 202.8 10.3 202.8z"/>
	<path class="svg__m__color usesvg_mlogo usesvg_mlogo_en" d="M32.9,202.8l-5.6,12.8h2.5l1.2-2.9h5.5l1.2,2.9h2.6l-5.5-12.8H32.9z M31.9,210.8l2-5.2l2,5.2H31.9z"/>
	<path class="svg__m__color usesvg_mlogo usesvg_mlogo_en" d="M57.5,202.8L55.2 202.8 55.2 215.6 62.9 215.6 62.9 213.6 57.5 213.6z"/>
	<path class="svg__m__color usesvg_mlogo usesvg_mlogo_en" d="M80.3,210.1L86.1 210.1 86.1 208 80.3 208 80.3 204.9 86.5 204.9 86.5 202.8 78 202.8 78 215.6 86.8 215.6 86.8 213.6 80.3 213.6z"/>
	<path class="svg__m__color usesvg_mlogo usesvg_mlogo_en" d="M110.9,208.8c0.5-0.6,0.8-1.4,0.8-2.3c0-0.7-0.1-1.3-0.4-1.8c-0.3-0.5-0.6-0.8-1.1-1.1c-0.4-0.3-1-0.5-1.5-0.6
		c-0.6-0.1-1.2-0.2-1.8-0.2h-4.4v12.8h2.3v-5.4h1.7l3,5.4h2.7l-3.4-5.7C109.6,209.8,110.3,209.5,110.9,208.8z M107.4,208.2
		c-0.3,0-0.7,0-1,0h-1.8v-3.5h2c0.3,0,0.6,0,0.9,0.1s0.6,0.1,0.8,0.2c0.3,0.1,0.5,0.3,0.6,0.5c0.2,0.2,0.2,0.5,0.2,0.9
		c0,0.4-0.1,0.8-0.3,1c-0.2,0.2-0.4,0.4-0.7,0.5C108.1,208.1,107.8,208.2,107.4,208.2z"/>
	<path class="svg__m__color usesvg_mlogo usesvg_mlogo_en" d="M131.5,207.9L128.3 202.8 125.5 202.8 130.3 210.2 130.3 215.6 132.6 215.6 132.6 210.2 137.4 202.8 134.7 202.8z"/>
	<path class="svg__m__color usesvg_mlogo usesvg_mlogo_en" d="M181.6,204.3c-0.6-0.6-1.3-1-2.2-1.3c-0.8-0.3-1.7-0.5-2.7-0.4c-1,0-1.9,0.2-2.7,0.5c-0.8,0.3-1.5,0.8-2.1,1.4
		c-0.6,0.6-1.1,1.3-1.4,2.1c-0.3,0.8-0.5,1.8-0.5,2.8c0,1,0.2,1.9,0.5,2.7c0.3,0.8,0.8,1.5,1.4,2.1c0.6,0.6,1.3,1,2.1,1.4
		c0.8,0.3,1.7,0.5,2.7,0.5c1,0,1.9-0.2,2.7-0.5c0.8-0.3,1.5-0.8,2.2-1.4c0.6-0.6,1.1-1.3,1.4-2.1c0.3-0.8,0.5-1.7,0.5-2.7
		c0-1-0.2-2-0.5-2.8C182.7,205.6,182.2,204.9,181.6,204.3z M180.8,211c-0.2,0.6-0.5,1.1-0.9,1.5c-0.4,0.4-0.8,0.8-1.4,1
		c-0.5,0.2-1.1,0.4-1.8,0.4c-0.7,0-1.3-0.1-1.8-0.4c-0.5-0.2-1-0.6-1.4-1c-0.4-0.4-0.7-0.9-0.9-1.5c-0.2-0.6-0.3-1.2-0.3-1.9
		c0-0.6,0.1-1.2,0.3-1.8c0.2-0.6,0.5-1,0.9-1.5c0.4-0.4,0.8-0.7,1.4-1c0.5-0.2,1.1-0.4,1.8-0.4c0.7,0,1.3,0.1,1.8,0.4
		c0.5,0.2,1,0.6,1.4,1c0.4,0.4,0.7,0.9,0.9,1.5c0.2,0.6,0.3,1.2,0.3,1.8C181.2,209.8,181.1,210.5,180.8,211z"/>
	<path class="svg__m__color usesvg_mlogo usesvg_mlogo_en" d="M199.1,215.6L201.4 215.6 201.4 210.3 207 210.3 207 208.3 201.4 208.3 201.4 204.9 207.3 204.9 207.3 202.8 199.1 202.8z"/>
	<path class="svg__m__color usesvg_mlogo usesvg_mlogo_en" d="M245.7,202.8l-5.6,12.8h2.5l1.2-2.9h5.5l1.2,2.9h2.6l-5.5-12.8H245.7z M244.6,210.8l2-5.2l2,5.2H244.6z"/>
	<path class="svg__m__color usesvg_mlogo usesvg_mlogo_en" d="M266.7,204.9L270.6 204.9 270.6 215.6 272.9 215.6 272.9 204.9 276.8 204.9 276.8 202.8 266.7 202.8z"/>
	<path class="svg__m__color usesvg_mlogo usesvg_mlogo_en" d="M295.9,202.8l-5.6,12.8h2.5l1.2-2.9h5.5l1.2,2.9h2.6l-5.5-12.8H295.9z M294.8,210.8l2-5.2l2,5.2H294.8z"/>
	<path class="svg__m__color usesvg_mlogo usesvg_mlogo_en" d="M326.6,208.8c0.5-0.6,0.8-1.4,0.8-2.3c0-0.7-0.1-1.3-0.4-1.8c-0.3-0.5-0.6-0.8-1.1-1.1c-0.4-0.3-1-0.5-1.5-0.6
		c-0.6-0.1-1.2-0.2-1.8-0.2h-4.4v12.8h2.3v-5.4h1.7l3,5.4h2.7l-3.4-5.7C325.4,209.8,326.1,209.5,326.6,208.8z M323.2,208.2
		c-0.3,0-0.7,0-1,0h-1.8v-3.5h2c0.3,0,0.6,0,0.9,0.1s0.6,0.1,0.8,0.2c0.3,0.1,0.5,0.3,0.6,0.5c0.2,0.2,0.2,0.5,0.2,0.9
		c0,0.4-0.1,0.8-0.3,1c-0.2,0.2-0.4,0.4-0.7,0.5C323.8,208.1,323.5,208.2,323.2,208.2z"/>
	<path class="svg__m__color usesvg_mlogo usesvg_mlogo_en" d="M342.9,202.8L344 202.8 345.2 202.8 345.2 209.1 345.2 215.6 344 215.6 342.9 215.6 342.9 209.2z"/>
	<path class="svg__m__color usesvg_mlogo usesvg_mlogo_en" d="M368.3,211.8L364.9 202.8 361.4 202.8 361.4 215.6 363.5 215.6 363.5 205 363.6 205 367.5 215.6 369.1 215.6 372.9 205 373 205 373 215.6 375.2 215.6 375.2 202.8 371.7 202.8z"/>
	<path class="svg__m__color usesvg_mlogo usesvg_mlogo_en" d="M393.7,210.1L399.6 210.1 399.6 208 393.7 208 393.7 204.9 399.9 204.9 399.9 202.8 391.4 202.8 391.4 215.6 400.2 215.6 400.2 213.6 393.7 213.6z"/>
</g>
</svg>
