<?xml version="1.0" encoding="utf-8"?>
<svg version="1.1" id="the-main-logo-2" xmlns="http://www.w3.org/2000/svg" xmlns:xlink="http://www.w3.org/1999/xlink" x="0px"
	 y="0px" viewBox="0 0 550 70" style="enable-background:new 0 0 550 70;" xml:space="preserve">
<style type="text/css">
	.svg__m__color{fill:#14195A;}
	.svg__pnk__color {fill: #e64673;}
	.svg__ong__color {fill: #f0785f;}
	.svg__grn__color {fill: #96d2cd;}
	.svg__mlgt__color {fill: #fff8ee;}
	.svg__blk__color {fill: #000000;}
	.svg__skin__color{fill:#f5afb4;}
	.svg__w__color{fill:#ffffff;}
</style>
<g id="use-logo-main-dialogue-element">
	<g class="usesvg_mlogo2_block usesvg_mlogo2_block_1">
		<rect x="1" y="1" class="svg__pnk__color" width="52.2" height="52.2"/>
		<path class="svg__blk__color" d="M53.2,54.2H1c-0.6,0-1-0.4-1-1V1c0-0.6,0.4-1,1-1h52.2c0.6,0,1,0.4,1,1v52.2C54.2,53.7,53.7,54.2,53.2,54.2
					z M2,52.2h50.2V2H2V52.2z"/>
		<polygon class="svg__m__color" points="1,53.2 61.8,69 103.7,69 53.2,53.2"/>
		<path class="svg__blk__color" d="M103.7,70H61.8c-0.1,0-0.2,0-0.3,0L0.7,54.1C0.2,54-0.1,53.5,0,53c0.1-0.5,0.5-0.9,1-0.9h52.2
			c0.1,0,0.2,0,0.3,0.1l50.6,15.8c0.5,0.2,0.7,0.6,0.7,1.1C104.6,69.6,104.2,70,103.7,70z M62,68h35.8L53,54.2H8.1L62,68z"/>
		<polygon class="svg__ong__color" points="53.2,1 53.2,53.2 103.7,69 103.7,28.6"/>
		<path class="svg__blk__color" d="M103.7,70c-0.1,0-0.2,0-0.3-0.1L52.8,54.1c-0.4-0.1-0.7-0.5-0.7-0.9V1c0-0.4,0.2-0.7,0.5-0.9
			c0.3-0.2,0.7-0.2,1,0l50.6,27.6c0.3,0.2,0.5,0.5,0.5,0.9V69c0,0.3-0.2,0.6-0.4,0.8C104.1,69.9,103.9,70,103.7,70z M54.2,52.5
			l48.6,15.1V29.2L54.2,2.7V52.5z"/>
	</g>
	<g class="usesvg_mlogo2_block usesvg_mlogo2_block_2">
		<rect x="63" y="1" class="svg__pnk__color" width="52.2" height="52.2"/>
		<path class="svg__blk__color" d="M115.1,54.2H63c-0.6,0-1-0.4-1-1V1c0-0.6,0.4-1,1-1h52.2c0.6,0,1,0.4,1,1v52.2
				C116.1,53.7,115.7,54.2,115.1,54.2z M64,52.2h50.2V2H64V52.2z"/>
		<polygon class="svg__m__color" points="63,53.2 109.9,69 151.8,69 115.1,53.2"/>
		<path class="svg__blk__color" d="M151.8,70h-41.9c-0.1,0-0.2,0-0.3-0.1L62.6,54.1c-0.5-0.2-0.7-0.6-0.6-1.1c0.1-0.5,0.5-0.8,1-0.8h52.2
			c0.1,0,0.3,0,0.4,0.1l36.6,15.8c0.4,0.2,0.6,0.7,0.5,1.1C152.7,69.7,152.3,70,151.8,70z M110.1,68h37.3l-32.4-13.8H68.5L110.1,68z
			"/>
		<polygon class="svg__ong__color" points="115.1,1 151.8,28.6 151.8,69 115.1,53.2"/>
		<path class="svg__blk__color" d="M151.8,70c-0.1,0-0.3,0-0.4-0.1l-36.6-15.8c-0.3-0.2-0.6-0.5-0.6-0.9V1c0-0.4,0.2-0.7,0.6-0.9
			c0.3-0.2,0.7-0.1,1,0.1l36.6,27.6c0.3,0.2,0.4,0.5,0.4,0.8V69c0,0.3-0.2,0.7-0.5,0.8C152.2,69.9,152,70,151.8,70z M116.1,52.5
			l34.7,14.9V29.1L116.1,3V52.5z"/>
	</g>
	<g class="usesvg_mlogo2_block usesvg_mlogo2_block_3">
		<rect x="125" y="1" class="svg__pnk__color" width="52.2" height="52.2"/>
		<path class="svg__blk__color" d="M177.1,54.2H125c-0.6,0-1-0.4-1-1V1c0-0.6,0.4-1,1-1h52.2c0.6,0,1,0.4,1,1v52.2
				C178.1,53.7,177.7,54.2,177.1,54.2z M126,52.2h50.2V2H126V52.2z"/>
		<polygon class="svg__m__color" points="125,53.2 157.9,69 199.8,69 177.1,53.2"/>
		<path class="svg__blk__color" d="M199.8,70h-41.9c-0.2,0-0.3,0-0.5-0.1l-33-15.8c-0.4-0.2-0.6-0.7-0.5-1.1c0.1-0.4,0.5-0.8,1-0.8h52.2
			c0.2,0,0.4,0.1,0.6,0.2l22.7,15.8c0.3,0.3,0.5,0.7,0.3,1.1C200.7,69.7,200.3,70,199.8,70z M158.2,68h38.7l-20.1-13.8H129L158.2,68
			z"/>
		<polygon class="svg__ong__color" points="177.1,1 177.1,53.2 199.8,69 199.8,28.6"/>
		<path class="svg__blk__color" d="M199.8,70c-0.2,0-0.4-0.1-0.6-0.2L176.5,54c-0.2-0.2-0.4-0.5-0.4-0.8V1c0-0.4,0.3-0.8,0.7-0.9
			c0.4-0.1,0.8,0,1.1,0.3L200.6,28c0.1,0.2,0.2,0.4,0.2,0.6V69c0,0.4-0.2,0.7-0.6,0.9C200.2,70,200,70,199.8,70z M178.1,52.7
			L198.9,67V29L178.1,3.8V52.7z"/>
	</g>
	<g class="usesvg_mlogo2_block usesvg_mlogo2_block_4">
		<rect x="186.9" y="1" class="svg__pnk__color" width="52.2" height="52.2"/>
		<path class="svg__blk__color" d="M239.1,54.2h-52.2c-0.6,0-1-0.4-1-1V1c0-0.6,0.4-1,1-1h52.2c0.6,0,1,0.4,1,1v52.2
				C240.1,53.7,239.7,54.2,239.1,54.2z M187.9,52.2h50.2V2h-50.2V52.2z"/>
		<polygon class="svg__m__color" points="186.9,53.2 206,69 247.9,69 239.1,53.2"/>
		<path class="svg__blk__color" d="M247.9,70H206c-0.2,0-0.5-0.1-0.7-0.3l-19.1-15.8c-0.3-0.3-0.4-0.7-0.3-1.1c0.1-0.4,0.5-0.6,0.9-0.6h52.2
			c0.4,0,0.7,0.2,0.9,0.5l8.8,15.8c0.2,0.3,0.1,0.7,0,1C248.6,69.8,248.2,70,247.9,70z M206.4,68h39.9l-7.8-13.8h-49L206.4,68z"/>
		<polygon class="svg__ong__color" points="239.1,1 239.1,53.2 247.9,69 247.9,28.6"/>
		<path class="svg__blk__color" d="M247.9,70c-0.4,0-0.7-0.2-0.9-0.5l-8.8-15.8c-0.1-0.1-0.1-0.3-0.1-0.5V1c0-0.5,0.4-0.9,0.8-1
			c0.5-0.1,1,0.2,1.1,0.7l8.8,27.6c0,0.1,0,0.2,0,0.3V69c0,0.5-0.3,0.9-0.8,1C248.1,70,248,70,247.9,70z M240.1,52.9l6.8,13.4V28.8
			l-6.8-21.4V52.9z"/>
	</g>
	<g class="usesvg_mlogo2_block usesvg_mlogo2_block_5">
		<rect x="496.8" y="1" transform="matrix(-1 -4.492330e-11 4.492330e-11 -1 1045.8346 54.1667)" class="svg__pnk__color" width="52.2" height="52.2"/>
		<path class="svg__blk__color" d="M549,54.2h-52.2c-0.6,0-1-0.4-1-1V1c0-0.6,0.4-1,1-1H549c0.6,0,1,0.4,1,1v52.2
					C550,53.7,549.6,54.2,549,54.2z M497.8,52.2H548V2h-50.2V52.2z"/>
		<polygon class="svg__m__color" points="549,53.2 488.2,69 446.3,69 496.8,53.2"/>
		<path class="svg__blk__color" d="M488.2,70h-41.9c-0.5,0-0.9-0.4-1-0.8c-0.1-0.5,0.2-0.9,0.7-1.1l50.6-15.8c0.1,0,0.2-0.1,0.3-0.1H549
			c0.5,0,0.9,0.4,1,0.9s-0.2,1-0.7,1.1L488.4,70C488.4,70,488.3,70,488.2,70z M452.2,68H488l53.8-13.8H497L452.2,68z"/>
		<polygon class="svg__ong__color" points="496.8,1 496.8,53.2 446.3,69 446.3,28.6"/>
		<path class="svg__blk__color" d="M446.3,70c-0.2,0-0.4-0.1-0.6-0.2c-0.3-0.2-0.4-0.5-0.4-0.8V28.6c0-0.4,0.2-0.7,0.5-0.9l50.6-27.6
			c0.3-0.2,0.7-0.2,1,0c0.3,0.2,0.5,0.5,0.5,0.9v52.2c0,0.4-0.3,0.8-0.7,0.9l-50.6,15.8C446.5,70,446.4,70,446.3,70z M447.3,29.2
			v38.4l48.6-15.1V2.7L447.3,29.2z"/>
	</g>
	<g class="usesvg_mlogo2_block usesvg_mlogo2_block_6">
		<rect x="434.9" y="1" transform="matrix(-1 -4.490598e-11 4.490598e-11 -1 921.876 54.1667)" class="svg__pnk__color" width="52.2" height="52.2"/>
		<path class="svg__blk__color" d="M487,54.2h-52.2c-0.6,0-1-0.4-1-1V1c0-0.6,0.4-1,1-1H487c0.6,0,1,0.4,1,1v52.2C488,53.7,487.6,54.2,487,54.2
				z M435.8,52.2H486V2h-50.2V52.2z"/>
		<polygon class="svg__m__color" points="487,53.2 440.1,69 398.2,69 434.9,53.2"/>
		<path class="svg__blk__color" d="M440.1,70h-41.9c-0.5,0-0.9-0.3-1-0.8c-0.1-0.5,0.1-0.9,0.5-1.1l36.6-15.8c0.1-0.1,0.3-0.1,0.4-0.1H487
			c0.5,0,0.9,0.3,1,0.8c0.1,0.5-0.2,0.9-0.6,1.1l-46.9,15.8C440.4,70,440.2,70,440.1,70z M402.6,68h37.3l41.5-13.8h-46.4L402.6,68z"
			/>
		<polygon class="svg__ong__color" points="434.9,1 398.2,28.6 398.2,69 434.9,53.2"/>
		<path class="svg__blk__color" d="M398.2,70c-0.2,0-0.4-0.1-0.5-0.2c-0.3-0.2-0.5-0.5-0.5-0.8V28.6c0-0.3,0.1-0.6,0.4-0.8l36.6-27.6
			c0.3-0.2,0.7-0.3,1-0.1c0.3,0.2,0.6,0.5,0.6,0.9v52.2c0,0.4-0.2,0.7-0.6,0.9l-36.6,15.8C398.5,70,398.4,70,398.2,70z M399.2,29.1
			v38.3l34.7-14.9V3L399.2,29.1z"/>
	</g>
	<g class="usesvg_mlogo2_block usesvg_mlogo2_block_7">
		<rect x="372.9" y="1" transform="matrix(-1 -4.490598e-11 4.490598e-11 -1 797.9174 54.1667)" class="svg__pnk__color" width="52.2" height="52.2"/>
		<path class="svg__blk__color" d="M425,54.2h-52.2c-0.6,0-1-0.4-1-1V1c0-0.6,0.4-1,1-1H425c0.6,0,1,0.4,1,1v52.2C426,53.7,425.6,54.2,425,54.2
				z M373.9,52.2H424V2h-50.2V52.2z"/>
		<polygon class="svg__m__color" points="425,53.2 392.1,69 350.2,69 372.9,53.2"/>
		<path class="svg__blk__color" d="M392.1,70h-41.9c-0.4,0-0.8-0.3-0.9-0.7c-0.1-0.4,0-0.9,0.3-1.1l22.7-15.8c0.2-0.1,0.4-0.2,0.6-0.2H425
			c0.5,0,0.9,0.3,1,0.8c0.1,0.4-0.1,0.9-0.5,1.1l-33,15.8C392.4,70,392.2,70,392.1,70z M353.1,68h38.7L421,54.2h-47.8L353.1,68z"/>
		<polygon class="svg__ong__color" points="372.9,1 372.9,53.2 350.2,69 350.2,28.6"/>
		<path class="svg__blk__color" d="M350.2,70c-0.2,0-0.3,0-0.4-0.1c-0.3-0.2-0.6-0.5-0.6-0.9V28.6c0-0.2,0.1-0.5,0.2-0.6l22.7-27.6
			c0.3-0.3,0.7-0.4,1.1-0.3c0.4,0.1,0.7,0.5,0.7,0.9v52.2c0,0.3-0.1,0.6-0.4,0.8l-22.7,15.8C350.6,69.9,350.4,70,350.2,70z
			 M351.1,29v38l20.7-14.3V3.8L351.1,29z"/>
	</g>
	<g class="usesvg_mlogo2_block usesvg_mlogo2_block_8">
		<rect x="310.9" y="1" transform="matrix(-1 -4.490598e-11 4.490598e-11 -1 673.9589 54.1667)" class="svg__pnk__color" width="52.2" height="52.2"/>
		<path class="svg__blk__color" d="M363.1,54.2h-52.2c-0.6,0-1-0.4-1-1V1c0-0.6,0.4-1,1-1h52.2c0.6,0,1,0.4,1,1v52.2
				C364.1,53.7,363.6,54.2,363.1,54.2z M311.9,52.2h50.2V2h-50.2V52.2z"/>
		<polygon class="svg__m__color" points="363.1,53.2 344,69 302.1,69 310.9,53.2"/>
		<path class="svg__blk__color" d="M344,70h-41.9c-0.3,0-0.7-0.2-0.8-0.5c-0.2-0.3-0.2-0.7,0-1l8.8-15.8c0.2-0.3,0.5-0.5,0.9-0.5h52.2
			c0.4,0,0.8,0.3,0.9,0.6c0.1,0.4,0,0.8-0.3,1.1l-19.1,15.8C344.5,69.9,344.3,70,344,70z M303.7,68h39.9l16.9-13.8h-49L303.7,68z"/>
		<polygon class="svg__ong__color" points="310.9,1 310.9,53.2 302.1,69 302.1,28.6"/>
		<path class="svg__blk__color" d="M302.1,70c-0.1,0-0.2,0-0.2,0c-0.4-0.1-0.8-0.5-0.8-1V28.6c0-0.1,0-0.2,0-0.3l8.8-27.6
			c0.1-0.5,0.6-0.8,1.1-0.7c0.5,0.1,0.8,0.5,0.8,1v52.2c0,0.2,0,0.3-0.1,0.5L303,69.5C302.8,69.8,302.5,70,302.1,70z M303.1,28.8
			v37.6l6.8-13.4V7.4L303.1,28.8z"/>
	</g>
	<g class="usesvg_mlogo2_block usesvg_mlogo2_block_9">
		<rect x="248.9" y="1" class="svg__pnk__color" width="52.2" height="52.2"/>
		<path class="svg__blk__color" d="M301.1,54.2h-52.2c-0.6,0-1-0.4-1-1V1c0-0.6,0.4-1,1-1h52.2c0.6,0,1,0.4,1,1v52.2
				C302.1,53.7,301.6,54.2,301.1,54.2z M249.9,52.2h50.2V2h-50.2V52.2z"/>
		<polygon class="svg__m__color" points="248.9,53.2 254,69 296,69 301.1,53.2"/>
		<path class="svg__blk__color" d="M296,70H254c-0.4,0-0.8-0.3-1-0.7L248,53.5c-0.1-0.3,0-0.6,0.2-0.9c0.2-0.3,0.5-0.4,0.8-0.4h52.2
			c0.3,0,0.6,0.1,0.8,0.4c0.2,0.3,0.2,0.6,0.2,0.9l-5.1,15.8C296.8,69.7,296.4,70,296,70z M254.8,68h40.4l4.5-13.8h-49.5L254.8,68z"
			/>
	</g>
	<g class="usesvg_mlogo2_text_container">
		<g class="usesvg_mlogo2_text usesvg_mlogo2_text_1">
			<path class="svg__m__color" d="M30.3,24.3v2.3l5.7-0.3c0.4,0,0.8-0.1,1.1-0.2c0.3-0.1,0.6-0.3,0.9-0.6c1.2,0.7,2.1,1.4,2.7,2.1
				c0.6,0.8,0.9,1.6,0.9,2.4c0,0.8-0.2,1.4-0.6,1.9c-0.4,0.5-1,0.7-1.7,0.7c-0.3,0-0.6-0.1-1-0.2c-0.3-0.1-0.7-0.3-1.1-0.5l-7,0.3
				v3.2l6.7-0.3c0.4,0,0.8,0,1.2-0.1c0.4-0.1,0.7-0.2,1.1-0.4c1.4,0.6,2.5,1.4,3.3,2.2c0.7,0.8,1.1,1.7,1.1,2.7
				c0,0.9-0.2,1.7-0.7,2.2c-0.5,0.5-1.2,0.8-2,0.8c-0.6,0-1.2-0.1-1.7-0.3c-0.6-0.2-1.2-0.6-1.8-1l-19.9,0.6c-0.5,0.4-1,0.8-1.4,1
				c-0.4,0.2-0.8,0.3-1.1,0.3c-0.9,0-1.8-0.4-2.7-1.1c-0.9-0.7-1.3-1.5-1.3-2.2c0-0.6,0.2-1.2,0.7-1.8c0.5-0.6,1.1-1.2,1.8-2
				c0.1-0.1,0.3-0.3,0.5-0.5c0.2-0.2,0.3-0.3,0.5-0.5c0.1,0.4,0.3,0.6,0.6,0.8c0.3,0.2,0.6,0.2,0.9,0.2l7.3-0.3v-3.2l-6.6,0.3
				c-1.1,0.1-2-0.1-2.6-0.5c-0.6-0.4-0.9-1-0.9-1.7c0-0.4,0.2-0.9,0.6-1.3c0.4-0.5,0.9-1.1,1.5-1.8c0.1-0.1,0.1-0.2,0.2-0.3
				c0.1-0.1,0.2-0.2,0.3-0.3c0.2,0.2,0.5,0.3,0.8,0.3c0.3,0,0.6,0.1,0.9,0.1l5.8-0.3v-2.4l-5.4,0.2c-0.1,0-0.2,0-0.4,0.1
				c-0.1,0-0.2,0-0.3,0c-0.6,0-1.1-0.1-1.4-0.4c-0.3-0.2-0.5-0.5-0.5-0.9c0-0.2,0.1-0.5,0.3-0.8c0.2-0.3,0.5-0.8,0.9-1.3
				c-1.1,0.5-2.1,0.9-3,1.1c-0.8,0.2-1.3,0.3-1.7,0.3c-0.5,0-0.9-0.1-1.3-0.4c-0.3-0.3-0.5-0.6-0.5-1.1c0-0.4,0.2-1.2,0.7-2.2
				c0.7-1.3,1-2.4,1.1-3.3c0.1,0,0.2,0.1,0.3,0.1c0.1,0,0.3,0,0.4,0c0.6,0,1.5-0.3,2.7-0.8c1.1-0.5,2.5-1.2,4.2-2.2
				c0.5-0.3,1-0.6,1.4-0.9c0.4-0.3,0.8-0.5,1.1-0.7c0.3-0.2,0.5-0.4,0.6-0.6c0.2-0.2,0.2-0.4,0.2-0.6l-0.2-0.6
				C23.9,9.4,25,9.1,25.9,9c0.9-0.2,1.7-0.3,2.4-0.3c0.7,0,1.3,0.2,1.8,0.5c0.5,0.4,0.7,0.8,0.7,1.2l-0.3,1c2,1.2,4.1,2.1,6.4,2.9
				c2.3,0.8,4.6,1.3,7.1,1.7c-0.1,0.4-0.3,0.8-0.3,1.2c-0.1,0.4-0.1,0.8-0.1,1.1l0.1,2c0,0.8-0.1,1.4-0.4,1.7
				c-0.3,0.4-0.7,0.6-1.3,0.6c-0.3,0-0.8-0.1-1.4-0.2c-0.6-0.2-1.3-0.4-2.1-0.7l0.2,1.1c0,0.5-0.1,0.8-0.3,1.1
				c-0.2,0.2-0.6,0.3-1.1,0.3L30.3,24.3z M20.2,19.6l12.3-0.5c-0.8-0.3-1.7-0.8-2.7-1.4c-1.1-0.6-2.3-1.3-3.6-2.1
				c-0.7,0.5-1.5,1.1-2.5,1.7C22.7,18.1,21.5,18.8,20.2,19.6z"/>
		</g>
		<g class="usesvg_mlogo2_text usesvg_mlogo2_text_2">
			<path class="svg__m__color" d="M98.7,41.7l-20.6,0.5c-0.3,0.4-0.5,0.6-0.9,0.8c-0.3,0.2-0.6,0.3-1,0.3c-0.6,0-1.3-0.4-2-1.1
				c-0.7-0.8-1.5-1.9-2.2-3.3c0.3-0.4,0.5-0.9,0.6-1.3c0.1-0.5,0.2-1,0.2-1.6V16.1c0-0.5-0.1-0.9-0.2-1.2c-0.2-0.3-0.4-0.6-0.8-0.7
				c0.9-1.5,1.8-2.6,2.7-3.4c0.8-0.8,1.5-1.1,2.2-1.1c0.3,0,0.7,0.1,0.9,0.3c0.3,0.2,0.5,0.4,0.8,0.8l19.3-0.5
				c0.5,0,0.9-0.1,1.2-0.4c0.4-0.2,0.6-0.5,0.9-0.9c2,0.9,3.6,1.8,4.6,2.7c1,0.9,1.5,1.6,1.5,2.4c0,0.3-0.1,0.6-0.3,0.8
				c-0.2,0.3-0.6,0.5-1,0.8v25.1c0.1,0.9-0.2,1.6-0.7,2.1c-0.5,0.5-1.3,0.7-2.4,0.7c-0.9,0-1.6-0.1-2.1-0.4
				c-0.5-0.3-0.7-0.7-0.7-1.2V41.7z M78.7,15.9v20.4l20-0.6V15.3L78.7,15.9z M91.1,21.4V23l2.4-0.1c0.3,0,0.6,0,0.8-0.1
				c0.2-0.1,0.4-0.1,0.6-0.3c0.8,0.6,1.4,1.1,1.8,1.6c0.4,0.5,0.6,1,0.6,1.4c0,0.5-0.1,0.9-0.4,1.1c-0.3,0.3-0.7,0.5-1.2,0.6
				c0.3,0.3,0.6,0.6,0.8,0.9c0.2,0.3,0.3,0.6,0.3,0.9c0,0.2,0,0.3-0.1,0.5c-0.1,0.2-0.2,0.3-0.3,0.5c0.5,0.5,0.8,1,1.1,1.5
				c0.2,0.5,0.4,0.9,0.4,1.3c0,0.6-0.2,1.1-0.7,1.5c-0.5,0.4-1,0.7-1.6,0.7c-0.3,0-0.7-0.1-1-0.2c-0.3-0.1-0.7-0.3-1.1-0.6
				l-11.1,0.5c-0.8,0-1.6-0.2-2.1-0.6c-0.5-0.4-0.8-0.8-0.8-1.2c0-0.1,0.1-0.4,0.3-0.7c0.2-0.4,0.5-0.8,0.8-1.4
				c0.1-0.2,0.2-0.4,0.3-0.5c0.1-0.2,0.2-0.4,0.4-0.7c0.2,0.2,0.4,0.3,0.6,0.4c0.2,0.1,0.5,0.1,0.8,0l2.9-0.1v-2.1L82.6,28
				c-0.9,0-1.6-0.2-2.2-0.5c-0.5-0.3-0.8-0.7-0.8-1.2c0-0.2,0.1-0.6,0.4-1.1c0.3-0.5,0.7-1.2,1.2-2.1c0.1,0.1,0.3,0.1,0.5,0.2
				c0.2,0.1,0.4,0.1,0.6,0.1c0,0,0.1,0,0.2,0c0.1,0,0.2,0,0.3,0l2.5-0.1v-1.5l-3.3,0.2c-0.7,0-1.3-0.1-1.7-0.3
				c-0.4-0.3-0.6-0.7-0.6-1.2c0-0.4,0.3-1,0.8-1.8c0.4-0.6,0.8-1.2,1-1.6c0.1,0.1,0.3,0.2,0.5,0.3c0.2,0.1,0.4,0.1,0.6,0.1l10.9-0.4
				c0.3,0,0.5-0.1,0.7-0.3c0.2-0.1,0.3-0.3,0.4-0.6c0.1,0.1,0.2,0.2,0.3,0.3c0.1,0.1,0.2,0.2,0.3,0.3c0.7,0.6,1.2,1.2,1.6,1.6
				c0.4,0.4,0.6,0.9,0.6,1.3c0,0.4-0.2,0.8-0.6,1.2c-0.4,0.3-0.9,0.5-1.7,0.6L91.1,21.4z M91.1,27.5v2.1l1.8-0.1l-0.8-1.1l0.5-1
				L91.1,27.5z"/>
		</g>
		<g class="usesvg_mlogo2_text usesvg_mlogo2_text_3">
			<path class="svg__m__color" d="M142.7,32.2v-1.5c-2.6,0-4.6-0.4-6-1.1c-1.3-0.7-2-1.6-2-2.7c0-0.8,0.4-1.7,1.1-2.6c0.8-1,1.9-2,3.3-3
				c-1.2-0.2-2.1-0.6-2.7-1.2c-0.6-0.6-0.9-1.3-0.9-2.1c0-0.5,0.1-1.1,0.4-1.9c0.3-0.7,0.7-1.4,1.3-2.4c0,0.9,0.5,1.4,1.5,1.7
				c0.8,0.2,2.3,0.3,4.7,0.2c-0.1-1.2-0.3-2-0.7-2.6c-0.4-0.6-1.1-0.8-1.9-0.8c-0.1,0-0.2,0-0.2,0c-0.1,0-0.1,0-0.2,0
				c1-1.1,1.9-2,2.7-2.5c0.9-0.6,1.7-0.9,2.5-0.9c1.4,0,2.5,0.4,3.4,1.1c0.9,0.7,1.3,1.5,1.3,2.5c0,0.3-0.1,0.7-0.2,1.1
				c-0.1,0.5-0.2,1-0.4,1.6c0.7-0.1,1.3-0.2,2-0.4c0.6-0.2,1.2-0.4,1.7-0.6c1,0.7,1.7,1.4,2.2,1.9c0.5,0.6,0.7,1.1,0.7,1.6
				c0,1.1-0.6,1.9-1.9,2.5c-1.2,0.6-3.1,1-5.6,1.2l-0.2,2.8c0.9-0.1,1.5-0.3,2-0.5c0.4-0.2,0.7-0.5,0.7-0.7c0-0.1,0-0.2-0.1-0.3
				c-0.1-0.1-0.2-0.2-0.3-0.4c0.4,0,0.9,0.1,1.3,0.1c0.5,0,1,0.1,1.7,0c1.2,0,2.1,0.2,2.8,0.8c0.7,0.6,1.1,1.4,1.1,2.5
				c0,1.4-0.8,2.4-2.3,3.1c-1.4,0.7-3.8,1.2-7,1.5l-0.1,1.3c0,1.3,0.4,2.3,1.3,3c0.9,0.7,2.1,1.1,3.7,1.1c2.5,0,4.4-0.6,5.9-1.9
				c1.4-1.3,2.2-3.1,2.2-5.3c0-1.5-0.4-2.9-1.1-4.3c-0.7-1.4-1.8-2.7-3.2-4c3.4,0.5,6,1.7,7.8,3.6c1.8,1.9,2.7,4.3,2.7,7.3
				c0,3.2-1.2,5.9-3.6,8c-2.4,2.1-5.5,3.1-9.4,3.1c-3.7,0-6.6-0.9-8.7-2.6C143.8,38,142.7,35.5,142.7,32.2z M143.2,24.6l0.1-3.1
				c-0.8,0-1.5,0-2.1-0.1c-0.6,0-1.2-0.1-1.8-0.2c-0.3,0.4-0.5,0.7-0.6,1c-0.1,0.3-0.2,0.6-0.2,0.8c0,0.5,0.4,0.9,1.1,1.1
				C140.5,24.5,141.6,24.6,143.2,24.6z"/>
		</g>
		<g class="usesvg_mlogo2_text usesvg_mlogo2_text_4">
			<path class="svg__m__color" d="M219.3,17.5c-1.1,1-2.9,2.1-5.3,3.4c-1.8,1-4.6,2.4-8.3,4.3c6,2.1,10.3,4.1,13,6c2.9,2.1,4.3,4.3,4.3,6.8
				c0,1.5-0.4,2.7-1.1,3.6c-0.8,0.9-1.7,1.4-2.8,1.4c-0.5,0-1.4-0.3-2.8-1c-1.6-0.8-2.9-1.4-4-1.7c0.6-0.3,1-0.6,1.3-1
				c0.3-0.4,0.4-0.8,0.4-1.2c0-0.2-0.1-0.5-0.3-0.7c-0.2-0.3-0.4-0.5-0.7-0.8c-1.9-1.6-3.7-2.9-5.6-3.9c-1.9-1-3.8-1.8-5.8-2.3
				c-1.7-0.4-3-0.9-3.8-1.4c-0.8-0.5-1.3-1.5-1.3-2.9c0-1.5,0.2-2.5,0.7-2.9c0.5-0.4,1.2-0.7,2.2-1c1.9-0.6,4-1.6,6.3-3.1
				c2.4-1.6,4.7-3.5,7.1-5.9c0.1-0.2,0.3-0.4,0.4-0.5c0.1-0.2,0.2-0.3,0.2-0.4c0-0.2-0.2-0.4-0.5-0.6c-0.3-0.2-0.8-0.5-1.5-0.8
				c0.8-0.2,1.9-0.4,3.1-0.8c1-0.3,1.6-0.5,2-0.5c1.5,0,2.9,0.6,4.2,1.8c1.3,1.2,2,2.4,2,3.6c0,0.8-0.3,1.4-0.9,1.9
				C221.3,17,220.4,17.4,219.3,17.5z M217.3,20.6c0.4-0.1,0.8-0.3,1.1-0.3c0.4-0.1,0.7-0.1,1-0.1c0.9,0,1.7,0.3,2.3,0.8
				c0.6,0.5,0.9,1.1,0.9,1.8c0,0.6-0.2,1.1-0.6,1.6c-0.4,0.4-0.9,0.6-1.5,0.6c-0.6,0-1.1-0.5-1.6-1.5
				C218.5,22.3,217.9,21.3,217.3,20.6z M222.1,19c0.4-0.2,0.8-0.3,1.2-0.4c0.4-0.1,0.8-0.1,1.1-0.1c0.9,0,1.6,0.3,2.1,0.8
				c0.5,0.5,0.8,1.2,0.8,2c0,0.6-0.2,1.1-0.5,1.5c-0.3,0.4-0.7,0.6-1.2,0.6c-0.7,0-1.3-0.5-1.8-1.6C223.3,20.5,222.7,19.7,222.1,19z
				"/>
		</g>
		<g class="usesvg_mlogo2_text usesvg_mlogo2_text_5">
			<path class="svg__m__color" d="M272.2,25.1l0.1,3c0,1.2-0.3,2.1-0.9,2.8c-0.6,0.7-1.4,1-2.5,1c-1.5,0-2.8-0.7-4-2.1
				c-1.2-1.4-1.8-3.2-1.8-5.4c0-1.6,0.5-3.9,1.4-6.6c0.6-1.8,1-3,1-3.7c0-0.6-0.1-1-0.4-1.4c-0.3-0.4-0.7-0.6-1.3-0.7
				c1-0.8,1.8-1.3,2.5-1.7c0.8-0.4,1.5-0.6,2.1-0.6c1,0,1.9,0.4,2.8,1.3c0.8,0.9,1.3,1.9,1.3,3c0,0.9-0.2,1.6-0.5,2.3
				c-0.4,0.7-0.8,1.3-1.3,2c-0.3,0.5-0.7,0.9-0.9,1.3c-0.3,0.4-0.5,0.8-0.7,1.1c-0.2,0.3-0.4,0.7-0.4,0.9c-0.1,0.3-0.1,0.5-0.1,0.8
				c0,0.5,0.1,0.8,0.4,1.2c0.2,0.3,0.5,0.5,0.8,0.5c0.2,0,0.5-0.1,0.7-0.4c0.2-0.2,0.5-0.6,0.7-1.1c1.3-3.1,2.8-5.4,4.3-7
				c1.6-1.5,3.3-2.3,5.2-2.3c2.1,0,3.7,1.1,5,3.3c1.3,2.3,2,5.6,2,9.8c0,5.3-1.3,9.2-4,11.9c-2.6,2.7-6.1,4-10.5,4
				c-1.2,0-2.1-0.1-2.7-0.4c-0.6-0.3-1.1-0.8-1.7-1.7c0,0-0.1-0.1-0.1-0.2c0-0.1-0.1-0.2-0.1-0.2c-0.2-0.4-0.6-0.9-1-1.5
				c-0.4-0.6-1.1-1.3-2-2c0.7,0.1,1.4,0.2,2,0.3c0.6,0.1,1.2,0.1,1.7,0.1c3.5,0,6.3-0.9,8.2-2.7c1.9-1.8,2.9-4.8,2.9-8.9
				c0-2.6-0.3-4.6-0.8-5.8c-0.5-1.2-1.2-1.8-2.2-1.8c-1,0-2,0.5-2.9,1.4c-1,1-1.7,2.4-2.1,4c-0.1,0.4-0.1,0.7-0.2,1.1
				C272.2,24.5,272.2,24.8,272.2,25.1z"/>
		</g>
		<g class="usesvg_mlogo2_text usesvg_mlogo2_text_6">
			<path class="svg__m__color" d="M333.6,11.3l5.2-0.3c0-0.3-0.1-0.6-0.2-0.8c-0.1-0.2-0.3-0.4-0.6-0.6c1.1-0.5,1.9-0.8,2.5-1
				c0.7-0.3,1.4-0.4,1.9-0.4c0.8,0,1.4,0.2,2,0.5c0.5,0.3,0.8,0.6,0.8,1c0,0.2,0,0.3-0.1,0.5c-0.1,0.2-0.2,0.4-0.3,0.5l3.7-0.1
				c0.3,0,0.6-0.1,0.9-0.2c0.2-0.1,0.5-0.3,0.7-0.6c1.4,0.8,2.3,1.4,2.8,1.9c0.6,0.5,1,1.1,1,1.7c0,0.6-0.3,1-0.8,1.3
				c-0.6,0.3-1.4,0.5-2.4,0.5c-0.1,0-0.3,0-0.4,0c-0.1,0-0.3,0-0.4,0l-5,0.2v1.4c0.3-0.1,0.5-0.2,0.8-0.3c0.2-0.1,0.5-0.2,0.7-0.4
				c1.8,0.7,3.1,1.2,3.8,1.7c0.9,0.5,1.3,1,1.3,1.5c0,0.3-0.1,0.6-0.2,0.8c-0.2,0.2-0.4,0.4-0.7,0.5v8.4l-10.7,0.4v1.3l9.1-0.4
				c0.3,0,0.6,0,0.8-0.1c0.3-0.1,0.5-0.2,0.7-0.4c1.2,0.6,2,1.1,2.5,1.5c0.6,0.5,0.9,1,0.9,1.5c0,0.5-0.3,1-0.8,1.3
				c-0.6,0.3-1.4,0.5-2.4,0.5l-5.9,0.2l9.8,2.5c-0.7,0.9-1.2,2.1-1.5,3.6c-0.3,1.1-0.7,1.7-1.3,1.7c-1.2,0-2.9-0.5-5.2-1.4
				c-2.7-1.1-5-2.5-6.7-4.1v3.6c0,0.7-0.3,1.4-0.8,2c-0.6,0.6-1.1,0.9-1.5,0.9c-0.4,0-1-0.2-1.7-0.7c-0.8-0.5-1.6-1.2-2.4-2.1
				c0.2-0.2,0.3-0.4,0.4-0.7c0.1-0.2,0.1-0.5,0.1-0.8v-2.4c-2.6,2-5.1,3.5-7.4,4.6c-2,0.9-3.6,1.4-4.7,1.4c-0.5,0-0.9-0.1-1.2-0.4
				c-0.3-0.3-0.4-0.6-0.4-1c0-0.4,0.4-1.1,1.2-2.2c0.7-1,1.2-1.9,1.6-2.5c0.1,0.1,0.3,0.2,0.4,0.3c0.1,0,0.3,0.1,0.4,0.1
				c0.2,0,0.7-0.1,1.3-0.4c0.6-0.3,1.5-0.7,2.6-1.3l-4.2,0.1c-1.1,0.1-2.1,0-2.8-0.4c-0.7-0.3-1-0.8-1-1.3c0-0.2,0.2-0.6,0.7-1.1
				c0.5-0.5,1.2-1.2,2.2-2c0.2,0.2,0.5,0.4,0.7,0.4c0.2,0.1,0.5,0.1,0.8,0l9.8-0.3v-1.3l-5.1,0.2c-0.3,0.2-0.6,0.4-0.8,0.5
				c-0.2,0.1-0.5,0.2-0.7,0.2c-0.6,0-1.2-0.2-2-0.7c-0.8-0.6-1.5-1.3-2.1-2.3c0.1-0.3,0.3-0.5,0.4-0.8s0.1-0.6,0.1-0.9v-4.3
				c0-0.2-0.1-0.5-0.2-0.6c-0.1-0.2-0.3-0.4-0.5-0.5c1-1.2,1.8-2,2.5-2.6c0.7-0.6,1.3-0.9,1.8-0.9c0.1,0,0.3,0,0.5,0.1
				c0.2,0.1,0.4,0.1,0.6,0.3v-1.3l-5.4,0.3c-0.9,0-1.6-0.2-2.1-0.5c-0.5-0.4-0.7-0.8-0.7-1.3c0-0.3,0.1-0.7,0.4-1
				c0.3-0.3,0.6-0.7,1-1.2c0.1-0.1,0.3-0.3,0.4-0.4c0.1-0.1,0.3-0.3,0.5-0.5c0.2,0.3,0.5,0.4,0.7,0.5c0.3,0.1,0.6,0.1,1,0.1l4.2-0.2
				c0-0.3,0-0.6-0.1-0.8c-0.1-0.2-0.2-0.4-0.4-0.6c0.9-0.6,1.7-1,2.5-1.3c0.8-0.3,1.5-0.5,2.2-0.5c0.7,0,1.2,0.2,1.6,0.5
				c0.4,0.3,0.6,0.7,0.6,1.1c0,0.2-0.1,0.4-0.2,0.6c-0.1,0.2-0.2,0.4-0.4,0.5V11.3z M328.9,20.5V22l4.5-0.2v-1.4L328.9,20.5z
				 M328.9,25.1v1.4l4.5-0.2v-1.3L328.9,25.1z M333.6,15.7v1.5l5.2-0.2v-1.5L333.6,15.7z M343.9,21.5v-1.4l-4.5,0.2v1.3L343.9,21.5z
				 M339.4,26l4.5-0.1v-1.4l-4.5,0.1V26z"/>
		</g>
		<g class="usesvg_mlogo2_text usesvg_mlogo2_text_7">
			<path class="svg__m__color" d="M404.3,23.5l5.2-0.3c0.4,0,0.8,0,1.1-0.2c0.3-0.1,0.5-0.4,0.7-0.8c1.7,0.8,3,1.6,3.8,2.5
				c0.9,0.9,1.3,1.8,1.3,2.8c0,0.9-0.2,1.6-0.7,2.2c-0.5,0.6-1.1,0.9-1.7,0.9c-0.4,0-0.9-0.1-1.6-0.3c-0.6-0.2-1.4-0.6-2.2-1
				l-6.1,0.3c0.2,0.9,0.4,1.8,0.4,2.6c0.1,0.9,0.1,1.8,0.1,2.7c0,2.6-0.9,4.6-2.6,6.1c-1.7,1.5-3.9,2.2-6.7,2.2
				c-0.7,0-1.2-0.1-1.6-0.4s-0.6-0.8-0.6-1.5c0-1.3-0.3-2.2-0.8-2.8c-0.5-0.6-1.6-1-3.3-1.3v-1.5c1,0.1,1.9,0.3,2.8,0.3
				c0.8,0.1,1.7,0.1,2.5,0.1c1.2,0,2-0.3,2.5-0.8c0.5-0.5,0.7-1.5,0.7-2.9l-0.2-2.6l-8.7,0.4c-0.7,0.3-1.2,0.5-1.7,0.6
				c-0.5,0.1-0.9,0.2-1.3,0.2c-0.8,0-1.5-0.4-2.2-1.2c-0.7-0.8-1.1-1.5-1.1-2.1c0-0.2,0.1-0.5,0.2-0.7c0.2-0.3,0.4-0.6,0.7-0.9
				c0.3-0.3,0.7-0.7,1.1-1.1c0.4-0.4,1-0.9,1.5-1.5c0.3,0.3,0.6,0.5,1,0.6c0.4,0.1,0.8,0.2,1.2,0.2l7.8-0.3
				c-0.3-0.7-0.5-1.2-0.8-1.7c-0.3-0.5-0.7-0.8-1.1-1c1.2-1,2-1.7,2.6-2.1c0.8-0.5,1.5-0.8,2.1-0.8c0.4,0,0.8,0.1,1.1,0.3
				c0.4,0.2,0.7,0.5,1.1,1l3.5-3L391,17c-1.8,0.1-3.2,0-4.1-0.5c-0.9-0.4-1.4-1-1.4-1.8c0-0.3,0.2-0.7,0.5-1.1
				c0.3-0.5,0.8-1,1.4-1.7c0.1-0.2,0.3-0.4,0.4-0.5c0.2-0.2,0.3-0.4,0.5-0.6c0.2,0.2,0.4,0.3,0.7,0.3c0.2,0.1,0.5,0.1,0.8,0.1
				l14-0.4c0.5,0,1-0.1,1.5-0.3c0.4-0.2,0.8-0.5,1.2-0.9c2.1,1.2,3.8,2.6,5,4c1.1,1.3,1.7,2.5,1.7,3.5c0,0.7-0.3,1.3-1,1.8
				c-0.6,0.5-1.5,0.7-2.6,0.7L404.3,23.5z"/>
		</g>
		<g class="usesvg_mlogo2_text usesvg_mlogo2_text_8">
			<path class="svg__m__color" d="M469.1,32.1v3.2c0,0.4,0.1,0.7,0.2,0.9c0.2,0.2,0.4,0.3,0.9,0.3h0.7c0.8,0,1.4-0.3,1.8-0.8
				c0.3-0.6,0.6-1.6,0.9-2.9l1.2,0.1c-0.1,0.6,0,1.1,0.2,1.5c0.2,0.4,0.6,0.7,1.1,1.1c0.5,0.3,1,0.6,1.5,0.7
				c0.5,0.2,0.7,0.5,0.7,1.2c0,1.6-0.5,2.9-1.6,4c-1.1,1.1-2.5,1.6-4.3,1.6c-0.1,0-0.2,0-0.3,0c-0.1,0-0.2,0-0.3,0h-5.5
				c-1.2,0-2.2-0.3-2.8-1c-0.7-0.7-1-1.7-1-3v-6.4l-3.3,0.2c-0.4,1.9-1,3.5-2,5c-1,1.5-2.3,2.7-3.9,3.7c-1.1,0.7-2.2,1.3-3.3,1.7
				c-1,0.3-1.9,0.5-2.6,0.5c-0.7,0-1.3-0.2-1.7-0.5c-0.4-0.3-0.6-0.7-0.6-1.1c0-0.3,0.2-0.8,0.6-1.6c0.7-1.3,1.1-2.4,1.3-3.4
				c1.1-0.1,2.1-0.5,3-1.2c0.9-0.7,1.7-1.7,2.2-2.9l-4.6,0.2c-1,0.1-1.8-0.1-2.4-0.4c-0.6-0.4-0.9-0.8-0.9-1.3
				c0-0.3,0.2-0.7,0.5-1.2c0.3-0.5,0.8-1,1.3-1.7c0.1-0.1,0.2-0.3,0.4-0.5c0.1-0.2,0.3-0.3,0.4-0.5c0.3,0.1,0.6,0.2,0.9,0.2
				c0.3,0,0.7,0,1,0l4.2-0.2v-3.2h-0.4c-1.3,1-2.4,1.7-3.3,2.2c-1,0.5-2,0.7-2.8,0.7c-0.8,0-1.4-0.1-1.9-0.4
				c-0.4-0.3-0.6-0.6-0.6-1.1c0-0.4,0.2-1.1,0.6-2.1c0.4-1.1,0.7-2,0.9-2.8l0.7,0.2c0.2,0,0.5-0.1,0.9-0.2c0.4-0.1,0.8-0.3,1.2-0.6
				c-0.3-0.3-0.7-0.6-1.1-0.9c-0.4-0.2-0.8-0.4-1.3-0.6c0.3-0.7,0.7-1.4,1.1-1.9c0.4-0.5,0.9-0.9,1.5-1.2l-1.4,0.1
				c-0.9,0.1-1.7,0-2.2-0.4c-0.5-0.3-0.7-0.7-0.7-1.2c0-0.5,0.3-1.2,0.9-2c0.5-0.7,0.9-1.3,1.1-1.8c0.2,0.1,0.4,0.1,0.6,0.2
				s0.4,0.1,0.6,0.1c0.1,0,0.2,0,0.3,0c0.1,0,0.2,0,0.3,0l7.2-0.4c0.3,0,0.6-0.1,0.9-0.3c0.3-0.1,0.5-0.3,0.7-0.6
				c1.1,0.8,2,1.5,2.6,2c0.7,0.6,1.3,1.1,1.6,1.5c0.5-0.7,1.1-1.3,1.7-1.7c0.6-0.5,1.2-0.8,1.8-1.1c0.1,0.5,0.2,1,0.5,1.4
				c0.2,0.5,0.5,0.9,0.8,1.3c0.4-0.4,0.7-0.8,1-1.1c0.2-0.3,0.4-0.6,0.4-0.9c0-0.1,0-0.2-0.1-0.3c0-0.1-0.1-0.2-0.2-0.3
				c0.4-0.2,0.8-0.4,1.2-0.5c0.4-0.1,0.8-0.2,1.1-0.2c0.9,0,1.8,0.3,2.6,0.8c0.8,0.5,1.2,1.1,1.2,1.5c0,0.2-0.1,0.4-0.2,0.5
				c-0.1,0.2-0.4,0.4-0.7,0.6c-0.6,0.7-1.2,1.2-1.8,1.7c-0.6,0.5-1,0.9-1.5,1.2l1,0.8c0.9-0.6,1.5-1.2,1.9-1.6
				c0.5-0.5,0.7-1,0.8-1.5l2.1-0.2c1,0,1.9,0.3,2.6,0.9c0.7,0.6,1,1.2,1,1.8c0,0.4-0.2,0.7-0.5,0.9c-0.3,0.2-0.8,0.5-1.4,0.8
				c-0.3,0.2-0.6,0.3-0.9,0.5c-0.3,0.2-0.7,0.4-1.1,0.6c0.6,0.2,1.3,0.3,1.9,0.4c0.6,0.1,1.3,0.2,1.9,0.3c-0.2,1-0.4,1.8-0.6,2.5
				c-0.2,0.7-0.4,1.4-0.6,1.9c-0.2,0.5-0.5,1-0.8,1.3c-0.3,0.3-0.7,0.5-1.1,0.6c1.1,0.7,1.8,1.4,2.4,2c0.5,0.6,0.8,1.2,0.8,1.8
				c0,0.6-0.2,1.1-0.5,1.5c-0.3,0.3-0.8,0.5-1.4,0.5c-0.1,0-0.2,0-0.3,0c-0.1,0-0.2,0-0.3,0L469.1,32.1z M454.8,15l-4.8,0.5
				c0.6,0.2,1.1,0.5,1.5,0.7c0.4,0.3,0.7,0.7,0.8,1.1c0.4-0.3,0.8-0.7,1.2-1.1C454,15.9,454.4,15.4,454.8,15z M460.5,16.5l-2,2.5
				l5.2-0.2c-0.5-0.4-0.9-0.8-1.3-1.3c-0.4-0.4-0.8-0.9-1.1-1.4L460.5,16.5z M462.5,23.8l-2.9,0.1v3.2l2.9-0.2V23.8z M469.1,26.7
				l3-0.1c0.2,0,0.5,0,0.8-0.1c0.3-0.1,0.6-0.2,0.9-0.3c-0.7-0.2-1.4-0.5-2.2-0.9c-0.8-0.4-1.6-1-2.5-1.7V26.7z"/>
		</g>
		<g class="usesvg_mlogo2_text usesvg_mlogo2_text_9">
			<path class="svg__m__color" d="M508.9,15.8v-2c-0.1-0.5-0.3-0.9-0.5-1.3c-0.2-0.3-0.6-0.6-1-0.7c1-1,1.8-1.8,2.6-2.3
				c0.7-0.6,1.2-0.8,1.6-0.8c0.4,0,1.1,0.3,1.9,1c0.8,0.7,1.2,1.3,1.2,1.8c0,0.2-0.1,0.4-0.2,0.7c-0.1,0.2-0.3,0.5-0.5,0.8v2.7h0.2
				c0.2,0,0.5,0,0.7-0.1c0.2-0.1,0.4-0.2,0.6-0.4c0.3,0.7,0.5,1.3,0.7,1.9c0.2,0.6,0.3,1.1,0.3,1.7c0,0.9-0.2,1.6-0.6,2
				c-0.4,0.4-0.9,0.6-1.7,0.5l-0.1,2.7l2.4-0.5c-0.1,0.8-0.2,1.4-0.2,2c0,0.6,0,1.1-0.1,1.5c0,0.8-0.1,1.4-0.2,1.8
				c-0.1,0.4-0.4,0.6-0.8,0.5l-1.1,0.3v10.8c-0.2,0.9-0.6,1.6-1.4,2.1c-0.8,0.5-1.8,0.8-3,0.8c-0.6,0-1-0.1-1.1-0.2
				c-0.1-0.2-0.2-0.6-0.3-1.2c0-0.2-0.1-0.5-0.1-0.7c0-0.2,0-0.4,0-0.7c-0.1-0.9-0.2-1.6-0.4-2c-0.1-0.4-0.5-0.6-1.2-0.6v-1h1.7
				c0.2,0,0.4-0.1,0.5-0.2c0.1-0.1,0.1-0.3,0.1-0.6v-5.2l-1.4,0.3c0,0.3-0.1,0.6-0.2,0.7c-0.1,0.2-0.3,0.3-0.5,0.3
				c-0.3,0-0.7-0.3-1.1-0.9c-0.4-0.7-0.6-1.4-0.6-2.2c0-0.3,0.1-0.7,0.2-1.2c0.1-0.4,0.3-0.9,0.5-1.5c0.1-0.2,0.1-0.4,0.2-0.5
				c0.1-0.2,0.1-0.4,0.2-0.6l0.7,0.1l2.1-0.4v-3.5l-0.8,0c-0.1,0.2-0.3,0.3-0.4,0.4c-0.1,0.1-0.3,0.1-0.4,0.1c-0.5,0-1-0.3-1.4-0.9
				c-0.5-0.7-0.7-1.5-0.7-2.4c0-0.5,0.1-1,0.4-1.6c0.3-0.5,0.7-1.1,1.2-1.9c0.2,0.2,0.3,0.3,0.5,0.4c0.2,0.1,0.4,0.1,0.7,0.1
				L508.9,15.8z M539.2,21.5l-5.6,0.2l0.3,0.9l-0.2,0.8v3.2l1.7-0.1v-2.1c-0.1-0.2-0.2-0.3-0.3-0.4c-0.1-0.1-0.2-0.1-0.4-0.1
				c0.5-0.5,0.9-0.9,1.2-1.2c0.3-0.3,0.7-0.4,1-0.4c0.6,0,1.2,0.2,1.8,0.7c0.6,0.4,0.9,0.8,0.9,1.2c0,0.1-0.1,0.3-0.2,0.4
				c-0.1,0.1-0.2,0.3-0.4,0.4v6.4l-5.5,0.3V37h1.7v-2c0-0.2-0.1-0.4-0.2-0.6s-0.2-0.2-0.4-0.3c0.4-0.6,0.9-1,1.3-1.3
				c0.4-0.3,0.9-0.4,1.3-0.4c0.7,0,1.3,0.2,1.8,0.6c0.5,0.4,0.8,0.8,0.8,1.3c0,0.1,0,0.3-0.1,0.5c-0.1,0.2-0.2,0.4-0.4,0.6v6.5
				c0,0.6-0.1,1.1-0.5,1.4c-0.3,0.3-0.9,0.4-1.6,0.4c-0.7,0-1.2-0.1-1.6-0.4c-0.3-0.2-0.5-0.7-0.5-1.3v-0.4l-8.4,0.3
				c-0.2,0.7-0.4,1.2-0.7,1.5c-0.3,0.3-0.6,0.5-1,0.5c-0.6,0-1.1-0.2-1.6-0.7c-0.6-0.5-1-1.1-1.2-2c0.1-0.1,0.1-0.2,0.2-0.4
				c0.1-0.1,0.1-0.3,0.1-0.5v-4.4c0-0.3-0.1-0.5-0.2-0.7c-0.1-0.2-0.4-0.3-0.7-0.4c0.6-0.5,1.1-0.9,1.5-1.2c0.4-0.3,0.8-0.4,1.2-0.4
				c0.5,0,1.1,0.2,1.9,0.7c0.7,0.4,1.1,0.8,1.1,1.1c0,0.1,0,0.3-0.1,0.5c-0.1,0.2-0.2,0.3-0.4,0.5v1.2l1.7-0.1v-5.4l-1.5,0.1
				c-0.2,0.3-0.4,0.5-0.6,0.7c-0.2,0.2-0.4,0.2-0.6,0.2c-0.4,0-0.8-0.2-1.3-0.7c-0.5-0.5-1-1.3-1.5-2.2c0.1-0.1,0.1-0.3,0.2-0.5
				c0.1-0.2,0.1-0.3,0.1-0.5v-3.1c0-0.2-0.1-0.4-0.2-0.5c-0.1-0.1-0.2-0.2-0.4-0.3c0.4-0.6,0.8-1,1.3-1.3c0.5-0.3,0.9-0.4,1.2-0.4
				c0.5,0,0.9,0.2,1.4,0.5c0.5,0.3,0.7,0.6,0.7,0.7c0,0.1,0,0.2-0.1,0.3c-0.1,0.1-0.2,0.2-0.3,0.3V27l1.7-0.1v-2.4
				c0-0.2-0.1-0.4-0.3-0.6c-0.2-0.2-0.4-0.3-0.6-0.5l1.4-1.5l-7.3,0.3c-0.2,7.2-0.5,12.5-1,15.8c-0.6,3.4-1.4,5.2-2.6,5.2
				c-0.6,0-1.1-0.5-1.6-1.6c-0.5-1-1-2.6-1.5-4.9c0.6,0,1.1-1.3,1.4-3.7c0.3-2,0.4-5.6,0.6-10.8v-7.6c0-0.2-0.2-0.4-0.3-0.6
				c-0.2-0.2-0.4-0.4-0.7-0.6c1-1.4,1.7-2.3,2.2-2.7c0.6-0.7,1.2-1,1.8-1c0.3,0,0.7,0.1,1,0.3c0.3,0.2,0.6,0.5,0.9,0.9l11.6-0.6
				c0.4-0.1,0.7-0.2,1-0.4c0.2-0.2,0.4-0.4,0.5-0.7c1.7,0.8,3,1.5,4,2.2c0.9,0.7,1.3,1.3,1.3,1.8c0,0.3-0.1,0.6-0.3,0.9
				c-0.2,0.3-0.5,0.5-0.9,0.6V21.5z M522.5,15.1v2.3l11.6-0.5v-2.3L522.5,15.1z"/>
		</g>
	</g>
</g>
</svg>
