<?xml version="1.0" encoding="utf-8"?>
<!-- Generator: Adobe Illustrator 25.4.1, SVG Export Plug-In . SVG Version: 6.00 Build 0)  -->
<svg version="1.1" id="レイヤー_3" xmlns="http://www.w3.org/2000/svg" xmlns:xlink="http://www.w3.org/1999/xlink" x="0px"
	 y="0px" viewBox="0 0 130 431" style="enable-background:new 0 0 130 431;" xml:space="preserve">
<style type="text/css">
	.st0{fill:#121659;}
</style>
<g>
	<g>
		<path class="st0" d="M109.7,22.5v3.3l8.2-0.5c0.6,0,1.1-0.1,1.6-0.2c0.5-0.2,0.9-0.4,1.4-0.8c1.7,0.9,3,2,3.9,3.1
			c0.9,1.1,1.3,2.3,1.3,3.5c0,1.1-0.3,2-0.9,2.7c-0.6,0.7-1.4,1-2.5,1c-0.4,0-0.9-0.1-1.4-0.2c-0.5-0.2-1-0.4-1.5-0.8l-10,0.4v4.7
			l9.7-0.4c0.6,0,1.2-0.1,1.7-0.2c0.5-0.1,1.1-0.3,1.6-0.5c2.1,0.9,3.7,2,4.7,3.1c1,1.1,1.6,2.4,1.6,3.8c0,1.3-0.4,2.4-1.1,3.1
			c-0.7,0.7-1.7,1.1-2.9,1.1c-0.8,0-1.7-0.2-2.5-0.5c-0.8-0.3-1.7-0.8-2.6-1.5l-28.6,0.9c-0.7,0.6-1.4,1.1-2,1.4
			c-0.6,0.3-1.1,0.5-1.6,0.5c-1.3,0-2.6-0.5-3.9-1.6c-1.3-1.1-1.9-2.1-1.9-3.2c0-0.9,0.3-1.8,1-2.6c0.7-0.8,1.5-1.8,2.6-2.9
			c0.2-0.2,0.4-0.4,0.7-0.7s0.5-0.5,0.7-0.8c0.2,0.5,0.5,0.9,0.9,1.2c0.4,0.2,0.8,0.3,1.4,0.3l10.6-0.4v-4.6l-9.5,0.4
			c-1.6,0.1-2.9-0.1-3.7-0.7c-0.9-0.6-1.3-1.4-1.3-2.4c0-0.6,0.3-1.2,0.8-1.9c0.5-0.7,1.3-1.5,2.2-2.5c0.1-0.1,0.2-0.2,0.3-0.4
			c0.1-0.1,0.3-0.3,0.4-0.4c0.3,0.2,0.7,0.4,1.2,0.4c0.4,0.1,0.9,0.1,1.4,0.1l8.3-0.5v-3.5l-7.7,0.3c-0.2,0-0.4,0.1-0.5,0.1
			c-0.2,0-0.3,0-0.4,0c-0.9,0-1.5-0.2-2-0.5c-0.5-0.4-0.7-0.8-0.7-1.3c0-0.3,0.1-0.7,0.4-1.2c0.3-0.5,0.7-1.1,1.3-1.8
			c-1.6,0.7-3,1.2-4.3,1.6c-1.1,0.3-1.9,0.5-2.5,0.5c-0.7,0-1.3-0.2-1.8-0.6c-0.5-0.4-0.7-0.9-0.7-1.6c0-0.6,0.4-1.7,1.1-3.1
			c1-1.9,1.5-3.5,1.6-4.8c0.1,0.1,0.2,0.1,0.4,0.2c0.2,0,0.4,0.1,0.6,0.1c0.9,0,2.2-0.4,3.9-1.1c1.6-0.7,3.7-1.7,6.1-3.2
			c0.8-0.4,1.5-0.9,2.1-1.2c0.6-0.4,1.1-0.7,1.6-1c0.4-0.3,0.7-0.6,0.9-0.9c0.2-0.3,0.3-0.6,0.3-0.9L99,1.5c1.6-0.5,3.1-0.9,4.5-1.2
			c1.3-0.2,2.5-0.4,3.4-0.4c1.1,0,1.9,0.3,2.6,0.8c0.7,0.5,1,1.1,1,1.7L110,3.9c2.9,1.7,5.9,3.1,9.2,4.2c3.3,1.1,6.7,1.9,10.3,2.4
			c-0.2,0.6-0.4,1.2-0.5,1.7c-0.1,0.6-0.2,1.1-0.2,1.6l0.1,2.8c0,1.1-0.2,1.9-0.6,2.5c-0.4,0.5-1.1,0.8-1.9,0.8
			c-0.5,0-1.2-0.1-2-0.3c-0.8-0.2-1.8-0.6-3-1l0.3,1.6c0,0.7-0.2,1.2-0.5,1.5c-0.3,0.3-0.8,0.5-1.6,0.5L109.7,22.5z M95.2,15.7
			L113,15c-1.1-0.5-2.4-1.2-4-2c-1.5-0.8-3.3-1.8-5.2-3c-0.9,0.7-2.1,1.5-3.6,2.5C98.8,13.5,97.1,14.6,95.2,15.7z"/>
		<path class="st0" d="M119.3,105.7l-29.7,0.8c-0.4,0.5-0.8,0.9-1.2,1.2c-0.4,0.2-0.9,0.4-1.5,0.4c-0.9,0-1.8-0.5-2.8-1.6
			c-1-1.1-2.1-2.7-3.2-4.8c0.4-0.6,0.7-1.3,0.9-1.9c0.2-0.7,0.3-1.5,0.3-2.3V68.9c0-0.7-0.1-1.3-0.3-1.7c-0.2-0.5-0.6-0.8-1.2-1
			c1.3-2.1,2.6-3.7,3.8-4.8c1.2-1.1,2.2-1.6,3.1-1.6c0.5,0,1,0.1,1.4,0.4c0.4,0.3,0.8,0.6,1.1,1.2l27.8-0.7c0.7,0,1.3-0.2,1.8-0.5
			c0.5-0.3,0.9-0.8,1.3-1.4c2.9,1.3,5.2,2.6,6.7,3.9c1.5,1.2,2.2,2.4,2.2,3.4c0,0.4-0.2,0.8-0.5,1.2c-0.3,0.4-0.8,0.7-1.4,1.1v36.2
			c0.1,1.3-0.2,2.3-1,3c-0.8,0.7-1.9,1.1-3.5,1.1c-1.3,0-2.4-0.2-3-0.6c-0.7-0.4-1-1-1-1.8V105.7z M90.5,68.6V98l28.8-0.9V67.7
			L90.5,68.6z M108.4,76.5v2.2l3.4-0.2c0.4,0,0.8,0,1.2-0.1c0.3-0.1,0.6-0.2,0.9-0.4c1.1,0.9,2,1.7,2.6,2.3c0.6,0.7,0.9,1.4,0.9,2
			c0,0.7-0.2,1.2-0.6,1.7c-0.4,0.4-1,0.7-1.7,0.9c0.5,0.4,0.9,0.9,1.1,1.3c0.2,0.4,0.4,0.9,0.4,1.3c0,0.2-0.1,0.5-0.2,0.7
			c-0.1,0.3-0.3,0.5-0.5,0.7c0.7,0.7,1.2,1.4,1.5,2.1c0.4,0.7,0.5,1.3,0.5,1.8c0,0.8-0.3,1.6-1,2.2c-0.7,0.6-1.4,1-2.4,1
			c-0.5,0-1-0.1-1.5-0.3c-0.5-0.2-1-0.5-1.5-0.8l-15.9,0.8c-1.2,0-2.2-0.3-3.1-0.9c-0.7-0.6-1.1-1.1-1.1-1.7c0-0.2,0.1-0.6,0.4-1.1
			c0.3-0.5,0.7-1.2,1.2-2.1c0.2-0.2,0.3-0.5,0.5-0.8s0.3-0.6,0.5-0.9c0.2,0.2,0.5,0.4,0.8,0.5c0.3,0.1,0.7,0.1,1.1,0.1l4.2-0.2v-3
			l-4,0.2c-1.3,0-2.3-0.2-3.1-0.8c-0.7-0.5-1.1-1.1-1.1-1.7c0-0.3,0.2-0.8,0.6-1.6c0.4-0.7,1-1.7,1.7-3c0.2,0.1,0.4,0.2,0.7,0.3
			c0.3,0.1,0.6,0.1,0.9,0.1c0.1,0,0.2,0,0.3,0c0.1,0,0.3,0,0.4,0l3.6-0.2v-2.2l-4.8,0.2c-1.1,0.1-1.9-0.1-2.4-0.5s-0.8-1-0.8-1.7
			c0-0.5,0.4-1.4,1.2-2.6c0.6-0.9,1.1-1.7,1.4-2.3c0.2,0.2,0.4,0.3,0.7,0.4c0.3,0.1,0.6,0.1,0.9,0.1L112,70c0.4-0.1,0.8-0.2,1-0.4
			c0.3-0.2,0.5-0.5,0.6-0.9c0.1,0.1,0.3,0.3,0.4,0.4c0.1,0.1,0.3,0.3,0.4,0.4c1,0.9,1.8,1.7,2.3,2.3c0.6,0.6,0.9,1.3,0.9,1.9
			c0,0.6-0.3,1.2-0.9,1.7c-0.6,0.5-1.4,0.8-2.4,0.9L108.4,76.5z M108.4,85.3v3.1l2.6-0.1l-1.2-1.6l0.7-1.5L108.4,85.3z"/>
		<path class="st0" d="M93.6,150.2V148c-3.7-0.1-6.6-0.6-8.6-1.6c-1.9-0.9-2.8-2.2-2.8-3.9c0-1.2,0.5-2.4,1.5-3.8
			c1.1-1.4,2.7-2.8,4.8-4.3c-1.7-0.3-3-0.9-3.8-1.8c-0.9-0.9-1.3-1.9-1.3-3c0-0.7,0.2-1.6,0.6-2.7c0.4-0.9,1-2.1,1.8-3.4
			c0,1.3,0.8,2.1,2.2,2.4c1.1,0.3,3.4,0.4,6.8,0.3c-0.1-1.7-0.5-2.9-1.1-3.7c-0.6-0.8-1.5-1.2-2.7-1.2c-0.1,0-0.2,0-0.3,0
			s-0.2,0-0.3,0c1.5-1.7,2.8-2.9,3.9-3.6c1.2-0.8,2.4-1.3,3.6-1.3c2,0,3.6,0.5,4.9,1.5c1.3,1,1.9,2.2,1.9,3.6c0,0.4-0.1,1-0.2,1.6
			c-0.2,0.7-0.3,1.4-0.6,2.3c1-0.1,1.9-0.3,2.8-0.6c0.9-0.2,1.7-0.5,2.5-0.8c1.4,1.1,2.4,2,3.1,2.8c0.7,0.8,1.1,1.6,1.1,2.3
			c0,1.5-0.9,2.7-2.7,3.6c-1.7,0.8-4.4,1.4-8.1,1.7l-0.3,4.1c1.3-0.1,2.2-0.4,2.8-0.7c0.6-0.3,1-0.7,1-1c0-0.1-0.1-0.2-0.2-0.4
			c-0.1-0.1-0.3-0.3-0.5-0.5c0.6,0,1.2,0.1,1.9,0.2c0.7,0.1,1.5,0.1,2.4,0.1c1.7-0.1,3,0.3,4,1.1c1,0.8,1.5,2,1.5,3.6
			c0,1.9-1.1,3.4-3.3,4.5c-2.1,1-5.4,1.7-10,2.1l-0.1,1.8c0,1.8,0.6,3.2,1.9,4.3s3,1.5,5.3,1.5c3.6,0,6.4-0.9,8.5-2.8
			c2.1-1.9,3.1-4.4,3.1-7.6c0-2.1-0.5-4.1-1.5-6.1c-1-2-2.6-3.9-4.6-5.8c4.9,0.8,8.6,2.5,11.2,5.2c2.6,2.7,3.9,6.2,3.9,10.5
			c0,4.7-1.7,8.5-5.2,11.5c-3.4,3-8,4.5-13.6,4.5c-5.3,0-9.5-1.2-12.5-3.7S93.6,155,93.6,150.2z M94.3,139.3l0.2-4.4
			c-1.1,0-2.2,0-3.1-0.1s-1.8-0.1-2.6-0.2c-0.4,0.5-0.7,1-0.9,1.4c-0.2,0.4-0.3,0.8-0.3,1.2c0,0.7,0.5,1.3,1.6,1.7
			C90.4,139.2,92,139.3,94.3,139.3z"/>
		<path class="st0" d="M114.9,187.2c-1.7,1.4-4.2,3-7.6,4.9c-2.6,1.4-6.6,3.4-12,6.1c8.6,3,14.8,5.9,18.8,8.7c4.2,3,6.2,6.2,6.2,9.8
			c0,2.2-0.5,3.9-1.6,5.2s-2.5,2-4.1,2c-0.7,0-2.1-0.5-4-1.5c-2.3-1.2-4.2-2-5.7-2.5c0.8-0.4,1.4-0.9,1.8-1.5
			c0.4-0.6,0.6-1.2,0.6-1.8c0-0.3-0.1-0.7-0.4-1c-0.2-0.4-0.6-0.8-1-1.2c-2.7-2.3-5.4-4.2-8.1-5.7c-2.7-1.5-5.5-2.6-8.3-3.3
			c-2.5-0.6-4.3-1.3-5.5-2c-1.2-0.7-1.8-2.1-1.8-4.1c0-2.2,0.3-3.6,1-4.1c0.7-0.5,1.7-1,3.2-1.5c2.8-0.8,5.8-2.3,9-4.5
			c3.4-2.3,6.8-5.1,10.2-8.5c0.2-0.3,0.4-0.5,0.5-0.8s0.2-0.4,0.2-0.6c0-0.3-0.2-0.6-0.8-0.9s-1.2-0.7-2.1-1.2
			c1.2-0.2,2.7-0.6,4.5-1.2c1.4-0.5,2.4-0.8,2.9-0.8c2.1,0,4.1,0.8,6.1,2.5c1.9,1.7,2.9,3.4,2.9,5.2c0,1.1-0.4,2-1.2,2.7
			S116.5,187,114.9,187.2z M112,191.7c0.6-0.2,1.1-0.4,1.7-0.5s1-0.2,1.4-0.2c1.3,0,2.5,0.4,3.4,1.1c0.9,0.7,1.3,1.6,1.3,2.5
			c0,0.9-0.3,1.6-0.9,2.3s-1.3,0.9-2.2,0.9s-1.6-0.7-2.3-2.2C113.7,194.1,112.9,192.7,112,191.7z M119,189.4
			c0.6-0.2,1.2-0.4,1.7-0.6c0.5-0.1,1.1-0.2,1.6-0.2c1.2,0,2.3,0.4,3,1.1c0.8,0.8,1.2,1.7,1.2,2.9c0,0.8-0.3,1.5-0.8,2.1
			c-0.5,0.6-1.1,0.8-1.7,0.8c-1,0-1.9-0.8-2.6-2.4C120.7,191.6,119.9,190.3,119,189.4z"/>
		<path class="st0" d="M102.1,256.4l0.2,4.3c0,1.7-0.5,3.1-1.4,4c-0.9,1-2.1,1.4-3.5,1.4c-2.1,0-4-1-5.7-3s-2.6-4.6-2.6-7.8
			c0-2.4,0.7-5.5,2.1-9.5c0.9-2.6,1.4-4.4,1.4-5.4c0-0.8-0.2-1.4-0.6-2c-0.4-0.5-1.1-0.8-1.9-1c1.4-1.1,2.6-1.9,3.6-2.4
			c1.1-0.6,2.2-0.9,3.1-0.9c1.4,0,2.8,0.6,4,1.9c1.2,1.2,1.8,2.7,1.8,4.3c0,1.2-0.3,2.3-0.8,3.3c-0.5,0.9-1.1,1.9-1.9,2.9
			c-0.5,0.7-0.9,1.4-1.3,1.9c-0.4,0.6-0.7,1.1-1,1.6c-0.3,0.5-0.5,1-0.6,1.4c-0.1,0.4-0.2,0.8-0.2,1.2c0,0.7,0.2,1.2,0.5,1.7
			s0.7,0.7,1.1,0.7c0.3,0,0.7-0.2,1-0.5s0.7-0.9,1-1.6c1.9-4.4,4-7.8,6.3-10c2.3-2.2,4.8-3.3,7.5-3.3c3,0,5.3,1.6,7.1,4.8
			c1.9,3.4,2.9,8,2.9,14.1c0,7.6-1.9,13.3-5.7,17.2c-3.8,3.9-8.8,5.8-15.1,5.8c-1.8,0-3.1-0.2-3.9-0.6s-1.6-1.2-2.5-2.5
			c-0.1-0.1-0.1-0.2-0.2-0.3c-0.1-0.1-0.1-0.2-0.2-0.3c-0.3-0.6-0.8-1.3-1.4-2.2c-0.6-0.9-1.6-1.9-2.8-2.9c1.1,0.2,2,0.3,2.9,0.4
			c0.9,0.1,1.7,0.1,2.5,0.1c5.1,0,9-1.3,11.8-3.8s4.2-6.8,4.2-12.8c0-3.8-0.4-6.6-1.1-8.4c-0.7-1.7-1.7-2.5-3.1-2.5
			c-1.4,0-2.8,0.7-4.1,2.1c-1.4,1.4-2.4,3.4-3.1,5.8c-0.1,0.5-0.2,1.1-0.3,1.6C102.1,255.4,102.1,255.9,102.1,256.4z"/>
		<path class="st0" d="M100.5,294.6l7.4-0.4c0-0.5-0.1-0.9-0.3-1.2c-0.2-0.3-0.5-0.6-0.9-0.8c1.5-0.7,2.7-1.2,3.6-1.5
			c1.1-0.4,2-0.6,2.7-0.6c1.1,0,2,0.3,2.8,0.8c0.8,0.4,1.2,0.9,1.2,1.4c0,0.2-0.1,0.5-0.2,0.7c-0.1,0.3-0.3,0.5-0.5,0.8l5.3-0.2
			c0.5,0,0.9-0.1,1.3-0.3c0.4-0.2,0.7-0.5,0.9-0.9c1.9,1.2,3.3,2.1,4,2.7c0.9,0.8,1.4,1.6,1.4,2.4c0,0.8-0.4,1.4-1.2,1.9
			c-0.8,0.5-2,0.7-3.5,0.7c-0.2,0-0.4,0-0.6,0c-0.2,0-0.4,0-0.6,0l-7.3,0.3v2c0.4-0.1,0.8-0.2,1.1-0.4c0.3-0.1,0.7-0.3,1-0.5
			c2.6,0.9,4.5,1.7,5.5,2.4c1.3,0.7,1.9,1.4,1.9,2.2c0,0.4-0.1,0.8-0.3,1.1c-0.2,0.3-0.6,0.6-1.1,0.8V320l-15.4,0.5v1.9l13.1-0.5
			c0.4,0,0.8-0.1,1.2-0.2c0.4-0.1,0.7-0.3,1.1-0.5c1.7,0.9,2.9,1.6,3.6,2.2c0.8,0.7,1.3,1.4,1.3,2.1c0,0.8-0.4,1.4-1.2,1.8
			c-0.8,0.4-2,0.7-3.5,0.7l-8.5,0.3l14.1,3.6c-1,1.3-1.8,3-2.2,5.1c-0.4,1.6-1,2.5-1.8,2.5c-1.7,0-4.2-0.7-7.5-2
			c-3.9-1.6-7.2-3.6-9.7-5.9v5.3c0,1.1-0.4,2.1-1.2,3c-0.8,0.9-1.5,1.3-2.2,1.3c-0.6,0-1.4-0.3-2.4-1c-1.1-0.7-2.3-1.7-3.5-3.1
			c0.3-0.3,0.4-0.6,0.5-0.9c0.1-0.3,0.2-0.7,0.2-1.1v-3.5c-3.8,2.9-7.4,5.1-10.7,6.6c-2.9,1.3-5.2,2-6.8,2c-0.7,0-1.3-0.2-1.7-0.6
			s-0.6-0.9-0.6-1.5c0-0.5,0.6-1.6,1.7-3.2c0.9-1.4,1.7-2.7,2.3-3.6c0.2,0.2,0.4,0.3,0.6,0.4c0.2,0.1,0.4,0.1,0.6,0.1
			c0.3,0,0.9-0.2,1.9-0.6c0.9-0.4,2.2-1,3.8-1.9l-6.1,0.2c-1.7,0.2-3,0-4-0.5c-1-0.5-1.4-1.1-1.4-1.9c0-0.3,0.3-0.9,1-1.6
			c0.7-0.8,1.8-1.7,3.1-2.8c0.3,0.3,0.7,0.5,1,0.6c0.4,0.1,0.7,0.1,1.2,0l14.1-0.5v-1.8l-7.3,0.3c-0.4,0.3-0.8,0.5-1.2,0.7
			c-0.4,0.2-0.7,0.2-1,0.2c-0.8,0-1.8-0.4-2.8-1.1c-1.2-0.8-2.2-1.9-3-3.3c0.2-0.4,0.4-0.7,0.5-1.1c0.1-0.4,0.2-0.8,0.2-1.3v-6.3
			c0-0.3-0.1-0.7-0.3-0.9c-0.2-0.3-0.4-0.5-0.7-0.7c1.4-1.7,2.6-2.9,3.5-3.7c1-0.8,1.8-1.3,2.5-1.3c0.2,0,0.4,0,0.7,0.1
			c0.3,0.1,0.6,0.2,0.9,0.4v-1.8l-7.8,0.4c-1.2,0-2.3-0.3-3-0.8c-0.7-0.5-1.1-1.2-1.1-1.9c0-0.5,0.2-1,0.6-1.5
			c0.4-0.5,0.9-1.1,1.5-1.7c0.2-0.2,0.4-0.4,0.6-0.6c0.2-0.2,0.4-0.5,0.7-0.7c0.3,0.4,0.7,0.6,1,0.8c0.4,0.1,0.9,0.2,1.4,0.1
			l6.1-0.3c0-0.5-0.1-0.9-0.2-1.2c-0.1-0.3-0.3-0.6-0.6-0.8c1.2-0.8,2.4-1.5,3.5-1.9c1.1-0.4,2.2-0.7,3.2-0.7c0.9,0,1.7,0.2,2.3,0.7
			c0.6,0.4,0.9,1,0.9,1.6c0,0.3-0.1,0.6-0.2,0.9s-0.3,0.5-0.5,0.8V294.6z M93.7,308v2.1l6.5-0.3v-2L93.7,308z M93.7,314.5v2l6.5-0.3
			v-1.9L93.7,314.5z M100.5,301v2.2l7.4-0.3v-2.1L100.5,301z M115.3,309.3v-2l-6.5,0.2v1.9L115.3,309.3z M108.8,315.8l6.5-0.2v-2
			l-6.5,0.2V315.8z"/>
		<path class="st0" d="M112.2,370.3l7.5-0.4c0.6,0,1.2,0,1.6-0.2c0.4-0.2,0.7-0.6,1-1.1c2.4,1.1,4.3,2.3,5.5,3.5
			c1.2,1.3,1.9,2.6,1.9,4.1c0,1.3-0.4,2.3-1.1,3.2c-0.7,0.8-1.5,1.2-2.5,1.2c-0.6,0-1.3-0.2-2.3-0.5c-0.9-0.3-2-0.8-3.2-1.4
			l-8.9,0.4c0.3,1.3,0.5,2.5,0.6,3.8c0.1,1.2,0.2,2.5,0.2,3.9c0,3.7-1.2,6.6-3.7,8.7s-5.7,3.2-9.6,3.2c-0.9,0-1.7-0.2-2.3-0.6
			s-0.9-1.1-0.9-2.1c0-1.8-0.4-3.2-1.1-4s-2.3-1.5-4.8-1.9V388c1.4,0.2,2.8,0.4,4,0.5c1.2,0.1,2.4,0.2,3.5,0.2
			c1.7,0,2.9-0.4,3.6-1.1c0.7-0.7,1-2.1,1-4.2l-0.3-3.8l-12.6,0.5c-0.9,0.4-1.8,0.7-2.5,0.9c-0.7,0.2-1.3,0.3-1.9,0.3
			c-1.1,0-2.2-0.6-3.2-1.8c-1-1.2-1.5-2.2-1.5-3.1c0-0.3,0.1-0.7,0.3-1c0.2-0.4,0.6-0.8,1-1.3c0.5-0.5,1-1,1.7-1.7
			c0.6-0.6,1.4-1.3,2.2-2.1c0.4,0.4,0.9,0.7,1.4,0.8c0.5,0.2,1.1,0.2,1.7,0.2l11.2-0.5c-0.4-0.9-0.8-1.8-1.2-2.4
			c-0.4-0.7-1-1.1-1.6-1.4c1.7-1.5,2.9-2.5,3.7-3c1.1-0.7,2.1-1.1,3.1-1.1c0.6,0,1.1,0.2,1.7,0.5c0.5,0.3,1.1,0.8,1.6,1.4l5-4.3
			L93,361.1c-2.6,0.2-4.6,0-6-0.7c-1.3-0.6-2-1.5-2-2.6c0-0.4,0.2-0.9,0.8-1.6c0.5-0.7,1.2-1.5,2.1-2.4c0.2-0.3,0.4-0.5,0.6-0.8
			c0.2-0.2,0.5-0.5,0.7-0.8c0.3,0.2,0.6,0.4,1,0.5c0.4,0.1,0.7,0.1,1.2,0.1l20.2-0.5c0.8,0,1.5-0.1,2.1-0.4c0.6-0.3,1.2-0.7,1.7-1.3
			c3,1.8,5.4,3.7,7.2,5.8c1.6,1.9,2.4,3.5,2.4,5c0,1-0.5,1.9-1.4,2.6c-0.9,0.7-2.2,1-3.8,1L112.2,370.3z"/>
		<path class="st0" d="M37.2,33.7v4.7c0,0.6,0.1,1,0.3,1.3c0.2,0.3,0.6,0.4,1.2,0.4h1.1c1.2,0,2.1-0.4,2.5-1.2
			c0.5-0.8,0.9-2.3,1.3-4.2l1.7,0.1c-0.1,0.9,0,1.7,0.3,2.2s0.8,1.1,1.6,1.5c0.7,0.5,1.5,0.8,2.2,1c0.7,0.2,1.1,0.8,1.1,1.7
			c0,2.3-0.8,4.2-2.3,5.7c-1.5,1.6-3.6,2.3-6.2,2.3c-0.1,0-0.3,0-0.5,0c-0.2,0-0.3,0-0.4,0h-7.9c-1.8,0-3.1-0.4-4.1-1.4
			c-1-1-1.5-2.4-1.5-4.3v-9.2l-4.8,0.2c-0.5,2.7-1.5,5.1-2.9,7.2c-1.4,2.1-3.3,3.9-5.6,5.4c-1.6,1.1-3.2,1.9-4.8,2.4
			c-1.4,0.5-2.7,0.8-3.8,0.8c-1,0-1.8-0.2-2.5-0.7c-0.6-0.5-0.9-1-0.9-1.6c0-0.4,0.3-1.2,0.9-2.3c0.9-1.8,1.6-3.4,1.9-4.8
			c1.6-0.1,3-0.7,4.4-1.7c1.3-1,2.4-2.4,3.2-4.2l-6.6,0.3c-1.4,0.1-2.6-0.1-3.5-0.6c-0.9-0.5-1.3-1.2-1.3-1.9c0-0.5,0.2-1,0.7-1.7
			c0.5-0.7,1.1-1.5,1.9-2.5c0.2-0.2,0.3-0.4,0.5-0.7c0.2-0.2,0.4-0.5,0.6-0.7c0.4,0.1,0.9,0.2,1.3,0.3s0.9,0.1,1.4,0l6.1-0.3v-4.6
			h-0.6c-1.8,1.4-3.4,2.5-4.8,3.2c-1.5,0.7-2.8,1.1-4,1.1c-1.2,0-2-0.2-2.7-0.6C1.3,25.7,1,25.2,1,24.5c0-0.5,0.3-1.6,0.9-3.1
			c0.6-1.6,1-3,1.3-4l1.1,0.2c0.3,0,0.7-0.1,1.2-0.3c0.5-0.2,1.1-0.5,1.7-0.9c-0.5-0.5-1-0.9-1.6-1.2s-1.2-0.6-1.9-0.8
			c0.4-1.1,0.9-2,1.6-2.7C5.8,11,6.5,10.4,7.4,10l-2,0.2C4.1,10.4,3,10.2,2.2,9.6c-0.7-0.5-1-1.1-1-1.7c0-0.7,0.4-1.7,1.3-2.9
			c0.7-1,1.3-1.9,1.7-2.6c0.3,0.1,0.6,0.2,0.9,0.2S5.7,2.7,6,2.7c0.1,0,0.3,0,0.4,0c0.2,0,0.3,0,0.4,0L17.2,2
			c0.5-0.1,0.9-0.2,1.3-0.4c0.4-0.2,0.7-0.4,1-0.8c1.6,1.2,2.9,2.2,3.7,2.9c1.1,0.8,1.8,1.6,2.3,2.2c0.8-1,1.6-1.8,2.4-2.5
			c0.8-0.7,1.7-1.2,2.6-1.6c0.1,0.7,0.4,1.4,0.7,2c0.3,0.7,0.7,1.3,1.1,1.9c0.6-0.6,1.1-1.2,1.4-1.6c0.3-0.5,0.5-0.9,0.5-1.3
			c0-0.1,0-0.3-0.1-0.4c-0.1-0.1-0.2-0.3-0.3-0.4c0.6-0.3,1.2-0.5,1.7-0.7s1.1-0.2,1.6-0.2c1.3,0,2.6,0.4,3.8,1.2
			c1.1,0.8,1.7,1.5,1.7,2.2c0,0.2-0.1,0.5-0.3,0.8S41.9,6,41.5,6.3c-0.9,1-1.7,1.8-2.5,2.5c-0.8,0.7-1.5,1.3-2.1,1.8l1.5,1.2
			c1.3-0.9,2.2-1.7,2.8-2.3c0.7-0.7,1.1-1.4,1.2-2.1l3-0.3C46.7,7,48,7.4,49,8.3c1,0.8,1.5,1.7,1.5,2.6c0,0.5-0.2,1-0.7,1.3
			c-0.5,0.3-1.1,0.7-2,1.2c-0.4,0.2-0.9,0.5-1.3,0.8c-0.5,0.3-1,0.6-1.6,0.9c0.9,0.3,1.8,0.5,2.8,0.6c0.9,0.2,1.9,0.3,2.8,0.4
			c-0.3,1.4-0.6,2.6-0.9,3.7s-0.5,2-0.8,2.7c-0.3,0.8-0.7,1.4-1.1,1.8s-1,0.7-1.6,0.8c1.5,1,2.6,2,3.4,2.8c0.8,0.9,1.2,1.8,1.2,2.6
			c0,0.9-0.2,1.6-0.7,2.1c-0.5,0.5-1.1,0.7-2,0.7c-0.1,0-0.3,0-0.4-0.1c-0.2,0-0.3-0.1-0.4-0.1L37.2,33.7z M16.6,9L9.7,9.7
			c0.9,0.3,1.6,0.7,2.2,1.1c0.6,0.4,0.9,1,1.2,1.6c0.6-0.5,1.2-1,1.8-1.6C15.4,10.3,16,9.7,16.6,9z M24.7,11.3l-2.9,3.6l7.5-0.3
			c-0.7-0.6-1.4-1.2-1.9-1.8c-0.6-0.6-1.1-1.3-1.6-2L24.7,11.3z M27.7,21.7l-4.2,0.2v4.6l4.2-0.2V21.7z M37.2,25.9l4.3-0.2
			c0.3,0,0.7,0,1.1-0.1c0.4-0.1,0.8-0.2,1.3-0.4c-1-0.2-2.1-0.7-3.2-1.3c-1.1-0.6-2.3-1.4-3.6-2.4V25.9z"/>
		<path class="st0" d="M5.5,68.3v-2.9c-0.2-0.7-0.4-1.3-0.8-1.8c-0.4-0.5-0.8-0.8-1.4-1C4.8,61.2,6,60.1,7,59.3
			c1-0.8,1.8-1.2,2.3-1.2c0.6,0,1.5,0.5,2.7,1.4c1.2,1,1.8,1.8,1.8,2.5c0,0.3-0.1,0.6-0.2,0.9c-0.2,0.4-0.4,0.7-0.7,1.2v3.9h0.3
			c0.3,0,0.7,0,1-0.1c0.3-0.1,0.6-0.3,0.8-0.6c0.4,0.9,0.7,1.8,1,2.7c0.2,0.8,0.4,1.6,0.4,2.4c0,1.3-0.3,2.3-0.8,2.9
			c-0.5,0.6-1.3,0.9-2.4,0.8L12.9,80l3.5-0.7c-0.2,1.1-0.3,2.1-0.3,2.9c0,0.8-0.1,1.6-0.1,2.2c-0.1,1.2-0.1,2.1-0.3,2.6
			s-0.5,0.8-1.2,0.8l-1.6,0.4v15.6c-0.2,1.3-0.9,2.3-2,3c-1.1,0.7-2.6,1.1-4.4,1.1c-0.9,0-1.4-0.1-1.5-0.3s-0.3-0.8-0.4-1.8
			c-0.1-0.3-0.1-0.7-0.2-1c0-0.3-0.1-0.6-0.1-0.9c-0.1-1.3-0.3-2.2-0.5-2.9c-0.2-0.6-0.8-0.9-1.7-0.8v-1.5h2.5
			c0.3,0,0.6-0.1,0.7-0.3c0.1-0.2,0.2-0.4,0.2-0.8V90l-2,0.5c0,0.4-0.1,0.8-0.3,1c-0.2,0.3-0.4,0.4-0.7,0.4c-0.5,0-1-0.4-1.6-1.3
			c-0.6-0.9-0.9-2-0.9-3.2c0-0.5,0.1-1.1,0.3-1.7c0.2-0.6,0.4-1.3,0.7-2.2c0.1-0.3,0.2-0.5,0.3-0.8s0.2-0.6,0.3-0.9l1,0.2l3-0.5v-5
			l-1.1,0.1c-0.2,0.3-0.4,0.5-0.6,0.6c-0.2,0.1-0.4,0.2-0.6,0.2c-0.7,0-1.4-0.4-2.1-1.3c-0.7-1-1.1-2.2-1.1-3.4
			c0-0.7,0.2-1.5,0.6-2.3c0.4-0.7,1-1.6,1.8-2.7c0.2,0.2,0.5,0.4,0.8,0.6c0.3,0.1,0.6,0.2,1,0.2L5.5,68.3z M49.1,76.6l-8,0.3
			l0.4,1.3l-0.3,1.1v4.7l2.5-0.2v-3.1c-0.1-0.2-0.2-0.4-0.4-0.5C43.2,80.1,43,80,42.8,80c0.7-0.7,1.3-1.3,1.8-1.7
			c0.5-0.4,1-0.6,1.4-0.6c0.8,0,1.7,0.3,2.6,1c0.9,0.6,1.3,1.2,1.3,1.7c0,0.2-0.1,0.4-0.2,0.6c-0.2,0.2-0.3,0.4-0.5,0.6v9.2
			l-7.9,0.4v7.8h2.5v-3c0-0.3-0.1-0.6-0.2-0.8c-0.1-0.2-0.3-0.3-0.6-0.4c0.6-0.8,1.3-1.5,1.9-1.9s1.3-0.6,1.9-0.6
			c1,0,1.8,0.3,2.6,0.9c0.8,0.6,1.1,1.2,1.1,1.8c0,0.2-0.1,0.4-0.2,0.7c-0.1,0.3-0.3,0.6-0.5,0.9v9.4c0,0.9-0.2,1.6-0.7,2
			c-0.5,0.4-1.2,0.6-2.3,0.6c-1,0-1.8-0.2-2.3-0.5c-0.5-0.3-0.8-0.9-0.8-1.8v-0.6L31.6,106c-0.2,0.9-0.5,1.7-0.9,2.2
			c-0.4,0.5-0.9,0.8-1.4,0.8c-0.8,0-1.6-0.3-2.4-1c-0.8-0.7-1.4-1.6-1.8-2.8c0.1-0.1,0.2-0.3,0.3-0.5c0.1-0.2,0.1-0.5,0.1-0.7v-6.3
			c0-0.4-0.1-0.8-0.3-1s-0.5-0.5-1-0.6c0.8-0.8,1.6-1.4,2.2-1.8c0.6-0.4,1.2-0.6,1.7-0.6c0.7,0,1.6,0.3,2.7,1c1,0.6,1.5,1.1,1.5,1.6
			c0,0.2-0.1,0.4-0.2,0.7c-0.1,0.3-0.3,0.5-0.6,0.7v1.8l2.4-0.1v-7.8l-2.1,0.1c-0.3,0.4-0.6,0.8-0.9,1c-0.3,0.2-0.5,0.3-0.8,0.3
			c-0.6,0-1.2-0.4-1.9-1.1c-0.7-0.7-1.4-1.8-2.2-3.2c0.1-0.2,0.2-0.4,0.3-0.7c0.1-0.2,0.1-0.5,0.1-0.7v-4.5
			c-0.1-0.3-0.2-0.5-0.3-0.7c-0.2-0.2-0.3-0.3-0.6-0.4c0.6-0.8,1.2-1.4,1.8-1.8c0.7-0.4,1.3-0.6,1.8-0.6c0.7,0,1.3,0.2,2,0.7
			c0.7,0.5,1,0.8,1,1c0,0.1,0,0.3-0.1,0.4c-0.1,0.1-0.2,0.3-0.4,0.4v2.7l2.4-0.2v-3.5c0-0.3-0.2-0.6-0.4-0.8
			c-0.2-0.2-0.5-0.5-0.9-0.7l2.1-2.2l-10.5,0.4c-0.2,10.4-0.7,18-1.5,22.7c-0.8,5-2,7.5-3.7,7.5c-0.8,0-1.6-0.8-2.3-2.3
			c-0.7-1.5-1.4-3.8-2.1-7c0.9-0.1,1.6-1.8,2-5.3c0.4-2.8,0.6-8,0.9-15.6v-11c-0.1-0.3-0.2-0.6-0.5-0.9c-0.2-0.3-0.6-0.6-1-0.8
			c1.4-2,2.5-3.3,3.1-4c0.9-0.9,1.8-1.4,2.6-1.4c0.5,0,1,0.1,1.4,0.4c0.4,0.3,0.8,0.7,1.2,1.3l16.6-0.9c0.6-0.1,1-0.3,1.4-0.5
			c0.4-0.2,0.6-0.6,0.7-1c2.4,1.1,4.4,2.2,5.7,3.2c1.3,1,1.9,1.9,1.9,2.6c0,0.4-0.2,0.8-0.5,1.3c-0.3,0.4-0.8,0.7-1.4,0.9V76.6z
			 M25,67.4v3.3L41.8,70v-3.3L25,67.4z"/>
		<path class="st0" d="M24.5,152.6c-1.9,2.5-3.9,4.4-5.8,5.7c-1.9,1.2-3.6,1.8-5.2,1.8c-1.8,0-3.2-0.7-4.4-2
			c-1.2-1.3-2.2-3.4-3.1-6.1c-1.1-2.2-2-4.2-2.8-6s-1.1-3.5-1.1-5.2c0-3.4,1.1-6.7,3.2-9.9c2.1-3.2,5.2-5.9,9.2-8.1
			c1.7-0.9,3.7-1.7,6-2.2c2.3-0.6,4.7-0.8,7.3-0.8c6.3,0,11.4,2,15.3,6.1c3.9,4.1,5.9,9.3,5.9,15.7c0,6-1.7,10.9-5.1,14.7
			c-3.4,3.8-7.7,5.7-12.8,5.7c-1.4,0-2.5-0.2-3.2-0.6c-0.8-0.4-1.3-1-1.5-1.9c0-0.1-0.1-0.4-0.2-0.8
			C25.9,156.6,25.3,154.6,24.5,152.6z M28.8,143.9c-0.4,1.3-0.9,2.5-1.4,3.7c-0.5,1.1-1,2.2-1.6,3.1c0.6,0.3,1.3,0.5,1.9,0.7
			c0.6,0.1,1.3,0.2,1.9,0.2c2.6,0,4.7-0.9,6.4-2.6c1.6-1.7,2.5-4.7,2.5-8.8c0-4-1.2-7.1-3.5-9.1s-5.2-3.1-8.6-3.1
			c-2.4,0-4.8,0.5-7,1.6c-2.2,1-4.2,2.5-5.8,4.4c-1.3,1.6-2.3,3.2-2.9,4.8c-0.7,1.7-1,3.3-1,4.9c0,1.6,0.4,2.9,1.1,4.1
			c0.7,1,1.4,1.5,2.2,1.5c0.6,0,1.3-0.3,2.1-0.9c0.9-0.6,1.6-1.5,2.3-2.6c1-1.8,1.8-3.5,2.3-5.1c0.5-1.5,0.7-2.9,0.7-4
			c0-0.7-0.2-1.3-0.5-1.6s-1-0.6-2-0.9c1.6-1.1,3-2,4.2-2.7c1.2-0.7,2.4-1,3.6-1c1.6,0,3.1,0.7,4.6,2.2s2.1,2.8,2.1,3.9
			c0,0.4-0.4,1.3-1.2,2.5C30.1,140.8,29.2,142.5,28.8,143.9z"/>
		<path class="st0" d="M16.3,181.3l1-0.1c0.4,0,0.8-0.1,1.1-0.2c0.3-0.2,0.6-0.4,0.8-0.7c0.6,0.4,1.2,0.9,1.7,1.5
			c0.6,0.5,1.1,1.1,1.6,1.7c0.1-0.4,0.1-0.7,0.2-1.1s0.1-0.7,0.1-1c0-0.1,0-0.2,0-0.4c0-0.1,0-0.3,0-0.4l0.6,0.1
			c0.7,0,1.6-0.6,2.9-1.9c1.3-1.4,2-2.5,1.9-3.5c1,0,2.3-0.1,4-0.3c1.1-0.1,1.9-0.2,2.3-0.2c0.9,0,1.6,0.2,2.1,0.6
			c0.5,0.4,0.8,0.9,0.8,1.5c0,0.3-0.1,0.7-0.2,1.1c-0.1,0.4-0.3,0.9-0.6,1.4l5.6-0.2c0.6,0,1.1-0.2,1.6-0.4s0.9-0.6,1.3-1.1
			c2.1,1.6,3.4,2.8,4.1,3.5c1,1,1.5,2,1.5,3c0,0.9-0.3,1.6-0.9,2.1c-0.6,0.5-1.5,0.6-2.6,0.5l-4.2,0.2c1.7,0.7,3,1.3,3.7,1.9
			c0.9,0.7,1.3,1.4,1.3,2.3c0,0.8-0.5,1.5-1.4,2.3c-0.8,0.7-2.2,1.5-4.1,2.4l0.6,3.1l1.9-1.4c0.3-0.3,0.5-0.6,0.7-0.9
			c0.1-0.3,0.2-0.7,0.1-1.1c1.7,0.5,2.9,1.4,3.8,2.5c0.8,1.1,1.3,2.6,1.3,4.2c0,1.2-0.1,2-0.3,2.6c-0.2,0.6-0.6,0.8-1.1,0.8
			l-1.4-0.2l-1.8,1.4c0.5,1,1.2,2,2,3.2c0.8,1.1,1.8,2.3,2.9,3.6c-0.9,1.1-1.6,2.1-1.9,3.2c-0.3,1-0.5,1.9-0.6,2.7
			c0,0.3-0.1,0.5-0.1,0.7c-0.1,0.2-0.1,0.4-0.1,0.6c-0.2,0.8-0.5,1.4-0.8,1.8s-0.7,0.6-1.1,0.6c-1.6,0-3.5-2.4-5.9-7.1
			c-2.6-5.2-4.4-11-5.3-17.3l-0.8,0.3v18.8c0,2.1-0.3,3.7-1,4.8c-0.6,1.1-1.6,1.6-2.8,1.6c-1.3,0-2.4-0.6-3.4-1.8
			c-1-1.2-1.9-3-2.6-5.5c0.4-0.4,0.7-0.9,0.9-1.5c0.2-0.6,0.2-1.3,0.2-2v-12c-0.8,0-1.5-0.1-2-0.3s-0.9-0.5-1.1-0.9l-0.3,0.2v12.9
			c0.1,3.5-0.4,6.1-1.6,7.8c-1.2,1.7-3.2,2.5-5.9,2.5c-1.4,0-2.3-0.1-2.7-0.3c-0.4-0.2-0.7-0.8-0.7-1.6v-2c0-1.1-0.1-2-0.4-2.6
			c-0.3-0.6-0.7-1-1.4-1.2c-0.7,2.4-1.6,4.3-2.6,5.6c-0.9,1.2-1.9,1.9-2.9,1.9c-1.2,0-1.9-0.6-2.1-1.7c-0.2-1.1-0.4-2.8-0.5-5.1
			c0-0.6,0-1.3-0.1-2c0-0.7-0.1-1.5-0.1-2.3c1-2.2,1.8-5.1,2.5-8.7c0.7-3.7,1.3-8.1,1.6-13.2l-1.5,0.1c-1.2,0-2.1-0.3-2.7-0.8
			c-0.7-0.5-1-1.2-1-2.1c0-0.5,0.2-1.1,0.5-1.9s0.7-1.6,1.3-2.6c0.1-0.2,0.3-0.5,0.4-0.8s0.3-0.6,0.5-0.9l2.1,0.4l2.2-0.1v-1.8
			c0-0.5-0.2-0.9-0.4-1.3c-0.2-0.4-0.5-0.7-0.9-0.9c1.5-1.2,2.8-2,3.9-2.6c1.1-0.6,2-0.9,2.8-0.9c1,0,2,0.4,3,1.2
			c0.9,0.8,1.4,1.5,1.4,2.1c0,0.2-0.1,0.5-0.2,0.8c-0.1,0.3-0.4,0.6-0.7,0.9V181.3z M14.7,201.4l-2.4,0.1c-0.1,0.3-0.1,0.7-0.2,1
			c0,0.3-0.1,0.6-0.1,1c-0.3,2.2-0.6,4.2-0.9,6c-0.3,1.8-0.5,3.3-0.8,4.5h2.4c0.7,0,1.3-0.1,1.6-0.4c0.3-0.3,0.4-0.8,0.4-1.5V201.4z
			 M20.5,189.5l-7.1,0.5l-0.3,3.3l1.8-0.1c0.5-0.1,1-0.2,1.3-0.5c0.4-0.2,0.7-0.6,0.9-1.1c1.9,1.1,3.4,2.1,4.6,3
			c1.1,0.8,1.7,1.6,2,2.2c0.8-1,1.5-1.9,2.2-2.8s1.4-1.9,2-2.8c2-0.4,3.9-0.9,5.8-1.6c1.9-0.7,3.7-1.5,5.5-2.5l-9.1,0.4
			c-1.7,1.8-3,3.2-4.1,3.9c-1.2,0.9-2.3,1.3-3.3,1.3c-0.7,0-1.3-0.2-1.8-0.6c-0.4-0.4-0.7-1-0.7-1.7L20.5,189.5z"/>
	</g>
</g>
</svg>
