<?xml version="1.0" encoding="utf-8"?>
<svg version="1.1" id="the-inner-page-main-caption-blog-1" xmlns="http://www.w3.org/2000/svg" xmlns:xlink="http://www.w3.org/1999/xlink" x="0px"
	 y="0px" viewBox="0 0 130 431" style="enable-background:new 0 0 130 431;" xml:space="preserve">
<style type="text/css">
	.st0{fill:#121659;}
</style>
<g>
	<g>
		<path class="st0" d="M63.1,8.4L65.8,8c0.5,0,0.9-0.1,1.3-0.3c0.4-0.1,0.7-0.4,1-0.7c1.6,0.9,2.9,1.9,3.8,2.9
			c0.8,1,1.3,2.1,1.3,3.1c0,1-0.4,1.8-1.1,2.5c-0.8,0.7-1.8,1.1-3.1,1.2l-5.8,0.8v3c1.6-0.2,3-0.4,4.4-0.6c1.4-0.1,2.8-0.2,4.1-0.2
			c5.2,0,9.2,1.2,12,3.5s4.2,5.5,4.2,9.6c0,3.9-1.3,7.2-4,9.9s-6,4.1-9.9,4.1c-2.5,0-4.6-0.6-6.1-1.9s-2.3-2.9-2.3-4.9
			c0-1,0.2-2.2,0.7-3.5c0.5-1.2,1.2-2.6,2.2-4.3c0,1.3,0.4,2.3,1.1,3.1c0.8,0.8,1.8,1.1,3,1.1s2.3-0.4,3.1-1.1
			c0.8-0.7,1.2-1.7,1.2-2.9c0-1.5-0.6-2.7-1.9-3.5c-1.3-0.9-3.1-1.3-5.5-1.3c-1,0-2,0.1-3,0.2c-1,0.1-2.1,0.3-3.2,0.6v8.7
			c0.1,0.5,0.2,1.1,0.2,1.6c0.1,0.5,0.1,1,0.1,1.5c0,2.6-0.8,4.6-2.4,6.1c-1.6,1.5-3.8,2.2-6.7,2.2c-1.3,0-2.3-0.4-3-1.2
			s-1.3-2.1-2.1-3.8c-0.8-1.2-1.7-2-2.8-2.4c-1-0.4-1.9-0.9-2.7-1.3c-0.9-0.5-1.7-1.2-2.1-1.9C41.2,36.9,41,36,41,34.9
			c0-2.2,1.1-4.3,3.2-6.4c2.2-2.1,5.4-4,9.4-5.5v-4.2l-5.7,0.7c-0.2,0-0.4,0-0.7,0.1c-0.2,0-0.4,0.1-0.6,0.1c-1.4,0-2.5-0.3-3.2-0.9
			c-0.7-0.6-1.1-1.4-1.1-2.6c0-0.4,0.1-0.9,0.2-1.4c0.1-0.5,0.4-1,0.7-1.6c0.3-0.6,0.6-1.1,1-1.8c0.4-0.6,0.8-1.3,1.3-2
			c0.2,0.4,0.5,0.7,0.9,0.9c0.4,0.2,0.8,0.3,1.2,0.3c0.1,0,0.2,0,0.3,0c0.1,0,0.2,0,0.3,0l5.1-0.8c0-1.2-0.2-2.2-0.7-2.8
			c-0.5-0.6-1.2-1-2.1-1l-1.7,0.3c1.5-2.1,3-3.7,4.6-4.7c1.5-1,3.2-1.6,5-1.6c1.8,0,3.4,0.4,4.5,1.3c1.2,0.9,1.7,1.9,1.7,3
			c0,0.5-0.1,1-0.4,1.5c-0.2,0.5-0.6,0.9-1.2,1.3V8.4z M53.6,37v-5.6c-1.4,0.7-2.6,1.4-3.4,2.1c-0.7,0.6-1.1,1.2-1.1,1.6
			c0,0.7,0.4,1.5,1.3,2.4c0.9,0.9,1.6,1.3,2.1,1.3c0.3,0,0.6-0.2,0.7-0.5C53.5,38,53.6,37.6,53.6,37z M74.2,8.4
			c1.1-1.2,2.3-2.1,3.5-2.7c1.2-0.6,2.5-0.9,3.9-0.9c2.1,0,3.9,0.7,5.4,2.1s2.2,3.1,2.2,5c0,1.6-0.5,3-1.6,4c-1.1,1.1-2.4,1.6-4,1.6
			c-1,0-1.9-0.2-2.7-0.6c-0.8-0.4-1.4-1.1-1.9-1.9c-0.5-0.7-0.8-1.4-0.9-2.1c-0.1-0.7-0.3-1.3-0.5-1.8c-0.4-1-0.9-1.7-1.4-2.1
			C75.7,8.5,75,8.3,74.2,8.4z"/>
		<path class="st0" d="M58.8,71.5v4.6l2.4-0.1c0.4-0.1,0.8-0.3,1.2-0.4c0.4-0.2,0.7-0.4,1-0.7c1.1,1.3,1.9,2.4,2.4,3.3
			c0.6,1,0.9,1.8,0.9,2.6c0,0.9-0.3,1.6-0.8,2.2c-0.5,0.6-1.2,0.8-2.2,0.9l-5.9,0.3l-0.1,0.8c0.9,1.4,1.9,2.7,3.1,4
			c1.2,1.3,2.5,2.5,3.9,3.8l-0.3,4.6c0,1.3-0.3,2.4-0.9,3.4c-0.5,0.8-1.1,1.3-1.7,1.3c-0.8,0-1.8-0.6-3-1.8c-1.1-1.2-2.5-2.9-4-5.3
			c-1.8,3.4-3.7,5.9-5.6,7.7c-1.9,1.7-3.7,2.5-5.4,2.5c-0.8,0-1.6-0.3-2.3-1c-0.7-0.7-1-1.3-1-2c0-0.4,0.2-1.2,0.8-2.5
			c0.8-2.2,1.4-4.2,1.8-5.9l0.5,0.1c0.6,0,1.5-0.8,2.5-2.3c1.3-1.8,2.3-4.2,3.1-7l-4.6,0.2c-1.3,0.1-2.3-0.1-3-0.7
			c-0.7-0.6-1.1-1.4-1.1-2.5c0-0.6,0.4-1.4,1.1-2.6c0.6-0.9,1-1.7,1.3-2.4c0.3,0.1,0.7,0.2,1,0.2c0.4,0,0.7,0,1,0l5.4-0.3v-4.6h-2
			c-0.9,1.2-1.8,2.1-2.6,2.6c-0.8,0.6-1.7,0.9-2.4,0.9c-0.9,0-1.5-0.3-1.8-0.8c-0.3-0.5-0.4-1-0.5-1.5c0-0.5,0-1.1,0.1-1.8
			c0.1-0.7,0.1-1.3,0.2-2c0-0.2,0-0.5-0.1-0.8c0-0.3-0.1-0.7-0.1-1.2c1.6-1.1,2.8-2.4,3.9-3.9c0.9-1.3,1.3-2.4,1.3-3.2l-0.2-0.7
			c0.7-0.3,1.4-0.6,2.1-0.8c0.6-0.2,1.2-0.4,1.8-0.6c0.5-0.2,0.9-0.3,1.3-0.4c0.4-0.1,0.7-0.2,1.1-0.2c0.9,0,1.6,0.3,2.1,0.8
			c0.6,0.6,0.8,1.3,0.8,2.1c0,0.5-0.1,1.1-0.4,1.6s-0.6,1.2-1.1,1.9l5.4-0.3c0.3,0,0.6-0.1,0.9-0.3c0.3-0.1,0.5-0.3,0.8-0.6
			c1.4,1.3,2.4,2.3,3,3c0.7,1,1.1,1.9,1.1,2.8c0,0.8-0.3,1.5-0.8,1.9c-0.5,0.4-1.3,0.7-2.3,0.7L58.8,71.5z M79.9,100.5l-4.2,0.2
			c0,1.5-0.3,2.7-1,3.5c-0.6,0.8-1.4,1.3-2.3,1.3c-0.8,0-1.7-0.5-2.9-1.4c-1.3-1.1-2.4-2.5-3.3-4.2c0.4-0.4,0.7-0.9,0.9-1.5
			s0.4-1.2,0.4-1.9V69.8c-0.1-0.5-0.3-0.9-0.6-1.2c-0.3-0.3-0.7-0.6-1.2-0.8c1.2-1.9,2.5-3.3,3.6-4.3c1.2-0.9,2.5-1.4,3.7-1.4
			c0.6,0,1.2,0.1,1.7,0.4c0.5,0.3,0.9,0.7,1.3,1.3h4.1c0.5-0.1,0.8-0.4,1.2-0.7c0.3-0.4,0.5-0.8,0.7-1.4c2.5,1.4,4.3,2.7,5.6,3.9
			c1.3,1.2,1.9,2.3,1.9,3.2c0,0.5-0.2,1-0.5,1.4c-0.3,0.4-0.8,0.6-1.4,0.8v30.5c0,1-0.4,1.8-1.2,2.3c-0.8,0.5-2,0.7-3.6,0.7
			c-1.1,0-1.9-0.2-2.4-0.6s-0.7-1-0.7-1.8V100.5z M75.6,71.3v20.5h4.2V71.3H75.6z"/>
		<path class="st0" d="M59.1,126.9c-2.7-0.1-4.5,1-5.3,3.4c-0.6,1.8-1,5.9-1.1,12c2.3-2.8,5-4.9,8.1-6.3c3.1-1.5,6.3-2.2,9.6-2.2
			c4.1,0,7.5,1.3,10.1,3.8c2.6,2.5,3.9,5.8,3.9,9.9c0,4.9-2,9-6.1,12.2s-9.5,4.9-16.4,4.9c-2.1,0-3.8-0.2-5.1-0.5
			c-1.3-0.4-2.6-1.3-3.9-2.9c-0.1-0.1-0.2-0.3-0.5-0.6c-1.3-1.8-2.9-3.5-4.6-5c0.9,0.2,1.9,0.4,2.9,0.6s2,0.2,3,0.2
			c5.9,0,10.5-0.9,13.8-2.6c3.2-1.7,4.8-4,4.8-6.9c0-1.9-0.7-3.5-2-4.8s-3-1.9-5-1.9c-2.2,0-4,0.6-5.6,1.9c-1.6,1.2-2.8,3-3.5,5.4
			c-0.4,1.8-1,3-1.6,3.8c-0.7,0.8-1.7,1.2-3,1.2c-2.2,0-4.1-0.8-5.7-2.3c-1.6-1.6-2.4-3.5-2.4-5.8s0.2-5.2,0.6-8.5
			c0.4-3,0.7-4.8,1-5.4c0.9-1.8,2.1-3.1,3.7-3.7c1.3-0.5,4-1,7.9-1.3c-1.2-0.7-2.1-1.6-2.7-2.7c-0.6-1.1-0.9-2.4-0.9-3.8
			c0-0.5,0-1.1,0.1-1.8c0.1-0.6,0.2-1.3,0.4-2.1c1,1.3,2.2,2.2,3.7,2.4s3.4,0.4,5.8,0.4c2.9,0,5,0.4,6.4,1.3
			c1.4,0.9,2.1,2.4,2.1,4.4c0,1.7-0.5,3.2-1.6,4.4c-1.1,1.2-2.2,1.8-3.5,1.8c-0.6,0-1.4-0.2-2.3-0.5c-0.9-0.4-2-0.8-3.3-1.4
			c-0.3-0.1-0.6-0.3-0.9-0.5C59.8,127.3,59.5,127.1,59.1,126.9z"/>
		<path class="st0" d="M59.7,186.4l9.1-0.5v-4.2c0.1-0.8-0.1-1.4-0.6-1.8s-1.4-0.7-2.6-0.9c2-1.6,3.5-2.6,4.5-3.2
			c1.4-0.8,2.8-1.2,3.9-1.2c1.8,0,3.5,0.6,5,1.7c1.4,1,2.1,2.1,2.1,3.1c0,0.5-0.2,1-0.5,1.4c-0.3,0.4-0.8,0.9-1.4,1.2l-0.2,3.2
			l0.9-0.1c0.6,0,1.1,0,1.6-0.2c0.5-0.1,0.8-0.4,1.2-0.8c2.4,0.8,4.2,1.9,5.4,3.1c1.2,1.2,1.8,2.6,1.8,4.2c0,1.4-0.4,2.5-1.1,3.4
			c-0.8,0.9-1.7,1.3-2.9,1.3c-0.7,0-1.6-0.2-2.6-0.5c-1.1-0.3-2.3-0.8-3.8-1.4l-0.9,0.1l-0.4,6.1c0,2.4-0.8,4.3-2.5,5.7
			c-1.7,1.5-3.8,2.2-6.5,2.2c-1.3,0-2.2-0.2-2.9-0.7c-0.6-0.5-1-1.2-1.2-2.2c0,0-0.1-0.1-0.1-0.1s0-0.1,0-0.2c0-0.4-0.2-1.3-0.4-2.4
			c-0.2-1.2-1-2.6-2.2-4.4c0.7,0.3,1.4,0.5,2,0.7c0.6,0.1,1.2,0.2,1.7,0.2c0.8,0,1.5-0.2,1.8-0.6c0.4-0.4,0.6-1.1,0.6-2.2v-1.6
			l-8.9,0.5v10.8c-0.1,1.9,0.6,3.3,2.1,3.9c1.3,0.6,3.9,0.9,7.6,0.9c3.2,0,5.5-0.2,7-0.5c1.6-0.4,2.6-1.2,2.9-2.3
			c0.5,0.4,1.1,0.7,1.6,1c0.5,0.3,1,0.6,1.5,0.9c1.2,0.7,2.3,1.4,3.1,2.1c0.8,0.7,1.2,1.7,1.2,3.1c0,2.2-1.3,3.7-4,4.7
			c-2.6,0.9-6.6,1.4-12.1,1.4c-7.1,0-12.3-0.9-15.6-2.7c-3.3-1.8-5-5-5.1-9.7v-12.7c-1,0.3-1.9,0.7-2.6,1c-0.7,0.4-1.3,0.5-1.8,0.5
			c-1.2,0-2.5-0.5-3.7-1.5s-1.8-2-1.8-3c0-0.7,0.3-1.3,0.8-2c0.5-0.7,1.3-1.5,2.2-2.4c0.4-0.4,0.8-0.8,1.2-1.2s0.9-0.9,1.4-1.5
			c0.3,0.3,0.7,0.5,1.1,0.7c0.4,0.1,0.9,0.2,1.4,0.2c0.1,0,0.2,0,0.4,0c0.1,0,0.3,0,0.4,0l1-0.1v-1.4c0.1-1.2-0.1-2.1-0.6-2.7
			c-0.5-0.7-1.3-1.1-2.4-1.3c0.2-0.2,0.5-0.4,0.8-0.6c0.3-0.2,0.5-0.4,0.8-0.6c1.4-1.1,2.7-2.1,3.6-2.7c1-0.7,1.8-1,2.5-1
			c1.2,0,2.4,0.5,3.7,1.6c1.3,1.1,2,2.1,2,3.1l-0.4,1.6V186.4z"/>
		<path class="st0" d="M64.7,237.9c2,0,3.8,0.7,5.2,2.1c1.4,1.4,2.1,3.1,2.1,5.2c0,2.1-0.7,3.8-2.1,5.2c-1.4,1.4-3.1,2.1-5.2,2.1
			c-2.1,0-3.8-0.7-5.2-2.1c-1.4-1.4-2.1-3.1-2.1-5.2c0-2,0.7-3.8,2.1-5.2C60.9,238.6,62.7,237.9,64.7,237.9z"/>
		<path class="st0" d="M80.9,295.8l-2.8-0.3c-0.9,0-1.8,0.1-2.7,0.3c-0.9,0.2-1.8,0.6-2.7,1.1c0.9,0.7,1.7,1.5,2.4,2.3
			c0.7,0.8,1.3,1.6,1.8,2.5c-3.1,4.1-6.4,7.3-9.8,9.5s-6.8,3.4-10.1,3.4c-1.8,0-3.3-0.3-4.3-0.9c-1-0.7-1.5-1.6-1.5-2.7
			c0-0.6,0.3-1.7,0.8-3.2c0.9-2.5,1.4-4.7,1.4-6.5c0.7,0.6,1.5,1,2.2,1.3c0.7,0.3,1.5,0.4,2.3,0.4c2.8,0,5.7-1.8,8.8-5.4
			c3.4-3.9,5.7-8.6,6.9-14.1l-22.4,2.7c-0.3,0-0.6,0.1-0.8,0.1c-0.3,0-0.5,0.1-0.8,0.1c-1.8,0-3.4-0.5-4.6-1.4
			c-1.1-0.9-1.7-1.9-1.7-3c0-1,0.5-2.2,1.5-3.6c1.1-1.4,2.7-3.1,4.8-4.8c0.3,0.5,0.7,0.9,1.2,1.1s1,0.3,1.5,0.3c0.1,0,0.2,0,0.4-0.1
			c0.1,0,0.3-0.1,0.4-0.1l21.4-1.9c0.7-0.1,1.4-0.3,2-0.6c0.6-0.3,1.1-0.7,1.6-1.3c2.9,2.1,5.2,4.2,6.9,6.5c1.5,2,2.3,3.7,2.3,5.1
			c0,0.9-0.3,1.6-0.9,2.2c-0.6,0.6-1.4,1.1-2.4,1.5l-1.7,4.9c-0.8,0.2-1.6,0.4-2.4,0.6s-1.5,0.5-2.1,0.8c0.6,0.3,1.1,0.7,1.6,1.1
			c0.5,0.4,1,0.8,1.4,1.3L80.9,295.8z M74.7,297.3c0.5-0.3,1.1-0.4,1.6-0.5c0.6-0.1,1.2-0.2,1.8-0.2c1.7,0,2.9,0.3,3.8,1
			c0.9,0.7,1.4,1.6,1.4,2.7c0,1-0.3,1.8-0.8,2.5c-0.5,0.7-1.1,1-1.8,1c-1,0-1.9-0.7-2.6-2.2C77.1,299.8,76,298.3,74.7,297.3z
			 M80.3,293c0.7-0.3,1.4-0.5,2.2-0.6c0.8-0.1,1.6-0.2,2.4-0.2c1.3,0,2.4,0.3,3.1,1c0.7,0.7,1,1.6,1,2.9c0,0.8-0.2,1.5-0.7,2
			c-0.5,0.5-1.1,0.8-1.8,0.8c-1,0-2-0.7-3-2.2C82.4,295.1,81.3,293.9,80.3,293z"/>
		<path class="st0" d="M46.4,357.2l-1.5-17.5c-0.1-1-0.4-1.7-0.9-2.2c-0.5-0.4-1.3-0.7-2.4-0.7c1.5-2.7,3-4.6,4.3-6
			c1.3-1.3,2.7-2,4-2c1.1,0,2,0.4,2.8,1.1c0.8,0.7,1.3,1.7,1.7,3.1l15.8-1c1.1,0,2.1-0.2,3.1-0.7c1-0.5,1.9-1.2,2.8-2.2
			c3.6,1.7,6.3,3.1,8,4.4c1.8,1.4,2.7,2.7,2.7,4.1c0,0.6-0.2,1.3-0.7,1.9c-0.5,0.6-1.1,1.1-2,1.4l-1.2,20.3c0,2.4-0.5,4.2-1.4,5.2
			s-2.5,1.5-4.8,1.5c-1.5,0-2.6-0.2-3.4-0.5c-0.8-0.3-1.3-1-1.5-2l-16,0.7c-0.5,1-1,1.7-1.5,2.3s-1.2,0.8-1.8,0.8
			c-0.1,0-0.3,0-0.5-0.1c-0.2,0-0.3-0.1-0.4-0.2c-1.4-0.5-2.7-1.7-3.9-3.6c-1.2-1.9-1.8-3.4-1.8-4.7L46.4,357.2z M56,356.6l16.8-0.6
			l0.8-15l-11.3,1c-0.2,0-0.4,0-0.6,0.1c-0.2,0-0.4,0.1-0.5,0.1c-1.4,0-2.6-0.3-3.6-0.8c-1-0.6-1.9-1.4-2.7-2.6L56,356.6z"/>
		<path class="st0" d="M73.5,400.5l-8,0.4c-0.2,0-0.4,0.1-0.7,0.1c-0.2,0-0.4,0-0.6,0c-0.7,0-1.3-0.1-1.8-0.3
			c-0.6-0.2-1.1-0.4-1.5-0.8c-2.6,3.1-4.8,5.3-6.6,6.7c-2,1.5-3.9,2.2-5.7,2.2c-1.4,0-2.6-0.3-3.6-1c-0.9-0.6-1.3-1.4-1.3-2.3
			c0-0.5,0.4-1.5,1.1-3.1c1.1-2.4,1.9-4.5,2.3-6.3c0.2,0.3,0.5,0.6,0.7,0.8c0.3,0.2,0.6,0.3,0.9,0.3c0.5,0,1.1-0.3,1.8-0.8
			c0.7-0.6,1.5-1.4,2.3-2.5c1.1-1.6,2-2.9,2.6-4c0.6-1,0.9-1.7,0.9-2.1c0-0.2-0.1-0.4-0.3-0.6c-0.2-0.2-0.5-0.4-0.9-0.6
			c1.9-1.1,3.6-1.8,4.9-2.3c1.4-0.6,2.7-0.9,3.8-0.9c1.4,0,2.6,0.4,3.4,1.1c0.9,0.7,1.3,1.6,1.3,2.7c0,0.6-0.2,1.4-0.6,2.3
			c-0.4,0.8-1,1.8-1.7,2.9l7.6-0.3c1,0,1.8-0.2,2.4-0.5c0.6-0.3,1.1-0.8,1.4-1.4c3.3,2.4,5.6,4.4,7,5.9c1.6,1.8,2.4,3.5,2.4,5.1
			c0,1.1-0.3,1.9-1,2.6s-1.4,1-2.2,1l-0.8-0.1c-4.3,8.5-9,14.8-13.8,19s-10.4,6.2-16.5,6.2c-1.9,0-3.3-0.3-4.2-0.9
			c-0.9-0.6-1.4-1.5-1.4-2.8c0-0.5,0.3-1.4,0.9-2.6c1-2.2,1.5-4.2,1.5-5.8c0.6,0.3,1.3,0.5,1.9,0.6c0.7,0.1,1.3,0.2,1.9,0.2
			c3.6,0,7.2-1.5,10.8-4.6C67.6,410.9,70.8,406.3,73.5,400.5z M73.4,381.9c0.4-0.2,0.9-0.3,1.3-0.4c0.5-0.1,0.9-0.2,1.4-0.2
			c1.6,0,2.9,0.4,3.8,1.1c0.9,0.8,1.4,1.7,1.4,2.7c0,0.9-0.3,1.8-0.9,2.4c-0.6,0.7-1.3,1-2.1,1c-1.2,0-2.1-0.9-2.7-2.7
			C74.9,384.2,74.2,382.8,73.4,381.9z M81.4,380.9c0.6-0.2,1.2-0.3,1.7-0.4c0.5-0.1,1-0.2,1.5-0.2c1.5,0,2.7,0.4,3.6,1.3
			c0.9,0.8,1.4,1.9,1.4,3c0,0.9-0.3,1.7-0.9,2.3c-0.6,0.6-1.3,0.9-2.1,0.9c-1.1,0-2.1-0.9-2.8-2.6C83.1,383.3,82.3,381.9,81.4,380.9
			z"/>
	</g>
</g>
</svg>
