<?xml version="1.0" encoding="utf-8"?>
<svg version="1.1" id="the-about-sign-2-light-ong-1" xmlns="http://www.w3.org/2000/svg" xmlns:xlink="http://www.w3.org/1999/xlink" x="0px"
	 y="0px" viewBox="0 0 550 135" style="enable-background:new 0 0 550 135;" xml:space="preserve">
<style type="text/css">
	.st0{fill:#231815;}
	.st1{fill:#EE795E;}
</style>
<g>
	<g>
		<path class="st0" d="M8.5,0C3.8,0,0,3.8,0,8.5C0,13.2,3.8,17,8.5,17S17,13.2,17,8.5C17,3.8,13.2,0,8.5,0z"/>
		<path class="st1" d="M8.5,1.4c-3.9,0-7.1,3.2-7.1,7.1c0,3.9,3.2,7.1,7.1,7.1c3.9,0,7.1-3.2,7.1-7.1C15.6,4.6,12.4,1.4,8.5,1.4z"/>
	</g>
	<g>
		<circle class="st1" cx="541.5" cy="67.5" r="7.8"/>
		<path class="st0" d="M541.5,76c-4.7,0-8.5-3.8-8.5-8.5c0-4.7,3.8-8.5,8.5-8.5s8.5,3.8,8.5,8.5C550,72.2,546.2,76,541.5,76z
			 M541.5,60.4c-3.9,0-7.1,3.2-7.1,7.1c0,3.9,3.2,7.1,7.1,7.1s7.1-3.2,7.1-7.1C548.6,63.6,545.4,60.4,541.5,60.4z"/>
	</g>
	<g>
		<path class="st0" d="M126.9,0c-4.7,0-8.5,3.8-8.5,8.5c0,4.7,3.8,8.5,8.5,8.5c4.7,0,8.5-3.8,8.5-8.5C135.4,3.8,131.6,0,126.9,0z"/>
		<path class="st1" d="M126.9,1.4c-3.9,0-7.1,3.2-7.1,7.1c0,3.9,3.2,7.1,7.1,7.1c3.9,0,7.1-3.2,7.1-7.1C134,4.6,130.8,1.4,126.9,1.4
			z"/>
	</g>
	<g>
		<path class="st0" d="M245.4,0c-4.7,0-8.5,3.8-8.5,8.5c0,4.7,3.8,8.5,8.5,8.5s8.5-3.8,8.5-8.5C253.9,3.8,250.1,0,245.4,0z"/>
		<path class="st1" d="M245.4,1.4c-3.9,0-7.1,3.2-7.1,7.1c0,3.9,3.2,7.1,7.1,7.1c3.9,0,7.1-3.2,7.1-7.1
			C252.5,4.6,249.3,1.4,245.4,1.4z"/>
	</g>
	<g>
		<path class="st0" d="M363.8,0c-4.7,0-8.5,3.8-8.5,8.5c0,4.7,3.8,8.5,8.5,8.5s8.5-3.8,8.5-8.5C372.3,3.8,368.5,0,363.8,0z"/>
		<path class="st1" d="M363.8,1.4c-3.9,0-7.1,3.2-7.1,7.1c0,3.9,3.2,7.1,7.1,7.1c3.9,0,7.1-3.2,7.1-7.1
			C370.9,4.6,367.7,1.4,363.8,1.4z"/>
	</g>
	<g>
		<path class="st0" d="M482.3,0c-4.7,0-8.5,3.8-8.5,8.5c0,4.7,3.8,8.5,8.5,8.5s8.5-3.8,8.5-8.5C490.8,3.8,487,0,482.3,0z"/>
		<path class="st1" d="M482.3,1.4c-3.9,0-7.1,3.2-7.1,7.1c0,3.9,3.2,7.1,7.1,7.1c3.9,0,7.1-3.2,7.1-7.1
			C489.4,4.6,486.2,1.4,482.3,1.4z"/>
	</g>
	<g>
		<path class="st0" d="M8.5,118c-4.7,0-8.5,3.8-8.5,8.5c0,4.7,3.8,8.5,8.5,8.5s8.5-3.8,8.5-8.5C17,121.8,13.2,118,8.5,118z"/>
		<path class="st1" d="M8.5,119.4c-3.9,0-7.1,3.2-7.1,7.1c0,3.9,3.2,7.1,7.1,7.1c3.9,0,7.1-3.2,7.1-7.1
			C15.6,122.6,12.4,119.4,8.5,119.4z"/>
	</g>
	<g>
		<path class="st0" d="M126.9,118c-4.7,0-8.5,3.8-8.5,8.5c0,4.7,3.8,8.5,8.5,8.5c4.7,0,8.5-3.8,8.5-8.5
			C135.4,121.8,131.6,118,126.9,118z"/>
		<path class="st1" d="M126.9,119.4c-3.9,0-7.1,3.2-7.1,7.1c0,3.9,3.2,7.1,7.1,7.1c3.9,0,7.1-3.2,7.1-7.1
			C134,122.6,130.8,119.4,126.9,119.4z"/>
	</g>
	<g>
		<path class="st0" d="M245.4,118c-4.7,0-8.5,3.8-8.5,8.5c0,4.7,3.8,8.5,8.5,8.5s8.5-3.8,8.5-8.5C253.9,121.8,250.1,118,245.4,118z"
			/>
		<path class="st1" d="M245.4,119.4c-3.9,0-7.1,3.2-7.1,7.1c0,3.9,3.2,7.1,7.1,7.1c3.9,0,7.1-3.2,7.1-7.1
			C252.5,122.6,249.3,119.4,245.4,119.4z"/>
	</g>
	<g>
		<path class="st0" d="M363.8,118c-4.7,0-8.5,3.8-8.5,8.5c0,4.7,3.8,8.5,8.5,8.5s8.5-3.8,8.5-8.5C372.3,121.8,368.5,118,363.8,118z"
			/>
		<path class="st1" d="M363.8,119.4c-3.9,0-7.1,3.2-7.1,7.1c0,3.9,3.2,7.1,7.1,7.1c3.9,0,7.1-3.2,7.1-7.1
			C370.9,122.6,367.7,119.4,363.8,119.4z"/>
	</g>
	<g>
		<path class="st0" d="M482.3,118c-4.7,0-8.5,3.8-8.5,8.5c0,4.7,3.8,8.5,8.5,8.5s8.5-3.8,8.5-8.5C490.8,121.8,487,118,482.3,118z"/>
		<path class="st1" d="M482.3,119.4c-3.9,0-7.1,3.2-7.1,7.1c0,3.9,3.2,7.1,7.1,7.1c3.9,0,7.1-3.2,7.1-7.1
			C489.4,122.6,486.2,119.4,482.3,119.4z"/>
	</g>
	<g>
		<path class="st0" d="M541.5,59c-4.7,0-8.5,3.8-8.5,8.5c0,4.7,3.8,8.5,8.5,8.5s8.5-3.8,8.5-8.5C550,62.8,546.2,59,541.5,59z"/>
		<path class="st1" d="M541.5,60.4c-3.9,0-7.1,3.2-7.1,7.1c0,3.9,3.2,7.1,7.1,7.1c3.9,0,7.1-3.2,7.1-7.1
			C548.6,63.6,545.4,60.4,541.5,60.4z"/>
	</g>
</g>
</svg>
