<?xml version="1.0" encoding="utf-8"?>
<svg version="1.1" id="the-about-sign-3-light-grn-1" xmlns="http://www.w3.org/2000/svg" xmlns:xlink="http://www.w3.org/1999/xlink" x="0px"
	 y="0px" viewBox="0 0 550 135" style="enable-background:new 0 0 550 135;" xml:space="preserve">
<style type="text/css">
	.st0{fill:#231815;}
	.st1{fill:#97D2CE;}
</style>
<g>
	<g>
		<path class="st0" d="M541.5,0c4.7,0,8.5,3.8,8.5,8.5c0,4.7-3.8,8.5-8.5,8.5s-8.5-3.8-8.5-8.5C533,3.8,536.8,0,541.5,0z"/>
		<path class="st1" d="M541.5,1.4c3.9,0,7.1,3.2,7.1,7.1c0,3.9-3.2,7.1-7.1,7.1c-3.9,0-7.1-3.2-7.1-7.1
			C534.4,4.6,537.6,1.4,541.5,1.4z"/>
	</g>
	<g>
		<path class="st0" d="M423.1,0c4.7,0,8.5,3.8,8.5,8.5c0,4.7-3.8,8.5-8.5,8.5s-8.5-3.8-8.5-8.5C414.6,3.8,418.4,0,423.1,0z"/>
		<path class="st1" d="M423.1,1.4c3.9,0,7.1,3.2,7.1,7.1c0,3.9-3.2,7.1-7.1,7.1c-3.9,0-7.1-3.2-7.1-7.1C416,4.6,419.2,1.4,423.1,1.4
			z"/>
	</g>
	<g>
		<path class="st0" d="M304.6,0c4.7,0,8.5,3.8,8.5,8.5c0,4.7-3.8,8.5-8.5,8.5s-8.5-3.8-8.5-8.5C296.1,3.8,299.9,0,304.6,0z"/>
		<path class="st1" d="M304.6,1.4c3.9,0,7.1,3.2,7.1,7.1c0,3.9-3.2,7.1-7.1,7.1c-3.9,0-7.1-3.2-7.1-7.1
			C297.5,4.6,300.7,1.4,304.6,1.4z"/>
	</g>
	<g>
		<path class="st0" d="M186.2,0c4.7,0,8.5,3.8,8.5,8.5c0,4.7-3.8,8.5-8.5,8.5s-8.5-3.8-8.5-8.5C177.7,3.8,181.5,0,186.2,0z"/>
		<path class="st1" d="M186.2,1.4c3.9,0,7.1,3.2,7.1,7.1c0,3.9-3.2,7.1-7.1,7.1c-3.9,0-7.1-3.2-7.1-7.1
			C179.1,4.6,182.3,1.4,186.2,1.4z"/>
	</g>
	<g>
		<path class="st0" d="M67.7,0c4.7,0,8.5,3.8,8.5,8.5c0,4.7-3.8,8.5-8.5,8.5s-8.5-3.8-8.5-8.5C59.2,3.8,63,0,67.7,0z"/>
		<path class="st1" d="M67.7,1.4c3.9,0,7.1,3.2,7.1,7.1c0,3.9-3.2,7.1-7.1,7.1c-3.9,0-7.1-3.2-7.1-7.1C60.6,4.6,63.8,1.4,67.7,1.4z"
			/>
	</g>
	<path class="st0" d="M541.5,118c4.7,0,8.5,3.8,8.5,8.5c0,4.7-3.8,8.5-8.5,8.5s-8.5-3.8-8.5-8.5C533,121.8,536.8,118,541.5,118z"/>
	<path class="st1" d="M541.5,119.4c3.9,0,7.1,3.2,7.1,7.1c0,3.9-3.2,7.1-7.1,7.1c-3.9,0-7.1-3.2-7.1-7.1
		C534.4,122.6,537.6,119.4,541.5,119.4z"/>
	<g>
		<path class="st0" d="M423.1,118c4.7,0,8.5,3.8,8.5,8.5c0,4.7-3.8,8.5-8.5,8.5s-8.5-3.8-8.5-8.5C414.6,121.8,418.4,118,423.1,118z"
			/>
		<path class="st1" d="M423.1,119.4c3.9,0,7.1,3.2,7.1,7.1c0,3.9-3.2,7.1-7.1,7.1c-3.9,0-7.1-3.2-7.1-7.1
			C416,122.6,419.2,119.4,423.1,119.4z"/>
	</g>
	<g>
		<path class="st0" d="M304.6,118c4.7,0,8.5,3.8,8.5,8.5c0,4.7-3.8,8.5-8.5,8.5s-8.5-3.8-8.5-8.5C296.1,121.8,299.9,118,304.6,118z"
			/>
		<path class="st1" d="M304.6,119.4c3.9,0,7.1,3.2,7.1,7.1c0,3.9-3.2,7.1-7.1,7.1c-3.9,0-7.1-3.2-7.1-7.1
			C297.5,122.6,300.7,119.4,304.6,119.4z"/>
	</g>
	<g>
		<path class="st0" d="M186.2,118c4.7,0,8.5,3.8,8.5,8.5c0,4.7-3.8,8.5-8.5,8.5s-8.5-3.8-8.5-8.5C177.7,121.8,181.5,118,186.2,118z"
			/>
		<path class="st1" d="M186.2,119.4c3.9,0,7.1,3.2,7.1,7.1c0,3.9-3.2,7.1-7.1,7.1c-3.9,0-7.1-3.2-7.1-7.1
			C179.1,122.6,182.3,119.4,186.2,119.4z"/>
	</g>
	<g>
		<path class="st0" d="M67.7,118c4.7,0,8.5,3.8,8.5,8.5c0,4.7-3.8,8.5-8.5,8.5s-8.5-3.8-8.5-8.5C59.2,121.8,63,118,67.7,118z"/>
		<path class="st1" d="M67.7,119.4c3.9,0,7.1,3.2,7.1,7.1c0,3.9-3.2,7.1-7.1,7.1c-3.9,0-7.1-3.2-7.1-7.1
			C60.6,122.6,63.8,119.4,67.7,119.4z"/>
	</g>
	<g>
		<circle class="st1" cx="8.5" cy="67.5" r="7.8"/>
		<path class="st0" d="M0,67.5C0,62.8,3.8,59,8.5,59s8.5,3.8,8.5,8.5c0,4.7-3.8,8.5-8.5,8.5S0,72.2,0,67.5z M1.4,67.5
			c0,3.9,3.2,7.1,7.1,7.1s7.1-3.2,7.1-7.1c0-3.9-3.2-7.1-7.1-7.1S1.4,63.6,1.4,67.5z"/>
		<path class="st0" d="M8.5,59c4.7,0,8.5,3.8,8.5,8.5c0,4.7-3.8,8.5-8.5,8.5S0,72.2,0,67.5C0,62.8,3.8,59,8.5,59z"/>
		<path class="st1" d="M8.5,60.4c3.9,0,7.1,3.2,7.1,7.1c0,3.9-3.2,7.1-7.1,7.1c-3.9,0-7.1-3.2-7.1-7.1C1.4,63.6,4.6,60.4,8.5,60.4z"
			/>
	</g>
</g>
</svg>
