<?xml version="1.0" encoding="utf-8"?>
<svg version="1.1" id="the-about-sign-1-board-1" xmlns="http://www.w3.org/2000/svg" xmlns:xlink="http://www.w3.org/1999/xlink" x="0px"
	 y="0px" viewBox="0 0 550 135" style="enable-background:new 0 0 550 135;" xml:space="preserve">
<style type="text/css">
	.st0{fill:#121659;}
	.st1{fill:#FFF8EE;}
	.st2{fill:#231815;}
</style>
<g>
	
		<rect x="216" y="-199" transform="matrix(-1.836970e-16 1 -1 -1.836970e-16 342.4997 -207.5)" class="st0" width="118" height="533"/>
	<rect x="21.3" y="21.3" class="st1" width="507.4" height="92.4"/>
	<g>
		<path class="st0" d="M129,59.3c-2.7-5.6-4.7-9.4-6.1-11.2c-1.9-2.6-4.1-3.9-6.6-3.9c-1.5,0-3,0.4-4.4,1.3c-1.5,0.9-3,2.1-4.6,3.8
			c1.8,0.3,3.2,1.2,4.2,2.7c1,1.5,2.1,3.6,3.4,6.1c2.5,5.2,4.4,10.2,5.8,14.9c1,3.6,1.6,6.1,1.6,7.6l-0.2,2.2c1,0.8,2,1.4,2.9,2.1
			c0.9,0.6,1.7,1.1,2.5,1.5c0.8,0.4,1.4,0.8,2.1,1c0.6,0.2,1.2,0.3,1.7,0.3c1.2,0,2.3-0.6,3.4-1.9c1-1.3,1.6-3,1.6-5
			c0-1.7-0.6-4.3-1.7-7.7C133.2,69,131.4,64.4,129,59.3z"/>
		<path class="st0" d="M102.6,53.8c-1.7-1.3-3.4-1.9-5-1.9c-1.1,0-2.2,0.3-3.4,1c-1.1,0.6-2.5,1.5-4,2.8c0.9,0.2,1.5,0.5,1.9,0.8
			c0.4,0.4,0.5,0.9,0.5,1.6c0,0.9-0.2,2.1-0.6,3.6c-0.5,1.7-1.1,3.5-2,5.5c-1.2,2.8-2.3,4.8-3.5,6.1c-1.1,1.3-2.3,1.9-3.4,1.8l0.3,3
			c0,0.9-0.2,2.2-0.6,3.7c-0.3,1.2-0.5,2-0.5,2.5c0,1,0.3,1.7,1,2.3c0.7,0.6,1.6,0.9,2.8,0.9c4.1,0,7.7-2.3,10.8-6.8
			c3-4.4,5.4-11,7.4-19.6c0.3-0.6,0.6-1.2,0.7-1.8c0.2-0.6,0.2-1.1,0.2-1.7C105.3,56.4,104.4,55.1,102.6,53.8z"/>
		<path class="st0" d="M197.5,59.3c-1.3-1.1-2.7-1.8-4.3-2l-5.2-0.8c0.2,0.6,0.3,1.2,0.5,1.7c0.1,0.5,0.2,1,0.2,1.4
			c0,3.2-2,6.7-6.1,10.3c-4.4,3.9-9.6,6.4-15.6,7.4V54.5c0.8-1,1.5-1.9,2-2.6c0.5-0.7,0.7-1.4,0.7-1.9c0-1.3-1.1-2.7-3.3-4.2
			c-2.2-1.5-4.3-2.3-6.4-2.3c-1.3,0-2.7,0.6-4.3,1.7c-1.2,0.9-2.9,2.5-5.2,4.7c1.6,0.4,2.7,0.8,3.3,1.3c0.6,0.6,0.9,1.3,0.8,2.2
			v22.4c0,0.2,0,0.3,0,0.5s0,0.3,0,0.5c0,1.4-0.3,2.5-0.8,3.3c-0.6,0.7-0.8,1.3-0.8,1.7c0,0.7,0.4,1.7,1.1,2.9
			c0.8,1.5,2,3.1,3.6,4.7c1.1,1.2,2.1,2,3,2.6c0.9,0.5,1.7,0.8,2.5,0.8c0.6,0,1.2-0.2,1.8-0.6c0.5-0.4,1-1,1.5-1.8
			c4.4-0.7,8.3-1.8,11.8-3.1c3.5-1.4,6.7-3.1,9.5-5.1c3.7-2.7,6.6-5.7,8.7-9.1c2-3.1,3-6,3-8.6C199.4,62.2,198.8,60.4,197.5,59.3z"
			/>
		<path class="st0" d="M228.7,70.5c0.9-1.3,1.4-3.2,1.3-5.6V53.5c0-1.4,0.2-2.5,0.6-3.3c0.4-0.8,0.6-1.5,0.6-1.9
			c0-1.1-0.9-2.2-2.6-3.5c-1.7-1.2-3.4-1.8-5.1-1.8c-1.2,0-2.4,0.5-3.8,1.4c-1.4,0.9-2.9,2.2-4.6,4c1,0.1,1.7,0.5,2.2,1.1
			c0.5,0.7,0.7,1.6,0.7,2.9v13.1c0,0.3,0,0.6-0.1,0.8c-0.1,0.2-0.1,0.4-0.1,0.6c0,1,0.8,2.2,2.3,3.5c1.6,1.4,3.3,2.1,4.9,2.1
			C226.6,72.5,227.8,71.8,228.7,70.5z"/>
		<path class="st0" d="M254.2,44c-2.2-1.6-4.1-2.4-5.7-2.4c-0.8,0-2,0.5-3.6,1.6c-1.3,0.9-3.2,2.4-5.7,4.5c1.8,0.4,3,1,3.8,1.9
			c0.7,0.8,1,2,0.9,3.4v10.7c0.3,6.5-0.9,11.2-3.4,14.1s-6.7,4.4-12.6,4.4c-1.1,0-2.1,0-3.1-0.1c-1-0.1-2-0.2-2.9-0.5
			c1.3,1,2.4,2,3.3,3.1c0.8,1.1,1.4,2.4,1.7,3.8c0,0.2,0.1,0.4,0.1,0.6c0,0.2,0,0.4,0.1,0.6c0.3,1.2,0.7,2.3,1.3,3.2
			c0.6,0.9,2.2,1.3,4.7,1.3c6.9,0,12.4-2.5,16.7-7.4c4.2-4.9,6.4-11.9,6.4-20.9c0-0.4,0-0.9,0-1.4c0-0.5,0-1,0-1.5v-9.7
			c0-1.2,0.3-2.1,0.8-2.8c0.5-0.7,0.7-1.4,0.7-2C257.5,47,256.4,45.6,254.2,44z"/>
		<path class="st0" d="M320.1,60.5L287,61.1c-1.3,0.1-2.3-0.1-2.9-0.5c-0.6-0.4-1-1.2-1.2-2.3c-2.9,2.5-4.9,4.3-5.9,5.4
			c-1.4,1.6-2.1,3-2.1,4.3c0,1.3,1.2,2.7,3.5,4c2.3,1.3,4.4,2,6.3,2c0.3,0,0.9-0.1,1.6-0.4c1.7-0.6,3.2-0.8,4.5-0.7l30.1-0.4
			c0.2,0,0.3,0,0.5,0c0.1,0,0.3,0,0.4,0c2,0,3.5-0.4,4.5-1.2c1-0.8,1.5-2,1.5-3.6c0-2-0.8-3.7-2.3-5.2
			C324,60.8,322.2,60.2,320.1,60.5z"/>
		<path class="st0" d="M381.5,50.8v21.7c-0.1,0.4-0.2,0.7-0.3,1c-0.1,0.3-0.3,0.5-0.6,0.8c0.4,1.6,1,2.8,1.7,3.7
			c0.6,0.8,1.3,1.2,1.9,1.2c0.5,0,1.1-0.3,1.6-1c0.5-0.7,0.8-1.5,0.8-2.4v-27c0.1-0.7-0.1-1.3-0.5-1.7c-0.4-0.4-1-0.6-1.7-0.6
			c-0.7,0-1.4,0.2-2.1,0.7c-0.7,0.5-1.4,1.2-2.2,2.2c0.4,0.1,0.6,0.3,0.9,0.5C381.3,50.1,381.5,50.4,381.5,50.8z"/>
		<path class="st0" d="M380,80.6c-1.1-0.6-2.1-1.2-2.9-1.8c-0.9-0.6-1.6-1.1-2.3-1.6l2.1-1l1.3,0.4c0.3,0,0.6-0.1,0.7-0.4
			c0.2-0.3,0.2-0.7,0.2-1.3c0-1.4-0.5-2.5-1.5-3.5c-1-1-2.3-1.5-4-1.5h-2.3l0.3,1.3c0,0.1,0,0.2-0.1,0.3c-0.1,0.1-0.1,0.2-0.3,0.2
			l-2.6,1.1l-1.5-2.6l2.2-1.4l6.9-0.4c1.2,0,2.2-0.1,2.8-0.4c0.6-0.3,0.9-0.8,0.9-1.5c0-0.6-0.5-1.2-1.4-1.7
			c-0.9-0.5-2.3-0.9-4.2-1.3c-0.2,0.3-0.5,0.5-0.9,0.7c-0.4,0.2-0.9,0.2-1.4,0.2l-20.5,0.9v-5.9l5.3-0.3v0.8c0,1.3,0.3,2.2,1,2.9
			s1.6,0.9,2.8,0.9l12.1-0.4c1.5,0,2.6-0.1,3.3-0.5c0.7-0.4,1.1-1,1.1-2c0-0.8-0.7-1.3-2-1.6c-1.2-0.3-2.1-0.7-2.5-1.3
			c0.3-0.2,0.6-0.4,0.7-0.6c0.2-0.2,0.2-0.5,0.2-0.7l-0.2-0.8c1-0.1,1.7,0.2,2.1,0.7s0.9,0.8,1.8,0.8c0.7,0,1.3-0.3,1.8-0.9
			c0.5-0.6,0.7-1.5,0.7-2.6c0-1.3-0.5-2.5-1.5-3.6c-0.9-1.1-2.4-2.2-4.3-3.3c-0.4,0.4-0.8,0.6-1.2,0.8c-0.4,0.2-0.8,0.2-1.2,0.2
			l-5.2,0.2v-1.7l8.2-0.3c0.9,0,1.6-0.2,2.2-0.5c0.5-0.3,0.8-0.7,0.8-1.1c0-0.6-0.5-1.2-1.4-1.8c-1-0.6-2.3-1.2-4-1.6
			c-0.1,0.4-0.3,0.7-0.5,0.8c-0.2,0.2-0.5,0.3-0.9,0.4l-4.4,0.4v-0.5c0.2-0.2,0.4-0.4,0.5-0.6c0.1-0.2,0.2-0.4,0.2-0.5
			c0-0.5-0.4-1-1.1-1.5c-0.7-0.5-1.6-0.8-2.7-0.8c-1.2,0-2.5,0.4-3.8,1.1c-1.3,0.7-2.6,1.7-4,3.1c0.6,0.2,1.1,0.5,1.4,0.9
			c0.3,0.3,0.5,0.8,0.6,1.3v3.5l-5.5,0.2c-0.5-0.8-1.1-1.3-1.6-1.7c-0.5-0.4-0.9-0.6-1.4-0.6c-0.6,0-1.5,0.5-2.6,1.4
			c-1.2,1-2.5,2.4-3.9,4.1c0.4,0.3,0.6,0.6,0.8,0.9c0.2,0.3,0.3,0.7,0.4,1.2V70c-0.1,4.1-0.4,7.3-0.8,9.6c-0.4,2.3-1.1,3.8-1.9,4.4
			c0.8,3.4,1.5,5.9,2.3,7.4c0.8,1.6,1.6,2.5,2.5,2.5c1.3,0,2.5-2,3.7-6c1.2-4.6,1.9-10.6,2.1-18.1l8.2-0.4c-1.3,0.6-2.5,1.1-3.6,1.4
			c-1.1,0.4-2.1,0.6-3,0.8c-0.1,0.8-0.2,1.6-0.4,2.2c-0.1,0.6-0.2,1.1-0.2,1.4c0,0.4,0.1,0.8,0.2,0.9c0.1,0.2,0.4,0.3,0.7,0.3
			c0.6,0,1.6-0.2,2.9-0.7c1.2-0.4,2.7-1.2,4.6-2.2l0.6,1c-1.8,1.2-3.5,2.1-5,2.8c-1.4,0.6-2.7,1-3.7,1.1c-0.1,0.9-0.4,1.7-0.8,2.3
			c-0.4,0.6-0.7,1.2-0.7,1.8c0,0.5,0.1,0.8,0.3,1.1c0.2,0.2,0.5,0.3,1,0.3c0.8,0,2.2-0.5,4.2-1.6c2.2-1.1,4.3-2.5,6.4-4.1l0.7,2
			c-1.8,1.5-3.8,2.8-6,3.9c-2,0.9-3.4,1.3-4.2,1.3l-0.7-0.1c-0.4,1.2-0.8,2.2-1.2,2.9c-0.5,0.7-0.7,1.4-0.7,1.9c0,0.4,0.1,0.8,0.4,1
			s0.6,0.4,1,0.4c0.7,0,1.6-0.3,2.9-0.8c1.4-0.6,3-1.4,4.9-2.6c0.6,0.4,1,1,1.1,1.6s0.2,1.5,0.2,2.5v1.1c0,1,0.1,1.7,0.4,2.1
			c0.3,0.4,0.7,0.7,1.4,0.7c2.9,0,5.2-0.7,6.9-2.2c1.7-1.4,2.5-3.4,2.5-6l-0.2-2.8c1.5,1.8,2.7,3,3.6,3.8c1,0.8,1.8,1.2,2.4,1.2
			c0.6,0,1-0.8,1.1-2.4c0.2-2.8,0.8-4.9,2-6.3c-0.3-0.2-0.6-0.3-0.9-0.5C380.5,80.9,380.2,80.7,380,80.6z M365.1,52.9l6.7-0.3
			l-0.7,1.3l-0.5-0.3c-0.4,0.3-0.7,0.5-1.1,0.7c-0.4,0.1-0.8,0.2-1.3,0.2l-3.1,0.2V52.9z M371.8,58.3c-0.1,0.5-0.3,0.8-0.5,1.1
			c-0.2,0.2-0.5,0.4-0.9,0.4l-3.7,0.2c-0.5,0-0.8-0.1-1.1-0.3c-0.2-0.2-0.4-0.5-0.4-1L371.8,58.3z M351.9,53.6l5.2-0.2v1.8l-5.2,0.3
			V53.6z M365.1,87.3c-0.2,0.1-0.7,0.2-1.2,0.2l-2.3-0.1c0.7-0.4,1.3-0.9,1.9-1.4c0.6-0.5,1.2-1,1.7-1.5l0.3,1.9
			C365.5,86.9,365.3,87.2,365.1,87.3z"/>
		<path class="st0" d="M392.5,40c-0.7,0-1.6,0.4-2.6,1.1c-1,0.7-2.3,1.7-3.8,3.2c0.8,0.2,1.5,0.5,1.9,0.9c0.4,0.4,0.7,0.9,0.8,1.5
			v35.9c-0.1,0.6-0.2,1.1-0.5,1.3c-0.2,0.3-0.6,0.4-1.2,0.4H382V86c1.8,0.1,2.8,0.7,3.1,1.8c0.3,1.1,0.5,2.6,0.7,4.3
			c0.1,1.3,0.4,2.1,0.9,2.4c0.5,0.3,1.4,0.4,2.7,0.4c2,0,3.6-0.4,4.8-1.3c1.2-0.9,1.8-2.1,1.8-3.6V47.8c0.5-0.4,0.9-0.7,1.1-1.1
			c0.2-0.4,0.4-0.8,0.4-1.3c0-1-0.6-2.1-1.7-3.4C394.6,40.7,393.5,40,392.5,40z"/>
		<path class="st0" d="M465,73.2c-1.2-0.8-3.4-2-6.5-3.5c-0.2,0.4-0.5,0.6-0.9,0.9c-0.4,0.2-0.8,0.3-1.4,0.3l-11,0.2l2.3-1.6
			l12.7-0.4c0.8,0.5,1.6,0.8,2.3,1c0.7,0.2,1.4,0.3,2.2,0.3c1,0,1.7-0.2,2.2-0.7c0.5-0.5,0.8-1.2,0.8-2.2c0-1.1-0.5-2.2-1.4-3.2
			c-0.9-1-2.3-2-4.2-3.1c-0.5,0.4-1.1,0.6-1.8,0.8c-0.7,0.2-1.4,0.2-2.2,0.2L436,62.9c-0.6,0-1.1,0-1.6-0.1
			c-0.5-0.1-0.9-0.3-1.4-0.5c-1.5,1.6-2.5,2.8-3,3.4c-0.7,1-1,1.7-1,2.3c0,0.8,0.3,1.4,1,1.7c0.7,0.3,1.8,0.4,3.3,0.3l3.7-0.1
			c-1.5,1-2.7,1.7-3.6,2.2c-1,0.6-1.8,0.9-2.5,1c-0.1,1-0.5,2.2-1,3.8c-0.5,1.3-0.7,2.3-0.7,3c0,0.4,0.1,0.6,0.3,0.9
			c0.2,0.2,0.5,0.3,0.9,0.3c0.4,0,1.2-0.3,2.2-0.8c1-0.6,2.2-1.4,3.6-2.6h3.3c-2.4,2.2-4.4,3.8-6,4.9c-1.5,1-2.5,1.5-3.2,1.5
			l-0.8-0.4c-0.6,1-1.4,2.2-2.4,3.6c-1,1.4-1.5,2.4-1.5,2.9c0,0.6,0.3,1.1,0.8,1.5c0.5,0.4,1.2,0.6,2,0.6c1.7,0,4.1-1.2,7.4-3.7
			c2.9-2.3,7-6,12.1-11.1h2.8c-2.6,3.3-5.1,6-7.6,8.2c-1.9,1.6-3.2,2.5-3.7,2.5l-0.5-0.2c-0.4,0.6-0.7,1.1-1,1.6
			c-0.3,0.5-0.7,0.9-1,1.2c-0.4,0.6-0.8,1.2-1.1,1.6c-0.3,0.5-0.4,0.9-0.4,1.2c0,0.6,0.3,1.2,0.9,1.6c0.6,0.4,1.5,0.6,2.6,0.6
			c2,0,3.9-0.6,5.7-1.9c1.9-1.2,4-3,6.3-5.3c0.4,0.4,0.7,0.7,0.9,1.2c0.2,0.4,0.3,1,0.3,1.6l-0.2,2.1c0,0.6,0.3,1.1,0.8,1.3
			c0.6,0.3,1.4,0.4,2.6,0.4c3.2,0,5.6-0.8,7.4-2.5c1.7-1.7,2.6-4,2.5-7v-7.5c0.7-0.3,1.2-0.6,1.6-1c0.4-0.4,0.5-0.8,0.5-1.2
			C467.3,75.1,466.5,74.2,465,73.2z M456.7,85.1c0,0.7-0.2,1.2-0.6,1.5c-0.3,0.3-0.9,0.4-1.6,0.3h-2.2c0.7-0.8,1.5-1.7,2.2-2.6
			c0.7-0.9,1.5-2,2.2-3V85.1z"/>
		<path class="st0" d="M432.5,46.3c0.3,0.4,0.5,0.9,0.6,1.5v6.9c0,0.3-0.1,0.6-0.3,0.9s-0.3,0.5-0.5,0.8c1.2,1.8,2.5,3.2,4,4.3
			c1.3,0.9,2.3,1.4,3.1,1.4c0.3,0,0.6-0.1,1-0.3c0.3-0.2,0.7-0.5,1-0.9l21.2-0.5V46.6c0.6-0.2,1.1-0.5,1.4-0.9
			c0.3-0.4,0.5-0.8,0.5-1.2c0-1-0.8-1.8-2.4-2.6c-1.3-0.7-3.7-1.6-7.1-2.7c-0.4,0.6-0.8,1.1-1.3,1.5c-0.5,0.4-1.1,0.6-1.8,0.7
			l-10,0.2c-0.5-0.5-0.9-0.9-1.4-1.2c-0.4-0.3-0.9-0.4-1.3-0.4c-0.7,0-1.7,0.4-3,1.3c-1.4,0.9-3,2.2-4.9,4
			C431.9,45.5,432.3,45.9,432.5,46.3z M442.7,46.6l10.5-0.2v1.8l-10.5,0.3V46.6z M442.7,53.5l10.5-0.3v2l-10.5,0.3V53.5z"/>
		<path class="st0" d="M427.9,78.3c0.4-1,0.6-2.4,0.6-4c0-0.3,0-0.5,0-0.8c0-0.3,0-0.5,0-0.9c0-0.4,0-0.9,0.1-1.4
			c0-0.5,0.1-1.1,0.1-1.7L425,71v-8.6l1.7-0.1c1.4-0.1,2.6-0.4,3.3-1.1c0.8-0.7,1.2-1.5,1.2-2.4c0-0.8-0.3-1.6-1-2.6
			c-0.6-0.8-1.5-2-2.8-3.4c-0.3,0.3-0.6,0.4-1,0.5c-0.4,0.1-0.9,0.1-1.3,0.1v-5c0.4-0.5,0.7-1,0.9-1.5c0.2-0.5,0.3-1,0.3-1.5
			c0-1-0.7-2-2.1-2.9s-2.7-1.3-3.8-1.3c-0.9,0-1.9,0.5-2.9,1.6c-0.7,0.7-1.9,2.2-3.4,4.4c0.7,0.1,1.2,0.4,1.5,0.7
			c0.3,0.4,0.6,0.8,0.7,1.5v4.5l-1.3,0.1c-0.4,0-0.8,0-1.1-0.1c-0.4-0.1-0.7-0.2-1-0.4c-0.2,0.4-0.4,0.7-0.5,1
			c-0.2,0.3-0.3,0.6-0.4,0.8c-0.5,1-1,1.9-1.3,2.5s-0.5,1.2-0.5,1.7c0,1.1,0.4,2,1.2,2.7c0.8,0.7,1.9,1.1,3.3,0.9l1.6-0.1v11.6
			l-2.5,0.9c-0.1,0-0.2,0-0.3-0.1c-0.1-0.1-0.2-0.2-0.3-0.4c-0.8,1.1-1.5,2.2-1.9,3.2c-0.4,1-0.6,2.1-0.6,3.2c0,1.8,0.4,3.3,1.1,4.6
			c0.7,1.1,1.6,1.6,2.5,1.6c0.4,0,0.7-0.2,1-0.6c0.3-0.4,0.7-1.1,1-1.9l9.9-4.7C427,79.9,427.6,79.3,427.9,78.3z"/>
	</g>
	<path class="st2" d="M542.2,127.2H7.8V7.8h534.4V127.2z M9.2,125.8h531.6V9.2H9.2V125.8z"/>
	<path class="st2" d="M529.4,114.4H20.6V20.6h508.8V114.4z M22,113h506V22H22V113z"/>
</g>
</svg>
