<svg xmlns="http://www.w3.org/2000/svg" xmlns:xlink="http://www.w3.org/1999/xlink" width="401.165" height="191.021" viewBox="0 0 401.165 191.021">
  <defs>
    <clipPath id="clip-path">
      <polygon points="139.914 34.912 141.984 42.703 136.587 43.018 134.953 38.305 136.649 35.477 139.914 34.912" fill="none"/>
    </clipPath>
    <clipPath id="clip-path-2">
      <polygon points="145.503 71.483 145.159 64.068 141.111 64.634 140.663 68.53 142.109 71.42 145.503 71.483" fill="none"/>
    </clipPath>
  </defs>
  <g id="レイヤー_2" data-name="レイヤー 2">
    <g id="レイヤー_1-2" data-name="レイヤー 1">
      <g>
        <g>
          <g>
            <circle cx="322.659" cy="162.909" r="2.837" fill="#ee795e"/>
            <path d="M322.665,166.319c-.08,0-.16,0-.24-.009a3.374,3.374,0,1,1,.24.009Zm-.009-5.675a2.265,2.265,0,1,0,1.491,3.974h0a2.265,2.265,0,0,0-1.332-3.968Q322.736,160.644,322.656,160.644Z" fill="#231815"/>
          </g>
          <g>
            <circle cx="326.03" cy="162.796" r="2.837" fill="#ee795e"/>
            <path d="M326.032,166.2a3.407,3.407,0,1,1,2.237-.837h0A3.4,3.4,0,0,1,326.032,166.2Zm0-5.671a2.264,2.264,0,1,0,1.709.776A2.258,2.258,0,0,0,326.029,160.532Zm1.864,4.4h0Z" fill="#231815"/>
          </g>
          <g>
            <circle cx="315.382" cy="170.742" r="2.837" fill="#ee795e"/>
            <path d="M315.384,174.149a3.407,3.407,0,1,1,2.236-.836A3.4,3.4,0,0,1,315.384,174.149Zm0-5.671a2.264,2.264,0,1,0,1.71.776A2.258,2.258,0,0,0,315.38,168.478Z" fill="#231815"/>
          </g>
          <g>
            <circle cx="320.339" cy="170.856" r="2.837" fill="#ee795e"/>
            <path d="M320.341,174.263a3.407,3.407,0,1,1,2.236-.836h0A3.394,3.394,0,0,1,320.341,174.263Zm-.006-5.673a2.265,2.265,0,1,0,1.491,3.974h0A2.266,2.266,0,0,0,320.5,168.6C320.441,168.592,320.388,168.59,320.335,168.59ZM322.2,173h0Z" fill="#231815"/>
          </g>
          <g>
            <circle cx="324.934" cy="170.742" r="2.837" fill="#ee795e"/>
            <path d="M324.936,174.149a3.407,3.407,0,1,1,2.236-.836A3.4,3.4,0,0,1,324.936,174.149Zm0-5.671a2.264,2.264,0,1,0,1.71.776A2.256,2.256,0,0,0,324.932,168.478Z" fill="#231815"/>
          </g>
          <g>
            <circle cx="318.907" cy="166.762" r="2.837" fill="#ee795e"/>
            <path d="M318.912,170.171c-.079,0-.159,0-.24-.008a3.414,3.414,0,1,1,.24.008ZM318.9,164.5a2.265,2.265,0,0,0-.154,4.524,2.29,2.29,0,0,0,1.644-.551,2.264,2.264,0,0,0-1.49-3.973Z" fill="#231815"/>
          </g>
          <g>
            <circle cx="324.035" cy="166.876" r="2.837" fill="#ee795e"/>
            <path d="M324.037,170.283a3.407,3.407,0,1,1,2.237-.837A3.4,3.4,0,0,1,324.037,170.283Zm0-5.672a2.265,2.265,0,1,0,1.71.777A2.26,2.26,0,0,0,324.034,164.611Z" fill="#231815"/>
          </g>
          <g>
            <circle cx="329.71" cy="166.762" r="2.837" fill="#ee795e"/>
            <path d="M329.712,170.17a3.408,3.408,0,1,1,2.236-.837A3.4,3.4,0,0,1,329.712,170.17Zm0-5.672a2.262,2.262,0,1,0,1.71.776A2.253,2.253,0,0,0,329.708,164.5Z" fill="#231815"/>
          </g>
          <g>
            <circle cx="328.867" cy="170.856" r="2.837" fill="#ee795e"/>
            <path d="M328.872,174.265c-.079,0-.159,0-.24-.008a3.409,3.409,0,1,1,2.474-.83h0A3.385,3.385,0,0,1,328.872,174.265Zm-.009-5.675a2.266,2.266,0,1,0,1.492,3.974h0a2.266,2.266,0,0,0-1.332-3.969C328.97,168.592,328.917,168.59,328.863,168.59ZM330.73,173h0Z" fill="#231815"/>
          </g>
          <g>
            <circle cx="333.267" cy="170.856" r="2.837" fill="#ee795e"/>
            <path d="M333.272,174.265c-.079,0-.159,0-.24-.008a3.409,3.409,0,1,1,2.474-.83h0A3.385,3.385,0,0,1,333.272,174.265Zm-.007-5.673a2.265,2.265,0,1,0,1.489,3.972h0a2.263,2.263,0,0,0-1.489-3.972Zm1.865,4.4h0Z" fill="#231815"/>
          </g>
          <g>
            <polyline points="312.224 177.073 311.035 172.495 337.771 172.495 336.27 177.073" fill="#fff8ee"/>
            <path d="M336.27,177.645a.553.553,0,0,1-.178-.029.572.572,0,0,1-.366-.721l1.256-3.828H311.775l1,3.863a.572.572,0,0,1-1.107.287l-1.189-4.578a.572.572,0,0,1,.553-.716h26.736a.572.572,0,0,1,.544.75l-1.5,4.578A.574.574,0,0,1,336.27,177.645Z" fill="#231815"/>
          </g>
          <g>
            <polygon points="158.797 177.073 326.517 177.073 340.474 177.073 336.942 185.121 312.393 185.121 310.681 182.058 156.138 182.058 158.797 177.073" fill="#ee795e"/>
            <path d="M336.942,185.693H312.393a.572.572,0,0,1-.5-.293l-1.547-2.769H156.138a.572.572,0,0,1-.5-.842l2.659-4.985a.574.574,0,0,1,.5-.3H340.474a.572.572,0,0,1,.523.8l-3.531,8.048A.573.573,0,0,1,336.942,185.693Zm-24.214-1.144h23.841l3.029-6.9H159.14l-2.049,3.841h153.59a.573.573,0,0,1,.5.293Z" fill="#231815"/>
          </g>
          <g>
            <g>
              <path d="M129.015,123.9l-5.609,16.925c-15.73.439-23.433-4.485-23.433-4.485s-8.9-5.588-1.66-15.085c5.715-7.5,21.559.2,21.559.2A57.964,57.964,0,0,0,129.015,123.9Z" fill="#e84572"/>
              <path d="M123.406,141.4a.574.574,0,0,1-.543-.752l5.609-16.926a.575.575,0,0,1,.973-.2.57.57,0,0,1,.094.618L123.949,141A.572.572,0,0,1,123.406,141.4Z" fill="#231815"/>
            </g>
            <g>
              <rect x="105.718" y="107.02" width="15.543" height="4.316" transform="translate(36.438 -28.164) rotate(16.816)" fill="#f4aeb6"/>
              <path d="M120.3,114.065a.591.591,0,0,1-.166-.025l-14.878-4.5a.572.572,0,0,1-.381-.713l1.248-4.132a.572.572,0,0,1,.713-.382l14.878,4.5a.573.573,0,0,1,.382.713l-1.249,4.132a.572.572,0,0,1-.547.407Zm-14.165-5.451,13.783,4.165.918-3.036-13.783-4.166Z" fill="#231815"/>
            </g>
            <g>
              <path d="M113.168,111.336l13.137,3.97s9.9,3.892,5.647,17.956-16.115,47.991-16.115,47.991-8.967.308-22.756-3.86-21.352-9.47-21.352-9.47,9.136-34.751,13.387-48.815,14.647-11.823,14.647-11.823Z" fill="#e84572"/>
              <path d="M115.468,181.829c-1.878,0-10.42-.221-22.552-3.888-13.718-4.146-21.439-9.5-21.515-9.55a.572.572,0,0,1-.225-.614c.092-.348,9.187-34.921,13.392-48.835,4.353-14.4,15.207-12.239,15.316-12.217l13.449,4.063h0l13.136,3.97c.148.057,10.383,4.266,6.03,18.67-4.206,13.915-16,47.675-16.123,48.014a.572.572,0,0,1-.52.383C115.846,181.825,115.714,181.829,115.468,181.829ZM72.386,167.674a84.4,84.4,0,0,0,20.861,9.172c11.941,3.609,20.324,3.838,22.183,3.84,1.315-3.771,12.018-34.494,15.975-47.589,4.039-13.365-4.927-17.106-5.311-17.259l-26.5-8.006c-.358-.075-9.9-1.924-13.935,11.441C81.708,132.361,73.411,163.784,72.386,167.674Z" fill="#231815"/>
            </g>
            <g>
              <path d="M92.753,77.134c.109,1.532.251,2.969.415,4.324-2.3,0-5.938-.668-5.6-4.917s4.991-3.717,4.991-3.717C92.589,74.342,92.657,75.772,92.753,77.134Z" fill="#f4aeb6"/>
              <g>
                <path d="M93.175,82.03c-1.583,0-3.739-.3-5.059-1.729a4.814,4.814,0,0,1-1.122-3.8,4.338,4.338,0,0,1,1.52-3.149,6.02,6.02,0,0,1,4.107-1.092.572.572,0,0,1-.13,1.136,4.931,4.931,0,0,0-3.256.844,3.24,3.24,0,0,0-1.1,2.351,3.731,3.731,0,0,0,.821,2.938C90,80.65,91.82,80.886,93.168,80.886a.574.574,0,0,1,.575.572A.568.568,0,0,1,93.175,82.03Z" fill="#231815"/>
                <path d="M92.759,77.706h-2.4a.572.572,0,0,1,0-1.144h2.4a.575.575,0,0,1,.575.572A.569.569,0,0,1,92.759,77.706Z" fill="#231815"/>
              </g>
            </g>
            <g>
              <g>
                <g>
                  <path d="M143.619,89.964a31.245,31.245,0,0,0-.6,5.561h-.007a38.421,38.421,0,0,1-6.8.258,14.334,14.334,0,0,0,6.765-5.819v-.007c.208.007.423.007.638.007Z" fill="#231815"/>
                  <path d="M145.21,63.164c.243,3.124.329,5.984.308,8.592,0,.358-.007.716-.015,1.068a56.3,56.3,0,0,1-5.732-.079l.014-.187a10.669,10.669,0,0,1,.208-9.9,24.773,24.773,0,0,1,5.209.509Z" fill="#97d2ce"/>
                  <path d="M142.25,44.4l-.021.007a44.22,44.22,0,0,1-7.367.058v-.036a11.463,11.463,0,0,1-.222-10.376l-.014-.079a27.274,27.274,0,0,1,4.622-.48l.057-.022c.494,1.527.96,3.125,1.419,4.794Q141.529,41.187,142.25,44.4Z" fill="#97d2ce"/>
                  <path d="M145.525,71.756l4.127,6.764-4.428.531-.065-.008c.065-.616.115-1.254.158-1.906.093-1.361.158-2.794.186-4.313.008-.352.015-.71.015-1.068Z" fill="#f4aeb6"/>
                  <path d="M132.447,84.016c.144,1.477,1.491,3.289,4.071,4.522a14.1,14.1,0,0,0,3.575,1.125,19.377,19.377,0,0,0,2.881.294v.007a14.334,14.334,0,0,1-6.765,5.819H136.2c-8.52-.409-22.006-3.755-21.991-20.9.021-26.413,29.057-25.6,29.057-25.6.164.867.329,1.756.487,2.651.717,4.092,1.182,7.825,1.455,11.229H145.2a24.773,24.773,0,0,0-5.209-.509c-1.032-.021-2.2.008-3.49.108-3.9.294-4.951,2.465-5.037,4.514-.136,3.325,2.25,5.045,8.3,5.468a56.3,56.3,0,0,0,5.732.079c-.028,1.519-.093,2.952-.186,4.313-.043.652-.093,1.29-.158,1.906-.05.581-.107,1.147-.164,1.692H136.6s-3.49,0-4.106,2.465A2.371,2.371,0,0,0,132.447,84.016Z" fill="#f4aeb6"/>
                  <path d="M140.717,84.84l-.624,4.823a14.1,14.1,0,0,1-3.575-1.125l.566-4.063Z" fill="#fff8ee"/>
                  <path d="M132.5,83.2c.616-2.465,4.106-2.465,4.106-2.465h1l-.516,3.74-4.637-.459A2.371,2.371,0,0,1,132.5,83.2Z" fill="#fff8ee"/>
                  <path d="M145,80.735l-.086.723c-.158,1.34-.33,2.58-.509,3.748l-3.683-.366.516-4.005v-.1Z" fill="#fff8ee"/>
                  <path d="M140.717,84.84l3.683.366c-.272,1.763-.552,3.339-.781,4.758h-.007c-.215,0-.43,0-.638-.007a19.377,19.377,0,0,1-2.881-.294Z" fill="#fff8ee"/>
                  <polygon points="141.233 80.735 141.233 80.835 140.717 84.84 137.084 84.475 137.6 80.735 141.233 80.735" fill="#fff8ee"/>
                  <path d="M137.084,84.475l-.566,4.063c-2.58-1.233-3.927-3.045-4.071-4.522Z" fill="#fff8ee"/>
                  <path d="M136.5,62.763c1.29-.1,2.458-.129,3.49-.108a10.669,10.669,0,0,0-.208,9.9l-.014.187c-6.055-.423-8.441-2.143-8.3-5.468C131.552,65.228,132.6,63.057,136.5,62.763Z" fill="#fff8ee"/>
                  <path d="M127.052,39.761c.179-3.612,4.2-5.138,7.574-5.79l.014.079a11.463,11.463,0,0,0,.222,10.376v.036C130.921,44.125,126.894,42.985,127.052,39.761Z" fill="#fff8ee"/>
                  <path d="M146.886,114.9c.581,2.68,3.261,3.948,3.555,7.1.365,4.041-1.978,7.123-3.676,6.979-3.526-.293.659-3.016-1.541-6.907s-4.837-3.891-4.844-8.886c-.007-4.844-3.418-3.7-3.626-3.626,1.548,3.067-.322,5.633-.494,8.542-.223,3.826,2.572,5.367,3.382,6.1s1.684,3.16-1.691,3.525-6.908-3.081-6.543-8,1.964-8.814-5.381-9.917c0,0-19.111.1-20.265,0-10.913-12.225-12.59-28.348-12.59-28.348-.165-1.354-.308-2.794-.416-4.321-.1-1.368-.164-2.794-.2-4.313a105.88,105.88,0,0,1,1.712-20.889c.875-5.016,1.9-9.552,3.024-13.672C105.347,8.755,118.532,1.188,119,.93h.029c.43.243,12.2,6.993,20.279,32.539l-.057.022a27.274,27.274,0,0,0-4.622.48c-3.375.652-7.4,2.178-7.574,5.79-.158,3.224,3.869,4.364,7.81,4.7a44.22,44.22,0,0,0,7.367-.058l.021-.007c.358,1.569.695,3.2,1.018,4.887,0,0-29.036-.817-29.057,25.6-.015,17.148,13.471,20.494,21.991,20.9h.007a38.421,38.421,0,0,0,6.8-.258h.007c.043,2.844,1.053,4.829,4.156,6.635a6.342,6.342,0,0,1,4.149,5.661c.143,4.335.509,5.367,3.74,7.2s1.326,3.891,1.326,3.891a3.271,3.271,0,0,1-3.232.738C151.637,119.2,147.9,117.38,146.886,114.9Z" fill="#97d2ce"/>
                </g>
                <g>
                  <path d="M154.167,120.376a4.13,4.13,0,0,1-1.173-.176c-1.692-.5-5.539-2.407-6.637-5.082a.59.59,0,0,1,.29-.758.556.556,0,0,1,.741.258.7.7,0,0,1,.034.086c.874,2.124,4.273,3.916,5.9,4.4a2.686,2.686,0,0,0,2.655-.584h0a1.7,1.7,0,0,0,.386-1.265,2.8,2.8,0,0,0-1.579-1.734c-3.494-1.983-3.883-3.226-4.03-7.681a5.721,5.721,0,0,0-3.759-5.136.685.685,0,0,1-.107-.048c-3.1-1.808-4.391-3.871-4.44-7.122a31.769,31.769,0,0,1,.61-5.665c.087-.537.182-1.1.281-1.694.16-.952.331-1.968.5-3.055.195-1.274.361-2.493.506-3.727l.086-.725c.056-.533.113-1.1.163-1.673.064-.62.114-1.249.156-1.895.1-1.394.158-2.835.186-4.286.007-.367.014-.712.014-1.057.023-2.772-.08-5.645-.306-8.548-.285-3.549-.772-7.309-1.449-11.174-.157-.893-.321-1.778-.485-2.643-.342-1.784-.673-3.376-1.013-4.866-.474-2.113-.985-4.168-1.52-6.11-.5-1.825-.964-3.385-1.412-4.77C130.8,8.494,119.233,1.7,118.744,1.427a.572.572,0,1,1,.564-1c.5.286,12.451,7.293,20.542,32.865.453,1.4.92,2.974,1.426,4.814.54,1.96,1.056,4.033,1.532,6.161.343,1.5.677,3.107,1.021,4.9.166.871.331,1.762.489,2.66.683,3.9,1.175,7.7,1.462,11.283.229,2.935.333,5.842.31,8.641,0,.349-.007.7-.014,1.048-.029,1.5-.092,2.957-.189,4.368-.043.658-.094,1.3-.159,1.927-.049.574-.107,1.143-.164,1.691l-.088.734c-.146,1.244-.313,2.477-.511,3.765-.169,1.093-.34,2.114-.5,3.071q-.148.882-.281,1.691a30.906,30.906,0,0,0-.594,5.459c.042,2.816,1.117,4.537,3.829,6.127a6.95,6.95,0,0,1,4.476,6.16c.136,4.123.4,4.994,3.451,6.724a3.778,3.778,0,0,1,2.147,2.565,2.843,2.843,0,0,1-.685,2.213A3.81,3.81,0,0,1,154.167,120.376Z" fill="#231815"/>
                  <path d="M137.452,128.327a6.1,6.1,0,0,1-4.19-1.8,8.544,8.544,0,0,1-2.424-6.845c.05-.667.123-1.315.193-1.94.452-4.04.726-6.483-5.046-7.363-1.262.007-19.123.1-20.272,0a.57.57,0,0,1-.378-.189C94.425,97.966,92.62,81.681,92.6,81.517c-.176-1.445-.317-2.908-.417-4.339-.1-1.352-.165-2.772-.2-4.341a106.135,106.135,0,0,1,1.721-21c.833-4.781,1.855-9.4,3.036-13.725C104.85,8.4,118.158.741,118.72.429a.572.572,0,0,1,.555,1c-.546.3-13.448,7.734-21.431,36.984-1.172,4.291-2.185,8.874-3.012,13.62a105.017,105.017,0,0,0-1.7,20.776c.036,1.55.1,2.952.2,4.286.1,1.413.238,2.858.412,4.293.018.169,1.774,15.94,12.292,27.858,1.924.063,13.721.02,19.993-.013.027,0,.059,0,.088.007,6.906,1.037,6.493,4.724,6.055,8.627-.068.612-.139,1.246-.189,1.9a7.411,7.411,0,0,0,2.078,5.937,4.849,4.849,0,0,0,3.832,1.456c.735-.08,1.655-.311,1.869-.961a1.743,1.743,0,0,0-.5-1.575c-.1-.089-.236-.2-.4-.319a6.98,6.98,0,0,1-3.17-6.233,14.939,14.939,0,0,1,.57-2.954c.471-1.775.916-3.452-.015-5.3a9.25,9.25,0,0,0-2.477-2.877.572.572,0,1,1,.729-.881,10.325,10.325,0,0,1,2.77,3.245c1.126,2.232.6,4.2.1,6.1a13.889,13.889,0,0,0-.535,2.728,5.808,5.808,0,0,0,2.732,5.263c.185.144.344.269.463.376a2.844,2.844,0,0,1,.819,2.778c-.224.679-.9,1.531-2.832,1.741A5.226,5.226,0,0,1,137.452,128.327Z" fill="#231815"/>
                  <path d="M146.879,129.558c-.055,0-.109,0-.163-.007a2.325,2.325,0,0,1-1.758-.746c-.42-.6-.22-1.327.012-2.169a5.115,5.115,0,0,0-.244-4.281,14.447,14.447,0,0,0-2.313-2.981,7.611,7.611,0,0,1-2.605-6.185c0-1.474-.345-2.488-.992-2.936a2.288,2.288,0,0,0-1.859-.156.588.588,0,0,1-.778-.535.569.569,0,0,1,.431-.555,3.367,3.367,0,0,1,2.853.3c.985.679,1.486,1.983,1.489,3.878a6.525,6.525,0,0,0,2.293,5.4,15.584,15.584,0,0,1,2.476,3.2,6.239,6.239,0,0,1,.352,5.148c-.136.492-.289,1.05-.177,1.21.032.046.193.2.916.261a1.892,1.892,0,0,0,1.346-.69,7.3,7.3,0,0,0,1.713-5.668,7.1,7.1,0,0,0-1.773-3.724,8.451,8.451,0,0,1-1.771-3.307,6.2,6.2,0,0,1,.1-2.934c.861-3.38-2.629-5.965-4-6.525a4.038,4.038,0,0,1-2.262-2.94.572.572,0,0,1,1.129-.183h0a2.926,2.926,0,0,0,1.567,2.064c1.893.775,5.7,3.83,4.672,7.865a5.091,5.091,0,0,0-.1,2.4,7.46,7.46,0,0,0,1.568,2.869,8.222,8.222,0,0,1,2,4.307,8.356,8.356,0,0,1-2.041,6.578A3.054,3.054,0,0,1,146.879,129.558Z" fill="#231815"/>
                  <path d="M138.129,96.4c-.61,0-1.261-.013-1.946-.044a.572.572,0,0,1-.545-.6.592.592,0,0,1,.6-.545,37.716,37.716,0,0,0,6.689-.252.572.572,0,0,1,.172,1.131A36.075,36.075,0,0,1,138.129,96.4Z" fill="#231815"/>
                  <path d="M136.2,96.355h-.028c-8.423-.4-22.551-3.731-22.536-21.474.006-7.522,2.335-13.595,6.924-18.052,8.657-8.411,22.152-8.134,22.721-8.115a.572.572,0,0,1-.016,1.143c-.014,0-.022,0-.228,0-1.75,0-13.951.28-21.685,7.8-4.355,4.234-6.567,10.03-6.573,17.228-.014,16.793,13.432,19.946,21.448,20.33a.572.572,0,0,1-.027,1.144Z" fill="#231815"/>
                  <path d="M145.223,79.623a.572.572,0,0,1-.067-1.14l3.544-.424-3.663-6a.572.572,0,1,1,.976-.6l4.127,6.765a.571.571,0,0,1-.42.865l-4.428.53A.4.4,0,0,1,145.223,79.623Z" fill="#231815"/>
                  <path d="M143.612,90.536c-.222,0-.444,0-.659-.008a20.023,20.023,0,0,1-2.96-.3,14.7,14.7,0,0,1-3.722-1.172c-2.529-1.208-4.212-3.118-4.393-4.982a2.933,2.933,0,0,1,.065-1.011c.716-2.865,4.5-2.9,4.661-2.9H145a.573.573,0,0,1,0,1.145H136.6c-.03,0-3.052.034-3.552,2.032a1.79,1.79,0,0,0-.035.62c.106,1.1,1.152,2.823,3.747,4.063A13.6,13.6,0,0,0,140.2,89.1a19.058,19.058,0,0,0,2.794.284c.207.007.417,0,.623.007a.572.572,0,0,1,0,1.144Z" fill="#231815"/>
                  <path d="M136.209,96.355a.573.573,0,0,1-.146-1.127,13.845,13.845,0,0,0,6.431-5.574.572.572,0,1,1,.96.621,14.96,14.96,0,0,1-7.058,6.048A.565.565,0,0,1,136.209,96.355Z" fill="#231815"/>
                  <path d="M143.216,73.431c-1.3,0-2.449-.038-3.488-.116-4.215-.294-9.031-1.249-8.834-6.062.073-1.739.894-4.708,5.566-5.06,1.231-.1,2.425-.133,3.545-.11a25.285,25.285,0,0,1,5.336.526.572.572,0,0,1-.277,1.11,24.674,24.674,0,0,0-5.077-.491c-1.091-.023-2.245.012-3.439.1-2.892.218-4.409,1.553-4.511,3.968-.087,2.135.768,4.384,7.773,4.873a55.573,55.573,0,0,0,5.677.078.556.556,0,0,1,.588.555.571.571,0,0,1-.555.588Q144.3,73.433,143.216,73.431Z" fill="#231815"/>
                  <path d="M139.785,73.131a.572.572,0,0,1-.522-.339A11.259,11.259,0,0,1,139.5,62.37a.571.571,0,0,1,1.068.278v.008a.576.576,0,0,1-.1.321c-.026.039-2.589,3.929-.159,9.348a.572.572,0,0,1-.522.806Z" fill="#231815"/>
                  <path d="M138.091,45.164c-1.018,0-2.141-.035-3.278-.133-7.071-.6-8.434-3.214-8.333-5.3.156-3.152,2.936-5.338,8.037-6.324a27.687,27.687,0,0,1,4.731-.49.572.572,0,0,1,0,1.144,26.88,26.88,0,0,0-4.514.47c-3.155.609-6.95,2.016-7.111,5.256-.14,2.864,3.886,3.812,7.288,4.1a44.149,44.149,0,0,0,7.259-.057.572.572,0,0,1,.118,1.138C142.183,44.984,140.414,45.164,138.091,45.164Z" fill="#231815"/>
                  <path d="M134.863,45a.572.572,0,0,1-.514-.32,11.947,11.947,0,0,1-.2-10.915.572.572,0,0,1,.991.572h0a10.808,10.808,0,0,0,.24,9.839.572.572,0,0,1-.513.824Z" fill="#231815"/>
                  <path d="M144.4,85.778a.544.544,0,0,1-.057,0l-11.953-1.19a.572.572,0,0,1,.049-1.141h.007l12.009,1.193a.572.572,0,0,1-.055,1.141Z" fill="#231815"/>
                  <path d="M140.094,90.235a.613.613,0,0,1-.074,0,.572.572,0,0,1-.494-.64l1.139-8.828a.572.572,0,0,1,1.135.146l-1.14,8.828A.571.571,0,0,1,140.094,90.235Z" fill="#231815"/>
                  <path d="M136.518,89.11a.525.525,0,0,1-.079-.006.572.572,0,0,1-.488-.645l1.082-7.8a.572.572,0,1,1,1.133.157l-1.082,7.8A.572.572,0,0,1,136.518,89.11Z" fill="#231815"/>
                  <path d="M140.9,58.261a.565.565,0,0,1-.292-.081l-3.3-1.971a.572.572,0,0,1,.587-.981l3.3,1.971a.571.571,0,0,1-.294,1.062Z" fill="#231815"/>
                </g>
              </g>
              <g clip-path="url(#clip-path)">
                <circle cx="139.357" cy="39.042" r="3.011" fill="#231815"/>
              </g>
              <g clip-path="url(#clip-path-2)">
                <circle cx="144.995" cy="67.897" r="3.011" fill="#231815"/>
              </g>
            </g>
            <g>
              <path d="M119.008.921c-.007,0-.007.006-.014.006C107.174,5.435,85.5,26.693,85.5,26.693c3.677,6,11.793,11.568,11.793,11.568s3.608,2.689,11.715,3.868C109.009,42.129,108.982,26.083,119.008.921Z" fill="#97d2ce"/>
              <path d="M109.009,42.7a.447.447,0,0,1-.082-.007C100.77,41.509,97.1,38.833,96.952,38.72c-.317-.217-8.241-5.688-11.939-11.729a.571.571,0,0,1,.088-.707c.887-.87,21.863-21.363,33.664-25.881a.584.584,0,0,1,.716.2.567.567,0,0,1,.058.532c-9.862,24.75-9.958,40.837-9.958,41a.573.573,0,0,1-.572.573ZM86.232,26.78c3.677,5.689,11.307,10.956,11.385,11.01.052.037,3.443,2.492,10.837,3.676.127-3.234,1.158-18.03,9.525-39.5C107.013,6.911,88.9,24.2,86.232,26.78Z" fill="#231815"/>
            </g>
          </g>
          <g>
            <path d="M132.1,143.663l-17.107,5.024c-9.315-12.683-9.652-21.819-9.652-21.819s-.472-10.5,11.457-9.953c9.424.427,12.1,17.843,12.1,17.843A58.218,58.218,0,0,0,132.1,143.663Z" fill="#e84572"/>
            <g>
              <path d="M154.471,170.8a71.217,71.217,0,0,1-22.234-27.068l-17.108,5.024c6.363,8.663,12.944,16.588,30.434,26.782a4.63,4.63,0,0,0-.533,3.2l.732,4.043,2.117,4.31s1.02,3.188,2.263,3.156,3.188-2.518,3.188-2.518" fill="#f4aeb6"/>
              <g>
                <path d="M150.346,191.021a2.774,2.774,0,0,1-2.293-1.74,33.955,33.955,0,0,1-3.262-7.816,8.422,8.422,0,0,1,.249-5.563c-17.359-10.192-24.032-18.176-30.372-26.809-9.312-12.679-9.748-21.756-9.762-22.136a11,11,0,0,1,2.929-7.647c2.106-2.1,5.173-3.077,9.126-2.9,9.779.444,12.531,17.6,12.643,18.327a57.92,57.92,0,0,0,3.154,8.757,71.267,71.267,0,0,0,22.033,26.83.572.572,0,0,1-.64.948,72.471,72.471,0,0,1-22.435-27.306,58.937,58.937,0,0,1-3.23-8.994c-.039-.23-2.73-17.018-11.577-17.419-3.617-.163-6.4.7-8.265,2.565a9.955,9.955,0,0,0-2.595,6.791c0,.094.459,9.14,9.541,21.506,6.321,8.608,12.98,16.564,30.507,26.779a.573.573,0,0,1,.171.836c-.047.065-1.2,1.733-.366,5.162a33.787,33.787,0,0,0,3.168,7.568c.051.108.625,1.34,1.548,1.074a.907.907,0,0,0,.614-1.2.574.574,0,0,1,.4-.7.566.566,0,0,1,.7.391,2.04,2.04,0,0,1-1.391,2.6A2.066,2.066,0,0,1,150.346,191.021Z" fill="#231815"/>
                <path d="M115.129,149.327a.572.572,0,0,1-.161-1.121l17.108-5.024a.587.587,0,0,1,.3-.006.573.573,0,0,1-.035,1.121L115.29,149.3A.6.6,0,0,1,115.129,149.327Z" fill="#231815"/>
              </g>
            </g>
          </g>
          <path d="M154.471,170.8s8.282,3.378,9.043,3.8c1.684.934,1.964,2.031,1.063,2.742-1.175.917-6.138-1.012-6.138-1.012s3.3,6.831,3.7,7.648a2.2,2.2,0,0,1-.85,3.021c-1.388.694-2.686-1.23-2.686-1.23a1.961,1.961,0,0,1-.873,2.943c-1.432.571-2.445-1.247-2.562-1.477.363.946.5,2.568-.85,3.055-1.645.583-2.535-1.806-2.535-1.806l-3.207-7.7" fill="#f4aeb6"/>
          <path d="M157.174,189.4a3.205,3.205,0,0,1-2.515-1.9.572.572,0,0,1,1.018-.521c.008.016.836,1.6,1.842,1.206a1.251,1.251,0,0,0,.755-.731,1.742,1.742,0,0,0-.176-1.413l-3.188-7.417a.571.571,0,1,1,1.05-.451l3.168,7.375a2.813,2.813,0,0,1,.218,2.305,2.392,2.392,0,0,1-1.409,1.4A2.032,2.032,0,0,1,157.174,189.4Z" fill="#231815"/>
          <path d="M153.808,190.956c-1.337,0-2.239-1.406-2.561-2.271l-3.2-7.683a.572.572,0,1,1,1.056-.44l3.207,7.7c.014.037.722,1.88,1.816,1.487a.974.974,0,0,0,.584-.524,2.52,2.52,0,0,0-.068-1.761l-.02-.045c-.355-.913-3.147-7.271-3.175-7.335a.572.572,0,0,1,1.047-.46c.115.261,2.784,6.338,3.184,7.355a.431.431,0,0,1,.022.049,3.649,3.649,0,0,1,.05,2.672,2.174,2.174,0,0,1-1.943,1.252Z" fill="#231815"/>
          <path d="M148.576,181.348a.567.567,0,0,1-.572-.566v-.012a.572.572,0,1,1,.572.578Z" fill="#231815"/>
          <path d="M160.66,187.727a3.441,3.441,0,0,1-2.531-1.636.572.572,0,0,1,.947-.641h0c.011.015,1.05,1.5,1.957,1.04,1.336-.668.6-2.247.59-2.263-.4-.812-3.7-7.647-3.7-7.647a.572.572,0,0,1,.723-.781c2.25.875,5.03,1.521,5.578,1.094.3-.24.288-.437.282-.5-.011-.143-.137-.66-1.271-1.289-.537-.3-5.665-2.421-8.98-3.774a.572.572,0,0,1,.431-1.059c.851.347,8.336,3.4,9.106,3.834,1.451.8,1.809,1.638,1.854,2.2a1.712,1.712,0,0,1-.715,1.494c-1.009.787-3.624.125-5.37-.451.972,2.012,2.8,5.791,3.09,6.385a2.761,2.761,0,0,1-1.107,3.785A1.946,1.946,0,0,1,160.66,187.727Z" fill="#231815"/>
        </g>
        <g>
          <g>
            <g>
              <g>
                <path d="M290.223,108.631h2.806s11.558.463,11.558,11.091V140H261.276V119.722c0-10.628,11.559-11.091,11.559-11.091h2.806" fill="#97d2ce"/>
                <path d="M304.587,140.477H261.276A.473.473,0,0,1,260.8,140V119.722c0-10.956,11.893-11.559,12.013-11.564h2.825a.474.474,0,1,1,0,.947h-2.806a15.512,15.512,0,0,0-5.594,1.523,9.471,9.471,0,0,0-5.491,9.094V139.53h42.364V119.722a9.472,9.472,0,0,0-5.491-9.094,15.517,15.517,0,0,0-5.613-1.524h-2.788a.474.474,0,0,1,0-.947h2.807c.139,0,12.032.608,12.032,11.564V140A.474.474,0,0,1,304.587,140.477Z" fill="#231815"/>
              </g>
              <path d="M290.162,108.828s0,3.089-3.69,3.089a3.223,3.223,0,0,1-3.571-3.286v.2s0,3.089-3.689,3.089a3.223,3.223,0,0,1-3.571-3.286Z" fill="#fff"/>
              <g>
                <rect x="275.641" y="103.816" width="14.581" height="4.815" fill="#f4aeb6"/>
                <path d="M290.222,109.105H275.641a.474.474,0,0,1-.473-.474v-4.815a.474.474,0,0,1,.473-.474h14.581a.474.474,0,0,1,.474.474v4.815A.474.474,0,0,1,290.222,109.105Zm-14.107-.947h13.634v-3.869H276.115Z" fill="#231815"/>
              </g>
              <g>
                <g>
                  <path d="M282.9,40.48s26.376-2.239,22.69,36.461c0,0-1.391,12.69-15.368,26.875H275.58C261.6,89.631,260.212,76.941,260.212,76.941,256.526,38.241,282.9,40.48,282.9,40.48" fill="#f4aeb6"/>
                  <path d="M290.222,104.289H275.58a.474.474,0,0,1-.337-.141,61.44,61.44,0,0,1-13.024-18.9,32.361,32.361,0,0,1-2.477-8.251c-1.349-14.16,1.119-24.521,7.335-30.8a23.335,23.335,0,0,1,31.648,0c6.217,6.28,8.685,16.641,7.337,30.794-.015.136-1.571,13.025-15.5,27.163A.476.476,0,0,1,290.222,104.289Zm-14.443-.947h14.245c13.554-13.829,15.082-26.328,15.1-26.453,1.319-13.854-1.058-23.96-7.068-30.032a20.684,20.684,0,0,0-15.11-5.905.534.534,0,0,1-.08,0,20.762,20.762,0,0,0-15.123,5.916c-6,6.073-8.375,16.176-7.055,30.028C260.7,77.014,262.225,89.513,275.779,103.342Z" fill="#231815"/>
                </g>
                <path d="M291.857,73.7a2.66,2.66,0,1,0,2.657-2.657A2.652,2.652,0,0,0,291.857,73.7Zm.842,4.7a5.305,5.305,0,1,1,5.314-5.3A5.3,5.3,0,0,1,292.7,78.394Z" fill="#fff8ee"/>
                <path d="M291.857,73.7a2.66,2.66,0,1,1,2.657,2.651A2.654,2.654,0,0,1,291.857,73.7Zm3.569,0a.91.91,0,1,0-1.819,0,.91.91,0,0,0,1.819,0Z" fill="#97d2ce"/>
                <path d="M294.514,72.785a.91.91,0,1,1,0,1.82.91.91,0,0,1,0-1.82Z" fill="#231815"/>
                <path d="M273.96,73.7a.91.91,0,1,1,.908.907A.909.909,0,0,1,273.96,73.7Z" fill="#231815"/>
                <path d="M274.868,76.349a2.654,2.654,0,1,0-2.662-2.651A2.648,2.648,0,0,0,274.868,76.349Zm-1.815,2.045a5.308,5.308,0,1,1,5.3-5.3A5.307,5.307,0,0,1,273.053,78.394Z" fill="#fff8ee"/>
                <path d="M272.206,73.7a2.659,2.659,0,1,1,2.662,2.651A2.659,2.659,0,0,1,272.206,73.7Zm3.574,0a.91.91,0,1,0-.912.907A.912.912,0,0,0,275.78,73.7Z" fill="#97d2ce"/>
                <path d="M273.053,78.868a5.782,5.782,0,1,1,5.777-5.777A5.786,5.786,0,0,1,273.053,78.868Zm0-10.616a4.835,4.835,0,1,0,4.83,4.839A4.858,4.858,0,0,0,273.053,68.252Z" fill="#231815"/>
                <path d="M274.868,76.823A3.128,3.128,0,1,1,278,73.7,3.133,3.133,0,0,1,274.868,76.823Zm0-5.308a2.181,2.181,0,1,0,2.183,2.183A2.188,2.188,0,0,0,274.868,71.515Z" fill="#231815"/>
                <path d="M271.455,68.368a.473.473,0,0,1-.448-.321l-.655-1.926a.473.473,0,1,1,.9-.3l.655,1.926a.475.475,0,0,1-.3.6A.51.51,0,0,1,271.455,68.368Z" fill="#231815"/>
                <path d="M269.226,69.891a.465.465,0,0,1-.365-.176L267.3,68.187a.474.474,0,0,1,.664-.677l1.592,1.563a.454.454,0,0,1,.092.126.479.479,0,0,1-.209.641A.488.488,0,0,1,269.226,69.891Z" fill="#231815"/>
                <path d="M275.069,68.569a.449.449,0,0,1-.152-.025.474.474,0,0,1-.3-.6l.655-1.931a.474.474,0,0,1,.9.3l-.655,1.931A.474.474,0,0,1,275.069,68.569Z" fill="#231815"/>
                <path d="M277.288,70.091a.474.474,0,0,1-.333-.811l1.6-1.577a.474.474,0,1,1,.665.675l-1.6,1.578A.477.477,0,0,1,277.288,70.091Z" fill="#231815"/>
                <path d="M292.7,78.868a5.779,5.779,0,1,1,5.787-5.777A5.784,5.784,0,0,1,292.7,78.868Zm0-10.616a4.841,4.841,0,1,0,3.49,1.487A4.84,4.84,0,0,0,292.7,68.252Z" fill="#231815"/>
                <path d="M294.514,76.823a3.128,3.128,0,1,1,3.135-3.125A3.131,3.131,0,0,1,294.514,76.823Zm0-5.308A2.181,2.181,0,1,0,296.7,73.7,2.185,2.185,0,0,0,294.514,71.515Z" fill="#231815"/>
                <path d="M294.3,68.368a.509.509,0,0,1-.152-.025.474.474,0,0,1-.3-.6l.656-1.926a.473.473,0,1,1,.9.3l-.655,1.926A.475.475,0,0,1,294.3,68.368Z" fill="#231815"/>
                <path d="M296.523,69.887a.471.471,0,0,1-.343-.8l.01-.01,1.6-1.572a.474.474,0,0,1,.663.677l-1.593,1.562A.481.481,0,0,1,296.523,69.887Z" fill="#231815"/>
                <path d="M290.688,68.569a.473.473,0,0,1-.448-.321l-.656-1.931a.474.474,0,0,1,.9-.3l.656,1.931a.474.474,0,0,1-.3.6A.449.449,0,0,1,290.688,68.569Z" fill="#231815"/>
                <path d="M288.465,70.091a.47.47,0,0,1-.332-.136l-1.6-1.578a.473.473,0,1,1,.665-.674l1.6,1.578a.473.473,0,0,1-.333.81Z" fill="#231815"/>
              </g>
              <path d="M282.9,84.3a2.574,2.574,0,0,1-2.08-1.064,2.485,2.485,0,0,1-.459-2.137c.284-.938,1.806-5.075,2.065-5.779a.476.476,0,0,1,.863-.2.508.508,0,0,1,.08.187c.242.657,1.784,4.85,2.071,5.8a2.483,2.483,0,0,1-.46,2.137A2.571,2.571,0,0,1,282.9,84.3Zm0-7.523c-.549,1.5-1.432,3.932-1.633,4.6a1.574,1.574,0,0,0,.314,1.3,1.619,1.619,0,0,0,2.639,0,1.577,1.577,0,0,0,.314-1.3C284.333,80.709,283.451,78.28,282.9,76.777Z" fill="#231815"/>
              <path d="M282.932,140.477H261.276A.473.473,0,0,1,260.8,140V119.722c0-10.956,11.893-11.559,12.013-11.564h2.825a.474.474,0,1,1,0,.947h-2.806a15.512,15.512,0,0,0-5.594,1.523,9.471,9.471,0,0,0-5.491,9.094V139.53h21.182a.474.474,0,0,1,0,.947Z" fill="#231815"/>
              <path d="M304.587,140.477H282.932a.474.474,0,1,1,0-.947h21.182V119.722a9.472,9.472,0,0,0-5.491-9.094,15.517,15.517,0,0,0-5.613-1.524h-2.788a.474.474,0,0,1,0-.947h2.807c.139,0,12.032.608,12.032,11.564V140A.474.474,0,0,1,304.587,140.477Z" fill="#231815"/>
              <path d="M279.212,112.391a4.025,4.025,0,0,1-3.025-1.113,3.948,3.948,0,0,1-1.019-2.664.486.486,0,0,1,.49-.456.473.473,0,0,1,.456.489,3.029,3.029,0,0,0,.761,1.98,3.129,3.129,0,0,0,2.337.817c3.1,0,3.213-2.35,3.216-2.619a.474.474,0,0,1,.473-.469h0a.472.472,0,0,1,.471.472C283.375,108.864,283.327,112.391,279.212,112.391Z" fill="#231815"/>
              <path d="M286.472,112.391a4.025,4.025,0,0,1-3.025-1.113,3.954,3.954,0,0,1-1.019-2.664.48.48,0,0,1,.49-.456.474.474,0,0,1,.457.489,3.019,3.019,0,0,0,.76,1.98,3.129,3.129,0,0,0,2.337.817c3.1,0,3.214-2.35,3.216-2.619a.475.475,0,0,1,.474-.469h0a.471.471,0,0,1,.471.472C290.635,108.864,290.588,112.391,286.472,112.391Z" fill="#231815"/>
              <g>
                <path d="M300.6,62.992s5.182,20.46-3.055,40.522l11-.271c6.466-18.059,5.014-39.437,5.014-39.437-.509-8.026-4.053-32.434-30.624-32.434S252.817,55.78,252.308,63.806c0,0-1.452,21.378,5.013,39.437l11,.271c-8.237-20.062-3.055-40.522-3.055-40.522Z" fill="#fff8ee"/>
                <path d="M297.546,103.987a.473.473,0,0,1-.438-.653c7.491-18.244,3.744-37.061,3.117-39.868H265.638c-.626,2.807-4.374,21.624,3.117,39.868a.471.471,0,0,1-.048.448.494.494,0,0,1-.4.2l-11-.271a.474.474,0,0,1-.435-.314c-6.424-17.944-5.054-39.413-5.04-39.628.268-4.221,1.353-12.363,5.606-19.438C262.8,35.42,271.377,30.9,282.932,30.9s20.131,4.521,25.491,13.437c4.253,7.074,5.337,15.216,5.605,19.44.015.213,1.385,21.682-5.04,39.626a.472.472,0,0,1-.434.314l-11,.271ZM265.262,62.519H300.6a.473.473,0,0,1,.459.358c.052.2,5.014,20.382-2.806,40.146l9.951-.245c6.235-17.7,4.893-38.728,4.878-38.94-1.832-28.875-21.7-31.992-30.151-31.992s-28.32,3.117-30.152,31.99c-.014.214-1.354,21.249,4.879,38.942l9.95.245c-7.819-19.764-2.857-39.943-2.806-40.146A.473.473,0,0,1,265.262,62.519Z" fill="#231815"/>
              </g>
            </g>
            <g>
              <line x1="271.172" y1="62.992" x2="271.172" y2="55.53" fill="#ee795e"/>
              <path d="M271.172,63.466a.473.473,0,0,1-.473-.473V55.53a.473.473,0,0,1,.946,0v7.463A.473.473,0,0,1,271.172,63.466Z" fill="#231815"/>
            </g>
            <g>
              <line x1="279.073" y1="62.992" x2="279.073" y2="55.53" fill="#ee795e"/>
              <path d="M279.073,63.466a.474.474,0,0,1-.474-.473V55.53a.474.474,0,0,1,.947,0v7.463A.473.473,0,0,1,279.073,63.466Z" fill="#231815"/>
            </g>
            <g>
              <line x1="286.973" y1="62.992" x2="286.973" y2="55.53" fill="#ee795e"/>
              <path d="M286.973,63.466a.473.473,0,0,1-.473-.473V55.53a.474.474,0,0,1,.947,0v7.463A.474.474,0,0,1,286.973,63.466Z" fill="#231815"/>
            </g>
            <g>
              <line x1="294.874" y1="62.992" x2="294.874" y2="55.53" fill="#ee795e"/>
              <path d="M294.874,63.466a.473.473,0,0,1-.473-.473V55.53a.474.474,0,0,1,.947,0v7.463A.474.474,0,0,1,294.874,63.466Z" fill="#231815"/>
            </g>
          </g>
          <g>
            <path d="M282.917,93.661h8.957s-2.051,3.145-8.968,3.145-8.967-3.145-8.967-3.145h8.978Z" fill="#e84572"/>
            <path d="M291.874,90.235H273.939s3.927-3.4,5.761-3.574a4.157,4.157,0,0,1,3.206,1.568,4.163,4.163,0,0,1,3.212-1.568C287.947,86.833,291.874,90.235,291.874,90.235Z" fill="#e84572"/>
            <path d="M291.874,90.709H273.939a.474.474,0,0,1-.31-.832c.414-.358,4.1-3.507,6.028-3.687a4.265,4.265,0,0,1,3.25,1.343,4.318,4.318,0,0,1,3.256-1.343c1.924.18,5.608,3.329,6.021,3.687a.474.474,0,0,1-.31.832Zm-16.614-.947h15.293c-1.374-1.082-3.422-2.53-4.48-2.629a3.714,3.714,0,0,0-2.795,1.39.491.491,0,0,1-.742,0,3.709,3.709,0,0,0-2.79-1.39C278.683,87.232,276.634,88.68,275.26,89.762Z" fill="#231815"/>
            <path d="M282.907,97.28c-7.092,0-9.275-3.223-9.365-3.36a.474.474,0,0,1,.4-.733h17.935a.474.474,0,0,1,.4.733C292.182,94.057,290,97.28,282.907,97.28Zm-7.842-3.146c1.066.868,3.421,2.2,7.842,2.2s6.773-1.33,7.84-2.2Z" fill="#231815"/>
            <path d="M291.874,90.709H273.939a.474.474,0,1,1,0-.947h17.935a.474.474,0,1,1,0,.947Z" fill="#231815"/>
            <g>
              <rect x="273.939" y="90.235" width="17.936" height="3.425" fill="#fff"/>
              <path d="M291.874,94.134H273.939a.474.474,0,0,1-.474-.473V90.235a.474.474,0,0,1,.474-.473h17.935a.474.474,0,0,1,.474.473v3.426A.474.474,0,0,1,291.874,94.134Zm-17.462-.947H291.4V90.709H274.412Z" fill="#231815"/>
            </g>
            <g>
              <line x1="277.743" y1="93.661" x2="277.743" y2="90.235" fill="#fff"/>
              <path d="M277.743,94.134a.473.473,0,0,1-.473-.473V90.235a.473.473,0,1,1,.946,0v3.426A.473.473,0,0,1,277.743,94.134Z" fill="#231815"/>
            </g>
            <g>
              <line x1="281.168" y1="93.661" x2="281.168" y2="90.235" fill="#fff"/>
              <path d="M281.168,94.134a.473.473,0,0,1-.473-.473V90.235a.474.474,0,0,1,.947,0v3.426A.474.474,0,0,1,281.168,94.134Z" fill="#231815"/>
            </g>
            <g>
              <line x1="284.593" y1="93.661" x2="284.593" y2="90.235" fill="#fff"/>
              <path d="M284.593,94.134a.473.473,0,0,1-.473-.473V90.235a.474.474,0,0,1,.947,0v3.426A.474.474,0,0,1,284.593,94.134Z" fill="#231815"/>
            </g>
            <g>
              <line x1="288.018" y1="93.661" x2="288.018" y2="90.235" fill="#fff"/>
              <path d="M288.018,94.134a.473.473,0,0,1-.473-.473V90.235a.474.474,0,0,1,.947,0v3.426A.474.474,0,0,1,288.018,94.134Z" fill="#231815"/>
            </g>
          </g>
        </g>
        <g>
          <g>
            <g>
              <path d="M377.226,108.6h2.806s11.559.462,11.559,11.091v20.281H348.28V119.692c0-10.629,11.558-11.091,11.558-11.091h2.807" fill="#e84572"/>
              <path d="M391.591,140.447H348.28a.474.474,0,0,1-.474-.474V119.692c0-10.957,11.893-11.56,12.013-11.564h2.826a.474.474,0,0,1,0,.947h-2.807a15.566,15.566,0,0,0-5.594,1.523,9.474,9.474,0,0,0-5.491,9.095V139.5h42.364V119.692a9.473,9.473,0,0,0-5.491-9.095,15.56,15.56,0,0,0-5.613-1.524h-2.787a.474.474,0,1,1,0-.947h2.806c.139.005,12.032.608,12.032,11.565v20.281A.474.474,0,0,1,391.591,140.447Z" fill="#231815"/>
            </g>
            <path d="M377.165,108.8s0,3.089-3.689,3.089a3.222,3.222,0,0,1-3.571-3.286v.2s0,3.089-3.69,3.089a3.222,3.222,0,0,1-3.57-3.286Z" fill="#fff"/>
            <g>
              <rect x="362.645" y="103.785" width="14.581" height="4.815" fill="#f4aeb6"/>
              <path d="M377.226,109.074H362.645a.474.474,0,0,1-.474-.473v-4.816a.474.474,0,0,1,.474-.473h14.581a.473.473,0,0,1,.473.473V108.6A.473.473,0,0,1,377.226,109.074Zm-14.108-.947h13.634v-3.868H363.118Z" fill="#231815"/>
            </g>
            <g>
              <g>
                <path d="M369.905,40.45s26.375-2.239,22.689,36.46c0,0-1.391,12.691-15.368,26.875H362.584C348.606,89.6,347.216,76.91,347.216,76.91c-3.686-38.7,22.689-36.46,22.689-36.46" fill="#f4aeb6"/>
                <path d="M377.226,104.259H362.584a.476.476,0,0,1-.338-.141,61.476,61.476,0,0,1-13.024-18.9,32.424,32.424,0,0,1-2.477-8.251c-1.349-14.16,1.12-24.521,7.336-30.8a23.334,23.334,0,0,1,31.648,0c6.216,6.28,8.684,16.642,7.336,30.8-.015.135-1.57,13.025-15.5,27.163A.474.474,0,0,1,377.226,104.259Zm-14.444-.947h14.245c13.554-13.829,15.083-26.328,15.1-26.453,1.319-13.846-1.055-23.949-7.056-30.022a20.751,20.751,0,0,0-15.122-5.915.534.534,0,0,1-.08,0,20.768,20.768,0,0,0-15.122,5.916c-6,6.073-8.375,16.175-7.056,30.028C347.7,76.984,349.229,89.483,362.782,103.312Z" fill="#231815"/>
              </g>
              <path d="M375.539,74.2a2.659,2.659,0,1,0,2.656-2.656A2.652,2.652,0,0,0,375.539,74.2Zm4.164,4.162a5.305,5.305,0,1,1,5.313-5.3A5.3,5.3,0,0,1,379.7,78.364Z" fill="#fff8ee"/>
              <path d="M375.539,74.2a2.659,2.659,0,1,1,2.656,2.652A2.653,2.653,0,0,1,375.539,74.2Zm3.568,0a.91.91,0,1,0-.912.908A.912.912,0,0,0,379.107,74.2Z" fill="#97d2ce"/>
              <path d="M378.2,73.29a.91.91,0,1,1-.907.912A.912.912,0,0,1,378.2,73.29Z" fill="#231815"/>
              <path d="M357.641,74.2a.91.91,0,1,1,.908.908A.908.908,0,0,1,357.641,74.2Z" fill="#231815"/>
              <path d="M358.549,76.854a2.654,2.654,0,1,0-2.662-2.652A2.649,2.649,0,0,0,358.549,76.854Zm1.507,1.51a5.308,5.308,0,1,1,5.3-5.3A5.308,5.308,0,0,1,360.056,78.364Z" fill="#fff8ee"/>
              <path d="M355.887,74.2a2.659,2.659,0,1,1,2.662,2.652A2.658,2.658,0,0,1,355.887,74.2Zm3.574,0a.91.91,0,1,0-.912.908A.912.912,0,0,0,359.461,74.2Z" fill="#97d2ce"/>
              <path d="M360.056,78.838a5.782,5.782,0,1,1,5.777-5.777A5.786,5.786,0,0,1,360.056,78.838Zm0-10.617a4.835,4.835,0,1,0,4.83,4.84A4.851,4.851,0,0,0,360.056,68.221Z" fill="#231815"/>
              <path d="M358.549,77.328a3.128,3.128,0,1,1,3.129-3.126A3.134,3.134,0,0,1,358.549,77.328Zm0-5.309a2.181,2.181,0,1,0,2.183,2.183A2.189,2.189,0,0,0,358.549,72.019Z" fill="#231815"/>
              <path d="M358.459,68.337a.472.472,0,0,1-.449-.321l-.655-1.925a.473.473,0,1,1,.9-.3l.656,1.925a.473.473,0,0,1-.3.6A.479.479,0,0,1,358.459,68.337Z" fill="#231815"/>
              <path d="M356.23,69.861a.467.467,0,0,1-.366-.176l-1.558-1.528a.474.474,0,0,1,.663-.677l1.593,1.563a.464.464,0,0,1,.092.127.478.478,0,0,1-.209.64A.488.488,0,0,1,356.23,69.861Z" fill="#231815"/>
              <path d="M362.073,68.539a.474.474,0,0,1-.449-.626l.656-1.931a.474.474,0,0,1,.9.305l-.656,1.931A.475.475,0,0,1,362.073,68.539Z" fill="#231815"/>
              <path d="M364.291,70.061a.473.473,0,0,1-.332-.811l1.6-1.578a.474.474,0,0,1,.664.676l-1.6,1.578A.475.475,0,0,1,364.291,70.061Z" fill="#231815"/>
              <path d="M379.7,78.838a5.78,5.78,0,1,1,5.786-5.777A5.784,5.784,0,0,1,379.7,78.838Zm0-10.617a4.842,4.842,0,1,0,3.49,1.489A4.841,4.841,0,0,0,379.7,68.221Z" fill="#231815"/>
              <path d="M378.2,77.328A3.128,3.128,0,1,1,381.33,74.2,3.131,3.131,0,0,1,378.2,77.328Zm0-5.309a2.181,2.181,0,1,0,2.188,2.183A2.186,2.186,0,0,0,378.2,72.019Z" fill="#231815"/>
              <path d="M381.306,68.337a.481.481,0,0,1-.153-.025.473.473,0,0,1-.3-.6l.655-1.925a.473.473,0,1,1,.9.3l-.655,1.925A.472.472,0,0,1,381.306,68.337Z" fill="#231815"/>
              <path d="M383.526,69.857a.472.472,0,0,1-.337-.8L384.8,67.48a.474.474,0,0,1,.664.677l-1.593,1.562A.485.485,0,0,1,383.526,69.857Z" fill="#231815"/>
              <path d="M377.692,68.539a.475.475,0,0,1-.449-.321l-.655-1.931a.474.474,0,0,1,.9-.305l.655,1.931a.473.473,0,0,1-.448.626Z" fill="#231815"/>
              <path d="M375.469,70.061a.472.472,0,0,1-.333-.136l-1.6-1.578a.473.473,0,0,1,.665-.674l1.6,1.578a.474.474,0,0,1,0,.669A.468.468,0,0,1,375.469,70.061Z" fill="#231815"/>
            </g>
            <path d="M369.905,84.27a2.571,2.571,0,0,1-2.08-1.064,2.486,2.486,0,0,1-.46-2.137c.285-.937,1.805-5.07,2.066-5.778a.472.472,0,0,1,.08-.2.479.479,0,0,1,.862.189c.244.661,1.785,4.849,2.071,5.793a2.485,2.485,0,0,1-.459,2.137A2.573,2.573,0,0,1,369.905,84.27Zm0-7.523c-.55,1.5-1.432,3.932-1.634,4.6a1.581,1.581,0,0,0,.314,1.3,1.619,1.619,0,0,0,2.639,0,1.578,1.578,0,0,0,.315-1.3C371.337,80.679,370.455,78.25,369.905,76.747Z" fill="#231815"/>
            <path d="M369.935,140.447H348.28a.474.474,0,0,1-.474-.474V119.692c0-10.957,11.893-11.56,12.013-11.564h2.826a.474.474,0,0,1,0,.947h-2.807a15.566,15.566,0,0,0-5.594,1.523,9.474,9.474,0,0,0-5.491,9.095V139.5h21.182a.474.474,0,1,1,0,.947Z" fill="#231815"/>
            <path d="M391.591,140.447H369.935a.474.474,0,0,1,0-.947h21.182V119.692a9.473,9.473,0,0,0-5.491-9.095,15.56,15.56,0,0,0-5.613-1.524h-2.787a.474.474,0,1,1,0-.947h2.806c.139.005,12.032.608,12.032,11.565v20.281A.474.474,0,0,1,391.591,140.447Z" fill="#231815"/>
            <path d="M366.216,112.36a4.027,4.027,0,0,1-3.026-1.112,3.956,3.956,0,0,1-1.019-2.665.481.481,0,0,1,.491-.456.475.475,0,0,1,.456.489,3.02,3.02,0,0,0,.76,1.981,3.131,3.131,0,0,0,2.338.817c3.1,0,3.213-2.35,3.216-2.619a.474.474,0,0,1,.473-.469h0a.471.471,0,0,1,.471.472C370.378,108.834,370.331,112.36,366.216,112.36Z" fill="#231815"/>
            <path d="M373.476,112.36a4.029,4.029,0,0,1-3.026-1.112,3.953,3.953,0,0,1-1.018-2.665.483.483,0,0,1,.49-.456.473.473,0,0,1,.456.489h0a3.024,3.024,0,0,0,.761,1.981,3.127,3.127,0,0,0,2.337.817c3.1,0,3.213-2.35,3.216-2.619a.474.474,0,0,1,.473-.469h0a.471.471,0,0,1,.471.472C377.638,108.834,377.591,112.36,373.476,112.36Z" fill="#231815"/>
            <g>
              <path d="M369.935,31.342c26.571,0,30.108,24.408,30.624,32.434.6,9.28-.6,21.639-7.02,32.506-3.621,6.126-8.989,7.2-8.989,7.2,8.237-20.061,2.79-41.717,2.79-41.717H369.9c-8.666,0-11.527-9.167-11.527-9.167s-4.326,3.056-6.111,10.363c0,0-5.182,20.46,3.055,40.521,0,0-4.926-.4-9.282-8.081-5.864-10.335-7.259-23.253-6.728-31.626.509-8.026,4.053-32.434,30.624-32.434" fill="#ee795e"/>
              <path d="M384.55,103.957a.474.474,0,0,1-.438-.654c7.508-18.286,3.5-38.167,2.852-41.063H369.9c-7.529,0-10.866-6.714-11.738-8.853a18.99,18.99,0,0,0-5.44,9.687c-.053.207-5.047,20.552,3.033,40.229a.474.474,0,0,1-.056.459.489.489,0,0,1-.421.193c-.211-.017-5.226-.511-9.655-8.319-5.843-10.3-7.338-23.227-6.788-31.89.268-4.223,1.352-12.365,5.605-19.44,5.36-8.916,13.936-13.437,25.491-13.437s20.13,4.521,25.488,13.437c4.246,7.064,5.337,15.212,5.609,19.439.451,7,.129,20.569-7.086,32.777-3.686,6.238-9.076,7.38-9.3,7.426A.586.586,0,0,1,384.55,103.957ZM369.935,31.816c-8.455,0-28.319,3.117-30.151,31.99-.541,8.527.926,21.244,6.666,31.363,3.127,5.511,6.561,7.166,8.094,7.65-7.72-19.708-2.789-39.77-2.737-39.973,1.806-7.391,6.114-10.5,6.3-10.634a.475.475,0,0,1,.725.246c.027.088,2.867,8.835,11.075,8.835H387.34a.473.473,0,0,1,.459.358c.054.215,5.227,21.375-2.444,41.094a15.24,15.24,0,0,0,7.776-6.7c7.086-11.989,7.4-25.342,6.956-32.235C398.227,34.933,378.381,31.816,369.935,31.816Z" fill="#231815"/>
            </g>
            <g>
              <path d="M366.274,54.015s4.006,7.751,8.267,7.751" fill="#ee795e"/>
              <path d="M374.541,62.24c-4.5,0-8.518-7.681-8.687-8.008a.473.473,0,1,1,.841-.435c.039.075,3.922,7.5,7.846,7.5a.474.474,0,0,1,0,.947Z" fill="#231815"/>
            </g>
            <g>
              <path d="M373.626,54.015s4,7.751,8.266,7.751" fill="#ee795e"/>
              <path d="M381.892,62.24c-4.5,0-8.518-7.681-8.687-8.008a.473.473,0,1,1,.841-.435c.039.075,3.923,7.5,7.846,7.5a.474.474,0,0,1,0,.947Z" fill="#231815"/>
            </g>
          </g>
          <g>
            <path d="M369.92,93.63h8.958s-2.052,3.146-8.968,3.146-8.968-3.146-8.968-3.146h8.978Z" fill="#e84572"/>
            <path d="M378.878,90.205H360.942s3.927-3.4,5.762-3.574A4.157,4.157,0,0,1,369.91,88.2a4.16,4.16,0,0,1,3.211-1.568C374.951,86.8,378.878,90.205,378.878,90.205Z" fill="#e84572"/>
            <path d="M378.877,90.679H360.942a.474.474,0,0,1-.31-.832c.414-.358,4.1-3.507,6.028-3.688a4.286,4.286,0,0,1,3.25,1.344,4.3,4.3,0,0,1,3.256-1.344c1.924.181,5.608,3.33,6.022,3.688a.474.474,0,0,1-.311.832Zm-16.614-.947h15.293c-1.373-1.082-3.422-2.53-4.479-2.63a3.712,3.712,0,0,0-2.8,1.391.477.477,0,0,1-.371.178h0a.477.477,0,0,1-.371-.178,3.69,3.69,0,0,0-2.79-1.391C365.687,87.2,363.637,88.65,362.263,89.732Z" fill="#231815"/>
            <path d="M369.91,97.249c-7.091,0-9.275-3.223-9.365-3.36a.474.474,0,0,1,.4-.732h17.935a.473.473,0,0,1,.4.732C379.185,94.026,377,97.249,369.91,97.249ZM362.069,94.1c1.066.868,3.421,2.2,7.841,2.2s6.773-1.33,7.841-2.2Z" fill="#231815"/>
            <path d="M378.877,90.679H360.942a.474.474,0,0,1,0-.947h17.935a.474.474,0,1,1,0,.947Z" fill="#231815"/>
            <g>
              <rect x="360.942" y="90.205" width="17.936" height="3.425" fill="#fff"/>
              <path d="M378.877,94.1H360.942a.473.473,0,0,1-.473-.473V90.205a.473.473,0,0,1,.473-.473h17.935a.474.474,0,0,1,.474.473V93.63A.474.474,0,0,1,378.877,94.1Zm-17.462-.946H378.4V90.679H361.415Z" fill="#231815"/>
            </g>
            <g>
              <line x1="364.747" y1="93.63" x2="364.747" y2="90.205" fill="#fff"/>
              <path d="M364.747,94.1a.474.474,0,0,1-.474-.473V90.205a.474.474,0,0,1,.947,0V93.63A.473.473,0,0,1,364.747,94.1Z" fill="#231815"/>
            </g>
            <g>
              <line x1="368.172" y1="93.63" x2="368.172" y2="90.205" fill="#fff"/>
              <path d="M368.172,94.1a.474.474,0,0,1-.474-.473V90.205a.474.474,0,0,1,.947,0V93.63A.473.473,0,0,1,368.172,94.1Z" fill="#231815"/>
            </g>
            <g>
              <line x1="371.597" y1="93.63" x2="371.597" y2="90.205" fill="#fff"/>
              <path d="M371.6,94.1a.474.474,0,0,1-.474-.473V90.205a.474.474,0,0,1,.947,0V93.63A.473.473,0,0,1,371.6,94.1Z" fill="#231815"/>
            </g>
            <g>
              <line x1="375.022" y1="93.63" x2="375.022" y2="90.205" fill="#fff"/>
              <path d="M375.022,94.1a.474.474,0,0,1-.474-.473V90.205a.474.474,0,0,1,.947,0V93.63A.473.473,0,0,1,375.022,94.1Z" fill="#231815"/>
            </g>
          </g>
        </g>
        <path d="M330.51,49.482H330.5a.473.473,0,0,1-.465-.482c.074-4.364-3.344-4.657-3.49-4.668a.473.473,0,0,1-.205-.881c1.968-1.142,3.059-2.49,3.243-4.008.307-2.533-2-4.789-2.024-4.811a.474.474,0,0,1,.385-.812c1.873.229,3.241-.133,4.062-1.074,1.656-1.9.712-5.59.7-5.628a.473.473,0,0,1,.683-.536c1.815.982,3.363,1.176,4.6.578,2.214-1.069,2.818-4.347,2.824-4.379a.473.473,0,0,1,.42-.389.484.484,0,0,1,.488.3c.062.159,1.615,3.9,6.955,2.748a.473.473,0,1,1,.2.925c-4.262.924-6.469-1.009-7.428-2.3a6.6,6.6,0,0,1-3.044,3.946,5.382,5.382,0,0,1-4.6-.172c.2,1.372.328,3.9-1.09,5.527a4.707,4.707,0,0,1-3.738,1.468,6.765,6.765,0,0,1,1.54,4.717,5.977,5.977,0,0,1-2.767,4.114c1.317.486,3.285,1.807,3.225,5.352A.474.474,0,0,1,330.51,49.482Z" fill="#231815"/>
        <path d="M242.3,49.482h-.008a.474.474,0,0,1-.466-.482c.074-4.364-3.344-4.657-3.489-4.668a.473.473,0,0,1-.206-.881c1.968-1.142,3.06-2.49,3.244-4.008.307-2.533-2-4.789-2.025-4.811a.474.474,0,0,1,.386-.812c1.872.229,3.24-.133,4.061-1.074,1.657-1.9.712-5.59.7-5.628a.473.473,0,0,1,.683-.536c1.814.982,3.362,1.176,4.6.578,2.214-1.069,2.817-4.347,2.823-4.379a.473.473,0,0,1,.42-.389.481.481,0,0,1,.488.3c.063.159,1.615,3.908,6.955,2.748a.473.473,0,1,1,.2.925c-4.262.927-6.468-1.009-7.428-2.3a6.6,6.6,0,0,1-3.044,3.946,5.386,5.386,0,0,1-4.6-.172c.2,1.372.328,3.9-1.09,5.527a4.707,4.707,0,0,1-3.738,1.468,6.77,6.77,0,0,1,1.541,4.717,5.981,5.981,0,0,1-2.768,4.114c1.317.486,3.285,1.807,3.225,5.352A.474.474,0,0,1,242.3,49.482Z" fill="#231815"/>
        <g>
          <g>
            <polygon points="49.602 90.641 59.344 78.79 61.833 28.47 51.974 5.735 31.901 0.656 10.995 5.991 1.968 28.214 0.656 74.032 16.369 95.72 33.492 98.622 49.602 90.641" fill="#fff"/>
            <path d="M33.492,99.279a.8.8,0,0,1-.11-.009l-17.123-2.9a.652.652,0,0,1-.421-.262L.125,74.417a.656.656,0,0,1-.125-.4L1.312,28.2a.689.689,0,0,1,.048-.228L10.388,5.745a.652.652,0,0,1,.446-.389L31.739.021a.654.654,0,0,1,.323,0L52.135,5.1a.656.656,0,0,1,.441.375l9.859,22.735a.656.656,0,0,1,.054.293L60,78.823a.66.66,0,0,1-.148.384L50.108,91.058a.649.649,0,0,1-.215.171l-16.11,7.982A.671.671,0,0,1,33.492,99.279ZM16.743,95.118,33.392,97.94l15.792-7.824L58.7,78.541,61.171,28.59,51.5,6.292,31.9,1.333,11.479,6.545,2.621,28.351l-1.3,45.477ZM49.6,90.641h0Z" fill="#231815"/>
          </g>
          <g>
            <circle cx="59.797" cy="79.149" r="7.003" fill="#fff"/>
            <path d="M59.8,86.808a7.659,7.659,0,1,1,7.659-7.658A7.668,7.668,0,0,1,59.8,86.808Zm0-14.005a6.347,6.347,0,1,0,6.347,6.347A6.355,6.355,0,0,0,59.8,72.8Z" fill="#231815"/>
          </g>
          <g>
            <circle cx="74.211" cy="89.836" r="3.877" fill="#fff"/>
            <path d="M74.21,94.369a4.533,4.533,0,1,1,4.533-4.533A4.538,4.538,0,0,1,74.21,94.369Zm0-7.753a3.221,3.221,0,1,0,3.221,3.22A3.224,3.224,0,0,0,74.21,86.616Z" fill="#231815"/>
          </g>
        </g>
        <g>
          <path d="M31.646,21.964a15.216,15.216,0,0,0,5.6,4.817,7.449,7.449,0,0,0-1.024,1.364,18.74,18.74,0,0,1-2.48-1.758v1.089H28.182V26.427a17.893,17.893,0,0,1-2.428,1.745,6.09,6.09,0,0,0-.984-1.247,15.6,15.6,0,0,0,5.315-4.961Zm2.546,6.693,1.247.367c-.643,1.6-1.587,3.649-2.4,5.316l-1.654-.46c.578-1.128,1.247-2.533,1.746-3.674H26.4V28.723h7.519Zm-.866-2.624a15.693,15.693,0,0,1-2.388-2.546,14.958,14.958,0,0,1-2.31,2.546Z"/>
          <path d="M32.119,40.1c-.761.171-1.614.315-2.454.42-.118.539-.249,1.1-.381,1.628a40.836,40.836,0,0,1-2.02,5.892l-1.785-.6a28.417,28.417,0,0,0,2.2-5.721c.093-.342.184-.7.263-1.063-.289.013-.577.026-.84.026-.617,0-1.089-.026-1.535-.052l-.04-1.589a11.92,11.92,0,0,0,1.588.092c.381,0,.761-.013,1.155-.039.053-.276.079-.525.105-.722a6.132,6.132,0,0,0,.039-1.273l1.955.145c-.091.354-.209.918-.275,1.194l-.092.472a19.3,19.3,0,0,0,2.113-.407ZM31.87,44.27a5.046,5.046,0,0,0-.171,1.077c0,.551.315.971,1.68.971a15.439,15.439,0,0,0,2.638-.263l-.066,1.627a19.56,19.56,0,0,1-2.585.171c-2.139,0-3.228-.722-3.228-2.008a8.627,8.627,0,0,1,.209-1.706Zm-.748-3.188a23.409,23.409,0,0,1,2.454-.131,21.6,21.6,0,0,1,2.231.1L35.768,42.6a18.051,18.051,0,0,0-2.192-.158,21.123,21.123,0,0,0-2.454.132Zm3.346-1.313a14.212,14.212,0,0,0-1.01-1.785l1.023-.419a20.22,20.22,0,0,1,1.024,1.758ZM36,36.987a19.412,19.412,0,0,1,1.05,1.746l-1.036.433a14.054,14.054,0,0,0-1.037-1.772Z"/>
          <path d="M31.147,51.567a1.2,1.2,0,1,1-1.26,1.207A1.209,1.209,0,0,1,31.147,51.567Zm0,4.974a1.2,1.2,0,1,1-1.26,1.194A1.205,1.205,0,0,1,31.147,56.541Zm0,4.973a1.2,1.2,0,1,1-1.26,1.194A1.206,1.206,0,0,1,31.147,61.514Z"/>
          <path d="M29.626,76a1.367,1.367,0,0,1,2.73,0,1.367,1.367,0,0,1-2.73,0Zm.223-6.693L29.8,67.348h2.4L32.132,69.3l-.459,4.489H30.321Z"/>
        </g>
      </g>
    </g>
  </g>
</svg>
