<?xml version="1.0" encoding="utf-8"?>
<svg version="1.1" id="the-about-stage-nav-3" xmlns="http://www.w3.org/2000/svg" xmlns:xlink="http://www.w3.org/1999/xlink" x="0px"
	 y="0px" viewBox="0 0 100 100" style="enable-background:new 0 0 100 100;" xml:space="preserve">
<style type="text/css">
	.st0{fill:#231815;}
	.st1{fill:#E64673;}
	.st2{fill:#FFFFFF;}
</style>
<g>
	<circle class="st0" cx="50" cy="50" r="50"/>
	<circle class="st1" cx="50" cy="50" r="46"/>
	<path class="st2" d="M38.8,38.7c-0.5,1.8-1.3,3.2-2.4,4.4c0.9,0.6,2.1,1.1,3.3,1.4c-0.4,0.4-1,1.2-1.3,1.7c-1.3-0.4-2.5-1-3.5-1.7
		c-1,0.7-2,1.3-3.2,1.7c-0.2-0.4-0.6-1-1-1.5v1.5h-2.1v-1.5c-2.2,0.2-4.3,0.4-5.9,0.5l-0.2-1.9c0.5,0,1-0.1,1.6-0.1v-5.7h-1.5v-1.8
		h16.6v1.8h-8.6v6.8c1-0.3,1.9-0.8,2.7-1.3c-0.7-0.8-1.3-1.7-1.7-2.8l1.2-0.3h-1.7v-1.7H37l0.4-0.1L38.8,38.7z M37.2,35.1H24.9v-5.7
		h12.3V35.1z M26.2,37.5v0.7h2.4v-0.7H26.2z M26.2,40.6h2.4v-0.8h-2.4V40.6z M26.2,43c0.8-0.1,1.6-0.1,2.4-0.2v-0.7h-2.4V43z
		 M34.9,30.7H27v0.8h7.9V30.7z M34.9,32.9H27v0.8h7.9V32.9z M33.6,39.9c0.3,0.7,0.7,1.3,1.3,1.8c0.5-0.5,0.9-1.2,1.3-1.8H33.6z"/>
	<path class="st2" d="M48.6,41.5c-0.4-0.5-1-1.3-1.6-2v6.7h-2.2v-6.1c-0.6,0.6-1.2,1.2-1.8,1.6c-0.2-0.5-0.8-1.6-1.1-2
		c1.8-1.3,3.6-3.5,4.8-5.7h-4.3v-2h2.4v-3.3H47V32h0.8l0.4-0.1l1.3,0.8c-0.6,1.5-1.4,3-2.3,4.4c0.1,0.1,0.3,0.3,0.5,0.4
		c0.5-0.6,1-1.5,1.3-2.1l1.4,1.2c-0.7,0.6-1.2,1.3-1.7,1.8c0.6,0.5,1.1,1,1.3,1.2L48.6,41.5z M59.2,30.2c0,0,0,0.8,0,1.1
		c-0.2,9.4-0.3,12.6-1,13.6c-0.5,0.7-1,1-1.7,1.1c-0.7,0.1-1.7,0.1-2.7,0.1c0-0.7-0.3-1.6-0.7-2.3c1,0.1,1.9,0.1,2.3,0.1
		c0.3,0,0.5-0.1,0.7-0.4c0.5-0.6,0.7-3.6,0.9-11.3h-2.7c-0.1,5.4-0.7,10.8-4.8,14c-0.4-0.6-1.1-1.3-1.6-1.8
		c3.8-2.7,4.1-7.4,4.2-12.2h-2.7v-2.1H59.2z"/>
	<path class="st2" d="M63.7,37.5c0.9-0.9,2.3-2.8,3.4-4.1c1.3-1.5,2.5-1.6,3.9-0.3c1.3,1.2,2.7,3.1,3.8,4.3c1.2,1.3,2.8,3,4.5,4.5
		l-1.9,2.2c-1.3-1.3-2.9-3-4.1-4.4c-1.2-1.3-2.5-3.1-3.4-4.1c-0.7-0.7-1-0.6-1.5,0.1c-0.7,0.9-2.1,2.8-2.8,3.8
		c-0.4,0.6-0.8,1.3-1.2,1.8l-2.2-2.3C62.6,38.5,63.1,38.1,63.7,37.5z"/>
	<path class="st2" d="M44.3,77.7c-0.4,0-0.7-0.2-0.9-0.5c-0.3-0.5-0.1-1.1,0.4-1.4l16.3-8.7l-14.9-7.9v10.9c0,0.6-0.4,1-1,1
		s-1-0.4-1-1V57.6c0-0.4,0.2-0.7,0.5-0.9c0.3-0.2,0.7-0.2,1,0l18,9.6c0.3,0.2,0.5,0.5,0.5,0.9s-0.2,0.7-0.5,0.9l-18,9.6
		C44.6,77.7,44.4,77.7,44.3,77.7z"/>
</g>
</svg>
