<svg xmlns="http://www.w3.org/2000/svg" width="296.686" height="203.315" viewBox="0 0 296.686 203.315">
  <g id="レイヤー_2" data-name="レイヤー 2">
    <g id="レイヤー_1-2" data-name="レイヤー 1">
      <g>
        <g>
          <g>
            <rect x="46.255" y="94.724" width="17.815" height="12.799" transform="translate(110.326 202.247) rotate(-180)" fill="#121659"/>
            <g>
              <g>
                <path d="M52.886,105.367s-2.8-10.309-9.193-11.168-5.165,5.032-10.319,4.541-7.731-4.05-12.394.122-1.35,5.891-5.4,10.922-7.24,6.627-6.627,12.64,4.173,7.732,6.873,6.259,3.354-8.1,4.785-9.695c1.869-2.083,2.823-1.35,7.732-2.577s3.559-7.1,5.4-8.888,3.644,2.016,8.062-2.156" fill="#121659"/>
                <path d="M13.941,129.834a4.37,4.37,0,0,1-2.043-.51c-1.976-1.041-3.254-3.468-3.6-6.833-.507-4.957,1.483-7.155,4.235-10.2.768-.849,1.639-1.81,2.533-2.922a9.572,9.572,0,0,0,2.293-5.228,8.259,8.259,0,0,1,3.18-5.772c3.465-3.1,6.034-2.228,8.753-1.308a17.7,17.7,0,0,0,4.141,1.022c2.084.194,2.9-.748,3.929-1.944,1.251-1.451,2.672-3.1,6.415-2.594,6.747.906,9.62,11.208,9.739,11.646a.656.656,0,0,1-1.266.344c-.027-.1-2.764-9.9-8.647-10.69-3.045-.41-4.063.777-5.248,2.151-1.073,1.245-2.3,2.66-5.046,2.393a19.059,19.059,0,0,1-4.438-1.085c-2.65-.9-4.564-1.544-7.457,1.043a7.013,7.013,0,0,0-2.76,5,10.816,10.816,0,0,1-2.566,5.842c-.918,1.141-1.8,2.118-2.582,2.979-2.713,3-4.35,4.806-3.9,9.183.293,2.872,1.351,4.988,2.9,5.805a3.084,3.084,0,0,0,3-.056c1.409-.769,2.28-3.524,2.979-5.736a11.688,11.688,0,0,1,1.633-3.821c1.4-1.565,2.452-1.732,4.357-2.038.936-.15,2.1-.337,3.7-.737,2.749-.687,3.248-3.026,3.731-5.286a6.686,6.686,0,0,1,1.37-3.436,2.8,2.8,0,0,1,2.932-.507c1.273.294,2.719.627,5.137-1.656a.656.656,0,0,1,.9.953c-2.927,2.765-4.9,2.312-6.333,1.982-.889-.2-1.269-.272-1.722.168a6.024,6.024,0,0,0-1,2.769c-.514,2.406-1.153,5.4-4.7,6.286-1.656.414-2.852.606-3.813.759-1.866.3-2.494.4-3.588,1.619a12.073,12.073,0,0,0-1.358,3.34c-.81,2.564-1.729,5.47-3.6,6.493A4.581,4.581,0,0,1,13.941,129.834Z" fill="#231815"/>
              </g>
              <path d="M16.056,116.822a.656.656,0,0,1-.248-1.263c3.045-1.246,4.567-2.963,6.788-7.651,2.191-4.627,5.588-6.814,9.322-6,3.51.763,4.954-.018,6.481-.842a9.378,9.378,0,0,1,2.829-1.125,4.318,4.318,0,0,1,3.517.7c2.008,1.493,2.346,4.529,2.359,4.658a.656.656,0,0,1-1.3.137c0-.026-.3-2.6-1.842-3.745a3.008,3.008,0,0,0-2.484-.466,8.2,8.2,0,0,0-2.451.99c-1.593.861-3.4,1.835-7.384.97-3.132-.686-5.921,1.2-7.858,5.284-2.36,4.985-4.107,6.925-7.476,8.3A.646.646,0,0,1,16.056,116.822Z" fill="#231815"/>
              <g>
                <path d="M51.167,88.186s-5.3-6.627-9.093-5.645-5.877,5.4-9.436,4.05-5.891-5.645-10.554-3.559-5.031,6.872-9.2,6.627S1.59,90.272.731,96.654s5.768,8.1,9.2,5.154,7.24-5.645,13.376-3.682,7.977-1.889,10.8-4.013,5.523,3.031,10.063,2.541,11.163,4.786,11.349,9.2" fill="#121659"/>
                <path d="M55.522,106.513a.656.656,0,0,1-.655-.628c-.074-1.756-1.36-3.872-3.44-5.661-2.318-1.994-5.136-3.137-7.183-2.918-2.39.26-4.329-.91-5.884-1.851-1.75-1.059-2.792-1.619-3.855-.818A19.068,19.068,0,0,0,32.851,96.1c-2.126,2.023-4.535,4.318-9.739,2.651-5.783-1.85-9.332.625-12.751,3.555a6.66,6.66,0,0,1-7.377.792c-2.239-1.218-3.3-3.6-2.9-6.532C.342,94.63,2.029,88.36,12.919,89c1.95.117,2.914-1.037,4.232-2.634a12.578,12.578,0,0,1,4.665-3.937c3.507-1.57,5.911.177,8.032,1.718a13.525,13.525,0,0,0,3.022,1.827c1.68.636,2.919-.218,4.8-1.667a12.093,12.093,0,0,1,4.237-2.405c4.158-1.078,9.542,5.586,9.769,5.87a.656.656,0,1,1-1.024.82c-1.4-1.75-5.646-6.129-8.416-5.42a10.944,10.944,0,0,0-3.767,2.175c-1.778,1.368-3.616,2.784-6.067,1.853a14.627,14.627,0,0,1-3.328-1.992c-2.1-1.523-3.908-2.842-6.725-1.581a11.329,11.329,0,0,0-4.189,3.575c-1.387,1.678-2.7,3.263-5.321,3.108-2.466-.14-10.58-.111-11.46,6.427-.436,3.236,1.21,4.649,2.23,5.2a5.392,5.392,0,0,0,5.9-.635c3.563-3.054,7.58-5.864,14-3.808,4.466,1.427,6.393-.409,8.435-2.352a20.46,20.46,0,0,1,1.77-1.561c1.826-1.373,3.6-.3,5.323.743,1.529.924,3.108,1.874,5.064,1.669,2.426-.259,5.56.975,8.18,3.228,2.384,2.052,3.8,4.457,3.895,6.6a.657.657,0,0,1-.628.683Z" fill="#231815"/>
              </g>
              <path d="M13.619,94.811c-.094,0-.186,0-.278-.006a.656.656,0,0,1,.06-1.311c1.774.08,4.341-.861,7.612-2.8,3.837-2.279,7.795-1.669,10.975-1.18l.746.114c2.7.4,4.758-.153,7.614-.917.505-.135,1.034-.276,1.595-.42,4.047-1.042,11.349,3.445,11.657,3.637a.656.656,0,0,1-.691,1.115c-1.972-1.221-7.733-4.226-10.639-3.481-.557.142-1.082.283-1.583.417-3.009.8-5.182,1.385-8.145.946l-.754-.114c-3.128-.482-6.672-1.028-10.1,1.011C18.3,93.829,15.653,94.811,13.619,94.811Z" fill="#231815"/>
              <g>
                <path d="M59.41,78.735s2.388-8.143-.591-10.686-7.794-1.718-8.73-5.408,1.246-8.062-3.138-10.686-8.515-.18-10.707-3.739-6.978-8.9-12.7-5.94-3.327,9.37,1.057,10.5,8.777,2.693,10.688,8.846,6.122,5.45,9.48,6.545.685,6.262,3.691,9.7,9.512,10.267,6,12.954" fill="#121659"/>
                <path d="M54.462,91.472a.656.656,0,0,1-.4-1.176,1.812,1.812,0,0,0,.744-1.325c.258-2.656-3.742-7.175-6.132-9.876l-.706-.8c-1.587-1.813-1.737-4.068-1.859-5.881-.136-2.039-.275-3.214-1.541-3.626a18.952,18.952,0,0,0-2.147-.517c-2.877-.58-6.137-1.237-7.758-6.457-1.8-5.8-5.864-7.286-10.224-8.406a6.662,6.662,0,0,1-4.881-5.589c-.287-2.533,1.057-4.766,3.686-6.125,1.733-.895,7.84-3.1,13.558,6.179,1.03,1.672,2.521,1.791,4.585,1.957a12.567,12.567,0,0,1,5.9,1.563c3.3,1.974,3.246,4.944,3.2,7.565a13.422,13.422,0,0,0,.237,3.523c.442,1.743,1.853,2.267,4.12,2.978a12.111,12.111,0,0,1,4.4,2.092c3.265,2.786.9,11.02.8,11.369a.656.656,0,0,1-1.26-.369c.63-2.153,1.789-8.146-.387-10a10.923,10.923,0,0,0-3.941-1.838c-2.141-.672-4.355-1.367-5-3.907a14.675,14.675,0,0,1-.277-3.869c.045-2.593.085-4.833-2.562-6.416a11.336,11.336,0,0,0-5.331-1.382c-2.169-.173-4.218-.337-5.6-2.576-1.3-2.1-5.978-8.734-11.838-5.7-2.9,1.5-3.115,3.658-2.984,4.811a5.4,5.4,0,0,0,3.9,4.466c4.546,1.168,9.151,2.846,11.151,9.287,1.391,4.477,4,5,6.764,5.56a20.585,20.585,0,0,1,2.294.556c2.171.708,2.31,2.781,2.444,4.787.12,1.782.243,3.625,1.537,5.105l.7.8c2.7,3.045,6.769,7.648,6.457,10.872a3.1,3.1,0,0,1-1.254,2.239A.653.653,0,0,1,54.462,91.472Z" fill="#231815"/>
              </g>
              <path d="M57.088,83.564a.656.656,0,0,1-.654-.619c-.131-2.316-.969-8.755-3.251-10.712-.437-.374-.854-.725-1.252-1.059-2.383-2-4.1-3.45-5.444-6.127l-.34-.686c-1.4-2.837-2.985-6.053-6.623-7.7-3.757-1.7-6.122-3.372-7.231-5.121a.656.656,0,0,1,1.108-.7c.954,1.5,3.195,3.061,6.663,4.627,4.066,1.836,5.837,5.426,7.26,8.311l.336.679c1.218,2.435,2.853,3.808,5.115,5.709.4.337.821.691,1.262,1.069,3.173,2.72,3.687,11.271,3.706,11.634a.655.655,0,0,1-.618.691Z" fill="#231815"/>
              <g>
                <path d="M47.019,76.407s-3.347-7.168-11.085-7.341c-4.813-.107-7,2.972-9.5,1.758-3.523-1.712-3.119-6.956-8.411-8.36s-8.054,1.209-7.872,4.517,4.874,9.951,10.269,9.711,7.634.831,12.4,4.936,13.3,2.613,13.3,2.613" fill="#121659"/>
                <path d="M42.488,85.169c-3,0-7.172-.531-10.093-3.044-4.545-3.911-6.669-5.014-11.946-4.777-3.52.153-6.265-2.275-7.6-3.738-1.9-2.079-3.248-4.728-3.35-6.593a5.058,5.058,0,0,1,1.8-4.333c1.6-1.3,4.051-1.607,6.892-.855,3.284.872,4.559,3.114,5.683,5.093.814,1.43,1.516,2.665,2.846,3.312.959.465,1.879.127,3.421-.511a13.444,13.444,0,0,1,5.808-1.313c8.053.18,11.521,7.412,11.665,7.72a.656.656,0,0,1-1.189.555c-.032-.068-3.281-6.8-10.506-6.963a12.319,12.319,0,0,0-5.276,1.213c-1.589.658-2.96,1.225-4.5.479-1.7-.825-2.57-2.36-3.413-3.844-1.1-1.924-2.128-3.742-4.88-4.472-2.424-.643-4.458-.429-5.727.6a3.779,3.779,0,0,0-1.322,3.243c.169,3.073,4.562,9.1,9.335,9.1.084,0,.167,0,.25-.006,5.693-.251,8.086.984,12.861,5.094,4.474,3.849,12.68,2.478,12.764,2.463a.656.656,0,1,1,.225,1.293A23.558,23.558,0,0,1,42.488,85.169Z" fill="#231815"/>
              </g>
              <path d="M45.648,80.941a.655.655,0,0,1-.428-.16c-.068-.059-6.893-5.881-12.974-5.881-.078,0-.155,0-.233,0-6.383,0-10.2-1.509-14.052-5.53a.656.656,0,1,1,.948-.907c3.609,3.773,7.052,5.125,13.1,5.125h.24c6.571,0,13.536,5.947,13.83,6.2a.656.656,0,0,1-.429,1.153Z" fill="#231815"/>
            </g>
          </g>
          <g>
            <rect x="83.016" y="94.724" width="17.815" height="12.799" fill="#121659"/>
            <g>
              <g>
                <path d="M94.2,105.367S97,95.058,103.393,94.2s5.165,5.032,10.319,4.541,7.732-4.05,12.395.122,1.35,5.891,5.4,10.922,7.241,6.627,6.627,12.64-4.172,7.732-6.872,6.259-3.355-8.1-4.786-9.695c-1.869-2.083-2.823-1.35-7.731-2.577s-3.559-7.1-5.4-8.888-3.644,2.016-8.062-2.156" fill="#121659"/>
                <path d="M133.146,129.834a4.582,4.582,0,0,1-2.2-.575c-1.874-1.023-2.792-3.929-3.6-6.493a12.047,12.047,0,0,0-1.357-3.34c-1.094-1.218-1.722-1.319-3.589-1.619-.961-.153-2.157-.345-3.813-.759-3.544-.886-4.182-3.88-4.7-6.285a6.036,6.036,0,0,0-1-2.77c-.453-.44-.833-.373-1.723-.168-1.436.33-3.405.783-6.332-1.982a.656.656,0,1,1,.9-.953c2.417,2.283,3.862,1.949,5.136,1.656a2.8,2.8,0,0,1,2.933.507,6.694,6.694,0,0,1,1.37,3.436c.482,2.26.981,4.6,3.73,5.286,1.6.4,2.767.587,3.7.737,1.905.306,2.953.473,4.357,2.038a11.69,11.69,0,0,1,1.632,3.821c.7,2.212,1.571,4.967,2.98,5.736a3.089,3.089,0,0,0,3,.056c1.552-.817,2.611-2.933,2.9-5.805.448-4.377-1.19-6.186-3.9-9.183-.78-.861-1.664-1.838-2.583-2.979a10.82,10.82,0,0,1-2.565-5.842,7.017,7.017,0,0,0-2.76-5c-2.894-2.587-4.808-1.94-7.458-1.043a19.038,19.038,0,0,1-4.437,1.085c-2.756.269-3.974-1.148-5.047-2.393-1.184-1.374-2.206-2.561-5.248-2.151-5.883.791-8.62,10.591-8.647,10.69a.655.655,0,1,1-1.265-.344c.119-.438,2.992-10.74,9.738-11.646,3.742-.506,5.164,1.142,6.416,2.594,1.032,1.2,1.841,2.136,3.928,1.944a17.7,17.7,0,0,0,4.142-1.022c2.72-.92,5.289-1.79,8.753,1.308a8.267,8.267,0,0,1,3.18,5.772,9.564,9.564,0,0,0,2.293,5.228c.894,1.112,1.765,2.073,2.532,2.922,2.753,3.041,4.742,5.239,4.236,10.2-.343,3.365-1.621,5.792-3.6,6.833A4.366,4.366,0,0,1,133.146,129.834Z" fill="#231815"/>
              </g>
              <path d="M131.03,116.822a.638.638,0,0,1-.248-.049c-3.369-1.379-5.116-3.319-7.476-8.3-1.938-4.089-4.733-5.967-7.859-5.284-3.984.865-5.79-.109-7.383-.97a8.2,8.2,0,0,0-2.451-.99,3.01,3.01,0,0,0-2.484.466c-1.546,1.145-1.839,3.719-1.842,3.745a.656.656,0,0,1-1.305-.137c.013-.129.351-3.165,2.36-4.658a4.309,4.309,0,0,1,3.517-.7,9.372,9.372,0,0,1,2.828,1.125c1.528.825,2.97,1.607,6.481.842,3.734-.808,7.13,1.376,9.323,6,2.221,4.688,3.743,6.405,6.788,7.651a.656.656,0,0,1-.249,1.263Z" fill="#231815"/>
              <g>
                <path d="M95.92,88.186s5.3-6.627,9.092-5.645,5.878,5.4,9.437,4.05,5.89-5.645,10.553-3.559,5.032,6.872,9.2,6.627,11.29.613,12.149,6.995-5.767,8.1-9.2,5.154-7.24-5.645-13.376-3.682-7.976-1.889-10.8-4.013-5.522,3.031-10.063,2.541-11.162,4.786-11.349,9.2" fill="#121659"/>
                <path d="M91.565,106.513h-.028a.657.657,0,0,1-.628-.683c.09-2.143,1.509-4.549,3.894-6.6,2.619-2.254,5.753-3.487,8.181-3.229,1.958.206,3.535-.745,5.063-1.669,1.72-1.04,3.5-2.114,5.323-.743a20.473,20.473,0,0,1,1.771,1.561c2.041,1.944,3.969,3.779,8.434,2.352,6.424-2.059,10.44.753,14,3.808a5.4,5.4,0,0,0,5.9.635c1.019-.555,2.665-1.968,2.229-5.2-.88-6.538-9-6.572-11.46-6.427-2.619.156-3.934-1.43-5.321-3.108a11.345,11.345,0,0,0-4.189-3.575c-2.818-1.261-4.628.056-6.725,1.581a14.655,14.655,0,0,1-3.329,1.992c-2.45.931-4.289-.485-6.067-1.853a10.944,10.944,0,0,0-3.767-2.175c-2.764-.715-7.013,3.669-8.415,5.42a.656.656,0,0,1-1.025-.82c.229-.284,5.615-6.948,9.77-5.87a12.1,12.1,0,0,1,4.237,2.405c1.882,1.449,3.122,2.3,4.8,1.667a13.531,13.531,0,0,0,3.023-1.827c2.12-1.541,4.522-3.288,8.031-1.718a12.581,12.581,0,0,1,4.666,3.937c1.318,1.6,2.258,2.751,4.232,2.634,10.894-.642,12.577,5.626,12.838,7.562.394,2.932-.664,5.314-2.9,6.532a6.661,6.661,0,0,1-7.378-.792c-3.417-2.93-6.963-5.405-12.749-3.555-5.208,1.666-7.614-.628-9.739-2.651a19.226,19.226,0,0,0-1.655-1.463c-1.065-.8-2.106-.241-3.855.818-1.554.94-3.493,2.112-5.883,1.851-2.048-.22-4.866.924-7.184,2.918-2.08,1.79-3.365,3.906-3.439,5.661A.657.657,0,0,1,91.565,106.513Z" fill="#231815"/>
              </g>
              <path d="M133.467,94.811c-2.033,0-4.675-.981-8.063-2.993-3.435-2.038-6.979-1.492-10.106-1.011l-.753.114c-2.961.438-5.138-.142-8.147-.946-.5-.134-1.025-.275-1.582-.417-2.91-.743-8.666,2.259-10.639,3.481a.656.656,0,0,1-.691-1.115c.308-.192,7.607-4.678,11.657-3.637.56.144,1.089.285,1.594.42,2.856.763,4.918,1.316,7.616.917l.745-.114c3.181-.489,7.138-1.1,10.976,1.18,3.271,1.943,5.84,2.884,7.611,2.8a.656.656,0,1,1,.06,1.311C133.654,94.809,133.562,94.811,133.467,94.811Z" fill="#231815"/>
              <g>
                <path d="M87.677,78.735s-2.388-8.143.591-10.686S96.062,66.331,97,62.641s-1.246-8.062,3.138-10.686,8.515-.18,10.707-3.739,6.978-8.9,12.7-5.94,3.326,9.37-1.057,10.5-8.777,2.693-10.688,8.846-6.123,5.45-9.481,6.545-.684,6.262-3.691,9.7-9.511,10.267-6,12.954" fill="#121659"/>
                <path d="M92.624,91.472a.653.653,0,0,1-.4-.135A3.1,3.1,0,0,1,90.973,89.1c-.313-3.224,3.761-7.827,6.456-10.872l.7-.8c1.294-1.48,1.418-3.323,1.537-5.105.135-2.006.273-4.079,2.445-4.787a20.568,20.568,0,0,1,2.293-.556c2.764-.556,5.374-1.083,6.764-5.56,2-6.441,6.606-8.119,11.151-9.287a5.4,5.4,0,0,0,3.9-4.466c.131-1.153-.083-3.312-2.983-4.811-5.862-3.032-10.543,3.6-11.839,5.7-1.379,2.239-3.429,2.4-5.6,2.576a11.338,11.338,0,0,0-5.331,1.382c-2.646,1.583-2.607,3.823-2.562,6.416a14.675,14.675,0,0,1-.277,3.869c-.644,2.54-2.858,3.235-5,3.907a10.923,10.923,0,0,0-3.941,1.838c-2.176,1.856-1.018,7.849-.387,10a.656.656,0,0,1-1.26.369c-.1-.349-2.47-8.583.794-11.369a12.108,12.108,0,0,1,4.4-2.092c2.266-.711,3.677-1.235,4.119-2.978a13.422,13.422,0,0,0,.237-3.523c-.045-2.621-.1-5.591,3.2-7.565a12.568,12.568,0,0,1,5.9-1.563c2.064-.166,3.555-.285,4.585-1.957,5.716-9.281,11.822-7.074,13.558-6.179,2.629,1.359,3.972,3.592,3.685,6.125a6.66,6.66,0,0,1-4.88,5.589c-4.36,1.12-8.423,2.605-10.225,8.406-1.621,5.22-4.881,5.877-7.757,6.457a18.9,18.9,0,0,0-2.147.517c-1.266.412-1.405,1.587-1.541,3.626-.122,1.813-.273,4.068-1.859,5.881l-.707.8c-2.389,2.7-6.389,7.22-6.132,9.876a1.812,1.812,0,0,0,.744,1.324.656.656,0,0,1-.4,1.176Z" fill="#231815"/>
              </g>
              <path d="M90,83.564h-.038a.655.655,0,0,1-.618-.691c.02-.363.533-8.914,3.706-11.634.44-.378.861-.731,1.261-1.068,2.263-1.9,3.9-3.275,5.116-5.71l.337-.679c1.422-2.885,3.193-6.475,7.26-8.311,3.467-1.566,5.709-3.123,6.663-4.627a.656.656,0,1,1,1.108.7c-1.109,1.749-3.474,3.424-7.232,5.121-3.637,1.642-5.223,4.858-6.623,7.7l-.339.686c-1.34,2.678-3.062,4.125-5.446,6.128-.4.334-.814.684-1.251,1.058-2.282,1.957-3.12,8.4-3.25,10.712A.656.656,0,0,1,90,83.564Z" fill="#231815"/>
              <g>
                <path d="M100.067,76.407s3.347-7.168,11.085-7.341c4.814-.107,7,2.972,9.5,1.758,3.523-1.712,3.119-6.956,8.411-8.36s8.054,1.209,7.872,4.517-4.874,9.951-10.269,9.711-7.633.831-12.4,4.936-13.3,2.613-13.3,2.613" fill="#121659"/>
                <path d="M104.6,85.169a23.543,23.543,0,0,1-3.752-.282.656.656,0,0,1,.225-1.293c.083.016,8.289,1.387,12.763-2.463,4.775-4.108,7.176-5.341,12.861-5.094,4.874.237,9.413-5.965,9.585-9.092a3.779,3.779,0,0,0-1.322-3.243c-1.268-1.034-3.3-1.248-5.726-.6-2.753.73-3.786,2.548-4.88,4.472-.844,1.484-1.716,3.019-3.413,3.844-1.535.746-2.908.179-4.5-.479a12,12,0,0,0-5.277-1.213c-7.224.161-10.474,6.9-10.506,6.963a.656.656,0,0,1-1.188-.555c.144-.308,3.612-7.54,11.664-7.72a13.6,13.6,0,0,1,5.809,1.313c1.541.638,2.46.976,3.421.511,1.33-.647,2.032-1.882,2.845-3.312,1.125-1.979,2.4-4.221,5.684-5.093,2.84-.754,5.288-.451,6.892.855a5.058,5.058,0,0,1,1.8,4.333c-.1,1.865-1.449,4.514-3.351,6.593-1.338,1.463-4.106,3.889-7.6,3.738-5.269-.236-7.4.865-11.947,4.777C111.77,84.638,107.6,85.169,104.6,85.169Z" fill="#231815"/>
              </g>
              <path d="M101.438,80.941a.656.656,0,0,1-.429-1.153c.294-.253,7.26-6.2,13.83-6.2.081,0,.161,0,.241,0,6.046,0,9.488-1.352,13.1-5.125a.656.656,0,1,1,.948.907c-3.846,4.021-7.67,5.529-14.052,5.53-.077,0-.155,0-.233,0-6.081,0-12.9,5.822-12.974,5.881A.653.653,0,0,1,101.438,80.941Z" fill="#231815"/>
            </g>
          </g>
          <g>
            <path d="M107.7,110.01v71.954a4.143,4.143,0,0,1-4.131,4.13H42.05a4.143,4.143,0,0,1-4.131-4.13V110.01" fill="#fff8ee"/>
            <path d="M103.567,186.75H42.05a4.792,4.792,0,0,1-4.787-4.787V110.01a.656.656,0,1,1,1.312,0v71.953a3.479,3.479,0,0,0,3.475,3.475h61.517a3.479,3.479,0,0,0,3.475-3.475V110.01a.656.656,0,1,1,1.312,0v71.953A4.792,4.792,0,0,1,103.567,186.75Z" fill="#231815"/>
          </g>
          <g>
            <rect x="35.863" y="105.495" width="73.89" height="4.515" fill="#fff8ee"/>
            <path d="M109.754,110.666H35.864a.655.655,0,0,1-.656-.656V105.5a.655.655,0,0,1,.656-.656h73.89a.655.655,0,0,1,.656.656v4.515A.655.655,0,0,1,109.754,110.666ZM36.52,109.354H109.1v-3.2H36.52Z" fill="#231815"/>
          </g>
          <polyline points="100.717 120.491 137.04 153.47 130.741 159.08 91.855 137.076" fill="#ee795e"/>
          <path d="M83.75,114.9h4.044s16.657.667,16.657,15.983v71.781H42.036V130.878c0-15.316,16.657-15.983,16.657-15.983H83.75Z" fill="#ee795e"/>
          <g>
            <path d="M62.738,114.325s-.344,9.511,10.334,9.511S83.75,114.9,83.75,114.9" fill="#f4aeb6"/>
            <path d="M73.072,124.492c-3.546,0-6.319-1.01-8.241-3a10.647,10.647,0,0,1-2.748-7.188.642.642,0,0,1,.677-.631.656.656,0,0,1,.633.677,9.484,9.484,0,0,0,2.392,6.241c1.665,1.72,4.117,2.592,7.287,2.592,9.908,0,10.022-7.947,10.022-8.285a.656.656,0,1,1,1.312,0C84.406,114.991,84.277,124.492,73.072,124.492Z" fill="#231815"/>
          </g>
          <path d="M39.994,60s-7.322-.562-7.322,6.538,8.6,6.477,8.6,6.477" fill="#f4aeb6"/>
          <path d="M106.425,60s7.322-.562,7.322,6.538-8.6,6.477-8.6,6.477" fill="#f4aeb6"/>
          <g>
            <polyline points="62.737 114.895 62.737 107.955 83.75 107.955 83.75 114.895" fill="#f4aeb6"/>
            <path d="M83.75,115.551a.656.656,0,0,1-.656-.656v-6.283h-19.7V114.9a.656.656,0,0,1-1.312,0v-6.939a.656.656,0,0,1,.656-.656H83.75a.655.655,0,0,1,.656.656V114.9A.655.655,0,0,1,83.75,115.551Z" fill="#231815"/>
          </g>
          <g>
            <g>
              <path d="M73.2,16.683s38.009-3.227,32.7,52.543c0,0,.256,25.17-22.147,38.729h-21.1C41.514,94.547,40.5,69.226,40.5,69.226c-5.312-55.77,32.7-52.543,32.7-52.543" fill="#f4aeb6"/>
              <path d="M83.75,108.612h-21.1a.661.661,0,0,1-.351-.1c-21.181-13.438-22.44-39-22.45-39.258C37.908,48.9,41.462,33.976,50.414,24.931A30.693,30.693,0,0,1,73.2,16.025a30.706,30.706,0,0,1,22.785,8.906c8.948,9.041,12.5,23.953,10.568,44.327,0,1.132-.406,25.908-22.463,39.259A.658.658,0,0,1,83.75,108.612ZM62.841,107.3H83.566c21.675-13.237,21.677-37.82,21.675-38.067a.531.531,0,0,1,0-.069c1.9-19.971-1.522-34.537-10.176-43.295-9.343-9.453-21.689-8.539-21.813-8.532a.686.686,0,0,1-.111,0,29.91,29.91,0,0,0-21.812,8.532c-8.655,8.757-12.078,23.324-10.176,43.3C41.169,69.449,42.408,94.211,62.841,107.3Z" fill="#231815"/>
            </g>
            <rect x="66.143" y="85.871" width="14.322" height="10.502" fill="#e84572"/>
            <path d="M67.8,83.146s-1.661.1-1.661,2.454.364,1.945,1.661,1.945H79.15s1.307.405,1.307-.81.273-3.526-2.32-3.526S67.8,83.146,67.8,83.146Z" fill="#fff"/>
            <path d="M78.8,98.958s1.661-.1,1.661-2.454S80.1,94.559,78.8,94.559H67.458s-1.307-.405-1.307.81-.273,3.526,2.32,3.526S78.8,98.958,78.8,98.958Z" fill="#fff"/>
            <path d="M78.391,99.509H68.1a2.725,2.725,0,0,1-2.722-2.721V85.211A2.725,2.725,0,0,1,68.1,82.49h10.3a2.725,2.725,0,0,1,2.722,2.721V96.788A2.725,2.725,0,0,1,78.391,99.509ZM68.1,83.8a1.41,1.41,0,0,0-1.409,1.409V96.788A1.41,1.41,0,0,0,68.1,98.2h10.3a1.411,1.411,0,0,0,1.41-1.409V85.211a1.411,1.411,0,0,0-1.41-1.409Z" fill="#231815"/>
            <path d="M83.491,63.679A3.832,3.832,0,1,0,87.32,59.85,3.823,3.823,0,0,0,83.491,63.679Zm3.829,7.642a7.645,7.645,0,1,1,7.656-7.642A7.642,7.642,0,0,1,87.32,71.321Z" fill="#fff8ee"/>
            <path d="M83.491,63.679A3.832,3.832,0,1,1,87.32,67.5,3.825,3.825,0,0,1,83.491,63.679Zm5.144,0a1.312,1.312,0,1,0-1.315,1.307A1.315,1.315,0,0,0,88.635,63.679Z" fill="#97d2ce"/>
            <path d="M87.32,62.364a1.311,1.311,0,1,1-1.308,1.315A1.315,1.315,0,0,1,87.32,62.364Z" fill="#231815"/>
            <path d="M57.7,63.679a1.311,1.311,0,1,1,1.307,1.307A1.308,1.308,0,0,1,57.7,63.679Z" fill="#231815"/>
            <path d="M59.007,67.5a3.825,3.825,0,1,0-3.835-3.821A3.818,3.818,0,0,0,59.007,67.5Zm0,3.821a7.65,7.65,0,1,1,7.643-7.642A7.649,7.649,0,0,1,59.007,71.321Z" fill="#fff8ee"/>
            <path d="M55.172,63.679A3.832,3.832,0,1,1,59.007,67.5,3.831,3.831,0,0,1,55.172,63.679Zm5.15,0a1.311,1.311,0,1,0-1.315,1.307A1.314,1.314,0,0,0,60.322,63.679Z" fill="#97d2ce"/>
            <path d="M59.007,71.977a8.306,8.306,0,1,1,8.3-8.3A8.311,8.311,0,0,1,59.007,71.977Zm0-15.3a6.994,6.994,0,1,0,6.987,7A7.021,7.021,0,0,0,59.007,56.678Z" fill="#231815"/>
            <path d="M59.007,68.156a4.481,4.481,0,1,1,4.485-4.477A4.49,4.49,0,0,1,59.007,68.156Zm0-7.65a3.169,3.169,0,1,0,3.173,3.173A3.179,3.179,0,0,0,59.007,60.506Z" fill="#231815"/>
            <path d="M56.7,56.845a.654.654,0,0,1-.62-.445l-.945-2.774a.656.656,0,0,1,1.242-.423l.944,2.775a.655.655,0,0,1-.621.867Z" fill="#231815"/>
            <path d="M53.493,59.041a.641.641,0,0,1-.506-.244l-2.248-2.2a.656.656,0,0,1,.918-.937l2.3,2.252a.661.661,0,0,1-.46,1.134Z" fill="#231815"/>
            <path d="M61.913,57.136a.643.643,0,0,1-.21-.035.656.656,0,0,1-.411-.832l.944-2.782a.656.656,0,1,1,1.243.421l-.944,2.783A.657.657,0,0,1,61.913,57.136Z" fill="#231815"/>
            <path d="M65.11,59.329a.656.656,0,0,1-.46-1.123l2.31-2.274a.656.656,0,0,1,.92.935l-2.31,2.274A.654.654,0,0,1,65.11,59.329Z" fill="#231815"/>
            <path d="M87.319,71.977a8.3,8.3,0,1,1,8.313-8.3A8.307,8.307,0,0,1,87.319,71.977Zm0-15.3a7,7,0,1,0,5.049,2.152A7,7,0,0,0,87.319,56.678Z" fill="#231815"/>
            <path d="M87.319,68.156a4.481,4.481,0,1,1,4.493-4.477A4.485,4.485,0,0,1,87.319,68.156Zm0-7.65A3.169,3.169,0,1,0,90.5,63.679,3.175,3.175,0,0,0,87.319,60.506Z" fill="#231815"/>
            <path d="M89.63,56.845a.655.655,0,0,1-.621-.867l.944-2.775a.656.656,0,0,1,1.242.423L90.25,56.4A.656.656,0,0,1,89.63,56.845Z" fill="#231815"/>
            <path d="M92.83,59.035a.652.652,0,0,1-.478-1.1l.014-.015,2.311-2.267a.656.656,0,0,1,.918.937l-2.3,2.252A.671.671,0,0,1,92.83,59.035Z" fill="#231815"/>
            <path d="M84.421,57.136a.657.657,0,0,1-.621-.445l-.945-2.783a.656.656,0,1,1,1.243-.421l.945,2.782a.657.657,0,0,1-.411.832A.648.648,0,0,1,84.421,57.136Z" fill="#231815"/>
            <path d="M81.218,59.329a.65.65,0,0,1-.461-.189l-2.3-2.273a.656.656,0,0,1,.921-.934l2.3,2.273a.656.656,0,0,1-.46,1.123Z" fill="#231815"/>
          </g>
          <path d="M73.2,79.806a4.259,4.259,0,0,1-3.44-1.761A4.105,4.105,0,0,1,69,74.522c.489-1.612,3.118-8.756,3.544-9.912a.658.658,0,0,1,.112-.3.692.692,0,0,1,1.086,0,.708.708,0,0,1,.114.274c.4,1.083,3.059,8.312,3.551,9.934a4.1,4.1,0,0,1-.763,3.523A4.26,4.26,0,0,1,73.2,79.806Zm0-13.189c-.924,2.522-2.583,7.082-2.948,8.285a2.861,2.861,0,0,0,.562,2.362,2.929,2.929,0,0,0,4.772,0,2.861,2.861,0,0,0,.562-2.362C75.783,73.7,74.123,69.139,73.2,66.617Z" fill="#231815"/>
          <g>
            <path d="M51.775,86.241a2.086,2.086,0,0,0,2.009-2.494c-.293-.965-2.014-5.631-2.014-5.631h.01s-1.722,4.666-2.015,5.631A2.087,2.087,0,0,0,51.775,86.241Z" fill="#97d2ce"/>
            <path d="M51.775,86.9a2.68,2.68,0,0,1-2.165-1.106,2.6,2.6,0,0,1-.472-2.235c.273-.9,1.715-4.823,1.986-5.557a.646.646,0,0,1,.107-.259.686.686,0,0,1,1.082,0,.679.679,0,0,1,.106.24c.251.68,1.718,4.668,1.993,5.576a2.6,2.6,0,0,1-.474,2.236A2.678,2.678,0,0,1,51.775,86.9Zm0-6.862c-.523,1.432-1.211,3.337-1.382,3.9a1.332,1.332,0,0,0,.272,1.072,1.357,1.357,0,0,0,2.219,0,1.33,1.33,0,0,0,.272-1.073C52.985,83.373,52.3,81.468,51.775,80.036Z" fill="#231815"/>
          </g>
          <g>
            <path d="M97.2,81.158a2.087,2.087,0,0,0,2.01-2.494c-.293-.965-2.015-5.632-2.015-5.632h.011S95.488,77.7,95.2,78.664A2.086,2.086,0,0,0,97.2,81.158Z" fill="#97d2ce"/>
            <path d="M97.2,81.814a2.679,2.679,0,0,1-2.163-1.1,2.6,2.6,0,0,1-.474-2.235c.274-.9,1.716-4.824,1.986-5.557a.652.652,0,0,1,.108-.26.661.661,0,0,1,1.187.241c.251.679,1.718,4.667,1.993,5.576a2.6,2.6,0,0,1-.472,2.234A2.68,2.68,0,0,1,97.2,81.814Zm0-6.861c-.522,1.432-1.21,3.337-1.381,3.9a1.328,1.328,0,0,0,.272,1.072,1.358,1.358,0,0,0,2.219,0,1.333,1.333,0,0,0,.272-1.072C98.415,78.289,97.727,76.385,97.2,74.953Z" fill="#231815"/>
          </g>
          <path d="M73.244,203.315H42.036a.656.656,0,0,1-.656-.656V130.878c0-15.764,17.114-16.631,17.287-16.638h4.07a.656.656,0,1,1,0,1.312H58.693a22.426,22.426,0,0,0-8.072,2.2c-5.261,2.644-7.929,7.062-7.929,13.13V202H73.244a.656.656,0,1,1,0,1.312Z" fill="#231815"/>
          <path d="M104.451,203.315H73.244a.656.656,0,0,1,0-1.312H103.8V139.175a.656.656,0,0,1,1.312,0v63.484A.655.655,0,0,1,104.451,203.315Z" fill="#231815"/>
          <path d="M99.072,119.659a.653.653,0,0,1-.406-.141c-4.635-3.668-10.837-3.965-10.9-3.968H83.75a.656.656,0,0,1,0-1.312h4.044a22.189,22.189,0,0,1,11.685,4.25.656.656,0,0,1-.407,1.17Z" fill="#231815"/>
          <path d="M73.072,124.492c-3.546,0-6.319-1.01-8.241-3a10.647,10.647,0,0,1-2.748-7.188.642.642,0,0,1,.677-.631.656.656,0,0,1,.633.677,9.484,9.484,0,0,0,2.392,6.241c1.665,1.72,4.117,2.592,7.287,2.592,9.908,0,10.022-7.947,10.022-8.285a.656.656,0,1,1,1.312,0C84.406,114.991,84.277,124.492,73.072,124.492Z" fill="#231815"/>
          <path d="M40.342,73.689c-1.245,0-4.272-.211-6.328-2.117a6.551,6.551,0,0,1-2-5.031,6.851,6.851,0,0,1,2.036-5.266,8.676,8.676,0,0,1,5.992-1.926.656.656,0,0,1-.1,1.308,7.44,7.44,0,0,0-5.006,1.586,5.6,5.6,0,0,0-1.61,4.3A5.3,5.3,0,0,0,34.9,70.606c2.162,2.008,5.863,1.761,5.9,1.759a.656.656,0,0,1,.1,1.308C40.866,73.675,40.663,73.689,40.342,73.689Z" fill="#231815"/>
          <path d="M40.255,66.89H36.694a.656.656,0,1,1,0-1.312h3.561a.656.656,0,0,1,0,1.312Z" fill="#231815"/>
          <path d="M106.077,73.689c-.322,0-.524-.014-.56-.016a.656.656,0,0,1,.1-1.308c.038,0,3.741.249,5.9-1.759a5.3,5.3,0,0,0,1.574-4.065,5.6,5.6,0,0,0-1.616-4.3,7.394,7.394,0,0,0-5-1.58.656.656,0,1,1-.1-1.308,8.677,8.677,0,0,1,5.992,1.926,6.851,6.851,0,0,1,2.036,5.266,6.548,6.548,0,0,1-2,5.031C110.349,73.477,107.322,73.689,106.077,73.689Z" fill="#231815"/>
          <path d="M109.725,66.89h-3.561a.656.656,0,0,1,0-1.312h3.561a.656.656,0,0,1,0,1.312Z" fill="#231815"/>
          <path d="M109.408,143.272l23.535,7.025s7.971,3.663,5.816,10.988c-2.5,8.5-13.141,3.662-13.141,3.662l-18.019-9.39" fill="#ee795e"/>
          <path d="M131.819,166.975a17.528,17.528,0,0,1-6.472-1.431L107.3,156.139a.656.656,0,1,1,.606-1.163l18.019,9.389c.021.009,5.352,2.382,9.055.683a5.9,5.9,0,0,0,3.154-3.949,7.436,7.436,0,0,0-1.923-7.576,12.979,12.979,0,0,0-3.5-2.612L109.22,143.9a.656.656,0,0,1,.376-1.257l23.534,7.026a.537.537,0,0,1,.087.033c.085.038,8.46,3.989,6.171,11.768a7.147,7.147,0,0,1-3.87,4.773A8.878,8.878,0,0,1,131.819,166.975Z" fill="#231815"/>
          <path d="M135.565,152.674a.651.651,0,0,1-.44-.17L98.632,119.49a.656.656,0,1,1,.881-.973l36.492,33.014a.656.656,0,0,1-.44,1.143Z" fill="#231815"/>
          <g>
            <path d="M85.5,113.318a234.978,234.978,0,0,0,19.62,54.981V153.47S94.1,129.858,91.855,113.546Z" fill="#fff8ee"/>
            <path d="M105.123,168.956a.657.657,0,0,1-.584-.358,237.89,237.89,0,0,1-19.68-55.153.656.656,0,0,1,.668-.782l6.352.228a.657.657,0,0,1,.626.566c2.209,16.025,13.1,39.5,13.212,39.736a.652.652,0,0,1,.062.278V168.3a.657.657,0,0,1-.5.638A.672.672,0,0,1,105.123,168.956ZM86.317,114a239.128,239.128,0,0,0,18.15,51.524V153.615c-.883-1.918-10.877-23.872-13.183-39.432Z" fill="#231815"/>
          </g>
          <g>
            <path d="M109.327,151.265l.081-7.993s-5.859-5.031-7.086-6.174-2.712-1.48-3.278-.281c-.666,1.432,3.036,5.148,3.22,5.341l-5.6-.343s-2.505-.2-2.661,1.5c-.135,1.4,1.372,1.962,2.36,2.031-.243,0-2.291.153-2.378,1.671a1.929,1.929,0,0,0,2.271,2s-2.263.365-2.227,1.888.373,1.8,1.265,1.8a3.31,3.31,0,0,0-.878,1.262,1.538,1.538,0,0,0,1.343,2.135c2.012.343,8.189.457,8.3.457S109.178,156.448,109.327,151.265Z" fill="#f4aeb6"/>
            <path d="M101.54,149.926h-.032l-5.251-.248a2.888,2.888,0,0,1-2.243-.794,2.43,2.43,0,0,1-.682-1.908c.1-1.747,2.017-2.257,3.017-2.28a.67.67,0,0,1,.672.64.657.657,0,0,1-.641.672c-.017,0-1.682.067-1.739,1.051a1.133,1.133,0,0,0,.308.905,1.643,1.643,0,0,0,1.272.4c.023,0,.045,0,.066,0l5.283.25a.656.656,0,0,1-.03,1.311Z" fill="#231815"/>
            <path d="M101.67,146.224h-.026c-.171-.006-4.11-.156-5.207-.22a.6.6,0,0,1-.072,0l-.046,0a3.673,3.673,0,0,1-2.465-1.1,2.164,2.164,0,0,1-.5-1.644c.169-1.859,2.28-2.188,3.366-2.1l5.587.342a.656.656,0,0,1,.614.7.645.645,0,0,1-.695.614l-5.6-.342c-.028,0-1.872-.13-1.967.91a.848.848,0,0,0,.2.673,2.361,2.361,0,0,0,1.488.638.529.529,0,0,1,.1,0c.959.06,5.21.221,5.253.223a.656.656,0,0,1-.024,1.312Z" fill="#231815"/>
            <path d="M104.58,157.153c-2.2,0-7.17-.1-7.96-.2-3.058-.4-3.229-2.072-3.161-2.773a2.012,2.012,0,0,1,.736-1.421,2.864,2.864,0,0,1,1.991-.49.656.656,0,0,1-.167,1.3,1.563,1.563,0,0,0-1.01.219.689.689,0,0,0-.244.518c-.069.708.612,1.16,2.025,1.345.8.1,7.116.229,8.551.185.865-.024,3.334-.914,3.33-4.569l.078-7.695c-1.114-.957-5.776-4.97-6.874-5.992a2.512,2.512,0,0,0-1.824-.841.555.555,0,0,0-.414.36c-.185.4.637,2.076,3.046,4.551a.652.652,0,0,1-.289,1.153.7.7,0,0,1-.6-.189c-2.78-2.85-3.895-4.883-3.342-6.072a1.856,1.856,0,0,1,1.35-1.09,3.594,3.594,0,0,1,2.967,1.165c1.206,1.123,7.011,6.109,7.069,6.159a.656.656,0,0,1,.229.5l-.081,7.993c0,4.186-2.823,5.826-4.606,5.875C105.2,157.151,104.92,157.153,104.58,157.153Z" fill="#231815"/>
            <path d="M101.471,153.791h-.03c-.044,0-4.377-.2-5.067-.2a2.822,2.822,0,0,1-3-2.659c-.04-1.658,1.727-2.386,2.778-2.556a.656.656,0,0,1,.211,1.3h0c-.018,0-1.7.31-1.677,1.225.042,1.365,1.627,1.383,1.694,1.383.718.006,4.941.195,5.12.2a.656.656,0,0,1-.029,1.311Z" fill="#231815"/>
          </g>
          <polyline points="45.893 120.491 9.571 153.47 15.87 159.08 54.755 137.076" fill="#ee795e"/>
          <path d="M37.2,143.272,13.668,150.3S5.7,153.96,7.851,161.285c2.5,8.5,13.142,3.662,13.142,3.662l18.019-9.39" fill="#ee795e"/>
          <path d="M14.789,166.975a8.869,8.869,0,0,1-3.7-.732,7.148,7.148,0,0,1-3.87-4.773c-2.288-7.779,6.087-11.73,6.172-11.768a.564.564,0,0,1,.086-.033l23.534-7.026a.656.656,0,0,1,.376,1.257l-23.485,7.011a12.976,12.976,0,0,0-3.5,2.612A7.438,7.438,0,0,0,8.48,161.1a5.892,5.892,0,0,0,3.155,3.949c3.7,1.7,9.033-.674,9.086-.7l17.988-9.373a.656.656,0,0,1,.606,1.163l-18.02,9.39A17.56,17.56,0,0,1,14.789,166.975Z" fill="#231815"/>
          <path d="M11.045,152.674a.656.656,0,0,1-.44-1.143L47.1,118.517a.656.656,0,0,1,.88.973L11.485,152.5A.651.651,0,0,1,11.045,152.674Z" fill="#231815"/>
          <g>
            <path d="M61.107,113.318A234.978,234.978,0,0,1,41.487,168.3V153.47s11.02-23.612,13.268-39.924Z" fill="#fff8ee"/>
            <path d="M41.488,168.956a.666.666,0,0,1-.153-.018.656.656,0,0,1-.5-.638V153.471a.666.666,0,0,1,.061-.278c.11-.235,11-23.711,13.213-39.736a.655.655,0,0,1,.626-.566l6.352-.228a.608.608,0,0,1,.523.229.656.656,0,0,1,.144.553A237.858,237.858,0,0,1,42.072,168.6.657.657,0,0,1,41.488,168.956Zm.656-15.341v11.913A239.248,239.248,0,0,0,60.294,114l-4.967.179C53.021,129.743,43.027,151.7,42.144,153.615Z" fill="#231815"/>
          </g>
          <g>
            <path d="M37.283,151.265l-.081-7.993s5.86-5.031,7.086-6.174,2.713-1.48,3.279-.281c.665,1.432-3.037,5.148-3.221,5.341l5.6-.343s2.505-.2,2.661,1.5c.136,1.4-1.372,1.962-2.36,2.031.243,0,2.291.153,2.378,1.671a1.928,1.928,0,0,1-2.27,2s2.263.365,2.227,1.888-.374,1.8-1.266,1.8a3.318,3.318,0,0,1,.879,1.262,1.538,1.538,0,0,1-1.343,2.135c-2.013.343-8.189.457-8.3.457S37.433,156.448,37.283,151.265Z" fill="#f4aeb6"/>
            <path d="M45.071,149.926a.656.656,0,0,1-.03-1.311l5.282-.25c.022,0,.045,0,.066,0a1.653,1.653,0,0,0,1.272-.4,1.122,1.122,0,0,0,.309-.895c-.058-.994-1.723-1.061-1.739-1.061a.657.657,0,0,1-.641-.672.665.665,0,0,1,.671-.64c1,.023,2.917.533,3.018,2.289a2.422,2.422,0,0,1-.682,1.9,2.888,2.888,0,0,1-2.244.794l-5.251.248Z" fill="#231815"/>
            <path d="M44.941,146.224a.656.656,0,0,1-.025-1.312c.043,0,4.294-.163,5.252-.223a.81.81,0,0,1,.1,0,2.361,2.361,0,0,0,1.488-.638.845.845,0,0,0,.2-.67c-.1-1.043-1.938-.917-1.956-.914l-5.611.343a.649.649,0,0,1-.7-.614.656.656,0,0,1,.614-.7l5.6-.343c1.082-.092,3.184.238,3.355,2.1a2.16,2.16,0,0,1-.5,1.64,3.673,3.673,0,0,1-2.465,1.1.531.531,0,0,1-.08,0l-.037,0c-1.1.064-5.036.214-5.208.22Z" fill="#231815"/>
            <path d="M42.03,157.153c-.34,0-.614,0-.8-.007-1.782-.049-4.609-1.689-4.606-5.882l-.081-7.986a.656.656,0,0,1,.229-.5c.058-.05,5.863-5.036,7.066-6.156a3.606,3.606,0,0,1,2.971-1.168,1.854,1.854,0,0,1,1.348,1.087c.554,1.192-.561,3.225-3.311,6.044a.746.746,0,0,1-.619.222.659.659,0,0,1-.276-1.184c2.4-2.476,3.2-4.127,3.018-4.526a.552.552,0,0,0-.413-.356,2.524,2.524,0,0,0-1.828.844c-1.093,1.02-5.756,5.032-6.87,5.989l.078,7.688c0,3.662,2.465,4.552,3.33,4.576,1.435.045,7.755-.081,8.552-.185,1.412-.185,2.094-.637,2.025-1.345a.689.689,0,0,0-.244-.518,1.562,1.562,0,0,0-1.012-.219.656.656,0,0,1-.165-1.3,2.862,2.862,0,0,1,1.991.49,2.011,2.011,0,0,1,.735,1.421c.069.7-.1,2.373-3.16,2.773C49.2,157.053,44.234,157.153,42.03,157.153Z" fill="#231815"/>
            <path d="M45.139,153.791a.656.656,0,0,1-.028-1.311c.179-.009,4.4-.2,5.115-.2.072,0,1.657-.018,1.7-1.386.022-.907-1.658-1.219-1.675-1.222a.656.656,0,0,1,.209-1.3c1.051.17,2.818.9,2.779,2.552a2.824,2.824,0,0,1-3.005,2.663c-.685.006-5.019.2-5.062.2Z" fill="#231815"/>
          </g>
          <path d="M80.457,88.057H66.03a.656.656,0,1,1,0-1.312H80.457a.656.656,0,0,1,0,1.312Z" fill="#231815"/>
          <path d="M69.608,88.057a.656.656,0,0,1-.656-.656V83.146a.656.656,0,0,1,1.312,0V87.4A.655.655,0,0,1,69.608,88.057Z" fill="#231815"/>
          <path d="M73.253,88.057A.655.655,0,0,1,72.6,87.4V83.146a.656.656,0,0,1,1.312,0V87.4A.656.656,0,0,1,73.253,88.057Z" fill="#231815"/>
          <path d="M76.9,88.057a.655.655,0,0,1-.656-.656V83.146a.656.656,0,0,1,1.312,0V87.4A.655.655,0,0,1,76.9,88.057Z" fill="#231815"/>
          <path d="M80.457,95.255H66.03a.656.656,0,1,1,0-1.312H80.457a.656.656,0,1,1,0,1.312Z" fill="#231815"/>
          <path d="M76.879,99.509a.655.655,0,0,1-.656-.656V94.6a.656.656,0,0,1,1.312,0v4.254A.656.656,0,0,1,76.879,99.509Z" fill="#231815"/>
          <path d="M73.234,99.509a.655.655,0,0,1-.656-.656V94.6a.656.656,0,0,1,1.312,0v4.254A.656.656,0,0,1,73.234,99.509Z" fill="#231815"/>
          <path d="M69.588,99.509a.656.656,0,0,1-.656-.656V94.6a.656.656,0,0,1,1.312,0v4.254A.655.655,0,0,1,69.588,99.509Z" fill="#231815"/>
          <g>
            <path d="M73.19,41.927l27.782-6.039V54.8c0,.6,5.415,5.2,5.415,5.2l-.253-34.511,2.129-4.439C96.576,6.331,73.181,6.131,73.181,6.131H73.2S52.35,5.1,38.118,21.053l2.129,4.439L39.994,60s5.415-4.6,5.415-5.2V35.888Z" fill="#ee795e"/>
            <path d="M106.387,60.659a.65.65,0,0,1-.425-.157c-5.646-4.8-5.646-5.385-5.646-5.7V36.7L73.33,42.569a.69.69,0,0,1-.279,0L46.065,36.7V54.8c0,.315,0,.9-5.646,5.7a.656.656,0,0,1-1.081-.5l.252-34.359-2.064-4.3a.655.655,0,0,1,.1-.72C51.88,4.636,72.939,5.463,73.231,5.475c1.161.023,24.043.679,35.546,15.171a.656.656,0,0,1,.078.691l-2.064,4.3L107.043,60a.658.658,0,0,1-.656.661Zm-4.759-5.984a40.906,40.906,0,0,0,4.092,3.888L105.478,25.5a.659.659,0,0,1,.064-.289l1.951-4.065C96.055,7.156,73.405,6.788,73.175,6.786l-.051,0c-1.062-.033-20.69-.473-34.225,14.382l1.939,4.042a.66.66,0,0,1,.065.289l-.242,33.066a40.975,40.975,0,0,0,4.091-3.888V35.888a.658.658,0,0,1,.8-.641l27.643,6.009,27.641-6.009a.657.657,0,0,1,.8.641Z" fill="#231815"/>
          </g>
          <g>
            <path d="M63.652,44.693A2.087,2.087,0,0,0,65.661,42.2c-.293-.965-2.015-5.632-2.015-5.632h.011s-1.722,4.667-2.015,5.632A2.087,2.087,0,0,0,63.652,44.693Z" fill="#97d2ce"/>
            <path d="M63.651,45.349a2.678,2.678,0,0,1-2.164-1.106,2.6,2.6,0,0,1-.472-2.235c.272-.9,1.715-4.822,1.986-5.556a.65.65,0,0,1,.107-.26.686.686,0,0,1,1.082,0,.679.679,0,0,1,.106.24c.25.68,1.717,4.667,1.993,5.575a2.6,2.6,0,0,1-.474,2.236A2.679,2.679,0,0,1,63.651,45.349Zm0-6.861c-.522,1.432-1.21,3.337-1.381,3.9a1.332,1.332,0,0,0,.272,1.072,1.357,1.357,0,0,0,2.219,0,1.33,1.33,0,0,0,.272-1.073C64.862,41.825,64.174,39.92,63.651,38.488Z" fill="#231815"/>
          </g>
        </g>
        <g>
          <polygon points="278.282 9.815 242.213 0.689 204.649 10.275 188.428 50.206 189.416 75.789 181.179 79.191 172.527 66.924 145.767 84.181 170.06 80.067 178.167 93.687 189.965 90.018 191.708 135.173 214.304 161.174 245.072 166.389 274.019 152.047 291.525 130.753 295.998 50.666 278.282 9.815" fill="#fff"/>
          <path d="M245.072,167.077a.733.733,0,0,1-.115-.009l-30.769-5.215a.688.688,0,0,1-.4-.228l-22.595-26a.692.692,0,0,1-.169-.425l-1.708-44.257-10.941,3.4a.687.687,0,0,1-.8-.3l-7.867-13.214L145.882,84.86a.688.688,0,0,1-.488-1.257l26.76-17.258a.688.688,0,0,1,.935.182l8.335,11.818,7.285-3.009-.969-25.1a.692.692,0,0,1,.05-.285l16.221-39.931a.689.689,0,0,1,.468-.408L242.042.022a.675.675,0,0,1,.34,0l36.069,9.127a.689.689,0,0,1,.463.393l17.716,40.85a.7.7,0,0,1,.055.313l-4.473,80.087a.7.7,0,0,1-.156.4L274.55,152.484a.67.67,0,0,1-.226.18l-28.946,14.342A.694.694,0,0,1,245.072,167.077Zm-30.41-6.541,30.305,5.136L273.581,151.5,290.85,130.49l4.452-79.7L277.785,10.4l-35.572-9-37.057,9.457L189.122,50.327l.982,25.436a.689.689,0,0,1-.425.662l-8.238,3.4a.689.689,0,0,1-.825-.239L172.345,67.86,148.958,82.942l20.987-3.554a.687.687,0,0,1,.706.327l7.83,13.153,11.28-3.507a.688.688,0,0,1,.892.631l1.734,44.912Z" fill="#231815"/>
        </g>
        <g>
          <path d="M267.717,32.469a6.162,6.162,0,0,0-.236.866,12.667,12.667,0,0,1-1.536,4.79,9.365,9.365,0,0,1-4.881,3.674l-1.431-1.456a8.118,8.118,0,0,0,4.738-3.1,9.373,9.373,0,0,0,1.168-3.871h-6.181v2.152c0,.184,0,.643.039,1.05h-1.89a10.073,10.073,0,0,0,.066-1.05V32.8a9.865,9.865,0,0,0-.053-1.077c.394.027.971.053,1.562.053h6.155a7.007,7.007,0,0,0,1.233-.092Z"/>
          <path d="M267.127,47.558a22.787,22.787,0,0,0-2.769-2.848l1.351-1.142a24.736,24.736,0,0,1,2.809,2.808Z"/>
          <path d="M267.717,53.24a6.162,6.162,0,0,0-.236.866,12.667,12.667,0,0,1-1.536,4.79,9.365,9.365,0,0,1-4.881,3.674l-1.431-1.456a8.118,8.118,0,0,0,4.738-3.1,9.373,9.373,0,0,0,1.168-3.871h-6.181V56.3c0,.184,0,.643.039,1.05h-1.89a10.073,10.073,0,0,0,.066-1.05V53.568a9.865,9.865,0,0,0-.053-1.077c.394.027.971.053,1.562.053h6.155a7.007,7.007,0,0,0,1.233-.092Z"/>
          <path d="M267.311,67.933a4.51,4.51,0,0,0-.066.683c-.053,1.391-.223,4.986-.775,6.3a1.587,1.587,0,0,1-1.653.984c-.735,0-1.509-.052-2.139-.105l-.2-1.719a10.463,10.463,0,0,0,1.811.184.667.667,0,0,0,.722-.459,17.28,17.28,0,0,0,.551-4.778h-2.913c-.46,3.412-1.693,5.42-3.99,7.047l-1.5-1.194a7.655,7.655,0,0,0,1.693-1.259,7.565,7.565,0,0,0,2.113-4.594h-1.693c-.433,0-1.155.014-1.693.053V67.382a15.12,15.12,0,0,0,1.693.1h1.837c.013-.354.026-.734.026-1.128a9.062,9.062,0,0,0-.092-1.182h1.89c-.026.3-.065.84-.079,1.155-.013.394-.026.788-.052,1.155h2.428a5.883,5.883,0,0,0,.971-.092Z"/>
          <path d="M266.851,80a9.964,9.964,0,0,0-.538,1.155,19.606,19.606,0,0,1-1.732,3.5,34.522,34.522,0,0,1,3.058,2.835l-1.326,1.483a26.284,26.284,0,0,0-2.835-2.847,16.206,16.206,0,0,1-4.8,3.989L257.192,88.8A13.7,13.7,0,0,0,262.1,84.99a36.824,36.824,0,0,0-3.464-2.427l1.115-1.325c1.024.629,2.349,1.548,3.4,2.323a14.422,14.422,0,0,0,1.417-3.058,7.268,7.268,0,0,0,.3-1.182Z"/>
          <path d="M267.127,95.972a22.846,22.846,0,0,0-2.769-2.847l1.351-1.142a24.736,24.736,0,0,1,2.809,2.808Z"/>
          <path d="M237.907,32.9c-.013.813,0,1.772.079,2.69.184,1.824.551,3.071,1.352,3.071.616,0,1.115-1.483,1.338-2.493l1.3,1.548c-.853,2.218-1.64,2.992-2.677,2.992-1.378,0-2.6-1.247-2.966-4.672-.118-1.168-.144-2.651-.144-3.438a8.838,8.838,0,0,0-.079-1.286l1.956.026A9.86,9.86,0,0,0,237.907,32.9Zm8.832,5.223-1.68.643c-.2-2.06-.866-5.039-2.257-6.614l1.614-.538A13.788,13.788,0,0,1,246.739,38.125Z"/>
          <path d="M238.616,49.014a6.141,6.141,0,0,1,3.727-1.207c2.231,0,3.53,1.378,3.53,2.914,0,2.335-1.838,4.107-7.126,3.647l-.486-1.666c3.819.538,5.84-.394,5.84-2.021,0-.827-.787-1.43-1.916-1.43a4.519,4.519,0,0,0-3.517,1.5,3.741,3.741,0,0,0-.472.735l-1.47-.355a45.97,45.97,0,0,0,.63-5.314l1.719.235C238.9,46.757,238.694,48.28,238.616,49.014ZM239,43.49a39.724,39.724,0,0,0,5.092.984l-.381,1.574c-1.285-.183-4.133-.774-5.118-1.023Z"/>
          <path d="M237.907,59.615c-.013.814,0,1.772.079,2.69.184,1.825.551,3.071,1.352,3.071.616,0,1.115-1.483,1.338-2.493l1.3,1.549c-.853,2.217-1.64,2.991-2.677,2.991-1.378,0-2.6-1.246-2.966-4.671-.118-1.168-.144-2.651-.144-3.439a8.816,8.816,0,0,0-.079-1.285l1.956.026A9.848,9.848,0,0,0,237.907,59.615Zm8.832,5.223-1.68.644c-.2-2.061-.866-5.04-2.257-6.614l1.614-.539A13.792,13.792,0,0,1,246.739,64.838Z"/>
          <path d="M238.616,75.728a6.136,6.136,0,0,1,3.727-1.208c2.231,0,3.53,1.378,3.53,2.914,0,2.336-1.838,4.107-7.126,3.648l-.486-1.666c3.819.538,5.84-.394,5.84-2.022,0-.826-.787-1.43-1.916-1.43a4.523,4.523,0,0,0-3.517,1.5,3.8,3.8,0,0,0-.472.735l-1.47-.354a45.989,45.989,0,0,0,.63-5.315l1.719.236C238.9,73.471,238.694,74.993,238.616,75.728ZM239,70.2a39.382,39.382,0,0,0,5.092.984l-.381,1.575c-1.285-.183-4.133-.774-5.118-1.023Z"/>
          <path d="M237.907,86.328c-.013.814,0,1.772.079,2.69.184,1.825.551,3.071,1.352,3.071.616,0,1.115-1.483,1.338-2.493l1.3,1.548c-.853,2.218-1.64,2.992-2.677,2.992-1.378,0-2.6-1.246-2.966-4.671-.118-1.168-.144-2.651-.144-3.439a8.816,8.816,0,0,0-.079-1.285l1.956.026A9.848,9.848,0,0,0,237.907,86.328Zm8.832,5.223-1.68.643c-.2-2.06-.866-5.039-2.257-6.614l1.614-.538A13.792,13.792,0,0,1,246.739,91.551Z"/>
          <path d="M238.616,102.442a6.136,6.136,0,0,1,3.727-1.208c2.231,0,3.53,1.378,3.53,2.914,0,2.335-1.838,4.107-7.126,3.647l-.486-1.666c3.819.538,5.84-.394,5.84-2.021,0-.827-.787-1.43-1.916-1.43a4.519,4.519,0,0,0-3.517,1.5,3.741,3.741,0,0,0-.472.735l-1.47-.355a45.97,45.97,0,0,0,.63-5.314l1.719.235C238.9,100.185,238.694,101.707,238.616,102.442Zm.38-5.525a39.724,39.724,0,0,0,5.092.984l-.381,1.574c-1.285-.183-4.133-.774-5.118-1.023Z"/>
          <path d="M237.907,113.042c-.013.813,0,1.772.079,2.69.184,1.824.551,3.071,1.352,3.071.616,0,1.115-1.483,1.338-2.493l1.3,1.548c-.853,2.218-1.64,2.992-2.677,2.992-1.378,0-2.6-1.247-2.966-4.672-.118-1.168-.144-2.651-.144-3.438a8.838,8.838,0,0,0-.079-1.286l1.956.026A9.86,9.86,0,0,0,237.907,113.042Zm8.832,5.223-1.68.643c-.2-2.06-.866-5.039-2.257-6.614l1.614-.538A13.788,13.788,0,0,1,246.739,118.265Z"/>
          <path d="M238.616,129.154a6.141,6.141,0,0,1,3.727-1.207c2.231,0,3.53,1.378,3.53,2.913,0,2.336-1.838,4.108-7.126,3.648l-.486-1.666c3.819.538,5.84-.394,5.84-2.021,0-.827-.787-1.43-1.916-1.43a4.519,4.519,0,0,0-3.517,1.5,3.741,3.741,0,0,0-.472.735l-1.47-.355a45.962,45.962,0,0,0,.63-5.315l1.719.236C238.9,126.9,238.694,128.42,238.616,129.154Zm.38-5.524a39.724,39.724,0,0,0,5.092.984l-.381,1.574c-1.285-.183-4.133-.774-5.118-1.023Z"/>
          <path d="M216.483,32.9c-.013.813,0,1.772.079,2.69.184,1.824.551,3.071,1.352,3.071.617,0,1.115-1.483,1.338-2.493l1.3,1.548c-.852,2.218-1.64,2.992-2.677,2.992-1.378,0-2.6-1.247-2.965-4.672-.118-1.168-.145-2.651-.145-3.438a8.973,8.973,0,0,0-.078-1.286l1.955.026A9.979,9.979,0,0,0,216.483,32.9Zm8.832,5.223-1.68.643c-.2-2.06-.866-5.039-2.257-6.614l1.614-.538A13.788,13.788,0,0,1,225.315,38.125Z"/>
          <path d="M217.192,49.014a6.143,6.143,0,0,1,3.727-1.207c2.231,0,3.53,1.378,3.53,2.914,0,2.335-1.837,4.107-7.126,3.647l-.485-1.666c3.818.538,5.84-.394,5.84-2.021,0-.827-.788-1.43-1.917-1.43a4.519,4.519,0,0,0-3.517,1.5,3.741,3.741,0,0,0-.472.735l-1.47-.355a45.752,45.752,0,0,0,.63-5.314l1.719.235C217.481,46.757,217.271,48.28,217.192,49.014Zm.38-5.524a39.724,39.724,0,0,0,5.092.984l-.38,1.574c-1.286-.183-4.134-.774-5.118-1.023Z"/>
          <path d="M220.341,59.116c-.616.906-1.6,2.677-2.217,3.793a2.939,2.939,0,0,1,1.443-.381,1.532,1.532,0,0,1,1.575,1.68c.026.564,0,1.575.065,2.126a.721.721,0,0,0,.8.683c1.116,0,1.8-1.431,2.166-3.019l1.378,1.129c-.657,2.191-1.838,3.622-3.807,3.622a1.893,1.893,0,0,1-2.125-1.759c-.04-.682-.04-1.719-.079-2.23a.675.675,0,0,0-.735-.709c-.866,0-1.574.866-2.034,1.916-.328.748-.761,2.152-.958,2.821l-1.8-.6a99.614,99.614,0,0,1,4.305-9.094c.144-.341.393-.761.617-1.3l1.81.735A5.959,5.959,0,0,0,220.341,59.116Z"/>
          <path d="M218.714,74.4c.42-.026.8-.052,1.063-.052,1.352,0,2.3.6,2.3,2.428a12.566,12.566,0,0,1-.721,4.645,2.032,2.032,0,0,1-2.086,1.169,8,8,0,0,1-1.523-.184l-.276-1.694a7.15,7.15,0,0,0,1.549.277.946.946,0,0,0,.958-.552,9.913,9.913,0,0,0,.512-3.491c0-1-.433-1.154-1.234-1.154-.2,0-.512.026-.866.052a27.458,27.458,0,0,1-2.585,6.8l-1.667-.669a18.922,18.922,0,0,0,2.559-5.946c-.459.053-.853.106-1.089.132-.367.052-1.023.131-1.417.21l-.145-1.732a11.726,11.726,0,0,0,1.352,0c.393-.013,1-.053,1.64-.105a13.575,13.575,0,0,0,.263-2.69l1.89.2c-.066.342-.145.735-.21,1.05Zm4.869-1.168a22.2,22.2,0,0,1,2.231,4.725l-1.614.761a14.8,14.8,0,0,0-2.139-4.856Z"/>
          <path d="M219.4,94.885c.5-.053.84-.132,1.194-.2a3.458,3.458,0,0,0,2.887-3.4,3.145,3.145,0,0,0-2.664-3.36,24.37,24.37,0,0,1-.761,3.438c-.761,2.573-1.851,4.147-3.242,4.147-1.417,0-2.6-1.562-2.6-3.714a5.668,5.668,0,0,1,5.866-5.433,4.85,4.85,0,0,1,5.131,4.961c0,2.664-1.64,4.58-4.855,5.065Zm-.985-3.846a21.045,21.045,0,0,0,.682-3.084,4.02,4.02,0,0,0-3.228,3.688c0,1.286.512,1.9,1,1.9C217.388,93.546,217.888,92.758,218.412,91.039Z"/>
          <path d="M221.2,102.7c0-.787-.63-1.233-1.654-1.233a2.721,2.721,0,0,0-2.1,1.037l-1.076-1a4.368,4.368,0,0,1,3.386-1.6c1.9,0,3.294.879,3.294,2.625,0,1.929-2.861,2.152-2.664,3.976h-1.693C218.412,104.447,221.2,103.975,221.2,102.7Zm-1.654,4.712a1.294,1.294,0,1,1-1.365,1.285A1.276,1.276,0,0,1,219.541,107.414Z"/>
        </g>
      </g>
      <g>
        <path d="M68.984,148.5l.435-.022a1.269,1.269,0,0,0,.394-.149,1.021,1.021,0,0,0,.324-.31q.435.375.859.769t.835.854a3.855,3.855,0,0,1,.429-.833q.312-.48.747-1.089c.048-.064.1-.128.148-.192s.1-.131.147-.2a.848.848,0,0,0,.335.15.991.991,0,0,0,.406,0l5.906-.192a.892.892,0,0,0,.553-.145.929.929,0,0,0,.294-.475,11.465,11.465,0,0,1,2.989,1.89,2.372,2.372,0,0,1,.988,1.548.9.9,0,0,1-.229.571,2.44,2.44,0,0,1-.665.54l-.223,8.573c0,.135,0,.267.012.395s.011.245.011.352a4.521,4.521,0,0,1-1.141,3.358,4.6,4.6,0,0,1-3.365,1.126q-1.2,0-1.442-.394a2.277,2.277,0,0,1-.24-1.164,2.6,2.6,0,0,0-.336-1.325,2.284,2.284,0,0,0-1.182-.811,6.608,6.608,0,0,1-1.4,2.157,2.18,2.18,0,0,1-1.517.726,1.185,1.185,0,0,1-1.094-.592,10.171,10.171,0,0,1-.753-1.7c-.071-.177-.138-.361-.2-.55s-.133-.385-.211-.592a4.229,4.229,0,0,0,1.776-2.21,28.921,28.921,0,0,0,1.788-5.136,1.1,1.1,0,0,1,.024-.218.964.964,0,0,0,.024-.2.622.622,0,0,0-.194-.465,1.1,1.1,0,0,0-.606-.25,9.521,9.521,0,0,1,1.788-.961A4.065,4.065,0,0,1,76.89,151a1.754,1.754,0,0,1,1.259.47,1.631,1.631,0,0,1,.494,1.238,11.537,11.537,0,0,1-.576,2.755q-.624,2.114-1.777,5.093l1.953.192a1.362,1.362,0,0,0,1.041-.369,1.605,1.605,0,0,0,.348-1.137l.247-8.445-6.554.2-.965-.128a.807.807,0,0,1-.264.646,1.225,1.225,0,0,1-.818.229c-.275.421-.549.822-.824,1.207s-.556.754-.846,1.11l.823.673q.413-.694.665-1.1a1.368,1.368,0,0,0,.253-.587l-.094-.278,1.059-.139a.883.883,0,0,1,.641.246.769.769,0,0,1,.253.566,1.981,1.981,0,0,1-.342.982,7.772,7.772,0,0,1-1.035,1.335l.965.64a6.355,6.355,0,0,0-.753,1.485q-.483,1.271-.894,1.27a1.48,1.48,0,0,1-.765-.416,14.978,14.978,0,0,1-1.2-1.293v5.51a2.976,2.976,0,0,1-.388,1.815,1.33,1.33,0,0,1-1.189.641,2.07,2.07,0,0,1-1.223-.46,6.031,6.031,0,0,1-1.2-1.43,1.452,1.452,0,0,0,.271-.556,2.913,2.913,0,0,0,.082-.726v-3.79a6.673,6.673,0,0,1-1.341,1.121,2.427,2.427,0,0,1-1.118.342.708.708,0,0,1-.547-.24.945.945,0,0,1-.217-.657,4.838,4.838,0,0,1,.235-.961,22.281,22.281,0,0,0,.612-2.2,23.1,23.1,0,0,0,2.071-1.852q.987-1,1.929-2.088l-3.6.214a1.549,1.549,0,0,1-1.13-.305,1.159,1.159,0,0,1-.412-.934,2.35,2.35,0,0,1,.636-1.164,9.06,9.06,0,0,0,.882-1.27.5.5,0,0,0,.259.235.906.906,0,0,0,.377.032l1.177-.043v-1.206a1.256,1.256,0,0,0-.254-.55,1.083,1.083,0,0,0-.476-.326,9.318,9.318,0,0,1,1.623-1.11,3.134,3.134,0,0,1,1.424-.4,2.225,2.225,0,0,1,1.365.4,1.133,1.133,0,0,1,.529.918.526.526,0,0,1-.141.368,1.268,1.268,0,0,1-.435.283Z" fill="#121659"/>
        <path d="M65.254,182.635V176.1a6.461,6.461,0,0,1-1.165,1.377,1.538,1.538,0,0,1-.882.438.833.833,0,0,1-.63-.283,1.106,1.106,0,0,1-.264-.785A8.516,8.516,0,0,1,62.6,175.2a23.368,23.368,0,0,0,.459-2.317,6.334,6.334,0,0,0,1.565-1.377,19.006,19.006,0,0,0,1.906-2.648l.153-.331a.176.176,0,0,0-.077-.128c-.051-.043-.108-.085-.17-.128a6.057,6.057,0,0,1,1.47-.721,4.973,4.973,0,0,1,1.542-.24,1.658,1.658,0,0,1,1.17.368,1.4,1.4,0,0,1,.394,1.073A3.846,3.846,0,0,1,70.6,170.3a13.616,13.616,0,0,1-1.177,2v11.829a5.339,5.339,0,0,1-.576,2.4,1.623,1.623,0,0,1-1.448.79A2,2,0,0,1,65.9,186.6a9.5,9.5,0,0,1-1.424-2.146,2.416,2.416,0,0,0,.583-.811A2.5,2.5,0,0,0,65.254,182.635Zm9.06-10.314-.153-1.857a1.6,1.6,0,0,0-.236-.828,1.225,1.225,0,0,0-.67-.464l.3-.23c.106-.082.206-.166.3-.251q.894-.683,1.506-1.1a2.113,2.113,0,0,1,1.188-.417,2.716,2.716,0,0,1,1.689.571,1.61,1.61,0,0,1,.747,1.265,1.023,1.023,0,0,1-.171.572,2.656,2.656,0,0,1-.476.528l.07,1.772,2.318-.245.506-.256a11.106,11.106,0,0,0-.8-1.5,2.757,2.757,0,0,0-.895-.854,4,4,0,0,1,1.148-1.025,2.7,2.7,0,0,1,1.359-.352,2.506,2.506,0,0,1,1.782.7,2.241,2.241,0,0,1,.748,1.687,1.413,1.413,0,0,1-.448,1.1,2.529,2.529,0,0,1-1.376.533,6.112,6.112,0,0,1,1.388,1.49A2.719,2.719,0,0,1,84.6,174.6a1.79,1.79,0,0,1-.541,1.319,1.707,1.707,0,0,1-1.236.539,1.974,1.974,0,0,1-.882-.208,3.481,3.481,0,0,1-.859-.625l-2.283.235a13.015,13.015,0,0,0,.718,3.065,3.926,3.926,0,0,0,.942,1.462,4.525,4.525,0,0,0,.8.6,1.323,1.323,0,0,0,.594.208c.111.015.226-.062.348-.229a7.853,7.853,0,0,0,.441-.71q.129-.213.282-.48c.1-.179.227-.374.377-.588l.741.278q-.211.769-.341,1.249a5.9,5.9,0,0,0-.094.94,2.921,2.921,0,0,0,.612,1.58,2.106,2.106,0,0,1,.47,1.024,2.186,2.186,0,0,1-.718,1.672,2.558,2.558,0,0,1-1.811.667q-2.531,0-4.719-2.691a13.778,13.778,0,0,1-2.847-7.591l-1.8.2a3.74,3.74,0,0,1-2.071-.5,1.423,1.423,0,0,1-.753-1.229,2.325,2.325,0,0,1,.436-.939,21.672,21.672,0,0,1,1.4-1.751.551.551,0,0,0,.23.278,1.148,1.148,0,0,0,.394.138Z" fill="#121659"/>
      </g>
    </g>
  </g>
</svg>
