<svg xmlns="http://www.w3.org/2000/svg" xmlns:xlink="http://www.w3.org/1999/xlink" width="408.803" height="260.792" viewBox="0 0 408.803 260.792">
  <defs>
    <clipPath id="clip-path">
      <polygon points="123.793 97.279 109.485 63.265 88.68 66.899 94.87 102.331 123.793 97.279" fill="none"/>
    </clipPath>
    <clipPath id="clip-path-2">
      <polygon points="26.875 114.21 28.804 77.359 49.608 73.725 55.798 109.157 26.875 114.21" fill="none"/>
    </clipPath>
  </defs>
  <g id="レイヤー_2" data-name="レイヤー 2">
    <g id="レイヤー_1-2" data-name="レイヤー 1">
      <g>
        <g>
          <g>
            <path d="M31.974,160.593c.726,2.917,1.486,5.639,2.257,8.2-4.438.775-11.673.713-12.461-7.592-.777-8.32,8.371-8.85,8.371-8.85C30.718,155.265,31.331,158,31.974,160.593Z" fill="#f4aeb6"/>
            <path d="M133.332,142.886c-.286-2.642-.638-5.436-1.1-8.373l.013,0s8.773-2.6,10.863,5.49c2.085,8.065-4.675,10.571-9.11,11.36Q133.8,147.4,133.332,142.886Z" fill="#f4aeb6"/>
            <path d="M89.282,161.649c.52,2.047-.86,4.06-4.143,4.634s-5.263-.853-5.468-2.955c-.22-2.113,2.3-15.19,2.3-15.19S88.773,159.586,89.282,161.649Z" fill="#f4aeb6"/>
            <path d="M106.157,135.023a10.247,10.247,0,1,0,4.045,6.5A10.225,10.225,0,0,0,106.157,135.023Zm-17.433,51.7a22.455,22.455,0,0,0,5.888-1.841,16.613,16.613,0,0,0,6.521-5.347,12.416,12.416,0,0,0,2.553-7.847,5.946,5.946,0,0,0-.167-.958,4.444,4.444,0,0,0-4.864-3.291l-.827.145-6.053,1.057L85.736,169.7l-6.04,1.055-6.039,1.055-.827.145a4.461,4.461,0,0,0-3.474,4.747,5.9,5.9,0,0,0,.168.958,12.446,12.446,0,0,0,5.075,6.515,16.7,16.7,0,0,0,7.934,2.821,22.55,22.55,0,0,0,6.177-.267c-3.291,6.718-14.681,12.929-14.681,12.929-17.745-5.154-29.29-24.541-30.1-52.365-1.042-35.781,30.334-41.357,30.663-41.414s31.736-5.45,42.9,28.563c8.684,26.476,4.477,48.629-10.553,59.481l-.016-.011s-12.82-1.982-18.208-7.183Zm-3.585-20.44c3.283-.574,4.663-2.587,4.143-4.634-.509-2.063-7.312-13.511-7.312-13.511s-2.519,13.077-2.3,15.19C79.876,165.43,81.857,166.856,85.139,166.283Zm-11.857-18.3a10.256,10.256,0,1,0-8.332,11.86A10.255,10.255,0,0,0,73.282,147.978Z" fill="#f4aeb6"/>
            <path d="M88.71,186.725c5.388,5.2,18.208,7.183,18.208,7.183l.016.011a37.679,37.679,0,0,1-15.838,6.46,37.5,37.5,0,0,1-17.067-.725S85.419,193.443,88.71,186.725Z" fill="#231815"/>
            <path d="M87.86,181.854l.85,4.871a22.55,22.55,0,0,1-6.177.267l-.713-4.083Z" fill="#fff"/>
            <path d="M81.82,182.909l.713,4.083a16.7,16.7,0,0,1-7.934-2.821Z" fill="#fff"/>
            <path d="M93.9,180.8l7.234-1.264a16.613,16.613,0,0,1-6.521,5.347Z" fill="#fff"/>
            <path d="M93.9,180.8l.713,4.083a22.455,22.455,0,0,1-5.888,1.841l-.014,0-.85-4.871Z" fill="#fff"/>
            <rect x="74.046" y="171.241" width="6.131" height="5.051" transform="translate(-28.753 15.862) rotate(-9.909)" fill="#fff"/>
            <rect x="80.085" y="170.186" width="6.131" height="5.051" transform="translate(-28.481 16.886) rotate(-9.909)" fill="#fff"/>
            <path d="M73.657,171.806l.869,4.976-5,.874a5.9,5.9,0,0,1-.168-.958,4.461,4.461,0,0,1,3.474-4.747Z" fill="#fff"/>
            <rect x="92.164" y="168.075" width="6.144" height="5.051" transform="translate(-27.937 18.934) rotate(-9.909)" fill="#fff"/>
            <rect x="86.125" y="169.131" width="6.131" height="5.051" transform="translate(-28.209 17.909) rotate(-9.909)" fill="#fff"/>
            <path d="M103.519,170.73a5.946,5.946,0,0,1,.167.958l-4.989.872-.869-4.976.827-.145A4.444,4.444,0,0,1,103.519,170.73Z" fill="#fff"/>
            <path d="M106.157,135.023a10.247,10.247,0,1,1-7.831-1.838A10.187,10.187,0,0,1,106.157,135.023Zm-1,7.386a5.138,5.138,0,1,0-4.185,5.94A5.135,5.135,0,0,0,105.16,142.409Z" fill="#fff"/>
            <path d="M54.677,144.017a10.245,10.245,0,1,1-1.6,7.491A10.221,10.221,0,0,1,54.677,144.017Zm13.564,4.842a5.138,5.138,0,1,0-4.172,5.937A5.125,5.125,0,0,0,68.241,148.859Z" fill="#fff"/>
            <path d="M98.7,172.56l4.989-.872a12.416,12.416,0,0,1-2.553,7.847L93.9,180.8l-6.039,1.055-6.04,1.055L74.6,184.171a12.446,12.446,0,0,1-5.075-6.515l5-.874,6.039-1.055,6.04-1.055,6.039-1.055Z" fill="#e84572"/>
            <path d="M101.826,142.992a1.76,1.76,0,1,0-1.431,2.035A1.759,1.759,0,0,0,101.826,142.992Zm-2.617-4.752a5.131,5.131,0,1,1-4.171,5.937A5.135,5.135,0,0,1,99.209,138.24Z" fill="#97d2ce"/>
            <path d="M58.118,150.627a5.138,5.138,0,1,1,5.951,4.169A5.136,5.136,0,0,1,58.118,150.627Zm4.765-2.618a1.759,1.759,0,1,0,2.036,1.43A1.757,1.757,0,0,0,62.883,148.009Z" fill="#97d2ce"/>
            <path d="M56.9,4.81c-.805.655-23.673,19.7-29.267,79.3,0,0-17.524-7.993-26.637-18.335C1,65.773,35.63,17.483,56.9,4.81Z" fill="#97d2ce"/>
            <path d="M56.957,4.8c24.311,4.71,73.262,38.4,73.262,38.4-5.067,12.818-18.843,26.279-18.843,26.279C85.905,15.3,57.937,5.144,56.957,4.8Z" fill="#97d2ce"/>
            <path d="M79.1,222.959c-2.708,4.559-3.145,12.9-.313,15.56,7.236,6.8,7.813,8.783,5.071,12.143-2.431,2.969-9.722,1.969-15.307-3.9-5.6-5.881-3.837-13.442-4.662-20.414a12.9,12.9,0,0,0-2.995-7l-1.3.769c-11.541,3.1-6.485,9.738-2.941,16.235s2.475,13.4-.327,16.564-8.953,5.6-9.869-4.987S39.87,242.5,33.726,230.412s3.91-19.516,3.91-19.516c11.6-9.752,3.755-18.394-3.405-42.106-.771-2.558-1.531-5.28-2.257-8.2-.643-2.594-1.256-5.328-1.833-8.245A207.777,207.777,0,0,1,26.4,111.492c.005-9.959.445-19.06,1.237-27.384C33.231,24.505,56.1,5.465,56.9,4.81c.013,0,.011-.015.024-.018s.016.011.029.009c.98.343,28.948,10.5,54.419,64.678,3.567,7.563,7.066,15.976,10.448,25.343a210.681,210.681,0,0,1,10.411,39.691c.459,2.937.811,5.731,1.1,8.373q.462,4.506.669,8.475c1.35,23.915-2.784,33.946,11.331,39.151,0,0,15.371,4.96,18.454,12.62,5.685,14.107-5.824,17.389-4.3,26.12s-5.076,9.356-7.808,5.261-3.536-9.706-2.277-16.055c2-10.078-9-14.6-14.978-13.092a24.822,24.822,0,0,0,1.959,3.081c5.641,7.741,5.327,14.385,3.961,22.674-1.377,8.3-6.26,14.123-10.307,12.489s-1.561-8.941-1.274-14.186A15.479,15.479,0,0,0,119.939,215c-5.972-2.664-13,2.27-13,2.27a11.258,11.258,0,0,1,2.185,6.546c.319,4.923.357,12.034,3.542,14.156a13,13,0,0,1,5.192,10.512c-.137,3.786-4.188,3.681-4.188,3.681-12.356-2.265-14.11-7.736-17.162-17.54C93.442,224.81,79.1,222.959,79.1,222.959Zm27.832-29.04c15.03-10.852,19.237-33.005,10.553-59.481-11.164-34.013-42.572-28.621-42.9-28.563s-31.705,5.633-30.663,41.414c.815,27.824,12.36,47.211,30.1,52.365a37.5,37.5,0,0,0,17.067.725A37.679,37.679,0,0,0,106.934,193.919Z" fill="#97d2ce"/>
            <circle cx="100.092" cy="143.294" r="1.759" fill="#231815"/>
            <circle cx="63.186" cy="149.742" r="1.759" fill="#231815"/>
          </g>
          <g>
            <path d="M79.651,253.284c-3.881,0-8.374-2.209-11.823-5.834-4.41-4.632-4.529-10.187-4.643-15.56-.039-1.8-.078-3.66-.287-5.426A11.86,11.86,0,0,0,60.138,220a9.985,9.985,0,0,0-2.766-2.3,1,1,0,0,1,.878-1.8,11.813,11.813,0,0,1,3.4,2.795,14.018,14.018,0,0,1,3.23,7.532c.22,1.863.261,3.772.3,5.619.112,5.221.217,10.154,4.093,14.224,3.8,3.991,8,5.286,10.671,5.207a4.165,4.165,0,0,0,3.139-1.25c2.092-2.564,2.438-3.807-4.982-10.781-3.344-3.137-2.709-12.007.137-16.8a6.836,6.836,0,0,1,3.9-3.385,1,1,0,0,1,.535,1.928,5.184,5.184,0,0,0-2.711,2.479c-2.581,4.345-2.846,12.107-.488,14.319,6.983,6.564,8.606,9.282,5.161,13.505a6.1,6.1,0,0,1-4.612,1.982C79.9,253.281,79.775,253.284,79.651,253.284Z" fill="#231815"/>
            <path d="M113.769,253.166h-.122a1.007,1.007,0,0,1-.155-.017c-13.005-2.384-14.861-8.347-17.937-18.226-2.838-9.079-16.445-10.953-16.582-10.972a1,1,0,1,1,.257-1.983c.611.079,15.013,2.053,18.234,12.36,3.038,9.756,4.565,14.664,16.3,16.838.522-.006,3-.169,3.094-2.717a12.059,12.059,0,0,0-4.749-9.645c-3.263-2.175-3.61-8.349-3.888-13.31-.031-.555-.062-1.1-.095-1.612a10.287,10.287,0,0,0-1.97-5.987,11.181,11.181,0,0,0-4.294-3.105,1,1,0,1,1,.824-1.822,13.131,13.131,0,0,1,5.036,3.681,12.189,12.189,0,0,1,2.4,7.1c.034.522.064,1.068.1,1.63.24,4.278.569,10.138,3,11.759a14.039,14.039,0,0,1,5.637,11.384C118.725,252.21,115.541,253.166,113.769,253.166Z" fill="#231815"/>
            <path d="M131.447,244.887a4.735,4.735,0,0,1-1.784-.349c-3.765-1.52-3.029-6.593-2.379-11.067.211-1.459.411-2.838.481-4.1a14.577,14.577,0,0,0-8.234-13.456c-5.374-2.4-11.951,2.13-12.016,2.177a1,1,0,0,1-1.149-1.638c.305-.215,7.564-5.226,13.98-2.365a16.443,16.443,0,0,1,9.416,15.392c-.074,1.353-.29,2.84-.5,4.279-.571,3.93-1.16,7.993,1.149,8.925a3.169,3.169,0,0,0,2.829-.32c2.786-1.563,5.244-6.147,6.117-11.4,1.273-7.73,1.8-14.254-3.783-21.922a25.669,25.669,0,0,1-2.039-3.21c-3.16-5.971-.014-7.847.121-7.925a1,1,0,1,1,.989,1.739c-.517.356-1.093,1.943.662,5.258a23.6,23.6,0,0,0,1.884,2.961c6.033,8.28,5.443,15.507,4.139,23.425-.982,5.917-3.773,10.95-7.111,12.823A5.654,5.654,0,0,1,131.447,244.887Z" fill="#231815"/>
            <path d="M83.89,202.022a36.141,36.141,0,0,1-10.14-1.409c-18.482-5.367-30.006-25.29-30.826-53.295-1.059-36.386,31.167-42.373,31.492-42.428s32.68-5.316,44.021,29.236c8.755,26.691,4.673,49.347-10.918,60.6a38.7,38.7,0,0,1-16.251,6.636A42.841,42.841,0,0,1,83.89,202.022Zm-4-95.53a31.665,31.665,0,0,0-5.13.368,39.871,39.871,0,0,0-15.414,7.122c-9.992,7.569-14.844,18.765-14.422,33.278.794,27.093,11.779,46.32,29.385,51.433h0a36.576,36.576,0,0,0,16.615.7,36.717,36.717,0,0,0,15.422-6.286c14.852-10.721,18.66-32.538,10.191-58.36C108.311,109.69,89.138,106.492,79.889,106.492Z" fill="#231815"/>
            <path d="M30.839,170.1a10.858,10.858,0,0,1-6.667-1.931,9.313,9.313,0,0,1-3.4-6.874,8.377,8.377,0,0,1,1.842-6.494c2.7-3.139,7.274-3.438,7.467-3.448a1,1,0,0,1,.118,2c-.039,0-3.941.27-6.076,2.764a6.465,6.465,0,0,0-1.36,4.994,7.408,7.408,0,0,0,2.62,5.472c2.419,1.846,6.052,1.688,8.674,1.228a1.013,1.013,0,0,1,1.16.789,1,1,0,0,1-.758,1.17A21.3,21.3,0,0,1,30.839,170.1Z" fill="#231815"/>
            <path d="M27.351,162.4a1,1,0,0,1-.171-1.985l4.622-.808a1.011,1.011,0,0,1,1.159.789.994.994,0,0,1-.757,1.17l-4.68.82A1.017,1.017,0,0,1,27.351,162.4Z" fill="#231815"/>
            <path d="M134.175,152.345l-.214-.978-.146-.989c2.631-.468,6.1-1.558,7.734-4.1a7.393,7.393,0,0,0,.593-6.022A6.461,6.461,0,0,0,139.158,136c-2.865-1.621-6.589-.546-6.626-.534a1,1,0,0,1-.569-1.918c.186-.055,4.583-1.324,8.18.712a8.383,8.383,0,0,1,3.936,5.487,9.3,9.3,0,0,1-.847,7.6C141.206,150.509,137.189,151.81,134.175,152.345Z" fill="#231815"/>
            <path d="M133.33,143.886a1.008,1.008,0,0,1-1-.821.989.989,0,0,1,.789-1.158l4.631-.809a1,1,0,0,1,.344,1.97l-4.595.8A1.031,1.031,0,0,1,133.33,143.886Z" fill="#231815"/>
            <path d="M83.729,167.412a5.514,5.514,0,0,1-3.426-1.037,4.166,4.166,0,0,1-1.627-2.95c-.228-2.191,2.051-14.123,2.312-15.477a1,1,0,0,1,1.841-.321c.7,1.185,6.894,11.639,7.424,13.782a4.164,4.164,0,0,1-.532,3.32,6.193,6.193,0,0,1-4.409,2.539h0A9.269,9.269,0,0,1,83.729,167.412ZM82.46,150.944c-.9,4.908-1.92,11.077-1.794,12.281a2.162,2.162,0,0,0,.848,1.558,4.469,4.469,0,0,0,3.453.514h0a4.478,4.478,0,0,0,3.075-1.654,2.163,2.163,0,0,0,.271-1.748C88.021,160.716,84.97,155.256,82.46,150.944Z" fill="#231815"/>
            <path d="M84.589,188.1a21.206,21.206,0,0,1-2.157-.108,17.629,17.629,0,0,1-8.4-2.994,13.415,13.415,0,0,1-5.472-7.075,6.82,6.82,0,0,1-.2-1.138,5.4,5.4,0,0,1,4.26-5.806l25.863-4.52a5.388,5.388,0,0,1,6,4.011,6.814,6.814,0,0,1,.2,1.127,13.43,13.43,0,0,1-2.736,8.527,17.534,17.534,0,0,1-6.9,5.665,23.65,23.65,0,0,1-6.147,1.924l-.013,0A25.029,25.029,0,0,1,84.589,188.1ZM99.177,168.41a3.322,3.322,0,0,0-.393.021L73,172.937a3.4,3.4,0,0,0-2.648,3.686,4.806,4.806,0,0,0,.139.786,11.441,11.441,0,0,0,4.67,5.936A15.67,15.67,0,0,0,82.632,186a21.551,21.551,0,0,0,5.906-.258l.023,0,.013,0a21.532,21.532,0,0,0,5.606-1.753,15.566,15.566,0,0,0,6.137-5.023,11.381,11.381,0,0,0,2.373-7.181,4.848,4.848,0,0,0-.137-.786A3.316,3.316,0,0,0,99.177,168.41Z" fill="#231815"/>
            <path d="M69.7,178.642l-.332-1.973.013,0,34.137-5.964a1.018,1.018,0,0,1,1.169.806.988.988,0,0,1-.788,1.158Z" fill="#231815"/>
            <path d="M86.6,175.672a1,1,0,0,1-.984-.828l-.869-4.976a1,1,0,1,1,1.97-.344l.869,4.976a1,1,0,0,1-.813,1.157A1.02,1.02,0,0,1,86.6,175.672Z" fill="#231815"/>
            <path d="M80.564,176.728a1,1,0,0,1-.984-.829l-.869-4.976a1,1,0,1,1,1.97-.344l.87,4.977a1,1,0,0,1-.813,1.157A1.04,1.04,0,0,1,80.564,176.728Z" fill="#231815"/>
            <path d="M74.525,177.782a1,1,0,0,1-.984-.828l-.87-4.975a1,1,0,1,1,1.971-.344l.869,4.975a1,1,0,0,1-.813,1.158A1.131,1.131,0,0,1,74.525,177.782Z" fill="#231815"/>
            <path d="M92.643,174.617a1,1,0,0,1-.984-.828l-.869-4.976a1,1,0,1,1,1.97-.343l.869,4.975a1,1,0,0,1-.812,1.158A1.154,1.154,0,0,1,92.643,174.617Z" fill="#231815"/>
            <path d="M88.709,187.725a1,1,0,0,1-.984-.829l-.851-4.871a1,1,0,1,1,1.971-.343l.851,4.871a1,1,0,0,1-.813,1.157A1.031,1.031,0,0,1,88.709,187.725Z" fill="#231815"/>
            <path d="M82.532,187.992a1,1,0,0,1-.984-.828l-.713-4.083a1,1,0,1,1,1.97-.344l.713,4.083a1,1,0,0,1-.813,1.158A1.131,1.131,0,0,1,82.532,187.992Z" fill="#231815"/>
            <path d="M94.611,185.882a1,1,0,0,1-.984-.828l-.713-4.083a1,1,0,1,1,1.97-.344l.714,4.083a1,1,0,0,1-.813,1.157A1.04,1.04,0,0,1,94.611,185.882Z" fill="#231815"/>
            <path d="M98.7,173.56a1,1,0,0,1-.984-.829l-.869-4.975a1,1,0,1,1,1.97-.344l.869,4.976a1,1,0,0,1-.813,1.157A1.02,1.02,0,0,1,98.7,173.56Z" fill="#231815"/>
            <path d="M74.6,185.171a1,1,0,0,1-.171-1.985l26.534-4.636a1,1,0,0,1,.344,1.971l-26.534,4.635A1.02,1.02,0,0,1,74.6,185.171Z" fill="#231815"/>
            <path d="M74.03,200.653a1,1,0,0,1-.48-1.878c.112-.06,11.151-6.139,14.263-12.491a1,1,0,0,1,1.8.881c-3.393,6.924-14.624,13.106-15.1,13.366A.994.994,0,0,1,74.03,200.653Z" fill="#231815"/>
            <path d="M106.92,194.908a1.021,1.021,0,0,1-.155-.012c-.536-.083-13.2-2.091-18.749-7.452a1,1,0,0,1,1.389-1.439c5.1,4.925,17.541,6.9,17.666,6.915a1,1,0,0,1-.151,1.988Z" fill="#231815"/>
            <path d="M63.158,160.994a11.291,11.291,0,1,1,1.964-.171A11.363,11.363,0,0,1,63.158,160.994Zm.044-20.517a9.331,9.331,0,0,0-1.61.14,9.279,9.279,0,0,0-7.53,10.719A9.256,9.256,0,1,0,72.3,148.149h0a9.26,9.26,0,0,0-9.095-7.672Z" fill="#231815"/>
            <path d="M63.167,155.875a6.169,6.169,0,1,1,1.074-.094A6.211,6.211,0,0,1,63.167,155.875Zm.021-10.266a4.135,4.135,0,1,0,4.068,3.421A4.124,4.124,0,0,0,63.188,145.609Z" fill="#231815"/>
            <path d="M58.414,141.388a1,1,0,0,1-.878-.52l-1.887-3.445a1,1,0,1,1,1.754-.961l1.887,3.445a1,1,0,0,1-.4,1.358A.988.988,0,0,1,58.414,141.388Z" fill="#231815"/>
            <path d="M54.12,144.848l-3.564-2.458a1,1,0,1,1,1.135-1.647l3.553,2.45Z" fill="#231815"/>
            <path d="M65.36,140.566a1,1,0,0,1-.989-1.153l.605-3.894a1,1,0,1,1,1.976.306l-.605,3.9A1,1,0,0,1,65.36,140.566Z" fill="#231815"/>
            <path d="M70.093,142.729a1,1,0,0,1-.814-1.58L71.8,137.61a1,1,0,1,1,1.629,1.161l-2.521,3.539A1,1,0,0,1,70.093,142.729Z" fill="#231815"/>
            <path d="M100.087,154.545a11.268,11.268,0,0,1-11.076-9.316h0a11.256,11.256,0,1,1,13.017,9.147A11.348,11.348,0,0,1,100.087,154.545Zm-9.106-9.659a9.256,9.256,0,1,0,14.586-9.055,9.25,9.25,0,0,0-14.586,9.055Z" fill="#231815"/>
            <path d="M100.075,149.428a6.128,6.128,0,0,1-6.022-5.078h0a6.138,6.138,0,0,1,12.092-2.113,6.137,6.137,0,0,1-5,7.1A6.3,6.3,0,0,1,100.075,149.428Zm-4.052-5.422a4.138,4.138,0,1,0,3.358-4.781,4.1,4.1,0,0,0-3.358,4.781Z" fill="#231815"/>
            <path d="M101.413,133.876a1.025,1.025,0,0,1-.156-.012,1,1,0,0,1-.834-1.142l.608-3.881a1,1,0,0,1,1.976.308l-.607,3.881A1,1,0,0,1,101.413,133.876Z" fill="#231815"/>
            <path d="M106.145,136.028a1,1,0,0,1-.817-1.564l2.528-3.532a1,1,0,1,1,1.626,1.164L106.97,135.6A1.014,1.014,0,0,1,106.145,136.028Z" fill="#231815"/>
            <path d="M94.6,135.458a1,1,0,0,1-.878-.52l-1.89-3.459a1,1,0,1,1,1.755-.958l1.89,3.458a1,1,0,0,1-.877,1.479Z" fill="#231815"/>
            <path d="M90.876,139.1a1,1,0,0,1-.568-.178l-3.571-2.475a1,1,0,1,1,1.139-1.644l3.571,2.474a1,1,0,0,1-.571,1.823Z" fill="#231815"/>
            <path d="M87.547,122.213a1,1,0,0,1-.983-.828c-.448-2.566-.108-7.1,4.006-7.818a4.889,4.889,0,0,1,5.236,2.721,10.877,10.877,0,0,1,1.2,3.274,1,1,0,1,1-1.97.343,8.88,8.88,0,0,0-.956-2.614c-.816-1.408-1.849-1.982-3.162-1.753-3.2.56-2.415,5.3-2.38,5.5a1,1,0,0,1-.813,1.157A1.031,1.031,0,0,1,87.547,122.213Z" fill="#231815"/>
            <path d="M58.926,127.213a1,1,0,0,1-.984-.828c-.448-2.566-.107-7.1,4.006-7.818s5.982,3.43,6.432,5.994a1,1,0,1,1-1.969.345c-.036-.2-.9-4.93-4.119-4.368-3.2.56-2.415,5.3-2.38,5.5A1,1,0,0,1,59.1,127.2,1.02,1.02,0,0,1,58.926,127.213Z" fill="#231815"/>
            <path d="M27.636,85.107a1,1,0,0,1-.414-.089C26.5,84.688,9.4,76.817.25,66.435A1,1,0,0,1,.187,65.19C.274,65.069,8.995,52.934,20.2,39.406,35.275,21.219,47.439,9.3,56.357,3.972a1.02,1.02,0,0,1,.35-.156,1,1,0,0,1,.8,1.791c-.03.022-.061.042-.092.061h0C37.9,17.3,6.5,59.907,2.285,65.705c9.008,9.782,25.6,17.415,25.767,17.492a1,1,0,0,1-.416,1.91Z" fill="#231815"/>
            <path d="M111.376,70.479a1,1,0,0,1-.7-1.714c.133-.131,13.154-12.944,18.31-25.194C123.052,39.547,79.07,10.1,56.766,5.782h0c-.037-.008-.074-.016-.11-.027A1,1,0,0,1,56.782,3.8a1.037,1.037,0,0,1,.411.025c10.2,1.987,25.678,9.079,46.019,21.077,15.132,8.926,27.451,17.387,27.574,17.471a1,1,0,0,1,.363,1.191c-5.087,12.87-18.506,26.072-19.074,26.627A.994.994,0,0,1,111.376,70.479Z" fill="#231815"/>
          </g>
        </g>
        <g clip-path="url(#clip-path)">
          <circle cx="115.289" cy="81.095" r="14.05" fill="#fff"/>
          <circle cx="115.289" cy="81.095" r="9.467" fill="#97d2ce"/>
          <path d="M115.256,96.149a15.057,15.057,0,0,1-14.793-12.464h0a15.05,15.05,0,1,1,17.416,12.236A15.34,15.34,0,0,1,115.256,96.149ZM102.433,83.341a13.05,13.05,0,1,0,10.61-15.1,12.965,12.965,0,0,0-10.61,15.1Z" fill="#231815"/>
          <path d="M115.284,91.563A10.483,10.483,0,0,1,104.978,82.9h0a10.461,10.461,0,1,1,10.306,8.667Zm-8.336-9.01a8.467,8.467,0,1,0,6.884-9.8,8.475,8.475,0,0,0-6.884,9.8Z" fill="#231815"/>
          <circle cx="115.289" cy="81.095" r="4.455" fill="#231815"/>
        </g>
        <g>
          <path d="M61.957,36.143l.061.541c.357-.119.714-.221,1.071-.31s.708-.162,1.052-.222a6.744,6.744,0,0,1,4.371.415,3.945,3.945,0,0,1,2.03,3,4.286,4.286,0,0,1-1.025,3.7,6.183,6.183,0,0,1-3.762,2.027.787.787,0,0,1-.587-.093,4.818,4.818,0,0,1-.545-.431c-.122-.117-.261-.238-.414-.362s-.331-.253-.529-.386a6.644,6.644,0,0,1-.709.542,1.648,1.648,0,0,1-.574.25.477.477,0,0,1-.37-.079,1.364,1.364,0,0,1-.34-.4,5.844,5.844,0,0,1-1.143.794,4.14,4.14,0,0,1-1.209.415,1.435,1.435,0,0,1-2.006-1.361c-.094-.081-.182-.161-.266-.239s-.167-.157-.249-.24q-.4-.384-.665-.683a1.273,1.273,0,0,1-.327-.633,2.953,2.953,0,0,1,.7-2.235,8.54,8.54,0,0,1,2.806-2.294l-.162-.931-2.129.6a3.442,3.442,0,0,1-1.416.032.754.754,0,0,1-.582-.619,1.006,1.006,0,0,1,.02-.392,2.767,2.767,0,0,1,.172-.494q.127-.292.31-.622c.123-.222.258-.47.407-.748a1.723,1.723,0,0,0,.428.1,1.528,1.528,0,0,0,.433-.014.633.633,0,0,0,.114-.028.842.842,0,0,1,.106-.025l1.675-.439a1.088,1.088,0,0,0-.373-.63,1.3,1.3,0,0,0-.747-.211c.243-.253.471-.48.684-.684s.409-.385.59-.545a5.3,5.3,0,0,1,.483-.358,1.27,1.27,0,0,1,.447-.18,2.524,2.524,0,0,1,1.435.172q.693.293.76.673a.844.844,0,0,1-.049.37q-.073.234-.16.611L63.71,33a2.209,2.209,0,0,0,.792-.311,1.645,1.645,0,0,0,.513-.546,6.3,6.3,0,0,1,2.356.456,1.615,1.615,0,0,1,.971,1.2,1.007,1.007,0,0,1-.225.891,1.677,1.677,0,0,1-.992.474,3.946,3.946,0,0,1-.737.047q-.416-.008-.915-.059Zm-1.5,5.889c-.13-.29-.248-.587-.355-.894s-.206-.62-.3-.943a5.931,5.931,0,0,0-1.25,1.371,1.474,1.474,0,0,0-.312.975.365.365,0,0,0,.2.284.781.781,0,0,0,.471.029,2.25,2.25,0,0,0,.616-.253A10.47,10.47,0,0,0,60.456,42.032Zm3.161-3.315-.153-.389c-.21.057-.407.115-.591.176s-.358.126-.52.194a6.884,6.884,0,0,0,.171.739c.071.249.159.507.262.775a3.765,3.765,0,0,0,.376-.439,3.593,3.593,0,0,0,.339-.553.967.967,0,0,0,.107-.261A.6.6,0,0,0,63.617,38.717Zm.2,3.511.269.429.346-.029c.119-.011.237-.026.351-.047a3.414,3.414,0,0,0,2.042-1.024,2.033,2.033,0,0,0,.531-1.782,1.7,1.7,0,0,0-.746-1.145,3.057,3.057,0,0,0-1.667-.461,5.284,5.284,0,0,1,.513.587,1.275,1.275,0,0,1,.242.534,1.809,1.809,0,0,1-.4,1.3A10.113,10.113,0,0,1,63.816,42.228Z" fill="#231815"/>
          <path d="M60.474,50.084l-.1-.581a1.443,1.443,0,0,0-.228-.656c-.1-.109-.307-.118-.636-.031a7.009,7.009,0,0,1,1.032-1.354,1.953,1.953,0,0,1,1.038-.6,3.225,3.225,0,0,1,1.576.111c.477.146.735.332.774.555a1.2,1.2,0,0,1-.088.536,3.063,3.063,0,0,0-.129.883,5.512,5.512,0,0,0,.918-.459A1.016,1.016,0,0,0,65.035,48a12.245,12.245,0,0,1,1.888.154,1.019,1.019,0,0,1,.849.935,1.11,1.11,0,0,1-.188.86,2.262,2.262,0,0,1-.879.685q-.777.4-1.554.723t-1.541.6a46.594,46.594,0,0,1-.627,7.2q-.469,1.917-1.808,2.15A1.067,1.067,0,0,1,60.2,61a2.434,2.434,0,0,1-.61-1.406l-.269-1.542q.439-.245.732-1.48A28.066,28.066,0,0,0,60.5,52.98l-1.378.342a2.469,2.469,0,0,1-1.28-.06.776.776,0,0,1-.534-.583,1.352,1.352,0,0,1,.127-.705q.174-.431.486-1.069c.046-.125.1-.256.164-.392s.133-.281.208-.431a.584.584,0,0,0,.346.356,1.286,1.286,0,0,0,.624.01Zm9.9,3.092-.717.156a5.446,5.446,0,0,0-2.133,1.3q-.791.813-.687,1.4.06.349.618.491A3.871,3.871,0,0,0,69,56.5a8.7,8.7,0,0,0,1.379-.34,2.209,2.209,0,0,0,.725-.4,4.031,4.031,0,0,1,1.96.321A1.5,1.5,0,0,1,73.92,57.2a1.284,1.284,0,0,1-.681,1.386,7.061,7.061,0,0,1-2.587.835,7.2,7.2,0,0,1-3.7-.129,2.3,2.3,0,0,1-1.583-1.8,3.287,3.287,0,0,1,.611-2.46,8.152,8.152,0,0,1,2.7-2.317,2.014,2.014,0,0,0-.8-.3,3.209,3.209,0,0,0-.979.037,5.737,5.737,0,0,0-1.013.281,10.3,10.3,0,0,0-1.087.485,10.857,10.857,0,0,1,2.155-2.319,5.169,5.169,0,0,1,2.258-1.047,3.765,3.765,0,0,1,2.272.2,1.827,1.827,0,0,1,1.1,1.409,1.381,1.381,0,0,1-.188,1.058,1.317,1.317,0,0,1-.9.537,3.251,3.251,0,0,1-.483.042A4.434,4.434,0,0,0,70.373,53.176Z" fill="#231815"/>
          <path d="M67.178,68.69l.284,1.242a1.558,1.558,0,0,1-.228,1.234,1.582,1.582,0,0,1-1.049.608,2.482,2.482,0,0,1-1.971-.553,3.2,3.2,0,0,1-1.209-2.1,8.416,8.416,0,0,1,.177-2.865,5.282,5.282,0,0,0,.164-1.626.813.813,0,0,0-.3-.526,1.05,1.05,0,0,0-.655-.189,6.769,6.769,0,0,1,1.035-.9,2.44,2.44,0,0,1,.934-.417,1.871,1.871,0,0,1,1.362.312,1.67,1.67,0,0,1,.8,1.147,1.837,1.837,0,0,1-.078.984,7.52,7.52,0,0,1-.448.95c-.123.232-.231.442-.324.632s-.174.358-.239.5a2.114,2.114,0,0,0-.136.428.929.929,0,0,0-.008.343.743.743,0,0,0,.253.455.47.47,0,0,0,.384.139.516.516,0,0,0,.3-.2,1.588,1.588,0,0,0,.251-.524,9.023,9.023,0,0,1,1.483-3.23,3.585,3.585,0,0,1,2.205-1.376,2.611,2.611,0,0,1,2.508.99,7.713,7.713,0,0,1,1.619,3.886,6.486,6.486,0,0,1-.947,5.261,6.894,6.894,0,0,1-4.492,2.5,3.42,3.42,0,0,1-1.269.049,2,2,0,0,1-.906-.582.307.307,0,0,1-.071-.069.729.729,0,0,0-.074-.084c-.132-.144-.319-.33-.558-.554a4.237,4.237,0,0,0-1.044-.67c.343-.008.66-.026.952-.051s.555-.059.791-.1a5.826,5.826,0,0,0,3.563-1.762,4.627,4.627,0,0,0,.687-3.933,6.266,6.266,0,0,0-.774-2.351,1.082,1.082,0,0,0-1.113-.559,1.913,1.913,0,0,0-1.209.825A3.635,3.635,0,0,0,67.14,67.8c-.006.159-.007.314,0,.466A2.71,2.71,0,0,0,67.178,68.69Z" fill="#231815"/>
          <path d="M63.417,81.5l-.392.13a3.528,3.528,0,0,1,.8-1.611,2.213,2.213,0,0,1,1.251-.729,1.291,1.291,0,0,1,1.115.327,4.484,4.484,0,0,1,.924,1.413,6.843,6.843,0,0,1,.905-.561q.475-.249,1.006-.464a1.823,1.823,0,0,0-.405-1.034.994.994,0,0,0-.942-.135,6.215,6.215,0,0,1,1.133-1.266,2.466,2.466,0,0,1,1.129-.557,1.82,1.82,0,0,1,1.249.195,1.4,1.4,0,0,1,.685,1.041l.13.936a6,6,0,0,1,4.255.965,5.411,5.411,0,0,1,2.125,3.64,5.606,5.606,0,0,1-.2,2.923A5.773,5.773,0,0,1,76.5,89.093a6.822,6.822,0,0,1-3.1,1.531,2.084,2.084,0,0,1-1.126-.054,1.517,1.517,0,0,1-.727-.628.316.316,0,0,1-.067-.088c-.017-.033-.034-.069-.052-.106a5.342,5.342,0,0,0-.322-.512,1.979,1.979,0,0,0-.639-.534A7.319,7.319,0,0,1,69,90.277a3.291,3.291,0,0,1-1.36.646,1.75,1.75,0,0,1-.917-.067,1.681,1.681,0,0,1-.73-.544,2.507,2.507,0,0,1-.313-.555,2.951,2.951,0,0,0-.47-.736,7.686,7.686,0,0,1-1.282-.99,1.905,1.905,0,0,1-.553-.985,3.558,3.558,0,0,1,.249-1.871,8.187,8.187,0,0,1,1.363-2.22,7.5,7.5,0,0,0-.809-1.148A.87.87,0,0,0,63.417,81.5Zm2.876,3.29a3.292,3.292,0,0,0-.459,1.124,3.109,3.109,0,0,0-.009,1.138,1.782,1.782,0,0,0,.464.965.809.809,0,0,0,.672.257,1,1,0,0,0,.527-.422,6.686,6.686,0,0,0,.673-1.139,7.853,7.853,0,0,1-.989-.86A8.763,8.763,0,0,1,66.293,84.793ZM69.3,82.271a5.871,5.871,0,0,0-.656.31c-.211.117-.427.24-.646.37a5.961,5.961,0,0,0,.562.87,3.9,3.9,0,0,0,.642.648q.07-.573.1-1.124A7.681,7.681,0,0,0,69.3,82.271Zm1.742,5.508-.229.385.755-.132a4.764,4.764,0,0,0,2.933-1.422,3.142,3.142,0,0,0-.375-4.326,3.12,3.12,0,0,0-1.989-.73,17.9,17.9,0,0,1-.024,2.283,14.914,14.914,0,0,1-.277,1.954,1.755,1.755,0,0,1,.314.052.155.155,0,0,1,.116.134,1.893,1.893,0,0,1-.2,1.2q-.282.572-.6.627Z" fill="#231815"/>
        </g>
        <path d="M155.833,237.951a6.177,6.177,0,0,1-4.986-2.884c-2.905-4.344-3.743-10.156-2.426-16.8a9.014,9.014,0,0,0-2.629-8.705,12.985,12.985,0,0,0-11.124-3.223,1,1,0,0,1-.488-1.94,14.923,14.923,0,0,1,12.99,3.713,10.93,10.93,0,0,1,3.213,10.543c-1.2,6.03-.44,11.465,2.128,15.305,1.058,1.588,2.9,2.37,4.274,1.815,1.654-.661,2.3-3.034,1.717-6.348-.685-3.924,1.042-6.886,2.712-9.751,2.373-4.068,4.826-8.274,1.645-16.167-2.873-7.136-17.685-11.993-17.834-12.042-11.576-4.269-11.611-11.9-11.675-25.757-.019-4.146-.04-8.845-.348-14.29-.135-2.611-.359-5.445-.664-8.43-.318-2.933-.675-5.656-1.091-8.319a209.462,209.462,0,0,0-10.364-39.506c-3.249-9-6.753-17.5-10.412-25.256C85.257,16.274,57.784,6.149,56.627,5.745a1,1,0,0,1,.66-1.889c1.189.416,29.427,10.816,54.994,65.2,3.685,7.813,7.213,16.37,10.483,25.428a211.342,211.342,0,0,1,10.459,39.879c.421,2.692.781,5.446,1.1,8.417.31,3.023.536,5.891.673,8.531.31,5.492.332,10.218.351,14.388.064,13.8.093,20.1,10.328,23.877.607.2,15.815,5.182,19.036,13.185,3.547,8.8.721,13.647-1.772,17.922-1.625,2.788-3.03,5.195-2.47,8.4.754,4.315-.346,7.511-2.944,8.55A4.545,4.545,0,0,1,155.833,237.951Z" fill="#231815"/>
        <g clip-path="url(#clip-path-2)">
          <circle cx="29.389" cy="96.101" r="14.05" fill="#fff"/>
          <circle cx="29.389" cy="96.101" r="9.467" fill="#97d2ce"/>
          <path d="M29.382,111.153a15.053,15.053,0,1,1,2.6-.225A15.074,15.074,0,0,1,29.382,111.153Zm.035-28.105a13.167,13.167,0,0,0-2.274.2,13.05,13.05,0,1,0,15.1,10.609h0A13.057,13.057,0,0,0,29.417,83.048Z" fill="#231815"/>
          <path d="M29.384,106.569A10.468,10.468,0,1,1,39.7,94.3h0a10.471,10.471,0,0,1-10.315,12.269Zm.024-18.936a8.574,8.574,0,0,0-1.476.129,8.466,8.466,0,1,0,9.8,6.882h0a8.472,8.472,0,0,0-8.321-7.011Z" fill="#231815"/>
          <circle cx="29.389" cy="96.101" r="4.455" fill="#231815"/>
        </g>
        <path d="M51.261,256.626a4.5,4.5,0,0,1-1.418-.222c-2.5-.82-3.969-3.643-4.38-8.39-.441-5.1-1.912-6.081-4.349-7.7-2.342-1.559-5.258-3.5-8.28-9.447-6.439-12.7,4.1-20.694,4.207-20.773,8.265-6.953,6.047-13.057,1.186-26.43-1.523-4.19-3.249-8.939-4.953-14.583-.84-2.784-1.583-5.481-2.271-8.245-.666-2.69-1.286-5.48-1.843-8.291a208.293,208.293,0,0,1-3.76-41.051c.005-9.629.423-18.874,1.241-27.479C32.255,24.2,55.3,4.829,56.273,4.034a1,1,0,1,1,1.262,1.551c-.951.774-23.367,19.632-28.9,78.616-.812,8.544-1.227,17.726-1.232,27.292a206.342,206.342,0,0,0,3.722,40.66c.55,2.782,1.164,5.539,1.822,8.2.68,2.73,1.414,5.4,2.245,8.148,1.688,5.591,3.4,10.312,4.918,14.478,4.872,13.406,7.557,20.792-1.828,28.682-.429.321-9.324,7.129-3.661,18.3,2.783,5.478,5.456,7.257,7.6,8.686,2.631,1.75,4.709,3.133,5.234,9.2.325,3.764,1.395,6.131,3.012,6.662,1.668.552,3.818-.782,5.109-2.249,2.59-2.928,3.539-9.327.2-15.423-.315-.578-.641-1.156-.967-1.732-2.126-3.763-4.324-7.654-2.929-10.98.944-2.251,3.383-3.877,7.455-4.97a1,1,0,0,1,.519,1.932c-3.388.909-5.45,2.191-6.13,3.812-1.016,2.422.851,5.725,2.827,9.222.33.585.661,1.171.981,1.757,3.775,6.9,2.583,14.269-.456,17.7A8.391,8.391,0,0,1,51.261,256.626Z" fill="#231815"/>
      </g>
      <g>
        <polygon points="383.077 15.613 325.817 1 270.835 14.912 243.83 77.182 247.817 157.247 227.436 165.665 214.248 146.965 173.456 173.271 210.487 167 222.845 187.761 248.932 179.65 250.582 212.792 304.582 259.792 368.36 245.635 402.804 206 407.804 76.481 383.077 15.613" fill="#fff"/>
        <path d="M304.582,260.792a1,1,0,0,1-.657-.246l-54-47a1,1,0,0,1-.341-.7L248,180.987l-24.855,7.729a1,1,0,0,1-1.156-.444L209.978,168.1l-36.355,6.157a1,1,0,0,1-.709-1.827l40.792-26.307a1,1,0,0,1,1.359.265l12.728,18.047,18.99-7.844-3.951-79.361a1,1,0,0,1,.081-.447l27-62.27a1,1,0,0,1,.672-.573L325.572.03a1,1,0,0,1,.492,0l57.26,14.613a1,1,0,0,1,.68.592L408.73,76.105a1,1,0,0,1,.072.415l-5,129.519a.99.99,0,0,1-.244.617l-34.443,39.635a1.009,1.009,0,0,1-.538.32L304.8,260.769A1.067,1.067,0,0,1,304.582,260.792ZM251.56,212.317l53.3,46.389,62.963-13.976,34-39.121L406.8,76.658l-24.455-60.2L325.816,2.032,271.556,15.76,244.84,77.365l3.975,79.832a1,1,0,0,1-.617.974l-20.38,8.418a1,1,0,0,1-1.2-.348l-12.635-17.916-35.893,23.148,32.229-5.459a1.012,1.012,0,0,1,1.026.474L223.3,186.571l25.334-7.877a1,1,0,0,1,1.3.906Z" fill="#231815"/>
      </g>
      <g>
        <path d="M359.383,65.925a19.079,19.079,0,0,0,6.941,5.221,11.328,11.328,0,0,0-1.8,2.121,21.465,21.465,0,0,1-6.442-5.6v6.562h-2.541v-6.4a21.593,21.593,0,0,1-6.421,5.562,11.648,11.648,0,0,0-1.761-2.1,19.95,19.95,0,0,0,7.022-5.361h-5.361V63.584h6.521v-2.62H348.12V58.583h7.422v-3.04h2.541v3.04h7.581v2.381h-7.581v2.62h6.661v2.341Z"/>
        <path d="M365.244,90.125a33.591,33.591,0,0,1-3.68,2.261,13.187,13.187,0,0,0,4.661,1.72,10.506,10.506,0,0,0-1.5,2.141,11.756,11.756,0,0,1-8.843-7.2h-2.3v4.241c1.4-.2,2.88-.42,4.32-.64l.1,2.1c-3.061.5-6.361,1-8.782,1.36l-.54-2.18c.719-.08,1.54-.2,2.44-.3V89.045h-3.3v-2.1h3.322V78.223h12.622v1.94H353.582v1.061H363.2v1.839h-9.622v1H363.2V85.9h-9.622v1.04h12.263v2.1H363.7Zm-6.882-1.08a9.558,9.558,0,0,0,1.581,2.081A28.047,28.047,0,0,0,363,89.045Z"/>
        <path d="M351.942,103.1c-.02,1.24,0,2.7.12,4.1.28,2.781.839,4.682,2.06,4.682.941,0,1.7-2.261,2.04-3.8l1.981,2.36c-1.3,3.381-2.5,4.561-4.081,4.561-2.1,0-3.961-1.9-4.521-7.121-.18-1.781-.22-4.041-.22-5.241a13.544,13.544,0,0,0-.12-1.96l2.981.04A15.086,15.086,0,0,0,351.942,103.1Zm13.462,7.961-2.56.981c-.3-3.141-1.32-7.682-3.441-10.082l2.46-.82C363.7,103.4,365.2,108.085,365.4,111.065Z"/>
        <path d="M352.562,129.285a7.867,7.867,0,0,0-.321,1.961c0,1.22,1.16,2.14,3.961,2.14a27.014,27.014,0,0,0,6.822-.78l.02,2.76a31.833,31.833,0,0,1-6.741.641c-4.461,0-6.662-1.481-6.662-4.141a12.428,12.428,0,0,1,.36-2.8ZM362.384,119c.5.721,1.18,1.961,1.56,2.681l-1.581.68c-.16-.32-.339-.68-.54-1.06v2.341c-1.36.1-3.76.239-5.6.239-2.041,0-3.721-.1-5.3-.22v-2.6a49.189,49.189,0,0,0,5.281.241c1.861,0,3.982-.12,5.482-.26a12.082,12.082,0,0,0-.861-1.4Zm2.32-.88a29.973,29.973,0,0,1,1.58,2.66l-1.559.681a22.7,22.7,0,0,0-1.561-2.7Z"/>
        <path d="M362.564,153.206a10.067,10.067,0,0,1-3.161,3.061,34.968,34.968,0,0,0,6.562.879,9.755,9.755,0,0,0-1.36,2.122,27.663,27.663,0,0,1-7.823-1.7,30.984,30.984,0,0,1-7.7,1.721,9.666,9.666,0,0,0-1.221-1.96,33.032,33.032,0,0,0,6.5-1.02,11.332,11.332,0,0,1-1.8-1.4,22.865,22.865,0,0,1-2.661,1.261,15.284,15.284,0,0,0-1.64-1.581,14.808,14.808,0,0,0,6.061-3.341c-.88-.239-1.12-.84-1.12-1.98v-1.38h2.18v1.38c0,.461.141.5.8.5h2.1c.5,0,.64-.12.7-.941a6.288,6.288,0,0,0,1.82.62c-.221,1.54-.78,1.96-2.261,1.96H356.7l.12.04a10.528,10.528,0,0,1-.78.881h4.642l.4-.06Zm-12.023-4.381H348.28v-3.64h3.442a10.851,10.851,0,0,0-1.021-1.721l.22-.1c-.54.02-1.08.04-1.62.04a6.235,6.235,0,0,0-.46-1.72,94.741,94.741,0,0,0,14-1.141l1.58,1.581c-.8.159-1.64.3-2.561.439l1.8.561c-.5.72-1.02,1.44-1.5,2.061h3.22v3.92h-1.92a8.839,8.839,0,0,1,1.28,1.44l-1.7,1.28a15.132,15.132,0,0,0-3.06-3.2l1.6-1.12c.461.34.961.76,1.441,1.18v-1.68h-5.441a7.9,7.9,0,0,1,1.36.88l-1.2,1.32a11.884,11.884,0,0,0-2.84-1.721l.44-.479h-4.8Zm-1.7,1.861a6.276,6.276,0,0,0,2.54-2.821l1.781.76a7.478,7.478,0,0,1-2.68,3.4Zm7.182-5.5a8.949,8.949,0,0,0-.92-2l-2.041.12a5.836,5.836,0,0,1,.86,1.62l-.6.261Zm-1.7,8.781a10.325,10.325,0,0,0,2.5,1.461,9.956,9.956,0,0,0,2.281-1.461Zm5.5-8.781a20.588,20.588,0,0,0,1.38-2.541c-1.219.16-2.52.28-3.86.4a6.965,6.965,0,0,1,.8,1.74l-1.061.4Z"/>
        <path d="M357.343,179.526a10.221,10.221,0,0,0,2.42-2.12l1.881,1.12a13.147,13.147,0,0,1-3.461,2.761c-.281-.3-.72-.72-1.12-1.08h-4.482v.8h-1.66v-5.481l-.04.04c-.14-.16-.38-.4-.62-.62a18.072,18.072,0,0,1-1.34,6.081,7.229,7.229,0,0,0-1.681-1.22c1.08-2.42,1.16-5.841,1.16-8.3v-5.161h8.523v4.421H354.9l1.26.34-.6,1.18h1.519v1.461h-1.8v.779H357v1.3h-1.721v.76H357v1.3h-1.721v.78h2.061Zm-.42-14.2h-9v-1.961h9Zm-6.542,6.181c0,.58,0,1.24-.04,1.921a10.8,10.8,0,0,0,1.221-2.661h-1.181Zm0-3.54v1.18H354.8v-1.18Zm2.881,2.98c-.14.44-.3.9-.481,1.34h1.1c.18-.5.36-1.06.48-1.52h-1.84Zm.52,2.8h-1.2v.779h1.2Zm0,2.08h-1.2v.76h1.2Zm-1.2,2.841h1.2v-.78h-1.2Zm7.862-12.043c.06-.42.1-.84.14-1.26h-2.94v-2H365.9v2h-2.961q-.18.66-.359,1.26h3v10.6h-7.541v-10.6Zm3.121,1.8h-3.58v1.22h3.58Zm0,2.88h-3.58v1.24h3.58Zm0,2.921h-3.58v1.22h3.58Zm.28,3.26a20.681,20.681,0,0,1,2.56,2.581l-1.78,1.2a20.994,20.994,0,0,0-2.46-2.721Z"/>
        <path d="M357.122,198.326c.061-.58.08-1.48.1-2.32-1.46.8-2.221,1.559-2.221,2.52,0,1.06.92,1.361,2.8,1.361a32.978,32.978,0,0,0,5.521-.54l-.08,2.5a52.391,52.391,0,0,1-5.5.32c-3.02,0-5.3-.74-5.3-3.241,0-2.46,2.36-4.04,4.541-5.181a1.509,1.509,0,0,0-1.34-.66,4.746,4.746,0,0,0-3.041,1.36c-.58.58-1.12,1.281-1.8,2.12l-2.06-1.56a19.132,19.132,0,0,0,4.241-5.32h-.22c-.78,0-2.2-.04-3.281-.141v-2.261a24.56,24.56,0,0,0,3.42.221h.941a10.279,10.279,0,0,0,.38-2.221l2.56.22c-.1.46-.24,1.141-.479,1.921a43.566,43.566,0,0,0,5.48-.58l-.019,2.28c-1.861.26-4.241.42-6.3.5a14.055,14.055,0,0,1-1.12,1.961,6.31,6.31,0,0,1,2.181-.381,2.692,2.692,0,0,1,2.6,1.5c1-.46,1.8-.8,2.6-1.16.76-.32,1.44-.66,2.16-1l.96,2.261c-.6.179-1.64.56-2.3.82-.86.32-1.98.76-3.161,1.32.02,1.08.06,2.481.08,3.381Z"/>
        <path d="M329.266,61.045c-.6.38-1.221.7-1.921,1.059a51.918,51.918,0,0,0-4.8,2.6c-1.62,1.061-2.7,2.181-2.7,3.521,0,1.38,1.34,2.121,4.04,2.121a31.84,31.84,0,0,0,6.342-.7l-.04,2.8a37.184,37.184,0,0,1-6.242.48c-3.861,0-6.781-1.08-6.781-4.421,0-2.141,1.34-3.721,3.221-5.1-.881-1.66-1.841-3.741-2.7-5.781l2.44-1a44.377,44.377,0,0,0,2.421,5.36c1.42-.839,2.82-1.519,3.7-2.04a10.433,10.433,0,0,0,1.8-1.18Zm.279-4.762a24.341,24.341,0,0,1,1.561,2.681l-1.561.66c-.42-.78-1.02-1.96-1.54-2.721Zm2.321-.9a22.737,22.737,0,0,1,1.58,2.679l-1.54.661a20.343,20.343,0,0,0-1.581-2.7Z"/>
        <path d="M324.925,85.324a16.811,16.811,0,0,0-5.041.96c-.561.16-1.32.481-1.881.66l-.74-2.76c.66-.06,1.5-.22,2.12-.34a26.314,26.314,0,0,1,5.861-.88c3.081,0,5.222,1.74,5.222,4.781,0,4.16-3.841,6.741-9.223,7.482l-1.4-2.421c4.82-.56,7.881-2.12,7.881-5.161C327.725,86.364,326.765,85.324,324.925,85.324Zm3.921-6.121-.381,2.38c-2.28-.14-6.5-.52-8.722-.92l.38-2.32A58.506,58.506,0,0,0,328.846,79.2Z"/>
        <path d="M320.5,100.184c.8,0,4.421-.18,5.621-.321a6.222,6.222,0,0,0,1.36-.239l1.52,1.8a18.058,18.058,0,0,0-1.52,1.06c-1.38,1.12-3.3,2.7-4.6,3.761,2.581-.28,5.781-.48,8.141-.48l.021,2.281a30.768,30.768,0,0,0-4.981.04c-1.781.26-3.261,1.519-3.261,3.1,0,1.519,1.2,2.139,2.921,2.32a19,19,0,0,0,2.961.059l-.5,2.541c-4.982.22-7.882-1.28-7.882-4.5a4.536,4.536,0,0,1,1.4-3.06c-1.761.14-3.921.439-5.861.78l-.24-2.361c1.04-.119,2.381-.3,3.4-.42a50.759,50.759,0,0,0,5.441-4.381c-.78.061-3.161.181-3.94.26-.5.04-1.141.1-1.741.18l-.119-2.5A18.2,18.2,0,0,0,320.5,100.184Zm9.762,4.641-1.5.66a13.238,13.238,0,0,0-1.3-2.381l1.46-.6A26.055,26.055,0,0,1,330.266,104.825Zm2.22-.921-1.461.66a13.765,13.765,0,0,0-1.379-2.3l1.44-.661A20.931,20.931,0,0,1,332.486,103.9Z"/>
        <path d="M330.285,136.667a15.266,15.266,0,0,0-4.28-3.041c.02.24.02.48.02.66,0,1.721-.88,3.36-4.122,3.36-2.759,0-5.06-.919-5.06-3.54,0-2.041,1.74-3.621,5.281-3.621a10.981,10.981,0,0,1,1.16.06c-.06-1.52-.12-3.181-.12-4.2,0-1.181-.02-2.322-.02-3.141a12.787,12.787,0,0,0-.22-2.261h2.921c-.08.56-.141,1.5-.18,2.261v1.4c1.54-.04,3.8-.12,5.421-.3l.1,2.32c-1.641.141-3.941.24-5.521.28.039,1.16.119,2.721.22,4.141a15.027,15.027,0,0,1,5.9,3.3Zm-6.921-3.881a8.149,8.149,0,0,0-1.58-.14c-1.52,0-2.421.5-2.421,1.34,0,.94.981,1.3,2.321,1.3,1.26,0,1.7-.54,1.7-1.84C323.384,133.266,323.384,133.046,323.364,132.786Z"/>
        <path d="M320.384,143.324c1.019,0,4.881-.06,6.161-.14a9.187,9.187,0,0,0,1.38-.22l1.32,1.72a8.688,8.688,0,0,0-1.08.64c-1.12.8-2.98,2.141-4.44,3.421a6.991,6.991,0,0,1,1.94-.28c3.4,0,5.761,1.98,5.761,4.681,0,3.76-3.141,6.341-10.162,5.761l-.7-2.52c5.2.679,8.2-.6,8.2-3.241,0-1.5-1.421-2.6-3.621-2.6-3.361,0-5.381,2.121-7.222,4.182l-1.82-1.921c2.36-2.16,7.041-6.062,8.561-7.442-1.059.02-3.221.16-4.14.22-.521.04-1.141.1-1.561.181l-.08-2.541A11.739,11.739,0,0,0,320.384,143.324Z"/>
        <path d="M321.664,163.124c-.12.82-.221,1.82-.261,2.581-.08,2.1-.219,6.441-.219,8.842a2.345,2.345,0,0,0,2.66,2.6c3.221,0,5.241-1.84,6.662-3.96l1.74,2.16a10.014,10.014,0,0,1-8.422,4.441c-3.18,0-5.22-1.4-5.22-4.7,0-2.6.179-7.7.179-9.382a13.224,13.224,0,0,0-.24-2.6Z"/>
        <path d="M328.705,185.7c-.6.46-1.26.98-1.7,1.32-1.261,1.02-3.8,2.981-5.1,4.1-1.04.88-1.019,1.1.04,1.98,1.441,1.241,5.182,4.2,7.1,6.041l-2.26,2.1c-.54-.641-1.14-1.24-1.7-1.8-1.059-1.12-4.02-3.64-5.8-5.14-1.921-1.641-1.76-2.7.18-4.3,1.5-1.24,4.161-3.4,5.481-4.682a11.948,11.948,0,0,0,1.5-1.639Z"/>
        <path d="M289.946,63.744a15.419,15.419,0,0,1,3.721-.5c2.961,0,5.321,1.581,5.321,4.261,0,2.281-1.2,4.021-4.26,4.781a15.426,15.426,0,0,1-2.561.3l-.9-2.5a14.789,14.789,0,0,0,2.4-.12c1.541-.28,2.8-1.061,2.8-2.481,0-1.32-1.16-2.08-2.84-2.08a13.344,13.344,0,0,0-3.642.54c.04,1.54.081,3.021.081,3.7,0,2.4-.88,3.02-2.121,3.02-1.9,0-4.581-1.62-4.581-3.681,0-1.7,1.961-3.46,4.341-4.48-.019-.46-.019-.9-.019-1.341v-1.64c-.381.02-.741.04-1.041.04a23.646,23.646,0,0,1-2.68-.1l-.061-2.34a20.268,20.268,0,0,0,2.681.14c.34,0,.72-.021,1.12-.04v-1.58a14.882,14.882,0,0,0-.12-1.7h2.681c-.06.36-.14,1.18-.18,1.68L290.026,59a23.694,23.694,0,0,0,3.582-.7l.059,2.42c-1.1.24-2.44.46-3.7.6-.021.6-.021,1.18-.021,1.74Zm-2.139,5.462c0-.48-.021-1.36-.061-2.4-1.179.62-1.96,1.42-1.96,2.08,0,.62.88,1.16,1.4,1.16C287.526,70.046,287.807,69.866,287.807,69.206Zm8-11.163a46.115,46.115,0,0,1,4.761,2.721l-1.18,1.98a32.372,32.372,0,0,0-4.661-2.82Z"/>
        <path d="M289.767,88.525v5.081c0,.861-.12,1.341-.68,1.641a4.57,4.57,0,0,1-2.2.32,6.585,6.585,0,0,0-.58-1.78c.54.02,1.1.02,1.28.02.2,0,.261-.06.261-.241V88.525h-2.081V81.264h1.78c.061-.5.141-1.04.2-1.54h-2.74v5.681c0,3-.2,7.282-1.44,9.942a7.859,7.859,0,0,0-1.681-1.22c1.04-2.44,1.1-5.981,1.1-8.7V77.684h8.822v2.04h-1.8c-.16.54-.32,1.06-.481,1.54h2.341v7.261Zm-2.181,1.181a14.545,14.545,0,0,1-1.38,4.221,10.086,10.086,0,0,0-1.6-.88,10.35,10.35,0,0,0,1.22-3.7Zm2.4-6.8h-2.4v1.221h2.4Zm-2.4,3.961h2.4v-1.22h-2.4Zm3.4,6.161a21.306,21.306,0,0,0-1.06-3.2l1.5-.54a18.6,18.6,0,0,1,1.16,3.141Zm5.1-.12a13.836,13.836,0,0,1-3.681,2.7,16.772,16.772,0,0,0-1.48-1.44,10.524,10.524,0,0,0,3.3-2.4Zm-1.021-11.822c.081-.46.141-.94.181-1.4h-3.081v-2h8.483v2h-3.082c-.139.48-.28.96-.419,1.4h3.06V91.666h-7.5V81.084Zm3.062,1.74h-3.421V84.1h3.421Zm0,2.9h-3.421v1.28h3.421Zm0,2.921h-3.421v1.3h3.421Zm.279,3.14a24.414,24.414,0,0,1,2.721,2.581l-1.78,1.2a22.066,22.066,0,0,0-2.641-2.7Z"/>
        <path d="M286.626,102.464c-.019,1.24,0,2.7.12,4.1.28,2.782.84,4.682,2.061,4.682.94,0,1.7-2.261,2.04-3.8l1.98,2.361c-1.3,3.381-2.5,4.56-4.081,4.56-2.1,0-3.961-1.9-4.52-7.121-.18-1.78-.22-4.041-.22-5.241a13.687,13.687,0,0,0-.12-1.96l2.98.04A15.205,15.205,0,0,0,286.626,102.464Zm13.463,7.962-2.561.98c-.3-3.14-1.32-7.681-3.44-10.082l2.46-.82C298.389,102.764,299.889,107.445,300.089,110.426Z"/>
        <path d="M289.007,118.284c-.12.82-.221,1.82-.261,2.581-.08,2.1-.22,6.442-.22,8.842a2.347,2.347,0,0,0,2.661,2.6c3.22,0,5.241-1.841,6.662-3.961l1.74,2.16a10.014,10.014,0,0,1-8.422,4.441c-3.181,0-5.221-1.4-5.221-4.7,0-2.6.18-7.7.18-9.382a13.206,13.206,0,0,0-.24-2.6Z"/>
        <path d="M297.408,155.128a14.759,14.759,0,0,0-3.9-2.7c.019.26.019.5.019.7,0,1.66-1.259,2.94-3.82,2.94-3.1,0-4.741-1.179-4.741-3.22,0-1.981,1.8-3.361,4.8-3.361q.6,0,1.2.06c-.04-.58-.06-1.18-.08-1.74h-1c-1.141,0-3.381-.1-4.661-.26v-2.3a34.571,34.571,0,0,0,4.68.36h.941v-2h-.941a35.487,35.487,0,0,1-4.2-.3l-.02-2.22a25.331,25.331,0,0,0,4.2.38h.98v-.9a9.743,9.743,0,0,0-.1-1.3h2.64a12.075,12.075,0,0,0-.139,1.34l-.021.781a39.627,39.627,0,0,0,4.621-.481l.04,2.241c-1.28.12-2.82.28-4.68.38l-.021,2a51.535,51.535,0,0,0,5.161-.46l.021,2.3c-1.74.2-3.261.34-5.142.4.04.72.08,1.5.141,2.241a15.005,15.005,0,0,1,5.421,2.94Zm-6.361-3.482a10.6,10.6,0,0,0-1.6-.139c-1.36,0-2.12.519-2.12,1.18,0,.74.68,1.18,2.021,1.18,1.04,0,1.72-.28,1.72-1.4C291.067,152.267,291.067,151.986,291.047,151.646Z"/>
        <path d="M299.809,165.145c-1.16-.06-2.981-.121-5.6-.121.02.981.02,2.021.02,2.881a4.837,4.837,0,0,1,.72,2.681c0,2.56-1.5,5.722-6.221,7.042l-1.6-2.281a8.14,8.14,0,0,0,4.281-1.981,4.21,4.21,0,0,1-.9.1,3.384,3.384,0,0,1-3.32-3.541,3.668,3.668,0,0,1,3.86-3.641,4.932,4.932,0,0,1,.78.06l-.02-1.3c-2.941.04-5.961.16-8.342.3l-.06-2.361c2.2,0,5.742-.1,8.362-.139,0-.241-.02-.461-.02-.6a16.013,16.013,0,0,0-.2-1.681h2.82c-.04.321-.119,1.341-.119,1.662,0,.159-.02.359-.02.6,1.961,0,4.581-.019,5.621,0Zm-8.822,6.181c.82,0,1.52-.62,1.281-2.32a1.4,1.4,0,0,0-1.261-.681,1.466,1.466,0,0,0-1.481,1.541A1.43,1.43,0,0,0,290.987,171.326Z"/>
      </g>
    </g>
  </g>
</svg>
