<svg xmlns="http://www.w3.org/2000/svg" xmlns:xlink="http://www.w3.org/1999/xlink" width="765.3" height="309.922" viewBox="0 0 765.3 309.922">
  <defs>
    <clipPath id="clip-path">
      <rect x="442.346" y="133.479" width="17.789" height="28.047" fill="none"/>
    </clipPath>
    <clipPath id="clip-path-2">
      <polygon points="269.616 308.922 209.205 308.922 209.205 300.724 211.097 295.994 211.097 235.726 209.205 230.996 209.205 222.798 269.616 222.798 269.616 230.996 267.724 235.726 267.724 295.994 269.616 300.724 269.616 308.922" fill="none"/>
    </clipPath>
  </defs>
  <g id="レイヤー_2" data-name="レイヤー 2">
    <g id="レイヤー_1-2" data-name="レイヤー 1">
      <g>
        <polygon points="759.251 48.634 724.807 8.999 677.906 1.05 629.277 18.05 602.277 73.05 603.404 141.794 584.227 149.715 571.038 131.015 530.247 157.321 567.277 151.05 579.636 171.811 603.773 164.306 604.277 195.05 634.277 248.05 682.264 262.634 737.277 244.05 764.251 187.153 759.251 48.634" fill="#fff"/>
        <path d="M682.264,263.684a1.066,1.066,0,0,1-.306-.046l-47.986-14.584a1.052,1.052,0,0,1-.608-.487l-30-53a1.035,1.035,0,0,1-.136-.5l-.481-29.344-22.8,7.089a1.051,1.051,0,0,1-1.213-.465l-11.991-20.143-36.321,6.152a1.061,1.061,0,0,1-1.153-.656,1.048,1.048,0,0,1,.41-1.261l40.791-26.307a1.049,1.049,0,0,1,1.426.277L584.6,148.425l17.743-7.328-1.116-68.029a1.067,1.067,0,0,1,.107-.481l27-55a1.052,1.052,0,0,1,.6-.527L677.56.06a1.041,1.041,0,0,1,.522-.045l46.9,7.949a1.05,1.05,0,0,1,.617.347l34.444,39.634a1.059,1.059,0,0,1,.257.651l5,138.519a1.055,1.055,0,0,1-.1.488l-26.973,56.9a1.047,1.047,0,0,1-.613.545L682.6,263.628A1.053,1.053,0,0,1,682.264,263.684Zm-47.28-16.516,47.263,14.364L736.52,243.2l26.673-56.262L758.216,49.042,724.261,9.971,678,2.13,630.03,18.9l-26.7,54.386,1.122,68.492a1.047,1.047,0,0,1-.648.987l-19.178,7.921a1.049,1.049,0,0,1-1.258-.365l-12.608-17.877-35.65,22.991,31.992-5.419a1.046,1.046,0,0,1,1.076.5l11.935,20.05,23.348-7.259a1.04,1.04,0,0,1,.927.151,1.052,1.052,0,0,1,.433.833l.5,30.478Z" fill="#231815"/>
      </g>
      <g>
        <path d="M718.54,51.313a16.818,16.818,0,0,0-5.041.96c-.561.16-1.32.48-1.881.66l-.74-2.761c.66-.06,1.5-.22,2.12-.34a26.382,26.382,0,0,1,5.861-.88c3.081,0,5.222,1.741,5.222,4.782,0,4.16-3.841,6.741-9.223,7.481l-1.4-2.421c4.82-.559,7.881-2.12,7.881-5.161C721.34,52.353,720.38,51.313,718.54,51.313Zm3.921-6.121-.381,2.379c-2.28-.139-6.5-.519-8.722-.919l.38-2.321A58.511,58.511,0,0,0,722.461,45.192Z"/>
        <path d="M721,68.552a6.379,6.379,0,0,1,5.081,6.541c0,4.1-2.921,6.481-6.961,7.082l-1.5-2.24c4.281-.381,5.942-2.541,5.942-4.962a4.18,4.18,0,0,0-3.141-4.28,24.073,24.073,0,0,1-2.62,6.161,15.156,15.156,0,0,0,1.08,1.16l-1.981,1.56c-.24-.259-.46-.52-.66-.76-1.3,1.421-2.36,2.06-3.8,2.06-1.62,0-3.081-1.36-3.081-3.86a8.376,8.376,0,0,1,2.841-6.121c-.179-.54-.36-1.081-.52-1.6a12.44,12.44,0,0,0-.78-2l2.561-.779c.119.62.279,1.26.42,1.84.1.38.22.78.34,1.18a10.329,10.329,0,0,1,4.421-1.16c.059-.341.139-.64.179-.94a9.853,9.853,0,0,0,.12-1.841l2.721.261c-.16.54-.36,1.46-.479,1.96Zm-6.161,8.342a20.324,20.324,0,0,1-1.8-3.721,5.863,5.863,0,0,0-1.4,3.641c0,.94.4,1.56,1.081,1.56C713.419,78.374,714.139,77.774,714.839,76.894Zm.1-5.261a18.7,18.7,0,0,0,1.381,3.1,24.264,24.264,0,0,0,1.741-4.162A8,8,0,0,0,714.938,71.633Z"/>
        <path d="M721.46,93.594c-.88.76-2.681,2.421-3.141,2.921a2.151,2.151,0,0,1,.721.159c.58.16.9.6,1.18,1.32.18.521.38,1.261.54,1.742a1.212,1.212,0,0,0,1.36.9,20.047,20.047,0,0,0,3.821-.319l-.18,2.56a31.527,31.527,0,0,1-3.8.26c-1.82,0-2.84-.4-3.3-1.66-.2-.561-.439-1.481-.58-1.961-.22-.68-.64-.94-1.04-.94a2.137,2.137,0,0,0-1.24.78c-.68.68-2.12,2.26-3.461,3.941l-2.32-1.6a14.46,14.46,0,0,0,1.34-1.179c1-1.021,4.981-4.962,6.742-6.822-1.341.04-3.662.24-4.782.34-.66.06-1.259.16-1.68.22l-.22-2.681c.44.04,1.16.081,1.86.081.92-.021,5.322-.22,6.942-.42a5.216,5.216,0,0,0,1.06-.241l1.46,1.62C722.221,92.974,721.82,93.314,721.46,93.594Zm.58-6.2-.3,2.28c-2.04-.16-5.661-.561-7.981-.96l.38-2.261C716.3,86.853,720.04,87.273,722.04,87.393Z"/>
        <path d="M715.7,121.115a2.083,2.083,0,0,1,4.161,0,2.084,2.084,0,0,1-4.161,0Zm.34-10.2-.08-2.98h3.661l-.1,2.98-.7,6.842h-2.06Z"/>
        <path d="M681.3,53.254a7.727,7.727,0,0,0-.341,1.981c0,1.22,1.181,2.121,3.961,2.121a27.946,27.946,0,0,0,6.822-.761l.02,2.721a29.321,29.321,0,0,1-6.742.66c-4.441,0-6.681-1.5-6.681-4.141a12.163,12.163,0,0,1,.4-2.8Zm-1.661-8.222a49.189,49.189,0,0,0,5.281.241c1.9,0,4.141-.12,5.621-.281v2.621c-1.34.1-3.761.22-5.6.22-2.041,0-3.72-.08-5.3-.2Z"/>
        <path d="M694.343,79.856a5.142,5.142,0,0,1-3.66,1.46c-1.441,0-2.441-1.06-2.441-2.941,0-2.1.7-4.94.7-6.7,0-.96-.48-1.44-1.3-1.44-1.441,0-3.561,1.8-5.121,3.52-.02.561-.041,1.08-.041,1.581,0,1.58,0,3.221.121,5.041.02.34.08,1.06.14,1.48h-2.68c.04-.4.059-1.12.059-1.44.04-1.5.04-2.6.061-4.221-.821,1.2-1.782,2.621-2.442,3.541L676.22,77.6c1.1-1.34,3.06-3.9,4.16-5.541l.08-1.36c-.939.12-2.42.3-3.521.46l-.24-2.5a16.4,16.4,0,0,0,1.681-.021c.56-.04,1.42-.14,2.24-.26.04-.719.08-1.261.08-1.48a10.01,10.01,0,0,0-.08-1.721l2.82.08c-.119.54-.259,1.541-.419,2.741l.72.941c-.261.34-.66.939-.98,1.46-.02.139-.02.28-.04.42,1.52-1.321,3.76-2.881,5.641-2.881a2.71,2.71,0,0,1,3.04,2.861c0,2-.639,4.86-.639,6.861,0,.54.259.861.74.861a3.836,3.836,0,0,0,2.5-1.381Z"/>
        <path d="M686.562,90.253a27.991,27.991,0,0,1-3.341.68,35.985,35.985,0,0,1-4.1,8.181L676.76,97.9a28.24,28.24,0,0,0,3.881-6.7c-.341.02-.681.02-1,.02-.8,0-1.6-.02-2.441-.1l-.179-2.339a17.593,17.593,0,0,0,2.6.24,17.17,17.17,0,0,0,1.74-.08,15.227,15.227,0,0,0,.5-3.081l2.661.26c-.14.62-.36,1.52-.62,2.5a23.8,23.8,0,0,0,2.6-.6Zm2.581,1.74c-.061.84-.04,1.64-.021,2.5.021.54.061,1.441.1,2.341a13.069,13.069,0,0,1,4.021,2.5l-1.28,2.081a19.57,19.57,0,0,0-2.641-2.081v.181c0,1.8-.98,3.2-3.741,3.2-2.4,0-4.3-1.08-4.3-3.2,0-1.881,1.58-3.361,4.3-3.361.44,0,.881.04,1.3.08-.061-1.42-.16-3.061-.2-4.241Zm-2.181,6.322a6.5,6.5,0,0,0-1.541-.181c-1.12,0-1.86.48-1.86,1.141,0,.719.62,1.22,1.68,1.22,1.321,0,1.721-.74,1.721-1.781Zm5.48-5.282a25.738,25.738,0,0,0-4.66-2.76l1.26-1.92a35.5,35.5,0,0,1,4.781,2.639Z"/>
        <path d="M681.32,115.374A9.362,9.362,0,0,1,687,113.533c3.4,0,5.381,2.1,5.381,4.442,0,3.56-2.8,6.261-10.862,5.56L680.78,121c5.822.821,8.9-.6,8.9-3.081,0-1.26-1.2-2.179-2.921-2.179a6.892,6.892,0,0,0-5.362,2.28,5.731,5.731,0,0,0-.719,1.12l-2.242-.54a69.664,69.664,0,0,0,.961-8.1l2.621.36C681.761,111.934,681.44,114.254,681.32,115.374Zm.58-8.422a60.192,60.192,0,0,0,7.762,1.5l-.58,2.4c-1.96-.28-6.3-1.18-7.8-1.56Z"/>
        <path d="M683.741,138.855c-.32,4.021-1.2,6.561-6.662,7.862a7,7,0,0,0-1.3-2.061c4.742-.92,5.242-2.72,5.482-5.8Zm.06-7.121h-7.482v-2.162H683.8v-1.58h2.461v1.58h7.681v2.162h-7.681v1.3H692.1v2.081H678.22v-2.081H683.8Zm7.481,8.622v-2.121h-12.4v2.121h-2.3v-4.262h17.1v4.262Zm.12,3.92c.66,0,.781-.34.861-2.38a6.831,6.831,0,0,0,2.14.9c-.259,2.88-.88,3.62-2.76,3.62h-2.581c-2.321,0-2.9-.679-2.9-2.82v-4.741h2.4v4.7c0,.64.12.72.84.72Z"/>
        <path d="M694.343,165.3a5.142,5.142,0,0,1-3.66,1.46c-1.441,0-2.441-1.06-2.441-2.94,0-2.1.7-4.941.7-6.7,0-.96-.48-1.44-1.3-1.44-1.441,0-3.561,1.8-5.121,3.521-.02.56-.041,1.08-.041,1.581,0,1.58,0,3.22.121,5.041.02.339.08,1.059.14,1.479h-2.68c.04-.4.059-1.12.059-1.439.04-1.5.04-2.6.061-4.222-.821,1.2-1.782,2.621-2.442,3.541l-1.519-2.141c1.1-1.34,3.06-3.9,4.16-5.541l.08-1.36c-.939.12-2.42.3-3.521.46l-.24-2.5a16.4,16.4,0,0,0,1.681-.021c.56-.04,1.42-.139,2.24-.259.04-.72.08-1.261.08-1.481a10.015,10.015,0,0,0-.08-1.721l2.82.081c-.119.54-.259,1.541-.419,2.741l.72.94c-.261.34-.66.94-.98,1.46-.02.14-.02.28-.04.42,1.52-1.32,3.76-2.881,5.641-2.881a2.71,2.71,0,0,1,3.04,2.862c0,2-.639,4.86-.639,6.861,0,.54.259.86.74.86a3.831,3.831,0,0,0,2.5-1.381Z"/>
        <path d="M690.183,174.073c-.46.281-.921.561-1.341.861-1.04.74-2.861,2.32-4.061,3.3a5.993,5.993,0,0,1,1.761-.241c3.3,0,5.8,1.981,5.8,4.9,0,3.08-2.58,5.5-7.4,5.5-2.581,0-4.34-1.241-4.34-3.181a3.258,3.258,0,0,1,3.48-3.021,3.911,3.911,0,0,1,4.121,3.2,2.848,2.848,0,0,0,1.6-2.58c0-1.681-1.621-2.8-3.881-2.8-2.9,0-4.982,1.66-6.982,4l-1.821-1.8c1.36-1.12,3.661-3.12,4.8-4.081,1.059-.92,2.88-2.5,3.841-3.341-1,.021-3.282.141-4.3.2-.561.04-1.141.08-1.6.161l-.08-2.521a16.785,16.785,0,0,0,1.781.1c1,0,4.781-.1,5.9-.2a6.744,6.744,0,0,0,1.46-.22Zm-4.221,11.983c-.16-1.2-.841-1.981-1.881-1.981-.72,0-1.2.4-1.2.92,0,.721.68,1.121,1.82,1.121Q685.363,186.116,685.962,186.056Z"/>
        <path d="M677.64,200.415c.9-.92,2.381-2.94,3.6-4.321,1.341-1.54,2.6-1.68,4.022-.3,1.32,1.28,2.88,3.281,4.02,4.522,1.24,1.36,2.9,3.1,4.741,4.76l-2.041,2.281a59.576,59.576,0,0,1-4.24-4.7c-1.2-1.419-2.64-3.26-3.561-4.28-.68-.74-1.06-.64-1.62.06-.76.98-2.161,2.9-3,4-.441.62-.9,1.4-1.221,1.9L676,201.915A15.525,15.525,0,0,0,677.64,200.415Zm13.422-3.381-1.76.781a17.381,17.381,0,0,0-1.781-3.2l1.7-.72C689.763,194.714,690.622,196.154,691.062,197.034Zm2.7-1.139-1.72.819a18.993,18.993,0,0,0-1.881-3.1l1.681-.8A30.279,30.279,0,0,1,693.763,195.9Z"/>
        <path d="M683.041,224.9a2.083,2.083,0,0,1,4.161,0,2.084,2.084,0,0,1-4.161,0Zm.34-10.2-.08-2.981h3.661l-.1,2.981-.7,6.841H684.1Z"/>
        <path d="M653.9,47.913a27.753,27.753,0,0,1-3.341.68,36.01,36.01,0,0,1-4.1,8.182l-2.36-1.22a28.168,28.168,0,0,0,3.88-6.7c-.34.02-.68.02-1,.02-.8,0-1.6-.02-2.44-.1l-.18-2.34a17.618,17.618,0,0,0,2.6.24,16.885,16.885,0,0,0,1.74-.08,15.227,15.227,0,0,0,.5-3.081l2.661.26c-.14.62-.36,1.52-.62,2.5a24.023,24.023,0,0,0,2.6-.6Zm2.581,1.741c-.06.839-.04,1.639-.02,2.5.02.54.06,1.44.1,2.34a13.075,13.075,0,0,1,4.022,2.5l-1.28,2.081a19.634,19.634,0,0,0-2.641-2.081v.181c0,1.8-.98,3.2-3.741,3.2-2.4,0-4.3-1.08-4.3-3.2,0-1.881,1.58-3.361,4.3-3.361.44,0,.881.04,1.3.08-.061-1.42-.161-3.061-.2-4.24Zm-2.18,6.321a6.5,6.5,0,0,0-1.541-.181c-1.12,0-1.861.481-1.861,1.141,0,.719.62,1.22,1.681,1.22,1.32,0,1.721-.74,1.721-1.781Zm5.48-5.281a25.684,25.684,0,0,0-4.66-2.761l1.26-1.92a35.388,35.388,0,0,1,4.781,2.64Z"/>
        <path d="M658.605,69.314a4.159,4.159,0,0,1,3,3.94c0,1.981-1.161,4.321-5.121,4.922l-1.14-1.8c3.2-.34,4.121-1.96,4.121-3.3a2.249,2.249,0,0,0-1.481-2.02,11.785,11.785,0,0,1-3.18,4.6c.12.4.24.8.36,1.18l-1.98.58c-.061-.179-.121-.36-.181-.58a5.447,5.447,0,0,1-2.32.58,2.087,2.087,0,0,1-2.181-2.3c0-2.08,1.621-4.14,3.781-5.2.04-.58.08-1.22.14-1.821h-.46c-.84,0-1.981-.06-2.721-.1l-.04-1.96a25.542,25.542,0,0,0,2.761.18h.64l.06-.681a5.489,5.489,0,0,0,.04-.979l2.32.04a5.713,5.713,0,0,0-.24.96l-.12.6a27.308,27.308,0,0,0,5.121-.661v2c-1.5.241-3.52.441-5.421.54-.04.38-.1.8-.12,1.221a9.517,9.517,0,0,1,2.261-.261h.18c.06-.319.12-.679.14-.88l2.021.5Zm-6.041,5.6a18.717,18.717,0,0,1-.3-2.9,4.062,4.062,0,0,0-1.781,2.64.635.635,0,0,0,.681.721A3.046,3.046,0,0,0,652.564,74.915Zm3.561-4.181a6.772,6.772,0,0,0-1.961.34,16.8,16.8,0,0,0,.181,2.38A8.918,8.918,0,0,0,656.125,70.734Z"/>
        <path d="M644.5,97.2a1.832,1.832,0,1,1,1.82,1.921A1.837,1.837,0,0,1,644.5,97.2Zm.439-10.782-.1-2.78h2.96l-.1,2.78-.42,7.382h-1.921Z"/>
        <path d="M658.483,87.373a1.559,1.559,0,0,0-1.7-1.639,3.084,3.084,0,0,0-2.22,1.12l-1.621-1.481a5.536,5.536,0,0,1,4.2-2c2.4,0,4.161,1.24,4.161,3.8,0,2.84-3.482,3.8-3.181,6.621h-2.561C655.083,90.574,658.483,89.294,658.483,87.373Zm-3.46,9.822a1.833,1.833,0,1,1,1.821,1.921A1.838,1.838,0,0,1,655.023,97.2Z"/>
      </g>
      <g>
        <polygon points="131.277 147.05 120.878 167.929 105.277 164.561 105.277 102.482 71 60.05 26 66.05 1 117.05 12 207.05 49 238.05 83 230.05 105.277 194.921 105.277 183.775 134.894 186.024 140.277 160.05 176.952 159.531 131.277 147.05" fill="#fff"/>
        <path d="M49,239.05a1.007,1.007,0,0,1-.643-.233l-37-31a1,1,0,0,1-.349-.646l-11-90a.979.979,0,0,1,.1-.561l25-51a1,1,0,0,1,.765-.551l45-6a1,1,0,0,1,.91.363l34.278,42.432a1,1,0,0,1,.221.628v61.272l14.053,3.033L130.382,146.6a1,1,0,0,1,1.159-.52l45.675,12.482a1,1,0,0,1-.25,1.964l-35.872.507-5.221,25.189a1,1,0,0,1-1.056.794l-28.54-2.167v10.067a.993.993,0,0,1-.155.535L83.845,230.585a1.007,1.007,0,0,1-.616.439l-34,8A1.051,1.051,0,0,1,49,239.05ZM12.944,206.537l36.315,30.425,33.115-7.792,21.9-34.539V183.775a1,1,0,0,1,.321-.734.992.992,0,0,1,.756-.263l28.739,2.182,5.205-25.113a1,1,0,0,1,.966-.8l29.6-.418-38.058-10.4-10.033,20.143a.992.992,0,0,1-1.106.531l-15.6-3.367a1,1,0,0,1-.789-.977V102.835l-33.7-41.72L26.662,66.971,2.028,117.224Z" fill="#231815"/>
      </g>
      <g>
        <path d="M54.262,108.313a16.811,16.811,0,0,0-5.041.96c-.561.16-1.321.48-1.881.66l-.74-2.761c.66-.06,1.5-.22,2.12-.34a26.373,26.373,0,0,1,5.861-.88c3.081,0,5.222,1.741,5.222,4.782,0,4.16-3.841,6.741-9.223,7.481l-1.4-2.421c4.82-.559,7.881-2.12,7.881-5.161C57.062,109.353,56.1,108.313,54.262,108.313Zm3.921-6.121-.381,2.379c-2.281-.139-6.5-.519-8.722-.919l.38-2.321A58.511,58.511,0,0,0,58.183,102.192Z"/>
        <path d="M60.5,126.793a34.8,34.8,0,0,0-4.221-4.341l2.06-1.74a37.6,37.6,0,0,1,4.281,4.28Z"/>
        <path d="M54.262,140.593a16.811,16.811,0,0,0-5.041.96c-.561.16-1.321.48-1.881.66l-.74-2.761c.66-.059,1.5-.219,2.12-.34a26.379,26.379,0,0,1,5.861-.879c3.081,0,5.222,1.74,5.222,4.781,0,4.16-3.841,6.741-9.223,7.481l-1.4-2.421c4.82-.559,7.881-2.12,7.881-5.161C57.062,141.633,56.1,140.593,54.262,140.593Zm3.921-6.121-.381,2.38c-2.281-.14-6.5-.52-8.722-.92l.38-2.32A58.639,58.639,0,0,0,58.183,134.472Z"/>
        <path d="M54.5,157.032c-.939,1.381-2.44,4.081-3.38,5.782a4.473,4.473,0,0,1,2.2-.58,2.334,2.334,0,0,1,2.4,2.56c.04.86,0,2.4.1,3.241a1.1,1.1,0,0,0,1.221,1.04c1.7,0,2.74-2.18,3.3-4.6l2.1,1.72c-1,3.34-2.8,5.521-5.8,5.521-2.141,0-3.141-1.261-3.241-2.681-.06-1.04-.06-2.62-.12-3.4a1.029,1.029,0,0,0-1.12-1.08c-1.32,0-2.4,1.32-3.1,2.92-.5,1.14-1.161,3.281-1.461,4.3l-2.741-.92a152.291,152.291,0,0,1,6.562-13.864c.22-.519.6-1.16.94-1.98l2.76,1.121A8.9,8.9,0,0,0,54.5,157.032Z"/>
        <path d="M51.421,189.716a2.083,2.083,0,0,1,4.161,0,2.084,2.084,0,0,1-4.161,0Zm.34-10.2-.08-2.981h3.661l-.1,2.981-.7,6.842H52.48Z"/>
      </g>
      <g>
        <path d="M399.492,203.657s-3.245-13.813,2.065-16.892,10.573-5.881,10.51-3-5.5,31.218-5.5,31.218l-6.382,4.38-2.377-5.193Z" fill="#ee795e"/>
        <path d="M465.566,174.594H471.6s24.867,1,24.867,23.862V308.922H403.292V198.456c0-22.866,24.867-23.862,24.867-23.862H434.2" fill="#ee795e"/>
        <path d="M437.9,164.768h-3.081s-.363.09-.363,2.447-2.666,14.643,8.864,18.289,18.445-3.083,20.051-5.418,2.2-6.083,2.2-10.967.7-4.714-2.741-4.714S437.9,164.768,437.9,164.768Z" fill="#f4aeb6"/>
        <path d="M435.594,191.8s-3.24-5.875-5.843-.269l-2.6,5.6s-3.327,2.635,1.721,2.635h12.965s4.475.726,1.148-1.913S435.594,191.8,435.594,191.8Z" fill="#f4aeb6"/>
        <path d="M465.566,175.594a1,1,0,0,1-1-1v-9.359H435.2v9.359a1,1,0,0,1-2,0V164.235a1,1,0,0,1,1-1h31.37a1,1,0,0,1,1,1v10.359A1,1,0,0,1,465.566,175.594Z" fill="#231815"/>
        <g>
          <g>
            <polygon points="478.547 285.89 418.136 285.89 418.136 277.692 420.028 272.962 420.028 212.694 418.136 207.964 418.136 199.766 478.547 199.766 478.547 207.964 476.655 212.694 476.655 272.962 478.547 277.692 478.547 285.89" fill="#fff"/>
            <path d="M479.547,286.89h-62.41V277.5l1.891-4.729V212.886l-1.891-4.73v-9.39h62.41v9.39l-1.892,4.73V272.77l1.892,4.729Zm-60.41-2h58.41v-7.006l-1.892-4.73V212.5l1.892-4.729v-7.006h-58.41v7.006l1.891,4.729v60.653l-1.891,4.73Z" fill="#231815"/>
            <rect x="418.137" y="206.964" width="60.41" height="2" fill="#231815"/>
            <rect x="418.137" y="276.692" width="60.41" height="2" fill="#231815"/>
          </g>
          <g>
            <g>
              <path d="M423.575,268.468a13.369,13.369,0,0,1,10.088-4.843,19.446,19.446,0,0,1,11.3,4.036l5.649-2.623v8.07l-5.649-2.623a24.592,24.592,0,0,1-11.1,2.623A14.226,14.226,0,0,1,423.575,268.468Z" fill="#97d2ce"/>
              <path d="M433.865,274.109a15.136,15.136,0,0,1-11.061-5,1,1,0,0,1-.029-1.237,14.285,14.285,0,0,1,10.888-5.243A20.273,20.273,0,0,1,445.09,266.5l5.1-2.368a1,1,0,0,1,1.421.907v8.072a1,1,0,0,1-1.421.907l-5.2-2.416A25.983,25.983,0,0,1,433.865,274.109Zm-8.928-5.671a13.265,13.265,0,0,0,8.928,3.671,23.837,23.837,0,0,0,10.606-2.5,1.008,1.008,0,0,1,.912-.036l4.228,1.964V266.6l-4.228,1.964a1.006,1.006,0,0,1-1.06-.138,18.589,18.589,0,0,0-10.66-3.805A12.374,12.374,0,0,0,424.937,268.438Z" fill="#231815"/>
            </g>
            <g>
              <path d="M445.731,264.231a13.37,13.37,0,0,1,10.088-4.842,19.448,19.448,0,0,1,11.3,4.035l5.649-2.623v8.07l-5.649-2.623a24.592,24.592,0,0,1-11.1,2.623A14.226,14.226,0,0,1,445.731,264.231Z" fill="#97d2ce"/>
              <path d="M472.767,269.871a1.011,1.011,0,0,1-.421-.092l-5.2-2.417a25.983,25.983,0,0,1-11.121,2.509,15.136,15.136,0,0,1-11.061-5,1,1,0,0,1-.028-1.236,14.275,14.275,0,0,1,10.887-5.242,20.262,20.262,0,0,1,11.426,3.873l5.1-2.368a1,1,0,0,1,1.421.907v8.07a1,1,0,0,1-1,1ZM447.093,264.2a13.263,13.263,0,0,0,8.928,3.671,23.681,23.681,0,0,0,10.6-2.493,1,1,0,0,1,.913-.037l4.229,1.964v-4.938l-4.229,1.964a1,1,0,0,1-1.059-.137,18.585,18.585,0,0,0-10.66-3.805A12.382,12.382,0,0,0,447.093,264.2Z" fill="#231815"/>
            </g>
            <g>
              <path d="M423.575,256.564a13.37,13.37,0,0,1,10.088-4.842,19.448,19.448,0,0,1,11.3,4.035l5.649-2.623v8.07l-5.649-2.623a24.592,24.592,0,0,1-11.1,2.623A14.226,14.226,0,0,1,423.575,256.564Z" fill="#97d2ce"/>
              <path d="M450.611,262.2a1.018,1.018,0,0,1-.421-.092l-5.2-2.417a25.983,25.983,0,0,1-11.121,2.509,15.136,15.136,0,0,1-11.061-5,1,1,0,0,1-.029-1.236,14.282,14.282,0,0,1,10.888-5.242A20.266,20.266,0,0,1,445.09,254.6l5.1-2.368a1,1,0,0,1,1.421.907v8.07a1,1,0,0,1-1,1Zm-25.676-5.673a13.261,13.261,0,0,0,8.93,3.673,23.845,23.845,0,0,0,10.606-2.494,1,1,0,0,1,.912-.036l4.228,1.964V254.7l-4.228,1.964a1,1,0,0,1-1.06-.137,18.581,18.581,0,0,0-10.66-3.8A12.305,12.305,0,0,0,424.935,256.531Z" fill="#231815"/>
            </g>
            <g>
              <path d="M445.731,252.327a13.37,13.37,0,0,1,10.088-4.842,19.448,19.448,0,0,1,11.3,4.035l5.649-2.623v8.07l-5.649-2.622a24.6,24.6,0,0,1-11.1,2.622A14.226,14.226,0,0,1,445.731,252.327Z" fill="#97d2ce"/>
              <path d="M472.767,257.967a.982.982,0,0,1-.421-.093l-5.2-2.415a26,26,0,0,1-11.121,2.508,15.131,15.131,0,0,1-11.06-5,1,1,0,0,1-.029-1.236,14.277,14.277,0,0,1,10.887-5.243,20.262,20.262,0,0,1,11.426,3.873l5.1-2.369a1,1,0,0,1,1.421.908v8.07a1,1,0,0,1-1,1ZM447.09,252.3a13.269,13.269,0,0,0,8.931,3.672,23.861,23.861,0,0,0,10.6-2.493,1.008,1.008,0,0,1,.912-.036l4.229,1.963v-4.938l-4.229,1.964a1,1,0,0,1-1.059-.138,18.6,18.6,0,0,0-10.66-3.8A12.312,12.312,0,0,0,447.09,252.3Z" fill="#231815"/>
            </g>
            <g>
              <path d="M423.575,244.66a13.37,13.37,0,0,1,10.088-4.842,19.448,19.448,0,0,1,11.3,4.035l5.649-2.623V249.3l-5.649-2.623a24.592,24.592,0,0,1-11.1,2.623A14.225,14.225,0,0,1,423.575,244.66Z" fill="#97d2ce"/>
              <path d="M450.611,250.3a1,1,0,0,1-.421-.093l-5.2-2.416a25.983,25.983,0,0,1-11.121,2.509,15.136,15.136,0,0,1-11.061-5,1,1,0,0,1-.029-1.236,14.282,14.282,0,0,1,10.888-5.243,20.266,20.266,0,0,1,11.427,3.873l5.1-2.369a1,1,0,0,1,1.421.908V249.3a1,1,0,0,1-1,1Zm-25.674-5.671a13.26,13.26,0,0,0,8.928,3.671,23.86,23.86,0,0,0,10.606-2.494,1.008,1.008,0,0,1,.912-.036l4.228,1.964V242.8l-4.228,1.964a1,1,0,0,1-1.06-.138,18.591,18.591,0,0,0-10.66-3.8A12.378,12.378,0,0,0,424.937,244.63Z" fill="#231815"/>
            </g>
            <g>
              <path d="M445.731,240.423a13.37,13.37,0,0,1,10.088-4.842,19.448,19.448,0,0,1,11.3,4.035l5.649-2.623v8.071l-5.649-2.623a24.592,24.592,0,0,1-11.1,2.623A14.225,14.225,0,0,1,445.731,240.423Z" fill="#97d2ce"/>
              <path d="M472.767,246.064a1.012,1.012,0,0,1-.421-.093l-5.2-2.416a25.983,25.983,0,0,1-11.121,2.509,15.136,15.136,0,0,1-11.061-5,1,1,0,0,1-.028-1.237,14.278,14.278,0,0,1,10.887-5.242,20.269,20.269,0,0,1,11.426,3.873l5.1-2.368a1,1,0,0,1,1.421.907v8.071a1,1,0,0,1-1,1Zm-25.674-5.671a13.267,13.267,0,0,0,8.928,3.671,23.674,23.674,0,0,0,10.6-2.494,1,1,0,0,1,.913-.037l4.229,1.964V238.56l-4.229,1.964a1,1,0,0,1-1.059-.138,18.593,18.593,0,0,0-10.66-3.805A12.378,12.378,0,0,0,447.093,240.393Z" fill="#231815"/>
            </g>
            <g>
              <path d="M423.575,232.756a13.37,13.37,0,0,1,10.088-4.842,19.448,19.448,0,0,1,11.3,4.035l5.649-2.623V237.4l-5.649-2.623a24.592,24.592,0,0,1-11.1,2.623A14.225,14.225,0,0,1,423.575,232.756Z" fill="#97d2ce"/>
              <path d="M450.611,238.4a1.019,1.019,0,0,1-.421-.093l-5.2-2.416a25.983,25.983,0,0,1-11.121,2.509,15.136,15.136,0,0,1-11.061-5,1,1,0,0,1-.029-1.237,14.286,14.286,0,0,1,10.888-5.242,20.273,20.273,0,0,1,11.427,3.873l5.1-2.368a1,1,0,0,1,1.421.907V237.4a1,1,0,0,1-1,1Zm-25.676-5.673a13.266,13.266,0,0,0,8.93,3.673,23.86,23.86,0,0,0,10.606-2.494,1,1,0,0,1,.912-.037l4.228,1.964v-4.937l-4.228,1.964a1.006,1.006,0,0,1-1.06-.138,18.589,18.589,0,0,0-10.66-3.805A12.3,12.3,0,0,0,424.935,232.724Z" fill="#231815"/>
            </g>
            <g>
              <path d="M445.731,228.519a13.37,13.37,0,0,1,10.088-4.842,19.448,19.448,0,0,1,11.3,4.035l5.649-2.623v8.071l-5.649-2.623a24.592,24.592,0,0,1-11.1,2.623A14.225,14.225,0,0,1,445.731,228.519Z" fill="#97d2ce"/>
              <path d="M472.767,234.159a1,1,0,0,1-.421-.092l-5.2-2.415a26.023,26.023,0,0,1-11.121,2.507,15.127,15.127,0,0,1-11.06-5,1,1,0,0,1-.029-1.236,14.277,14.277,0,0,1,10.887-5.243,20.262,20.262,0,0,1,11.426,3.873l5.1-2.368a1,1,0,0,1,1.421.907v8.07a1,1,0,0,1-1,1Zm-25.677-5.672a13.269,13.269,0,0,0,8.931,3.672,23.845,23.845,0,0,0,10.6-2.493,1.008,1.008,0,0,1,.912-.036l4.229,1.963v-4.938l-4.229,1.964a1,1,0,0,1-1.059-.137,18.593,18.593,0,0,0-10.66-3.805A12.312,12.312,0,0,0,447.09,228.487Z" fill="#231815"/>
            </g>
            <g>
              <path d="M423.575,220.852a13.37,13.37,0,0,1,10.088-4.842,19.448,19.448,0,0,1,11.3,4.035l5.649-2.622v8.07l-5.649-2.623a24.592,24.592,0,0,1-11.1,2.623A14.225,14.225,0,0,1,423.575,220.852Z" fill="#97d2ce"/>
              <path d="M433.865,226.493a15.132,15.132,0,0,1-11.061-5,1,1,0,0,1-.029-1.236,14.282,14.282,0,0,1,10.888-5.243,20.266,20.266,0,0,1,11.427,3.873l5.1-2.368a1,1,0,0,1,1.421.907v8.071a1,1,0,0,1-1.421.908l-5.2-2.416A26,26,0,0,1,433.865,226.493Zm-8.928-5.671a13.26,13.26,0,0,0,8.928,3.671A23.845,23.845,0,0,0,444.471,222a1.008,1.008,0,0,1,.912-.036l4.228,1.964v-4.939l-4.228,1.964a1,1,0,0,1-1.06-.137,18.589,18.589,0,0,0-10.66-3.805A12.378,12.378,0,0,0,424.937,220.822Z" fill="#231815"/>
            </g>
            <g>
              <path d="M445.731,216.615a13.37,13.37,0,0,1,10.088-4.842,19.448,19.448,0,0,1,11.3,4.035l5.649-2.622v8.07l-5.649-2.623a24.592,24.592,0,0,1-11.1,2.623A14.225,14.225,0,0,1,445.731,216.615Z" fill="#97d2ce"/>
              <path d="M472.767,222.256a1,1,0,0,1-.421-.093l-5.2-2.416a25.983,25.983,0,0,1-11.121,2.509,15.136,15.136,0,0,1-11.061-5,1,1,0,0,1-.028-1.236,14.275,14.275,0,0,1,10.887-5.242,20.262,20.262,0,0,1,11.426,3.873l5.1-2.368a1,1,0,0,1,1.421.907v8.07a1,1,0,0,1-1,1Zm-25.674-5.671a13.263,13.263,0,0,0,8.928,3.671,23.7,23.7,0,0,0,10.6-2.493,1,1,0,0,1,.913-.037l4.229,1.964v-4.938l-4.229,1.964a1,1,0,0,1-1.059-.138,18.6,18.6,0,0,0-10.66-3.8A12.382,12.382,0,0,0,447.093,216.585Z" fill="#231815"/>
            </g>
            <g>
              <rect x="436.841" y="222.232" width="23.001" height="41.192" fill="#fff"/>
              <path d="M460.842,264.424h-25V221.233h25Zm-23-2h21V223.233h-21Z" fill="#231815"/>
            </g>
          </g>
        </g>
        <path d="M445.73,200.766a1,1,0,0,1-.607-.206L431.1,189.818a1,1,0,1,1,1.216-1.588l14.027,10.742a1,1,0,0,1-.61,1.794Z" fill="#231815"/>
        <path d="M467.887,245.014l12.254.512c-.275-.287-5.8-5.835-4.809-7.973.845-1.79,3.053-1.271,4.895.419,1.831,1.706,10.579,9.217,10.579,9.217l-.121,11.933s-10.55,9.386-11.6,10.132c-2.282,1.667-3.92,1.356-4.3-.287-.506-2.138,5.147-7.543,5.147-7.543s-11.142.145-12.48.187a3.26,3.26,0,0,1-3.507-3.02c-.054-2.274,3.324-2.819,3.324-2.819-2.151.116-3.513-1.239-3.389-2.985.13-2.265,3.187-2.486,3.55-2.494-1.475-.1-3.725-.936-3.523-3.031C464.148,244.712,467.887,245.014,467.887,245.014Z" fill="#f4aeb6"/>
        <path d="M479.059,257.144h-.033l-11.78-.372a4.262,4.262,0,0,1-3.333-1.191,3.649,3.649,0,0,1-1.022-2.864c.149-2.622,3.024-3.388,4.523-3.424a.984.984,0,0,1,1.024.976,1,1,0,0,1-.975,1.024c-.026,0-2.493.1-2.577,1.553a1.664,1.664,0,0,0,.454,1.333,2.407,2.407,0,0,0,1.884.595l11.865.372a1,1,0,0,1-.03,2Z" fill="#231815"/>
        <path d="M479.252,251.616h-.023c-.412-.009-9.878-.233-11.682-.328a.975.975,0,0,1-.109,0l-.068,0a5.5,5.5,0,0,1-3.695-1.654,3.253,3.253,0,0,1-.755-2.47c.255-2.79,3.416-3.276,5.047-3.149l12.216.511a1,1,0,0,1,.957,1.041.982.982,0,0,1-1.041.957l-12.254-.513c-.063-.006-2.794-.192-2.934,1.34a1.248,1.248,0,0,0,.29.99,3.5,3.5,0,0,0,2.209.943c.049,0,.095,0,.145,0,1.424.089,11.618.329,11.72.331a1,1,0,0,1-.023,2Z" fill="#231815"/>
        <path d="M476.437,271.362a2.808,2.808,0,0,1-.981-.169,2.663,2.663,0,0,1-1.638-2c-.427-1.808,1.869-4.74,3.708-6.735-3.356.045-9.11.125-10.036.155-2.21,0-4.457-1.373-4.537-3.99-.059-2.49,2.59-3.583,4.165-3.837a1,1,0,0,1,.321,1.974h0c-.025,0-2.519.459-2.486,1.809.061,2.018,2.407,2.044,2.508,2.044,1.3-.041,12.011-.181,12.467-.187a1.061,1.061,0,0,1,.938.621,1,1,0,0,1-.234,1.1c-2.791,2.67-5.065,5.75-4.866,6.59.11.477.32.556.389.582.364.135,1.177-.019,2.345-.873.725-.516,6.962-6.019,11.189-9.778l.112-11.023c-1.676-1.441-8.62-7.416-10.255-8.942a3.7,3.7,0,0,0-2.7-1.249.808.808,0,0,0-.606.527c-.272.586.956,3.079,4.545,6.769a1,1,0,0,1-.437,1.756,1.056,1.056,0,0,1-.926-.288c-4.155-4.269-5.818-7.308-4.993-9.086a2.831,2.831,0,0,1,2.032-1.641,5.418,5.418,0,0,1,4.446,1.745c1.8,1.678,10.467,9.12,10.554,9.2a1,1,0,0,1,.349.768l-.121,11.932a1,1,0,0,1-.335.737c-1.084.965-10.621,9.445-11.679,10.2A5.6,5.6,0,0,1,476.437,271.362Z" fill="#231815"/>
        <path d="M496.471,309.922H403.292a1,1,0,0,1-1-1V198.456c0-23.554,25.569-24.851,25.827-24.861H434.2a1,1,0,0,1,1,1.057,9.932,9.932,0,0,0,2.667,6.695c2.465,2.592,6.431,3.906,11.786,3.906s9.4-1.32,11.975-3.925a10.34,10.34,0,0,0,2.944-6.719,1,1,0,0,1,1-1.014H471.6c.3.011,25.867,1.308,25.867,24.862V308.922A1,1,0,0,1,496.471,309.922Zm-92.179-2h91.179V198.456c0-9.051-3.979-15.639-11.825-19.584a33.431,33.431,0,0,0-12.084-3.279H466.5a12.344,12.344,0,0,1-3.424,7.109c-2.968,3.019-7.485,4.549-13.427,4.549s-10.408-1.533-13.263-4.557a11.862,11.862,0,0,1-3.155-7.1h-5.07a33.472,33.472,0,0,0-12.042,3.278c-7.846,3.945-11.825,10.533-11.825,19.584Z" fill="#231815"/>
        <path d="M496.471,216.01s22.848,5.482,21.133,17.772-26.8,10.777-26.8,10.777v18.208s42.823,2.821,47.968-26.333-18.527-51.295-59.426-60.357" fill="#ee795e"/>
        <path d="M493.51,263.828c-1.694,0-2.7-.059-2.77-.063a1,1,0,0,1-.934-1V244.559a1,1,0,0,1,1.06-1c.24.016,24.18,1.32,25.747-9.916s-20.156-16.61-20.376-16.662a1,1,0,0,1,.467-1.946c.969.233,23.709,5.845,21.89,18.884-1.631,11.692-21.834,11.819-26.788,11.681v16.205c6.227.175,41.469.031,45.983-25.547,4.913-27.847-17.015-49.98-58.658-59.207a1,1,0,1,1,.433-1.953c42.814,9.487,65.317,32.48,60.194,61.508C535.3,261.89,503.214,263.828,493.51,263.828Z" fill="#231815"/>
        <path d="M386.914,232.282a1,1,0,0,1-.656-1.754l16.378-14.249a1,1,0,1,1,1.312,1.51L387.57,232.037A1,1,0,0,1,386.914,232.282Z" fill="#231815"/>
        <path d="M382.855,199.177a1,1,0,0,1-.517-1.857L409.7,180.808a1,1,0,0,1,1.033,1.713l-27.363,16.512A.99.99,0,0,1,382.855,199.177Z" fill="#231815"/>
        <g>
          <path d="M425.87,199.3l5.835-12.566s-1.831-2.791-11.026-2.572c-13.84.328-42.252,15.175-51.522,22.961s-19.043,20.6-8.045,30.91c16.858,15.806,44.842-32.615,57.024-38.27Z" fill="#ee795e"/>
          <path d="M368.73,242.192a11.857,11.857,0,0,1-8.3-3.427c-3.557-3.334-5.3-7.171-5.187-11.4.24-8.775,8.418-16.924,13.272-21,8.972-7.537,37.812-22.856,52.141-23.2,9.5-.209,11.668,2.692,11.886,3.024a1,1,0,0,1,.071.969l-5.835,12.567a1,1,0,0,1-.847.577l-7.538.451c-3.778,1.862-9.469,8.293-15.491,15.1-10.717,12.108-22.866,25.832-33.584,26.33Q369.023,242.192,368.73,242.192Zm52.95-57.039c-.316,0-.641,0-.978.011-13.93.331-42.109,15.342-50.9,22.728-4.6,3.861-12.341,11.532-12.559,19.525-.1,3.636,1.433,6.962,4.554,9.889a9.8,9.8,0,0,0,7.429,2.874c9.873-.46,22.241-14.432,32.179-25.658,6.524-7.37,12.158-13.735,16.312-15.663a.981.981,0,0,1,.361-.091l7.138-.428,5.282-11.376C429.675,186.368,427.308,185.153,421.68,185.153Zm4.19,14.15h0Z" fill="#231815"/>
        </g>
      </g>
      <path d="M398.889,91.163s-11.157-.856-11.157,9.964S400.84,111,400.84,111" fill="#f4aeb6"/>
      <path d="M500.119,91.163s11.157-.856,11.157,9.964S498.168,111,498.168,111" fill="#f4aeb6"/>
      <g>
        <g>
          <path d="M449.489,25.151s57.92-4.917,49.825,80.067c0,0,.39,38.354-33.748,59.017H433.412c-32.206-20.432-33.747-59.017-33.747-59.017-8.1-84.984,49.824-80.067,49.824-80.067" fill="#f4aeb6"/>
          <path d="M465.566,165.235H433.412a1,1,0,0,1-.536-.156c-32.274-20.475-34.194-59.43-34.21-59.821-2.956-31.014,2.461-53.756,16.1-67.538a51.2,51.2,0,0,1,69.441,0c13.636,13.776,19.054,36.5,16.1,67.546-.007,1.726-.619,39.479-34.23,59.824A1,1,0,0,1,465.566,165.235Zm-31.862-2h31.582c33-20.151,33.032-57.63,33.028-58.007a.912.912,0,0,1,0-.1c2.9-30.432-2.319-52.629-15.507-65.972-14.238-14.409-33.049-13.018-33.239-13a.786.786,0,0,1-.168,0c-.186-.013-19-1.4-33.238,13-13.188,13.343-18.4,35.54-15.507,65.972C400.68,105.558,402.567,143.29,433.7,163.235Z" fill="#231815"/>
        </g>
        <rect x="438.735" y="131.372" width="21.825" height="9.202" fill="#e84572"/>
        <path d="M458.029,144.512s2.531-.159,2.531-3.74-.555-2.964-2.531-2.964H440.74s-1.992-.617-1.992,1.235-.416,5.372,3.535,5.372S458.029,144.512,458.029,144.512Z" fill="#fff"/>
        <path d="M441.267,127.219s-2.532.159-2.532,3.74.556,2.964,2.532,2.964h17.289s1.992.617,1.992-1.235.416-5.372-3.536-5.372S441.267,127.219,441.267,127.219Z" fill="#fff"/>
        <path d="M457.4,145.353H441.711a4.153,4.153,0,0,1-4.148-4.148V130.366a4.152,4.152,0,0,1,4.148-4.147H457.4a4.152,4.152,0,0,1,4.148,4.147v10.839A4.153,4.153,0,0,1,457.4,145.353Zm-15.689-17.134a2.149,2.149,0,0,0-2.148,2.147v10.839a2.15,2.15,0,0,0,2.148,2.148H457.4a2.15,2.15,0,0,0,2.148-2.148V130.366a2.149,2.149,0,0,0-2.148-2.147Z" fill="#231815"/>
        <path d="M460.745,96.765a5.84,5.84,0,1,0,5.834-5.834A5.825,5.825,0,0,0,460.745,96.765Zm10.261,11.645a11.65,11.65,0,1,1,11.667-11.645A11.646,11.646,0,0,1,471.006,108.41Z" fill="#fff8ee"/>
        <path d="M460.745,96.765a5.84,5.84,0,1,1,5.834,5.822A5.828,5.828,0,0,1,460.745,96.765Zm7.838,0a2,2,0,1,0-4,0,2,2,0,0,0,4,0Z" fill="#97d2ce"/>
        <path d="M466.579,94.761a2,2,0,1,1,0,4,2,2,0,0,1,0-4Z" fill="#231815"/>
        <path d="M421.444,96.765a2,2,0,1,1,1.992,1.992A1.994,1.994,0,0,1,421.444,96.765Z" fill="#231815"/>
        <path d="M423.436,102.587a5.828,5.828,0,1,0-5.845-5.822A5.818,5.818,0,0,0,423.436,102.587Zm4.427,5.823a11.657,11.657,0,1,1,11.645-11.645A11.655,11.655,0,0,1,427.863,108.41Z" fill="#fff8ee"/>
        <path d="M417.591,96.765a5.84,5.84,0,1,1,5.845,5.822A5.837,5.837,0,0,1,417.591,96.765Zm7.849,0a2,2,0,1,0-4,0,2,2,0,0,0,4,0Z" fill="#97d2ce"/>
        <path d="M427.862,109.41a12.657,12.657,0,1,1,12.646-12.645A12.665,12.665,0,0,1,427.862,109.41Zm0-23.313a10.657,10.657,0,1,0,10.646,10.668A10.7,10.7,0,0,0,427.862,86.1Z" fill="#231815"/>
        <path d="M423.437,103.587a6.828,6.828,0,1,1,6.833-6.822A6.841,6.841,0,0,1,423.437,103.587Zm0-11.656a4.828,4.828,0,1,0,4.833,4.834A4.846,4.846,0,0,0,423.437,91.931Z" fill="#231815"/>
        <path d="M424.354,86.352a1,1,0,0,1-.947-.678l-1.439-4.229a1,1,0,1,1,1.892-.644l1.44,4.228a1,1,0,0,1-.624,1.269A.985.985,0,0,1,424.354,86.352Z" fill="#231815"/>
        <path d="M419.459,89.7a.98.98,0,0,1-.775-.375l-3.421-3.356a1,1,0,0,1,1.4-1.428l3.5,3.432a1.025,1.025,0,0,1,.2.282,1,1,0,0,1-.9,1.445Z" fill="#231815"/>
        <path d="M432.29,86.794a.973.973,0,0,1-.321-.053,1,1,0,0,1-.626-1.268l1.439-4.239a1,1,0,0,1,1.9.642l-1.44,4.239A1,1,0,0,1,432.29,86.794Z" fill="#231815"/>
        <path d="M437.161,90.138a1,1,0,0,1-.7-1.713l3.52-3.465a1,1,0,1,1,1.4,1.426l-3.521,3.465A1,1,0,0,1,437.161,90.138Z" fill="#231815"/>
        <path d="M471.006,109.41a12.65,12.65,0,1,1,12.667-12.645A12.66,12.66,0,0,1,471.006,109.41Zm0-23.313a10.673,10.673,0,1,0,7.692,3.28A10.669,10.669,0,0,0,471.006,86.1Z" fill="#231815"/>
        <path d="M466.579,103.587a6.828,6.828,0,1,1,6.845-6.822A6.836,6.836,0,0,1,466.579,103.587Zm0-11.656a4.828,4.828,0,1,0,4.845,4.834A4.84,4.84,0,0,0,466.579,91.931Z" fill="#231815"/>
        <path d="M474.525,86.352a.985.985,0,0,1-.322-.054,1,1,0,0,1-.624-1.269l1.44-4.228a1,1,0,0,1,1.892.644l-1.439,4.229A1,1,0,0,1,474.525,86.352Z" fill="#231815"/>
        <path d="M479.4,89.69A1,1,0,0,1,478.689,88l3.528-3.461a1,1,0,1,1,1.4,1.428l-3.5,3.432A1.026,1.026,0,0,1,479.4,89.69Z" fill="#231815"/>
        <path d="M466.589,86.794a1,1,0,0,1-.947-.679l-1.44-4.239a1,1,0,0,1,1.895-.642l1.439,4.239a1,1,0,0,1-.626,1.268A.973.973,0,0,1,466.589,86.794Z" fill="#231815"/>
        <path d="M461.707,90.138a1,1,0,0,1-.7-.288l-3.51-3.465a1,1,0,0,1,1.4-1.424l3.509,3.465a1,1,0,0,1-.7,1.712Z" fill="#231815"/>
      </g>
      <path d="M449.489,121.34a6.489,6.489,0,0,1-5.241-2.683,6.256,6.256,0,0,1-1.164-5.371c.744-2.452,4.743-13.323,5.4-15.1a1.007,1.007,0,0,1,.173-.453,1.016,1.016,0,0,1,1.83.419c.614,1.664,4.662,12.664,5.412,15.131a6.26,6.26,0,0,1-1.166,5.373A6.489,6.489,0,0,1,449.489,121.34Zm0-20.095c-1.407,3.842-3.935,10.788-4.491,12.621a4.362,4.362,0,0,0,.856,3.6,4.463,4.463,0,0,0,7.27,0,4.366,4.366,0,0,0,.857-3.6C453.425,112.033,450.9,105.087,449.489,101.245Z" fill="#231815"/>
      <g>
        <path d="M416.841,131.146a3.179,3.179,0,0,0,3.062-3.8c-.446-1.471-3.07-8.582-3.07-8.582h.017s-2.624,7.111-3.071,8.582A3.18,3.18,0,0,0,416.841,131.146Z" fill="#97d2ce"/>
        <path d="M416.842,132.146a4.083,4.083,0,0,1-3.3-1.685,3.955,3.955,0,0,1-.722-3.405c.416-1.372,2.615-7.351,3.027-8.468a.987.987,0,0,1,.164-.395,1.009,1.009,0,0,1,1.81.366c.382,1.036,2.617,7.112,3.037,8.5a3.955,3.955,0,0,1-.721,3.405A4.082,4.082,0,0,1,416.842,132.146Zm0-10.454c-.8,2.18-1.845,5.083-2.106,5.944a2.037,2.037,0,0,0,.414,1.634,2.07,2.07,0,0,0,3.382,0,2.029,2.029,0,0,0,.414-1.634C418.686,126.775,417.637,123.872,416.842,121.692Z" fill="#231815"/>
      </g>
      <g>
        <path d="M486.068,123.4a3.179,3.179,0,0,0,3.062-3.8c-.446-1.472-3.07-8.582-3.07-8.582h.016s-2.623,7.11-3.07,8.582A3.18,3.18,0,0,0,486.068,123.4Z" fill="#97d2ce"/>
        <path d="M486.068,124.4a4.082,4.082,0,0,1-3.3-1.685,3.955,3.955,0,0,1-.722-3.405c.417-1.372,2.615-7.351,3.026-8.468a1.018,1.018,0,0,1,.164-.4,1.048,1.048,0,0,1,1.65,0,1.068,1.068,0,0,1,.161.368c.382,1.036,2.617,7.112,3.037,8.5a3.953,3.953,0,0,1-.721,3.4A4.082,4.082,0,0,1,486.068,124.4Zm0-10.455c-.8,2.182-1.843,5.084-2.1,5.946a2.028,2.028,0,0,0,.414,1.633,2.07,2.07,0,0,0,3.383,0,2.024,2.024,0,0,0,.413-1.632C487.912,119.029,486.863,116.127,486.068,113.945Z" fill="#231815"/>
      </g>
      <path d="M399.419,112.019c-1.9,0-6.51-.323-9.643-3.226a9.988,9.988,0,0,1-3.045-7.667,10.441,10.441,0,0,1,3.1-8.025c3.583-3.319,8.906-2.951,9.131-2.936a1,1,0,0,1,.92,1.072,1.014,1.014,0,0,1-1.071.922c-.047-.005-4.7-.309-7.629,2.417a8.541,8.541,0,0,0-2.454,6.55,8.073,8.073,0,0,0,2.4,6.194c3.294,3.06,8.933,2.684,8.993,2.679a1,1,0,0,1,.15,1.994C400.218,112,399.909,112.019,399.419,112.019Z" fill="#231815"/>
      <path d="M399.287,101.658H393.86a1,1,0,0,1,0-2h5.427a1,1,0,0,1,0,2Z" fill="#231815"/>
      <path d="M499.589,112.019c-.49,0-.8-.022-.854-.026a1,1,0,0,1,.151-1.994c.056,0,5.7.381,8.992-2.679a8.071,8.071,0,0,0,2.4-6.194,8.539,8.539,0,0,0-2.453-6.55c-2.932-2.726-7.581-2.421-7.629-2.417a1,1,0,0,1-.15-1.994c.226-.015,5.546-.383,9.13,2.936a10.444,10.444,0,0,1,3.1,8.025,9.983,9.983,0,0,1-3.045,7.667C506.1,111.7,501.485,112.019,499.589,112.019Z" fill="#231815"/>
      <path d="M505.146,101.658h-5.425a1,1,0,0,1,0-2h5.425a1,1,0,0,1,0,2Z" fill="#231815"/>
      <path d="M460.548,138.868H438.563a1,1,0,0,1,0-2h21.985a1,1,0,0,1,0,2Z" fill="#231815"/>
      <path d="M455.1,145.353a1,1,0,0,1-1-1v-6.485a1,1,0,1,1,2,0v6.485A1,1,0,0,1,455.1,145.353Z" fill="#231815"/>
      <path d="M449.541,145.353a1,1,0,0,1-1-1v-6.485a1,1,0,0,1,2,0v6.485A1,1,0,0,1,449.541,145.353Z" fill="#231815"/>
      <path d="M443.986,145.353a1,1,0,0,1-1-1v-6.485a1,1,0,0,1,2,0v6.485A1,1,0,0,1,443.986,145.353Z" fill="#231815"/>
      <g>
        <path d="M449.475,63.619l42.334-9.2V83.237c0,.914,8.252,7.926,8.252,7.926l-.386-52.588,3.245-6.764c-17.809-22.435-53.46-22.74-53.46-22.74h.029s-31.772-1.579-53.459,22.74l3.245,6.764-.386,52.588s8.252-7.012,8.252-7.926v-28.5Z" fill="#ee795e"/>
        <path d="M500.061,92.162a1,1,0,0,1-.648-.238c-8.6-7.311-8.6-8.206-8.6-8.687V55.657L449.687,64.6a1.01,1.01,0,0,1-.417,0l-41.129-8.634V83.237c0,.481,0,1.376-8.605,8.687a1,1,0,0,1-1.647-.77l.384-52.356-3.144-6.555a1,1,0,0,1,.155-1.1C417,6.8,449.1,8.056,449.537,8.071c1.771.036,36.637,1.036,54.166,23.118a1,1,0,0,1,.118,1.054L500.677,38.8l.384,52.356a1,1,0,0,1-1,1.008ZM397.222,31.983l2.955,6.159a1,1,0,0,1,.1.44l-.37,50.386a62.539,62.539,0,0,0,6.236-5.924V54.733a1,1,0,0,1,1.2-.979L449.471,62.6,491.6,53.439a1,1,0,0,1,1.213.977V83.044a62.438,62.438,0,0,0,6.234,5.924l-.369-50.386a1,1,0,0,1,.1-.44l2.972-6.2C484.3,10.614,449.8,10.073,449.452,10.07c-.026,0-.053,0-.078,0C447.76,10.018,417.844,9.351,397.222,31.983Z" fill="#231815"/>
      </g>
      <g>
        <path d="M434.94,67.833a3.18,3.18,0,0,0,3.062-3.8c-.447-1.471-3.071-8.582-3.071-8.582h.017s-2.624,7.111-3.07,8.582A3.179,3.179,0,0,0,434.94,67.833Z" fill="#97d2ce"/>
        <path d="M434.939,68.833a4.08,4.08,0,0,1-3.3-1.685,3.956,3.956,0,0,1-.721-3.406c.417-1.373,2.62-7.367,3.027-8.471a1.007,1.007,0,0,1,.163-.392,1.009,1.009,0,0,1,1.809.362c.377,1.024,2.617,7.116,3.039,8.5a3.959,3.959,0,0,1-.722,3.407A4.082,4.082,0,0,1,434.939,68.833Zm0-10.455c-.794,2.182-1.843,5.084-2.1,5.945a2.024,2.024,0,0,0,.413,1.633,2.07,2.07,0,0,0,3.383,0,2.028,2.028,0,0,0,.414-1.634C436.783,63.462,435.735,60.56,434.939,58.378Z" fill="#231815"/>
      </g>
      <path d="M444.016,134.7a1,1,0,0,1-1-1v-6.484a1,1,0,0,1,2,0V133.7A1,1,0,0,1,444.016,134.7Z" fill="#231815"/>
      <path d="M449.57,134.7a1,1,0,0,1-1-1v-6.484a1,1,0,0,1,2,0V133.7A1,1,0,0,1,449.57,134.7Z" fill="#231815"/>
      <path d="M455.125,134.7a1,1,0,0,1-1-1v-6.484a1,1,0,0,1,2,0V133.7A1,1,0,0,1,455.125,134.7Z" fill="#231815"/>
      <path d="M468.283,133.567a1,1,0,0,1-.891-1.451,5.255,5.255,0,0,0,.531-4.442,5.629,5.629,0,0,0-3.2-2.7,1,1,0,0,1,.583-1.913,7.582,7.582,0,0,1,4.451,3.81c.767,1.791.573,3.858-.579,6.144A1,1,0,0,1,468.283,133.567Z" fill="#231815"/>
      <g clip-path="url(#clip-path)">
        <g>
          <path d="M449.844,130.983a13.368,13.368,0,0,1,7.019,8.714,19.446,19.446,0,0,1-1.347,11.922l3.844,4.9-7.857,1.845,1.263-6.1a24.583,24.583,0,0,1-5.089-10.2A14.223,14.223,0,0,1,449.844,130.983Z" fill="#97d2ce"/>
          <path d="M451.5,159.363a1,1,0,0,1-.98-1.2l1.163-5.618a26.006,26.006,0,0,1-4.984-10.254,15.139,15.139,0,0,1,2.345-11.912,1,1,0,0,1,1.2-.31,14.285,14.285,0,0,1,7.592,9.4,20.271,20.271,0,0,1-1.161,12.01l3.471,4.424a1,1,0,0,1-.558,1.59l-7.857,1.844A.985.985,0,0,1,451.5,159.363ZM450.185,132.3a13.258,13.258,0,0,0-1.535,9.531,23.868,23.868,0,0,0,4.852,9.756,1,1,0,0,1,.243.879l-.944,4.565,4.805-1.128-2.877-3.667a1,1,0,0,1-.108-1.064,18.6,18.6,0,0,0,1.269-11.247A12.392,12.392,0,0,0,450.185,132.3Z" fill="#231815"/>
        </g>
      </g>
      <path d="M460.548,134.7H438.563a1,1,0,0,1,0-2h21.985a1,1,0,0,1,0,2Z" fill="#231815"/>
      <path d="M496.813,150.478a1,1,0,0,1-.579-1.817c4.751-3.363,3.176-6.974,3.107-7.127a1,1,0,0,1,1.808-.853c.026.052,2.408,5.247-3.758,9.613A1,1,0,0,1,496.813,150.478Z" fill="#231815"/>
      <path d="M501.886,152.561a1,1,0,0,1-.579-1.817c4.751-3.363,3.176-6.975,3.107-7.128a1,1,0,0,1,1.809-.853c.025.053,2.406,5.248-3.76,9.614A1,1,0,0,1,501.886,152.561Z" fill="#231815"/>
      <path d="M404.272,149.887a1,1,0,0,1-.324-.055c-.054-.018-5.43-1.958-4.225-9.418a1,1,0,1,1,1.974.319c-.928,5.747,2.752,7.154,2.909,7.211a1,1,0,0,1-.334,1.943Z" fill="#231815"/>
      <path d="M399.232,152.047a1,1,0,0,1-.324-.055c-.054-.018-5.43-1.958-4.225-9.418a1,1,0,1,1,1.974.319c-.928,5.747,2.752,7.154,2.909,7.211a1,1,0,0,1-.334,1.943Z" fill="#231815"/>
      <g>
        <g>
          <path d="M184.789,226.507l2.524-13.47s12.506-8.445,17.554-8.789-2.983,12.621-2.983,12.621l-.6,20.308-12.94,6.323Z" fill="#121659"/>
          <path d="M256.635,197.626h6.038s24.867,1,24.867,23.862v87.434H194.361V221.488c0-22.866,24.867-23.862,24.867-23.862h37.407Z" fill="#e84572"/>
          <path d="M226.393,214.827s-3.24-5.875-5.843-.269l-2.6,5.605s-3.327,2.635,1.721,2.635h12.965s4.475.726,1.148-1.913S226.393,214.827,226.393,214.827Z" fill="#f4aeb6"/>
          <path d="M191.312,115.679s-10.93-.838-10.93,9.761,12.842,9.67,12.842,9.67" fill="#f4aeb6"/>
          <path d="M290.486,115.679s10.93-.838,10.93,9.761-12.842,9.67-12.842,9.67" fill="#f4aeb6"/>
          <g>
            <path d="M240.885,51.008s56.743-4.817,48.813,78.441c0,0,.382,37.574-33.063,57.818h-31.5c-31.553-20.017-33.063-57.818-33.063-57.818-7.93-83.258,48.813-78.441,48.813-78.441" fill="#f4aeb6"/>
            <path d="M240.968,174.142s-7.815,7.3-12.394,8.371-7.639,2.108-6.105,3.258,3.195,1.789,9.2,1.789h21.469s4.626-.472,5.636-1.642,3.469-1.425-.78-2.83S245.538,179.044,240.968,174.142Z" fill="#121659"/>
            <path d="M256.636,188.267h-31.5a1,1,0,0,1-.536-.155c-31.629-20.067-33.511-58.241-33.526-58.624-2.9-30.389,2.412-52.674,15.782-66.181a45.844,45.844,0,0,1,34.03-13.3,45.856,45.856,0,0,1,34.03,13.3c13.363,13.5,18.673,35.768,15.783,66.189-.008,1.709-.614,38.695-33.545,58.626A.994.994,0,0,1,256.636,188.267Zm-31.209-2h30.928c32.342-19.755,32.347-56.44,32.343-56.809a.916.916,0,0,1,0-.1c2.839-29.808-2.27-51.548-15.186-64.617C259.575,50.63,241.151,51.992,240.969,52a.786.786,0,0,1-.168,0c-.184-.015-18.6-1.376-32.548,12.733-12.915,13.069-18.024,34.809-15.186,64.617C193.087,129.78,194.932,166.733,225.427,186.267Z" fill="#231815"/>
            <g>
              <polyline points="203.312 94.667 191.572 116.626 188.964 115.452 189.895 91.246" fill="#121659"/>
              <path d="M191.571,117.606a.99.99,0,0,1-.4-.087l-2.608-1.175a.981.981,0,0,1-.577-.931l.931-24.2a.979.979,0,0,1,1.957.076l-.905,23.545,1.173.529L202.448,94.2a.979.979,0,0,1,1.727.924l-11.739,21.96A.981.981,0,0,1,191.571,117.606Z" fill="#231815"/>
            </g>
            <g>
              <polyline points="278.407 94.667 290.146 116.626 292.754 115.452 291.823 91.246" fill="#121659"/>
              <path d="M290.147,117.606a.981.981,0,0,1-.864-.518l-11.74-21.96a.979.979,0,0,1,1.727-.924l11.308,21.154,1.172-.528-.9-23.546a.979.979,0,0,1,1.957-.076l.93,24.205a.979.979,0,0,1-.576.931l-2.607,1.175A.994.994,0,0,1,290.147,117.606Z" fill="#231815"/>
            </g>
            <path d="M260.359,121.167a5.721,5.721,0,1,0,5.715-5.715A5.707,5.707,0,0,0,260.359,121.167Zm1.605,11.409A11.413,11.413,0,1,1,273.4,121.167,11.409,11.409,0,0,1,261.964,132.576Z" fill="#fff8ee"/>
            <path d="M260.359,121.167a5.721,5.721,0,1,1,5.715,5.7A5.709,5.709,0,0,1,260.359,121.167Zm7.678,0a1.958,1.958,0,1,0-1.963,1.952A1.962,1.962,0,0,0,268.037,121.167Z" fill="#97d2ce"/>
            <path d="M266.074,119.2a1.958,1.958,0,1,1-1.952,1.963A1.962,1.962,0,0,1,266.074,119.2Z" fill="#231815"/>
            <path d="M221.856,121.167a1.958,1.958,0,1,1,1.952,1.952A1.953,1.953,0,0,1,221.856,121.167Z" fill="#231815"/>
            <path d="M222.859,126.871a5.71,5.71,0,1,0-5.726-5.7A5.7,5.7,0,0,0,222.859,126.871Zm-3.162,5.7a11.42,11.42,0,1,1,11.409-11.409A11.418,11.418,0,0,1,219.7,132.576Z" fill="#fff8ee"/>
            <path d="M218.082,121.167a5.721,5.721,0,1,1,5.726,5.7A5.718,5.718,0,0,1,218.082,121.167Zm7.689,0a1.958,1.958,0,1,0-1.963,1.952A1.963,1.963,0,0,0,225.771,121.167Z" fill="#97d2ce"/>
            <path d="M219.7,133.575a12.419,12.419,0,1,1,12.409-12.408A12.428,12.428,0,0,1,219.7,133.575Zm0-22.838a10.419,10.419,0,1,0,10.409,10.43A10.461,10.461,0,0,0,219.7,110.737Z" fill="#231815"/>
            <path d="M223.808,127.871a6.71,6.71,0,1,1,6.714-6.7A6.724,6.724,0,0,1,223.808,127.871Zm0-11.42a4.71,4.71,0,1,0,4.714,4.716A4.727,4.727,0,0,0,223.808,116.451Z" fill="#231815"/>
            <path d="M216.26,110.986a1,1,0,0,1-.947-.678l-1.41-4.143a1,1,0,0,1,1.893-.644l1.41,4.142a1,1,0,0,1-.624,1.269A.98.98,0,0,1,216.26,110.986Z" fill="#231815"/>
            <path d="M211.465,114.264a.986.986,0,0,1-.773-.372l-3.353-3.29a1,1,0,1,1,1.4-1.428l3.427,3.362a.983.983,0,0,1,.194.267,1.006,1.006,0,0,1-.9,1.461Z" fill="#231815"/>
            <path d="M224.035,111.419a.973.973,0,0,1-.321-.053,1,1,0,0,1-.626-1.268l1.41-4.153a1,1,0,0,1,1.9.642l-1.411,4.153A1,1,0,0,1,224.035,111.419Z" fill="#231815"/>
            <path d="M228.807,114.7a1,1,0,0,1-.7-1.713l3.45-3.395a1,1,0,0,1,1.4,1.426l-3.449,3.394A1,1,0,0,1,228.807,114.7Z" fill="#231815"/>
            <path d="M261.964,133.575A12.412,12.412,0,1,1,274.4,121.167,12.422,12.422,0,0,1,261.964,133.575Zm0-22.838a10.437,10.437,0,1,0,7.521,3.207A10.43,10.43,0,0,0,261.964,110.737Z" fill="#231815"/>
            <path d="M266.074,127.871a6.71,6.71,0,1,1,6.727-6.7A6.718,6.718,0,0,1,266.074,127.871Zm0-11.42a4.71,4.71,0,1,0,4.727,4.716A4.722,4.722,0,0,0,266.074,116.451Z" fill="#231815"/>
            <path d="M265.413,110.986a.985.985,0,0,1-.322-.054,1,1,0,0,1-.624-1.269l1.409-4.142a1,1,0,0,1,1.893.644l-1.41,4.143A1,1,0,0,1,265.413,110.986Z" fill="#231815"/>
            <path d="M270.19,114.255a.993.993,0,0,1-.712-1.69l3.455-3.391a1,1,0,1,1,1.4,1.428l-3.427,3.362A1.023,1.023,0,0,1,270.19,114.255Z" fill="#231815"/>
            <path d="M257.637,111.419a1,1,0,0,1-.948-.679l-1.409-4.153a1,1,0,0,1,1.9-.642l1.409,4.153a1,1,0,0,1-.626,1.268A.973.973,0,0,1,257.637,111.419Z" fill="#231815"/>
            <path d="M252.854,114.7a1,1,0,0,1-.7-.289l-3.437-3.394a1,1,0,1,1,1.406-1.424l3.438,3.4a1,1,0,0,1-.7,1.712Z" fill="#231815"/>
          </g>
          <g>
            <polygon points="269.616 308.922 209.205 308.922 209.205 300.724 211.097 295.994 211.097 235.726 209.205 230.996 209.205 222.798 269.616 222.798 269.616 230.996 267.724 235.726 267.724 295.994 269.616 300.724 269.616 308.922" fill="#fff"/>
            <g clip-path="url(#clip-path-2)">
              <g>
                <g>
                  <circle cx="218.064" cy="294.052" r="5.518" fill="#ee795e"/>
                  <path d="M218.063,300.57a6.518,6.518,0,1,1,6.519-6.518A6.525,6.525,0,0,1,218.063,300.57Zm0-11.036a4.518,4.518,0,1,0,4.519,4.518A4.523,4.523,0,0,0,218.063,289.534Z" fill="#231815"/>
                </g>
                <g>
                  <circle cx="229.099" cy="294.052" r="5.518" fill="#ee795e"/>
                  <path d="M229.1,300.57a6.518,6.518,0,1,1,6.517-6.518A6.525,6.525,0,0,1,229.1,300.57Zm0-11.036a4.518,4.518,0,1,0,4.517,4.518A4.523,4.523,0,0,0,229.1,289.534Z" fill="#231815"/>
                </g>
                <g>
                  <circle cx="240.135" cy="294.052" r="5.518" fill="#ee795e"/>
                  <path d="M240.135,300.57a6.518,6.518,0,1,1,6.518-6.518A6.525,6.525,0,0,1,240.135,300.57Zm0-11.036a4.518,4.518,0,1,0,4.518,4.518A4.523,4.523,0,0,0,240.135,289.534Z" fill="#231815"/>
                </g>
                <g>
                  <circle cx="251.171" cy="294.052" r="5.518" fill="#ee795e"/>
                  <path d="M251.171,300.57a6.518,6.518,0,1,1,6.517-6.518A6.525,6.525,0,0,1,251.171,300.57Zm0-11.036a4.518,4.518,0,1,0,4.517,4.518A4.523,4.523,0,0,0,251.171,289.534Z" fill="#231815"/>
                </g>
                <g>
                  <circle cx="262.206" cy="294.052" r="5.518" fill="#ee795e"/>
                  <path d="M262.206,300.57a6.518,6.518,0,1,1,6.519-6.518A6.525,6.525,0,0,1,262.206,300.57Zm0-11.036a4.518,4.518,0,1,0,4.519,4.518A4.523,4.523,0,0,0,262.206,289.534Z" fill="#231815"/>
                </g>
              </g>
              <g>
                <g>
                  <circle cx="212.546" cy="283.017" r="5.518" fill="#ee795e"/>
                  <path d="M212.546,289.534a6.518,6.518,0,1,1,6.517-6.517A6.525,6.525,0,0,1,212.546,289.534Zm0-11.035a4.518,4.518,0,1,0,4.517,4.518A4.523,4.523,0,0,0,212.546,278.5Z" fill="#231815"/>
                </g>
                <g>
                  <circle cx="223.582" cy="283.017" r="5.518" fill="#ee795e"/>
                  <path d="M223.582,289.534a6.518,6.518,0,1,1,6.518-6.517A6.525,6.525,0,0,1,223.582,289.534Zm0-11.035a4.518,4.518,0,1,0,4.518,4.518A4.524,4.524,0,0,0,223.582,278.5Z" fill="#231815"/>
                </g>
                <g>
                  <circle cx="234.617" cy="283.017" r="5.518" fill="#ee795e"/>
                  <path d="M234.617,289.534a6.518,6.518,0,1,1,6.518-6.517A6.524,6.524,0,0,1,234.617,289.534Zm0-11.035a4.518,4.518,0,1,0,4.518,4.518A4.523,4.523,0,0,0,234.617,278.5Z" fill="#231815"/>
                </g>
                <g>
                  <circle cx="245.653" cy="283.017" r="5.518" fill="#ee795e"/>
                  <path d="M245.653,289.534a6.518,6.518,0,1,1,6.518-6.517A6.525,6.525,0,0,1,245.653,289.534Zm0-11.035a4.518,4.518,0,1,0,4.518,4.518A4.523,4.523,0,0,0,245.653,278.5Z" fill="#231815"/>
                </g>
                <g>
                  <circle cx="256.689" cy="283.017" r="5.518" fill="#ee795e"/>
                  <path d="M256.688,289.534a6.518,6.518,0,1,1,6.518-6.517A6.524,6.524,0,0,1,256.688,289.534Zm0-11.035a4.518,4.518,0,1,0,4.518,4.518A4.523,4.523,0,0,0,256.688,278.5Z" fill="#231815"/>
                </g>
                <g>
                  <circle cx="267.724" cy="283.017" r="5.518" fill="#ee795e"/>
                  <path d="M267.725,289.534a6.518,6.518,0,1,1,6.517-6.517A6.525,6.525,0,0,1,267.725,289.534Zm0-11.035a4.518,4.518,0,1,0,4.517,4.518A4.524,4.524,0,0,0,267.725,278.5Z" fill="#231815"/>
                </g>
              </g>
              <g>
                <g>
                  <circle cx="218.064" cy="271.981" r="5.518" fill="#ee795e"/>
                  <path d="M218.063,278.5a6.518,6.518,0,1,1,6.519-6.518A6.525,6.525,0,0,1,218.063,278.5Zm0-11.036a4.518,4.518,0,1,0,4.519,4.518A4.522,4.522,0,0,0,218.063,267.463Z" fill="#231815"/>
                </g>
                <g>
                  <circle cx="229.099" cy="271.981" r="5.518" fill="#ee795e"/>
                  <path d="M229.1,278.5a6.518,6.518,0,1,1,6.517-6.518A6.525,6.525,0,0,1,229.1,278.5Zm0-11.036a4.518,4.518,0,1,0,4.517,4.518A4.522,4.522,0,0,0,229.1,267.463Z" fill="#231815"/>
                </g>
                <g>
                  <circle cx="240.135" cy="271.981" r="5.518" fill="#ee795e"/>
                  <path d="M240.135,278.5a6.518,6.518,0,1,1,6.518-6.518A6.525,6.525,0,0,1,240.135,278.5Zm0-11.036a4.518,4.518,0,1,0,4.518,4.518A4.523,4.523,0,0,0,240.135,267.463Z" fill="#231815"/>
                </g>
                <g>
                  <circle cx="251.171" cy="271.981" r="5.518" fill="#ee795e"/>
                  <path d="M251.171,278.5a6.518,6.518,0,1,1,6.517-6.518A6.525,6.525,0,0,1,251.171,278.5Zm0-11.036a4.518,4.518,0,1,0,4.517,4.518A4.523,4.523,0,0,0,251.171,267.463Z" fill="#231815"/>
                </g>
                <g>
                  <circle cx="262.206" cy="271.981" r="5.518" fill="#ee795e"/>
                  <path d="M262.206,278.5a6.518,6.518,0,1,1,6.519-6.518A6.525,6.525,0,0,1,262.206,278.5Zm0-11.036a4.518,4.518,0,1,0,4.519,4.518A4.523,4.523,0,0,0,262.206,267.463Z" fill="#231815"/>
                </g>
              </g>
              <g>
                <g>
                  <circle cx="212.546" cy="260.945" r="5.518" fill="#ee795e"/>
                  <path d="M212.546,267.463a6.518,6.518,0,1,1,6.517-6.518A6.525,6.525,0,0,1,212.546,267.463Zm0-11.036a4.518,4.518,0,1,0,4.517,4.518A4.523,4.523,0,0,0,212.546,256.427Z" fill="#231815"/>
                </g>
                <g>
                  <circle cx="223.582" cy="260.945" r="5.518" fill="#ee795e"/>
                  <path d="M223.582,267.463a6.518,6.518,0,1,1,6.518-6.518A6.526,6.526,0,0,1,223.582,267.463Zm0-11.036a4.518,4.518,0,1,0,4.518,4.518A4.524,4.524,0,0,0,223.582,256.427Z" fill="#231815"/>
                </g>
                <g>
                  <circle cx="234.617" cy="260.945" r="5.518" fill="#ee795e"/>
                  <path d="M234.617,267.463a6.518,6.518,0,1,1,6.518-6.518A6.525,6.525,0,0,1,234.617,267.463Zm0-11.036a4.518,4.518,0,1,0,4.518,4.518A4.523,4.523,0,0,0,234.617,256.427Z" fill="#231815"/>
                </g>
                <g>
                  <circle cx="245.653" cy="260.945" r="5.518" fill="#ee795e"/>
                  <path d="M245.653,267.463a6.518,6.518,0,1,1,6.518-6.518A6.525,6.525,0,0,1,245.653,267.463Zm0-11.036a4.518,4.518,0,1,0,4.518,4.518A4.523,4.523,0,0,0,245.653,256.427Z" fill="#231815"/>
                </g>
                <g>
                  <circle cx="256.689" cy="260.945" r="5.518" fill="#ee795e"/>
                  <path d="M256.688,267.463a6.518,6.518,0,1,1,6.518-6.518A6.525,6.525,0,0,1,256.688,267.463Zm0-11.036a4.518,4.518,0,1,0,4.518,4.518A4.523,4.523,0,0,0,256.688,256.427Z" fill="#231815"/>
                </g>
                <g>
                  <circle cx="267.724" cy="260.945" r="5.518" fill="#ee795e"/>
                  <path d="M267.725,267.463a6.518,6.518,0,1,1,6.517-6.518A6.526,6.526,0,0,1,267.725,267.463Zm0-11.036a4.518,4.518,0,1,0,4.517,4.518A4.524,4.524,0,0,0,267.725,256.427Z" fill="#231815"/>
                </g>
              </g>
              <g>
                <g>
                  <circle cx="218.064" cy="249.91" r="5.518" fill="#ee795e"/>
                  <path d="M218.063,256.427a6.518,6.518,0,1,1,6.519-6.518A6.525,6.525,0,0,1,218.063,256.427Zm0-11.035a4.518,4.518,0,1,0,4.519,4.517A4.522,4.522,0,0,0,218.063,245.392Z" fill="#231815"/>
                </g>
                <g>
                  <circle cx="229.099" cy="249.91" r="5.518" fill="#ee795e"/>
                  <path d="M229.1,256.427a6.518,6.518,0,1,1,6.517-6.518A6.525,6.525,0,0,1,229.1,256.427Zm0-11.035a4.518,4.518,0,1,0,4.517,4.517A4.522,4.522,0,0,0,229.1,245.392Z" fill="#231815"/>
                </g>
                <g>
                  <circle cx="240.135" cy="249.91" r="5.518" fill="#ee795e"/>
                  <path d="M240.135,256.427a6.518,6.518,0,1,1,6.518-6.518A6.525,6.525,0,0,1,240.135,256.427Zm0-11.035a4.518,4.518,0,1,0,4.518,4.517A4.523,4.523,0,0,0,240.135,245.392Z" fill="#231815"/>
                </g>
                <g>
                  <circle cx="251.171" cy="249.91" r="5.518" fill="#ee795e"/>
                  <path d="M251.171,256.427a6.518,6.518,0,1,1,6.517-6.518A6.525,6.525,0,0,1,251.171,256.427Zm0-11.035a4.518,4.518,0,1,0,4.517,4.517A4.523,4.523,0,0,0,251.171,245.392Z" fill="#231815"/>
                </g>
                <g>
                  <circle cx="262.206" cy="249.91" r="5.518" fill="#ee795e"/>
                  <path d="M262.206,256.427a6.518,6.518,0,1,1,6.519-6.518A6.525,6.525,0,0,1,262.206,256.427Zm0-11.035a4.518,4.518,0,1,0,4.519,4.517A4.523,4.523,0,0,0,262.206,245.392Z" fill="#231815"/>
                </g>
              </g>
              <g>
                <g>
                  <circle cx="212.546" cy="238.874" r="5.518" fill="#ee795e"/>
                  <path d="M212.546,245.392a6.518,6.518,0,1,1,6.517-6.518A6.525,6.525,0,0,1,212.546,245.392Zm0-11.036a4.518,4.518,0,1,0,4.517,4.518A4.523,4.523,0,0,0,212.546,234.356Z" fill="#231815"/>
                </g>
                <g>
                  <circle cx="223.582" cy="238.874" r="5.518" fill="#ee795e"/>
                  <path d="M223.582,245.392a6.518,6.518,0,1,1,6.518-6.518A6.526,6.526,0,0,1,223.582,245.392Zm0-11.036a4.518,4.518,0,1,0,4.518,4.518A4.524,4.524,0,0,0,223.582,234.356Z" fill="#231815"/>
                </g>
                <g>
                  <circle cx="234.617" cy="238.874" r="5.518" fill="#ee795e"/>
                  <path d="M234.617,245.392a6.518,6.518,0,1,1,6.518-6.518A6.525,6.525,0,0,1,234.617,245.392Zm0-11.036a4.518,4.518,0,1,0,4.518,4.518A4.523,4.523,0,0,0,234.617,234.356Z" fill="#231815"/>
                </g>
                <g>
                  <circle cx="245.653" cy="238.874" r="5.518" fill="#ee795e"/>
                  <path d="M245.653,245.392a6.518,6.518,0,1,1,6.518-6.518A6.525,6.525,0,0,1,245.653,245.392Zm0-11.036a4.518,4.518,0,1,0,4.518,4.518A4.523,4.523,0,0,0,245.653,234.356Z" fill="#231815"/>
                </g>
                <g>
                  <circle cx="256.689" cy="238.874" r="5.518" fill="#ee795e"/>
                  <path d="M256.688,245.392a6.518,6.518,0,1,1,6.518-6.518A6.525,6.525,0,0,1,256.688,245.392Zm0-11.036a4.518,4.518,0,1,0,4.518,4.518A4.523,4.523,0,0,0,256.688,234.356Z" fill="#231815"/>
                </g>
                <g>
                  <circle cx="256.635" cy="239.042" r="5.518" fill="#ee795e"/>
                  <path d="M256.636,245.56a6.518,6.518,0,1,1,6.517-6.518A6.526,6.526,0,0,1,256.636,245.56Zm0-11.035a4.518,4.518,0,1,0,4.517,4.517A4.523,4.523,0,0,0,256.636,234.525Z" fill="#231815"/>
                </g>
                <g>
                  <circle cx="267.724" cy="238.874" r="5.518" fill="#ee795e"/>
                  <path d="M267.725,245.392a6.518,6.518,0,1,1,6.517-6.518A6.526,6.526,0,0,1,267.725,245.392Zm0-11.036a4.518,4.518,0,1,0,4.517,4.518A4.524,4.524,0,0,0,267.725,234.356Z" fill="#231815"/>
                </g>
              </g>
            </g>
            <path d="M270.616,309.922H208.205v-9.391L210.1,295.8V235.918l-1.892-4.729V221.8h62.411v9.391l-1.891,4.729V295.8l1.891,4.729Zm-60.411-2h58.411v-7.006l-1.891-4.729V235.533l1.891-4.729V223.8H210.205V230.8l1.892,4.729v60.654l-1.892,4.729Z" fill="#231815"/>
            <rect x="209.205" y="229.996" width="60.411" height="2" fill="#231815"/>
            <rect x="209.205" y="299.724" width="60.411" height="2" fill="#231815"/>
            <g>
              <rect x="227.91" y="245.264" width="23.001" height="41.192" fill="#fff"/>
              <path d="M251.911,287.455h-25V244.264h25Zm-23-2h21V246.264h-21Z" fill="#231815"/>
            </g>
          </g>
          <path d="M240.885,145.263a6.381,6.381,0,0,1-5.152-2.636,6.148,6.148,0,0,1-1.143-5.279c.729-2.4,4.647-13.052,5.289-14.793a.987.987,0,0,1,.172-.45,1.017,1.017,0,0,1,1.829.417c.6,1.631,4.565,12.406,5.3,14.825a6.152,6.152,0,0,1-1.144,5.279A6.379,6.379,0,0,1,240.885,145.263Zm0-19.648c-1.382,3.775-3.839,10.525-4.381,12.313a4.249,4.249,0,0,0,.836,3.508,4.353,4.353,0,0,0,7.091,0,4.255,4.255,0,0,0,.836-3.507C244.724,136.141,242.268,129.39,240.885,125.615Z" fill="#231815"/>
          <path d="M235.759,223.483a1,1,0,0,1-.625-.221l-12.986-10.427a1,1,0,1,1,1.252-1.558L236.386,221.7a1,1,0,0,1-.627,1.78Z" fill="#231815"/>
          <path d="M258.956,268.046l12.254.512c-.275-.287-5.8-5.835-4.809-7.973.845-1.79,3.053-1.271,4.895.419,1.831,1.706,10.579,9.217,10.579,9.217l-.121,11.933s-10.55,9.386-11.6,10.132c-2.282,1.667-3.92,1.356-4.3-.287-.506-2.138,5.147-7.543,5.147-7.543s-11.142.145-12.48.187a3.26,3.26,0,0,1-3.507-3.02c-.054-2.274,3.324-2.819,3.324-2.819-2.151.116-3.513-1.239-3.389-2.985.13-2.265,3.187-2.486,3.55-2.494-1.475-.1-3.725-.936-3.523-3.031C255.217,267.744,258.956,268.046,258.956,268.046Z" fill="#f4aeb6"/>
          <path d="M270.128,280.176H270.1l-11.782-.372a4.269,4.269,0,0,1-3.331-1.191,3.648,3.648,0,0,1-1.023-2.864c.149-2.622,3.024-3.386,4.522-3.424h.025a1,1,0,0,1,.024,2c-.025,0-2.492.1-2.576,1.553a1.665,1.665,0,0,0,.454,1.333,2.436,2.436,0,0,0,1.883.6l11.866.372a1,1,0,0,1-.03,2Z" fill="#231815"/>
          <path d="M270.321,274.649H270.3c-.411-.01-9.864-.234-11.679-.329-.038,0-.077,0-.112,0l-.069,0a5.5,5.5,0,0,1-3.695-1.654,3.251,3.251,0,0,1-.755-2.47c.255-2.79,3.417-3.269,5.048-3.149l12.216.51a1,1,0,0,1,.957,1.041.983.983,0,0,1-1.041.957l-12.254-.512c-.063-.006-2.795-.193-2.935,1.34a1.245,1.245,0,0,0,.291.99,3.5,3.5,0,0,0,2.2.944.829.829,0,0,1,.15,0c1.423.088,11.618.33,11.721.332a1,1,0,0,1-.024,2Z" fill="#231815"/>
          <path d="M267.506,294.4a2.809,2.809,0,0,1-.983-.171,2.657,2.657,0,0,1-1.635-2c-.428-1.808,1.869-4.738,3.708-6.734-3.357.045-9.11.125-10.035.154-2.211,0-4.458-1.373-4.54-3.988-.058-2.491,2.591-3.584,4.166-3.837a1,1,0,0,1,.321,1.973h0c-.026,0-2.519.459-2.487,1.81.062,2.016,2.41,2.043,2.51,2.043,1.3-.041,12.01-.181,12.466-.187h.013a1,1,0,0,1,.691,1.723c-2.791,2.67-5.064,5.749-4.865,6.59.108.477.318.555.387.582.368.136,1.176-.019,2.346-.872.725-.518,6.962-6.02,11.19-9.779l.111-11.023c-1.676-1.44-8.619-7.417-10.256-8.941a3.7,3.7,0,0,0-2.7-1.249.8.8,0,0,0-.6.525c-.274.589.954,3.082,4.544,6.769a1,1,0,0,1-.437,1.756,1.05,1.05,0,0,1-.925-.287c-4.156-4.263-5.821-7.305-4.994-9.086a2.826,2.826,0,0,1,2.031-1.64c1.33-.261,2.955.374,4.447,1.744,1.8,1.677,10.467,9.12,10.554,9.2a1,1,0,0,1,.349.769l-.121,11.931a1.006,1.006,0,0,1-.335.738c-1.084.964-10.621,9.444-11.679,10.2A5.6,5.6,0,0,1,267.506,294.4Z" fill="#231815"/>
          <path d="M240.95,309.922H194.361a1,1,0,0,1-1-1V221.487c0-12.322,7.062-18.438,12.987-21.4a34.845,34.845,0,0,1,12.839-3.461h6.079a1,1,0,0,1,0,2h-6.038a33.467,33.467,0,0,0-12.042,3.278c-7.846,3.945-11.825,10.534-11.825,19.583v86.435H240.95a1,1,0,1,1,0,2Z" fill="#231815"/>
          <path d="M287.54,309.922H240.95a1,1,0,0,1,0-2h45.59V221.487c0-9.049-3.978-15.638-11.825-19.583a33.428,33.428,0,0,0-12.083-3.279h-6a1,1,0,0,1,0-2h6.037a34.819,34.819,0,0,1,12.881,3.462c5.924,2.961,12.986,9.077,12.986,21.4v87.435A1,1,0,0,1,287.54,309.922Z" fill="#231815"/>
          <path d="M287.54,239.042s22.848,5.482,21.133,17.772-26.8,10.777-26.8,10.777V285.8s42.823,2.821,47.968-26.333-18.527-51.3-59.426-60.357" fill="#e84572"/>
          <path d="M284.579,286.861c-1.693,0-2.7-.06-2.769-.064a1,1,0,0,1-.935-1V267.591a1,1,0,0,1,.314-.728,1.062,1.062,0,0,1,.746-.27c.245.017,24.181,1.318,25.748-9.917,1.571-11.262-20.157-16.608-20.376-16.661a1,1,0,1,1,.466-1.945c.969.232,23.709,5.843,21.89,18.882-1.632,11.691-21.824,11.819-26.788,11.682v16.2c6.232.182,41.47.03,45.983-25.547,4.913-27.847-17.014-49.98-58.658-59.207a1,1,0,1,1,.434-1.953c42.813,9.487,65.315,32.48,60.193,61.508C326.365,284.922,294.283,286.861,284.579,286.861Z" fill="#231815"/>
          <path d="M173.925,258.063a1,1,0,0,1-.641-1.769l20.438-17A1,1,0,0,1,195,240.835l-20.438,17A.994.994,0,0,1,173.925,258.063Z" fill="#231815"/>
          <path d="M173.925,222.377a1,1,0,0,1-.522-1.853l27.363-16.681a1,1,0,0,1,1.041,1.707l-27.363,16.681A.991.991,0,0,1,173.925,222.377Z" fill="#231815"/>
          <g>
            <path d="M225.847,172.929a2.95,2.95,0,1,1-2.959-2.958A2.968,2.968,0,0,1,225.847,172.929Z" fill="#ee795e"/>
            <path d="M222.889,176.888a3.959,3.959,0,1,1,3.958-3.958A3.955,3.955,0,0,1,222.889,176.888Zm0-5.917a1.959,1.959,0,1,0,1.958,1.959A1.953,1.953,0,0,0,222.889,170.971Z" fill="#231815"/>
          </g>
          <path d="M191.831,136.132c-1.861,0-6.386-.316-9.46-3.166a9.8,9.8,0,0,1-2.989-7.525,10.246,10.246,0,0,1,3.047-7.877c3.517-3.259,8.739-2.895,8.96-2.882a1,1,0,0,1-.151,1.994c-.049,0-4.595-.3-7.46,2.363a8.348,8.348,0,0,0-2.4,6.4,7.888,7.888,0,0,0,2.342,6.052c3.221,2.993,8.741,2.624,8.794,2.619a1,1,0,0,1,.151,2C192.615,136.111,192.312,136.132,191.831,136.132Z" fill="#231815"/>
          <path d="M191.7,125.982h-5.316a1,1,0,0,1,0-2H191.7a1,1,0,0,1,0,2Z" fill="#231815"/>
          <path d="M289.967,136.132c-.482,0-.784-.021-.838-.025a1,1,0,0,1,.151-2c.053,0,5.574.374,8.794-2.619a7.888,7.888,0,0,0,2.342-6.052,8.351,8.351,0,0,0-2.4-6.4c-2.867-2.665-7.413-2.364-7.459-2.363a1,1,0,0,1-.151-1.994c.22-.016,5.444-.375,8.959,2.881a10.249,10.249,0,0,1,3.047,7.878,9.8,9.8,0,0,1-2.989,7.525C296.353,135.815,291.828,136.132,289.967,136.132Z" fill="#231815"/>
          <path d="M295.412,125.982H290.1a1,1,0,0,1,0-2h5.316a1,1,0,0,1,0,2Z" fill="#231815"/>
          <g>
            <path d="M216.939,222.335l5.835-12.566s-1.831-2.791-11.026-2.572c-13.84.328-42.252,15.175-51.522,22.961S139.368,249.963,152.2,261.1c16.677,14.466,44.82-32.644,57-38.3Z" fill="#e84572"/>
            <path d="M159.328,264.863a11.559,11.559,0,0,1-7.78-3.01c-4.041-3.506-6.072-7.405-6.039-11.589.064-8.165,8.063-15.822,14.074-20.871,8.972-7.536,37.811-22.856,52.142-23.2,9.5-.212,11.668,2.691,11.885,3.024a1,1,0,0,1,.072.97l-5.836,12.566a1,1,0,0,1-.848.577l-7.538.451c-3.809,1.874-9.567,8.236-15.658,14.964C183.032,250.645,170.162,264.862,159.328,264.863Zm53.425-56.678c-.316,0-.643,0-.982.011-13.931.332-42.11,15.342-50.9,22.728-5.708,4.795-13.3,12.018-13.361,19.355-.029,3.573,1.771,6.958,5.349,10.062,10.479,9.094,26.548-8.668,39.46-22.935,6.6-7.286,12.291-13.578,16.466-15.515a.986.986,0,0,1,.362-.091l7.137-.428L221.566,210C220.744,209.4,218.379,208.185,212.753,208.185Zm4.185,14.15h0Z" fill="#231815"/>
          </g>
        </g>
        <g>
          <path d="M275.06,159.055a3.179,3.179,0,0,0,3.062-3.8c-.446-1.471-3.07-8.582-3.07-8.582h.017s-2.624,7.111-3.071,8.582A3.18,3.18,0,0,0,275.06,159.055Z" fill="#97d2ce"/>
          <path d="M275.061,160.055a4.081,4.081,0,0,1-3.3-1.685,3.955,3.955,0,0,1-.722-3.405c.418-1.374,2.621-7.368,3.028-8.473a1.009,1.009,0,0,1,.163-.391,1.009,1.009,0,0,1,1.809.362c.377,1.024,2.617,7.115,3.038,8.5a3.955,3.955,0,0,1-.72,3.4A4.079,4.079,0,0,1,275.061,160.055Zm0-10.455c-.8,2.181-1.844,5.085-2.106,5.946a2.028,2.028,0,0,0,.414,1.633,2.071,2.071,0,0,0,3.383,0,2.027,2.027,0,0,0,.413-1.633C276.9,154.685,275.855,151.781,275.061,149.6Z" fill="#231815"/>
        </g>
        <g>
          <path d="M209.205,154.391a3.179,3.179,0,0,0,3.062-3.8c-.446-1.471-3.07-8.582-3.07-8.582h.016s-2.623,7.111-3.07,8.582A3.18,3.18,0,0,0,209.205,154.391Z" fill="#97d2ce"/>
          <path d="M209.205,155.391a4.079,4.079,0,0,1-3.3-1.686,3.954,3.954,0,0,1-.72-3.405c.416-1.371,2.614-7.35,3.026-8.467a1,1,0,0,1,.164-.4,1.047,1.047,0,0,1,1.649,0,1.025,1.025,0,0,1,.161.366c.382,1.036,2.617,7.112,3.038,8.5a3.96,3.96,0,0,1-.722,3.406A4.081,4.081,0,0,1,209.205,155.391Zm0-10.454c-.8,2.181-1.844,5.083-2.1,5.944a2.026,2.026,0,0,0,.413,1.633,2.069,2.069,0,0,0,3.382,0,2.034,2.034,0,0,0,.415-1.634C211.049,150.021,210,147.118,209.205,144.937Z" fill="#231815"/>
        </g>
        <path d="M240.605,163.562v5.389a24.59,24.59,0,0,1-6.682-.872v-4.517Z" fill="#fff"/>
        <path d="M233.923,163.562v4.517a18.2,18.2,0,0,1-7.988-4.517Z" fill="#fff"/>
        <path d="M247.287,163.562h8a18.11,18.11,0,0,1-8,4.517Z" fill="#fff"/>
        <path d="M247.287,163.562v4.517a24.477,24.477,0,0,1-6.667.872h-.015v-5.389Z" fill="#fff"/>
        <rect x="227.242" y="150.112" width="6.682" height="5.505" fill="#fff"/>
        <rect x="233.923" y="150.112" width="6.682" height="5.505" fill="#fff"/>
        <path d="M227.242,150.112v5.5h-5.534a6.47,6.47,0,0,1,0-1.061,4.861,4.861,0,0,1,4.619-4.444Z" fill="#fff"/>
        <rect x="247.287" y="150.112" width="6.696" height="5.505" fill="#fff"/>
        <rect x="240.605" y="150.112" width="6.682" height="5.505" fill="#fff"/>
        <path d="M259.5,154.556a6.47,6.47,0,0,1,0,1.061h-5.519v-5.5h.915A4.841,4.841,0,0,1,259.5,154.556Z" fill="#fff"/>
        <path d="M253.983,155.617H259.5a13.534,13.534,0,0,1-4.212,7.945H225.935a13.563,13.563,0,0,1-4.227-7.945h32.275Z" fill="#e84572"/>
        <path d="M240.619,169.95h-.014a25.688,25.688,0,0,1-6.952-.908,19.133,19.133,0,0,1-8.421-4.768,14.538,14.538,0,0,1-4.52-8.566,7.573,7.573,0,0,1,0-1.243,5.8,5.8,0,0,1,5.577-5.353H254.9a5.779,5.779,0,0,1,5.6,5.35,7.436,7.436,0,0,1,0,1.232,14.549,14.549,0,0,1-4.51,8.583,19.015,19.015,0,0,1-8.434,4.765A25.606,25.606,0,0,1,240.619,169.95Zm-14.292-18.838a3.793,3.793,0,0,0-3.624,3.542,5.449,5.449,0,0,0,0,.885,12.563,12.563,0,0,0,3.927,7.306,17.164,17.164,0,0,0,7.56,4.271,23.7,23.7,0,0,0,6.413.834h.014a23.623,23.623,0,0,0,6.4-.834,17.052,17.052,0,0,0,7.57-4.264,12.5,12.5,0,0,0,3.92-7.321,5.4,5.4,0,0,0,0-.882,3.781,3.781,0,0,0-3.652-3.538Z" fill="#231815"/>
        <path d="M259.531,156.616H221.708a1,1,0,0,1-1.007-1,.994.994,0,0,1,.992-1H259.5a1.013,1.013,0,0,1,1.015,1A.987.987,0,0,1,259.531,156.616Z" fill="#231815"/>
        <path d="M240.605,156.616a1,1,0,0,1-1-1v-5.5a1,1,0,0,1,2,0v5.5A1,1,0,0,1,240.605,156.616Z" fill="#231815"/>
        <path d="M233.924,156.616a1,1,0,0,1-1-1v-5.5a1,1,0,0,1,2,0v5.5A1,1,0,0,1,233.924,156.616Z" fill="#231815"/>
        <path d="M227.242,156.616a1,1,0,0,1-1-1v-5.5a1,1,0,0,1,2,0v5.5A1,1,0,0,1,227.242,156.616Z" fill="#231815"/>
        <path d="M247.286,156.616a1,1,0,0,1-1-1v-5.5a1,1,0,0,1,2,0v5.5A1,1,0,0,1,247.286,156.616Z" fill="#231815"/>
        <path d="M240.605,169.95a1,1,0,0,1-1-1v-5.388a1,1,0,0,1,2,0v5.388A1,1,0,0,1,240.605,169.95Z" fill="#231815"/>
        <path d="M233.924,169.079a1,1,0,0,1-1-1v-4.517a1,1,0,0,1,2,0v4.517A1,1,0,0,1,233.924,169.079Z" fill="#231815"/>
        <path d="M247.286,169.079a1,1,0,0,1-1-1v-4.517a1,1,0,0,1,2,0v4.517A1,1,0,0,1,247.286,169.079Z" fill="#231815"/>
        <path d="M253.982,156.616a1,1,0,0,1-1-1v-5.5a1,1,0,0,1,2,0v5.5A1,1,0,0,1,253.982,156.616Z" fill="#231815"/>
        <path d="M255.29,164.562H225.935a1,1,0,0,1,0-2H255.29a1,1,0,0,1,0,2Z" fill="#231815"/>
        <path d="M260.359,98.482a1,1,0,0,1-1-1c0-.227-.042-5.551-3.691-5.551s-3.678,5.324-3.678,5.551a1,1,0,0,1-2,0c0-2.8,1.2-7.551,5.678-7.551s5.691,4.746,5.691,7.551A1,1,0,0,1,260.359,98.482Z" fill="#231815"/>
        <path d="M228.694,98.482a1,1,0,0,1-1-1c0-.227-.042-5.551-3.691-5.551s-3.677,5.324-3.677,5.551a1,1,0,0,1-2,0c0-2.8,1.195-7.551,5.677-7.551s5.691,4.746,5.691,7.551A1,1,0,0,1,228.694,98.482Z" fill="#231815"/>
        <g>
          <path d="M256.635,197.626V187.267h-31.37v10.359s.959,10.122,15.685,10.122S256.635,197.626,256.635,197.626Z" fill="#f4aeb6"/>
          <path d="M240.95,208.748c-8,0-12.1-2.95-14.138-5.426a11.29,11.29,0,0,1-2.541-5.6l0-10.453a1,1,0,0,1,1-1h31.37a1,1,0,0,1,1,1v10.359c0,.031,0,.063-.005.095C257.621,197.831,256.407,208.748,240.95,208.748Zm-14.684-20.481v9.359c.034.278,1.107,9.122,14.684,9.122,13.245,0,14.592-8.417,14.686-9.178v-9.3Zm30.37,9.359h0Z" fill="#231815"/>
        </g>
        <g>
          <path d="M197.713,94.647H165.346S166.687,79.2,201.286,79.2" fill="#121659"/>
          <path d="M197.713,95.625H165.347a.979.979,0,0,1-.976-1.063c.059-.667,1.822-16.339,36.915-16.339a.979.979,0,1,1,0,1.957c-27.76,0-33.538,10.126-34.69,13.488h31.117a.979.979,0,0,1,0,1.957Z" fill="#231815"/>
        </g>
        <g>
          <path d="M186.386,94.647H295.324s8.108-61.976-55.331-61.976C181.322,32.671,186.386,94.647,186.386,94.647Z" fill="#e84572"/>
          <path d="M295.324,95.647H186.386a1,1,0,0,1-1-.919c-.024-.29-2.176-29.262,14.829-47.713,9.384-10.182,22.765-15.344,39.775-15.344,19.172,0,33.819,5.612,43.534,16.682,16.228,18.488,12.825,46.146,12.788,46.424A1,1,0,0,1,295.324,95.647Zm-107.991-2H294.421c.418-4.763,1.633-28-12.406-43.986-9.32-10.61-23.457-15.99-42.022-15.99-16.423,0-29.306,4.942-38.3,14.69C186.963,64.338,187.129,88.641,187.333,93.647Z" fill="#231815"/>
        </g>
        <path d="M230.312,86.193s-13.793,1.138-11.266-2.489,6.219-11.893,21.358-11.659S259.3,81.082,259.3,81.082s5.75,5.111-.352,5.111Z" fill="#121659"/>
        <path d="M263.7,95.752a1,1,0,0,1-1-1,27.772,27.772,0,0,0-2.526-10.547c-3.277-6.9-9.084-10.545-17.261-10.837-8.544-.3-15.121,1.775-19.513,6.183-6.18,6.2-5.909,14.968-5.906,15.056a1,1,0,0,1-.96,1.038h-.04a1,1,0,0,1-1-.961c-.016-.394-.3-9.731,6.487-16.545,4.8-4.819,11.843-7.094,21-6.77,21.468.765,21.716,23.156,21.716,23.381a1,1,0,0,1-1,1Z" fill="#231815"/>
        <path d="M262.008,87.193H218.051a1,1,0,0,1,0-2h43.957a1,1,0,0,1,0,2Z" fill="#231815"/>
        <g>
          <path d="M275.757,98.744a3.179,3.179,0,0,0,3.062-3.8c-.446-1.471-3.07-8.582-3.07-8.582h.017s-2.624,7.111-3.071,8.582A3.18,3.18,0,0,0,275.757,98.744Z" fill="#97d2ce"/>
          <path d="M275.758,99.744a4.082,4.082,0,0,1-3.3-1.684,3.96,3.96,0,0,1-.722-3.406c.416-1.372,2.615-7.35,3.027-8.467a.991.991,0,0,1,.164-.4,1.045,1.045,0,0,1,1.649,0,1.059,1.059,0,0,1,.161.366c.382,1.037,2.617,7.113,3.037,8.5a3.961,3.961,0,0,1-.721,3.407A4.084,4.084,0,0,1,275.758,99.744Zm0-10.454c-.8,2.181-1.845,5.083-2.106,5.944a2.035,2.035,0,0,0,.414,1.634,2.071,2.071,0,0,0,3.382,0,2.031,2.031,0,0,0,.414-1.635C277.6,94.373,276.553,91.471,275.758,89.29Z" fill="#231815"/>
        </g>
        <path d="M260.71,185.153a.946.946,0,0,1-.251-.033,49.567,49.567,0,0,1-19.443-9.591,34.762,34.762,0,0,1-19.991,9.621,1,1,0,0,1-.163-2,33.24,33.24,0,0,0,19.377-9.7,1,1,0,0,1,.706-.314.856.856,0,0,1,.72.282c.067.065,6.837,6.537,19.294,9.76a1,1,0,0,1-.249,1.968Z" fill="#231815"/>
      </g>
    </g>
  </g>
</svg>
