<svg xmlns="http://www.w3.org/2000/svg" xmlns:xlink="http://www.w3.org/1999/xlink" width="687" height="366.299" viewBox="0 0 687 366.299">
  <defs>
    <clipPath id="clip-path">
      <polygon points="232.451 153.793 225.302 123.093 206.981 123.093 206.981 153.793 232.451 153.793" fill="none"/>
    </clipPath>
    <clipPath id="clip-path-2">
      <polygon points="147.105 153.793 154.254 123.093 172.575 123.093 172.575 153.793 147.105 153.793" fill="none"/>
    </clipPath>
  </defs>
  <g id="レイヤー_2" data-name="レイヤー 2">
    <g id="レイヤー_1-2" data-name="レイヤー 1">
      <g>
        <g>
          <g>
            <g>
              <path d="M134.408,295.53l-16.941-19.473c11.325-19.689,23.3-25.514,23.3-25.514s13.708-6.805,20.126,9.159c5.075,12.609-16.531,26.386-16.531,26.386A84.432,84.432,0,0,0,134.408,295.53Z" fill="#e84572"/>
              <path d="M96.39,347.874c-.32.225-6.593,4.743-8.55,3.47-1.633-1.071-.8-3.137,1.138-4.668s10.216-8.321,10.216-8.321c3.112-28.943,10.537-48.85,18.273-62.3l16.941,19.473c-18.44,20.59-22.758,45.106-22.758,45.106s7.328,10.646,7.909,11.762c1.29,2.46.741,3.995-.93,4.127-2.172.161-6.641-6.106-6.641-6.106s-1.53,10.8-1.7,12.1a3.193,3.193,0,0,1-3.482,2.937c-2.249-.277-2.268-3.615-2.268-3.615-.213,2.084-1.743,3.2-3.446,2.825-2.2-.459-1.962-3.442-1.918-3.81-.325,1.421-1.476,3.469-3.51,2.976-2.472-.616-1.617-4.183-1.617-4.183Z" fill="#f4aeb6"/>
            </g>
            <g>
              <path d="M101.734,365.552a3.856,3.856,0,0,1-.82-.09c-2.39-.5-2.731-3.191-2.555-4.7a.816.816,0,1,1,1.622.189c-.012.106-.284,2.592,1.274,2.916a1.878,1.878,0,0,0,1.547-.285,2.5,2.5,0,0,0,.921-1.822l2.136-11.414a.816.816,0,1,1,1.605.3l-2.126,11.347a4.04,4.04,0,0,1-1.578,2.912A3.422,3.422,0,0,1,101.734,365.552Z" fill="#231815"/>
              <path d="M96.261,364.721a3.406,3.406,0,0,1-.793-.1c-2.581-.643-2.579-3.661-2.218-5.167l2.339-11.742a.817.817,0,1,1,1.6.318l-2.346,11.774c-.013.057-.641,2.819,1.013,3.23a1.462,1.462,0,0,0,1.168-.17,3.632,3.632,0,0,0,1.339-2.158c0-.023.008-.046.013-.069.308-1.375,2.068-11.207,2.085-11.305a.817.817,0,0,1,1.609.287c-.072.4-1.755,9.8-2.092,11.336a.688.688,0,0,1-.013.077,5.261,5.261,0,0,1-2.081,3.221A3.063,3.063,0,0,1,96.261,364.721Z" fill="#231815"/>
              <path d="M107.244,366.3a4.426,4.426,0,0,1-.541-.034c-2.338-.289-2.976-2.915-2.985-4.42a.818.818,0,0,1,.813-.822h0a.817.817,0,0,1,.817.811c0,.055.053,2.625,1.551,2.809,2.184.265,2.57-2.217,2.574-2.242.171-1.291,1.7-12.1,1.7-12.1a.818.818,0,0,1,1.474-.361c2.031,2.847,4.908,5.828,5.916,5.767.58-.046.723-.3.77-.389a3.141,3.141,0,0,0-.5-2.546c-.41-.787-4.924-7.414-7.858-11.677a.813.813,0,0,1-.132-.6c.044-.247,4.572-24.983,22.954-45.51a85.5,85.5,0,0,1,10.052-9.534c.281-.185,21.046-13.609,16.283-25.444-1.934-4.812-4.732-7.944-8.314-9.309-5.331-2.03-10.638.55-10.691.576-.123.061-11.909,5.989-22.954,25.19-9.389,16.324-15.5,37.177-18.169,61.977a.818.818,0,0,1-.293.544c-.337.278-8.293,6.825-10.233,8.336a3.769,3.769,0,0,0-1.692,2.557.937.937,0,0,0,.5.783c.7.453,3.6-.592,7.6-3.431h0a.821.821,0,0,1,.973-.035.81.81,0,0,1,.211,1.13.889.889,0,0,1-.209.215c-2.666,1.893-7.4,4.833-9.466,3.487a2.561,2.561,0,0,1-1.239-2.079c-.056-1.282.788-2.709,2.316-3.914,1.733-1.349,8.534-6.938,9.946-8.1,2.71-24.883,8.88-45.836,18.341-62.286,11.32-19.679,23.152-25.6,23.65-25.841.236-.117,6-2.917,11.992-.636,4.026,1.533,7.138,4.973,9.249,10.225,2.2,5.474-.054,11.971-6.528,18.789a61.487,61.487,0,0,1-10.322,8.591,84.353,84.353,0,0,0-9.785,9.3c-16.927,18.9-21.9,41.427-22.5,44.38,1.325,1.926,7.215,10.5,7.767,11.564,1.105,2.108.874,3.389.486,4.092a2.483,2.483,0,0,1-2.075,1.228c-1.874.128-4.522-2.774-6.173-4.857-.45,3.173-1.3,9.193-1.426,10.142A4.059,4.059,0,0,1,107.244,366.3Z" fill="#231815"/>
              <path d="M134.406,296.352a.812.812,0,0,1-.668-.347l-16.887-19.412a.817.817,0,0,1,1.233-1.073l16.94,19.474a.822.822,0,0,1-.434,1.338A.836.836,0,0,1,134.406,296.352Z" fill="#231815"/>
            </g>
          </g>
          <g>
            <g>
              <path d="M244.786,294.822l16.625-19.736C249.77,255.577,237.7,249.939,237.7,249.939s-13.816-6.59-19.976,9.473c-4.871,12.686,16.955,26.124,16.955,26.124A84.532,84.532,0,0,1,244.786,294.822Z" fill="#e84572"/>
              <path d="M283.643,346.565c.324.221,6.669,4.64,8.605,3.336,1.616-1.1.753-3.149-1.213-4.649s-10.349-8.161-10.349-8.161c-3.579-28.89-11.324-48.679-19.275-62l-16.625,19.736c18.77,20.3,23.483,44.745,23.483,44.745s-7.156,10.759-7.719,11.883c-1.25,2.48-.677,4.007,1,4.112,2.175.127,6.543-6.209,6.543-6.209s1.7,10.775,1.9,12.071a3.2,3.2,0,0,0,3.529,2.881c2.245-.312,2.209-3.649,2.209-3.649.247,2.08,1.8,3.17,3.492,2.77,2.2-.493,1.906-3.472,1.857-3.839.347,1.416,1.531,3.445,3.557,2.921,2.461-.654,1.549-4.208,1.549-4.208Z" fill="#f4aeb6"/>
            </g>
            <g>
              <path d="M278.529,364.325a3.428,3.428,0,0,1-1.981-.619,4.1,4.1,0,0,1-1.635-2.953l-2.3-11.246a.816.816,0,1,1,1.6-.326l2.309,11.312a2.57,2.57,0,0,0,.961,1.875,1.865,1.865,0,0,0,1.544.264c1.56-.352,1.248-2.832,1.234-2.938a.817.817,0,1,1,1.619-.215c.2,1.509-.1,4.206-2.487,4.745A3.8,3.8,0,0,1,278.529,364.325Z" fill="#231815"/>
              <path d="M283.993,363.408a3.054,3.054,0,0,1-1.582-.44,5.26,5.26,0,0,1-2.132-3.187c-.006-.025-.01-.05-.014-.075-.36-1.524-2.2-10.9-2.274-11.3a.817.817,0,1,1,1.6-.314c.019.1,1.937,9.9,2.267,11.271.006.023.01.045.014.069a3.629,3.629,0,0,0,1.374,2.137,1.469,1.469,0,0,0,1.176.152c1.642-.437.97-3.189.963-3.216l-2.543-11.763a.817.817,0,0,1,1.6-.346l2.537,11.735c.377,1.471.428,4.488-2.138,5.17A3.376,3.376,0,0,1,283.993,363.408Z" fill="#231815"/>
              <path d="M273.022,365.157a4.066,4.066,0,0,1-3.843-3.6c-.142-.954-1.09-6.963-1.59-10.128-1.618,2.108-4.255,5.03-6.09,4.952a2.489,2.489,0,0,1-2.1-1.2c-.4-.7-.65-1.974.421-4.1.534-1.067,6.284-9.736,7.578-11.684-.641-2.943-5.982-25.388-23.212-44.023a83.979,83.979,0,0,0-10.006-9.194c-.842-.514-22.272-13.9-17.216-27.063,2.026-5.283,5.081-8.771,9.08-10.367,5.956-2.378,11.765.333,12.01.45.5.231,12.421,5.966,24.057,25.466,9.725,16.3,16.232,37.151,19.343,61.991,1.431,1.14,8.32,6.621,10.071,7.94,1.552,1.184,2.419,2.6,2.383,3.88a2.559,2.559,0,0,1-1.2,2.1c-2.051,1.378-6.829-1.486-9.5-3.316a1.062,1.062,0,0,1-.23-.214.825.825,0,0,1,.174-1.148.814.814,0,0,1,1.012.036c4.042,2.764,6.932,3.751,7.624,3.289a.934.934,0,0,0,.483-.79,3.778,3.778,0,0,0-1.736-2.533c-1.961-1.476-10.021-7.9-10.363-8.172a.809.809,0,0,1-.3-.538c-3.066-24.759-9.515-45.513-19.166-61.685-11.353-19.028-23.234-24.772-23.353-24.827-.057-.027-5.438-2.521-10.72-.405-3.552,1.424-6.292,4.6-8.146,9.43-4.572,11.908,16.407,25.006,16.62,25.137a85.306,85.306,0,0,1,10.275,9.425c18.712,20.238,23.638,44.9,23.686,45.146a.811.811,0,0,1-.122.606c-2.865,4.308-7.272,11.005-7.668,11.8a3.146,3.146,0,0,0-.464,2.556.9.9,0,0,0,.781.376c.986.074,3.833-2.981,5.818-5.857a.817.817,0,0,1,1.479.335s1.705,10.782,1.9,12.079c0,.014.433,2.483,2.61,2.193,1.5-.21,1.5-2.808,1.5-2.834a.818.818,0,0,1,.81-.822h.007a.816.816,0,0,1,.817.806c.016,1.506-.58,4.143-2.913,4.467A4.429,4.429,0,0,1,273.022,365.157Z" fill="#231815"/>
              <path d="M244.784,295.643a.752.752,0,0,1-.133-.01.812.812,0,0,1-.672-.934.847.847,0,0,1,.183-.4l16.624-19.735a.817.817,0,1,1,1.249,1.053l-16.6,19.707A.82.82,0,0,1,244.784,295.643Z" fill="#231815"/>
            </g>
          </g>
          <g>
            <path d="M189.121,240.645h30.9s18,1.44,18,25.988-2.42,87.345-2.42,87.345-22.019,7-46.478,7-46.478-7-46.478-7-2.42-62.8-2.42-87.345,18-25.988,18-25.988Z" fill="#e84572"/>
            <path d="M189.121,361.8c-24.305,0-46.5-6.974-46.725-7.044a.817.817,0,0,1-.569-.747c-.024-.628-2.421-63.094-2.421-87.376,0-13.015,5.069-19.61,9.322-22.849a19.573,19.573,0,0,1,9.43-3.953l61.861,0c.252.018,18.817,1.791,18.817,26.8,0,24.282-2.4,86.748-2.421,87.376a.82.82,0,0,1-.569.747C235.625,354.826,213.425,361.8,189.121,361.8Zm-45.684-8.434c3.543,1.06,23.75,6.8,45.684,6.8s42.143-5.741,45.684-6.8c.243-6.408,2.4-63.737,2.4-86.733,0-23.463-16.546-25.115-17.25-25.173l-61.729,0c-.638.056-17.183,1.708-17.183,25.171C141.04,289.629,143.193,346.958,143.437,353.366Z" fill="#231815"/>
          </g>
          <g>
            <g>
              <path d="M144.538,193.539c.185,2.56.428,4.96.706,7.224-3.908,0-10.082-1.115-9.515-8.213s8.474-6.212,8.474-6.212C144.261,188.875,144.377,191.264,144.538,193.539Z" fill="#f4aeb6"/>
              <path d="M233.794,193.539c.15-2.264.266-4.664.312-7.2h.012s7.885-.9,8.463,6.212c.578,7.087-5.573,8.2-9.481,8.213Q233.517,197.4,233.794,193.539Z" fill="#f4aeb6"/>
              <path d="M193.352,202.844c.138,1.8-1.342,3.288-4.232,3.288s-4.37-1.49-4.232-3.288,4.232-12.433,4.232-12.433S193.224,201.036,193.352,202.844Z" fill="#f4aeb6"/>
              <path d="M211.746,182.937a8.936,8.936,0,0,0-6.417-2.7,8.755,8.755,0,1,0,8.9,8.759A8.619,8.619,0,0,0,211.746,182.937Zm-22.614,40.907a19.745,19.745,0,0,0,5.306-.683,14.477,14.477,0,0,0,6.371-3.537,10.553,10.553,0,0,0,3.353-6.223,4.992,4.992,0,0,0,0-.83,3.838,3.838,0,0,0-3.665-3.481H177.755a3.855,3.855,0,0,0-3.677,3.481,4.992,4.992,0,0,0,0,.83,10.575,10.575,0,0,0,3.365,6.223,14.548,14.548,0,0,0,6.359,3.537,19.837,19.837,0,0,0,5.318.683c-3.815,5.164-14.475,8.714-14.475,8.714-14.394-6.94-21.366-24.936-17.909-48.449,4.451-30.237,32.1-30.316,32.384-30.316s27.933.079,32.4,30.316c3.468,23.536-3.434,41.544-17.9,48.46l-.011-.011s-10.66-3.55-14.487-8.714Zm-.012-17.712c2.89,0,4.37-1.49,4.232-3.288s-4.232-12.433-4.232-12.433-4.1,10.625-4.232,12.433S186.23,206.132,189.12,206.132ZM181.721,189a8.826,8.826,0,0,0-8.891-8.759,8.936,8.936,0,0,0-6.417,2.7A8.619,8.619,0,0,0,163.927,189a8.9,8.9,0,0,0,17.794,0Z" fill="#f4aeb6"/>
              <path d="M189.12,223.844c3.827,5.164,14.487,8.714,14.487,8.714l.011.011a35.279,35.279,0,0,1-28.973-.011S185.305,229.008,189.12,223.844Z" fill="#231815"/>
              <path d="M189.12,219.624v4.22a19.837,19.837,0,0,1-5.318-.683v-3.537Z" fill="#fff"/>
              <path d="M183.8,219.624v3.537a14.548,14.548,0,0,1-6.359-3.537Z" fill="#fff"/>
              <path d="M194.438,219.624h6.371a14.477,14.477,0,0,1-6.371,3.537Z" fill="#fff"/>
              <path d="M194.438,219.624v3.537a19.745,19.745,0,0,1-5.306.683h-.012v-4.22Z" fill="#fff"/>
              <rect x="178.483" y="209.09" width="5.318" height="4.311" fill="#fff"/>
              <rect x="183.802" y="209.09" width="5.318" height="4.311" fill="#fff"/>
              <path d="M178.483,209.09V213.4h-4.405a4.992,4.992,0,0,1,0-.83,3.855,3.855,0,0,1,3.677-3.481Z" fill="#fff"/>
              <rect x="194.438" y="209.09" width="5.33" height="4.311" fill="#fff"/>
              <rect x="189.12" y="209.09" width="5.318" height="4.311" fill="#fff"/>
              <path d="M204.162,212.571a4.992,4.992,0,0,1,0,.83h-4.394V209.09h.729A3.838,3.838,0,0,1,204.162,212.571Z" fill="#fff"/>
              <path d="M211.746,182.937A8.619,8.619,0,0,1,214.232,189a8.9,8.9,0,1,1-8.9-8.759A8.936,8.936,0,0,1,211.746,182.937Z" fill="#fff"/>
              <path d="M166.413,182.937a8.936,8.936,0,0,1,6.417-2.7,8.755,8.755,0,1,1-8.9,8.759A8.619,8.619,0,0,1,166.413,182.937Z" fill="#fff"/>
              <path d="M199.768,213.4h4.394a10.553,10.553,0,0,1-3.353,6.223H177.443a10.575,10.575,0,0,1-3.365-6.223h25.69Z" fill="#e84572"/>
              <path d="M208.8,186.847a1.527,1.527,0,1,0-1.527,1.5A1.513,1.513,0,0,0,208.8,186.847Zm-1.527-4.379a4.38,4.38,0,1,1-4.451,4.379A4.42,4.42,0,0,1,207.274,182.468Z" fill="#97d2ce"/>
              <path d="M170.312,186.847a4.458,4.458,0,1,1,4.463,4.38A4.42,4.42,0,0,1,170.312,186.847Zm4.463-1.5a1.5,1.5,0,1,0,1.526,1.5A1.512,1.512,0,0,0,174.775,185.346Z" fill="#97d2ce"/>
              <path d="M189.1,66.223c-.786.433-23.17,13.082-36.847,62.373,0,0-13.781-9.294-20.025-19.327C132.225,109.269,169.026,73.754,189.1,66.223Z" fill="#97d2ce"/>
              <path d="M189.143,66.223c20.071,7.531,56.872,43.046,56.872,43.046C239.771,119.3,225.99,128.6,225.99,128.6,212.313,79.305,189.929,66.656,189.143,66.223Z" fill="#97d2ce"/>
              <path d="M175.5,252.9c-2.994,3.436-4.613,10.386-2.589,13.037,5.168,6.78,5.364,8.531,2.52,10.954-2.52,2.139-8.6.228-12.5-5.528S161.661,259.5,162,253.511a10.854,10.854,0,0,0-1.514-6.324l-1.226.455c-10.324.91-6.994,7.235-4.936,13.218s.115,11.626-2.752,13.878-8.486,3.39-7.689-5.642-4.821-5.528-8.266-16.6,6.255-15.835,6.255-15.835c11.365-6.495,5.954-14.913,3.376-35.9-.278-2.264-.521-4.664-.706-7.224-.161-2.275-.277-4.664-.335-7.2a174.583,174.583,0,0,1,2.9-34.9c1.492-8.372,3.226-15.96,5.145-22.842,13.677-49.291,36.061-61.94,36.847-62.373.011,0,.011-.011.023-.011s.012.011.023.011c.786.433,23.17,13.082,36.847,62.373,1.919,6.882,3.653,14.47,5.145,22.842a176.907,176.907,0,0,1,2.971,34.9c-.046,2.537-.162,4.937-.312,7.2q-.278,3.857-.694,7.224c-2.416,20.305-7.445,28.132,3.839,34.582,0,0,12.394,6.427,13.885,13.32,2.752,12.7-7.573,13.765-7.573,21.33s-5.734,7.121-7.457,3.276-1.572-8.68.451-13.833c3.214-8.179-5.515-13.594-10.845-13.207a21.03,21.03,0,0,0,1.214,2.878c3.665,7.337,2.405,12.877,0,19.646s-7.457,10.955-10.671,8.987,0-7.747,1.029-12.115a13.108,13.108,0,0,0-5.388-13.424c-4.705-3.117-11.446,0-11.446,0a9.467,9.467,0,0,1,.89,5.825c-.462,4.186-1.491,10.169.914,12.422a10.977,10.977,0,0,1,2.867,9.6c-.682,3.162-4.127,2.48-4.127,2.48-10.221-3.72-10.9-8.578-12.048-17.269S175.5,252.9,175.5,252.9Zm28.118-20.328c14.464-6.916,21.366-24.924,17.9-48.46-4.463-30.237-32.107-30.316-32.4-30.316s-27.933.079-32.384,30.316c-3.457,23.513,3.515,41.509,17.909,48.449a35.279,35.279,0,0,0,28.973.011Z" fill="#97d2ce"/>
              <ellipse cx="207.274" cy="186.847" rx="1.526" ry="1.502" fill="#231815"/>
              <ellipse cx="174.775" cy="186.847" rx="1.526" ry="1.502" fill="#231815"/>
            </g>
            <g>
              <path d="M172.761,278.555a7.508,7.508,0,0,1-1.01-.071c-3.387-.464-7.025-3.017-9.494-6.666-3.072-4.533-2.344-9.217-1.641-13.747.236-1.518.48-3.089.565-4.605a10.029,10.029,0,0,0-1.4-5.856,8.619,8.619,0,0,0-2.032-2.353.817.817,0,0,1,.948-1.33,10.052,10.052,0,0,1,2.481,2.837,11.786,11.786,0,0,1,1.631,6.793c-.089,1.6-.34,3.208-.582,4.765-.685,4.411-1.332,8.579,1.379,12.58,2.651,3.916,6.058,5.649,8.363,5.964a3.747,3.747,0,0,0,2.931-.6c2.187-1.864,2.674-2.864-2.642-9.837-2.381-3.12-.516-10.465,2.624-14.069a5.9,5.9,0,0,1,3.8-2.256.828.828,0,0,1,.891.736.817.817,0,0,1-.735.891,4.424,4.424,0,0,0-2.723,1.7c-2.861,3.284-4.247,9.791-2.556,12,4.975,6.529,5.956,9.045,2.4,12.074A4.876,4.876,0,0,1,172.761,278.555Z" fill="#231815"/>
              <path d="M201.47,283.421a4.848,4.848,0,0,1-.947-.089.832.832,0,0,1-.121-.033c-10.731-3.907-11.426-9.185-12.577-17.93-1.073-8.073-12.449-11.655-12.564-11.69a.817.817,0,0,1,.478-1.563c.51.156,12.493,3.922,13.7,13.039,1.141,8.663,1.715,13.022,11.451,16.584.448.077,2.647.317,3.116-1.86a10.215,10.215,0,0,0-2.629-8.834c-2.451-2.3-1.827-7.531-1.325-11.738.056-.472.111-.93.159-1.37a8.688,8.688,0,0,0-.792-5.338,9.668,9.668,0,0,0-3.22-3.254.817.817,0,0,1,.909-1.358,11.236,11.236,0,0,1,3.74,3.82,10.224,10.224,0,0,1,.987,6.309c-.049.444-.1.908-.161,1.385-.434,3.638-1.029,8.62.822,10.353a11.824,11.824,0,0,1,3.106,10.371A3.944,3.944,0,0,1,201.47,283.421Z" fill="#231815"/>
              <path d="M217.7,279.047a4.123,4.123,0,0,1-2.184-.61c-2.965-1.815-1.583-5.96-.364-9.616.382-1.144.776-2.327,1.025-3.382a12.375,12.375,0,0,0-5.044-12.555c-4.263-2.821-10.589.032-10.653.06a.816.816,0,0,1-.685-1.482c.292-.136,7.212-3.272,12.24.06a13.891,13.891,0,0,1,5.732,14.292c-.266,1.126-.672,2.345-1.065,3.524-1.077,3.229-2.191,6.569-.333,7.707a2.859,2.859,0,0,0,2.546.142c2.618-.924,5.4-4.423,6.93-8.707,2.245-6.318,3.673-11.73.039-19.006a21.5,21.5,0,0,1-1.261-2.994c-1.8-5.457,1.131-6.56,1.257-6.6a.817.817,0,0,1,.543,1.541c-.511.226-1.261,1.485-.247,4.559a20.28,20.28,0,0,0,1.169,2.77c3.915,7.838,2.334,13.823.039,20.283-1.71,4.8-4.82,8.6-7.925,9.7A5.292,5.292,0,0,1,217.7,279.047Z" fill="#231815"/>
              <path d="M189.12,236.491a33.837,33.837,0,0,1-14.829-3.2h0c-14.976-7.219-21.841-25.651-18.363-49.3,4.513-30.661,32.023-31.014,33.192-31.014s28.678.353,33.2,31.014c3.494,23.713-3.367,42.15-18.353,49.317A33.987,33.987,0,0,1,189.12,236.491Zm0-81.882c-1.111,0-27.265.337-31.576,29.619-3.368,22.909,3.157,40.7,17.456,47.594h0a34.466,34.466,0,0,0,28.264.011c14.308-6.842,20.828-24.638,17.444-47.6C216.386,154.946,190.231,154.609,189.12,154.609Z" fill="#231815"/>
              <path d="M145.255,201.579c-2.676,0-6.314-.5-8.513-2.881a7.855,7.855,0,0,1-1.827-6.214,7.089,7.089,0,0,1,2.487-5.132c2.756-2.267,6.726-1.844,6.893-1.825a.817.817,0,0,1-.183,1.623c-.033,0-3.465-.357-5.68,1.469a5.527,5.527,0,0,0-1.889,4,6.3,6.3,0,0,0,1.4,4.974c1.8,1.947,4.963,2.356,7.3,2.356a.821.821,0,0,1,.822.817A.811.811,0,0,1,145.255,201.579Z" fill="#231815"/>
              <path d="M144.55,194.355h-4.081a.816.816,0,1,1,0-1.632h4.07a.821.821,0,0,1,.822.816A.811.811,0,0,1,144.55,194.355Z" fill="#231815"/>
              <path d="M233.1,201.579l-.037-1.633c2.37-.007,5.532-.422,7.316-2.363a6.3,6.3,0,0,0,1.385-4.967,5.527,5.527,0,0,0-1.89-4c-2.211-1.824-5.635-1.47-5.668-1.467a.807.807,0,0,1-.9-.72.816.816,0,0,1,.718-.9c.167-.017,4.128-.442,6.882,1.822a7.1,7.1,0,0,1,2.488,5.134,7.848,7.848,0,0,1-1.81,6.2C239.4,201.064,235.767,201.572,233.1,201.579Z" fill="#231815"/>
              <path d="M237.841,194.355h-4.047a.826.826,0,0,1-.828-.816.806.806,0,0,1,.8-.816h4.07a.816.816,0,1,1,0,1.632Z" fill="#231815"/>
              <path d="M189.12,206.948a5.338,5.338,0,0,1-4.127-1.493,3.5,3.5,0,0,1-.919-2.674c.132-1.871,3.86-11.565,4.284-12.664a.817.817,0,0,1,1.524,0c.425,1.1,4.153,10.793,4.285,12.67a3.494,3.494,0,0,1-.92,2.668A5.338,5.338,0,0,1,189.12,206.948Zm0-14.244c-1.512,4.015-3.343,9.154-3.416,10.2a1.858,1.858,0,0,0,.487,1.443,4.908,4.908,0,0,0,5.857,0,1.85,1.85,0,0,0,.489-1.439C192.464,201.859,190.632,196.719,189.12,192.7Z" fill="#231815"/>
              <path d="M189.131,224.66h-.011a20.733,20.733,0,0,1-5.536-.712,15.3,15.3,0,0,1-6.709-3.737,11.37,11.37,0,0,1-3.61-6.734,5.728,5.728,0,0,1,0-.981,4.612,4.612,0,0,1,4.459-4.223H200.5a4.6,4.6,0,0,1,4.478,4.219,5.953,5.953,0,0,1,0,.973,11.374,11.374,0,0,1-3.6,6.748,15.218,15.218,0,0,1-6.721,3.736A20.708,20.708,0,0,1,189.131,224.66Zm-11.376-14.754a2.984,2.984,0,0,0-2.864,2.745,4.151,4.151,0,0,0,0,.687,9.744,9.744,0,0,0,3.115,5.7,13.69,13.69,0,0,0,6.01,3.339,19.118,19.118,0,0,0,5.1.654h.011a19.088,19.088,0,0,0,5.089-.653,13.6,13.6,0,0,0,6.018-3.334,9.7,9.7,0,0,0,3.11-5.709,4.14,4.14,0,0,0,0-.687,2.987,2.987,0,0,0-2.882-2.738Z" fill="#231815"/>
              <path d="M204.185,214.218H174.078a.822.822,0,0,1-.822-.817.811.811,0,0,1,.811-.816h30.1a.826.826,0,0,1,.828.816A.807.807,0,0,1,204.185,214.218Z" fill="#231815"/>
              <path d="M189.12,214.218a.817.817,0,0,1-.817-.817V209.09a.817.817,0,0,1,1.634,0V213.4A.817.817,0,0,1,189.12,214.218Z" fill="#231815"/>
              <path d="M183.8,214.218a.817.817,0,0,1-.817-.817V209.09a.817.817,0,1,1,1.634,0V213.4A.817.817,0,0,1,183.8,214.218Z" fill="#231815"/>
              <path d="M178.483,214.218a.816.816,0,0,1-.816-.817V209.09a.817.817,0,1,1,1.633,0V213.4A.817.817,0,0,1,178.483,214.218Z" fill="#231815"/>
              <path d="M194.439,214.218a.817.817,0,0,1-.817-.817V209.09a.817.817,0,1,1,1.633,0V213.4A.816.816,0,0,1,194.439,214.218Z" fill="#231815"/>
              <path d="M189.12,224.66a.816.816,0,0,1-.817-.816v-4.22a.817.817,0,0,1,1.634,0v4.22A.816.816,0,0,1,189.12,224.66Z" fill="#231815"/>
              <path d="M183.8,223.977a.816.816,0,0,1-.817-.816v-3.537a.817.817,0,1,1,1.634,0v3.537A.816.816,0,0,1,183.8,223.977Z" fill="#231815"/>
              <path d="M194.439,223.977a.816.816,0,0,1-.817-.816v-3.537a.817.817,0,1,1,1.633,0v3.537A.816.816,0,0,1,194.439,223.977Z" fill="#231815"/>
              <path d="M199.768,214.218a.817.817,0,0,1-.817-.817V209.09a.817.817,0,0,1,1.634,0V213.4A.817.817,0,0,1,199.768,214.218Z" fill="#231815"/>
              <path d="M200.809,220.44H177.443a.817.817,0,1,1,0-1.633h23.366a.817.817,0,1,1,0,1.633Z" fill="#231815"/>
              <path d="M174.645,233.375a.817.817,0,0,1-.258-1.592c.1-.035,10.46-3.529,14.076-8.425a.817.817,0,1,1,1.314.971c-3.924,5.312-14.429,8.855-14.874,9A.834.834,0,0,1,174.645,233.375Z" fill="#231815"/>
              <path d="M203.607,233.375a.834.834,0,0,1-.258-.042c-.445-.149-10.95-3.692-14.885-9a.817.817,0,1,1,1.312-.973c3.628,4.9,13.985,8.391,14.089,8.426a.817.817,0,0,1-.258,1.592Z" fill="#231815"/>
              <path d="M172.83,198.564A9.654,9.654,0,0,1,163.11,189a9.43,9.43,0,0,1,2.72-6.634,9.641,9.641,0,1,1,7,16.2Zm0-17.507A8.073,8.073,0,0,0,167,183.508,7.805,7.805,0,0,0,164.744,189a8.081,8.081,0,1,0,8.086-7.943Z" fill="#231815"/>
              <path d="M174.775,192.044a5.2,5.2,0,1,1,5.268-5.2A5.245,5.245,0,0,1,174.775,192.044Zm0-8.76a3.564,3.564,0,1,0,3.634,3.564A3.61,3.61,0,0,0,174.775,183.284Z" fill="#231815"/>
              <path d="M170.147,181.252a.817.817,0,0,1-.771-.55l-1.1-3.174a.817.817,0,0,1,1.544-.535l1.1,3.174a.819.819,0,0,1-.772,1.085Z" fill="#231815"/>
              <path d="M166.417,183.763a.808.808,0,0,1-.544-.212l-.012-.011-2.687-2.6a.817.817,0,0,1,1.136-1.174l2.671,2.582a.82.82,0,0,1-.564,1.413Z" fill="#231815"/>
              <path d="M176.206,181.582a.827.827,0,0,1-.267-.045.817.817,0,0,1-.5-1.039l1.1-3.186a.817.817,0,0,1,1.544.534l-1.1,3.185A.819.819,0,0,1,176.206,181.582Z" fill="#231815"/>
              <path d="M179.929,184.1a.817.817,0,0,1-.569-1.4l2.682-2.6a.817.817,0,1,1,1.138,1.172l-2.682,2.6A.815.815,0,0,1,179.929,184.1Z" fill="#231815"/>
              <path d="M205.33,198.564a9.57,9.57,0,1,1,7-16.2A9.433,9.433,0,0,1,215.049,189,9.653,9.653,0,0,1,205.33,198.564Zm0-17.507A7.939,7.939,0,1,0,213.415,189a7.808,7.808,0,0,0-2.252-5.491A8.077,8.077,0,0,0,205.33,181.057Z" fill="#231815"/>
              <path d="M207.274,192.044a5.2,5.2,0,1,1,5.28-5.2A5.239,5.239,0,0,1,207.274,192.044Zm0-8.76a3.564,3.564,0,1,0,3.646,3.564A3.6,3.6,0,0,0,207.274,183.284Z" fill="#231815"/>
              <path d="M208.012,181.252a.8.8,0,0,1-.267-.046.815.815,0,0,1-.5-1.038l1.1-3.174a.817.817,0,0,1,1.544.533l-1.1,3.174A.819.819,0,0,1,208.012,181.252Z" fill="#231815"/>
              <path d="M212.314,183.524l-1.131-1.178.011-.011,2.655-2.567a.817.817,0,0,1,1.136,1.174Z" fill="#231815"/>
              <path d="M201.954,181.582a.817.817,0,0,1-.772-.551l-1.1-3.185a.817.817,0,0,1,1.544-.534l1.1,3.186a.817.817,0,0,1-.506,1.039A.826.826,0,0,1,201.954,181.582Z" fill="#231815"/>
              <path d="M198.23,184.1a.811.811,0,0,1-.568-.231l-2.682-2.6a.816.816,0,1,1,1.137-1.172l2.682,2.6a.817.817,0,0,1-.569,1.4Z" fill="#231815"/>
              <path d="M205.364,169.409a.816.816,0,0,1-.817-.816c0-.176-.033-4.315-2.917-4.315s-2.906,4.139-2.906,4.315a.817.817,0,0,1-1.634,0c0-2.209.956-5.948,4.54-5.948s4.551,3.739,4.551,5.948A.816.816,0,0,1,205.364,169.409Z" fill="#231815"/>
              <path d="M180.16,169.409a.816.816,0,0,1-.817-.816c0-.176-.033-4.315-2.918-4.315s-2.905,4.139-2.905,4.315a.817.817,0,0,1-1.634,0c0-2.209.956-5.948,4.539-5.948s4.552,3.739,4.552,5.948A.816.816,0,0,1,180.16,169.409Z" fill="#231815"/>
              <path d="M152.249,129.412a.812.812,0,0,1-.456-.14c-.568-.382-14-9.506-20.261-19.572a.816.816,0,0,1,.126-1.019c1.507-1.455,37.11-35.677,57.116-43.208a.837.837,0,0,1,1.163.739.816.816,0,0,1-.468.738.655.655,0,0,1-.086.037h0c-18.451,6.923-51.711,38.219-56.11,42.407,6.238,9.563,19.3,18.433,19.433,18.524a.816.816,0,0,1-.458,1.493Z" fill="#231815"/>
              <path d="M225.991,129.412a.816.816,0,0,1-.458-1.493c.134-.091,13.2-8.968,19.432-18.524-4.4-4.188-37.66-35.485-56.109-42.407h0a.772.772,0,0,1-.093-.041.816.816,0,0,1-.46-.734.839.839,0,0,1,1.164-.739c20.007,7.532,55.608,41.753,57.115,43.208a.816.816,0,0,1,.126,1.019c-6.263,10.066-19.693,19.19-20.262,19.572A.809.809,0,0,1,225.991,129.412Z" fill="#231815"/>
            </g>
          </g>
          <g clip-path="url(#clip-path)">
            <ellipse cx="227.6" cy="138.937" rx="12.188" ry="11.992" fill="#fff"/>
            <ellipse cx="227.6" cy="138.937" rx="8.212" ry="8.08" fill="#97d2ce"/>
            <path d="M227.6,151.746a12.81,12.81,0,1,1,13-12.809A12.923,12.923,0,0,1,227.6,151.746Zm0-23.984a11.177,11.177,0,1,0,11.371,11.175A11.287,11.287,0,0,0,227.6,127.762Z" fill="#231815"/>
            <path d="M227.6,147.833a8.9,8.9,0,1,1,9.028-8.9A8.973,8.973,0,0,1,227.6,147.833Zm0-16.159a7.264,7.264,0,1,0,7.4,7.263A7.338,7.338,0,0,0,227.6,131.674Z" fill="#231815"/>
            <ellipse cx="227.6" cy="138.937" rx="3.865" ry="3.803" fill="#231815"/>
          </g>
          <g>
            <path d="M188.707,93.354l-.029.465c.323-.047.644-.082.962-.1s.629-.032.933-.032a5.908,5.908,0,0,1,3.673.991,3.348,3.348,0,0,1,1.287,2.817,3.634,3.634,0,0,1-1.428,2.96,5.418,5.418,0,0,1-3.518,1.152.692.692,0,0,1-.488-.164,4.213,4.213,0,0,1-.4-.443c-.087-.116-.187-.237-.3-.365s-.245-.261-.394-.4a5.72,5.72,0,0,1-.687.352,1.411,1.411,0,0,1-.528.126.418.418,0,0,1-.3-.12,1.141,1.141,0,0,1-.231-.385,5.12,5.12,0,0,1-1.095.5,3.652,3.652,0,0,1-1.1.171,1.674,1.674,0,0,1-1.157-.31,1.625,1.625,0,0,1-.354-1.13c-.068-.081-.131-.161-.192-.239s-.119-.157-.177-.239c-.187-.253-.343-.477-.466-.671a1.076,1.076,0,0,1-.184-.581,2.5,2.5,0,0,1,.932-1.775,7.442,7.442,0,0,1,2.74-1.517v-.807L184.3,93.8a3.037,3.037,0,0,1-1.215-.181.645.645,0,0,1-.405-.606.851.851,0,0,1,.076-.327,2.369,2.369,0,0,1,.221-.39,5.929,5.929,0,0,1,.358-.478q.206-.252.459-.568a1.478,1.478,0,0,0,.35.148,1.392,1.392,0,0,0,.372.052.7.7,0,0,0,.1-.007.8.8,0,0,1,.094-.006l1.5-.123a.91.91,0,0,0-.224-.584,1.132,1.132,0,0,0-.607-.287q.369-.265.687-.475c.212-.14.407-.263.586-.371a4.3,4.3,0,0,1,.466-.229,1.06,1.06,0,0,1,.409-.087,2.214,2.214,0,0,1,1.2.355q.549.348.549.677a.692.692,0,0,1-.1.3c-.065.125-.14.288-.227.49l1.728-.135a1.923,1.923,0,0,0,.723-.146,1.406,1.406,0,0,0,.52-.383,5.513,5.513,0,0,1,1.946.73,1.374,1.374,0,0,1,.651,1.148.854.854,0,0,1-.326.717,1.47,1.47,0,0,1-.918.252,3.453,3.453,0,0,1-.637-.068q-.354-.069-.773-.184Zm-2.161,4.732q-.1-.393-.171-.8c-.045-.273-.083-.552-.112-.836a5.176,5.176,0,0,0-1.272.969,1.248,1.248,0,0,0-.412.775.308.308,0,0,0,.13.267.686.686,0,0,0,.4.094,1.982,1.982,0,0,0,.565-.122A9.332,9.332,0,0,0,186.546,98.086Zm3.2-2.323-.072-.35c-.188.018-.365.038-.531.062s-.325.052-.474.087a5.919,5.919,0,0,0,.036.645q.036.33.109.691a3.557,3.557,0,0,0,.386-.313,3.143,3.143,0,0,0,.373-.417.813.813,0,0,0,.13-.2A.5.5,0,0,0,189.741,95.763Zm-.354,2.982.166.4.3.026c.1.009.206.013.307.013a3,3,0,0,0,1.9-.562,1.732,1.732,0,0,0,.719-1.421,1.441,1.441,0,0,0-.467-1.071,2.668,2.668,0,0,0-1.355-.633,4.648,4.648,0,0,1,.351.569,1.081,1.081,0,0,1,.126.484,1.534,1.534,0,0,1-.535,1.033A8.715,8.715,0,0,1,189.387,98.745Z" fill="#231815"/>
            <path d="M185.36,104.858v-.5a1.211,1.211,0,0,0-.1-.584q-.1-.159-.539-.12a6.087,6.087,0,0,1,1.085-.988,1.707,1.707,0,0,1,.976-.348,2.854,2.854,0,0,1,1.331.323q.577.29.578.581a1.027,1.027,0,0,1-.156.439,2.56,2.56,0,0,0-.242.722,4.8,4.8,0,0,0,.853-.251.88.88,0,0,0,.42-.355,10.944,10.944,0,0,1,1.59.406.871.871,0,0,1,.586.911.936.936,0,0,1-.289.7,1.99,1.99,0,0,1-.853.446q-.723.219-1.436.38t-1.406.277a39.319,39.319,0,0,1-1.612,5.966q-.687,1.542-1.866,1.543a.929.929,0,0,1-.788-.407,2.047,2.047,0,0,1-.311-1.272v-1.336q.413-.142.846-1.136a23.919,23.919,0,0,0,.919-2.951l-1.23.084a2.176,2.176,0,0,1-1.084-.238.66.66,0,0,1-.369-.569,1.131,1.131,0,0,1,.213-.574q.213-.336.575-.827c.058-.1.124-.2.2-.306s.155-.216.242-.332a.508.508,0,0,0,.243.352,1.143,1.143,0,0,0,.531.1Zm8,4.055-.636.025a4.766,4.766,0,0,0-2.017.781q-.8.569-.8,1.072c0,.2.151.37.455.5a3.408,3.408,0,0,0,1.323.213,7.766,7.766,0,0,0,1.229-.084,1.935,1.935,0,0,0,.68-.232,3.507,3.507,0,0,1,1.627.558,1.275,1.275,0,0,1,.564,1.068,1.1,1.1,0,0,1-.788,1.065,6.208,6.208,0,0,1-2.336.323,6.337,6.337,0,0,1-3.138-.652,1.958,1.958,0,0,1-1.084-1.743,2.779,2.779,0,0,1,.889-1.978,7.08,7.08,0,0,1,2.654-1.553,1.748,1.748,0,0,0-.64-.365,2.824,2.824,0,0,0-.842-.112,5.022,5.022,0,0,0-.908.086,8.916,8.916,0,0,0-1,.249,9.406,9.406,0,0,1,2.188-1.634,4.549,4.549,0,0,1,2.086-.548,3.313,3.313,0,0,1,1.912.5,1.557,1.557,0,0,1,.727,1.347,1.168,1.168,0,0,1-.318.861,1.151,1.151,0,0,1-.853.32,3.127,3.127,0,0,1-.42-.036A3.879,3.879,0,0,0,193.356,108.913Z" fill="#231815"/>
            <path d="M188.31,121.488l.057,1.085a1.315,1.315,0,0,1-.379,1,1.378,1.378,0,0,1-.987.358,2.176,2.176,0,0,1-1.6-.755,2.7,2.7,0,0,1-.719-1.943,7.091,7.091,0,0,1,.579-2.383,4.436,4.436,0,0,0,.383-1.342.69.69,0,0,0-.178-.488.928.928,0,0,0-.531-.254,5.883,5.883,0,0,1,1.02-.607,2.125,2.125,0,0,1,.86-.214,1.63,1.63,0,0,1,1.117.462,1.417,1.417,0,0,1,.51,1.081,1.548,1.548,0,0,1-.213.817,6.7,6.7,0,0,1-.525.733q-.21.264-.372.483c-.108.147-.2.277-.278.388a1.727,1.727,0,0,0-.181.339.8.8,0,0,0-.058.287.627.627,0,0,0,.148.42.413.413,0,0,0,.307.174.45.45,0,0,0,.286-.126,1.342,1.342,0,0,0,.293-.4,7.689,7.689,0,0,1,1.75-2.5,3.129,3.129,0,0,1,2.089-.832,2.273,2.273,0,0,1,2,1.2,6.5,6.5,0,0,1,.8,3.5,5.484,5.484,0,0,1-1.594,4.283,6.037,6.037,0,0,1-4.212,1.443,3.04,3.04,0,0,1-1.091-.145,1.719,1.719,0,0,1-.688-.623.266.266,0,0,1-.05-.068.5.5,0,0,0-.051-.081c-.091-.142-.223-.325-.394-.548a3.7,3.7,0,0,0-.791-.717c.293.043.567.075.82.1s.483.032.691.032a5.1,5.1,0,0,0,3.308-.958,3.917,3.917,0,0,0,1.174-3.206,5.3,5.3,0,0,0-.31-2.091.938.938,0,0,0-.868-.633,1.674,1.674,0,0,0-1.157.517,3.1,3.1,0,0,0-.86,1.452q-.043.2-.072.39A2.346,2.346,0,0,0,188.31,121.488Z" fill="#231815"/>
            <path d="M183.183,131.708l-.354.052a3.011,3.011,0,0,1,.925-1.236,1.939,1.939,0,0,1,1.179-.431,1.129,1.129,0,0,1,.9.439,3.8,3.8,0,0,1,.578,1.324,6.057,6.057,0,0,1,.857-.338c.3-.093.606-.174.929-.242a1.53,1.53,0,0,0-.192-.93.876.876,0,0,0-.784-.253,5.417,5.417,0,0,1,1.157-.9,2.167,2.167,0,0,1,1.048-.3,1.6,1.6,0,0,1,1.038.349,1.182,1.182,0,0,1,.43.974l-.029.807a5.237,5.237,0,0,1,3.492,1.437,4.575,4.575,0,0,1,1.273,3.372,4.723,4.723,0,0,1-.607,2.428,4.967,4.967,0,0,1-1.8,1.75,6.026,6.026,0,0,1-2.877.833,1.855,1.855,0,0,1-.955-.21,1.318,1.318,0,0,1-.527-.636.261.261,0,0,1-.044-.084c-.01-.03-.019-.062-.029-.1a4.372,4.372,0,0,0-.2-.477,1.674,1.674,0,0,0-.466-.542,6.36,6.36,0,0,1-1.482,1.11,2.894,2.894,0,0,1-1.259.343,1.528,1.528,0,0,1-.773-.191,1.439,1.439,0,0,1-.542-.564,2.137,2.137,0,0,1-.185-.514,2.486,2.486,0,0,0-.293-.687,6.629,6.629,0,0,1-.947-1.021,1.607,1.607,0,0,1-.325-.91,3.011,3.011,0,0,1,.492-1.536,7.051,7.051,0,0,1,1.5-1.666,6.351,6.351,0,0,0-.52-1.084A.757.757,0,0,0,183.183,131.708Zm1.967,3.189a2.794,2.794,0,0,0-.56.878,2.607,2.607,0,0,0-.178.955,1.491,1.491,0,0,0,.254.878.7.7,0,0,0,.535.317.882.882,0,0,0,.513-.278,5.785,5.785,0,0,0,.745-.859,6.756,6.756,0,0,1-.716-.868A7.427,7.427,0,0,1,185.15,134.9Zm2.95-1.679a5.336,5.336,0,0,0-.608.165c-.2.067-.4.138-.607.216a4.981,4.981,0,0,0,.351.814,3.275,3.275,0,0,0,.452.639c.1-.314.182-.624.256-.93A6.387,6.387,0,0,0,188.1,133.218Zm.665,4.887-.253.291h.665a4.179,4.179,0,0,0,2.719-.766,2.506,2.506,0,0,0,.926-2.036,2.48,2.48,0,0,0-.6-1.656,2.721,2.721,0,0,0-1.591-.907,14.946,14.946,0,0,1-.361,1.918,12.352,12.352,0,0,1-.528,1.6,1.8,1.8,0,0,1,.26.091.132.132,0,0,1,.08.129,1.6,1.6,0,0,1-.354.981q-.326.44-.608.439Z" fill="#231815"/>
          </g>
          <path d="M239.528,276.8a5.12,5.12,0,0,1-4.479-3.191c-1.831-4.074-1.68-9.077.436-14.465a7.62,7.62,0,0,0-.892-7.651,11.4,11.4,0,0,0-9.134-4.443.817.817,0,0,1-.118-1.629,13.163,13.163,0,0,1,10.568,5.1,9.183,9.183,0,0,1,1.1,9.216c-1.923,4.9-2.089,9.587-.465,13.2A3.333,3.333,0,0,0,240,275.113c1.527-.326,2.439-2.239,2.439-5.118,0-3.391,1.914-5.623,3.766-7.781,2.639-3.077,5.368-6.259,3.825-13.375-1.393-6.439-13.342-12.707-13.463-12.77-9.229-5.274-8.121-11.689-6.109-23.337.6-3.488,1.285-7.442,1.836-12.066.274-2.213.5-4.629.69-7.186.166-2.509.268-4.851.31-7.156a176,176,0,0,0-2.959-34.742c-1.433-8.042-3.158-15.7-5.128-22.767-13.548-48.823-35.524-61.366-36.453-61.876a.816.816,0,1,1,.786-1.431c.954.523,23.511,13.391,37.241,62.869,1.984,7.114,3.721,14.825,5.162,22.918a177.624,177.624,0,0,1,2.984,35.06c-.043,2.329-.145,4.7-.314,7.238-.187,2.589-.421,5.033-.7,7.27-.555,4.662-1.242,8.639-1.847,12.148-2.009,11.628-2.926,16.934,5.28,21.625.491.254,12.724,6.67,14.279,13.857,1.714,7.909-1.418,11.562-4.182,14.784-1.81,2.11-3.373,3.932-3.373,6.718,0,3.706-1.4,6.217-3.731,6.716A3.887,3.887,0,0,1,239.528,276.8Z" fill="#231815"/>
          <g clip-path="url(#clip-path-2)">
            <ellipse cx="151.957" cy="138.937" rx="12.188" ry="11.992" fill="#fff"/>
            <ellipse cx="151.957" cy="138.937" rx="8.212" ry="8.08" fill="#97d2ce"/>
            <path d="M151.957,151.746a12.81,12.81,0,1,1,13-12.809A12.923,12.923,0,0,1,151.957,151.746Zm0-23.984a11.177,11.177,0,1,0,11.371,11.175A11.288,11.288,0,0,0,151.957,127.762Z" fill="#231815"/>
            <path d="M151.957,147.833a8.9,8.9,0,1,1,9.028-8.9A8.973,8.973,0,0,1,151.957,147.833Zm0-16.159a7.264,7.264,0,1,0,7.4,7.263A7.338,7.338,0,0,0,151.957,131.674Z" fill="#231815"/>
            <ellipse cx="151.957" cy="138.937" rx="3.865" ry="3.803" fill="#231815"/>
          </g>
          <path d="M147.484,277.144a4.141,4.141,0,0,1-1.988-.474c-1.967-1.063-2.785-3.635-2.43-7.646.386-4.368-.73-5.411-2.578-7.139a18.269,18.269,0,0,1-5.655-9.143c-3.6-11.6,6.571-16.76,6.674-16.81,8.127-4.647,7.141-10.111,4.982-22.083-.676-3.746-1.443-7.992-2.056-12.987-.3-2.463-.534-4.84-.709-7.264-.168-2.363-.282-4.8-.337-7.241A174.939,174.939,0,0,1,146.3,151.3c1.443-8.1,3.179-15.81,5.162-22.92C165.192,78.9,187.75,66.031,188.7,65.508a.816.816,0,1,1,.786,1.431c-.929.51-22.906,13.053-36.453,61.875-1.969,7.061-3.694,14.721-5.128,22.768a173.334,173.334,0,0,0-2.889,34.737c.055,2.417.167,4.826.333,7.162.173,2.4.4,4.746.7,7.182.608,4.949,1.37,9.172,2.042,12.9,2.16,11.975,3.35,18.572-5.823,23.814a12.125,12.125,0,0,0-5.88,14.884,16.836,16.836,0,0,0,5.211,8.434c1.98,1.853,3.545,3.316,3.089,8.478-.287,3.253.259,5.35,1.579,6.063,1.369.739,3.441-.07,4.79-1.134,2.659-2.089,4.432-7.343,2.485-12.971-.183-.532-.376-1.067-.567-1.6-1.248-3.453-2.537-7.024-.891-9.6,1.125-1.763,3.447-2.777,7.1-3.1a.817.817,0,1,1,.143,1.627c-3.067.27-5.039,1.061-5.862,2.35-1.214,1.9-.114,4.945,1.05,8.169.2.54.39,1.082.576,1.621,2.193,6.339.081,12.35-3.02,14.786A7.823,7.823,0,0,1,147.484,277.144Z" fill="#231815"/>
        </g>
        <g>
          <path d="M215.6,170.756a2.548,2.548,0,0,0,2.485-3.035c-.362-1.175-2.491-6.853-2.491-6.853h.013s-2.129,5.678-2.492,6.853A2.548,2.548,0,0,0,215.6,170.756Z" fill="#97d2ce"/>
          <path d="M215.6,171.6a3.352,3.352,0,0,1-2.715-1.385,3.173,3.173,0,0,1-.571-2.736c.338-1.1,2.119-5.863,2.456-6.761a.837.837,0,0,1,.134-.322.875.875,0,0,1,1.386,0,.865.865,0,0,1,.132.3c.311.831,2.124,5.68,2.465,6.787a3.171,3.171,0,0,1-.571,2.735A3.351,3.351,0,0,1,215.6,171.6Zm0-8.307c-.642,1.733-1.474,4-1.683,4.68a1.549,1.549,0,0,0,.317,1.246,1.679,1.679,0,0,0,2.732,0,1.546,1.546,0,0,0,.318-1.246C217.071,167.29,216.239,165.021,215.6,163.288Z" fill="#231815"/>
        </g>
        <g>
          <path d="M158.461,214.9a2.548,2.548,0,0,0,2.485-3.035c-.362-1.175-2.492-6.853-2.492-6.853h.014s-2.13,5.678-2.492,6.853A2.548,2.548,0,0,0,158.461,214.9Z" fill="#97d2ce"/>
          <path d="M158.461,215.734a3.35,3.35,0,0,1-2.715-1.385,3.166,3.166,0,0,1-.571-2.735c.338-1.1,2.119-5.862,2.455-6.761a.845.845,0,0,1,.135-.322.876.876,0,0,1,1.385,0,.86.86,0,0,1,.132.3c.312.831,2.124,5.68,2.466,6.786a3.17,3.17,0,0,1-.571,2.735A3.353,3.353,0,0,1,158.461,215.734Zm0-8.305c-.642,1.733-1.474,4-1.684,4.679a1.551,1.551,0,0,0,.318,1.245,1.677,1.677,0,0,0,2.732,0,1.548,1.548,0,0,0,.318-1.245C159.936,211.431,159.1,209.162,158.461,207.429Z" fill="#231815"/>
        </g>
      </g>
      <g>
        <path d="M291.894,45.638c-.122.819-.224,1.8-.264,2.578-.1,2.078-.244,6.414-.244,8.833,0,1.938,1.2,2.577,2.721,2.577,3.27,0,5.3-1.838,6.743-3.957l1.788,2.179a10.307,10.307,0,0,1-8.551,4.416c-3.229,0-5.321-1.4-5.321-4.7,0-2.6.2-7.674.2-9.352a11.551,11.551,0,0,0-.264-2.618Zm6.986,4.676-1.787.76a17.956,17.956,0,0,0-1.828-3.2l1.747-.719A32.361,32.361,0,0,1,298.88,50.314Zm2.722-1.159-1.727.819a20.129,20.129,0,0,0-1.929-3.117l1.727-.759A26.209,26.209,0,0,1,301.6,49.155Z"/>
        <path d="M291.853,68.775a26.856,26.856,0,0,1,6.662-1.439c3.067,0,5.2,1.878,5.2,4.555,0,3.458-3.026,5.876-9.159,6.195l-1.016-2.318c4.224-.08,7.656-1.2,7.656-3.9,0-1.219-.913-2.4-2.8-2.4-2.377,0-6.073,1.6-7.718,2.3l-1.015-2.5A22.335,22.335,0,0,0,291.853,68.775Z"/>
        <path d="M294.979,83.622a1.832,1.832,0,1,1-1.95,1.839A1.857,1.857,0,0,1,294.979,83.622Zm0,7.574a1.832,1.832,0,1,1-1.95,1.819A1.853,1.853,0,0,1,294.979,91.2Zm0,7.573a1.832,1.832,0,1,1-1.95,1.819A1.854,1.854,0,0,1,294.979,98.769Z"/>
      </g>
      <g>
        <g>
          <polygon points="74.719 210.576 89.797 192.53 93.65 48.976 78.391 14.358 47.325 6.624 14.971 14.748 1 48.587 1.926 197.542 23.287 218.31 49.787 222.729 74.719 210.576" fill="#fff"/>
          <path d="M49.787,223.729a1.122,1.122,0,0,1-.164-.013l-26.5-4.42a.991.991,0,0,1-.533-.27L1.229,198.259a1,1,0,0,1-.3-.711L0,48.593a.994.994,0,0,1,.076-.388L14.047,14.366a1,1,0,0,1,.681-.588L47.081,5.654a1,1,0,0,1,.485,0l31.067,7.735a1,1,0,0,1,.673.567L94.564,48.573a1,1,0,0,1,.085.43L90.8,192.557a.992.992,0,0,1-.232.615L75.486,211.218a.992.992,0,0,1-.329.256L50.225,223.628A1,1,0,0,1,49.787,223.729ZM23.76,217.375l25.876,4.315,24.452-11.92,14.719-17.614L92.644,49.174,77.674,15.21,47.326,7.655,15.7,15.6,2,48.782l.922,148.335Zm50.959-6.8h0Z" fill="#231815"/>
        </g>
        <g>
          <ellipse cx="77.299" cy="211.058" rx="10.838" ry="10.663" fill="#fff"/>
          <path d="M77.3,222.722a11.665,11.665,0,1,1,11.838-11.665A11.765,11.765,0,0,1,77.3,222.722Zm0-21.328a9.666,9.666,0,1,0,9.838,9.663A9.762,9.762,0,0,0,77.3,201.394Z" fill="#231815"/>
        </g>
        <g>
          <ellipse cx="99.606" cy="227.331" rx="5.999" ry="5.903" fill="#fff"/>
          <path d="M99.606,234.234a6.9,6.9,0,1,1,7-6.9A6.96,6.96,0,0,1,99.606,234.234Zm0-11.806a4.9,4.9,0,1,0,5,4.9A4.958,4.958,0,0,0,99.606,222.428Z" fill="#231815"/>
        </g>
      </g>
      <g>
        <g>
          <path d="M485.756,139.4h4.315s17.774.7,17.774,16.78v31.8h-66.6v-31.8c0-16.08,17.773-16.78,17.773-16.78h4.315" fill="#e84572"/>
          <path d="M507.845,188.7h-66.6a.717.717,0,0,1-.718-.717v-31.8c0-16.579,18.278-17.489,18.463-17.5h4.343a.717.717,0,1,1,0,1.434h-4.315a24.248,24.248,0,0,0-8.61,2.306c-5.6,2.771-8.446,7.4-8.446,13.757v31.082h65.164V156.183c0-6.357-2.841-10.986-8.446-13.757a24.192,24.192,0,0,0-8.638-2.306h-4.287a.717.717,0,1,1,0-1.434h4.315c.213.008,18.491.918,18.491,17.5v31.8A.716.716,0,0,1,507.845,188.7Z" fill="#231815"/>
        </g>
        <path d="M485.663,139.7s0,4.674-5.674,4.674S474.5,139.4,474.5,139.4v.3s0,4.674-5.673,4.674-5.491-4.972-5.491-4.972Z" fill="#fff"/>
        <g>
          <rect x="463.334" y="132.117" width="22.422" height="7.285" fill="#f4aeb6"/>
          <path d="M485.756,140.12H463.334a.717.717,0,0,1-.717-.717v-7.286a.718.718,0,0,1,.717-.717h22.422a.717.717,0,0,1,.717.717V139.4A.716.716,0,0,1,485.756,140.12Zm-21.7-1.434h20.987v-5.852H464.052Z" fill="#231815"/>
        </g>
        <g>
          <g>
            <path d="M474.5,36.294s40.557-3.388,34.889,55.163c0,0-2.138,19.2-23.631,40.66H463.241c-21.493-21.46-23.631-40.66-23.631-40.66C433.942,32.906,474.5,36.294,474.5,36.294" fill="#f4aeb6"/>
            <path d="M485.756,132.834H463.241a.719.719,0,0,1-.507-.209c-11.183-11.166-17.064-21.717-20.027-28.6a48.4,48.4,0,0,1-3.81-12.487c-2.059-21.261,1.666-36.866,11.067-46.393a36.24,36.24,0,0,1,49.069,0c9.4,9.527,13.125,25.132,11.068,46.383-.023.2-2.415,19.708-23.838,41.1A.719.719,0,0,1,485.756,132.834ZM463.538,131.4h21.921c20.878-20.956,23.194-39.834,23.215-40.022,2.013-20.785-1.569-36-10.646-45.211-9.99-10.138-23.335-9.171-23.47-9.158a1.181,1.181,0,0,1-.119,0c-.133-.012-13.48-.98-23.47,9.158-9.077,9.212-12.659,24.426-10.646,45.221C440.343,91.566,442.694,110.477,463.538,131.4Z" fill="#231815"/>
          </g>
          <path d="M474.522,111.571H488.3s-3.155,4.759-13.79,4.759-13.789-4.759-13.789-4.759h13.805Z" fill="#e84572"/>
          <path d="M488.3,111.571H460.717s6.038-5.148,8.859-5.407,4.93,2.372,4.93,2.372,2.116-2.639,4.938-2.372S488.3,111.571,488.3,111.571Z" fill="#e84572"/>
          <path d="M489.565,93.656a8.032,8.032,0,1,1,0-16.062,8.226,8.226,0,0,1,5.891,2.471,7.916,7.916,0,0,1,2.279,5.568A8.1,8.1,0,0,1,489.565,93.656Z" fill="#fff8ee"/>
          <path d="M484.394,86.957a4.09,4.09,0,1,1,4.085,4.011A4.048,4.048,0,0,1,484.394,86.957Z" fill="#97d2ce"/>
          <path d="M488.479,85.576a1.377,1.377,0,1,1-1.395,1.381A1.392,1.392,0,0,1,488.479,85.576Z" fill="#231815"/>
          <path d="M456.873,86.957a1.4,1.4,0,1,1,1.4,1.373A1.385,1.385,0,0,1,456.873,86.957Z" fill="#231815"/>
          <path d="M459.355,93.656a8.1,8.1,0,0,1-8.163-8.023,7.92,7.92,0,0,1,2.279-5.568,8.21,8.21,0,0,1,5.884-2.471,8.032,8.032,0,1,1,0,16.062Z" fill="#fff8ee"/>
          <path d="M454.176,86.957a4.09,4.09,0,1,1,4.093,4.011A4.055,4.055,0,0,1,454.176,86.957Z" fill="#97d2ce"/>
          <path d="M459.355,94.373a8.821,8.821,0,0,1-8.88-8.74,8.634,8.634,0,0,1,2.484-6.07,8.983,8.983,0,0,1,6.4-2.685,8.748,8.748,0,1,1,0,17.5Zm0-16.062a7.545,7.545,0,0,0-5.371,2.255,7.206,7.206,0,0,0-2.074,5.067,7.442,7.442,0,1,0,7.445-7.322Z" fill="#231815"/>
          <path d="M458.269,91.685a4.733,4.733,0,1,1,4.8-4.728A4.774,4.774,0,0,1,458.269,91.685Zm0-8.031a3.3,3.3,0,1,0,3.367,3.3A3.344,3.344,0,0,0,458.269,83.654Z" fill="#231815"/>
          <path d="M456.9,78.486A.715.715,0,0,1,456.22,78l-1.008-2.913a.717.717,0,1,1,1.355-.469l1.008,2.913a.716.716,0,0,1-.678.951Z" fill="#231815"/>
          <path d="M453.471,80.792a.706.706,0,0,1-.549-.26l-2.4-2.315a.717.717,0,1,1,1-1.032l2.449,2.365a.7.7,0,0,1,.135.177.721.721,0,0,1-.633,1.065Z" fill="#231815"/>
          <path d="M462.455,78.792a.709.709,0,0,1-.234-.039.717.717,0,0,1-.444-.911l1.008-2.922a.717.717,0,1,1,1.356.467l-1.008,2.921A.718.718,0,0,1,462.455,78.792Z" fill="#231815"/>
          <path d="M465.866,81.1a.718.718,0,0,1-.5-1.233l2.465-2.387a.718.718,0,0,1,1,1.032l-2.465,2.386A.717.717,0,0,1,465.866,81.1Z" fill="#231815"/>
          <path d="M489.565,94.373a8.748,8.748,0,1,1,6.4-14.81,8.634,8.634,0,0,1,2.484,6.07A8.825,8.825,0,0,1,489.565,94.373Zm0-16.062a7.315,7.315,0,1,0,7.453,7.322,7.2,7.2,0,0,0-2.075-5.066A7.474,7.474,0,0,0,489.565,78.311Z" fill="#231815"/>
          <path d="M488.479,91.685a4.733,4.733,0,1,1,4.81-4.728A4.771,4.771,0,0,1,488.479,91.685Zm0-8.031a3.3,3.3,0,1,0,3.375,3.3A3.34,3.34,0,0,0,488.479,83.654Z" fill="#231815"/>
          <path d="M492.03,78.486a.716.716,0,0,1-.678-.951l1.008-2.913a.717.717,0,1,1,1.355.469L492.708,78A.717.717,0,0,1,492.03,78.486Z" fill="#231815"/>
          <path d="M495.954,80.581l-1-1.024,2.457-2.372a.717.717,0,0,1,1,1.032Z" fill="#231815"/>
          <path d="M486.472,78.792a.718.718,0,0,1-.678-.484l-1.007-2.921a.717.717,0,1,1,1.355-.467l1.008,2.922a.716.716,0,0,1-.444.911A.736.736,0,0,1,486.472,78.792Z" fill="#231815"/>
          <path d="M483.054,81.1a.717.717,0,0,1-.5-.2L480.1,78.506a.717.717,0,0,1,1-1.03l2.457,2.387a.717.717,0,0,1-.5,1.232Z" fill="#231815"/>
          <path d="M488.3,112.288h-27.58a.717.717,0,0,1-.465-1.263c.636-.542,6.3-5.3,9.26-5.575a6.571,6.571,0,0,1,4.995,2.039,6.573,6.573,0,0,1,5.005-2.039c2.954.272,8.615,5.033,9.25,5.575a.717.717,0,0,1-.465,1.263Zm-25.552-1.434h23.525c-2.113-1.637-5.262-3.826-6.891-3.976-2.4-.22-4.294,2.085-4.313,2.108a.72.72,0,0,1-.559.266h0a.719.719,0,0,1-.558-.266c-.019-.023-1.928-2.347-4.3-2.108C468.009,107.028,464.857,109.217,462.744,110.854Z" fill="#231815"/>
          <path d="M474.506,117.047c-10.894,0-14.25-4.872-14.387-5.079a.717.717,0,1,1,1.195-.793c.028.041,3.143,4.438,13.192,4.438s13.164-4.4,13.2-4.442a.717.717,0,0,1,1.193.8C488.756,112.175,485.4,117.047,474.506,117.047Z" fill="#231815"/>
        </g>
        <path d="M474.5,102.592a3.965,3.965,0,0,1-3.212-1.64,3.719,3.719,0,0,1-.682-3.206c.437-1.42,2.774-7.671,3.175-8.742a.709.709,0,0,1,.12-.3.726.726,0,0,1,1.307.279c.374,1,2.745,7.336,3.185,8.767a3.718,3.718,0,0,1-.681,3.206A3.965,3.965,0,0,1,474.5,102.592Zm0-11.41c-.845,2.271-2.212,5.975-2.524,6.987a2.344,2.344,0,0,0,.465,1.931,2.532,2.532,0,0,0,4.117,0,2.344,2.344,0,0,0,.465-1.931C476.71,97.157,475.343,93.453,474.5,91.182Z" fill="#231815"/>
        <path d="M488.3,112.288h-27.58a.717.717,0,1,1,0-1.434H488.3a.717.717,0,0,1,0,1.434Z" fill="#231815"/>
        <path d="M474.545,188.7h-33.3a.717.717,0,0,1-.718-.717v-31.8c0-16.579,18.278-17.489,18.463-17.5h4.343a.717.717,0,1,1,0,1.434h-4.315a24.248,24.248,0,0,0-8.61,2.306c-5.6,2.771-8.446,7.4-8.446,13.757v31.082h32.582a.717.717,0,1,1,0,1.433Z" fill="#231815"/>
        <path d="M507.845,188.7h-33.3a.717.717,0,1,1,0-1.433h32.582V156.183c0-6.357-2.841-10.986-8.446-13.757a24.192,24.192,0,0,0-8.638-2.306h-4.287a.717.717,0,1,1,0-1.434h4.315c.213.008,18.491.918,18.491,17.5v31.8A.716.716,0,0,1,507.845,188.7Z" fill="#231815"/>
        <path d="M468.825,145.092a6.213,6.213,0,0,1-4.669-1.71,5.925,5.925,0,0,1-1.538-4,.732.732,0,0,1,.743-.691.718.718,0,0,1,.69.741,4.529,4.529,0,0,0,1.148,2.97,4.858,4.858,0,0,0,3.626,1.261c4.779,0,4.952-3.556,4.956-3.961a.72.72,0,0,1,.718-.711h0a.716.716,0,0,1,.714.715C475.216,139.755,475.143,145.092,468.825,145.092Z" fill="#231815"/>
        <path d="M479.989,145.092a6.213,6.213,0,0,1-4.669-1.71,5.925,5.925,0,0,1-1.538-4,.734.734,0,0,1,.743-.691.718.718,0,0,1,.69.741,4.529,4.529,0,0,0,1.148,2.97,4.858,4.858,0,0,0,3.626,1.261c4.779,0,4.952-3.556,4.956-3.961a.72.72,0,0,1,.718-.711h0a.716.716,0,0,1,.714.715C486.38,139.755,486.307,145.092,479.989,145.092Z" fill="#231815"/>
        <g>
          <path d="M474.545,22.514c40.859,0,46.3,36.929,47.091,49.071.918,14.04-.92,32.739-10.8,49.18-5.568,9.269-13.822,10.9-13.822,10.9,12.666-30.353,4.29-63.117,4.29-63.117H474.5c-13.327,0-17.726-13.869-17.726-13.869s-6.652,4.623-9.4,15.678c0,0-7.969,30.955,4.7,61.308,0,0-7.574-.607-14.274-12.227-9.015-15.637-11.161-35.182-10.344-47.849.783-12.143,6.232-49.071,47.09-49.071" fill="#ee795e"/>
          <path d="M497.018,132.378a.716.716,0,0,1-.662-.993c11.552-27.681,5.381-57.75,4.385-62.124H474.5c-11.586,0-16.713-10.185-18.044-13.406a28.634,28.634,0,0,0-8.383,14.671c-.081.314-7.759,31.09,4.663,60.859a.714.714,0,0,1-.081.7.724.724,0,0,1-.637.294c-.325-.027-8.029-.774-14.838-12.583-8.986-15.587-11.284-35.147-10.439-48.254.412-6.391,2.08-18.711,8.62-29.417C443.6,28.635,456.783,21.8,474.545,21.8s30.944,6.838,39.182,20.325c6.529,10.689,8.206,23.019,8.624,29.416.693,10.593.2,31.122-10.9,49.6-5.666,9.433-13.949,11.162-14.3,11.23A.646.646,0,0,1,497.018,132.378ZM474.545,23.23c-13,0-43.559,4.717-46.375,48.4-.832,12.9,1.424,32.136,10.25,47.445,4.82,8.36,10.118,10.857,12.47,11.583-11.873-29.82-4.288-60.177-4.209-60.484,2.777-11.183,9.4-15.894,9.682-16.089A.722.722,0,0,1,457,54a.715.715,0,0,1,.453.461c.043.134,4.41,13.37,17.043,13.37h26.81a.717.717,0,0,1,.695.539c.083.325,8.039,32.346-3.759,62.183A23.365,23.365,0,0,0,510.226,120.4c10.895-18.138,11.377-38.338,10.694-48.763C518.062,27.947,487.537,23.23,474.545,23.23Z" fill="#231815"/>
        </g>
        <g>
          <path d="M468.916,56.816s6.159,11.728,12.711,11.728" fill="#ee795e"/>
          <path d="M481.627,69.261c-6.906,0-13.086-11.617-13.346-12.112a.717.717,0,0,1,1.27-.667c.059.115,6.034,11.345,12.076,11.345a.717.717,0,1,1,0,1.434Z" fill="#231815"/>
        </g>
        <g>
          <path d="M480.22,56.816s6.159,11.728,12.711,11.728" fill="#ee795e"/>
          <path d="M492.931,69.261c-6.906,0-13.086-11.617-13.346-12.112a.717.717,0,0,1,1.27-.667c.059.115,6.034,11.345,12.076,11.345a.717.717,0,0,1,0,1.434Z" fill="#231815"/>
        </g>
      </g>
      <g>
        <g>
          <path d="M378.311,139.4h4.316s17.773.7,17.773,16.78v31.8H333.8v-31.8c0-16.08,17.774-16.78,17.774-16.78h4.315" fill="#97d2ce"/>
          <path d="M400.4,188.7H333.8a.716.716,0,0,1-.717-.717v-31.8c0-16.579,18.278-17.489,18.462-17.5h4.344a.717.717,0,1,1,0,1.434h-4.315a24.243,24.243,0,0,0-8.61,2.306c-5.6,2.771-8.447,7.4-8.447,13.757v31.082h65.165V156.183c0-6.357-2.842-10.986-8.447-13.757a24.187,24.187,0,0,0-8.638-2.306h-4.286a.717.717,0,1,1,0-1.434h4.314c.213.008,18.492.918,18.492,17.5v31.8A.717.717,0,0,1,400.4,188.7Z" fill="#231815"/>
        </g>
        <path d="M378.218,139.7s0,4.674-5.673,4.674-5.491-4.972-5.491-4.972v.3s0,4.674-5.673,4.674-5.491-4.972-5.491-4.972Z" fill="#fff"/>
        <g>
          <rect x="355.89" y="132.117" width="22.422" height="7.285" fill="#f4aeb6"/>
          <path d="M378.312,140.12H355.89a.717.717,0,0,1-.718-.717v-7.286a.718.718,0,0,1,.718-.717h22.422a.717.717,0,0,1,.717.717V139.4A.716.716,0,0,1,378.312,140.12Zm-21.7-1.434h20.987v-5.852H356.607Z" fill="#231815"/>
        </g>
        <g>
          <g>
            <path d="M367.054,36.294s40.557-3.388,34.889,55.163c0,0-2.138,19.2-23.632,40.66H355.8c-21.493-21.46-23.631-40.66-23.631-40.66-5.668-58.551,34.889-55.163,34.889-55.163" fill="#f4aeb6"/>
            <path d="M378.312,132.834H355.8a.715.715,0,0,1-.506-.209c-11.184-11.166-17.064-21.717-20.028-28.6a48.494,48.494,0,0,1-3.81-12.487c-2.058-21.261,1.666-36.866,11.068-46.393a36.239,36.239,0,0,1,49.068,0c9.4,9.527,13.126,25.132,11.069,46.383-.023.2-2.415,19.708-23.839,41.1A.717.717,0,0,1,378.312,132.834ZM356.094,131.4h21.92c20.879-20.956,23.195-39.834,23.216-40.022,2.012-20.785-1.569-36-10.646-45.211-9.991-10.138-23.336-9.172-23.471-9.158a1.161,1.161,0,0,1-.118,0c-.133-.012-13.48-.98-23.471,9.158-9.077,9.211-12.658,24.426-10.645,45.221C332.9,91.566,335.25,110.477,356.094,131.4Z" fill="#231815"/>
          </g>
          <path d="M367.077,111.571h13.774s-3.154,4.759-13.789,4.759-13.79-4.759-13.79-4.759h13.805Z" fill="#e84572"/>
          <path d="M380.851,111.571H353.272s6.038-5.148,8.86-5.407,4.93,2.372,4.93,2.372,2.116-2.639,4.937-2.372S380.851,111.571,380.851,111.571Z" fill="#e84572"/>
          <path d="M382.12,93.656a8.032,8.032,0,1,1,0-16.062,8.224,8.224,0,0,1,5.891,2.471,7.916,7.916,0,0,1,2.279,5.568A8.1,8.1,0,0,1,382.12,93.656Z" fill="#fff8ee"/>
          <path d="M376.949,86.957a4.09,4.09,0,1,1,4.085,4.011A4.048,4.048,0,0,1,376.949,86.957Z" fill="#97d2ce"/>
          <path d="M381.034,85.576a1.377,1.377,0,1,1-1.395,1.381A1.392,1.392,0,0,1,381.034,85.576Z" fill="#231815"/>
          <path d="M349.429,86.957a1.4,1.4,0,1,1,1.4,1.373A1.385,1.385,0,0,1,349.429,86.957Z" fill="#231815"/>
          <path d="M351.91,93.656a8.1,8.1,0,0,1-8.162-8.023,7.916,7.916,0,0,1,2.279-5.568,8.206,8.206,0,0,1,5.883-2.471,8.032,8.032,0,1,1,0,16.062Z" fill="#fff8ee"/>
          <path d="M346.731,86.957a4.09,4.09,0,1,1,4.093,4.011A4.055,4.055,0,0,1,346.731,86.957Z" fill="#97d2ce"/>
          <path d="M351.91,94.373a8.82,8.82,0,0,1-8.879-8.74,8.637,8.637,0,0,1,2.483-6.07,8.987,8.987,0,0,1,6.4-2.685,8.748,8.748,0,1,1,0,17.5Zm0-16.062a7.544,7.544,0,0,0-5.37,2.255,7.207,7.207,0,0,0-2.075,5.067,7.442,7.442,0,1,0,7.445-7.322Z" fill="#231815"/>
          <path d="M350.824,91.685a4.733,4.733,0,1,1,4.8-4.728A4.775,4.775,0,0,1,350.824,91.685Zm0-8.031a3.3,3.3,0,1,0,3.368,3.3A3.344,3.344,0,0,0,350.824,83.654Z" fill="#231815"/>
          <path d="M349.453,78.486a.715.715,0,0,1-.678-.482l-1.007-2.913a.717.717,0,0,1,1.355-.469l1.007,2.913a.716.716,0,0,1-.677.951Z" fill="#231815"/>
          <path d="M346.026,80.792a.7.7,0,0,1-.547-.26l-2.4-2.315a.717.717,0,1,1,1-1.032l2.45,2.365a.721.721,0,0,1-.157,1.155A.716.716,0,0,1,346.026,80.792Z" fill="#231815"/>
          <path d="M355.011,78.792a.709.709,0,0,1-.234-.039.717.717,0,0,1-.444-.911l1.007-2.922a.717.717,0,1,1,1.356.467l-1.007,2.921A.719.719,0,0,1,355.011,78.792Z" fill="#231815"/>
          <path d="M358.421,81.1a.718.718,0,0,1-.5-1.233l2.465-2.387a.718.718,0,0,1,1,1.032l-2.465,2.386A.714.714,0,0,1,358.421,81.1Z" fill="#231815"/>
          <path d="M382.12,94.373a8.748,8.748,0,1,1,6.4-14.81,8.634,8.634,0,0,1,2.484,6.07A8.824,8.824,0,0,1,382.12,94.373Zm0-16.062a7.315,7.315,0,1,0,7.453,7.322,7.206,7.206,0,0,0-2.074-5.066A7.476,7.476,0,0,0,382.12,78.311Z" fill="#231815"/>
          <path d="M381.034,91.685a4.733,4.733,0,1,1,4.81-4.728A4.771,4.771,0,0,1,381.034,91.685Zm0-8.031a3.3,3.3,0,1,0,3.376,3.3A3.339,3.339,0,0,0,381.034,83.654Z" fill="#231815"/>
          <path d="M384.585,78.486a.7.7,0,0,1-.234-.039.717.717,0,0,1-.444-.912l1.008-2.913a.717.717,0,0,1,1.356.469L385.263,78A.717.717,0,0,1,384.585,78.486Z" fill="#231815"/>
          <path d="M388.509,80.581l-1-1.024,2.458-2.372a.717.717,0,1,1,1,1.032Z" fill="#231815"/>
          <path d="M379.027,78.792a.715.715,0,0,1-.677-.484l-1.008-2.921a.717.717,0,1,1,1.355-.467l1.008,2.922a.716.716,0,0,1-.444.911A.732.732,0,0,1,379.027,78.792Z" fill="#231815"/>
          <path d="M375.609,81.1a.719.719,0,0,1-.5-.2l-2.457-2.386a.717.717,0,0,1,1-1.03l2.457,2.387a.717.717,0,0,1-.5,1.232Z" fill="#231815"/>
          <path d="M380.851,112.288H353.272a.717.717,0,0,1-.465-1.263c.635-.542,6.3-5.3,9.259-5.575a6.62,6.62,0,0,1,5,2.039,6.564,6.564,0,0,1,5-2.039c2.954.272,8.615,5.033,9.25,5.575a.717.717,0,0,1-.465,1.263ZM355.3,110.854h23.525c-2.113-1.637-5.262-3.826-6.89-3.976-2.394-.22-4.3,2.085-4.314,2.108a.719.719,0,0,1-.558.266h0a.72.72,0,0,1-.559-.266c-.019-.024-1.93-2.338-4.3-2.108C360.563,107.028,357.412,109.217,355.3,110.854Z" fill="#231815"/>
          <path d="M367.062,117.047c-10.9,0-14.25-4.872-14.388-5.079a.718.718,0,0,1,1.2-.793c.027.041,3.142,4.438,13.192,4.438s13.164-4.4,13.194-4.442a.717.717,0,0,1,1.193.8C381.311,112.175,377.956,117.047,367.062,117.047Z" fill="#231815"/>
        </g>
        <path d="M367.054,102.592a3.965,3.965,0,0,1-3.212-1.64,3.721,3.721,0,0,1-.682-3.206c.437-1.42,2.775-7.671,3.176-8.742a.709.709,0,0,1,.12-.3.753.753,0,0,1,1.188,0,.773.773,0,0,1,.119.279c.374,1,2.744,7.336,3.185,8.767a3.721,3.721,0,0,1-.682,3.206A3.965,3.965,0,0,1,367.054,102.592Zm0-11.41c-.845,2.271-2.212,5.975-2.524,6.986A2.343,2.343,0,0,0,365,100.1a2.531,2.531,0,0,0,4.116,0,2.343,2.343,0,0,0,.466-1.932C369.266,97.157,367.9,93.453,367.054,91.182Z" fill="#231815"/>
        <path d="M380.851,112.288H353.272a.717.717,0,1,1,0-1.434h27.579a.717.717,0,0,1,0,1.434Z" fill="#231815"/>
        <path d="M367.1,188.7H333.8a.716.716,0,0,1-.717-.717v-31.8c0-16.579,18.278-17.489,18.462-17.5h4.344a.717.717,0,1,1,0,1.434h-4.315a24.243,24.243,0,0,0-8.61,2.306c-5.6,2.771-8.447,7.4-8.447,13.757v31.082H367.1a.717.717,0,1,1,0,1.433Z" fill="#231815"/>
        <path d="M400.4,188.7H367.1a.717.717,0,1,1,0-1.433h32.582V156.183c0-6.357-2.842-10.986-8.447-13.757a24.187,24.187,0,0,0-8.638-2.306h-4.286a.717.717,0,1,1,0-1.434h4.314c.213.008,18.492.918,18.492,17.5v31.8A.717.717,0,0,1,400.4,188.7Z" fill="#231815"/>
        <path d="M361.381,145.092a6.214,6.214,0,0,1-4.67-1.71,5.925,5.925,0,0,1-1.538-4,.717.717,0,0,1,1.433.05,4.529,4.529,0,0,0,1.148,2.97,4.861,4.861,0,0,0,3.627,1.261c4.778,0,4.952-3.556,4.955-3.961a.72.72,0,0,1,.718-.711h0a.716.716,0,0,1,.714.715C367.771,139.755,367.7,145.092,361.381,145.092Z" fill="#231815"/>
        <path d="M372.545,145.092a6.211,6.211,0,0,1-4.669-1.71,5.934,5.934,0,0,1-1.539-4,.711.711,0,0,1,.743-.691.719.719,0,0,1,.691.741,4.519,4.519,0,0,0,1.147,2.97,4.861,4.861,0,0,0,3.627,1.261c4.778,0,4.952-3.556,4.956-3.961a.719.719,0,0,1,.717-.711h0a.716.716,0,0,1,.714.715C378.936,139.755,378.862,145.092,372.545,145.092Z" fill="#231815"/>
        <g>
          <path d="M394.271,70.353s7.968,30.955-4.7,61.308l16.909-.41c9.942-27.323,7.709-59.666,7.709-59.666-.783-12.143-6.232-49.071-47.09-49.071S320.793,59.442,320.01,71.585c0,0-2.233,32.343,7.709,59.666l16.909.41c-12.666-30.353-4.7-61.308-4.7-61.308Z" fill="#fff8ee"/>
          <path d="M389.573,132.378a.716.716,0,0,1-.661-.993c11.518-27.6,5.755-56.073,4.792-60.315H340.5c-.963,4.242-6.727,32.712,4.792,60.315a.719.719,0,0,1-.07.681.707.707,0,0,1-.61.312l-16.908-.41a.72.72,0,0,1-.657-.472c-9.879-27.151-7.773-59.636-7.75-59.961.412-6.387,2.08-18.707,8.62-29.413C336.155,28.635,349.338,21.8,367.1,21.8s30.945,6.838,39.185,20.325c6.541,10.706,8.209,23.026,8.621,29.417.022.321,2.129,32.806-7.751,59.957a.718.718,0,0,1-.656.472l-16.909.41ZM339.93,69.637h54.341a.715.715,0,0,1,.694.538c.08.308,7.709,30.839-4.312,60.743l15.321-.372c9.585-26.766,7.524-58.592,7.5-58.911-2.816-43.688-33.37-48.4-46.375-48.4s-43.559,4.717-46.375,48.4c-.022.323-2.084,32.149,7.5,58.915l15.321.372c-12.021-29.9-4.392-60.435-4.312-60.743A.715.715,0,0,1,339.93,69.637Z" fill="#231815"/>
        </g>
      </g>
      <g>
        <line x1="349.017" y1="70.353" x2="349.017" y2="59.063" fill="#ee795e"/>
        <path d="M349.018,71.07a.717.717,0,0,1-.718-.717V59.063a.718.718,0,0,1,1.435,0v11.29A.716.716,0,0,1,349.018,71.07Z" fill="#231815"/>
      </g>
      <g>
        <line x1="361.166" y1="70.353" x2="361.166" y2="59.063" fill="#ee795e"/>
        <path d="M361.167,71.07a.717.717,0,0,1-.718-.717V59.063a.718.718,0,0,1,1.435,0v11.29A.716.716,0,0,1,361.167,71.07Z" fill="#231815"/>
      </g>
      <g>
        <line x1="373.315" y1="70.353" x2="373.315" y2="59.063" fill="#ee795e"/>
        <path d="M373.315,71.07a.716.716,0,0,1-.717-.717V59.063a.718.718,0,0,1,1.435,0v11.29A.717.717,0,0,1,373.315,71.07Z" fill="#231815"/>
      </g>
      <g>
        <line x1="385.465" y1="70.353" x2="385.465" y2="59.063" fill="#ee795e"/>
        <path d="M385.464,71.07a.716.716,0,0,1-.717-.717V59.063a.718.718,0,0,1,1.435,0v11.29A.717.717,0,0,1,385.464,71.07Z" fill="#231815"/>
      </g>
      <g>
        <polygon points="572.381 151.405 576.518 224.96 598.349 252.005 649.868 262.331 673.061 247.128 685.936 217.673 686 61.517 662.958 5.476 621.172 1 586.532 12.608 571.573 60.96 572.108 131.442 572.191 131.442 558.238 120.8 552.293 139.334 521.835 134.339 558.385 155.317 562.446 141.331 572.326 151.321 572.381 151.405" fill="#fff"/>
        <path d="M649.868,263.331a1,1,0,0,1-.2-.02l-51.519-10.325a1,1,0,0,1-.582-.352L575.74,225.588a.991.991,0,0,1-.22-.572L571.4,151.809l-8.47-8.565L559.345,155.6a1,1,0,0,1-1.458.587l-36.55-20.977a1,1,0,0,1,.659-1.854l29.608,4.856,5.682-17.713a1,1,0,0,1,1.558-.489l12.248,9.34-.519-68.378a1.012,1.012,0,0,1,.044-.3l14.96-48.353a1,1,0,0,1,.637-.652L620.854.052a1,1,0,0,1,.424-.046l41.786,4.475a1,1,0,0,1,.818.615l23.043,56.042a.989.989,0,0,1,.075.379l-.064,156.156a1,1,0,0,1-.083.4l-12.876,29.456a1.007,1.007,0,0,1-.368.436l-23.192,15.2A1,1,0,0,1,649.868,263.331ZM598.9,251.1l50.763,10.172,22.6-14.813,12.673-28.992L685,61.715,662.259,6.406,621.283,2.017,587.335,13.392,572.574,61.107l.531,69.93a1,1,0,0,1-.914,1.4,1.14,1.14,0,0,1-.835-.379l-12.6-9.607-5.512,17.185a1,1,0,0,1-1.114.681l-25.012-4.1,30.66,17.6,3.706-12.763a1,1,0,0,1,1.672-.424l9.88,9.99a1.026,1.026,0,0,1,.125.154l.055.084a.989.989,0,0,1,.162.493l4.12,73.233Z" fill="#231815"/>
      </g>
      <g>
        <path d="M52.314,55.437c.69,0,.812-.34.914-2.658a7.775,7.775,0,0,0,2.213.939c-.264,3.157-.893,3.977-2.9,3.977H49.856c-2.416,0-2.985-.719-2.985-2.957v-3.2H44.413c-.427,3.177-1.624,5.276-6.641,6.4a7.506,7.506,0,0,0-1.341-2.118c4.164-.76,5.037-2.1,5.382-4.277H39.335V39.81H52.618V51.54h-3.31v3.177c0,.64.122.72.893.72ZM41.671,43.127H50.16V41.888H41.671Zm0,3.158H50.16V45.046H41.671Zm0,3.177H50.16V48.223H41.671Z"/>
        <path d="M39.417,63.825c1.645-.12,4.895-.42,8.49-.74,2.03-.16,4.183-.28,5.564-.32l.021,2.479a20.336,20.336,0,0,0-3.8.279A5.848,5.848,0,0,0,45.53,70.9c0,3.178,3.047,4.316,6.377,4.5l-.934,2.677c-4.123-.26-8.023-2.458-8.023-6.655a7.611,7.611,0,0,1,2.9-5.935c-1.706.2-5.849.62-8.124,1.1l-.244-2.658C38.26,63.905,39.031,63.865,39.417,63.825Z"/>
        <path d="M51.055,84.863c-.467.28-.935.56-1.362.859-1.055.74-2.9,2.318-4.122,3.3a6.165,6.165,0,0,1,1.788-.24c3.351,0,5.889,1.978,5.889,4.9,0,3.077-2.62,5.5-7.515,5.5-2.62,0-4.407-1.239-4.407-3.177a3.289,3.289,0,0,1,3.534-3.018,3.956,3.956,0,0,1,4.184,3.2A2.839,2.839,0,0,0,50.669,93.6c0-1.679-1.646-2.8-3.94-2.8-2.946,0-5.058,1.659-7.088,4L37.792,93c1.381-1.119,3.717-3.117,4.875-4.077,1.076-.919,2.924-2.5,3.9-3.337-1.016.02-3.331.14-4.366.2-.569.04-1.158.08-1.625.16l-.081-2.518a17.285,17.285,0,0,0,1.807.1c1.015,0,4.854-.1,5.991-.2a6.988,6.988,0,0,0,1.483-.221ZM46.77,96.833c-.163-1.2-.854-1.979-1.91-1.979-.731,0-1.219.4-1.219.919,0,.72.691,1.12,1.849,1.12Q46.161,96.893,46.77,96.833Z"/>
        <path d="M52.314,119.489c.69,0,.812-.34.914-2.658a7.746,7.746,0,0,0,2.213.939c-.264,3.157-.893,3.977-2.9,3.977H49.856c-2.416,0-2.985-.719-2.985-2.957v-3.2H44.413c-.427,3.177-1.624,5.276-6.641,6.395a7.506,7.506,0,0,0-1.341-2.118c4.164-.76,5.037-2.1,5.382-4.277H39.335v-11.73H52.618v11.73h-3.31v3.177c0,.64.122.72.893.72Zm-10.643-12.31H50.16V105.94H41.671Zm0,3.158H50.16V109.1H41.671Zm0,3.177H50.16v-1.239H41.671Z"/>
        <path d="M39.417,127.877c1.645-.12,4.895-.42,8.49-.74,2.03-.159,4.183-.279,5.564-.319l.021,2.478a20.336,20.336,0,0,0-3.8.279,5.848,5.848,0,0,0-4.163,5.376c0,3.178,3.047,4.316,6.377,4.5l-.934,2.677c-4.123-.26-8.023-2.458-8.023-6.655a7.612,7.612,0,0,1,2.9-5.935c-1.706.2-5.849.62-8.124,1.1l-.244-2.658C38.26,127.957,39.031,127.917,39.417,127.877Z"/>
        <path d="M51.055,148.916c-.467.28-.935.56-1.362.86-1.055.739-2.9,2.317-4.122,3.3a6.165,6.165,0,0,1,1.788-.24c3.351,0,5.889,1.978,5.889,4.9,0,3.077-2.62,5.495-7.515,5.495-2.62,0-4.407-1.239-4.407-3.177a3.289,3.289,0,0,1,3.534-3.017,3.955,3.955,0,0,1,4.184,3.2,2.839,2.839,0,0,0,1.625-2.577c0-1.679-1.646-2.8-3.94-2.8-2.946,0-5.058,1.659-7.088,4l-1.849-1.8c1.381-1.119,3.717-3.117,4.875-4.077,1.076-.919,2.924-2.5,3.9-3.337-1.016.021-3.331.141-4.366.2-.569.04-1.158.08-1.625.16l-.081-2.518a17.285,17.285,0,0,0,1.807.1c1.015,0,4.854-.1,5.991-.2a6.988,6.988,0,0,0,1.483-.221Zm-4.285,11.97c-.163-1.2-.854-1.979-1.91-1.979-.731,0-1.219.4-1.219.919,0,.72.691,1.12,1.849,1.12Q46.161,160.946,46.77,160.886Z"/>
        <path d="M46.159,168.579a1.832,1.832,0,1,1-1.95,1.839A1.857,1.857,0,0,1,46.159,168.579Zm0,7.574a1.832,1.832,0,1,1-1.95,1.818A1.852,1.852,0,0,1,46.159,176.153Zm0,7.573a1.832,1.832,0,1,1-1.95,1.818A1.853,1.853,0,0,1,46.159,183.726Z"/>
      </g>
      <g>
        <path d="M648.826,37.134c-.1.22-.243.62-.365.979a5.058,5.058,0,0,1,3.8,4.757c0,2.737-1.645,5.394-6.479,6.114l-1.32-2.039c3.818-.4,5.342-2.3,5.342-4.195a2.859,2.859,0,0,0-2.032-2.7,14.651,14.651,0,0,1-4.143,5.855c.143.5.305,1,.468,1.46l-2.276.658c-.081-.239-.162-.5-.244-.778a7.177,7.177,0,0,1-3.066.778,2.536,2.536,0,0,1-2.66-2.837c0-2.477,2.092-5.1,4.854-6.354.041-.82.1-1.639.182-2.419h-.629c-1.036,0-2.58-.1-3.493-.139l-.062-2.239a31.651,31.651,0,0,0,3.636.261h.771l.1-1.039a7.519,7.519,0,0,0,.06-1.16l2.58.08c-.122.36-.2.72-.285,1.019-.06.32-.122.68-.182,1.039a32.436,32.436,0,0,0,6.661-.839l.02,2.258a61.132,61.132,0,0,1-6.987.679c-.06.58-.1,1.159-.141,1.759a12.23,12.23,0,0,1,2.944-.36h.345a10.259,10.259,0,0,0,.184-1.159Zm-7.758,7.873a25.906,25.906,0,0,1-.406-3.877c-1.483,1-2.477,2.478-2.477,3.577,0,.62.263.94.913.94A4.186,4.186,0,0,0,641.068,45.007Zm1.787-4.836a22,22,0,0,0,.223,3.217,11.465,11.465,0,0,0,2.5-3.676,9.625,9.625,0,0,0-2.722.44Z"/>
        <path d="M643.465,67.065c.772-.08,1.3-.2,1.848-.3,2.5-.6,4.468-2.359,4.468-5.176a4.807,4.807,0,0,0-4.123-5.116,36.462,36.462,0,0,1-1.178,5.236c-1.177,3.917-2.864,6.314-5.016,6.314-2.194,0-4.022-2.378-4.022-5.655,0-4.456,3.961-8.273,9.079-8.273,4.853,0,7.941,3.337,7.941,7.554,0,4.057-2.538,6.974-7.515,7.713Zm-1.524-5.856a31.82,31.82,0,0,0,1.056-4.7,6.148,6.148,0,0,0-5,5.615c0,1.959.792,2.9,1.544,2.9C640.357,65.026,641.129,63.827,641.941,61.209Z"/>
        <path d="M646.308,87.9a14.966,14.966,0,0,0,.162,2.577h-3.127c.061-.459.142-1.7.142-2.577V81.488a38.242,38.242,0,0,1-6.885,2.658l-1.422-2.378a30.8,30.8,0,0,0,9.078-3.577,20.445,20.445,0,0,0,5.2-4.416l2.132,1.9a34,34,0,0,1-5.28,4.216Z"/>
        <path d="M651.3,99.029a6.727,6.727,0,0,0-.1,1.039c-.082,2.118-.345,7.593-1.2,9.592a2.461,2.461,0,0,1-2.559,1.5c-1.137,0-2.335-.08-3.31-.16l-.3-2.617a16.421,16.421,0,0,0,2.8.28,1.031,1.031,0,0,0,1.117-.7c.589-1.22.853-5.156.853-7.275H644.1c-.711,5.2-2.621,8.253-6.175,10.731l-2.315-1.819a11.8,11.8,0,0,0,2.62-1.917,11.438,11.438,0,0,0,3.27-7h-2.62c-.671,0-1.788.021-2.62.08V98.19a24.144,24.144,0,0,0,2.62.16h2.843c.02-.54.041-1.119.041-1.719a13.727,13.727,0,0,0-.143-1.8h2.925c-.041.46-.1,1.279-.122,1.759-.02.6-.041,1.2-.081,1.759H648.1a9.323,9.323,0,0,0,1.5-.141Z"/>
        <path d="M651.02,120.726a34.932,34.932,0,0,0-4.285-4.336l2.091-1.738a37.907,37.907,0,0,1,4.347,4.275Z"/>
        <path d="M653.091,129.436v2.138h-18.38v-2.138h4.326a13.457,13.457,0,0,0-1.523-2.2l2.295-.779a11.034,11.034,0,0,1,1.888,2.6l-1.116.38h5.645a22.194,22.194,0,0,0,1.666-3.017l2.621.759c-.488.78-1.037,1.558-1.544,2.258Zm-9.24,13.349c0,1.019-.2,1.578-.894,1.918a6.459,6.459,0,0,1-2.823.38,8.111,8.111,0,0,0-.772-2.018c.752.04,1.564.04,1.828.019.244,0,.325-.08.325-.32v-1.778h-3.392v4.037h-2.3V132.954h8.023Zm-5.728-7.834v1.239h3.392v-1.239Zm3.392,4.3v-1.3h-3.392v1.3Zm6.3,2.058H645.6v-8.152h2.214Zm1.828-8.712h2.376v9.931c0,1.179-.223,1.758-1.035,2.139a8.112,8.112,0,0,1-3.332.4,8.24,8.24,0,0,0-.873-2.238c1.036.04,2.092.04,2.438.019.324,0,.426-.08.426-.359Z"/>
        <path d="M649.72,156.249a7.21,7.21,0,0,1,1.909,4.656c0,2.917-2.66,5.036-6.986,5.036-3.087,0-5.281-1.319-5.281-4.576,0-.46.041-1.119.122-1.9a22.025,22.025,0,0,1-3.757-.659l.122-2.338a16.634,16.634,0,0,0,3.9.779c.1-.859.223-1.778.325-2.638a24.438,24.438,0,0,1-3.9-.7l.1-2.259a16.625,16.625,0,0,0,4.082.74c.061-.559.1-1.079.143-1.5a9.557,9.557,0,0,0,.019-1.719l2.784.14c-.163.719-.244,1.219-.346,1.718l-.2,1.439a28.438,28.438,0,0,0,3.594-.24l-.081,2.3a33.9,33.9,0,0,1-3.838.2c-.1.86-.224,1.759-.325,2.618h.162c1.178,0,2.641-.1,3.941-.239l-.082,2.317a31.416,31.416,0,0,1-3.473.18h-.771a11.92,11.92,0,0,0-.082,1.339c0,1.6.975,2.478,2.925,2.478,2.742,0,4.245-1.239,4.245-2.838a5.217,5.217,0,0,0-2.032-3.737Z"/>
        <path d="M650.309,186.3c.69,0,.812-.34.914-2.658a7.787,7.787,0,0,0,2.213.939c-.263,3.157-.893,3.977-2.9,3.977h-2.681c-2.416,0-2.985-.719-2.985-2.957v-3.2h-2.458c-.426,3.177-1.624,5.276-6.641,6.4a7.5,7.5,0,0,0-1.34-2.118c4.163-.76,5.037-2.1,5.382-4.277h-2.478v-11.73h13.283V182.4H647.3v3.177c0,.64.122.72.893.72Zm-10.642-12.31h8.489V172.75h-8.489Zm0,3.158h8.489v-1.239h-8.489Zm0,3.177h8.489v-1.239h-8.489Z"/>
        <path d="M645.943,197.145c-1.178.26-2.519.479-3.818.639-.184.82-.387,1.679-.61,2.478a61.213,61.213,0,0,1-3.107,8.952l-2.782-.9a42.246,42.246,0,0,0,3.431-8.713c.143-.519.285-1.079.407-1.619-.448.021-.874.04-1.279.04-.955,0-1.728-.04-2.4-.08l-.06-2.417a19.2,19.2,0,0,0,2.477.16c.569,0,1.158-.021,1.747-.061.082-.419.142-.8.183-1.1a9.847,9.847,0,0,0,.081-1.978l3.006.22c-.143.559-.325,1.418-.406,1.838l-.163.72c1.1-.16,2.214-.36,3.291-.62Zm-.407,6.355a7.451,7.451,0,0,0-.263,1.618c0,.839.486,1.479,2.6,1.479a22.687,22.687,0,0,0,4.1-.4l-.1,2.5a31.578,31.578,0,0,1-4.022.28c-3.31,0-5.015-1.139-5.015-3.1a12.529,12.529,0,0,1,.345-2.578Zm-1.158-4.876c1.1-.08,2.519-.18,3.778-.18a34.25,34.25,0,0,1,3.473.18l-.061,2.337a28.18,28.18,0,0,0-3.391-.259,33.4,33.4,0,0,0-3.8.219Z"/>
        <path d="M642.51,217.744c-.264.34-.67.939-1,1.459-.02.2-.041.379-.061.579a9.846,9.846,0,0,1,5.809-2.018,5.181,5.181,0,0,1,5.422,5.215c0,3.917-2.5,6.276-7.393,7.235l-1.157-2.358c3.453-.52,5.91-1.9,5.91-4.917a2.988,2.988,0,0,0-3.189-2.9,8.376,8.376,0,0,0-5.585,2.5c-.02.559-.041,1.1-.041,1.6,0,1.578,0,3.217.122,5.036.021.339.082,1.058.143,1.478h-2.722c.041-.4.061-1.119.061-1.438.041-1.5.041-2.6.061-4.218-.832,1.2-1.808,2.619-2.478,3.538l-1.543-2.139c1.116-1.338,3.107-3.9,4.224-5.535l.081-1.359c-.954.12-2.457.3-3.574.46l-.244-2.5a16.582,16.582,0,0,0,1.706-.02c.569-.04,1.442-.14,2.275-.26.04-.718.081-1.259.081-1.478a9.891,9.891,0,0,0-.081-1.719l2.863.08c-.121.539-.264,1.539-.426,2.738Z"/>
        <path d="M607.932,31.9a32.336,32.336,0,0,1-1.666,3.656V49.8h-2.417V39.352a20.973,20.973,0,0,1-1.421,1.679,15.409,15.409,0,0,0-1.3-2.478,20.5,20.5,0,0,0,4.529-7.374Zm12.328,3.3h-1.219v11.85c0,1.378-.3,2.018-1.178,2.4a11.951,11.951,0,0,1-4.123.44,8.841,8.841,0,0,0-.812-2.438c1.319.059,2.741.059,3.148.059s.528-.12.528-.5V35.2h-8.855V32.917H620.26Zm-10.013,9.391v1.3h-2.255V37.354h6.764v7.233Zm0-5.175v3.117H612.5V39.412Z"/>
        <path d="M612.542,61.309c-.792.559-1.564,1.079-2.4,1.6h7.371V71.78H615v-.52h-6.986v.6H605.6V65.325c-1.016.44-2.072.88-3.108,1.26a13.074,13.074,0,0,0-1.482-1.959,36.5,36.5,0,0,0,7.555-3.317h-6.905v-2.1h6.52V57.392H603.4V55.334h4.773V53.176h2.4v2.158h4.407v.979a24.456,24.456,0,0,0,2.092-2.538l2.071,1.039a29.379,29.379,0,0,1-4,4.4h4.711v2.1ZM615,64.846h-6.986v1.279H615Zm0,4.436V67.923h-6.986v1.359Zm-4.427-10.071h1.116a27.713,27.713,0,0,0,2.194-1.819h-3.31Z"/>
        <path d="M609.251,79.588c.651-.04,1.24-.08,1.646-.08,2.091,0,3.554.92,3.554,3.7,0,2.277-.284,5.375-1.117,7.073a3.155,3.155,0,0,1-3.229,1.78,12.523,12.523,0,0,1-2.356-.28l-.427-2.579a11.186,11.186,0,0,0,2.4.42,1.468,1.468,0,0,0,1.483-.839,14.862,14.862,0,0,0,.793-5.316c0-1.519-.671-1.758-1.91-1.758-.3,0-.792.04-1.34.08-.772,2.937-2.194,7.493-4,10.352l-2.58-1.02a28.581,28.581,0,0,0,3.961-9.053c-.711.08-1.321.16-1.685.2-.569.08-1.585.2-2.195.32l-.223-2.638a17.8,17.8,0,0,0,2.092,0c.609-.019,1.544-.08,2.539-.16a20.32,20.32,0,0,0,.406-4.1l2.925.3c-.1.52-.224,1.119-.325,1.6Zm7.535-1.778A33.466,33.466,0,0,1,620.239,85l-2.5,1.159a22.345,22.345,0,0,0-3.31-7.394Z"/>
        <path d="M608.216,96.59c-.122.819-.224,1.818-.265,2.578-.081,2.1-.223,6.435-.223,8.833,0,1.957,1.2,2.6,2.7,2.6,3.27,0,5.321-1.838,6.764-3.956l1.767,2.158a10.206,10.206,0,0,1-8.551,4.436c-3.229,0-5.3-1.4-5.3-4.7,0-2.6.182-7.694.182-9.372a12.958,12.958,0,0,0-.244-2.6Z"/>
        <path d="M606.9,125.861a9.609,9.609,0,0,1,5.768-1.838c3.452,0,5.463,2.1,5.463,4.436,0,3.557-2.844,6.254-11.028,5.555l-.752-2.537c5.91.819,9.039-.6,9.039-3.078,0-1.259-1.219-2.178-2.966-2.178a7.05,7.05,0,0,0-5.443,2.278,5.777,5.777,0,0,0-.731,1.119l-2.275-.539a68.766,68.766,0,0,0,.975-8.093l2.66.359C607.343,122.425,607.017,124.743,606.9,125.861Zm.588-8.412a62.105,62.105,0,0,0,7.881,1.5l-.589,2.4c-1.99-.279-6.4-1.179-7.921-1.558Z"/>
        <path d="M612.013,139.729a1.832,1.832,0,1,1-1.951,1.838A1.856,1.856,0,0,1,612.013,139.729Zm0,7.574a1.832,1.832,0,1,1-1.951,1.818A1.852,1.852,0,0,1,612.013,147.3Zm0,7.573a1.832,1.832,0,1,1-1.951,1.818A1.853,1.853,0,0,1,612.013,154.876Z"/>
      </g>
      <path d="M459.672,86.957a1.4,1.4,0,1,0-1.4,1.373A1.392,1.392,0,0,0,459.672,86.957Z" fill="#121659"/>
      <path d="M352.227,86.957a1.4,1.4,0,1,0-1.4,1.373A1.392,1.392,0,0,0,352.227,86.957Z" fill="#121659"/>
    </g>
  </g>
</svg>
