<?xml version="1.0" encoding="utf-8"?>
<svg version="1.1" id="the-about-stage-nav-1" xmlns="http://www.w3.org/2000/svg" xmlns:xlink="http://www.w3.org/1999/xlink" x="0px"
	 y="0px" viewBox="0 0 100 100" style="enable-background:new 0 0 100 100;" xml:space="preserve">
<style type="text/css">
	.st0{fill:#231815;}
	.st1{fill:#EE795E;}
</style>
<g>
	<circle class="st0" cx="50" cy="50" r="50"/>
	<circle class="st1" cx="50" cy="50" r="46"/>
	<g>
		<path class="st0" d="M35.9,39.1l-1.3-1.9c0,0-0.1-0.1-0.1-0.1c0,0-0.1,0-0.1,0c-1.6,1.8-3.3,3.5-4.2,4.4c0,0-0.1,0.1,0,0.2
			l1.4,1.9c0,0,0.1,0,0.1,0c0,0,0,0,0,0c0,0,0.1,0,0.1,0c1.3-1.2,2.8-2.9,4.1-4.4C35.9,39.2,35.9,39.1,35.9,39.1z"/>
		<path class="st0" d="M33.9,34.4C34,34.4,34,34.5,33.9,34.4c0.1,0,0.2,0,0.2,0l1.7-1.8c0,0,0-0.1,0-0.2c-0.7-0.8-2.2-1.9-3.4-2.6
			c-0.1,0-0.1,0-0.2,0l-1.6,1.6c0,0,0,0.1,0,0.1s0,0.1,0.1,0.1C31.8,32.4,33.3,33.6,33.9,34.4z"/>
		<path class="st0" d="M48,44c-4.4-1.9-5.6-5.9-5.6-8v-1.8h2.3c-0.3,0.9-0.7,1.9-1.1,2.7c0,0,0,0.1,0,0.1c0,0,0,0.1,0.1,0.1
			c0.5,0.2,1.4,0.6,1.9,0.9c0,0,0.1,0,0.1,0c0,0,0.1,0,0.1-0.1c0.9-1.6,1.7-3.6,2.2-5.2c0-0.1,0-0.1-0.1-0.1l-1.6-1c0,0-0.1,0-0.1,0
			l-0.4,0.1h-6.2c0.3-0.8,0.5-1.6,0.7-2.6c0,0,0-0.1,0-0.1c0,0,0,0-0.1-0.1l-2.3-0.4c-0.1,0-0.1,0-0.1,0.1c-0.6,3.2-1.8,6-3.3,7.5
			c0,0,0,0.1,0,0.1c0,0,0,0.1,0.1,0.1c0.5,0.3,1.6,0.9,2.1,1.2c0,0,0.1,0,0.1,0c0,0,0.1,0,0.1,0c0.7-0.9,1.4-2.1,1.9-3.4h1.3v1.8
			c0,4.4-3.9,7.2-6.2,8.1c0,0-0.1,0-0.1,0.1s0,0.1,0,0.1c0.4,0.4,1.1,1.3,1.3,1.8c0,0,0.1,0.1,0.1,0.1c0,0,0,0,0,0
			c3.6-1.6,5.5-4.5,6.1-6.2c0.6,1.9,2.3,4.7,5.4,6.2c0.1,0,0.1,0,0.2,0c0.4-0.6,1-1.5,1.4-2C48.1,44.2,48.1,44.2,48,44
			C48,44.1,48,44.1,48,44z"/>
	</g>
	<path class="st0" d="M67.6,41.9c-1.8-1.6-3.5-3.4-4.5-4.5c-0.4-0.5-0.9-1.1-1.5-1.7c-0.8-0.9-1.6-1.9-2.4-2.7
		C58.6,32.4,58,32,57.3,32c0,0-0.1,0-0.1,0c-0.7,0-1.4,0.4-2.1,1.2c-0.5,0.5-1,1.2-1.5,1.8c-0.7,0.9-1.5,1.8-2,2.3c0,0,0,0,0,0
		c-0.5,0.6-1,1-1.5,1.4c0,0,0,0.1,0,0.1s0,0.1,0,0.1l2.2,2.3c0,0,0.1,0,0.1,0c0,0,0.1,0,0.1-0.1c0.1-0.2,0.3-0.4,0.5-0.7
		c0.2-0.4,0.5-0.7,0.7-1.1c0.3-0.4,0.7-0.9,1-1.4c0.7-0.9,1.3-1.8,1.8-2.4c0.3-0.3,0.5-0.5,0.7-0.5c0,0,0,0,0,0
		c0.2,0,0.4,0.1,0.7,0.5c0.5,0.5,1.1,1.3,1.7,2.1c0.6,0.7,1.1,1.4,1.7,2c0.9,1,2.6,3,4.1,4.4c0,0,0.1,0,0.1,0c0,0,0,0,0,0
		c0,0,0.1,0,0.1,0l1.9-2.2C67.6,42,67.6,41.9,67.6,41.9z"/>
	<path class="st0" d="M68.9,67.7H31.1c-0.6,0-1.2-0.4-1.4-0.9c-0.2-0.6-0.1-1.2,0.3-1.6l6.4-6.4c0.6-0.6,1.5-0.6,2.1,0
		s0.6,1.5,0,2.1l-3.9,3.9h34.2c0.8,0,1.5,0.7,1.5,1.5S69.7,67.7,68.9,67.7z"/>
</g>
</svg>
