<?xml version="1.0" encoding="utf-8"?>
<svg version="1.1" id="the-about-stage-parts-2" xmlns="http://www.w3.org/2000/svg" xmlns:xlink="http://www.w3.org/1999/xlink" x="0px"
	 y="0px" viewBox="0 0 93 920" style="enable-background:new 0 0 93 920;" xml:space="preserve">
<style type="text/css">
	.st0{fill:#E84572;}
	.st1{fill:#231815;}
</style>
<g>
	<path class="st0" d="M62.7,447.4v-33.3C83,275.3,90.7,34,91.4,10.7c0.3-0.4,0.5-0.7,0.5-1.1c0-0.1,0-0.2,0-0.2
		C92,4.8,71.6,1,46.5,1C21.4,1,1,4.8,1,9.4c0,0.4,0.2,0.9,0.5,1.3c-0.7-0.6-1-1.2-1-1.8v405.2v33.3v462.7c0-4.7,20.4-8.4,45.5-8.4
		c22.8,0,41.7,3.1,45,7.1c-4.4-3.8-22.6-6.6-44.5-6.6c-25.1,0-45.5,3.8-45.5,8.4c0,4.7,20.4,8.4,45.5,8.4c25.1,0,45.5-3.8,45.5-8.4
		c0-0.4-0.2-0.8-0.5-1.2C91.4,644.8,62.7,447.4,62.7,447.4z"/>
	<path class="st1" d="M64.2,414.7C85.2,271.5,92.7,20.3,93,9.7c0-0.2,0-0.3,0-0.3C93,2.5,65.2,0,46.5,0S0,2.5,0,9.4v901.1
		c0,6.9,27.8,9.4,46.5,9.4s46.5-2.5,46.5-9.4c0-260.1-28.1-458-28.8-462.8V414.7z M62.3,413.6H44.7v-21.7c0-0.6-0.4-1-1-1
		s-1,0.4-1,1v21.7H22v-21.7c0-0.6-0.4-1-1-1s-1,0.4-1,1v21.7H2V12.4c6.7,4.7,28.8,6.4,44.5,6.4c15.5,0,37.6-1.7,44.4-6.4
		C90,42.6,82.3,276.8,62.3,413.6z M2,446.9v-31.3h60.2v31.3H2z M20,448.9c0,0.1,0,0.1,0,0.1v22.8c0,0.6,0.4,1,1,1s1-0.4,1-1V449
		c0-0.1,0-0.1,0-0.1h20.8c0,0.1,0,0.1,0,0.1v22.8c0,0.6,0.4,1,1,1s1-0.4,1-1V449c0-0.1,0-0.1,0-0.1h17.6
		c2,14.4,28.4,207.1,28.7,458.7c-6.7-4.7-28.8-6.4-44.5-6.4c-15.7,0-37.8,1.8-44.5,6.4V448.9H20z M46.5,2C74.1,2,91,6.3,91,9.4
		l0,0.1c-0.5,3-16.5,7.3-44.5,7.3C18.9,16.9,2,12.5,2,9.4C2,6.3,18.9,2,46.5,2z M46.5,918C18.9,918,2,913.7,2,910.6
		c0-3.1,16.9-7.4,44.5-7.4c27.6,0,44.5,4.3,44.5,7.4C91,913.7,74.1,918,46.5,918z"/>
</g>
</svg>
