<?xml version="1.0" encoding="utf-8"?>
<svg version="1.1" id="the-about-stage-parts-1" xmlns="http://www.w3.org/2000/svg" xmlns:xlink="http://www.w3.org/1999/xlink" x="0px"
	 y="0px" viewBox="0 0 414 120" style="enable-background:new 0 0 414 120;" xml:space="preserve">
<style type="text/css">
	.st0{fill:#E84572;}
	.st1{fill:#231815;}
</style>
<g>
	<path class="st0" d="M413.2,0H0.8C32.8,70.2,113,120,207,120S381.2,70.2,413.2,0z"/>
	<g>
		<path class="st1" d="M413.8,0h-2.2C379.3,69,299.8,118,207,118S34.7,69,2.4,0H0.2C32.6,70.2,113.1,120,207,120S381.4,70.2,413.8,0
			z"/>
		<path class="st1" d="M207,90c76.1,0,142.1-36.8,173.1-90h-2.3C346.9,52.1,281.9,88,207,88C132.1,88,67.1,52.1,36.2,0h-2.3
			C64.9,53.2,130.9,90,207,90z"/>
		<path class="st1" d="M90.4,20.4C121.4,45.9,162.8,60,207,60s85.6-14.1,116.6-39.6C331.2,14.1,338,7.2,343.8,0h-2.6
			c-5.5,6.7-11.8,13-18.9,18.9C291.7,44.1,250.8,58,207,58c-43.8,0-84.7-13.9-115.3-39.1C84.6,13,78.3,6.7,72.8,0h-2.6
			C76,7.2,82.8,14.1,90.4,20.4z"/>
		<path class="st1" d="M301,0h-3.3c-24.6,18.1-56.5,28-90.7,28c-34.2,0-66.1-9.9-90.7-28H113c25.2,19.4,58.4,30,94,30
			S275.8,19.4,301,0z"/>
	</g>
</g>
</svg>
