<svg xmlns="http://www.w3.org/2000/svg" xmlns:xlink="http://www.w3.org/1999/xlink" width="461.182" height="310.218" viewBox="0 0 461.182 310.218">
  <defs>
    <clipPath id="clip-path">
      <polygon points="154.424 170.769 117.084 127.889 122.903 122.822 127.429 121.241 170.208 83.989 172.395 79.722 178.214 74.655 215.555 117.535 209.736 122.602 205.21 124.183 162.431 161.435 160.243 165.701 154.424 170.769" fill="none"/>
    </clipPath>
  </defs>
  <g id="レイヤー_2" data-name="レイヤー 2">
    <g id="レイヤー_1-2" data-name="レイヤー 1">
      <g>
        <g>
          <polygon points="433.177 14.912 378.195 1 320.935 15.613 296.208 76.481 297.714 115.479 285.158 120.665 271.969 101.965 231.178 128.271 268.208 122 280.567 142.761 298.551 137.169 301.208 206 335.652 245.635 382.553 253.584 426.678 231.723 453.363 199.263 460.181 77.182 433.177 14.912" fill="#fff"/>
          <path d="M382.553,254.584a1.036,1.036,0,0,1-.167-.014l-46.9-7.949a1,1,0,0,1-.588-.33l-34.444-39.635a1,1,0,0,1-.244-.617L297.6,138.511l-16.739,5.205a1,1,0,0,1-1.156-.444L267.7,123.1l-36.354,6.157a1,1,0,0,1-.709-1.827l40.791-26.307a1,1,0,0,1,1.359.265l12.728,18.047,11.173-4.616-1.478-38.3a.982.982,0,0,1,.073-.415l24.726-60.868a1,1,0,0,1,.68-.592L377.948.031a1,1,0,0,1,.492,0l54.982,13.912a1,1,0,0,1,.672.573l27,62.269a.994.994,0,0,1,.081.453l-6.819,122.081a.993.993,0,0,1-.226.579l-26.685,32.46a.993.993,0,0,1-.328.262L383,254.48A1,1,0,0,1,382.553,254.584Zm-46.381-9.875,46.228,7.835,43.642-21.622,26.341-32.042L459.17,77.362l-26.715-61.6L378.2,2.032,321.671,16.456l-24.456,60.2,1.5,38.783a1,1,0,0,1-.617.962l-12.555,5.187a1,1,0,0,1-1.2-.348l-12.635-17.916-35.893,23.148,32.229-5.459a1.009,1.009,0,0,1,1.026.474l11.955,20.083,17.232-5.357a1,1,0,0,1,1.3.916l2.644,68.479Z" fill="#231815"/>
        </g>
        <g>
          <path d="M407.609,54.744a15.421,15.421,0,0,1,3.722-.5c2.96,0,5.32,1.581,5.32,4.261,0,2.281-1.2,4.021-4.26,4.781a15.426,15.426,0,0,1-2.561.3l-.9-2.5a14.808,14.808,0,0,0,2.4-.12c1.54-.28,2.8-1.061,2.8-2.481,0-1.32-1.16-2.08-2.84-2.08a13.344,13.344,0,0,0-3.642.54c.04,1.54.08,3.021.08,3.7,0,2.4-.879,3.02-2.12,3.02-1.9,0-4.581-1.62-4.581-3.681,0-1.7,1.961-3.46,4.341-4.48-.019-.46-.019-.9-.019-1.341v-1.64c-.381.02-.741.04-1.041.04a23.646,23.646,0,0,1-2.68-.1l-.061-2.34a20.268,20.268,0,0,0,2.681.14c.34,0,.72-.021,1.12-.04v-1.58a14.882,14.882,0,0,0-.12-1.7h2.681c-.06.36-.14,1.18-.18,1.68L407.689,50a23.655,23.655,0,0,0,3.581-.7l.061,2.42c-1.1.24-2.441.46-3.7.6-.021.6-.021,1.18-.021,1.74Zm-2.139,5.462c0-.48-.021-1.36-.061-2.4-1.18.62-1.96,1.42-1.96,2.08,0,.62.88,1.16,1.4,1.16C405.189,61.046,405.47,60.866,405.47,60.206Zm8-11.163a46.115,46.115,0,0,1,4.761,2.721l-1.18,1.98a32.372,32.372,0,0,0-4.661-2.82Z"/>
          <path d="M416.172,74.145a34.662,34.662,0,0,0-4.221-4.341l2.06-1.741a37.686,37.686,0,0,1,4.281,4.281Z"/>
          <path d="M407.609,88.1a15.421,15.421,0,0,1,3.722-.5c2.96,0,5.32,1.581,5.32,4.26,0,2.282-1.2,4.022-4.26,4.782a15.418,15.418,0,0,1-2.561.3l-.9-2.5a14.808,14.808,0,0,0,2.4-.12c1.54-.28,2.8-1.06,2.8-2.48,0-1.321-1.16-2.08-2.84-2.08a13.344,13.344,0,0,0-3.642.54c.04,1.54.08,3.02.08,3.7,0,2.4-.879,3.02-2.12,3.02-1.9,0-4.581-1.62-4.581-3.68,0-1.7,1.961-3.46,4.341-4.481-.019-.46-.019-.9-.019-1.341V85.884c-.381.019-.741.04-1.041.04a23.414,23.414,0,0,1-2.68-.1l-.061-2.34a20.268,20.268,0,0,0,2.681.14c.34,0,.72-.02,1.12-.04V82a14.881,14.881,0,0,0-.12-1.7h2.681c-.06.359-.14,1.179-.18,1.679l-.061,1.381a23.655,23.655,0,0,0,3.581-.7l.061,2.42c-1.1.24-2.441.46-3.7.6-.021.6-.021,1.179-.021,1.74Zm-2.139,5.461c0-.48-.021-1.36-.061-2.4-1.18.62-1.96,1.42-1.96,2.08,0,.62.88,1.16,1.4,1.16C405.189,94.405,405.47,94.226,405.47,93.565Zm8-11.163a46.115,46.115,0,0,1,4.761,2.721l-1.18,1.981a32.467,32.467,0,0,0-4.661-2.821Z"/>
          <path d="M403.068,104.144c1.5-.441,5.442-1.841,8.3-1.841,3.482,0,6.262,2.02,6.262,5.6,0,4.4-4.181,7.222-11.023,7.562l-1.139-2.6c5.26-.1,9.382-1.62,9.382-5,0-1.82-1.261-3.22-3.6-3.22-2.841,0-7.422,1.94-9.442,2.82l-1.1-2.72C401.408,104.624,402.368,104.344,403.068,104.144Z"/>
          <path d="M415.071,136.048a14.759,14.759,0,0,0-3.9-2.7c.019.259.019.5.019.7,0,1.66-1.259,2.94-3.82,2.94-3.1,0-4.741-1.179-4.741-3.22,0-1.981,1.8-3.361,4.8-3.361.4,0,.8.02,1.2.06-.04-.58-.06-1.18-.08-1.74h-1c-1.141,0-3.381-.1-4.661-.26v-2.3a34.571,34.571,0,0,0,4.68.36h.941v-2h-.941a35.487,35.487,0,0,1-4.2-.3l-.02-2.22a25.331,25.331,0,0,0,4.2.38h.98v-.9a9.743,9.743,0,0,0-.1-1.3h2.64a12.05,12.05,0,0,0-.139,1.34l-.021.781a39.627,39.627,0,0,0,4.621-.481l.04,2.24c-1.28.121-2.82.281-4.68.381l-.021,2a51.535,51.535,0,0,0,5.161-.46l.021,2.3c-1.74.2-3.261.34-5.142.4.04.72.08,1.5.141,2.241a15.005,15.005,0,0,1,5.421,2.94Zm-6.361-3.482a10.6,10.6,0,0,0-1.6-.139c-1.36,0-2.12.519-2.12,1.179,0,.741.68,1.181,2.021,1.181,1.04,0,1.72-.28,1.72-1.4C408.73,133.187,408.73,132.906,408.71,132.566Z"/>
          <path d="M416.952,154.406a19.226,19.226,0,0,0-1.661-1.34,9.554,9.554,0,0,1-4.9,5.242l-2.081-1.7a8.469,8.469,0,0,0,4.941-4.86,13.443,13.443,0,0,0-4.541-1.581,37.793,37.793,0,0,1-2.261,4.661,3.4,3.4,0,0,1-3.02,1.721,2.918,2.918,0,0,1-2.981-3.161c0-2.981,2.721-5.281,6.621-5.461.54-1.26,1.1-2.58,1.561-3.5-.76.04-2.441.1-3.32.16-.42.02-1.081.08-1.581.16l-.1-2.5a15.561,15.561,0,0,0,1.6.08c1.1,0,3.181-.08,4.082-.16a4.573,4.573,0,0,0,1.3-.3l1.561,1.241a5.615,5.615,0,0,0-.66.8c-.5.84-1.2,2.521-1.9,4.161a16.542,16.542,0,0,1,4.161,1.22c.041-.22.041-.439.06-.639a15.01,15.01,0,0,0,.021-2.122l2.52.281a31.5,31.5,0,0,1-.36,3.6c.82.46,1.52.921,2.08,1.3Zm-10.883-4.26c-2.14.339-3.34,1.66-3.34,2.86a.82.82,0,0,0,.76.921c.38,0,.66-.181,1-.66A22.407,22.407,0,0,0,406.069,150.146Z"/>
          <path d="M416.172,167.205a34.8,34.8,0,0,0-4.221-4.341l2.06-1.74a37.679,37.679,0,0,1,4.281,4.28Z"/>
          <path d="M371.631,50.1c-.02,1.24,0,2.7.12,4.1.28,2.781.84,4.682,2.061,4.682.94,0,1.7-2.261,2.04-3.8l1.98,2.36c-1.3,3.381-2.5,4.561-4.081,4.561-2.1,0-3.961-1.9-4.521-7.121-.179-1.781-.219-4.041-.219-5.241a13.687,13.687,0,0,0-.12-1.96l2.98.04A15.086,15.086,0,0,0,371.631,50.1Zm13.463,7.961-2.561.981c-.3-3.141-1.32-7.682-3.44-10.082l2.46-.82C383.394,50.4,384.894,55.085,385.094,58.065Z"/>
          <path d="M375.031,70.163c.641-.04,1.221-.08,1.621-.08,2.06,0,3.5.921,3.5,3.7,0,2.28-.279,5.381-1.1,7.081a3.1,3.1,0,0,1-3.181,1.781,12.067,12.067,0,0,1-2.32-.28l-.421-2.581a10.864,10.864,0,0,0,2.36.42,1.441,1.441,0,0,0,1.461-.84,15.1,15.1,0,0,0,.78-5.321c0-1.521-.66-1.76-1.88-1.76-.3,0-.781.04-1.321.08-.76,2.941-2.16,7.5-3.94,10.363l-2.541-1.021a28.849,28.849,0,0,0,3.9-9.062c-.7.08-1.3.16-1.66.2-.561.08-1.561.2-2.161.32l-.22-2.641a17.282,17.282,0,0,0,2.061,0c.6-.019,1.52-.08,2.5-.16a20.7,20.7,0,0,0,.4-4.1l2.881.3c-.1.52-.221,1.12-.32,1.6Zm7.422-1.78a33.789,33.789,0,0,1,3.4,7.2l-2.46,1.16a22.558,22.558,0,0,0-3.261-7.4Z"/>
          <path d="M371.631,90.545c-.02,1.24,0,2.7.12,4.1.28,2.781.84,4.681,2.061,4.681.94,0,1.7-2.261,2.04-3.8l1.98,2.361c-1.3,3.381-2.5,4.56-4.081,4.56-2.1,0-3.961-1.9-4.521-7.121-.179-1.78-.219-4.041-.219-5.241a13.687,13.687,0,0,0-.12-1.96l2.98.04A15.086,15.086,0,0,0,371.631,90.545Zm13.463,7.962-2.561.98c-.3-3.14-1.32-7.681-3.44-10.082l2.46-.82C383.394,90.845,384.894,95.526,385.094,98.507Z"/>
          <path d="M375.031,110.6c.641-.04,1.221-.08,1.621-.08,2.06,0,3.5.921,3.5,3.7,0,2.28-.279,5.38-1.1,7.081a3.1,3.1,0,0,1-3.181,1.781,12.146,12.146,0,0,1-2.32-.28l-.421-2.581a10.917,10.917,0,0,0,2.36.419,1.442,1.442,0,0,0,1.461-.839,15.106,15.106,0,0,0,.78-5.322c0-1.52-.66-1.759-1.88-1.759-.3,0-.781.04-1.321.08-.76,2.94-2.16,7.5-3.94,10.362l-2.541-1.021a28.839,28.839,0,0,0,3.9-9.062c-.7.08-1.3.16-1.66.2-.561.08-1.561.2-2.161.32l-.22-2.64a17.713,17.713,0,0,0,2.061,0c.6-.02,1.52-.08,2.5-.16a20.706,20.706,0,0,0,.4-4.1l2.881.3c-.1.52-.221,1.12-.32,1.6Zm7.422-1.78a33.789,33.789,0,0,1,3.4,7.2l-2.46,1.161a22.554,22.554,0,0,0-3.261-7.4Z"/>
          <path d="M371.631,130.984c-.02,1.241,0,2.7.12,4.1.28,2.781.84,4.682,2.061,4.682.94,0,1.7-2.261,2.04-3.8l1.98,2.36c-1.3,3.381-2.5,4.561-4.081,4.561-2.1,0-3.961-1.9-4.521-7.121-.179-1.781-.219-4.041-.219-5.242a13.7,13.7,0,0,0-.12-1.96l2.98.04A15.109,15.109,0,0,0,371.631,130.984Zm13.463,7.962-2.561.981c-.3-3.141-1.32-7.682-3.44-10.082l2.46-.821C383.394,131.284,384.894,135.966,385.094,138.946Z"/>
          <path d="M375.031,151.044c.641-.04,1.221-.08,1.621-.08,2.06,0,3.5.921,3.5,3.7,0,2.28-.279,5.381-1.1,7.081a3.1,3.1,0,0,1-3.181,1.781,12.067,12.067,0,0,1-2.32-.28l-.421-2.581a10.864,10.864,0,0,0,2.36.42,1.441,1.441,0,0,0,1.461-.84,15.1,15.1,0,0,0,.78-5.321c0-1.521-.66-1.76-1.88-1.76-.3,0-.781.04-1.321.08-.76,2.941-2.16,7.5-3.94,10.362l-2.541-1.02a28.854,28.854,0,0,0,3.9-9.063c-.7.08-1.3.161-1.66.2-.561.08-1.561.2-2.161.32l-.22-2.641a17.282,17.282,0,0,0,2.061,0c.6-.019,1.52-.08,2.5-.16a20.7,20.7,0,0,0,.4-4.1l2.881.3c-.1.521-.221,1.12-.32,1.6Zm7.422-1.78a33.767,33.767,0,0,1,3.4,7.2l-2.46,1.16a22.558,22.558,0,0,0-3.261-7.4Z"/>
          <path d="M371.631,171.424c-.02,1.24,0,2.7.12,4.1.28,2.782.84,4.682,2.061,4.682.94,0,1.7-2.261,2.04-3.8l1.98,2.361c-1.3,3.38-2.5,4.56-4.081,4.56-2.1,0-3.961-1.9-4.521-7.121-.179-1.78-.219-4.041-.219-5.241a13.687,13.687,0,0,0-.12-1.96l2.98.04A15.086,15.086,0,0,0,371.631,171.424Zm13.463,7.962-2.561.98c-.3-3.14-1.32-7.681-3.44-10.082l2.46-.82C383.394,171.724,384.894,176.405,385.094,179.386Z"/>
          <path d="M375.031,191.485c.641-.04,1.221-.08,1.621-.08,2.06,0,3.5.921,3.5,3.7,0,2.281-.279,5.381-1.1,7.082a3.1,3.1,0,0,1-3.181,1.781,12.065,12.065,0,0,1-2.32-.281l-.421-2.581a10.864,10.864,0,0,0,2.36.42,1.442,1.442,0,0,0,1.461-.839,15.11,15.11,0,0,0,.78-5.322c0-1.52-.66-1.76-1.88-1.76-.3,0-.781.04-1.321.081-.76,2.94-2.16,7.5-3.94,10.362l-2.541-1.021a28.849,28.849,0,0,0,3.9-9.062c-.7.08-1.3.16-1.66.2-.561.08-1.561.2-2.161.32l-.22-2.64a17.713,17.713,0,0,0,2.061,0c.6-.02,1.52-.08,2.5-.16a20.706,20.706,0,0,0,.4-4.1l2.881.3c-.1.52-.221,1.12-.32,1.6Zm7.422-1.78a33.789,33.789,0,0,1,3.4,7.2l-2.46,1.16a22.558,22.558,0,0,0-3.261-7.4Z"/>
          <path d="M338.974,50.1c-.02,1.24,0,2.7.12,4.1.28,2.781.84,4.682,2.06,4.682.941,0,1.7-2.261,2.04-3.8l1.981,2.36c-1.3,3.381-2.5,4.561-4.081,4.561-2.1,0-3.961-1.9-4.521-7.121-.179-1.781-.219-4.041-.219-5.241a13.551,13.551,0,0,0-.121-1.96l2.981.04A15.086,15.086,0,0,0,338.974,50.1Zm13.463,7.961-2.561.981c-.3-3.141-1.32-7.682-3.44-10.082l2.459-.82C350.736,50.4,352.236,55.085,352.437,58.065Z"/>
          <path d="M342.374,70.163c.641-.04,1.221-.08,1.621-.08,2.06,0,3.5.921,3.5,3.7,0,2.28-.279,5.381-1.1,7.081a3.1,3.1,0,0,1-3.18,1.781,12.087,12.087,0,0,1-2.321-.28l-.42-2.581a10.864,10.864,0,0,0,2.36.42,1.441,1.441,0,0,0,1.461-.84,15.123,15.123,0,0,0,.78-5.321c0-1.521-.66-1.76-1.881-1.76-.3,0-.78.04-1.32.08-.76,2.941-2.16,7.5-3.94,10.363l-2.541-1.021a28.872,28.872,0,0,0,3.9-9.062c-.7.08-1.3.16-1.66.2-.561.08-1.561.2-2.161.32l-.22-2.641a17.265,17.265,0,0,0,2.06,0c.6-.019,1.521-.08,2.5-.16a20.628,20.628,0,0,0,.4-4.1l2.881.3c-.1.52-.221,1.12-.321,1.6Zm7.422-1.78a33.737,33.737,0,0,1,3.4,7.2l-2.46,1.16a22.577,22.577,0,0,0-3.26-7.4Z"/>
          <path d="M342.234,91.945c.64-.04,1.22-.08,1.62-.08,2.061,0,3.5.92,3.5,3.7,0,2.282-.28,5.382-1.08,7.062a3.115,3.115,0,0,1-3.2,1.781,12.4,12.4,0,0,1-2.32-.261l-.42-2.58a10.911,10.911,0,0,0,2.381.4,1.4,1.4,0,0,0,1.439-.82,14.594,14.594,0,0,0,.8-5.321c0-1.52-.66-1.761-1.9-1.761-.3,0-.781.04-1.321.081-.76,2.92-2.16,7.481-3.941,10.362l-2.54-1.021c1.88-2.52,3.2-6.421,3.921-9.061-.7.08-1.32.16-1.681.2-.559.08-1.56.2-2.14.319l-.24-2.64a18.042,18.042,0,0,0,2.08,0c.6-.02,1.5-.079,2.481-.159a20.877,20.877,0,0,0,.42-4.122l2.9.321c-.12.5-.26,1.12-.359,1.6Zm7.682-1.3a36.418,36.418,0,0,1,3.16,6.761l-2.48,1.141a22.205,22.205,0,0,0-3.261-7.3l1.8-.761a20.161,20.161,0,0,0-1.34-2.32l1.559-.64a30.979,30.979,0,0,1,1.561,2.7Zm1.78-.661a22.547,22.547,0,0,0-1.56-2.7l1.541-.64a27.455,27.455,0,0,1,1.58,2.68Z"/>
          <path d="M337.413,111.4c1.62-.12,4.821-.42,8.362-.719,2-.181,4.12-.281,5.481-.321l.02,2.481a20.011,20.011,0,0,0-3.76.259,5.847,5.847,0,0,0-4.081,5.382c0,3.181,2.98,4.341,6.261,4.5l-.9,2.681c-4.061-.261-7.9-2.461-7.9-6.662a7.576,7.576,0,0,1,2.861-5.921c-1.681.18-5.762.62-8,1.08l-.24-2.66C336.273,111.484,337.014,111.444,337.413,111.4Zm12.7,5.942-1.48.66a18.375,18.375,0,0,0-1.521-2.721l1.441-.6A24.935,24.935,0,0,1,350.116,117.346Zm2.28-.96-1.459.7a16.885,16.885,0,0,0-1.622-2.641l1.441-.64A25.635,25.635,0,0,1,352.4,116.386Z"/>
          <path d="M352.156,134.565c-1.16-.059-2.98-.12-5.6-.12.019.981.019,2.021.019,2.881a4.829,4.829,0,0,1,.721,2.681c0,2.56-1.5,5.722-6.222,7.042l-1.6-2.281a8.147,8.147,0,0,0,4.281-1.981,4.212,4.212,0,0,1-.9.1,3.384,3.384,0,0,1-3.32-3.541,3.667,3.667,0,0,1,3.861-3.641,4.932,4.932,0,0,1,.78.06l-.021-1.3c-2.94.04-5.961.16-8.342.3l-.059-2.361c2.2,0,5.741-.1,8.361-.139,0-.241-.019-.461-.019-.6a16.288,16.288,0,0,0-.2-1.681h2.82c-.04.321-.119,1.341-.119,1.662,0,.159-.021.359-.021.6,1.961,0,4.581-.019,5.621,0Zm-8.821,6.182c.819,0,1.519-.62,1.28-2.32a1.394,1.394,0,0,0-1.261-.681,1.466,1.466,0,0,0-1.48,1.541A1.43,1.43,0,0,0,343.335,140.747Z"/>
          <path d="M342.374,154.784c.641-.04,1.221-.08,1.621-.08,2.06,0,3.5.921,3.5,3.7,0,2.281-.279,5.381-1.1,7.081a3.1,3.1,0,0,1-3.18,1.782,12.086,12.086,0,0,1-2.321-.281l-.42-2.581a10.864,10.864,0,0,0,2.36.42,1.441,1.441,0,0,0,1.461-.84,15.123,15.123,0,0,0,.78-5.321c0-1.52-.66-1.76-1.881-1.76-.3,0-.78.04-1.32.08-.76,2.941-2.16,7.5-3.94,10.363l-2.541-1.021a28.872,28.872,0,0,0,3.9-9.062c-.7.08-1.3.16-1.66.2-.561.08-1.561.2-2.161.32l-.22-2.64a17.7,17.7,0,0,0,2.06,0c.6-.02,1.521-.081,2.5-.161a20.621,20.621,0,0,0,.4-4.1l2.881.3c-.1.52-.221,1.12-.321,1.6ZM349.8,153a33.737,33.737,0,0,1,3.4,7.2l-2.46,1.16a22.577,22.577,0,0,0-3.26-7.4Z"/>
          <path d="M346.155,176.984c0-1.2-.96-1.88-2.52-1.88a4.152,4.152,0,0,0-3.2,1.581l-1.64-1.521a6.655,6.655,0,0,1,5.161-2.44c2.9,0,5.021,1.339,5.021,4,0,2.94-4.361,3.28-4.061,6.061h-2.581C341.914,179.645,346.155,178.925,346.155,176.984Zm-2.52,7.182a1.973,1.973,0,1,1-2.081,1.96A1.945,1.945,0,0,1,343.635,184.166Z"/>
        </g>
        <g>
          <polygon points="154.424 170.769 117.084 127.889 122.903 122.822 127.429 121.241 170.208 83.989 172.395 79.722 178.214 74.655 215.555 117.535 209.736 122.602 205.21 124.183 162.431 161.435 160.243 165.701 154.424 170.769" fill="#fff"/>
          <g clip-path="url(#clip-path)">
            <g>
              <g>
                <circle cx="133.114" cy="124.986" r="5.193" fill="#ee795e"/>
                <path d="M133.123,130.914c-.139,0-.278,0-.418-.015a5.928,5.928,0,1,1,4.3-1.443h0A5.881,5.881,0,0,1,133.123,130.914Zm-.016-10.388a4.46,4.46,0,1,0,2.935,7.823h0a4.46,4.46,0,0,0-2.621-7.812C133.316,120.529,133.211,120.526,133.107,120.526Z" fill="#231815"/>
              </g>
              <g>
                <circle cx="139.935" cy="132.819" r="5.193" fill="#ee795e"/>
                <path d="M139.944,138.747c-.139,0-.278-.005-.418-.015a5.927,5.927,0,1,1,4.3-1.443h0A5.884,5.884,0,0,1,139.944,138.747Zm-.016-10.388a4.471,4.471,0,1,0,.314.011C140.137,128.362,140.032,128.359,139.928,128.359Z" fill="#231815"/>
              </g>
              <g>
                <circle cx="146.756" cy="140.652" r="5.193" fill="#ee795e"/>
                <path d="M146.765,146.58q-.208,0-.417-.015a5.928,5.928,0,1,1,4.3-1.443h0A5.882,5.882,0,0,1,146.765,146.58Zm-.015-10.388a4.46,4.46,0,1,0,2.935,7.823h0a4.46,4.46,0,0,0-2.622-7.812C146.958,136.2,146.854,136.192,146.75,136.192Z" fill="#231815"/>
              </g>
              <g>
                <circle cx="153.577" cy="148.485" r="5.193" fill="#ee795e"/>
                <path d="M153.586,154.413q-.207,0-.417-.015a5.928,5.928,0,1,1,4.3-1.443h0A5.882,5.882,0,0,1,153.586,154.413Zm-.015-10.388a4.46,4.46,0,1,0,2.935,7.823h0a4.46,4.46,0,0,0-2.621-7.812C153.78,144.028,153.675,144.025,153.571,144.025Z" fill="#231815"/>
              </g>
              <g>
                <circle cx="160.399" cy="156.318" r="5.193" fill="#ee795e"/>
                <path d="M160.4,162.243a5.924,5.924,0,1,1,3.889-1.454h0A5.9,5.9,0,0,1,160.4,162.243ZM160.4,151.86a4.459,4.459,0,1,0,2.932,7.822h0a4.459,4.459,0,0,0-2.932-7.822Z" fill="#231815"/>
              </g>
            </g>
            <g>
              <g>
                <circle cx="137.536" cy="114.248" r="5.193" fill="#ee795e"/>
                <path d="M137.545,120.176q-.208,0-.417-.015a5.927,5.927,0,1,1,4.3-1.443h0A5.884,5.884,0,0,1,137.545,120.176Zm-.012-10.386a4.458,4.458,0,1,0,2.932,7.82h0a4.458,4.458,0,0,0-2.932-7.82Z" fill="#231815"/>
              </g>
              <g>
                <circle cx="144.357" cy="122.081" r="5.193" fill="#ee795e"/>
                <path d="M144.362,128.006a5.924,5.924,0,1,1,3.888-1.454h0A5.907,5.907,0,0,1,144.362,128.006Zm-.008-10.382a4.458,4.458,0,1,0,2.932,7.82h0a4.457,4.457,0,0,0-2.932-7.82Z" fill="#231815"/>
              </g>
              <g>
                <circle cx="151.179" cy="129.914" r="5.193" fill="#ee795e"/>
                <path d="M151.188,135.843q-.208,0-.417-.015a5.891,5.891,0,1,1,.417.015Zm-.012-10.386a4.458,4.458,0,0,0-.3,8.906,4.385,4.385,0,0,0,3.235-1.086,4.457,4.457,0,0,0-2.931-7.82Z" fill="#231815"/>
              </g>
              <g>
                <circle cx="158" cy="137.747" r="5.193" fill="#ee795e"/>
                <path d="M158.009,143.676q-.208,0-.417-.015a5.894,5.894,0,1,1,.417.015ZM158,133.29a4.458,4.458,0,1,0,3.366,1.529A4.44,4.44,0,0,0,158,133.29Z" fill="#231815"/>
              </g>
              <g>
                <circle cx="164.821" cy="145.58" r="5.193" fill="#ee795e"/>
                <path d="M164.83,151.509q-.209,0-.417-.015a5.894,5.894,0,1,1,.417.015Zm-.012-10.386a4.458,4.458,0,1,0,3.366,1.529A4.436,4.436,0,0,0,164.818,141.123Z" fill="#231815"/>
              </g>
              <g>
                <circle cx="171.642" cy="153.414" r="5.193" fill="#ee795e"/>
                <path d="M171.651,159.342q-.207,0-.417-.015a5.894,5.894,0,1,1,.417.015Zm-.011-10.386a4.458,4.458,0,1,0,3.365,1.529A4.438,4.438,0,0,0,171.64,148.956Z" fill="#231815"/>
              </g>
            </g>
            <g>
              <g>
                <circle cx="148.78" cy="111.343" r="5.193" fill="#ee795e"/>
                <path d="M148.784,117.268a5.924,5.924,0,1,1,3.888-1.455A5.913,5.913,0,0,1,148.784,117.268Zm-.007-10.382a4.457,4.457,0,1,0,3.366,1.529A4.442,4.442,0,0,0,148.777,106.886Z" fill="#231815"/>
              </g>
              <g>
                <circle cx="155.601" cy="119.176" r="5.193" fill="#ee795e"/>
                <path d="M155.6,125.1a5.925,5.925,0,1,1,3.889-1.455A5.917,5.917,0,0,1,155.6,125.1Zm-.007-10.382a4.458,4.458,0,1,0,3.366,1.529A4.444,4.444,0,0,0,155.6,114.719Z" fill="#231815"/>
              </g>
              <g>
                <circle cx="162.422" cy="127.009" r="5.193" fill="#ee795e"/>
                <path d="M162.426,132.934a5.924,5.924,0,1,1,3.889-1.455A5.917,5.917,0,0,1,162.426,132.934Zm-.007-10.382a4.458,4.458,0,1,0,3.366,1.529A4.44,4.44,0,0,0,162.419,122.552Z" fill="#231815"/>
              </g>
              <g>
                <circle cx="169.244" cy="134.843" r="5.193" fill="#ee795e"/>
                <path d="M169.248,140.767a5.921,5.921,0,1,1,3.888-1.454h0A5.906,5.906,0,0,1,169.248,140.767Zm-.007-10.382a4.458,4.458,0,1,0,2.931,7.82h0a4.458,4.458,0,0,0-2.931-7.82Z" fill="#231815"/>
              </g>
              <g>
                <circle cx="176.065" cy="142.676" r="5.193" fill="#ee795e"/>
                <path d="M176.069,148.6a5.925,5.925,0,1,1,3.889-1.455h0A5.9,5.9,0,0,1,176.069,148.6Zm-.007-10.383a4.459,4.459,0,1,0,2.932,7.821h0a4.458,4.458,0,0,0-2.932-7.821Z" fill="#231815"/>
              </g>
            </g>
            <g>
              <g>
                <circle cx="153.202" cy="100.605" r="5.193" fill="#ee795e"/>
                <path d="M153.206,106.529a5.922,5.922,0,1,1,3.889-1.454h0A5.9,5.9,0,0,1,153.206,106.529Zm-.01-10.383a4.459,4.459,0,1,0,2.935,7.822h0a4.46,4.46,0,0,0-2.622-7.812C153.405,96.148,153.3,96.146,153.2,96.146Z" fill="#231815"/>
              </g>
              <g>
                <circle cx="160.024" cy="108.438" r="5.193" fill="#ee795e"/>
                <path d="M160.028,114.363a5.924,5.924,0,1,1,3.888-1.454h0A5.9,5.9,0,0,1,160.028,114.363Zm-.007-10.382a4.459,4.459,0,1,0,2.931,7.821h0a4.458,4.458,0,0,0-2.931-7.821Z" fill="#231815"/>
              </g>
              <g>
                <circle cx="166.845" cy="116.272" r="5.193" fill="#ee795e"/>
                <path d="M166.849,122.2a5.924,5.924,0,1,1,3.888-1.454A5.912,5.912,0,0,1,166.849,122.2Zm-.011-10.383a4.44,4.44,0,1,0,.314.01C167.047,111.815,166.942,111.813,166.838,111.813Z" fill="#231815"/>
              </g>
              <g>
                <circle cx="173.666" cy="124.105" r="5.193" fill="#ee795e"/>
                <path d="M173.67,130.029a5.922,5.922,0,1,1,3.889-1.454A5.916,5.916,0,0,1,173.67,130.029Zm-.01-10.383a4.44,4.44,0,1,0,.313.01C173.869,119.648,173.764,119.646,173.66,119.646Z" fill="#231815"/>
              </g>
              <g>
                <circle cx="180.487" cy="131.938" r="5.193" fill="#ee795e"/>
                <path d="M180.491,137.862a5.924,5.924,0,1,1,3.889-1.454A5.916,5.916,0,0,1,180.491,137.862Zm-.01-10.383a4.44,4.44,0,1,0,.313.01C180.69,127.481,180.585,127.479,180.481,127.479Z" fill="#231815"/>
              </g>
              <g>
                <circle cx="187.309" cy="139.771" r="5.193" fill="#ee795e"/>
                <path d="M187.312,145.7a5.922,5.922,0,1,1,3.889-1.454A5.916,5.916,0,0,1,187.312,145.7Zm-.01-10.383a4.437,4.437,0,1,0,.314.01C187.511,135.314,187.406,135.312,187.3,135.312Z" fill="#231815"/>
              </g>
            </g>
            <g>
              <g>
                <circle cx="164.446" cy="97.701" r="5.193" fill="#ee795e"/>
                <path d="M164.455,103.629q-.209,0-.417-.015a5.894,5.894,0,1,1,.417.015Zm-.012-10.386a4.458,4.458,0,1,0,3.366,1.529A4.441,4.441,0,0,0,164.443,93.243Z" fill="#231815"/>
              </g>
              <g>
                <circle cx="171.267" cy="105.534" r="5.193" fill="#ee795e"/>
                <path d="M171.276,111.462q-.207,0-.417-.015a5.894,5.894,0,1,1,.417.015Zm-.011-10.386a4.458,4.458,0,1,0,3.365,1.529A4.443,4.443,0,0,0,171.265,101.076Z" fill="#231815"/>
              </g>
              <g>
                <circle cx="178.089" cy="113.367" r="5.193" fill="#ee795e"/>
                <path d="M178.1,119.3c-.139,0-.278,0-.418-.015a5.894,5.894,0,1,1,.418.015Zm-.012-10.386a4.458,4.458,0,1,0,3.366,1.529A4.443,4.443,0,0,0,178.086,108.909Z" fill="#231815"/>
              </g>
              <g>
                <circle cx="184.91" cy="121.2" r="5.193" fill="#ee795e"/>
                <path d="M184.919,127.128c-.139,0-.278,0-.418-.015a5.926,5.926,0,1,1,4.3-1.443h0A5.884,5.884,0,0,1,184.919,127.128Zm-.012-10.386a4.459,4.459,0,1,0,2.932,7.821h0a4.458,4.458,0,0,0-2.932-7.821Z" fill="#231815"/>
              </g>
              <g>
                <circle cx="191.731" cy="129.033" r="5.193" fill="#ee795e"/>
                <path d="M191.736,134.958a5.925,5.925,0,1,1,3.888-1.454h0A5.906,5.906,0,0,1,191.736,134.958Zm-.007-10.383a4.459,4.459,0,1,0,2.931,7.821h0a4.458,4.458,0,0,0-2.931-7.821Z" fill="#231815"/>
              </g>
            </g>
            <g>
              <g>
                <circle cx="168.869" cy="86.963" r="5.193" fill="#ee795e"/>
                <path d="M168.877,92.891q-.207,0-.417-.015a5.927,5.927,0,1,1,4.3-1.443h0A5.882,5.882,0,0,1,168.877,92.891Zm-.011-10.386a4.458,4.458,0,1,0,2.931,7.82h0a4.458,4.458,0,0,0-2.931-7.82Z" fill="#231815"/>
              </g>
              <g>
                <circle cx="175.69" cy="94.796" r="5.193" fill="#ee795e"/>
                <path d="M175.694,100.721a5.925,5.925,0,1,1,3.889-1.454h0A5.908,5.908,0,0,1,175.694,100.721Zm-.007-10.382a4.458,4.458,0,1,0,2.932,7.82h0a4.457,4.457,0,0,0-2.932-7.82Z" fill="#231815"/>
              </g>
              <g>
                <circle cx="182.511" cy="102.629" r="5.193" fill="#ee795e"/>
                <path d="M182.52,108.558q-.209,0-.417-.015a5.894,5.894,0,1,1,.417.015Zm-.012-10.386a4.458,4.458,0,1,0,3.366,1.529A4.436,4.436,0,0,0,182.508,98.172Z" fill="#231815"/>
              </g>
              <g>
                <circle cx="189.332" cy="110.462" r="5.193" fill="#ee795e"/>
                <path d="M189.341,116.391c-.138,0-.278-.005-.417-.015a5.894,5.894,0,1,1,.417.015Zm-.011-10.386a4.458,4.458,0,1,0,3.365,1.529A4.438,4.438,0,0,0,189.33,106.005Z" fill="#231815"/>
              </g>
              <g>
                <circle cx="196.154" cy="118.295" r="5.193" fill="#ee795e"/>
                <path d="M196.163,124.224q-.209,0-.417-.015a5.891,5.891,0,1,1,.417.015Zm-.012-10.386a4.458,4.458,0,1,0,3.366,1.529A4.438,4.438,0,0,0,196.151,113.838Z" fill="#231815"/>
              </g>
              <g>
                <circle cx="202.975" cy="126.128" r="5.193" fill="#ee795e"/>
                <path d="M202.984,132.057q-.209,0-.417-.015a5.894,5.894,0,1,1,.417.015Zm-.012-10.386a4.458,4.458,0,1,0,3.366,1.529A4.44,4.44,0,0,0,202.972,121.671Z" fill="#231815"/>
              </g>
            </g>
          </g>
          <path d="M154.353,171.8l-.482-.553-37.823-43.434,6.479-5.642,4.527-1.58,42.565-37.068,2.188-4.265,6.479-5.642.482.553,37.823,43.432-6.48,5.643-4.526,1.581L163.02,161.9l-2.188,4.266ZM118.119,127.96,154.5,169.733l5.159-4.493,2.188-4.265,42.991-37.439,4.526-1.581,5.16-4.492L178.143,75.69l-5.159,4.494L170.8,84.449l-42.991,37.439-4.527,1.58Z" fill="#231815"/>
          <rect x="190.331" y="72.733" width="1.469" height="56.859" transform="translate(-19.459 150.35) rotate(-41.05)" fill="#231815"/>
          <rect x="140.839" y="115.832" width="1.469" height="56.859" transform="translate(-59.931 128.441) rotate(-41.05)" fill="#231815"/>
          <g>
            <rect x="155.495" y="103.327" width="21.648" height="38.77" transform="translate(149.635 -83.303) rotate(48.95)" fill="#fff"/>
            <path d="M158.738,144.641l-15.182-17.433L173.9,100.783l15.182,17.433Zm-13.111-17.29L158.88,142.57l28.131-24.5-13.253-15.219Z" fill="#231815"/>
          </g>
        </g>
        <g>
          <g>
            <polygon points="103.675 88.97 55.297 118.845 51.242 112.28 50.418 107.556 20.614 59.292 16.76 56.44 12.706 49.875 61.084 20 65.139 26.565 65.963 31.288 95.767 79.553 99.621 82.405 103.675 88.97" fill="#fff"/>
            <path d="M55.058,119.854l-4.515-7.309-.823-4.723L20.064,59.8,16.21,56.946,11.7,49.636l.624-.385,49-30.261,4.514,7.31.824,4.722L96.317,79.047l3.854,2.851,4.515,7.311-.625.385Zm-3.117-7.84,3.594,5.821,47.13-29.1-3.594-5.82-3.854-2.851-29.953-48.5-.824-4.723L60.846,21.01l-47.13,29.1,3.6,5.821,3.854,2.851,29.952,48.505Z" fill="#231815"/>
            <rect x="12.52" y="40.769" width="56.859" height="1.467" transform="translate(-15.705 27.732) rotate(-31.722)" fill="#231815"/>
            <rect x="47.002" y="96.608" width="56.86" height="1.467" transform="translate(-39.914 54.205) rotate(-31.722)" fill="#231815"/>
          </g>
          <g>
            <path d="M77.32,57.879l-3.393,2.095s-9.555-8.607-16.558-23.923l4.362-2.694S65.294,44.548,77.32,57.879Z" fill="#ee795e"/>
            <path d="M73.927,60.708a.731.731,0,0,1-.491-.189A80.328,80.328,0,0,1,56.7,36.356a.735.735,0,0,1,.282-.93l4.363-2.694a.735.735,0,0,1,1.085.4c.035.11,3.671,11.212,15.434,24.253a.734.734,0,0,1-.159,1.116L74.313,60.6A.738.738,0,0,1,73.927,60.708ZM58.308,36.334A80.167,80.167,0,0,0,74.021,59.053l2.168-1.338c-9.784-11.037-13.774-20.4-14.846-23.255Z" fill="#231815"/>
          </g>
          <g>
            <path d="M70.857,61.87l-3.393,2.1s-9.555-8.607-16.558-23.923l4.362-2.694S58.831,48.539,70.857,61.87Z" fill="#ee795e"/>
            <path d="M67.464,64.7a.732.732,0,0,1-.491-.189A80.331,80.331,0,0,1,50.238,40.348a.736.736,0,0,1,.282-.931l4.363-2.693a.734.734,0,0,1,1.085.4c.035.11,3.671,11.212,15.434,24.252a.732.732,0,0,1-.159,1.115l-3.393,2.1A.727.727,0,0,1,67.464,64.7ZM51.845,40.325A80.123,80.123,0,0,0,67.559,63.044l2.167-1.339c-9.784-11.036-13.774-20.4-14.846-23.254Z" fill="#231815"/>
          </g>
          <g>
            <path d="M64.394,65.861,61,67.956s-9.555-8.607-16.558-23.923l4.362-2.694S52.368,52.53,64.394,65.861Z" fill="#ee795e"/>
            <path d="M61,68.69a.732.732,0,0,1-.491-.189A80.352,80.352,0,0,1,43.775,44.339a.735.735,0,0,1,.282-.93l4.363-2.694a.733.733,0,0,1,1.085.4c.035.111,3.67,11.213,15.434,24.253a.732.732,0,0,1-.159,1.115l-3.393,2.1A.727.727,0,0,1,61,68.69ZM45.382,44.315A80.118,80.118,0,0,0,61.1,67.035L63.263,65.7C53.479,54.661,49.489,45.3,48.417,42.441Z" fill="#231815"/>
          </g>
          <g>
            <path d="M57.931,69.852l-3.393,2.095S44.983,63.34,37.98,48.024l4.362-2.694S45.905,56.521,57.931,69.852Z" fill="#ee795e"/>
            <path d="M54.538,72.682a.732.732,0,0,1-.491-.19A80.331,80.331,0,0,1,37.312,48.33a.735.735,0,0,1,.282-.93l4.363-2.694a.734.734,0,0,1,1.085.4c.035.111,3.67,11.213,15.434,24.253a.733.733,0,0,1-.159,1.116l-3.393,2.095A.722.722,0,0,1,54.538,72.682ZM38.919,48.307A80.257,80.257,0,0,0,54.633,71.026L56.8,69.688c-9.783-11.036-13.775-20.4-14.846-23.255Z" fill="#231815"/>
          </g>
          <g>
            <path d="M51.468,73.843l-3.393,2.095S38.52,67.331,31.517,52.015l4.363-2.694S39.442,60.513,51.468,73.843Z" fill="#ee795e"/>
            <path d="M48.075,76.673a.732.732,0,0,1-.491-.19A80.319,80.319,0,0,1,30.85,52.321a.732.732,0,0,1,.281-.929L35.494,48.7a.734.734,0,0,1,1.085.4c.035.11,3.671,11.213,15.434,24.253a.733.733,0,0,1-.159,1.115l-3.393,2.1A.73.73,0,0,1,48.075,76.673ZM32.456,52.3A80.324,80.324,0,0,0,48.17,75.018l2.167-1.339c-9.783-11.035-13.775-20.4-14.846-23.255Z" fill="#231815"/>
          </g>
          <g>
            <path d="M45.005,77.834l-3.393,2.095s-9.555-8.607-16.558-23.923l4.363-2.694S32.979,64.5,45.005,77.834Z" fill="#ee795e"/>
            <path d="M41.612,80.663a.732.732,0,0,1-.491-.189A80.322,80.322,0,0,1,24.387,56.313a.735.735,0,0,1,.281-.93l4.363-2.695a.734.734,0,0,1,1.085.4c.035.11,3.671,11.213,15.434,24.253a.733.733,0,0,1-.159,1.116L42,80.554A.738.738,0,0,1,41.612,80.663ZM25.993,56.289A80.262,80.262,0,0,0,41.707,79.008l2.167-1.338C34.09,66.635,30.1,57.272,29.028,54.415Z" fill="#231815"/>
          </g>
          <g>
            <path d="M38.938,81.748l3.393-2.095s9.555,8.606,16.558,23.922l-4.363,2.694S50.964,95.078,38.938,81.748Z" fill="#ee795e"/>
            <path d="M54.526,107a.732.732,0,0,1-.7-.511c-.035-.11-3.671-11.213-15.434-24.253a.733.733,0,0,1,.159-1.115l3.393-2.1a.734.734,0,0,1,.877.079A80.349,80.349,0,0,1,59.557,103.27a.734.734,0,0,1-.282.929l-4.363,2.7A.728.728,0,0,1,54.526,107ZM40.069,81.912c9.784,11.036,13.774,20.4,14.846,23.255l3.035-1.874a80.152,80.152,0,0,0-15.714-22.72Z" fill="#231815"/>
          </g>
          <g>
            <path d="M45.4,77.757l3.393-2.095s9.555,8.606,16.558,23.922l-4.363,2.694S57.426,91.087,45.4,77.757Z" fill="#ee795e"/>
            <path d="M60.989,103.012a.732.732,0,0,1-.7-.511c-.035-.11-3.671-11.213-15.435-24.253a.733.733,0,0,1,.16-1.115l3.393-2.1a.729.729,0,0,1,.877.079A80.368,80.368,0,0,1,66.02,99.278a.735.735,0,0,1-.282.93L61.375,102.9A.72.72,0,0,1,60.989,103.012ZM46.532,77.921c9.784,11.036,13.774,20.4,14.845,23.255L64.413,99.3A80.269,80.269,0,0,0,48.7,76.582Z" fill="#231815"/>
          </g>
          <g>
            <path d="M51.864,73.766l3.393-2.095s9.555,8.606,16.558,23.922l-4.363,2.694S63.889,87.1,51.864,73.766Z" fill="#ee795e"/>
            <path d="M67.453,99.021a.749.749,0,0,1-.255-.045.736.736,0,0,1-.445-.466c-.035-.111-3.67-11.213-15.435-24.253a.735.735,0,0,1,.16-1.116l3.393-2.095a.734.734,0,0,1,.877.08A80.342,80.342,0,0,1,72.482,95.287a.734.734,0,0,1-.281.93l-4.363,2.694A.728.728,0,0,1,67.453,99.021ZM53,73.93c9.783,11.035,13.775,20.4,14.846,23.255l3.035-1.874A80.262,80.262,0,0,0,55.162,72.592Z" fill="#231815"/>
          </g>
          <g>
            <path d="M58.326,69.775,61.72,67.68S71.275,76.286,78.278,91.6L73.915,94.3S70.352,83.105,58.326,69.775Z" fill="#ee795e"/>
            <path d="M73.916,95.029a.726.726,0,0,1-.255-.045.734.734,0,0,1-.445-.465c-.035-.111-3.671-11.212-15.434-24.253a.735.735,0,0,1,.159-1.117l3.393-2.094a.732.732,0,0,1,.877.08A80.319,80.319,0,0,1,78.945,91.3a.736.736,0,0,1-.281.931L74.3,94.921A.735.735,0,0,1,73.916,95.029ZM59.458,69.938c9.784,11.038,13.774,20.4,14.846,23.255l3.035-1.874A80.267,80.267,0,0,0,61.625,68.6Z" fill="#231815"/>
          </g>
          <g>
            <path d="M64.789,65.784l3.394-2.1S77.738,72.3,84.741,87.611l-4.363,2.694S76.815,79.114,64.789,65.784Z" fill="#ee795e"/>
            <path d="M80.378,91.038a.743.743,0,0,1-.254-.045.734.734,0,0,1-.445-.466c-.035-.11-3.671-11.212-15.434-24.252A.733.733,0,0,1,64.4,65.16l3.393-2.1a.734.734,0,0,1,.877.08A80.286,80.286,0,0,1,85.408,87.306a.734.734,0,0,1-.282.93L80.764,90.93A.736.736,0,0,1,80.378,91.038ZM65.921,65.948c9.784,11.036,13.774,20.4,14.846,23.254L83.8,87.328A80.312,80.312,0,0,0,68.088,64.609Z" fill="#231815"/>
          </g>
          <g>
            <path d="M71.252,61.793l3.393-2.1S84.2,68.3,91.2,83.62l-4.363,2.694S83.278,75.123,71.252,61.793Z" fill="#ee795e"/>
            <path d="M86.841,87.048a.732.732,0,0,1-.7-.511c-.035-.11-3.671-11.213-15.434-24.253a.732.732,0,0,1,.159-1.115l3.393-2.1a.732.732,0,0,1,.877.079A80.339,80.339,0,0,1,91.871,83.314a.734.734,0,0,1-.282.93l-4.362,2.694A.72.72,0,0,1,86.841,87.048ZM72.384,61.957c9.783,11.035,13.774,20.4,14.845,23.255l3.036-1.874a80.274,80.274,0,0,0-15.714-22.72Z" fill="#231815"/>
          </g>
          <g>
            <rect x="47.366" y="50.037" width="21.648" height="38.77" transform="translate(-27.796 40.929) rotate(-31.696)" fill="#fff"/>
            <path d="M58.927,92.613,37.785,58.377,57.454,46.231,78.6,80.468ZM39.806,58.855l19.6,31.739,17.17-10.6-19.6-31.738Z" fill="#231815"/>
          </g>
        </g>
        <g>
          <g>
            <polygon points="99.35 129.515 62.751 172.806 56.876 167.839 54.633 163.618 11.444 127.105 6.909 125.595 1.034 120.629 37.633 77.338 43.508 82.305 45.751 86.526 88.94 123.038 93.475 124.548 99.35 129.515" fill="#fff"/>
            <path d="M62.837,173.84l-6.543-5.531-2.243-4.221L11.079,127.757l-4.536-1.51L0,120.716,37.547,76.3l6.543,5.531,2.243,4.221,42.973,36.331,4.535,1.509,6.543,5.532Zm-5.379-6.471,5.207,4.4L98.316,129.6l-5.207-4.4-4.535-1.51-.108-.09L45.17,87l-2.244-4.222-5.206-4.4L2.068,120.542l5.207,4.4,4.535,1.51.108.091,43.3,36.6Z" fill="#231815"/>
            <rect x="-3.136" y="103.216" width="56.689" height="1.468" transform="translate(-70.462 56.116) rotate(-49.804)" fill="#231815"/>
            <rect x="46.831" y="145.46" width="56.689" height="1.468" transform="translate(-85.012 109.262) rotate(-49.804)" fill="#231815"/>
          </g>
          <g>
            <g>
              <path d="M53.561,158.353A12.549,12.549,0,0,1,56.2,148.19a18.245,18.245,0,0,1,9.737-5.651l1.543-5.638,5.783,4.89-5.3,2.459a23.081,23.081,0,0,1-4.843,9.541A13.347,13.347,0,0,1,53.561,158.353Z" fill="#97d2ce"/>
              <path d="M53.582,159.088h-.029a.732.732,0,0,1-.707-.569,13.189,13.189,0,0,1,2.8-10.8,18.818,18.818,0,0,1,9.707-5.8l1.425-5.205a.734.734,0,0,1,1.182-.367l5.783,4.889a.734.734,0,0,1-.165,1.227L68.6,144.763a24.122,24.122,0,0,1-4.921,9.5A13.989,13.989,0,0,1,53.582,159.088ZM67.887,138.2l-1.239,4.527a.736.736,0,0,1-.58.53,17.647,17.647,0,0,0-9.3,5.4,11.85,11.85,0,0,0-2.581,8.92,12.684,12.684,0,0,0,8.377-4.267,22.457,22.457,0,0,0,4.683-9.2.734.734,0,0,1,.412-.529l4.259-1.975Z" fill="#231815"/>
            </g>
            <g>
              <path d="M63.948,139.909a12.544,12.544,0,0,1,2.642-10.163,18.244,18.244,0,0,1,9.736-5.651l1.543-5.638,5.784,4.89-5.3,2.459a23.076,23.076,0,0,1-4.844,9.541A13.348,13.348,0,0,1,63.948,139.909Z" fill="#97d2ce"/>
              <path d="M63.969,140.644h-.03a.735.735,0,0,1-.707-.57,13.19,13.19,0,0,1,2.8-10.8,18.8,18.8,0,0,1,9.708-5.8l1.425-5.206a.733.733,0,0,1,1.181-.368l5.783,4.89a.734.734,0,0,1-.165,1.227l-4.972,2.3a24.109,24.109,0,0,1-4.921,9.5A13.993,13.993,0,0,1,63.969,140.644ZM78.274,119.76l-1.239,4.528a.735.735,0,0,1-.58.529,17.648,17.648,0,0,0-9.3,5.4,11.852,11.852,0,0,0-2.58,8.92,12.686,12.686,0,0,0,8.377-4.267,22.453,22.453,0,0,0,4.682-9.2.736.736,0,0,1,.413-.529l4.259-1.975Z" fill="#231815"/>
            </g>
            <g>
              <path d="M45.031,151.141a12.542,12.542,0,0,1,2.642-10.162,18.242,18.242,0,0,1,9.736-5.652l1.543-5.638,5.784,4.89-5.3,2.459a23.076,23.076,0,0,1-4.844,9.541A13.344,13.344,0,0,1,45.031,151.141Z" fill="#97d2ce"/>
              <path d="M45.052,151.876h-.03a.734.734,0,0,1-.707-.569,13.189,13.189,0,0,1,2.8-10.8,18.807,18.807,0,0,1,9.707-5.8l1.425-5.206a.734.734,0,0,1,1.182-.367l5.783,4.89a.733.733,0,0,1-.165,1.226l-4.972,2.306a24.116,24.116,0,0,1-4.921,9.5A13.99,13.99,0,0,1,45.052,151.876Zm14.3-20.884-1.239,4.529a.736.736,0,0,1-.58.529,17.649,17.649,0,0,0-9.3,5.4,11.852,11.852,0,0,0-2.58,8.92A12.686,12.686,0,0,0,54.03,146.1a22.583,22.583,0,0,0,4.683-9.2.737.737,0,0,1,.412-.528l4.259-1.975Z" fill="#231815"/>
            </g>
            <g>
              <path d="M55.418,132.7a12.544,12.544,0,0,1,2.641-10.162,18.246,18.246,0,0,1,9.737-5.652l1.543-5.638,5.783,4.89-5.3,2.459a23.081,23.081,0,0,1-4.843,9.541A13.345,13.345,0,0,1,55.418,132.7Z" fill="#97d2ce"/>
              <path d="M55.438,133.432h-.029a.734.734,0,0,1-.707-.57,13.188,13.188,0,0,1,2.8-10.8,18.8,18.8,0,0,1,9.707-5.8l1.425-5.206a.733.733,0,0,1,1.181-.367l5.784,4.889a.734.734,0,0,1-.165,1.227l-4.973,2.3a24.1,24.1,0,0,1-4.92,9.5A14,14,0,0,1,55.438,133.432Zm14.3-20.884L68.5,117.076a.733.733,0,0,1-.58.529,17.647,17.647,0,0,0-9.3,5.4,11.848,11.848,0,0,0-2.58,8.92,12.686,12.686,0,0,0,8.377-4.267,22.592,22.592,0,0,0,4.683-9.2.733.733,0,0,1,.412-.528l4.259-1.975Z" fill="#231815"/>
            </g>
            <g>
              <path d="M36.5,143.93a12.546,12.546,0,0,1,2.641-10.163,18.246,18.246,0,0,1,9.737-5.652l1.543-5.637,5.783,4.889-5.3,2.459a23.075,23.075,0,0,1-4.843,9.541A13.349,13.349,0,0,1,36.5,143.93Z" fill="#97d2ce"/>
              <path d="M36.521,144.664h-.029a.733.733,0,0,1-.707-.569,13.19,13.19,0,0,1,2.8-10.8,18.807,18.807,0,0,1,9.707-5.8l1.425-5.206a.734.734,0,0,1,1.182-.367l5.783,4.89a.733.733,0,0,1-.165,1.226l-4.972,2.306a24.13,24.13,0,0,1-4.921,9.5A13.992,13.992,0,0,1,36.521,144.664ZM50.826,123.78l-1.239,4.529a.736.736,0,0,1-.58.529,17.649,17.649,0,0,0-9.3,5.4,11.848,11.848,0,0,0-2.58,8.92,12.683,12.683,0,0,0,8.377-4.266,22.6,22.6,0,0,0,4.683-9.206.734.734,0,0,1,.412-.528l4.258-1.974Z" fill="#231815"/>
            </g>
            <g>
              <path d="M46.887,125.486a12.549,12.549,0,0,1,2.642-10.163,18.243,18.243,0,0,1,9.737-5.652l1.543-5.637,5.783,4.889-5.3,2.459a23.075,23.075,0,0,1-4.843,9.541A13.35,13.35,0,0,1,46.887,125.486Z" fill="#97d2ce"/>
              <path d="M46.908,126.22h-.029a.734.734,0,0,1-.707-.57,13.187,13.187,0,0,1,2.8-10.8,18.813,18.813,0,0,1,9.708-5.8L60.1,103.84a.733.733,0,0,1,1.181-.367l5.783,4.889a.734.734,0,0,1-.165,1.227L61.928,111.9a24.093,24.093,0,0,1-4.921,9.5A13.99,13.99,0,0,1,46.908,126.22Zm14.305-20.884-1.239,4.528a.737.737,0,0,1-.58.53,17.636,17.636,0,0,0-9.3,5.4,11.8,11.8,0,0,0-2.582,8.919,12.679,12.679,0,0,0,8.379-4.267,22.562,22.562,0,0,0,4.683-9.2.737.737,0,0,1,.412-.528l4.259-1.975Z" fill="#231815"/>
            </g>
            <g>
              <path d="M27.97,136.718a12.544,12.544,0,0,1,2.642-10.163,18.25,18.25,0,0,1,9.737-5.652l1.543-5.637,5.783,4.889-5.3,2.459a23.082,23.082,0,0,1-4.843,9.542A13.351,13.351,0,0,1,27.97,136.718Z" fill="#97d2ce"/>
              <path d="M27.991,137.452h-.029a.733.733,0,0,1-.707-.569,13.192,13.192,0,0,1,2.8-10.8,18.816,18.816,0,0,1,9.708-5.8l1.425-5.206a.733.733,0,0,1,1.181-.367l5.783,4.89a.733.733,0,0,1-.165,1.226l-4.972,2.306a24.089,24.089,0,0,1-4.921,9.5A13.988,13.988,0,0,1,27.991,137.452ZM42.3,116.568,41.057,121.1a.738.738,0,0,1-.58.529,17.654,17.654,0,0,0-9.3,5.4,11.857,11.857,0,0,0-2.58,8.92,12.681,12.681,0,0,0,8.377-4.266,22.568,22.568,0,0,0,4.683-9.2.739.739,0,0,1,.412-.529l4.259-1.974Z" fill="#231815"/>
            </g>
            <g>
              <path d="M38.357,118.274A12.544,12.544,0,0,1,41,108.111a18.242,18.242,0,0,1,9.736-5.652l1.543-5.637,5.784,4.889-5.3,2.459a23.07,23.07,0,0,1-4.844,9.541A13.347,13.347,0,0,1,38.357,118.274Z" fill="#97d2ce"/>
              <path d="M38.378,119.008h-.029a.732.732,0,0,1-.707-.569,13.18,13.18,0,0,1,2.8-10.8,18.82,18.82,0,0,1,9.708-5.8l1.424-5.2a.735.735,0,0,1,.491-.508.746.746,0,0,1,.691.141l5.783,4.888a.734.734,0,0,1-.164,1.227L53.4,104.684a24.116,24.116,0,0,1-4.921,9.5A13.993,13.993,0,0,1,38.378,119.008ZM52.683,98.125l-1.24,4.527a.735.735,0,0,1-.58.53,17.646,17.646,0,0,0-9.3,5.4,11.8,11.8,0,0,0-2.582,8.919,12.68,12.68,0,0,0,8.378-4.266,22.467,22.467,0,0,0,4.684-9.2.732.732,0,0,1,.412-.529l4.258-1.976Z" fill="#231815"/>
            </g>
            <g>
              <path d="M19.44,129.506a12.544,12.544,0,0,1,2.642-10.163,18.249,18.249,0,0,1,9.736-5.652l1.543-5.637,5.784,4.889-5.3,2.46A23.066,23.066,0,0,1,29,124.944,13.348,13.348,0,0,1,19.44,129.506Z" fill="#97d2ce"/>
              <path d="M19.461,130.24h-.029a.732.732,0,0,1-.707-.569,13.181,13.181,0,0,1,2.8-10.8,18.827,18.827,0,0,1,9.708-5.8l1.424-5.206a.735.735,0,0,1,1.182-.367l5.783,4.89a.733.733,0,0,1-.165,1.226l-4.973,2.306a24.081,24.081,0,0,1-4.92,9.5A13.989,13.989,0,0,1,19.461,130.24Zm14.305-20.884-1.24,4.529a.735.735,0,0,1-.58.529,17.654,17.654,0,0,0-9.3,5.4,11.8,11.8,0,0,0-2.582,8.919,12.675,12.675,0,0,0,8.378-4.266,22.587,22.587,0,0,0,4.684-9.2.734.734,0,0,1,.412-.529l4.258-1.974Z" fill="#231815"/>
            </g>
            <g>
              <path d="M29.827,111.062A12.546,12.546,0,0,1,32.468,100.9a18.254,18.254,0,0,1,9.737-5.652l1.543-5.637L49.531,94.5l-5.3,2.46a23.081,23.081,0,0,1-4.843,9.541A13.35,13.35,0,0,1,29.827,111.062Z" fill="#97d2ce"/>
              <path d="M29.847,111.8h-.029a.733.733,0,0,1-.707-.569,13.189,13.189,0,0,1,2.8-10.8,18.818,18.818,0,0,1,9.707-5.8l1.425-5.2a.734.734,0,0,1,.49-.508.744.744,0,0,1,.692.141l5.783,4.888a.734.734,0,0,1-.165,1.227l-4.973,2.307a24.122,24.122,0,0,1-4.921,9.5A13.99,13.99,0,0,1,29.847,111.8ZM44.152,90.913,42.913,95.44a.736.736,0,0,1-.58.53,17.639,17.639,0,0,0-9.3,5.4,11.848,11.848,0,0,0-2.58,8.92,12.687,12.687,0,0,0,8.376-4.267,22.457,22.457,0,0,0,4.683-9.2.737.737,0,0,1,.412-.529l4.259-1.976Z" fill="#231815"/>
            </g>
            <g>
              <rect x="39.4" y="105.745" width="21.583" height="38.654" transform="translate(-77.725 82.653) rotate(-49.788)" fill="#fff"/>
              <path d="M58.083,146.967,27.29,120.934,42.3,103.177,73.094,129.21ZM29.642,120.736l28.243,23.879,12.858-15.208L42.5,105.528Z" fill="#231815"/>
            </g>
          </g>
        </g>
        <g>
          <g>
            <polygon points="147.822 120.588 103.271 85.534 108.028 79.488 112.168 77.098 147.14 32.652 148.489 28.066 153.246 22.021 197.797 57.075 193.04 63.121 188.9 65.511 153.928 109.957 152.579 114.542 147.822 120.588" fill="#fff"/>
            <path d="M147.945,121.618l-45.7-35.961,5.3-6.733,4.14-2.391,34.8-44.223,1.349-4.586,5.3-6.734.577.453,45.128,35.509-5.3,6.735-4.14,2.389-34.8,44.224-1.349,4.585ZM104.3,85.411l43.4,34.147,4.216-5.359,1.349-4.585.088-.111,35.059-44.558,4.139-2.389,4.216-5.358-43.4-34.147-4.216,5.358L147.8,32.995l-.088.111L112.657,77.662l-4.139,2.391Z" fill="#231815"/>
            <rect x="170.03" y="17.249" width="1.469" height="56.689" transform="translate(29.337 151.601) rotate(-51.803)" fill="#231815"/>
            <rect x="129.57" y="68.671" width="1.468" height="56.688" transform="matrix(0.618, -0.786, 0.786, 0.618, -26.515, 139.43)" fill="#231815"/>
          </g>
          <g>
            <g>
              <path d="M117.392,75.842a12.544,12.544,0,0,1,10.249,2.282,18.252,18.252,0,0,1,5.991,9.532L139.32,89l-4.683,5.952-2.644-5.213a23.071,23.071,0,0,1-9.706-4.5A13.348,13.348,0,0,1,117.392,75.842Z" fill="#97d2ce"/>
              <path d="M134.637,95.687c-.024,0-.048,0-.073,0a.735.735,0,0,1-.582-.4L131.5,90.4a24.11,24.11,0,0,1-9.669-4.584,13.983,13.983,0,0,1-5.175-9.953.734.734,0,0,1,.545-.726A13.178,13.178,0,0,1,128.1,77.547a18.825,18.825,0,0,1,6.141,9.5l5.253,1.241a.733.733,0,0,1,.407,1.168l-4.683,5.952A.733.733,0,0,1,134.637,95.687ZM118.183,76.435a12.674,12.674,0,0,0,4.558,8.222,22.438,22.438,0,0,0,9.363,4.357.733.733,0,0,1,.543.393l2.124,4.188,3.261-4.145-4.569-1.08a.734.734,0,0,1-.549-.56,17.648,17.648,0,0,0-5.727-9.109A11.794,11.794,0,0,0,118.183,76.435Z" fill="#231815"/>
            </g>
            <g>
              <path d="M136.189,85.573a12.549,12.549,0,0,1,10.25,2.283,18.252,18.252,0,0,1,5.991,9.532l5.688,1.344-4.683,5.952-2.645-5.213a23.065,23.065,0,0,1-9.7-4.505A13.35,13.35,0,0,1,136.189,85.573Z" fill="#97d2ce"/>
              <path d="M153.435,105.418c-.024,0-.048,0-.073,0a.734.734,0,0,1-.582-.4l-2.48-4.888a24.125,24.125,0,0,1-9.669-4.584,13.98,13.98,0,0,1-5.175-9.953.734.734,0,0,1,.544-.727,13.2,13.2,0,0,1,10.893,2.415,18.823,18.823,0,0,1,6.141,9.5l5.253,1.243a.733.733,0,0,1,.407,1.168l-4.683,5.951A.735.735,0,0,1,153.435,105.418ZM136.98,86.166a12.687,12.687,0,0,0,4.559,8.224,22.566,22.566,0,0,0,9.364,4.356.734.734,0,0,1,.542.394l2.124,4.186,3.261-4.144-4.569-1.08a.734.734,0,0,1-.549-.561,17.643,17.643,0,0,0-5.727-9.107A11.793,11.793,0,0,0,136.98,86.166Z" fill="#231815"/>
            </g>
            <g>
              <path d="M124.3,67.063a12.542,12.542,0,0,1,10.249,2.283,18.241,18.241,0,0,1,5.991,9.532l5.688,1.344-4.683,5.951L138.9,80.961a23.08,23.08,0,0,1-9.705-4.5A13.345,13.345,0,0,1,124.3,67.063Z" fill="#97d2ce"/>
              <path d="M141.544,86.907c-.023,0-.047,0-.072,0a.73.73,0,0,1-.582-.4l-2.48-4.888a24.119,24.119,0,0,1-9.669-4.584,13.985,13.985,0,0,1-5.176-9.952.734.734,0,0,1,.545-.727A13.188,13.188,0,0,1,135,68.769a18.814,18.814,0,0,1,6.141,9.5l5.253,1.241a.733.733,0,0,1,.408,1.168l-4.683,5.951A.734.734,0,0,1,141.544,86.907ZM125.09,67.658a12.678,12.678,0,0,0,4.558,8.221,22.551,22.551,0,0,0,9.364,4.356.733.733,0,0,1,.542.394l2.125,4.186,3.26-4.143-4.569-1.08a.735.735,0,0,1-.549-.561,17.642,17.642,0,0,0-5.726-9.108A11.846,11.846,0,0,0,125.09,67.658Z" fill="#231815"/>
            </g>
            <g>
              <path d="M143.1,76.8a12.542,12.542,0,0,1,10.249,2.283,18.249,18.249,0,0,1,5.991,9.532l5.688,1.343-4.683,5.952L157.7,90.693a23.087,23.087,0,0,1-9.706-4.5A13.348,13.348,0,0,1,143.1,76.8Z" fill="#97d2ce"/>
              <path d="M160.342,96.64c-.024,0-.048,0-.072,0a.732.732,0,0,1-.582-.4l-2.48-4.888a24.1,24.1,0,0,1-9.669-4.584,13.98,13.98,0,0,1-5.176-9.952.734.734,0,0,1,.545-.727A13.186,13.186,0,0,1,153.8,78.5a18.825,18.825,0,0,1,6.141,9.5l5.253,1.241a.734.734,0,0,1,.408,1.168l-4.684,5.952A.733.733,0,0,1,160.342,96.64ZM143.888,77.39a12.672,12.672,0,0,0,4.558,8.22,22.545,22.545,0,0,0,9.364,4.357.732.732,0,0,1,.542.393l2.124,4.188,3.261-4.145-4.569-1.08a.734.734,0,0,1-.549-.56,17.652,17.652,0,0,0-5.727-9.109A11.843,11.843,0,0,0,143.888,77.39Z" fill="#231815"/>
            </g>
            <g>
              <path d="M131.206,58.284a12.549,12.549,0,0,1,10.25,2.283,18.243,18.243,0,0,1,5.99,9.532l5.689,1.344L148.452,77.4l-2.645-5.213a23.065,23.065,0,0,1-9.7-4.5A13.35,13.35,0,0,1,131.206,58.284Z" fill="#97d2ce"/>
              <path d="M148.452,78.129c-.024,0-.048,0-.073,0a.734.734,0,0,1-.582-.4l-2.48-4.888a24.125,24.125,0,0,1-9.669-4.584,13.984,13.984,0,0,1-5.175-9.953.734.734,0,0,1,.545-.727A13.193,13.193,0,0,1,141.91,59.99a18.82,18.82,0,0,1,6.14,9.5l5.254,1.242a.733.733,0,0,1,.407,1.168l-4.683,5.952A.735.735,0,0,1,148.452,78.129ZM132,58.879a12.68,12.68,0,0,0,4.558,8.222,22.566,22.566,0,0,0,9.364,4.356.734.734,0,0,1,.542.394l2.124,4.186,3.261-4.143-4.57-1.081a.734.734,0,0,1-.548-.561A17.65,17.65,0,0,0,141,61.145,11.842,11.842,0,0,0,132,58.879Z" fill="#231815"/>
            </g>
            <g>
              <path d="M150,68.016a12.549,12.549,0,0,1,10.25,2.283,18.243,18.243,0,0,1,5.99,9.532l5.688,1.344-4.683,5.951-2.644-5.212a23.065,23.065,0,0,1-9.7-4.5A13.35,13.35,0,0,1,150,68.016Z" fill="#97d2ce"/>
              <path d="M167.25,87.86c-.024,0-.048,0-.073,0a.73.73,0,0,1-.582-.4l-2.48-4.888a24.11,24.11,0,0,1-9.669-4.584,13.977,13.977,0,0,1-5.175-9.952.733.733,0,0,1,.544-.726,13.174,13.174,0,0,1,10.892,2.414,18.814,18.814,0,0,1,6.141,9.5l5.254,1.241a.734.734,0,0,1,.407,1.168l-4.683,5.951A.732.732,0,0,1,167.25,87.86ZM150.795,68.611a12.681,12.681,0,0,0,4.559,8.221,22.551,22.551,0,0,0,9.364,4.356.737.737,0,0,1,.542.394l2.124,4.187,3.261-4.144-4.57-1.08a.735.735,0,0,1-.549-.561,17.642,17.642,0,0,0-5.726-9.108A11.839,11.839,0,0,0,150.795,68.611Z" fill="#231815"/>
            </g>
            <g>
              <path d="M138.114,49.506a12.544,12.544,0,0,1,10.249,2.282,18.252,18.252,0,0,1,5.991,9.532l5.688,1.344-4.683,5.952L152.715,63.4a23.077,23.077,0,0,1-9.706-4.5A13.348,13.348,0,0,1,138.114,49.506Z" fill="#97d2ce"/>
              <path d="M155.359,69.351c-.024,0-.048,0-.072,0a.732.732,0,0,1-.582-.4l-2.48-4.888a24.112,24.112,0,0,1-9.67-4.584,13.986,13.986,0,0,1-5.175-9.953.734.734,0,0,1,.545-.726,13.174,13.174,0,0,1,10.892,2.414,18.818,18.818,0,0,1,6.141,9.5l5.253,1.241a.734.734,0,0,1,.408,1.168l-4.683,5.952A.735.735,0,0,1,155.359,69.351ZM138.905,50.1a12.674,12.674,0,0,0,4.558,8.223,22.438,22.438,0,0,0,9.363,4.357.733.733,0,0,1,.543.393l2.124,4.188,3.261-4.145-4.569-1.08a.734.734,0,0,1-.549-.56,17.644,17.644,0,0,0-5.727-9.109A11.81,11.81,0,0,0,138.905,50.1Z" fill="#231815"/>
            </g>
            <g>
              <path d="M156.912,59.238a12.544,12.544,0,0,1,10.249,2.282,18.252,18.252,0,0,1,5.991,9.532L178.84,72.4l-4.683,5.952-2.644-5.213a23.066,23.066,0,0,1-9.706-4.505A13.345,13.345,0,0,1,156.912,59.238Z" fill="#97d2ce"/>
              <path d="M174.157,79.082c-.024,0-.048,0-.073,0a.734.734,0,0,1-.582-.4l-2.48-4.888a24.117,24.117,0,0,1-9.668-4.584,13.983,13.983,0,0,1-5.176-9.953.734.734,0,0,1,.545-.727,13.2,13.2,0,0,1,10.892,2.415,18.823,18.823,0,0,1,6.141,9.5l5.253,1.243a.733.733,0,0,1,.408,1.168L174.733,78.8A.735.735,0,0,1,174.157,79.082ZM157.7,59.83a12.68,12.68,0,0,0,4.558,8.224,22.566,22.566,0,0,0,9.364,4.356.733.733,0,0,1,.542.394l2.124,4.186,3.261-4.144-4.569-1.08a.737.737,0,0,1-.549-.561,17.645,17.645,0,0,0-5.726-9.107A11.79,11.79,0,0,0,157.7,59.83Z" fill="#231815"/>
            </g>
            <g>
              <path d="M145.021,40.727A12.542,12.542,0,0,1,155.27,43.01a18.241,18.241,0,0,1,5.991,9.532l5.688,1.344-4.683,5.951-2.644-5.212a23.08,23.08,0,0,1-9.705-4.505A13.345,13.345,0,0,1,145.021,40.727Z" fill="#97d2ce"/>
              <path d="M162.267,60.571c-.024,0-.048,0-.073,0a.732.732,0,0,1-.582-.4l-2.48-4.888a24.119,24.119,0,0,1-9.669-4.584,13.985,13.985,0,0,1-5.176-9.952.732.732,0,0,1,.545-.726,13.182,13.182,0,0,1,10.892,2.414,18.814,18.814,0,0,1,6.141,9.5l5.253,1.241a.734.734,0,0,1,.408,1.168l-4.683,5.951A.732.732,0,0,1,162.267,60.571ZM145.812,41.322a12.678,12.678,0,0,0,4.558,8.221,22.562,22.562,0,0,0,9.364,4.356.735.735,0,0,1,.542.394l2.125,4.186,3.261-4.143-4.57-1.08a.735.735,0,0,1-.549-.561,17.642,17.642,0,0,0-5.726-9.108A11.846,11.846,0,0,0,145.812,41.322Z" fill="#231815"/>
            </g>
            <g>
              <path d="M163.819,50.459a12.542,12.542,0,0,1,10.249,2.283,18.241,18.241,0,0,1,5.991,9.532l5.688,1.343-4.683,5.952-2.644-5.212a23.08,23.08,0,0,1-9.7-4.505A13.347,13.347,0,0,1,163.819,50.459Z" fill="#97d2ce"/>
              <path d="M181.064,70.3c-.024,0-.048,0-.072,0a.732.732,0,0,1-.582-.4l-2.48-4.888a24.1,24.1,0,0,1-9.669-4.584,13.985,13.985,0,0,1-5.176-9.952.734.734,0,0,1,.545-.727,13.186,13.186,0,0,1,10.892,2.414,18.818,18.818,0,0,1,6.141,9.5l5.253,1.241a.734.734,0,0,1,.408,1.168l-4.683,5.952A.735.735,0,0,1,181.064,70.3ZM164.61,51.054a12.677,12.677,0,0,0,4.558,8.22,22.545,22.545,0,0,0,9.364,4.357.732.732,0,0,1,.542.393l2.124,4.188,3.261-4.145-4.569-1.08a.734.734,0,0,1-.549-.56,17.644,17.644,0,0,0-5.727-9.109A11.832,11.832,0,0,0,164.61,51.054Z" fill="#231815"/>
            </g>
            <g>
              <rect x="139.742" y="51.978" width="21.583" height="38.654" transform="translate(76.323 -77.818) rotate(38.197)" fill="#fff"/>
              <path d="M147.2,94.338,128.931,79.96l24.933-31.689,18.274,14.378ZM131.273,79.681,146.924,92,169.8,62.929,154.144,50.614Z" fill="#231815"/>
            </g>
          </g>
        </g>
        <g>
          <g>
            <polygon points="110.207 166.974 55.509 182.502 53.401 175.079 53.899 170.31 38.408 115.741 35.479 111.945 33.372 104.523 88.07 88.995 90.177 96.418 89.68 101.186 105.171 155.755 108.099 159.551 110.207 166.974" fill="#fff"/>
            <path d="M55,183.408l-2.345-8.264.5-4.769-15.414-54.3-2.928-3.8-2.347-8.265,56.11-15.928,2.347,8.265-.5,4.768,15.414,54.3,2.929,3.8,2.346,8.263Zm-.856-8.393,1.868,6.581L109.3,166.468l-1.868-6.58-2.929-3.8-15.568-54.84.5-4.769L87.564,89.9,34.278,105.028l1.868,6.581,2.929,3.8,15.568,54.841Z" fill="#231815"/>
            <rect x="34.398" y="103.448" width="56.859" height="1.468" transform="translate(-26.037 21.09) rotate(-15.83)" fill="#231815"/>
            <rect x="52.321" y="166.582" width="56.859" height="1.468" transform="translate(-42.579 28.373) rotate(-15.83)" fill="#231815"/>
          </g>
          <g>
            <path d="M93.344,129.867l-3.836,1.089s-6.842-10.888-9.4-27.535l4.933-1.4S85.416,113.76,93.344,129.867Z" fill="#ee795e"/>
            <path d="M89.508,131.69a.733.733,0,0,1-.621-.343,80.328,80.328,0,0,1-9.5-27.815.734.734,0,0,1,.525-.817l4.932-1.4a.735.735,0,0,1,.934.683c0,.116.469,11.789,8.225,27.546a.734.734,0,0,1-.459,1.03l-3.836,1.089A.721.721,0,0,1,89.508,131.69Zm-8.57-27.741A80.132,80.132,0,0,0,89.851,130.1l2.45-.7c-6.4-13.288-7.681-23.384-7.931-26.425Z" fill="#231815"/>
          </g>
          <g>
            <path d="M86.037,131.942,82.2,133.031s-6.842-10.889-9.4-27.535l4.932-1.4S78.109,115.834,86.037,131.942Z" fill="#ee795e"/>
            <path d="M82.2,133.766a.735.735,0,0,1-.622-.344,80.34,80.34,0,0,1-9.5-27.816.733.733,0,0,1,.525-.817l4.932-1.4a.734.734,0,0,1,.934.682c0,.116.469,11.788,8.225,27.545a.734.734,0,0,1-.458,1.03l-3.837,1.09A.727.727,0,0,1,82.2,133.766Zm-8.57-27.743a80.294,80.294,0,0,0,8.912,26.148l2.451-.7c-6.4-13.288-7.681-23.385-7.932-26.425Z" fill="#231815"/>
          </g>
          <g>
            <path d="M78.73,134.016,74.894,135.1s-6.842-10.889-9.4-27.535l4.932-1.4S70.8,117.908,78.73,134.016Z" fill="#ee795e"/>
            <path d="M74.894,135.84a.735.735,0,0,1-.622-.344,80.352,80.352,0,0,1-9.5-27.814.735.735,0,0,1,.525-.818l4.932-1.4a.734.734,0,0,1,.935.682c0,.117.468,11.789,8.225,27.545a.736.736,0,0,1-.458,1.031l-3.837,1.09A.766.766,0,0,1,74.894,135.84ZM66.324,108.1a80.116,80.116,0,0,0,8.912,26.146l2.451-.7c-6.4-13.287-7.681-23.384-7.932-26.425Z" fill="#231815"/>
          </g>
          <g>
            <path d="M71.423,136.09l-3.837,1.09s-6.841-10.889-9.4-27.536l4.933-1.4S63.494,119.983,71.423,136.09Z" fill="#ee795e"/>
            <path d="M67.586,137.914a.733.733,0,0,1-.621-.344,80.341,80.341,0,0,1-9.5-27.814.735.735,0,0,1,.525-.818l4.932-1.4a.733.733,0,0,1,.934.683c0,.116.469,11.788,8.226,27.546a.735.735,0,0,1-.459,1.03l-3.836,1.089A.773.773,0,0,1,67.586,137.914Zm-8.569-27.741a80.116,80.116,0,0,0,8.912,26.146l2.45-.695c-6.4-13.288-7.68-23.385-7.931-26.426Z" fill="#231815"/>
          </g>
          <g>
            <path d="M64.115,138.165l-3.836,1.089s-6.842-10.889-9.4-27.535l4.933-1.4S56.187,122.057,64.115,138.165Z" fill="#ee795e"/>
            <path d="M60.279,139.988a.733.733,0,0,1-.621-.343,80.328,80.328,0,0,1-9.5-27.815.734.734,0,0,1,.525-.817l4.932-1.4a.739.739,0,0,1,.633.114.731.731,0,0,1,.3.569c0,.116.469,11.789,8.225,27.546a.734.734,0,0,1-.458,1.03l-3.837,1.089A.721.721,0,0,1,60.279,139.988Zm-8.57-27.741a80.132,80.132,0,0,0,8.913,26.147l2.45-.7c-6.4-13.288-7.68-23.385-7.931-26.426Z" fill="#231815"/>
          </g>
          <g>
            <path d="M56.808,140.239l-3.836,1.089s-6.842-10.889-9.4-27.535l4.932-1.4S48.88,124.132,56.808,140.239Z" fill="#ee795e"/>
            <path d="M52.972,142.063a.732.732,0,0,1-.621-.344,80.3,80.3,0,0,1-9.5-27.815.733.733,0,0,1,.524-.817l4.933-1.4a.729.729,0,0,1,.633.113.737.737,0,0,1,.3.569c0,.116.469,11.789,8.225,27.546a.734.734,0,0,1-.459,1.03l-3.836,1.089A.722.722,0,0,1,52.972,142.063ZM44.4,114.321a80.166,80.166,0,0,0,8.912,26.147l2.451-.7c-6.4-13.288-7.681-23.384-7.932-26.425Z" fill="#231815"/>
          </g>
          <g>
            <path d="M49.9,142.348l3.836-1.089s6.842,10.888,9.4,27.535l-4.932,1.4S57.831,158.455,49.9,142.348Z" fill="#ee795e"/>
            <path d="M58.2,170.929a.736.736,0,0,1-.734-.711c0-.116-.469-11.789-8.225-27.546a.734.734,0,0,1,.458-1.03l3.836-1.089a.737.737,0,0,1,.822.315,80.352,80.352,0,0,1,9.5,27.815.734.734,0,0,1-.525.817L58.4,170.9A.722.722,0,0,1,58.2,170.929Zm-7.257-28.115c6.4,13.289,7.68,23.385,7.931,26.426l3.431-.974A80.115,80.115,0,0,0,53.4,142.119Z" fill="#231815"/>
          </g>
          <g>
            <path d="M57.209,140.273l3.837-1.089s6.841,10.889,9.4,27.535l-4.933,1.4S65.138,156.381,57.209,140.273Z" fill="#ee795e"/>
            <path d="M65.51,168.854a.734.734,0,0,1-.734-.711c0-.117-.469-11.789-8.225-27.545a.736.736,0,0,1,.458-1.031l3.836-1.088a.738.738,0,0,1,.822.315,80.341,80.341,0,0,1,9.5,27.814.734.734,0,0,1-.525.818l-4.933,1.4A.71.71,0,0,1,65.51,168.854ZM58.253,140.74c6.4,13.288,7.681,23.385,7.931,26.425l3.431-.974A80.116,80.116,0,0,0,60.7,140.045Z" fill="#231815"/>
          </g>
          <g>
            <path d="M64.517,138.2l3.836-1.089s6.842,10.889,9.4,27.535l-4.933,1.4S72.445,154.307,64.517,138.2Z" fill="#ee795e"/>
            <path d="M72.817,166.779a.744.744,0,0,1-.434-.141.737.737,0,0,1-.3-.57c0-.116-.469-11.788-8.225-27.545a.734.734,0,0,1,.458-1.03l3.836-1.09a.738.738,0,0,1,.823.316,80.339,80.339,0,0,1,9.5,27.815.735.735,0,0,1-.525.818l-4.932,1.4A.721.721,0,0,1,72.817,166.779ZM65.56,138.666c6.4,13.288,7.681,23.385,7.931,26.425l3.431-.974a80.267,80.267,0,0,0-8.911-26.147Z" fill="#231815"/>
          </g>
          <g>
            <path d="M71.824,136.124l3.836-1.089s6.842,10.889,9.4,27.536l-4.932,1.4S79.752,152.232,71.824,136.124Z" fill="#ee795e"/>
            <path d="M80.124,164.705a.734.734,0,0,1-.734-.711c0-.116-.469-11.788-8.225-27.546a.734.734,0,0,1,.459-1.03l3.836-1.089a.736.736,0,0,1,.822.316,80.331,80.331,0,0,1,9.5,27.814.734.734,0,0,1-.525.817l-4.933,1.4A.76.76,0,0,1,80.124,164.705Zm-7.257-28.114c6.4,13.288,7.681,23.385,7.931,26.426l3.432-.975A80.121,80.121,0,0,0,75.318,135.9Z" fill="#231815"/>
          </g>
          <g>
            <path d="M79.131,134.05l3.836-1.089s6.842,10.889,9.4,27.535l-4.932,1.4S87.059,150.158,79.131,134.05Z" fill="#ee795e"/>
            <path d="M87.431,162.631a.736.736,0,0,1-.734-.711c0-.116-.468-11.788-8.225-27.546a.734.734,0,0,1,.459-1.03l3.836-1.089a.737.737,0,0,1,.822.315,80.352,80.352,0,0,1,9.5,27.815.734.734,0,0,1-.525.817l-4.933,1.4A.76.76,0,0,1,87.431,162.631Zm-7.257-28.114c6.4,13.288,7.681,23.384,7.931,26.425l3.432-.974a80.115,80.115,0,0,0-8.912-26.147Z" fill="#231815"/>
          </g>
          <g>
            <path d="M86.438,131.976l3.837-1.089s6.841,10.889,9.395,27.535l-4.932,1.4S94.367,148.083,86.438,131.976Z" fill="#ee795e"/>
            <path d="M94.739,160.557a.736.736,0,0,1-.734-.711c0-.117-.469-11.789-8.226-27.546a.735.735,0,0,1,.459-1.03l3.836-1.089a.737.737,0,0,1,.822.315,80.342,80.342,0,0,1,9.5,27.815.734.734,0,0,1-.525.817l-4.932,1.4A.722.722,0,0,1,94.739,160.557Zm-7.258-28.115c6.4,13.288,7.681,23.385,7.932,26.426l3.431-.974a80.115,80.115,0,0,0-8.912-26.147Z" fill="#231815"/>
          </g>
          <g>
            <rect x="60.965" y="116.363" width="21.648" height="38.77" transform="translate(-34.343 24.765) rotate(-15.848)" fill="#fff"/>
            <path d="M66.165,158.259,55.176,119.55l22.238-6.312L88.4,151.946Zm-9.176-37.7,10.187,35.884,19.413-5.511L76.4,115.051Z" fill="#231815"/>
          </g>
        </g>
        <g>
          <g>
            <polygon points="160.552 178.522 104.896 166.885 106.475 159.332 109.129 155.339 120.738 99.815 119.906 95.093 121.486 87.54 177.141 99.177 175.562 106.73 172.908 110.723 161.299 166.247 162.131 170.969 160.552 178.522" fill="#fff"/>
            <path d="M161.12,179.39l-.719-.15-56.374-11.787,1.759-8.409,2.653-3.993L119.991,99.8l-.832-4.722,1.758-8.409.719.149L178.01,98.608l-1.758,8.41-2.654,3.994-11.552,55.247.832,4.721Zm-55.355-13.074,54.218,11.337,1.4-6.7-.832-4.722.03-.138,11.638-55.663,2.654-3.993,1.4-6.7L122.054,88.408l-1.4,6.7.832,4.722-.029.139-11.639,55.662-2.653,3.993Z" fill="#231815"/>
            <rect x="147" y="72.481" width="1.469" height="56.86" transform="translate(18.724 224.866) rotate(-78.191)" fill="#231815"/>
            <rect x="133.569" y="136.721" width="1.469" height="56.859" transform="translate(-54.838 262.811) rotate(-78.191)" fill="#231815"/>
          </g>
          <g>
            <rect x="125.264" y="102.755" width="14.868" height="14.868" transform="translate(25.36 -24.826) rotate(11.81)" fill="#e84572"/>
            <path d="M138.454,119.722a.767.767,0,0,1-.151-.016l-14.553-3.043a.735.735,0,0,1-.568-.869l3.043-14.554a.737.737,0,0,1,.317-.464.75.75,0,0,1,.552-.1l14.553,3.043a.735.735,0,0,1,.568.869l-3.043,14.554a.735.735,0,0,1-.718.584Zm-13.685-4.346,13.116,2.743L140.628,105l-13.116-2.743Z" fill="#231815"/>
          </g>
          <g>
            <rect x="138.167" y="110.178" width="14.868" height="14.868" transform="translate(27.152 -27.309) rotate(11.81)" fill="#e84572"/>
            <path d="M151.357,127.145a.7.7,0,0,1-.151-.016l-14.554-3.043a.734.734,0,0,1-.568-.869l3.043-14.553A.736.736,0,0,1,140,108.1l14.553,3.043a.734.734,0,0,1,.568.869l-3.043,14.553A.735.735,0,0,1,151.357,127.145ZM137.671,122.8l13.117,2.743,2.742-13.116-13.116-2.743Z" fill="#231815"/>
          </g>
          <g>
            <rect x="151.976" y="108.34" width="14.868" height="14.868" transform="translate(27.068 -30.174) rotate(11.81)" fill="#e84572"/>
            <path d="M165.165,125.307a.757.757,0,0,1-.15-.016l-14.554-3.043a.734.734,0,0,1-.567-.869l3.042-14.554a.736.736,0,0,1,.316-.464.744.744,0,0,1,.553-.1l14.553,3.043a.734.734,0,0,1,.568.869l-3.043,14.554a.733.733,0,0,1-.718.584Zm-13.685-4.346L164.6,123.7l2.742-13.117-13.116-2.743Z" fill="#231815"/>
          </g>
          <g>
            <rect x="121.41" y="121.189" width="14.868" height="14.868" transform="translate(29.051 -23.647) rotate(11.81)" fill="#e84572"/>
            <path d="M134.6,138.155a.849.849,0,0,1-.151-.015L119.9,135.1a.736.736,0,0,1-.568-.869l3.043-14.553a.734.734,0,0,1,.868-.569l14.553,3.043a.735.735,0,0,1,.568.87l-3.042,14.552a.735.735,0,0,1-.718.584Zm-13.685-4.345,13.116,2.743,2.742-13.116-13.116-2.744Z" fill="#231815"/>
          </g>
          <g>
            <rect x="134.313" y="128.612" width="14.868" height="14.868" transform="translate(30.844 -26.13) rotate(11.81)" fill="#e84572"/>
            <path d="M147.5,145.8a.95.95,0,0,1-.2-.021l-14.554-3.043a.957.957,0,0,1-.741-1.133l3.043-14.553a.958.958,0,0,1,1.133-.74l14.554,3.042a.958.958,0,0,1,.741,1.133l-3.043,14.554A.959.959,0,0,1,147.5,145.8Zm-13.422-4.741,12.68,2.651,2.651-12.68-12.68-2.651Z" fill="#231815"/>
          </g>
          <g>
            <rect x="148.121" y="126.774" width="14.868" height="14.868" transform="translate(30.76 -28.995) rotate(11.81)" fill="#e84572"/>
            <path d="M161.312,143.74a.791.791,0,0,1-.152-.015l-14.553-3.043a.736.736,0,0,1-.568-.869l3.043-14.553a.734.734,0,0,1,.869-.569l14.553,3.043a.736.736,0,0,1,.568.87l-3.043,14.552A.734.734,0,0,1,161.312,143.74ZM147.626,139.4l13.116,2.743,2.743-13.117-13.116-2.743Z" fill="#231815"/>
          </g>
          <g>
            <rect x="117.556" y="139.623" width="14.868" height="14.868" transform="translate(32.742 -22.468) rotate(11.81)" fill="#e84572"/>
            <path d="M130.745,156.59a.765.765,0,0,1-.15-.016l-14.553-3.043a.734.734,0,0,1-.568-.869l3.042-14.553a.735.735,0,0,1,.869-.568l14.553,3.042a.734.734,0,0,1,.568.869l-3.043,14.554a.733.733,0,0,1-.718.584Zm-13.684-4.346,13.116,2.743,2.742-13.117L119.8,139.128Z" fill="#231815"/>
          </g>
          <g>
            <rect x="130.458" y="147.047" width="14.868" height="14.868" transform="translate(34.535 -24.951) rotate(11.81)" fill="#e84572"/>
            <path d="M143.647,164.014a.765.765,0,0,1-.15-.016l-14.553-3.043a.734.734,0,0,1-.568-.869l3.043-14.554a.736.736,0,0,1,.316-.464.744.744,0,0,1,.553-.1l14.553,3.043a.735.735,0,0,1,.568.869l-3.043,14.554a.735.735,0,0,1-.719.584Zm-13.684-4.346,13.116,2.743,2.743-13.117-13.116-2.743Z" fill="#231815"/>
          </g>
          <g>
            <rect x="144.267" y="145.208" width="14.868" height="14.868" transform="translate(34.451 -27.816) rotate(11.81)" fill="#e84572"/>
            <path d="M157.457,162.175a.767.767,0,0,1-.151-.016l-14.554-3.043a.734.734,0,0,1-.567-.869l3.043-14.554a.732.732,0,0,1,.316-.464.745.745,0,0,1,.552-.1l14.553,3.043a.734.734,0,0,1,.568.869l-3.042,14.554a.735.735,0,0,1-.718.584Zm-13.686-4.346,13.117,2.743,2.742-13.117-13.116-2.743Z" fill="#231815"/>
          </g>
          <g>
            <rect x="130.194" y="113.646" width="21.648" height="38.77" transform="translate(30.211 -26.045) rotate(11.81)" fill="#fff"/>
            <path d="M148.215,155.089l-22.628-4.731,8.235-39.385,22.628,4.73Zm-20.89-5.867,19.753,4.131,7.634-36.513-19.753-4.131Z" fill="#231815"/>
          </g>
        </g>
        <g>
          <g>
            <path d="M160.6,168.326v109.42a6.3,6.3,0,0,1-6.282,6.282H60.767a6.3,6.3,0,0,1-6.282-6.282V168.326" fill="#fff8ee"/>
            <path d="M154.316,285.027H60.767a7.29,7.29,0,0,1-7.282-7.281V168.326a1,1,0,0,1,2,0v109.42a5.288,5.288,0,0,0,5.282,5.281h93.549a5.288,5.288,0,0,0,5.282-5.281V168.326a1,1,0,1,1,2,0v109.42A7.29,7.29,0,0,1,154.316,285.027Z" fill="#231815"/>
          </g>
          <g>
            <rect x="51.359" y="161.46" width="112.365" height="6.866" fill="#fff8ee"/>
            <path d="M163.724,169.326H51.359a1,1,0,0,1-1-1V161.46a1,1,0,0,1,1-1H163.724a1,1,0,0,1,1,1v6.866A1,1,0,0,1,163.724,169.326Zm-111.365-2H162.724V162.46H52.359Z" fill="#231815"/>
          </g>
          <polyline points="149.388 184.265 204.624 234.416 195.045 242.947 135.912 209.485" fill="#e84572"/>
          <path d="M123.587,175.755h6.15s25.33,1.014,25.33,24.306V309.218H60.152V200.061c0-23.292,25.33-24.306,25.33-24.306h38.105Z" fill="#e84572"/>
          <g>
            <path d="M91.633,174.888s-.522,14.463,15.716,14.463,16.238-13.6,16.238-13.6" fill="#f4aeb6"/>
            <path d="M107.349,190.352c-5.394,0-9.611-1.537-12.535-4.568a16.212,16.212,0,0,1-4.18-10.932.96.96,0,0,1,1.033-.962,1,1,0,0,1,.966,1.032,14.4,14.4,0,0,0,3.636,9.489c2.531,2.614,6.259,3.941,11.08,3.941,15.008,0,15.235-12.084,15.238-12.6a1,1,0,0,1,1-1h0a1,1,0,0,1,1,1C124.587,175.9,124.39,190.352,107.349,190.352Z" fill="#231815"/>
          </g>
          <g>
            <polyline points="91.632 175.755 91.632 165.202 123.587 165.202 123.587 175.755" fill="#f4aeb6"/>
            <path d="M123.587,176.755a1,1,0,0,1-1-1V166.2H92.632v9.553a1,1,0,0,1-2,0V165.2a1,1,0,0,1,1-1h31.955a1,1,0,0,1,1,1v10.553A1,1,0,0,1,123.587,176.755Z" fill="#231815"/>
          </g>
          <path d="M107.609,310.218H60.152a1,1,0,0,1-1-1V200.061c0-23.976,26.028-25.294,26.29-25.305h6.19a1,1,0,0,1,0,2h-6.15A34.1,34.1,0,0,0,73.208,180.1c-8,4.02-12.056,10.738-12.056,19.965V308.218h46.457a1,1,0,0,1,0,2Z" fill="#231815"/>
          <path d="M155.067,310.218H107.609a1,1,0,1,1,0-2h46.458v-95.54a1,1,0,0,1,2,0v96.54A1,1,0,0,1,155.067,310.218Z" fill="#231815"/>
          <path d="M146.887,183a.99.99,0,0,1-.62-.216c-7.048-5.578-16.476-6.029-16.571-6.033h-6.109a1,1,0,1,1,0-2h6.15c.451.017,10.2.473,17.771,6.464a1,1,0,0,1-.621,1.784Z" fill="#231815"/>
          <path d="M107.349,190.352c-5.394,0-9.611-1.537-12.535-4.568a16.212,16.212,0,0,1-4.18-10.932.96.96,0,0,1,1.033-.962,1,1,0,0,1,.966,1.032,14.4,14.4,0,0,0,3.636,9.489c2.531,2.614,6.259,3.941,11.08,3.941,15.008,0,15.235-12.084,15.238-12.6a1,1,0,0,1,1-1h0a1,1,0,0,1,1,1C124.587,175.9,124.39,190.352,107.349,190.352Z" fill="#231815"/>
          <path d="M162.6,218.908l35.789,10.683s12.121,5.57,8.845,16.709c-3.8,12.92-19.984,5.569-19.984,5.569l-27.4-14.279" fill="#e84572"/>
          <path d="M196.685,254.955a26.679,26.679,0,0,1-9.844-2.176l-27.45-14.3a1,1,0,0,1,.924-1.774l27.4,14.279c.033.014,8.134,3.618,13.767,1.039a8.962,8.962,0,0,0,4.8-6,11.312,11.312,0,0,0-2.923-11.521,19.753,19.753,0,0,0-5.324-3.97l-35.714-10.662a1,1,0,0,1,.572-1.916l35.789,10.685a.769.769,0,0,1,.131.05c.129.058,12.867,6.066,9.388,17.9a10.874,10.874,0,0,1-5.888,7.259A13.492,13.492,0,0,1,196.685,254.955Z" fill="#231815"/>
          <path d="M202.381,233.207a.991.991,0,0,1-.67-.259l-55.495-50.2a1,1,0,0,1,1.342-1.482l55.5,50.2a1,1,0,0,1-.672,1.741Z" fill="#231815"/>
          <g>
            <path d="M126.252,173.357a357.387,357.387,0,0,0,29.836,83.61v-22.55s-16.757-35.908-20.176-60.713Z" fill="#fff8ee"/>
            <path d="M156.088,257.967a1,1,0,0,1-.89-.546,361.71,361.71,0,0,1-29.927-83.871,1,1,0,0,1,.221-.842.979.979,0,0,1,.8-.35l9.66.347a1,1,0,0,1,.955.862c3.358,24.37,19.925,60.07,20.092,60.427a1.014,1.014,0,0,1,.093.423v22.55a1,1,0,0,1-.766.972A.985.985,0,0,1,156.088,257.967ZM127.493,174.4a363.771,363.771,0,0,0,27.6,78.339v-18.1c-1.344-2.92-16.54-36.3-20.047-59.963Z" fill="#231815"/>
          </g>
          <g>
            <path d="M162.482,231.062l.123-12.154s-8.911-7.651-10.775-9.389c-1.877-1.722-4.126-2.25-4.986-.427-1.012,2.178,4.617,7.829,4.9,8.121l-8.516-.521s-3.808-.308-4.046,2.289c-.206,2.135,2.086,2.984,3.589,3.088-.369.008-3.484.234-3.616,2.541-.126,1.778,1.261,3.159,3.452,3.04,0,0-3.441.555-3.386,2.872.071,2.328.568,2.74,1.925,2.741a5.041,5.041,0,0,0-1.336,1.919,2.339,2.339,0,0,0,2.042,3.247c3.06.522,12.453.7,12.627.7S162.255,238.944,162.482,231.062Z" fill="#f4aeb6"/>
            <path d="M150.639,229.029h-.048l-7.985-.377a4.41,4.41,0,0,1-3.414-1.21,3.7,3.7,0,0,1-1.037-2.9c.153-2.659,3.07-3.435,4.59-3.471a1,1,0,0,1,.048,2c-.026,0-2.556.1-2.642,1.6a1.713,1.713,0,0,0,.468,1.371,2.452,2.452,0,0,0,1.933.612.681.681,0,0,1,.1,0l8.032.379a1,1,0,0,1-.046,2Z" fill="#231815"/>
            <path d="M150.837,223.4H150.8c-.261-.009-6.251-.236-7.919-.334a1.019,1.019,0,0,1-.111.005l-.069,0a5.59,5.59,0,0,1-3.75-1.678,3.3,3.3,0,0,1-.765-2.5c.259-2.83,3.458-3.332,5.122-3.192l8.5.522a1,1,0,0,1-.122,2l-8.515-.523c-.046,0-2.845-.2-2.99,1.383a1.29,1.29,0,0,0,.3,1.023,3.592,3.592,0,0,0,2.26.968,1.085,1.085,0,0,1,.151,0c1.457.09,7.922.335,7.987.338a1,1,0,0,1-.037,2Z" fill="#231815"/>
            <path d="M155.2,240.021c-3.4,0-10.81-.15-12.042-.311-4.653-.606-4.912-3.152-4.808-4.219a3.063,3.063,0,0,1,1.119-2.162,4.354,4.354,0,0,1,3.031-.746,1,1,0,0,1-.253,1.983,2.379,2.379,0,0,0-1.538.332,1.045,1.045,0,0,0-.369.787c-.1,1.075.931,1.762,3.077,2.043,1.2.156,10.82.347,13,.281,1.314-.036,5.066-1.392,5.062-6.946l.118-11.7c-1.695-1.457-8.784-7.556-10.452-9.112a3.813,3.813,0,0,0-2.772-1.277.837.837,0,0,0-.628.546c-.28.6.969,3.152,4.63,6.916a.994.994,0,0,1-.4,1.751,1.04,1.04,0,0,1-.959-.28c-4.228-4.339-5.922-7.429-5.083-9.235a2.827,2.827,0,0,1,2.055-1.661c1.351-.264,3,.38,4.514,1.771,1.834,1.71,10.661,9.291,10.75,9.367a1,1,0,0,1,.349.769l-.123,12.155c0,6.365-4.295,8.861-7.006,8.937C156.18,240.017,155.741,240.021,155.2,240.021Z" fill="#231815"/>
            <path d="M150.535,234.906h-.046c-.066,0-6.656-.3-7.705-.307a4.292,4.292,0,0,1-4.564-4.046c-.06-2.524,2.628-3.631,4.226-3.889a1,1,0,0,1,.321,1.975c-.053.008-2.581.476-2.548,1.86.063,2.072,2.472,2.1,2.574,2.1,1.092.008,7.513.3,7.786.309a1,1,0,0,1-.044,2Z" fill="#231815"/>
          </g>
          <polyline points="66.018 184.265 10.782 234.416 20.361 242.947 79.494 209.485" fill="#e84572"/>
          <path d="M52.8,218.908,17.013,229.591S4.891,235.161,8.167,246.3c3.8,12.92,19.984,5.569,19.984,5.569l27.4-14.279" fill="#e84572"/>
          <path d="M18.718,254.955a13.491,13.491,0,0,1-5.623-1.114,10.87,10.87,0,0,1-5.887-7.259c-3.48-11.832,9.258-17.84,9.387-17.9a.812.812,0,0,1,.132-.05l35.788-10.685a1,1,0,0,1,.572,1.916L17.374,230.527a19.751,19.751,0,0,0-5.325,3.97,11.312,11.312,0,0,0-2.923,11.521,8.962,8.962,0,0,0,4.8,6c5.633,2.582,13.735-1.026,13.816-1.063L55.091,236.7a1,1,0,0,1,.924,1.774l-27.4,14.279A26.709,26.709,0,0,1,18.718,254.955Z" fill="#231815"/>
          <path d="M13.025,233.207a1,1,0,0,1-.671-1.741l55.494-50.2a1,1,0,1,1,1.342,1.482L13.7,232.948A.993.993,0,0,1,13.025,233.207Z" fill="#231815"/>
          <g>
            <path d="M89.154,173.357a357.332,357.332,0,0,1-29.836,83.61v-22.55S76.076,198.509,79.494,173.7Z" fill="#fff8ee"/>
            <path d="M59.318,257.967a1,1,0,0,1-1-1v-22.55a1,1,0,0,1,.094-.423c.167-.357,16.733-36.057,20.092-60.427a1,1,0,0,1,.955-.862l9.659-.347a.912.912,0,0,1,.8.35,1,1,0,0,1,.22.842,361.71,361.71,0,0,1-29.927,83.871A1,1,0,0,1,59.318,257.967Zm1-23.33v18.1a363.716,363.716,0,0,0,27.6-78.339l-7.548.272C76.858,198.337,61.662,231.717,60.318,234.637Z" fill="#231815"/>
          </g>
          <g>
            <path d="M52.924,231.062,52.8,218.908s8.911-7.651,10.776-9.389c1.876-1.722,4.125-2.25,4.986-.427,1.012,2.178-4.618,7.829-4.9,8.121l8.515-.521s3.809-.308,4.046,2.289c.206,2.135-2.086,2.984-3.589,3.088.37.008,3.484.234,3.616,2.541.127,1.778-1.26,3.159-3.452,3.04,0,0,3.441.555,3.386,2.872-.071,2.328-.568,2.74-1.924,2.741a5.041,5.041,0,0,1,1.336,1.919,2.34,2.34,0,0,1-2.043,3.247c-3.06.522-12.452.7-12.626.7S53.152,238.944,52.924,231.062Z" fill="#f4aeb6"/>
            <path d="M64.767,229.029a1,1,0,0,1-.046-2l8.033-.379a.681.681,0,0,1,.1,0,2.474,2.474,0,0,0,1.933-.611,1.707,1.707,0,0,0,.468-1.358c-.087-1.511-2.617-1.614-2.643-1.614a1,1,0,0,1,.024-2h.024c1.521.036,4.438.812,4.591,3.485a3.689,3.689,0,0,1-1.038,2.888,4.4,4.4,0,0,1-3.414,1.21l-7.985.377Z" fill="#231815"/>
            <path d="M64.57,223.4a1,1,0,0,1-.037-2c.065,0,6.529-.248,7.987-.338a1.067,1.067,0,0,1,.15,0,3.6,3.6,0,0,0,2.261-.968,1.288,1.288,0,0,0,.3-1.018c-.145-1.584-2.944-1.392-2.973-1.389l-8.532.524a1,1,0,1,1-.122-2l8.515-.523c1.64-.134,4.844.364,5.1,3.2a3.29,3.29,0,0,1-.766,2.5,5.586,5.586,0,0,1-3.75,1.678.975.975,0,0,1-.121,0l-.058,0c-1.668.1-7.658.325-7.919.334Z" fill="#231815"/>
            <path d="M60.207,240.021c-.541,0-.98,0-1.276-.012-2.712-.076-7.012-2.572-7.007-8.947L51.8,218.917a1,1,0,0,1,.349-.769c.089-.076,8.916-7.657,10.746-9.361,1.521-1.4,3.164-2.042,4.519-1.777a2.821,2.821,0,0,1,2.052,1.655c.841,1.81-.852,4.9-5.03,9.189a1.127,1.127,0,0,1-.978.338,1,1,0,0,1-.389-1.8c3.642-3.769,4.866-6.276,4.586-6.879a.832.832,0,0,0-.626-.54,3.824,3.824,0,0,0-2.777,1.282c-1.664,1.551-8.752,7.65-10.447,9.107l.118,11.691c0,5.564,3.748,6.92,5.062,6.956,2.188.068,11.8-.124,13.005-.281,2.146-.281,3.181-.967,3.076-2.043a1.05,1.05,0,0,0-.369-.788,2.4,2.4,0,0,0-1.537-.331,1,1,0,0,1-.253-1.983,4.352,4.352,0,0,1,3.03.746,3.06,3.06,0,0,1,1.12,2.162c.1,1.067-.156,3.613-4.808,4.219C71.018,239.871,63.6,240.021,60.207,240.021Z" fill="#231815"/>
            <path d="M64.872,234.906a1,1,0,0,1-.044-2c.273-.012,6.693-.3,7.778-.309.11,0,2.519-.028,2.582-2.107.032-1.376-2.52-1.849-2.546-1.853a1,1,0,0,1,.318-1.975c1.6.258,4.287,1.365,4.227,3.882a4.3,4.3,0,0,1-4.571,4.053c-1.042.008-7.632.3-7.7.307Z" fill="#231815"/>
          </g>
        </g>
        <g>
          <path d="M116.823,226.592l-19.395.974a7.635,7.635,0,0,0-1.44.625,2.04,2.04,0,0,1-1.011.333,4.563,4.563,0,0,1-2.577-1.063,2.974,2.974,0,0,1-1.449-2.362,3.6,3.6,0,0,1,1.092-2.29,17.667,17.667,0,0,1,3.381-2.6,1.754,1.754,0,0,0,.778.739,2.93,2.93,0,0,0,1.262.236l18.876-.975a6.691,6.691,0,0,0,1.047-.4,6.166,6.166,0,0,0,.9-.527,19.7,19.7,0,0,1,4.831,2.566,3.077,3.077,0,0,1,.456,5.162,3.785,3.785,0,0,1-2.656,1.121,6.7,6.7,0,0,1-2.13-.666Q117.593,226.9,116.823,226.592Zm-1.574-16.025-15.978.829a5.244,5.244,0,0,1-3.175-.618,2.218,2.218,0,0,1-1.119-1.932,2.154,2.154,0,0,1,.457-1.218q.454-.649,1.189-1.542.3-.342.635-.738t.689-.869a1.037,1.037,0,0,0,.492.519,1.874,1.874,0,0,0,.8.147l12.6-.731a7.232,7.232,0,0,0,1.432-.325,3.982,3.982,0,0,0,1.18-.633,27.271,27.271,0,0,1,4.169,2.159,2.75,2.75,0,0,1,1.467,2.159,2.255,2.255,0,0,1-1.252,1.965A7.391,7.391,0,0,1,115.249,210.567Z" fill="#121659"/>
          <path d="M95.46,255.022v-9.936a9.873,9.873,0,0,1-1.772,2.095,2.335,2.335,0,0,1-1.341.666,1.266,1.266,0,0,1-.957-.431,1.675,1.675,0,0,1-.4-1.193,12.945,12.945,0,0,1,.429-2.5,35.232,35.232,0,0,0,.7-3.524,9.619,9.619,0,0,0,2.38-2.095,28.8,28.8,0,0,0,2.9-4.026l.232-.5a.268.268,0,0,0-.116-.195,3.032,3.032,0,0,0-.26-.194,9.21,9.21,0,0,1,2.236-1.1,7.551,7.551,0,0,1,2.345-.365,2.523,2.523,0,0,1,1.78.559,2.124,2.124,0,0,1,.6,1.632,5.84,5.84,0,0,1-.626,2.355,20.735,20.735,0,0,1-1.789,3.036V257.3a8.1,8.1,0,0,1-.877,3.653,2.462,2.462,0,0,1-2.2,1.2,3.046,3.046,0,0,1-2.273-1.1,14.421,14.421,0,0,1-2.165-3.263,3.688,3.688,0,0,0,.886-1.234A3.815,3.815,0,0,0,95.46,255.022Zm13.777-15.683L109,236.514a2.418,2.418,0,0,0-.358-1.258,1.874,1.874,0,0,0-1.019-.707c.143-.108.3-.225.456-.349s.313-.252.456-.382q1.359-1.038,2.29-1.672a3.229,3.229,0,0,1,1.808-.633,4.12,4.12,0,0,1,2.567.869,2.444,2.444,0,0,1,1.136,1.924,1.555,1.555,0,0,1-.259.868,4,4,0,0,1-.725.8l.108,2.695,3.524-.373.77-.39a16.81,16.81,0,0,0-1.217-2.273,4.185,4.185,0,0,0-1.36-1.3,6.1,6.1,0,0,1,1.745-1.559,4.1,4.1,0,0,1,2.066-.535,3.816,3.816,0,0,1,2.711,1.071,3.406,3.406,0,0,1,1.136,2.566,2.147,2.147,0,0,1-.68,1.672,3.863,3.863,0,0,1-2.094.811,9.244,9.244,0,0,1,2.112,2.266,4.133,4.133,0,0,1,.7,2.167,2.724,2.724,0,0,1-.823,2,2.591,2.591,0,0,1-1.879.82,3.009,3.009,0,0,1-1.342-.316,5.309,5.309,0,0,1-1.307-.951l-3.47.358a19.7,19.7,0,0,0,1.092,4.66,5.977,5.977,0,0,0,1.43,2.224,6.96,6.96,0,0,0,1.226.918,2.012,2.012,0,0,0,.9.316q.251.033.527-.35a11.241,11.241,0,0,0,.671-1.079c.132-.216.275-.46.43-.73s.346-.568.572-.894l1.128.423q-.323,1.168-.519,1.9a8.924,8.924,0,0,0-.143,1.428,4.456,4.456,0,0,0,.93,2.4,3.2,3.2,0,0,1,.716,1.558,3.328,3.328,0,0,1-1.091,2.541,3.891,3.891,0,0,1-2.756,1.015q-3.848,0-7.175-4.091a20.958,20.958,0,0,1-4.33-11.544l-2.737.309a5.665,5.665,0,0,1-3.149-.764,2.16,2.16,0,0,1-1.145-1.867,3.541,3.541,0,0,1,.662-1.429A33.087,33.087,0,0,1,105.426,239a.831.831,0,0,0,.348.422,1.757,1.757,0,0,0,.6.211Z" fill="#121659"/>
          <path d="M115.177,292.17l-14.475.374a3.244,3.244,0,0,1-.93,2.061,2.33,2.33,0,0,1-1.61.8,3.3,3.3,0,0,1-2.38-1.3,10.767,10.767,0,0,1-2.165-3.929,2.78,2.78,0,0,0,.376-.779,4.288,4.288,0,0,0,.179-.975V270.593a2.356,2.356,0,0,0-.314-.9,2.292,2.292,0,0,0-.706-.706,13.41,13.41,0,0,1,2.63-3.149,3.568,3.568,0,0,1,2.273-1.072,2.016,2.016,0,0,1,1.135.365,2.827,2.827,0,0,1,.922,1.112l13.849-.4a2.863,2.863,0,0,0,1.278-.447,2.369,2.369,0,0,0,.815-1.047,28.715,28.715,0,0,1,5.046,1.786q1.7.909,1.7,1.8a1.443,1.443,0,0,1-.224.771,3.764,3.764,0,0,1-.635.755v23.186a1.452,1.452,0,0,1-.913,1.655,7.947,7.947,0,0,1-3.434.568,3.4,3.4,0,0,1-1.915-.414,1.326,1.326,0,0,1-.5-1.323Zm-14.636-20.619v1.737l14.636-.406V271.1Zm0,6.526v1.884l14.636-.39v-1.965Zm0,6.982v1.851l14.636-.389v-1.9Z" fill="#121659"/>
        </g>
        <g>
          <g>
            <path d="M60.3,99.526s-10.462-.8-10.462,9.343,12.292,9.255,12.292,9.255" fill="#f4aeb6"/>
            <path d="M155.227,99.526s10.462-.8,10.462,9.343-12.292,9.255-12.292,9.255" fill="#f4aeb6"/>
            <g>
              <path d="M107.752,37.628s54.311-4.611,46.72,75.078c0,0,.366,35.964-31.645,55.339H92.677c-30.2-19.158-31.645-55.339-31.645-55.339-7.59-79.689,46.72-75.078,46.72-75.078" fill="#f4aeb6"/>
              <path d="M107.832,155.484s-7.481,6.983-11.863,8.011-7.311,2.018-5.844,3.119,3.058,1.712,8.807,1.712h20.549s4.428-.451,5.394-1.571,3.321-1.364-.746-2.71S112.206,160.175,107.832,155.484Z" fill="#121659"/>
              <path d="M122.827,169.045H92.677a1,1,0,0,1-.536-.155c-30.292-19.217-32.094-55.777-32.108-56.144-2.774-29.1,2.312-50.439,15.117-63.377a43.952,43.952,0,0,1,32.6-12.744,43.934,43.934,0,0,1,32.6,12.744c12.8,12.931,17.885,34.257,15.119,63.385-.008,1.665-.6,37.065-32.128,56.146A1,1,0,0,1,122.827,169.045Zm-29.859-2h29.579c30.891-18.877,30.929-53.976,30.926-54.329a.921.921,0,0,1,0-.1c2.718-28.534-2.176-49.339-14.544-61.835-13.352-13.489-30.92-12.167-31.1-12.152a.726.726,0,0,1-.168,0c-.175-.014-17.791-1.313-31.12,12.176C64.2,63.3,59.311,84.1,62.027,112.611,62.045,113.021,63.811,148.36,92.968,167.045Z" fill="#231815"/>
              <g>
                <polyline points="71.789 79.415 60.553 100.433 58.057 99.309 58.948 76.141" fill="#121659"/>
                <path d="M60.552,101.37a.932.932,0,0,1-.384-.083l-2.5-1.124a.937.937,0,0,1-.551-.891l.891-23.167a.926.926,0,0,1,.972-.9.937.937,0,0,1,.9.973l-.866,22.536,1.121.5L70.963,78.974a.936.936,0,1,1,1.652.882L61.379,100.874A.938.938,0,0,1,60.552,101.37Z" fill="#231815"/>
              </g>
              <g>
                <polyline points="143.665 79.415 154.902 100.433 157.398 99.309 156.507 76.141" fill="#121659"/>
                <path d="M154.9,101.37a.938.938,0,0,1-.827-.5L142.839,79.856a.937.937,0,0,1,1.653-.882l10.823,20.245,1.122-.5-.866-22.536a.937.937,0,1,1,1.872-.073l.89,23.167a.937.937,0,0,1-.551.891l-2.5,1.124A.932.932,0,0,1,154.9,101.37Z" fill="#231815"/>
              </g>
              <path d="M122.533,104.779a5.476,5.476,0,1,0,5.47-5.47A5.462,5.462,0,0,0,122.533,104.779Zm5.395,10.92a10.923,10.923,0,1,1,10.94-10.92A10.92,10.92,0,0,1,127.928,115.7Z" fill="#fff8ee"/>
              <path d="M122.533,104.779a5.476,5.476,0,1,1,5.47,5.46A5.464,5.464,0,0,1,122.533,104.779Zm7.349,0a1.874,1.874,0,1,0-3.747,0,1.874,1.874,0,0,0,3.747,0Z" fill="#97d2ce"/>
              <path d="M128,102.9a1.874,1.874,0,1,1,0,3.747,1.874,1.874,0,0,1,0-3.747Z" fill="#231815"/>
              <path d="M85.68,104.779a1.874,1.874,0,1,1,1.868,1.868A1.869,1.869,0,0,1,85.68,104.779Z" fill="#231815"/>
              <path d="M86.64,110.239a5.465,5.465,0,1,0-5.48-5.46A5.456,5.456,0,0,0,86.64,110.239Zm.833,5.46a10.93,10.93,0,1,1,10.919-10.92A10.929,10.929,0,0,1,87.473,115.7Z" fill="#fff8ee"/>
              <path d="M82.068,104.779a5.475,5.475,0,1,1,5.48,5.46A5.473,5.473,0,0,1,82.068,104.779Zm7.359,0a1.874,1.874,0,1,0-3.747,0,1.874,1.874,0,0,0,3.747,0Z" fill="#97d2ce"/>
              <path d="M87.473,116.7a11.93,11.93,0,1,1,11.92-11.92A11.939,11.939,0,0,1,87.473,116.7Zm0-21.86a9.93,9.93,0,1,0,9.92,9.94A9.963,9.963,0,0,0,87.473,94.839Z" fill="#231815"/>
              <path d="M87.548,111.239a6.465,6.465,0,1,1,6.471-6.46A6.478,6.478,0,0,1,87.548,111.239Zm0-10.93a4.465,4.465,0,1,0,4.471,4.47A4.481,4.481,0,0,0,87.548,100.309Z" fill="#231815"/>
              <path d="M84.182,95.077a1,1,0,0,1-.947-.678l-1.349-3.964a1,1,0,0,1,1.894-.645l1.349,3.965a1,1,0,0,1-.625,1.268A.955.955,0,0,1,84.182,95.077Z" fill="#231815"/>
              <path d="M79.593,98.215a.985.985,0,0,1-.771-.369L75.614,94.7a1,1,0,1,1,1.4-1.427l3.28,3.217a.986.986,0,0,1,.2.267,1.007,1.007,0,0,1-.9,1.46Z" fill="#231815"/>
              <path d="M91.625,95.492a.979.979,0,0,1-.322-.053,1,1,0,0,1-.625-1.268L92.027,90.2a1,1,0,1,1,1.894.643l-1.35,3.975A1,1,0,0,1,91.625,95.492Z" fill="#231815"/>
              <path d="M96.192,98.627a1,1,0,0,1-.7-1.713l3.3-3.249a1,1,0,1,1,1.4,1.426l-3.3,3.249A1,1,0,0,1,96.192,98.627Z" fill="#231815"/>
              <path d="M127.928,116.7a11.923,11.923,0,1,1,11.94-11.92A11.933,11.933,0,0,1,127.928,116.7Zm0-21.86A9.946,9.946,0,1,0,135.1,97.9,9.941,9.941,0,0,0,127.928,94.839Z" fill="#231815"/>
              <path d="M128,111.239a6.465,6.465,0,1,1,6.481-6.46A6.472,6.472,0,0,1,128,111.239Zm0-10.93a4.465,4.465,0,1,0,4.481,4.47A4.475,4.475,0,0,0,128,100.309Z" fill="#231815"/>
              <path d="M131.229,95.077a.961.961,0,0,1-.323-.054,1,1,0,0,1-.624-1.268l1.349-3.965a1,1,0,0,1,1.894.645l-1.35,3.964A1,1,0,0,1,131.229,95.077Z" fill="#231815"/>
              <path d="M135.8,98.207a.995.995,0,0,1-.712-1.691l3.307-3.245a1,1,0,1,1,1.4,1.427l-3.28,3.218A1.024,1.024,0,0,1,135.8,98.207Z" fill="#231815"/>
              <path d="M123.786,95.492a1,1,0,0,1-.947-.679l-1.349-3.975a1,1,0,1,1,1.893-.643l1.35,3.976a1,1,0,0,1-.626,1.268A.969.969,0,0,1,123.786,95.492Z" fill="#231815"/>
              <path d="M119.208,98.627a1,1,0,0,1-.7-.288l-3.291-3.249a1,1,0,0,1,1.406-1.424l3.29,3.249a1,1,0,0,1-.7,1.712Z" fill="#231815"/>
            </g>
            <path d="M107.752,127.886a6.145,6.145,0,0,1-4.965-2.541,5.926,5.926,0,0,1-1.1-5.091c.7-2.3,4.44-12.473,5.06-14.156a.991.991,0,0,1,.172-.446,1.05,1.05,0,0,1,1.654,0,1.032,1.032,0,0,1,.173.412c.581,1.577,4.371,11.874,5.073,14.19a5.929,5.929,0,0,1-1.1,5.091A6.145,6.145,0,0,1,107.752,127.886Zm0-18.725c-1.33,3.632-3.639,9.981-4.152,11.673a4.024,4.024,0,0,0,.794,3.32,4.121,4.121,0,0,0,6.716,0,4.024,4.024,0,0,0,.794-3.32C111.391,119.142,109.082,112.793,107.752,109.161Z" fill="#231815"/>
            <path d="M60.8,119.146c-1.785,0-6.131-.305-9.085-3.042a9.425,9.425,0,0,1-2.875-7.235,9.851,9.851,0,0,1,2.93-7.571c3.38-3.131,8.4-2.784,8.609-2.769a1,1,0,0,1-.152,1.994c-.04,0-4.377-.287-7.107,2.25a7.95,7.95,0,0,0-2.28,6.1,7.512,7.512,0,0,0,2.228,5.762c3.068,2.85,8.332,2.5,8.386,2.5a1,1,0,0,1,.15,1.994C61.555,119.125,61.264,119.146,60.8,119.146Z" fill="#231815"/>
            <path d="M60.678,109.43H55.589a1,1,0,0,1,0-2h5.089a1,1,0,0,1,0,2Z" fill="#231815"/>
            <path d="M154.729,119.146c-.462,0-.752-.021-.8-.025a1,1,0,0,1,.151-1.994c.052,0,5.317.354,8.385-2.5a7.512,7.512,0,0,0,2.228-5.762,7.953,7.953,0,0,0-2.279-6.1c-2.73-2.538-7.067-2.25-7.108-2.25a1,1,0,0,1-.152-1.994c.214-.014,5.23-.362,8.609,2.769a9.851,9.851,0,0,1,2.93,7.571,9.421,9.421,0,0,1-2.875,7.235C160.86,118.841,156.515,119.146,154.729,119.146Z" fill="#231815"/>
            <path d="M159.942,109.43h-5.088a1,1,0,1,1,0-2h5.088a1,1,0,0,1,0,2Z" fill="#231815"/>
          </g>
          <g>
            <path d="M137.5,144.011a3.043,3.043,0,0,0,2.93-3.637c-.427-1.408-2.938-8.214-2.938-8.214h.015s-2.511,6.806-2.938,8.214A3.043,3.043,0,0,0,137.5,144.011Z" fill="#97d2ce"/>
            <path d="M137.5,145.012a3.948,3.948,0,0,1-3.191-1.63,3.833,3.833,0,0,1-.7-3.3c.4-1.312,2.5-7.028,2.9-8.1a.986.986,0,0,1,.164-.39,1.044,1.044,0,0,1,1.648,0,1.025,1.025,0,0,1,.16.361c.367,1,2.5,6.808,2.907,8.134a3.833,3.833,0,0,1-.7,3.3A3.948,3.948,0,0,1,137.5,145.012Zm0-9.925c-.756,2.074-1.729,4.768-1.974,5.577a1.9,1.9,0,0,0,.389,1.526,1.937,1.937,0,0,0,3.168,0,1.9,1.9,0,0,0,.39-1.526C139.223,139.855,138.25,137.161,137.5,135.087Z" fill="#231815"/>
          </g>
          <g>
            <path d="M74.462,136.579a3.043,3.043,0,0,0,2.931-3.637c-.427-1.408-2.939-8.214-2.939-8.214h.016s-2.511,6.806-2.939,8.214A3.043,3.043,0,0,0,74.462,136.579Z" fill="#97d2ce"/>
            <path d="M74.462,137.579a3.951,3.951,0,0,1-3.191-1.63,3.831,3.831,0,0,1-.7-3.3c.4-1.312,2.5-7.028,2.9-8.1a1,1,0,0,1,.163-.391,1.009,1.009,0,0,1,1.809.362c.367,1,2.5,6.807,2.907,8.133a3.83,3.83,0,0,1-.7,3.3A3.945,3.945,0,0,1,74.462,137.579Zm0-9.925c-.755,2.075-1.728,4.769-1.973,5.577a1.9,1.9,0,0,0,.389,1.527,1.939,1.939,0,0,0,3.168,0,1.9,1.9,0,0,0,.39-1.527C76.191,132.423,75.218,129.729,74.462,127.654Z" fill="#231815"/>
          </g>
          <path d="M107.484,145.357v5.158a23.546,23.546,0,0,1-6.395-.834v-4.324Z" fill="#fff"/>
          <path d="M101.089,145.357v4.324a17.428,17.428,0,0,1-7.646-4.324Z" fill="#fff"/>
          <path d="M113.879,145.357h7.66a17.347,17.347,0,0,1-7.66,4.324Z" fill="#fff"/>
          <path d="M113.879,145.357v4.324a23.44,23.44,0,0,1-6.381.834h-.014v-5.158Z" fill="#fff"/>
          <rect x="94.694" y="132.483" width="6.395" height="5.269" fill="#fff"/>
          <rect x="101.089" y="132.483" width="6.395" height="5.269" fill="#fff"/>
          <path d="M94.694,132.483v5.269H89.4a6.133,6.133,0,0,1,0-1.015,4.654,4.654,0,0,1,4.421-4.254Z" fill="#fff"/>
          <rect x="113.879" y="132.483" width="6.409" height="5.269" fill="#fff"/>
          <rect x="107.484" y="132.483" width="6.395" height="5.269" fill="#fff"/>
          <path d="M125.571,136.737a6.133,6.133,0,0,1,0,1.015h-5.283v-5.269h.876A4.635,4.635,0,0,1,125.571,136.737Z" fill="#fff"/>
          <path d="M120.288,137.752h5.283a12.957,12.957,0,0,1-4.032,7.6h-28.1a12.989,12.989,0,0,1-4.046-7.6h30.891Z" fill="#e84572"/>
          <path d="M107.5,151.515h-.014a24.636,24.636,0,0,1-6.666-.871,18.351,18.351,0,0,1-8.077-4.575,13.957,13.957,0,0,1-4.34-8.225,7.247,7.247,0,0,1,0-1.2,5.588,5.588,0,0,1,5.379-5.162h27.384a5.574,5.574,0,0,1,5.4,5.16,7.1,7.1,0,0,1,0,1.186,13.97,13.97,0,0,1-4.329,8.242,18.249,18.249,0,0,1-8.091,4.573A24.554,24.554,0,0,1,107.5,151.515Zm-13.68-18.032a3.594,3.594,0,0,0-3.426,3.352,5.236,5.236,0,0,0,0,.84,11.982,11.982,0,0,0,3.746,6.965,16.391,16.391,0,0,0,7.217,4.078,22.653,22.653,0,0,0,6.127.8h.014a22.558,22.558,0,0,0,6.11-.8,16.285,16.285,0,0,0,7.227-4.072,11.916,11.916,0,0,0,3.74-6.979,5.1,5.1,0,0,0,0-.839,3.58,3.58,0,0,0-3.454-3.346Z" fill="#231815"/>
          <path d="M125.6,138.752H89.4a1.006,1.006,0,0,1-1.007-1,.994.994,0,0,1,.993-1h36.188a1.011,1.011,0,0,1,1.014,1A.988.988,0,0,1,125.6,138.752Z" fill="#231815"/>
          <path d="M107.484,138.752a1,1,0,0,1-1-1v-5.269a1,1,0,0,1,2,0v5.269A1,1,0,0,1,107.484,138.752Z" fill="#231815"/>
          <path d="M101.089,138.752a1,1,0,0,1-1-1v-5.269a1,1,0,0,1,2,0v5.269A1,1,0,0,1,101.089,138.752Z" fill="#231815"/>
          <path d="M94.694,138.752a1,1,0,0,1-1-1v-5.269a1,1,0,0,1,2,0v5.269A1,1,0,0,1,94.694,138.752Z" fill="#231815"/>
          <path d="M113.879,138.752a1,1,0,0,1-1-1v-5.269a1,1,0,0,1,2,0v5.269A1,1,0,0,1,113.879,138.752Z" fill="#231815"/>
          <path d="M107.484,151.515a1,1,0,0,1-1-1v-5.159a1,1,0,0,1,2,0v5.159A1,1,0,0,1,107.484,151.515Z" fill="#231815"/>
          <path d="M101.089,150.681a1,1,0,0,1-1-1v-4.325a1,1,0,0,1,2,0v4.325A1,1,0,0,1,101.089,150.681Z" fill="#231815"/>
          <path d="M113.879,150.681a1,1,0,0,1-1-1v-4.325a1,1,0,0,1,2,0v4.325A1,1,0,0,1,113.879,150.681Z" fill="#231815"/>
          <path d="M120.288,138.752a1,1,0,0,1-1-1v-5.269a1,1,0,0,1,2,0v5.269A1,1,0,0,1,120.288,138.752Z" fill="#231815"/>
          <path d="M121.54,146.356h-28.1a1,1,0,0,1,0-2h28.1a1,1,0,1,1,0,2Z" fill="#231815"/>
          <path d="M126.392,83.109a1,1,0,0,1-1-1c0-.214-.04-5.27-3.491-5.27s-3.477,5.056-3.477,5.27a1,1,0,1,1-2,0c0-2.7,1.154-7.27,5.477-7.27s5.491,4.57,5.491,7.27A1,1,0,0,1,126.392,83.109Z" fill="#231815"/>
          <path d="M96.084,83.109a1,1,0,0,1-1-1c0-.214-.04-5.27-3.49-5.27s-3.477,5.056-3.477,5.27a1,1,0,0,1-2,0c0-2.7,1.154-7.27,5.477-7.27s5.49,4.57,5.49,7.27A1,1,0,0,1,96.084,83.109Z" fill="#231815"/>
          <g>
            <path d="M66.43,79.4H35.451s1.284-14.784,34.4-14.784" fill="#121659"/>
            <path d="M66.431,80.332H35.451a.938.938,0,0,1-.933-1.018c.055-.638,1.744-15.638,35.333-15.638a.937.937,0,1,1,0,1.873c-26.568,0-32.1,9.69-33.2,12.91H66.431a.937.937,0,1,1,0,1.873Z" fill="#231815"/>
          </g>
          <g>
            <path d="M55.589,79.4H159.858s7.76-59.319-52.96-59.319C50.742,20.077,55.589,79.4,55.589,79.4Z" fill="#e84572"/>
            <path d="M159.857,80.4H55.589a1,1,0,0,1-1-.919c-.092-1.136-2.086-28.025,14.2-45.7,8.99-9.755,21.809-14.7,38.1-14.7,18.363,0,32.393,5.377,41.7,15.982,15.545,17.712,12.392,43.382,12.25,44.466A1,1,0,0,1,159.857,80.4Zm-103.321-2H158.954c.4-4.641,1.52-26.786-11.868-42.029-8.911-10.145-22.433-15.29-40.188-15.29-15.711,0-28.036,4.729-36.631,14.055C56.21,50.385,56.339,73.522,56.536,78.4Z" fill="#231815"/>
          </g>
          <path d="M97.632,71.3s-13.2,1.09-10.783-2.382S92.8,57.539,107.292,57.763s18.084,8.649,18.084,8.649,5.5,4.892-.337,4.892Z" fill="#121659"/>
          <path d="M129.593,80.5a1,1,0,0,1-1-1,26.548,26.548,0,0,0-2.415-10.079c-3.129-6.587-8.674-10.067-16.483-10.346-8.159-.285-14.433,1.691-18.628,5.889-5.9,5.9-5.66,14.311-5.656,14.395a1,1,0,0,1-.962,1.038,1.018,1.018,0,0,1-1.037-.96c-.015-.378-.289-9.332,6.223-15.869,4.6-4.619,11.379-6.8,20.131-6.491,20.589.734,20.827,22.205,20.827,22.422a1,1,0,0,1-1,1Z" fill="#231815"/>
          <path d="M127.969,72.305H85.9a1,1,0,1,1,0-2h42.072a1,1,0,0,1,0,2Z" fill="#231815"/>
          <g>
            <path d="M141.13,83.318a3.043,3.043,0,0,0,2.93-3.638c-.427-1.408-2.938-8.214-2.938-8.214h.015s-2.511,6.806-2.938,8.214A3.044,3.044,0,0,0,141.13,83.318Z" fill="#97d2ce"/>
            <path d="M141.13,84.317a3.947,3.947,0,0,1-3.191-1.629,3.832,3.832,0,0,1-.7-3.3c.4-1.315,2.5-7.039,2.9-8.108a1,1,0,0,1,.163-.388,1.045,1.045,0,0,1,1.648,0,1.021,1.021,0,0,1,.16.36c.364.988,2.5,6.808,2.908,8.135a3.834,3.834,0,0,1-.7,3.3A3.945,3.945,0,0,1,141.13,84.317Zm0-9.923c-.756,2.074-1.729,4.768-1.974,5.578a1.9,1.9,0,0,0,.389,1.524,1.94,1.94,0,0,0,3.169,0,1.9,1.9,0,0,0,.39-1.525C142.858,79.162,141.886,76.467,141.13,74.394Z" fill="#231815"/>
          </g>
          <path d="M126.727,165.922a.894.894,0,0,1-.216-.027,47.191,47.191,0,0,1-18.638-9.22,33.153,33.153,0,0,1-19.137,9.244.857.857,0,0,1-.14-1.709,31.925,31.925,0,0,0,18.611-9.314.863.863,0,0,1,.605-.27.914.914,0,0,1,.618.243c.064.063,6.559,6.275,18.511,9.365a.858.858,0,0,1-.214,1.688Z" fill="#231815"/>
        </g>
      </g>
    </g>
  </g>
</svg>
