<svg xmlns="http://www.w3.org/2000/svg" width="452.253" height="309.923" viewBox="0 0 452.253 309.923">
  <g id="レイヤー_2" data-name="レイヤー 2">
    <g id="レイヤー_1-2" data-name="レイヤー 1">
      <g>
        <g>
          <rect x="70.509" y="144.393" width="27.157" height="19.51" transform="translate(168.176 308.295) rotate(-180)" fill="#121659"/>
          <g>
            <g>
              <path d="M80.617,160.615S76.347,144.9,66.6,143.592s-7.872,7.67-15.729,6.922-11.785-6.173-18.894.187-2.057,8.979-8.231,16.649-11.036,10.1-10.1,19.267,6.36,11.785,10.476,9.54,5.113-12.346,7.3-14.778c2.849-3.175,4.3-2.057,11.785-3.928s5.425-10.822,8.231-13.548,5.555,3.072,12.289-3.288" fill="#121659"/>
              <path d="M21.251,197.912a6.651,6.651,0,0,1-3.114-.777c-3.012-1.587-4.961-5.286-5.484-10.416-.772-7.557,2.261-10.906,6.457-15.543,1.17-1.293,2.5-2.759,3.86-4.453a14.585,14.585,0,0,0,3.5-7.97c.434-2.681.844-5.216,4.848-8.8,5.281-4.723,9.2-3.4,13.343-1.994a27.016,27.016,0,0,0,6.312,1.558c3.176.295,4.416-1.14,5.989-2.963,1.908-2.213,4.073-4.721,9.779-3.955,10.284,1.382,14.664,17.085,14.846,17.753a1,1,0,0,1-1.93.524c-.041-.15-4.213-15.09-13.182-16.295-4.64-.625-6.193,1.185-8,3.279-1.636,1.9-3.51,4.054-7.692,3.647a29.034,29.034,0,0,1-6.765-1.653c-4.039-1.368-6.958-2.355-11.367,1.59-3.477,3.11-3.8,5.1-4.208,7.627a16.483,16.483,0,0,1-3.91,8.9c-1.4,1.739-2.748,3.228-3.937,4.541-4.134,4.569-6.631,7.326-5.949,14,.446,4.378,2.06,7.6,4.426,8.849a4.7,4.7,0,0,0,4.576-.085c2.149-1.173,3.476-5.372,4.542-8.745.8-2.527,1.488-4.711,2.488-5.824,2.14-2.385,3.739-2.64,6.642-3.106,1.427-.229,3.2-.514,5.644-1.123,4.191-1.048,4.953-4.613,5.688-8.059.444-2.081.864-4.047,2.089-5.237,1.5-1.458,3.076-1.093,4.47-.773,1.94.448,4.144.956,7.83-2.524a1,1,0,0,1,1.373,1.453c-4.462,4.214-7.462,3.523-9.653,3.021-1.355-.313-1.935-.415-2.626.256-.79.768-1.148,2.446-1.527,4.221-.783,3.667-1.758,8.231-7.159,9.581-2.525.632-4.348.924-5.813,1.158-2.844.456-3.8.611-5.469,2.468-.711.792-1.4,2.978-2.07,5.091-1.235,3.909-2.635,8.339-5.492,9.9A6.985,6.985,0,0,1,21.251,197.912Z" fill="#231815"/>
            </g>
            <path d="M24.475,178.077a1,1,0,0,1-.379-1.925c4.642-1.9,6.963-4.516,10.348-11.662,3.341-7.054,8.517-10.388,14.211-9.155,5.349,1.164,7.551-.026,9.879-1.283a14.281,14.281,0,0,1,4.311-1.715,6.588,6.588,0,0,1,5.362,1.074c3.061,2.277,3.577,6.905,3.6,7.1a1,1,0,0,1-1.988.209c0-.04-.452-3.964-2.808-5.709a4.586,4.586,0,0,0-3.787-.71,12.466,12.466,0,0,0-3.736,1.51c-2.428,1.312-5.177,2.8-11.255,1.478-4.774-1.046-9.026,1.824-11.978,8.055-3.6,7.6-6.261,10.556-11.4,12.658A.991.991,0,0,1,24.475,178.077Z" fill="#231815"/>
            <g>
              <path d="M78,134.426s-8.081-10.1-13.86-8.6-8.96,8.231-14.385,6.173-8.979-8.605-16.087-5.425-7.67,10.476-14.03,10.1-17.21.935-18.519,10.663,8.792,12.346,14.029,7.856,11.037-8.6,20.391-5.612S47.694,146.7,52,143.462s8.418,4.62,15.339,3.872,17.016,7.295,17.3,14.029" fill="#121659"/>
              <path d="M84.634,162.364a1,1,0,0,1-1-.958c-.113-2.677-2.073-5.9-5.244-8.63-3.533-3.039-7.829-4.782-10.949-4.449-3.644.4-6.6-1.386-8.969-2.821-2.668-1.613-4.256-2.467-5.876-1.246a28.949,28.949,0,0,0-2.522,2.23c-3.24,3.083-6.912,6.582-14.846,4.041-8.814-2.82-14.225.953-19.436,5.418a10.149,10.149,0,0,1-11.245,1.207C1.135,155.3-.478,151.671.124,147.2c.4-2.95,2.968-12.507,19.569-11.526,2.973.178,4.441-1.581,6.451-4.015,1.733-2.1,3.7-4.473,7.111-6,5.346-2.393,9.01.271,12.244,2.619a20.54,20.54,0,0,0,4.607,2.785c2.561.971,4.449-.332,7.32-2.54a18.428,18.428,0,0,1,6.459-3.666c6.339-1.644,14.545,8.514,14.892,8.947a1,1,0,0,1-1.562,1.25c-2.137-2.668-8.605-9.343-12.828-8.262a16.657,16.657,0,0,0-5.742,3.316c-2.71,2.085-5.513,4.243-9.248,2.824a22.315,22.315,0,0,1-5.074-3.036c-3.2-2.322-5.956-4.332-10.251-2.41-2.988,1.337-4.716,3.427-6.386,5.449-2.114,2.558-4.119,4.974-8.11,4.737-3.76-.213-16.128-.168-17.47,9.8-.664,4.933,1.845,7.087,3.4,7.933a8.223,8.223,0,0,0,8.989-.968c5.43-4.656,11.554-8.94,21.345-5.806,6.807,2.176,9.746-.622,12.858-3.585a31.138,31.138,0,0,1,2.7-2.379c2.783-2.093,5.493-.453,8.114,1.133,2.33,1.408,4.738,2.857,7.719,2.544,3.7-.4,8.476,1.485,12.469,4.921,3.635,3.127,5.8,6.794,5.937,10.062a1,1,0,0,1-.957,1.041Z" fill="#231815"/>
            </g>
            <path d="M20.76,144.526c-.143,0-.284,0-.424-.01a1,1,0,0,1-.953-1.045.99.99,0,0,1,1.045-.953c2.7.122,6.617-1.314,11.6-4.275,5.848-3.474,11.883-2.544,16.73-1.8l1.137.172c4.111.613,7.253-.232,11.606-1.4.77-.206,1.577-.422,2.432-.642,6.168-1.587,17.3,5.252,17.77,5.545a1,1,0,0,1-1.054,1.7c-3.007-1.861-11.788-6.441-16.218-5.306-.849.218-1.649.431-2.413.636-4.586,1.226-7.9,2.112-12.416,1.443l-1.148-.175c-4.769-.734-10.171-1.566-15.4,1.541C27.888,143.029,23.86,144.526,20.76,144.526Z" fill="#231815"/>
            <g>
              <path d="M90.561,120.019s3.64-12.413-.9-16.289-11.882-2.619-13.308-8.243S78.252,83.2,71.57,79.2s-12.98-.275-16.321-5.7S44.612,59.937,35.892,64.444s-5.071,14.283,1.611,16S50.882,84.548,53.8,93.927s9.333,8.308,14.452,9.976,1.044,9.546,5.626,14.787,14.5,15.65,9.146,19.746" fill="#121659"/>
              <path d="M83.019,139.436a1,1,0,0,1-.608-1.794,2.766,2.766,0,0,0,1.134-2.019c.393-4.049-5.7-10.937-9.347-15.054l-1.077-1.221c-2.418-2.765-2.648-6.2-2.833-8.965-.208-3.109-.42-4.9-2.35-5.528a29.075,29.075,0,0,0-3.272-.788c-4.385-.884-9.355-1.886-11.826-9.843C50.094,85.382,43.9,83.118,37.254,81.411a10.154,10.154,0,0,1-7.439-8.52c-.437-3.861,1.61-7.265,5.618-9.336,2.643-1.365,11.951-4.73,20.667,9.419,1.57,2.549,3.843,2.73,6.989,2.982,2.711.216,5.784.462,9,2.383,5.026,3.009,4.947,7.536,4.877,11.531a20.431,20.431,0,0,0,.362,5.371C78,97.9,80.147,98.7,83.6,99.781a18.449,18.449,0,0,1,6.708,3.188c4.977,4.248,1.366,16.8,1.211,17.331a1,1,0,0,1-1.92-.562c.961-3.282,2.727-12.417-.59-15.248A16.644,16.644,0,0,0,83,101.69c-3.263-1.025-6.637-2.084-7.62-5.956a22.35,22.35,0,0,1-.422-5.9c.069-3.952.129-7.366-3.905-9.779-2.808-1.682-5.512-1.9-8.126-2.107-3.307-.263-6.43-.513-8.533-3.926-1.975-3.206-9.113-13.314-18.046-8.691-4.422,2.285-4.748,5.576-4.549,7.334a8.226,8.226,0,0,0,5.951,6.808c6.928,1.779,13.948,4.338,17,14.156,2.119,6.824,6.1,7.627,10.31,8.476a31.361,31.361,0,0,1,3.5.846c3.31,1.079,3.522,4.241,3.727,7.3.181,2.717.37,5.527,2.343,7.782l1.068,1.212c4.109,4.643,10.318,11.659,9.842,16.574a4.729,4.729,0,0,1-1.911,3.413A1,1,0,0,1,83.019,139.436Z" fill="#231815"/>
            </g>
            <path d="M87.022,127.381a1,1,0,0,1-1-.944c-.2-3.531-1.477-13.346-4.955-16.328-.667-.572-1.3-1.106-1.909-1.616-3.632-3.051-6.257-5.257-8.3-9.339l-.518-1.045c-2.133-4.326-4.55-9.227-10.095-11.731-5.728-2.586-9.333-5.139-11.024-7.805a1,1,0,0,1,1.69-1.071c1.454,2.293,4.871,4.666,10.156,7.054,6.2,2.8,8.9,8.27,11.067,12.668l.513,1.035c1.856,3.712,4.349,5.806,7.8,8.7.61.514,1.251,1.053,1.924,1.629,4.837,4.147,5.619,17.182,5.649,17.734a1,1,0,0,1-.942,1.054Z" fill="#231815"/>
            <g>
              <path d="M71.673,116.471s-5.1-10.926-16.9-11.19c-7.337-.164-10.671,4.531-14.482,2.679-5.371-2.609-4.755-10.6-12.822-12.744s-12.277,1.844-12,6.886,7.429,15.169,15.653,14.8,11.636,1.267,18.908,7.524,20.28,3.983,20.28,3.983" fill="#121659"/>
              <path d="M64.766,129.826c-4.575,0-10.931-.808-15.385-4.639-6.928-5.961-10.166-7.643-18.21-7.282-5.365.233-9.55-3.468-11.589-5.7-2.9-3.169-4.952-7.207-5.107-10.05a7.709,7.709,0,0,1,2.748-6.6c2.445-1.989,6.176-2.449,10.506-1.3,5.006,1.329,6.949,4.747,8.663,7.763,1.24,2.181,2.311,4.063,4.339,5.049,1.462.709,2.864.194,5.214-.78a20.51,20.51,0,0,1,8.853-2c12.276.274,17.563,11.3,17.782,11.767a1,1,0,0,1-1.812.847c-.049-.1-5-10.368-16.015-10.614a18.777,18.777,0,0,0-8.042,1.848c-2.422,1-4.513,1.868-6.854.731-2.587-1.257-3.917-3.6-5.2-5.86-1.668-2.933-3.243-5.7-7.439-6.817-3.695-.981-6.8-.653-8.729.921a5.763,5.763,0,0,0-2.015,4.944c.257,4.684,6.954,13.867,14.23,13.867q.191,0,.381-.009c8.677-.381,12.326,1.5,19.6,7.765,6.82,5.867,19.329,3.778,19.456,3.756a1,1,0,0,1,.344,1.971A36.141,36.141,0,0,1,64.766,129.826Z" fill="#231815"/>
            </g>
            <path d="M69.584,123.382a1,1,0,0,1-.653-.243c-.1-.09-10.508-8.965-19.776-8.965-.12,0-.237,0-.356,0-9.73,0-15.556-2.3-21.421-8.43a1,1,0,0,1,1.446-1.382c5.5,5.751,10.75,7.812,19.966,7.812h.366c10.016,0,20.634,9.065,21.082,9.451a1,1,0,0,1-.654,1.757Z" fill="#231815"/>
          </g>
        </g>
        <g>
          <rect x="126.545" y="144.393" width="27.157" height="19.51" fill="#121659"/>
          <g>
            <g>
              <path d="M143.594,160.615s4.27-15.713,14.013-17.023,7.873,7.67,15.73,6.922,11.785-6.173,18.894.187,2.057,8.979,8.23,16.649,11.037,10.1,10.1,19.267-6.36,11.785-10.476,9.54-5.113-12.346-7.295-14.778c-2.849-3.175-4.3-2.057-11.785-3.928s-5.425-10.822-8.231-13.548-5.555,3.072-12.289-3.288" fill="#121659"/>
              <path d="M202.961,197.912a6.983,6.983,0,0,1-3.352-.877c-2.856-1.558-4.257-5.988-5.492-9.9-.668-2.113-1.359-4.3-2.07-5.091-1.667-1.857-2.625-2.012-5.469-2.468-1.465-.234-3.288-.526-5.814-1.158-5.4-1.35-6.375-5.914-7.158-9.58-.379-1.776-.737-3.454-1.527-4.222-.691-.671-1.27-.568-2.626-.256-2.19.5-5.191,1.193-9.653-3.021a1,1,0,1,1,1.373-1.453c3.685,3.479,5.887,2.971,7.83,2.524,1.4-.321,2.971-.684,4.47.773,1.225,1.19,1.645,3.156,2.089,5.237.735,3.446,1.5,7.011,5.687,8.059,2.442.609,4.217.894,5.645,1.123,2.9.466,4.5.721,6.642,3.106,1,1.113,1.689,3.3,2.488,5.824,1.066,3.373,2.394,7.572,4.542,8.745a4.708,4.708,0,0,0,4.576.085c2.366-1.246,3.98-4.471,4.426-8.849.682-6.672-1.815-9.429-5.949-14-1.189-1.313-2.536-2.8-3.937-4.541a16.483,16.483,0,0,1-3.91-8.9c-.409-2.524-.731-4.517-4.208-7.627-4.41-3.945-7.328-2.958-11.367-1.59a29.021,29.021,0,0,1-6.765,1.653c-4.2.41-6.056-1.749-7.692-3.647-1.806-2.094-3.363-3.9-8-3.279-8.968,1.205-13.14,16.145-13.181,16.295a1,1,0,0,1-1.93-.524c.182-.668,4.562-16.371,14.845-17.753,5.7-.772,7.871,1.741,9.78,3.955,1.574,1.823,2.807,3.256,5.989,2.963a27.016,27.016,0,0,0,6.312-1.558c4.147-1.4,8.064-2.728,13.343,1.994,4,3.582,4.414,6.117,4.848,8.8a14.585,14.585,0,0,0,3.5,7.97c1.363,1.694,2.69,3.16,3.86,4.453,4.2,4.637,7.229,7.986,6.457,15.543-.523,5.13-2.472,8.829-5.484,10.416A6.65,6.65,0,0,1,202.961,197.912Z" fill="#231815"/>
            </g>
            <path d="M199.736,178.077a.991.991,0,0,1-.379-.074c-5.136-2.1-7.8-5.059-11.4-12.658-2.954-6.233-7.214-9.1-11.979-8.055-6.073,1.318-8.827-.167-11.255-1.478a12.466,12.466,0,0,0-3.736-1.51,4.591,4.591,0,0,0-3.787.71c-2.356,1.745-2.8,5.669-2.808,5.709a1,1,0,0,1-1.988-.209c.019-.2.535-4.824,3.6-7.1a6.581,6.581,0,0,1,5.362-1.074,14.281,14.281,0,0,1,4.311,1.715c2.328,1.258,4.528,2.449,9.879,1.283,5.692-1.231,10.869,2.1,14.211,9.155,3.386,7.146,5.706,9.762,10.348,11.662a1,1,0,0,1-.379,1.925Z" fill="#231815"/>
            <g>
              <path d="M146.215,134.426s8.081-10.1,13.86-8.6,8.96,8.231,14.384,6.173,8.98-8.605,16.088-5.425,7.67,10.476,14.03,10.1,17.21.935,18.519,10.663-8.792,12.346-14.03,7.856-11.036-8.6-20.39-5.612-12.159-2.88-16.461-6.116-8.418,4.62-15.34,3.872-17.015,7.295-17.3,14.029" fill="#121659"/>
              <path d="M139.577,162.364h-.043a1,1,0,0,1-.957-1.041c.137-3.267,2.3-6.934,5.935-10.061,3.992-3.436,8.771-5.315,12.471-4.922,2.985.315,5.389-1.136,7.719-2.544,2.622-1.586,5.334-3.223,8.114-1.133a31.138,31.138,0,0,1,2.7,2.379c3.113,2.964,6.051,5.761,12.858,3.585,9.792-3.138,15.914,1.149,21.345,5.806a8.227,8.227,0,0,0,8.99.968c1.553-.846,4.062-3,3.4-7.933-1.341-9.966-13.714-10.018-17.47-9.8-3.992.239-6-2.179-8.11-4.737-1.67-2.022-3.4-4.112-6.386-5.449-4.3-1.923-7.053.086-10.251,2.41a22.315,22.315,0,0,1-5.074,3.036c-3.735,1.42-6.538-.739-9.249-2.824a16.662,16.662,0,0,0-5.741-3.316c-4.214-1.091-10.691,5.593-12.828,8.262a1,1,0,0,1-1.562-1.25c.348-.433,8.559-10.591,14.892-8.947a18.444,18.444,0,0,1,6.459,3.665c2.869,2.209,4.759,3.512,7.32,2.541a20.54,20.54,0,0,0,4.607-2.785c3.233-2.348,6.894-5.011,12.244-2.619,3.416,1.529,5.379,3.905,7.111,6,2.01,2.433,3.443,4.193,6.451,4.015,16.608-.978,19.173,8.576,19.569,11.526.6,4.471-1.011,8.1-4.425,9.957a10.151,10.151,0,0,1-11.246-1.206c-5.209-4.466-10.616-8.239-19.435-5.419-7.939,2.54-11.606-.958-14.846-4.041a28.949,28.949,0,0,0-2.522-2.23c-1.623-1.221-3.21-.367-5.876,1.246-2.369,1.434-5.325,3.22-8.969,2.821-3.121-.334-7.417,1.41-10.951,4.45-3.17,2.727-5.129,5.953-5.242,8.629A1,1,0,0,1,139.577,162.364Z" fill="#231815"/>
            </g>
            <path d="M203.451,144.526c-3.1,0-7.127-1.5-12.292-4.564-5.236-3.106-10.638-2.274-15.4-1.541l-1.148.175c-4.514.667-7.832-.218-12.418-1.443-.764-.2-1.563-.418-2.412-.636-4.437-1.132-13.21,3.444-16.217,5.306a1,1,0,0,1-1.054-1.7c.47-.293,11.6-7.131,17.769-5.545.854.22,1.661.436,2.431.642,4.353,1.163,7.5,2,11.608,1.4l1.137-.172c4.848-.747,10.881-1.676,16.73,1.8,4.987,2.961,8.9,4.4,11.6,4.275a1,1,0,1,1,.092,2C203.735,144.522,203.594,144.526,203.451,144.526Z" fill="#231815"/>
            <g>
              <path d="M133.65,120.019s-3.64-12.413.9-16.289,11.882-2.619,13.307-8.243-1.9-12.29,4.784-16.289,12.98-.275,16.321-5.7,10.637-13.561,19.357-9.054,5.071,14.283-1.611,16-13.379,4.105-16.292,13.484-9.334,8.308-14.452,9.976-1.044,9.546-5.626,14.787-14.5,15.65-9.146,19.746" fill="#121659"/>
              <path d="M141.191,139.436a1,1,0,0,1-.606-.206,4.726,4.726,0,0,1-1.911-3.413c-.476-4.915,5.733-11.931,9.842-16.574l1.069-1.212c1.972-2.255,2.161-5.065,2.342-7.782.205-3.056.416-6.218,3.727-7.3a31.415,31.415,0,0,1,3.5-.846c4.213-.849,8.191-1.652,10.311-8.476,3.049-9.818,10.069-12.377,17-14.156a8.227,8.227,0,0,0,5.949-6.808c.2-1.759-.127-5.049-4.548-7.334-8.936-4.622-16.071,5.485-18.046,8.691-2.1,3.413-5.227,3.663-8.533,3.926-2.614.209-5.318.425-8.127,2.107-4.033,2.413-3.974,5.827-3.9,9.779a22.393,22.393,0,0,1-.423,5.9c-.983,3.872-4.357,4.931-7.619,5.956a16.644,16.644,0,0,0-6.008,2.8c-3.317,2.831-1.551,11.966-.59,15.248a1,1,0,1,1-1.92.562c-.155-.532-3.766-13.083,1.211-17.331a18.449,18.449,0,0,1,6.708-3.188c3.454-1.084,5.6-1.883,6.278-4.54a20.472,20.472,0,0,0,.363-5.371c-.07-4-.149-8.522,4.877-11.531,3.21-1.921,6.284-2.167,9-2.383,3.146-.252,5.419-.433,6.989-2.982,8.713-14.149,18.021-10.784,20.667-9.419,4.008,2.071,6.055,5.475,5.617,9.336a10.153,10.153,0,0,1-7.438,8.52c-6.647,1.707-12.84,3.971-15.586,12.813-2.471,7.957-7.441,8.959-11.826,9.843a29.075,29.075,0,0,0-3.272.788c-1.93.629-2.142,2.419-2.35,5.528-.185,2.763-.416,6.2-2.833,8.965l-1.077,1.222c-3.642,4.116-9.74,11-9.348,15.054a2.766,2.766,0,0,0,1.134,2.018,1,1,0,0,1-.608,1.794Z" fill="#231815"/>
            </g>
            <path d="M137.189,127.381l-.057,0a1,1,0,0,1-.942-1.054c.03-.552.813-13.587,5.648-17.734.672-.576,1.313-1.114,1.923-1.627,3.45-2.9,5.942-4.992,7.8-8.7l.513-1.035c2.169-4.4,4.868-9.87,11.067-12.668,5.285-2.388,8.7-4.761,10.156-7.054a1,1,0,0,1,1.69,1.071c-1.691,2.666-5.3,5.219-11.024,7.805-5.544,2.5-7.962,7.405-10.095,11.731l-.518,1.045c-2.043,4.083-4.668,6.289-8.3,9.341-.606.509-1.241,1.043-1.908,1.614-3.477,2.982-4.755,12.8-4.954,16.328A1,1,0,0,1,137.189,127.381Z" fill="#231815"/>
            <g>
              <path d="M152.537,116.471s5.1-10.926,16.9-11.19c7.338-.164,10.672,4.531,14.483,2.679,5.371-2.609,4.755-10.6,12.821-12.744s12.277,1.844,12,6.886-7.429,15.169-15.653,14.8-11.637,1.267-18.908,7.524-20.28,3.983-20.28,3.983" fill="#121659"/>
              <path d="M159.445,129.826a35.989,35.989,0,0,1-5.72-.428,1,1,0,0,1,.344-1.971c.126.023,12.635,2.113,19.455-3.756,7.279-6.262,10.939-8.141,19.6-7.765,7.429.363,14.349-9.092,14.611-13.858a5.763,5.763,0,0,0-2.015-4.944c-1.933-1.575-5.034-1.9-8.729-.921-4.2,1.113-5.772,3.884-7.439,6.817-1.286,2.263-2.616,4.6-5.2,5.86-2.34,1.137-4.433.272-6.854-.731a18.306,18.306,0,0,0-8.044-1.848c-11.012.246-15.965,10.51-16.014,10.614a1,1,0,0,1-1.812-.847c.219-.47,5.506-11.493,17.781-11.767a20.732,20.732,0,0,1,8.854,2c2.35.974,3.75,1.489,5.215.78,2.027-.986,3.1-2.868,4.337-5.049,1.715-3.016,3.657-6.434,8.664-7.763,4.329-1.149,8.062-.687,10.506,1.3a7.709,7.709,0,0,1,2.748,6.6c-.156,2.843-2.208,6.881-5.108,10.05-2.039,2.231-6.259,5.928-11.588,5.7-8.032-.359-11.282,1.319-18.211,7.282C170.377,129.018,164.02,129.826,159.445,129.826Z" fill="#231815"/>
            </g>
            <path d="M154.628,123.382a1,1,0,0,1-.655-1.757c.448-.386,11.067-9.451,21.082-9.451.123,0,.245,0,.367,0,9.216,0,14.463-2.061,19.964-7.812a1,1,0,1,1,1.446,1.382c-5.864,6.129-11.692,8.429-21.42,8.43-.118,0-.237,0-.356,0-9.269,0-19.672,8.875-19.776,8.965A1,1,0,0,1,154.628,123.382Z" fill="#231815"/>
          </g>
        </g>
        <g>
          <path d="M164.169,167.694V277.376a6.315,6.315,0,0,1-6.3,6.3H64.1a6.315,6.315,0,0,1-6.3-6.3V167.694" fill="#fff8ee"/>
          <path d="M157.873,284.672H64.1a7.305,7.305,0,0,1-7.3-7.3V167.694a1,1,0,0,1,2,0V277.375a5.3,5.3,0,0,0,5.3,5.3h93.774a5.3,5.3,0,0,0,5.3-5.3V167.694a1,1,0,0,1,2,0V277.375A7.3,7.3,0,0,1,157.873,284.672Z" fill="#231815"/>
        </g>
        <g>
          <rect x="54.668" y="160.811" width="112.635" height="6.883" fill="#fff8ee"/>
          <path d="M167.3,168.694H54.669a1,1,0,0,1-1-1v-6.883a1,1,0,0,1,1-1H167.3a1,1,0,0,1,1,1v6.883A1,1,0,0,1,167.3,168.694Zm-111.634-2H166.3v-4.883H55.669Z" fill="#231815"/>
        </g>
        <polyline points="153.528 183.671 208.896 233.941 199.294 242.493 140.019 208.951" fill="#ee795e"/>
        <path d="M127.664,175.14h6.165s25.391,1.016,25.391,24.364V308.923H64.077V199.5c0-23.348,25.391-24.364,25.391-24.364h38.2Z" fill="#ee795e"/>
        <g>
          <path d="M95.634,174.27s-.523,14.5,15.754,14.5,16.276-13.629,16.276-13.629" fill="#f4aeb6"/>
          <path d="M111.387,189.769c-5.406,0-9.633-1.54-12.562-4.577a16.246,16.246,0,0,1-4.19-10.957.981.981,0,0,1,1.034-.962,1,1,0,0,1,.964,1.032,14.459,14.459,0,0,0,3.646,9.514c2.538,2.621,6.275,3.95,11.108,3.95,15.1,0,15.278-12.113,15.278-12.629a1,1,0,1,1,2,0C128.665,175.286,128.467,189.769,111.387,189.769Z" fill="#231815"/>
        </g>
        <path d="M60.964,91.465S49.8,90.609,49.8,101.432s13.113,9.874,13.113,9.874" fill="#f4aeb6"/>
        <path d="M162.228,91.465s11.161-.856,11.161,9.967-13.112,9.874-13.112,9.874" fill="#f4aeb6"/>
        <g>
          <polyline points="95.633 175.14 95.633 164.562 127.664 164.562 127.664 175.14" fill="#f4aeb6"/>
          <path d="M127.665,176.14a1,1,0,0,1-1-1v-9.578H96.633v9.578a1,1,0,0,1-2,0V164.562a1,1,0,0,1,1-1h32.032a1,1,0,0,1,1,1V175.14A1,1,0,0,1,127.665,176.14Z" fill="#231815"/>
        </g>
        <g>
          <g>
            <path d="M111.582,25.431s57.939-4.919,49.842,80.094c0,0,.39,38.367-33.76,59.037H95.5c-32.218-20.439-33.76-59.037-33.76-59.037-8.1-85.013,49.842-80.094,49.842-80.094" fill="#f4aeb6"/>
            <path d="M127.665,165.562H95.5a1,1,0,0,1-.537-.156c-32.286-20.483-34.206-59.451-34.221-59.841C57.785,74.54,63.2,51.791,76.849,38a46.782,46.782,0,0,1,34.733-13.576A46.805,46.805,0,0,1,146.315,38c13.64,13.78,19.06,36.513,16.108,67.569-.007,1.726-.618,39.494-34.241,59.844A.994.994,0,0,1,127.665,165.562Zm-31.873-2h31.592c33.04-20.177,33.043-57.65,33.039-58.028a.916.916,0,0,1,0-.1c2.9-30.442-2.319-52.647-15.511-66-14.243-14.41-33.062-13.018-33.251-13.007a.786.786,0,0,1-.168,0c-.19-.015-19.009-1.4-33.25,13.007-13.193,13.348-18.412,35.553-15.512,66C62.755,105.865,64.644,143.61,95.792,163.562Z" fill="#231815"/>
          </g>
          <rect x="100.824" y="130.898" width="21.832" height="16.009" fill="#e84572"/>
          <path d="M103.357,126.743s-2.533.159-2.533,3.741.556,2.965,2.533,2.965h17.3s1.992.618,1.992-1.235.417-5.374-3.537-5.374S103.357,126.743,103.357,126.743Z" fill="#fff"/>
          <path d="M120.124,150.846s2.533-.158,2.533-3.74-.556-2.965-2.533-2.965h-17.3s-1.992-.618-1.992,1.235-.417,5.374,3.536,5.374S120.124,150.846,120.124,150.846Z" fill="#fff"/>
          <path d="M119.5,151.687H103.8a4.154,4.154,0,0,1-4.148-4.149V129.892a4.154,4.154,0,0,1,4.148-4.149h15.7a4.154,4.154,0,0,1,4.148,4.149v17.646A4.154,4.154,0,0,1,119.5,151.687Zm-15.7-23.944a2.151,2.151,0,0,0-2.148,2.149v17.646a2.151,2.151,0,0,0,2.148,2.149h15.7a2.151,2.151,0,0,0,2.148-2.149V129.892a2.151,2.151,0,0,0-2.148-2.149Z" fill="#231815"/>
          <path d="M127.27,97.069a5.841,5.841,0,1,0,5.835-5.836A5.826,5.826,0,0,0,127.27,97.069Zm5.835,11.649a11.653,11.653,0,1,1,11.672-11.649A11.65,11.65,0,0,1,133.1,108.718Z" fill="#fff8ee"/>
          <path d="M127.27,97.069a5.841,5.841,0,1,1,5.835,5.824A5.829,5.829,0,0,1,127.27,97.069Zm7.84,0a2,2,0,1,0-2.005,1.993A2,2,0,0,0,135.11,97.069Z" fill="#97d2ce"/>
          <path d="M133.1,95.064a2,2,0,1,1-1.993,2.005A2,2,0,0,1,133.1,95.064Z" fill="#231815"/>
          <path d="M87.954,97.069a2,2,0,1,1,1.994,1.993A1.995,1.995,0,0,1,87.954,97.069Z" fill="#231815"/>
          <path d="M89.948,102.893A5.83,5.83,0,1,0,84.1,97.069,5.819,5.819,0,0,0,89.948,102.893Zm0,5.825A11.661,11.661,0,1,1,101.6,97.069,11.659,11.659,0,0,1,89.948,108.718Z" fill="#fff8ee"/>
          <path d="M84.1,97.069a5.841,5.841,0,1,1,5.847,5.824A5.839,5.839,0,0,1,84.1,97.069Zm7.851,0a2,2,0,1,0-2,1.993A2,2,0,0,0,91.952,97.069Z" fill="#97d2ce"/>
          <path d="M89.948,109.718A12.661,12.661,0,1,1,102.6,97.069,12.669,12.669,0,0,1,89.948,109.718Zm0-23.321A10.661,10.661,0,1,0,100.6,97.069,10.7,10.7,0,0,0,89.948,86.4Z" fill="#231815"/>
          <path d="M89.948,103.893a6.83,6.83,0,1,1,6.836-6.824A6.843,6.843,0,0,1,89.948,103.893Zm0-11.66a4.83,4.83,0,1,0,4.836,4.836A4.846,4.846,0,0,0,89.948,92.233Z" fill="#231815"/>
          <path d="M86.437,86.652a1,1,0,0,1-.946-.678l-1.44-4.23a1,1,0,0,1,1.893-.644l1.439,4.229a1,1,0,0,1-.624,1.269A.976.976,0,0,1,86.437,86.652Z" fill="#231815"/>
          <path d="M81.542,90a.982.982,0,0,1-.772-.371l-3.427-3.361a1,1,0,0,1,1.4-1.428l3.5,3.433a1,1,0,0,1,.186.251A1,1,0,0,1,81.542,90Z" fill="#231815"/>
          <path d="M94.378,87.1a1,1,0,0,1-.948-1.321l1.44-4.242a1,1,0,1,1,1.894.643l-1.439,4.241A1,1,0,0,1,94.378,87.1Z" fill="#231815"/>
          <path d="M99.25,90.439a1,1,0,0,1-.7-1.713l3.522-3.466a1,1,0,1,1,1.4,1.426l-3.521,3.466A1,1,0,0,1,99.25,90.439Z" fill="#231815"/>
          <path d="M133.1,109.718a12.654,12.654,0,1,1,12.672-12.649A12.663,12.663,0,0,1,133.1,109.718Zm0-23.321a10.678,10.678,0,1,0,7.7,3.281A10.672,10.672,0,0,0,133.1,86.4Z" fill="#231815"/>
          <path d="M133.1,103.893a6.83,6.83,0,1,1,6.848-6.824A6.838,6.838,0,0,1,133.1,103.893Zm0-11.66a4.83,4.83,0,1,0,4.848,4.836A4.841,4.841,0,0,0,133.1,92.233Z" fill="#231815"/>
          <path d="M136.627,86.652a.986.986,0,0,1-.323-.054,1,1,0,0,1-.624-1.269l1.44-4.229a1,1,0,0,1,1.892.644l-1.439,4.23A1,1,0,0,1,136.627,86.652Z" fill="#231815"/>
          <path d="M141.5,89.99a.994.994,0,0,1-.727-1.674l.021-.023,3.522-3.455a1,1,0,1,1,1.4,1.428l-3.5,3.432A1.02,1.02,0,0,1,141.5,89.99Z" fill="#231815"/>
          <path d="M128.687,87.1a1,1,0,0,1-.947-.679l-1.44-4.241a1,1,0,0,1,1.895-.643l1.439,4.242a1,1,0,0,1-.947,1.321Z" fill="#231815"/>
          <path d="M123.8,90.439a1,1,0,0,1-.7-.288l-3.511-3.466A1,1,0,0,1,121,85.261l3.51,3.466a1,1,0,0,1-.7,1.712Z" fill="#231815"/>
        </g>
        <path d="M111.582,121.652a6.494,6.494,0,0,1-5.244-2.684,6.259,6.259,0,0,1-1.164-5.371c.745-2.456,4.752-13.347,5.4-15.109a.991.991,0,0,1,.172-.451,1.054,1.054,0,0,1,1.655,0,1.091,1.091,0,0,1,.174.417c.608,1.652,4.663,12.67,5.413,15.143a6.26,6.26,0,0,1-1.164,5.371A6.494,6.494,0,0,1,111.582,121.652Zm0-20.1c-1.409,3.844-3.938,10.8-4.5,12.629a4.365,4.365,0,0,0,.857,3.6,4.465,4.465,0,0,0,7.274,0,4.365,4.365,0,0,0,.857-3.6C115.519,112.343,112.99,105.392,111.583,101.548Z" fill="#231815"/>
        <g>
          <path d="M78.923,131.462a3.181,3.181,0,0,0,3.063-3.8c-.447-1.472-3.071-8.585-3.071-8.585h.016s-2.625,7.113-3.071,8.585A3.181,3.181,0,0,0,78.923,131.462Z" fill="#97d2ce"/>
          <path d="M78.922,132.462a4.082,4.082,0,0,1-3.3-1.685,3.963,3.963,0,0,1-.721-3.408c.416-1.371,2.615-7.351,3.027-8.469a1,1,0,0,1,.164-.4,1.009,1.009,0,0,1,1.811.366c.382,1.036,2.618,7.116,3.038,8.5a3.961,3.961,0,0,1-.723,3.408A4.082,4.082,0,0,1,78.922,132.462Zm0-10.459c-.8,2.182-1.845,5.086-2.106,5.947a2.026,2.026,0,0,0,.414,1.635,2.07,2.07,0,0,0,3.383,0,2.029,2.029,0,0,0,.415-1.636C80.768,127.089,79.719,124.185,78.923,122Z" fill="#231815"/>
        </g>
        <g>
          <path d="M148.173,123.713a3.181,3.181,0,0,0,3.063-3.8c-.446-1.471-3.071-8.584-3.071-8.584h.016s-2.624,7.113-3.071,8.584A3.181,3.181,0,0,0,148.173,123.713Z" fill="#97d2ce"/>
          <path d="M148.173,124.713a4.081,4.081,0,0,1-3.3-1.684,3.961,3.961,0,0,1-.723-3.408c.417-1.372,2.615-7.352,3.027-8.47a1.011,1.011,0,0,1,.164-.4,1.009,1.009,0,0,1,1.811.366c.382,1.036,2.618,7.116,3.038,8.5a3.962,3.962,0,0,1-.721,3.407A4.083,4.083,0,0,1,148.173,124.713Zm0-10.459c-.8,2.183-1.844,5.087-2.106,5.948a2.028,2.028,0,0,0,.415,1.635,2.07,2.07,0,0,0,3.383,0,2.025,2.025,0,0,0,.414-1.634C150.018,119.34,148.969,116.437,148.173,114.254Z" fill="#231815"/>
        </g>
        <path d="M111.649,309.923H64.078a1,1,0,0,1-1-1V199.5c0-24.03,26.087-25.352,26.35-25.363h6.2a1,1,0,0,1,0,2H89.468a34.175,34.175,0,0,0-12.3,3.35c-8.021,4.03-12.087,10.764-12.087,20.014V307.923h46.571a1,1,0,0,1,0,2Z" fill="#231815"/>
        <path d="M159.22,309.923H111.649a1,1,0,0,1,0-2H158.22V212.152a1,1,0,0,1,2,0v96.771A1,1,0,0,1,159.22,309.923Z" fill="#231815"/>
        <path d="M151.02,182.4a1,1,0,0,1-.619-.216c-7.065-5.592-16.519-6.044-16.613-6.048h-6.123a1,1,0,0,1,0-2h6.164c.452.017,10.224.474,17.812,6.478a1,1,0,0,1-.621,1.785Z" fill="#231815"/>
        <path d="M111.387,189.769c-5.406,0-9.633-1.54-12.562-4.577a16.246,16.246,0,0,1-4.19-10.957.981.981,0,0,1,1.034-.962,1,1,0,0,1,.964,1.032,14.459,14.459,0,0,0,3.646,9.514c2.538,2.621,6.275,3.95,11.108,3.95,15.1,0,15.278-12.113,15.278-12.629a1,1,0,1,1,2,0C128.665,175.286,128.467,189.769,111.387,189.769Z" fill="#231815"/>
        <path d="M61.5,112.328c-1.9,0-6.512-.322-9.646-3.227a9.988,9.988,0,0,1-3.046-7.669,10.441,10.441,0,0,1,3.1-8.027c3.586-3.322,8.91-2.952,9.134-2.937a1,1,0,0,1-.152,1.994c-.041-.006-4.7-.311-7.632,2.418a8.54,8.54,0,0,0-2.454,6.552,8.072,8.072,0,0,0,2.4,6.2c3.3,3.062,8.936,2.685,9,2.681a1,1,0,0,1,.15,1.994C62.294,112.307,61.985,112.328,61.5,112.328Z" fill="#231815"/>
        <path d="M61.363,101.963H55.934a1,1,0,0,1,0-2h5.429a1,1,0,0,1,0,2Z" fill="#231815"/>
        <path d="M161.7,112.328c-.49,0-.8-.021-.854-.025a1,1,0,0,1,.151-1.994c.057,0,5.7.381,9-2.681a8.071,8.071,0,0,0,2.4-6.2,8.539,8.539,0,0,0-2.463-6.561c-2.951-2.732-7.573-2.416-7.622-2.409a1,1,0,1,1-.152-1.994c.224-.017,5.549-.384,9.134,2.937a10.444,10.444,0,0,1,3.1,8.027,9.984,9.984,0,0,1-3.046,7.669C168.21,112.005,163.6,112.328,161.7,112.328Z" fill="#231815"/>
        <path d="M167.258,101.963h-5.427a1,1,0,0,1,0-2h5.427a1,1,0,0,1,0,2Z" fill="#231815"/>
        <path d="M166.776,218.4l35.875,10.71s12.151,5.582,8.867,16.748c-3.81,12.952-20.033,5.583-20.033,5.583l-27.467-14.314" fill="#ee795e"/>
        <path d="M200.938,254.528a26.734,26.734,0,0,1-9.866-2.181L163.556,238.01a1,1,0,1,1,.924-1.773l27.467,14.313c.033.014,8.159,3.63,13.8,1.04a8.985,8.985,0,0,0,4.808-6.018,11.337,11.337,0,0,0-2.93-11.55,19.8,19.8,0,0,0-5.338-3.981l-35.8-10.687a1,1,0,0,1,.572-1.916l35.875,10.71a.812.812,0,0,1,.132.05c.129.058,12.9,6.081,9.407,17.938a10.89,10.89,0,0,1-5.9,7.275A13.522,13.522,0,0,1,200.938,254.528Z" fill="#231815"/>
        <path d="M206.648,232.728a1,1,0,0,1-.671-.259L150.35,182.144a1,1,0,0,1,1.342-1.483l55.627,50.326a1,1,0,0,1-.671,1.741Z" fill="#231815"/>
        <g>
          <path d="M130.336,172.736a358.23,358.23,0,0,0,29.908,83.811V233.942s-16.8-35.993-20.225-60.858Z" fill="#fff8ee"/>
          <path d="M160.244,257.547a1,1,0,0,1-.891-.546,362.543,362.543,0,0,1-30-84.072,1,1,0,0,1,1.018-1.191l9.682.347a1,1,0,0,1,.954.863c3.368,24.427,19.974,60.213,20.141,60.572a1.012,1.012,0,0,1,.094.423v22.6a1,1,0,0,1-.767.973A1.036,1.036,0,0,1,160.244,257.547Zm-28.667-83.766a364.489,364.489,0,0,0,27.667,78.541v-18.16c-1.346-2.923-16.58-36.388-20.1-60.108Z" fill="#231815"/>
        </g>
        <g>
          <path d="M166.653,230.58l.123-12.184s-8.932-7.669-10.8-9.412c-1.881-1.726-4.135-2.255-5-.427-1.014,2.183,4.629,7.847,4.91,8.141l-8.536-.523s-3.818-.309-4.056,2.295c-.206,2.14,2.091,2.991,3.6,3.095-.371.008-3.493.234-3.625,2.547-.127,1.782,1.264,3.166,3.46,3.048,0,0-3.449.556-3.394,2.878.072,2.334.57,2.746,1.929,2.748a5.055,5.055,0,0,0-1.339,1.924,2.345,2.345,0,0,0,2.047,3.254c3.068.523,12.483.7,12.657.7S166.425,238.481,166.653,230.58Z" fill="#f4aeb6"/>
          <path d="M154.782,228.539h-.048l-8-.378a4.4,4.4,0,0,1-3.419-1.211,3.7,3.7,0,0,1-1.039-2.909c.151-2.663,3.074-3.439,4.6-3.475a1.022,1.022,0,0,1,1.023.976,1,1,0,0,1-.976,1.024c-.026,0-2.565.1-2.651,1.6a1.719,1.719,0,0,0,.47,1.379,2.5,2.5,0,0,0,1.938.614.857.857,0,0,1,.1,0l8.053.38a1,1,0,0,1-.046,2Z" fill="#231815"/>
          <path d="M154.98,222.9h-.039c-.261-.01-6.265-.238-7.938-.335a1.035,1.035,0,0,1-.11,0l-.069,0a5.6,5.6,0,0,1-3.758-1.684,3.3,3.3,0,0,1-.766-2.506c.258-2.833,3.477-3.335,5.131-3.195l8.517.521a1,1,0,0,1,.936,1.06.983.983,0,0,1-1.059.937l-8.535-.523c-.042,0-2.854-.2-3,1.388a1.293,1.293,0,0,0,.3,1.026,3.6,3.6,0,0,0,2.269.972.919.919,0,0,1,.149,0c1.461.091,7.942.337,8.007.34a1,1,0,0,1-.037,2Z" fill="#231815"/>
          <path d="M159.417,239.556c-3.36,0-10.93-.152-12.134-.31-4.662-.609-4.923-3.159-4.819-4.226a3.062,3.062,0,0,1,1.122-2.166,4.363,4.363,0,0,1,3.035-.747,1,1,0,0,1-.254,1.983,2.377,2.377,0,0,0-1.54.333,1.048,1.048,0,0,0-.372.79c-.106,1.079.933,1.769,3.087,2.051,1.212.158,10.847.349,13.034.281,1.319-.036,5.082-1.393,5.077-6.965l.118-11.729c-1.7-1.459-8.8-7.576-10.477-9.135a3.832,3.832,0,0,0-2.781-1.281.846.846,0,0,0-.632.549c-.282.607.971,3.165,4.644,6.936a1,1,0,0,1-.44,1.758,1.06,1.06,0,0,1-.92-.288c-4.238-4.345-5.937-7.443-5.095-9.255a2.834,2.834,0,0,1,2.058-1.662c1.359-.275,3.005.382,4.523,1.775,1.839,1.713,10.687,9.313,10.776,9.389a1,1,0,0,1,.349.769l-.123,12.183c0,6.381-4.3,8.881-7.022,8.956C160.353,239.553,159.934,239.556,159.417,239.556Z" fill="#231815"/>
          <path d="M154.677,234.431h-.046c-.066,0-6.672-.3-7.723-.309a4.3,4.3,0,0,1-4.573-4.052c-.061-2.529,2.632-3.638,4.234-3.9a1,1,0,0,1,.321,1.974h0c-.026.005-2.59.472-2.555,1.868.063,2.08,2.479,2.107,2.582,2.107,1.094.009,7.531.3,7.8.311a1,1,0,0,1-.044,2Z" fill="#231815"/>
        </g>
        <polyline points="69.958 183.671 14.589 233.941 24.191 242.493 83.466 208.951" fill="#ee795e"/>
        <path d="M56.709,218.4l-35.875,10.71s-12.15,5.582-8.866,16.748C15.777,258.806,32,251.437,32,251.437l27.468-14.314" fill="#ee795e"/>
        <path d="M22.544,254.528a13.5,13.5,0,0,1-5.635-1.117,10.893,10.893,0,0,1-5.9-7.275c-3.487-11.857,9.28-17.88,9.409-17.938a.8.8,0,0,1,.131-.05l35.874-10.71A1,1,0,1,1,57,219.354L21.2,230.041a19.8,19.8,0,0,0-5.339,3.981,11.34,11.34,0,0,0-2.931,11.55,8.985,8.985,0,0,0,4.81,6.018c5.643,2.588,13.769-1.027,13.85-1.064l27.419-14.289a1,1,0,1,1,.924,1.773L32.461,252.323A26.74,26.74,0,0,1,22.544,254.528Z" fill="#231815"/>
        <path d="M16.836,232.728a1,1,0,0,1-.67-1.741l55.628-50.326a1,1,0,1,1,1.341,1.483L17.507,232.469A.992.992,0,0,1,16.836,232.728Z" fill="#231815"/>
        <g>
          <path d="M93.149,172.736a358.23,358.23,0,0,1-29.908,83.811V233.942s16.8-35.993,20.225-60.858Z" fill="#fff8ee"/>
          <path d="M63.242,257.547a1.044,1.044,0,0,1-.234-.027,1,1,0,0,1-.766-.973v-22.6a1,1,0,0,1,.094-.423c.167-.359,16.773-36.145,20.14-60.572a1,1,0,0,1,.954-.863l9.683-.347a.921.921,0,0,1,.8.349,1,1,0,0,1,.22.842,362.6,362.6,0,0,1-30,84.072A1,1,0,0,1,63.242,257.547Zm1-23.385v18.16a364.669,364.669,0,0,0,27.667-78.541l-7.572.273C80.822,197.774,65.587,231.239,64.242,234.162Z" fill="#231815"/>
        </g>
        <g>
          <path d="M56.832,230.58,56.709,218.4s8.932-7.669,10.8-9.412c1.881-1.726,4.136-2.255,5-.427,1.014,2.183-4.628,7.847-4.909,8.141l8.535-.523s3.818-.309,4.056,2.295c.206,2.14-2.091,2.991-3.6,3.095.37.008,3.492.234,3.624,2.547.127,1.782-1.264,3.166-3.46,3.048,0,0,3.449.556,3.394,2.878-.071,2.334-.569,2.746-1.929,2.748a5.055,5.055,0,0,1,1.339,1.924,2.345,2.345,0,0,1-2.047,3.254c-3.067.523-12.483.7-12.657.7S57.06,238.481,56.832,230.58Z" fill="#f4aeb6"/>
          <path d="M68.7,228.539a1,1,0,0,1-.046-2l8.052-.38a.83.83,0,0,1,.1,0,2.518,2.518,0,0,0,1.94-.614,1.712,1.712,0,0,0,.47-1.364c-.088-1.516-2.626-1.618-2.651-1.618a1,1,0,0,1-.977-1.024,1.017,1.017,0,0,1,1.024-.976c1.524.036,4.446.812,4.6,3.489a3.694,3.694,0,0,1-1.039,2.9,4.408,4.408,0,0,1-3.421,1.211l-8,.378Z" fill="#231815"/>
          <path d="M68.505,222.9a1,1,0,0,1-.037-2c.066,0,6.545-.249,8.006-.34a1.26,1.26,0,0,1,.151,0,3.6,3.6,0,0,0,2.268-.972,1.292,1.292,0,0,0,.3-1.021c-.147-1.59-2.954-1.4-2.983-1.394l-8.552.524a.99.99,0,0,1-1.06-.937,1,1,0,0,1,.937-1.06l8.536-.522c1.648-.141,4.853.362,5.113,3.2a3.3,3.3,0,0,1-.767,2.5,5.608,5.608,0,0,1-3.757,1.683.99.99,0,0,1-.122,0l-.057,0c-1.671.1-7.678.325-7.939.335Z" fill="#231815"/>
          <path d="M64.068,239.556c-.518,0-.936,0-1.215-.011-2.717-.075-7.025-2.575-7.02-8.967l-.124-12.172a1,1,0,0,1,.348-.769c.089-.076,8.939-7.676,10.772-9.384,1.524-1.4,3.174-2.054,4.528-1.78a2.828,2.828,0,0,1,2.056,1.657c.843,1.818-.856,4.915-5.047,9.213a1.139,1.139,0,0,1-.944.339,1.005,1.005,0,0,1-.42-1.806c3.653-3.773,4.881-6.291,4.6-6.9a.838.838,0,0,0-.629-.543,3.842,3.842,0,0,0-2.786,1.286c-1.667,1.555-8.775,7.671-10.473,9.13l.12,11.719c0,5.582,3.757,6.939,5.076,6.975,2.186.069,11.821-.123,13.036-.281,2.152-.282,3.191-.972,3.086-2.051a1.051,1.051,0,0,0-.372-.79,2.376,2.376,0,0,0-1.542-.333,1,1,0,0,1-.252-1.983,4.361,4.361,0,0,1,3.035.747,3.064,3.064,0,0,1,1.121,2.166c.105,1.067-.156,3.617-4.817,4.226C75,239.4,67.427,239.556,64.068,239.556Z" fill="#231815"/>
          <path d="M68.808,234.431a1,1,0,0,1-.044-2c.274-.013,6.71-.3,7.8-.311.109,0,2.525-.027,2.589-2.113.033-1.382-2.528-1.857-2.554-1.861a1,1,0,0,1,.319-1.975c1.6.259,4.3,1.368,4.235,3.891a4.3,4.3,0,0,1-4.58,4.058c-1.044.009-7.651.306-7.717.309Z" fill="#231815"/>
        </g>
        <path d="M122.644,134.23H100.652a1,1,0,0,1,0-2h21.992a1,1,0,0,1,0,2Z" fill="#231815"/>
        <path d="M106.107,134.23a1,1,0,0,1-1-1v-6.487a1,1,0,0,1,2,0v6.487A1,1,0,0,1,106.107,134.23Z" fill="#231815"/>
        <path d="M111.663,134.23a1,1,0,0,1-1-1v-6.487a1,1,0,0,1,2,0v6.487A1,1,0,0,1,111.663,134.23Z" fill="#231815"/>
        <path d="M117.219,134.23a1,1,0,0,1-1-1v-6.487a1,1,0,0,1,2,0v6.487A1,1,0,0,1,117.219,134.23Z" fill="#231815"/>
        <path d="M122.644,145.2H100.652a1,1,0,0,1,0-2h21.992a1,1,0,1,1,0,2Z" fill="#231815"/>
        <path d="M117.19,151.687a1,1,0,0,1-1-1V144.2a1,1,0,1,1,2,0v6.486A1,1,0,0,1,117.19,151.687Z" fill="#231815"/>
        <path d="M111.633,151.687a1,1,0,0,1-1-1V144.2a1,1,0,0,1,2,0v6.486A1,1,0,0,1,111.633,151.687Z" fill="#231815"/>
        <path d="M106.077,151.687a1,1,0,0,1-1-1V144.2a1,1,0,0,1,2,0v6.486A1,1,0,0,1,106.077,151.687Z" fill="#231815"/>
        <g>
          <path d="M111.568,63.912l42.348-9.206V83.537c0,.913,8.255,7.928,8.255,7.928l-.386-52.606,3.245-6.766C147.216,9.65,111.553,9.345,111.553,9.345h.029S79.8,7.766,58.105,32.093l3.246,6.766-.387,52.606s8.255-7.015,8.255-7.928V54.706Z" fill="#ee795e"/>
          <path d="M162.17,92.465a1,1,0,0,1-.647-.238c-8.606-7.314-8.606-8.209-8.606-8.69V55.948L111.781,64.89a1.054,1.054,0,0,1-.426,0L70.218,55.948V83.537c0,.481,0,1.376-8.606,8.69a1,1,0,0,1-1.648-.77l.384-52.375L57.2,32.526a1,1,0,0,1,.155-1.1c21.725-24.36,53.826-23.1,54.271-23.081,1.771.035,36.65,1.035,54.185,23.125a1,1,0,0,1,.118,1.055l-3.145,6.556.383,52.375a1,1,0,0,1-1,1.008Zm-7.253-9.121a62.5,62.5,0,0,0,6.237,5.927l-.369-50.4a1,1,0,0,1,.1-.44l2.973-6.2c-17.436-21.321-51.962-21.881-52.312-21.884-.026,0-.051,0-.078,0C109.847,10.29,79.928,9.62,59.3,32.265l2.957,6.161a1,1,0,0,1,.1.44l-.369,50.405a62.74,62.74,0,0,0,6.237-5.927V54.706a1,1,0,0,1,.372-.778,1.012,1.012,0,0,1,.841-.2l42.137,9.16,42.136-9.16a1,1,0,0,1,1.213.977Z" fill="#231815"/>
        </g>
        <g>
          <path d="M97.027,68.128a3.181,3.181,0,0,0,3.063-3.8c-.446-1.472-3.071-8.585-3.071-8.585h.016s-2.624,7.113-3.071,8.585A3.181,3.181,0,0,0,97.027,68.128Z" fill="#97d2ce"/>
          <path d="M97.027,69.127a4.083,4.083,0,0,1-3.3-1.685,3.966,3.966,0,0,1-.721-3.408c.416-1.37,2.616-7.35,3.028-8.468a1,1,0,0,1,.164-.4,1.047,1.047,0,0,1,1.649,0,1.025,1.025,0,0,1,.161.366c.382,1.037,2.618,7.115,3.038,8.5a3.962,3.962,0,0,1-.722,3.409A4.082,4.082,0,0,1,97.027,69.127Zm0-10.458c-.8,2.183-1.845,5.086-2.106,5.946a2.03,2.03,0,0,0,.415,1.635,2.069,2.069,0,0,0,3.382,0,2.029,2.029,0,0,0,.415-1.636C98.872,63.755,97.823,60.852,97.027,58.669Z" fill="#231815"/>
        </g>
      </g>
      <g>
        <polygon points="424.199 14.962 369.217 1.05 311.957 15.663 287.23 76.531 288.735 115.529 276.18 120.715 262.991 102.015 222.2 128.322 259.23 122.05 271.589 142.811 289.573 137.219 292.23 206.05 326.674 245.685 373.575 253.634 417.7 231.773 444.385 199.313 451.203 77.232 424.199 14.962" fill="#fff"/>
        <path d="M373.575,254.684a1.046,1.046,0,0,1-.176-.015l-46.9-7.949a1.05,1.05,0,0,1-.617-.347l-34.443-39.634a1.057,1.057,0,0,1-.257-.649l-2.6-67.463L271.9,143.813a1.048,1.048,0,0,1-1.213-.465L258.7,123.205l-36.321,6.152a1.061,1.061,0,0,1-1.154-.656,1.05,1.05,0,0,1,.41-1.261l40.791-26.307a1.048,1.048,0,0,1,1.426.277l12.7,18.015,11.106-4.587-1.478-38.267a1.06,1.06,0,0,1,.076-.435l24.727-60.868a1.049,1.049,0,0,1,.713-.622L368.957.033a1.052,1.052,0,0,1,.517,0l54.983,13.913a1.051,1.051,0,0,1,.7.6l27,62.27a1.079,1.079,0,0,1,.085.476l-6.82,122.081a1.056,1.056,0,0,1-.237.608l-26.685,32.46a1.041,1.041,0,0,1-.344.274l-44.125,21.861A1.04,1.04,0,0,1,373.575,254.684Zm-46.356-9.971,46.2,7.829,43.617-21.61,26.324-32.021,6.786-121.49-26.7-61.568L369.217,2.133,312.729,16.548,288.288,76.716l1.5,38.773a1.05,1.05,0,0,1-.649,1.009l-12.556,5.187a1.052,1.052,0,0,1-1.258-.365l-12.609-17.877-35.649,22.99,31.991-5.418a1.046,1.046,0,0,1,1.076.5l11.936,20.05,17.194-5.346a1.052,1.052,0,0,1,1.361.962l2.642,68.462Z" fill="#231815"/>
      </g>
      <g>
        <path d="M408.094,49.493a9.376,9.376,0,0,0-.36,1.321,19.321,19.321,0,0,1-2.341,7.3,14.272,14.272,0,0,1-7.441,5.6l-2.181-2.22c2.621-.66,5.661-2.281,7.222-4.721a14.276,14.276,0,0,0,1.78-5.9h-9.422v3.282c0,.28,0,.979.06,1.6h-2.88a15.882,15.882,0,0,0,.1-1.6V49.993a15,15,0,0,0-.08-1.64c.6.04,1.481.08,2.381.08h9.382a10.749,10.749,0,0,0,1.88-.14Z"/>
        <path d="M407.194,72.494a34.721,34.721,0,0,0-4.221-4.34l2.06-1.741a37.523,37.523,0,0,1,4.281,4.281Z"/>
        <path d="M408.094,81.156a9.328,9.328,0,0,0-.36,1.32,19.33,19.33,0,0,1-2.341,7.3,14.276,14.276,0,0,1-7.441,5.6l-2.181-2.22c2.621-.66,5.661-2.281,7.222-4.721a14.276,14.276,0,0,0,1.78-5.9h-9.422v3.282c0,.28,0,.979.06,1.6h-2.88a15.882,15.882,0,0,0,.1-1.6V81.656a15.005,15.005,0,0,0-.08-1.641c.6.04,1.481.08,2.381.08h9.382a10.749,10.749,0,0,0,1.88-.14Z"/>
        <path d="M407.474,103.554a6.984,6.984,0,0,0-.1,1.04c-.08,2.121-.34,7.6-1.181,9.6a2.421,2.421,0,0,1-2.521,1.5c-1.12,0-2.3-.081-3.259-.161l-.3-2.62a15.937,15.937,0,0,0,2.761.281,1.016,1.016,0,0,0,1.1-.7c.58-1.22.84-5.161.84-7.282h-4.44c-.7,5.2-2.581,8.262-6.082,10.742l-2.281-1.82a11.1,11.1,0,0,0,5.8-8.922h-2.581c-.66,0-1.761.021-2.58.08v-2.58a23.173,23.173,0,0,0,2.58.16h2.8c.019-.54.04-1.12.04-1.72a13.925,13.925,0,0,0-.141-1.8h2.881c-.04.461-.1,1.28-.12,1.761-.02.6-.04,1.2-.08,1.76h3.7a9.073,9.073,0,0,0,1.481-.14Z"/>
        <path d="M406.774,121.953a15.217,15.217,0,0,0-.82,1.761,29.921,29.921,0,0,1-2.641,5.341,52.114,52.114,0,0,1,4.661,4.321l-2.02,2.261a40.177,40.177,0,0,0-4.322-4.341,24.731,24.731,0,0,1-7.321,6.081l-2.261-2.02a20.9,20.9,0,0,0,7.482-5.8,55.961,55.961,0,0,0-5.281-3.7l1.7-2.021c1.56.96,3.581,2.361,5.181,3.541a21.992,21.992,0,0,0,2.161-4.661,11.409,11.409,0,0,0,.46-1.8Z"/>
        <path d="M407.194,146.295a34.8,34.8,0,0,0-4.221-4.341l2.06-1.74a37.6,37.6,0,0,1,4.281,4.28Z"/>
        <path d="M362.653,50.154c-.02,1.24,0,2.7.12,4.1.28,2.781.84,4.682,2.061,4.682.94,0,1.7-2.261,2.04-3.8l1.98,2.36c-1.3,3.381-2.5,4.561-4.081,4.561-2.1,0-3.961-1.9-4.52-7.121-.18-1.78-.22-4.041-.22-5.241a13.687,13.687,0,0,0-.12-1.96l2.98.04A15.205,15.205,0,0,0,362.653,50.154Zm13.463,7.961-2.561.981c-.3-3.141-1.32-7.682-3.44-10.082l2.46-.82C374.416,50.453,375.916,55.135,376.116,58.115Z"/>
        <path d="M363.733,74.715a9.36,9.36,0,0,1,5.682-1.841c3.4,0,5.38,2.1,5.38,4.442,0,3.56-2.8,6.26-10.862,5.56l-.74-2.54c5.821.82,8.9-.6,8.9-3.081,0-1.26-1.2-2.18-2.921-2.18a6.892,6.892,0,0,0-5.361,2.281,5.741,5.741,0,0,0-.72,1.12l-2.241-.54a69.691,69.691,0,0,0,.961-8.1l2.62.36C364.173,71.275,363.853,73.6,363.733,74.715Zm.58-8.422a60.192,60.192,0,0,0,7.762,1.5l-.58,2.4c-1.96-.28-6.3-1.18-7.8-1.56Z"/>
        <path d="M362.653,90.874c-.02,1.241,0,2.7.12,4.1.28,2.781.84,4.681,2.061,4.681.94,0,1.7-2.26,2.04-3.8l1.98,2.36c-1.3,3.381-2.5,4.561-4.081,4.561-2.1,0-3.961-1.9-4.52-7.121-.18-1.781-.22-4.041-.22-5.242a13.687,13.687,0,0,0-.12-1.96l2.98.04A15.229,15.229,0,0,0,362.653,90.874Zm13.463,7.962-2.561.981c-.3-3.141-1.32-7.682-3.44-10.082l2.46-.821C374.416,91.174,375.916,95.856,376.116,98.836Z"/>
        <path d="M363.733,115.436a9.36,9.36,0,0,1,5.682-1.841c3.4,0,5.38,2.1,5.38,4.441,0,3.561-2.8,6.261-10.862,5.561l-.74-2.54c5.821.82,8.9-.6,8.9-3.081,0-1.26-1.2-2.18-2.921-2.18a6.891,6.891,0,0,0-5.361,2.28,5.774,5.774,0,0,0-.72,1.121l-2.241-.541a69.672,69.672,0,0,0,.961-8.1l2.62.359C364.173,112,363.853,114.316,363.733,115.436Zm.58-8.422a60.192,60.192,0,0,0,7.762,1.5l-.58,2.4c-1.96-.279-6.3-1.179-7.8-1.559Z"/>
        <path d="M362.653,131.594c-.02,1.24,0,2.7.12,4.1.28,2.781.84,4.681,2.061,4.681.94,0,1.7-2.261,2.04-3.8l1.98,2.361c-1.3,3.381-2.5,4.56-4.081,4.56-2.1,0-3.961-1.9-4.52-7.121-.18-1.78-.22-4.041-.22-5.241a13.687,13.687,0,0,0-.12-1.96l2.98.04A15.205,15.205,0,0,0,362.653,131.594Zm13.463,7.962-2.561.98c-.3-3.14-1.32-7.681-3.44-10.082l2.46-.82C374.416,131.894,375.916,136.575,376.116,139.556Z"/>
        <path d="M363.733,156.156a9.358,9.358,0,0,1,5.682-1.84c3.4,0,5.38,2.1,5.38,4.441,0,3.561-2.8,6.261-10.862,5.561l-.74-2.54c5.821.82,8.9-.6,8.9-3.081,0-1.26-1.2-2.18-2.921-2.18a6.891,6.891,0,0,0-5.361,2.28,5.77,5.77,0,0,0-.72,1.12l-2.241-.54a69.672,69.672,0,0,0,.961-8.1l2.62.359C364.173,152.716,363.853,155.036,363.733,156.156Zm.58-8.421a60.363,60.363,0,0,0,7.762,1.5l-.58,2.4c-1.96-.279-6.3-1.18-7.8-1.56Z"/>
        <path d="M362.653,172.315c-.02,1.24,0,2.7.12,4.1.28,2.782.84,4.682,2.061,4.682.94,0,1.7-2.261,2.04-3.8l1.98,2.36c-1.3,3.381-2.5,4.561-4.081,4.561-2.1,0-3.961-1.9-4.52-7.121-.18-1.78-.22-4.041-.22-5.241a13.687,13.687,0,0,0-.12-1.96l2.98.04A15.205,15.205,0,0,0,362.653,172.315Zm13.463,7.962-2.561.98c-.3-3.141-1.32-7.682-3.44-10.082l2.46-.82C374.416,172.615,375.916,177.3,376.116,180.277Z"/>
        <path d="M363.733,196.876a9.36,9.36,0,0,1,5.682-1.841c3.4,0,5.38,2.1,5.38,4.442,0,3.56-2.8,6.261-10.862,5.56l-.74-2.54c5.821.821,8.9-.6,8.9-3.081,0-1.26-1.2-2.179-2.921-2.179a6.891,6.891,0,0,0-5.361,2.28,5.741,5.741,0,0,0-.72,1.12l-2.241-.54a69.664,69.664,0,0,0,.961-8.1l2.62.36C364.173,193.435,363.853,195.756,363.733,196.876Zm.58-8.422a60.192,60.192,0,0,0,7.762,1.5l-.58,2.4c-1.96-.28-6.3-1.18-7.8-1.56Z"/>
        <path d="M330,50.154c-.02,1.24,0,2.7.12,4.1.28,2.781.84,4.682,2.06,4.682.941,0,1.7-2.261,2.04-3.8L336.2,57.5c-1.3,3.381-2.5,4.561-4.081,4.561-2.1,0-3.961-1.9-4.521-7.121-.179-1.78-.219-4.041-.219-5.241a13.551,13.551,0,0,0-.121-1.96l2.981.04A15.086,15.086,0,0,0,330,50.154Zm13.463,7.961L340.9,59.1c-.3-3.141-1.32-7.682-3.44-10.082l2.46-.82C341.758,50.453,343.258,55.135,343.459,58.115Z"/>
        <path d="M331.076,74.715a9.359,9.359,0,0,1,5.681-1.841c3.4,0,5.381,2.1,5.381,4.442,0,3.56-2.8,6.26-10.862,5.56l-.74-2.54c5.821.82,8.9-.6,8.9-3.081,0-1.26-1.2-2.18-2.921-2.18a6.89,6.89,0,0,0-5.361,2.281,5.741,5.741,0,0,0-.72,1.12l-2.241-.54a69.691,69.691,0,0,0,.961-8.1l2.62.36C331.516,71.275,331.2,73.6,331.076,74.715Zm.58-8.422a60.159,60.159,0,0,0,7.762,1.5l-.581,2.4c-1.959-.28-6.3-1.18-7.8-1.56Z"/>
        <path d="M335.877,90.114c-.94,1.38-2.441,4.081-3.38,5.781a4.471,4.471,0,0,1,2.2-.58,2.334,2.334,0,0,1,2.4,2.56c.04.861,0,2.4.1,3.241a1.1,1.1,0,0,0,1.221,1.04c1.7,0,2.74-2.18,3.3-4.6l2.1,1.72c-1,3.34-2.8,5.521-5.8,5.521-2.14,0-3.14-1.261-3.24-2.681-.061-1.04-.061-2.62-.12-3.4a1.029,1.029,0,0,0-1.12-1.08c-1.321,0-2.4,1.32-3.1,2.92-.5,1.141-1.16,3.281-1.461,4.3l-2.74-.92A152.049,152.049,0,0,1,332.8,90.073c.22-.519.6-1.16.941-1.98l2.76,1.121A8.655,8.655,0,0,0,335.877,90.114Z"/>
        <path d="M333.4,113.413c.641-.04,1.221-.08,1.621-.08,2.06,0,3.5.921,3.5,3.7,0,2.281-.279,5.381-1.1,7.081a3.1,3.1,0,0,1-3.181,1.782,12.086,12.086,0,0,1-2.321-.281l-.42-2.581a10.873,10.873,0,0,0,2.36.421,1.442,1.442,0,0,0,1.461-.841,15.123,15.123,0,0,0,.78-5.321c0-1.519-.66-1.76-1.881-1.76-.3,0-.78.04-1.32.081-.76,2.94-2.16,7.5-3.94,10.362l-2.541-1.021a28.872,28.872,0,0,0,3.9-9.062c-.7.08-1.3.16-1.66.2-.561.08-1.561.2-2.161.32l-.22-2.64a17.713,17.713,0,0,0,2.061,0c.6-.02,1.52-.08,2.5-.16a20.706,20.706,0,0,0,.4-4.1l2.881.3c-.1.52-.221,1.12-.321,1.6Zm7.422-1.78a33.737,33.737,0,0,1,3.4,7.2l-2.46,1.16a22.556,22.556,0,0,0-3.26-7.4Z"/>
        <path d="M334.437,144.637c.76-.08,1.28-.2,1.82-.3,2.46-.6,4.4-2.361,4.4-5.181a4.8,4.8,0,0,0-4.061-5.122,37.2,37.2,0,0,1-1.16,5.242c-1.16,3.921-2.821,6.321-4.941,6.321-2.16,0-3.961-2.381-3.961-5.661,0-4.461,3.9-8.282,8.942-8.282,4.78,0,7.821,3.34,7.821,7.562,0,4.061-2.5,6.982-7.4,7.721Zm-1.5-5.861a32.179,32.179,0,0,0,1.04-4.7,6.127,6.127,0,0,0-4.921,5.622c0,1.96.781,2.9,1.521,2.9C331.376,142.6,332.136,141.4,332.936,138.776Z"/>
        <path d="M337.177,156.554c0-1.2-.96-1.88-2.52-1.88a4.152,4.152,0,0,0-3.2,1.58l-1.64-1.52a6.652,6.652,0,0,1,5.161-2.441c2.9,0,5.021,1.34,5.021,4,0,2.941-4.361,3.28-4.061,6.062h-2.581C332.936,159.214,337.177,158.494,337.177,156.554Zm-2.52,7.182a1.973,1.973,0,1,1-2.081,1.96A1.945,1.945,0,0,1,334.657,163.736Z"/>
      </g>
      <g>
        <path d="M105.155,226.368l.664-.033a1.934,1.934,0,0,0,.6-.227,1.586,1.586,0,0,0,.494-.472q.663.57,1.309,1.172t1.274,1.3a5.814,5.814,0,0,1,.654-1.27q.474-.732,1.139-1.66c.072-.1.146-.195.224-.293s.153-.2.225-.31a1.272,1.272,0,0,0,.511.229,1.5,1.5,0,0,0,.619,0l9-.293a1.364,1.364,0,0,0,.842-.22,1.424,1.424,0,0,0,.449-.724,17.438,17.438,0,0,1,4.555,2.88,3.618,3.618,0,0,1,1.507,2.36,1.379,1.379,0,0,1-.349.871,3.741,3.741,0,0,1-1.014.822l-.341,13.069q0,.309.019.6c.011.195.017.374.017.537a6.889,6.889,0,0,1-1.74,5.118,7.007,7.007,0,0,1-5.129,1.717q-1.83,0-2.2-.6a3.461,3.461,0,0,1-.367-1.775,3.96,3.96,0,0,0-.512-2.018,3.476,3.476,0,0,0-1.8-1.237,10.08,10.08,0,0,1-2.135,3.287,3.322,3.322,0,0,1-2.313,1.108,1.807,1.807,0,0,1-1.668-.9,15.763,15.763,0,0,1-1.148-2.6c-.108-.271-.209-.55-.305-.838s-.2-.588-.322-.9q1.362-.554,2.708-3.369a44.208,44.208,0,0,0,2.725-7.829,1.686,1.686,0,0,1,.036-.333,1.413,1.413,0,0,0,.036-.3.943.943,0,0,0-.3-.708,1.675,1.675,0,0,0-.924-.382,14.433,14.433,0,0,1,2.726-1.465,6.182,6.182,0,0,1,2.278-.505,2.671,2.671,0,0,1,1.919.717,2.486,2.486,0,0,1,.752,1.888,17.653,17.653,0,0,1-.877,4.2q-.952,3.221-2.709,7.762l2.977.293a2.082,2.082,0,0,0,1.587-.561,2.453,2.453,0,0,0,.529-1.734l.377-12.873-9.99.309-1.471-.195a1.229,1.229,0,0,1-.4.985,1.87,1.87,0,0,1-1.246.35q-.629.96-1.256,1.839t-1.291,1.692l1.255,1.025q.628-1.058,1.014-1.675a2.089,2.089,0,0,0,.385-.9l-.143-.423,1.614-.212a1.35,1.35,0,0,1,.978.374,1.174,1.174,0,0,1,.385.864,3.038,3.038,0,0,1-.52,1.5,11.912,11.912,0,0,1-1.578,2.034l1.47.976a9.773,9.773,0,0,0-1.148,2.263q-.735,1.936-1.362,1.937a2.249,2.249,0,0,1-1.166-.635,22.758,22.758,0,0,1-1.829-1.97v8.4a4.539,4.539,0,0,1-.592,2.766,2.027,2.027,0,0,1-1.812.977,3.157,3.157,0,0,1-1.865-.7,9.216,9.216,0,0,1-1.83-2.181,2.221,2.221,0,0,0,.413-.847,4.482,4.482,0,0,0,.125-1.106v-5.778a10.252,10.252,0,0,1-2.044,1.709,3.708,3.708,0,0,1-1.7.521,1.077,1.077,0,0,1-.834-.366,1.432,1.432,0,0,1-.332-1,7.319,7.319,0,0,1,.359-1.465,33.724,33.724,0,0,0,.933-3.353,34.6,34.6,0,0,0,3.156-2.823q1.506-1.523,2.942-3.182l-5.489.326a2.363,2.363,0,0,1-1.721-.464,1.765,1.765,0,0,1-.628-1.424,3.579,3.579,0,0,1,.968-1.774,13.767,13.767,0,0,0,1.345-1.937.753.753,0,0,0,.395.358,1.356,1.356,0,0,0,.574.049l1.794-.065v-1.839a1.916,1.916,0,0,0-.386-.839,1.661,1.661,0,0,0-.726-.5,14.117,14.117,0,0,1,2.474-1.692,4.763,4.763,0,0,1,2.171-.6,3.383,3.383,0,0,1,2.08.6,1.729,1.729,0,0,1,.807,1.4.808.808,0,0,1-.215.562,1.964,1.964,0,0,1-.664.431Z" fill="#121659"/>
        <path d="M99.47,278.4v-9.96a9.858,9.858,0,0,1-1.776,2.1,2.336,2.336,0,0,1-1.345.667,1.27,1.27,0,0,1-.96-.431,1.685,1.685,0,0,1-.4-1.2,12.9,12.9,0,0,1,.431-2.506,35.711,35.711,0,0,0,.7-3.532,9.676,9.676,0,0,0,2.386-2.1,29,29,0,0,0,2.905-4.036l.233-.5a.268.268,0,0,0-.117-.2,3.087,3.087,0,0,0-.26-.195,9.333,9.333,0,0,1,2.242-1.1,7.579,7.579,0,0,1,2.35-.366,2.527,2.527,0,0,1,1.784.562,2.129,2.129,0,0,1,.6,1.635,5.847,5.847,0,0,1-.627,2.361,20.758,20.758,0,0,1-1.794,3.043v18.032a8.12,8.12,0,0,1-.879,3.662,2.469,2.469,0,0,1-2.206,1.2,3.048,3.048,0,0,1-2.277-1.106,14.409,14.409,0,0,1-2.171-3.272,3.687,3.687,0,0,0,.888-1.236A3.8,3.8,0,0,0,99.47,278.4Zm13.81-15.722-.234-2.831a2.424,2.424,0,0,0-.358-1.262,1.884,1.884,0,0,0-1.022-.708q.215-.162.457-.349c.162-.125.314-.253.458-.383q1.362-1.043,2.3-1.676a3.216,3.216,0,0,1,1.81-.635,4.13,4.13,0,0,1,2.574.87,2.45,2.45,0,0,1,1.139,1.929,1.563,1.563,0,0,1-.26.871,4.043,4.043,0,0,1-.726.806l.107,2.7,3.533-.374.772-.391a16.88,16.88,0,0,0-1.22-2.278,4.207,4.207,0,0,0-1.363-1.3,6.105,6.105,0,0,1,1.749-1.562,4.107,4.107,0,0,1,2.071-.536,3.822,3.822,0,0,1,2.717,1.073,3.413,3.413,0,0,1,1.139,2.572,2.151,2.151,0,0,1-.681,1.676,3.855,3.855,0,0,1-2.1.813,9.259,9.259,0,0,1,2.116,2.271,4.14,4.14,0,0,1,.7,2.173,2.729,2.729,0,0,1-.825,2.01,2.6,2.6,0,0,1-1.883.822,3.01,3.01,0,0,1-1.345-.318,5.326,5.326,0,0,1-1.31-.952l-3.479.359a19.774,19.774,0,0,0,1.095,4.671,5.984,5.984,0,0,0,1.434,2.229,6.944,6.944,0,0,0,1.229.919,2.007,2.007,0,0,0,.905.317c.168.023.344-.094.529-.349a11.641,11.641,0,0,0,.673-1.082q.2-.325.431-.733t.573-.895l1.13.424q-.322,1.171-.52,1.9a9,9,0,0,0-.143,1.433,4.464,4.464,0,0,0,.932,2.409,3.2,3.2,0,0,1,.717,1.561A3.332,3.332,0,0,1,128,283.42a3.9,3.9,0,0,1-2.761,1.017q-3.858,0-7.193-4.1a21,21,0,0,1-4.339-11.571l-2.745.309a5.688,5.688,0,0,1-3.156-.764,2.165,2.165,0,0,1-1.148-1.872,3.541,3.541,0,0,1,.664-1.432,33,33,0,0,1,2.134-2.67.834.834,0,0,0,.349.424,1.745,1.745,0,0,0,.6.211Z" fill="#121659"/>
      </g>
    </g>
  </g>
</svg>
