<svg xmlns="http://www.w3.org/2000/svg" xmlns:xlink="http://www.w3.org/1999/xlink" width="450.685" height="240.299" viewBox="0 0 450.685 240.299">
  <defs>
    <clipPath id="clip-path">
      <polygon points="152.492 100.891 147.802 80.751 135.784 80.751 135.784 100.891 152.492 100.891" fill="none"/>
    </clipPath>
    <clipPath id="clip-path-2">
      <polygon points="96.504 100.891 101.194 80.751 113.212 80.751 113.212 100.891 96.504 100.891" fill="none"/>
    </clipPath>
  </defs>
  <g id="レイヤー_2" data-name="レイヤー 2">
    <g id="レイヤー_1-2" data-name="レイヤー 1">
      <g>
        <g>
          <g>
            <g>
              <g>
                <path d="M88.174,193.873,77.061,181.1c7.429-12.916,15.284-16.737,15.284-16.737s8.993-4.464,13.2,6.008c3.329,8.272-10.844,17.31-10.844,17.31A55.4,55.4,0,0,0,88.174,193.873Z" fill="#e84572"/>
                <path d="M63.234,228.212c-.21.148-4.326,3.112-5.609,2.276-1.071-.7-.527-2.058.746-3.062s6.7-5.459,6.7-5.459c2.042-18.987,6.913-32.046,11.988-40.869l11.113,12.775a66.674,66.674,0,0,0-14.93,29.591s4.808,6.983,5.189,7.715c.846,1.615.486,2.621-.61,2.708-1.425.1-4.357-4.006-4.357-4.006s-1,7.085-1.117,7.937a2.094,2.094,0,0,1-2.284,1.926c-1.476-.181-1.488-2.371-1.488-2.371a1.872,1.872,0,0,1-2.261,1.853c-1.446-.3-1.287-2.258-1.258-2.5-.213.932-.969,2.275-2.3,1.952-1.621-.4-1.061-2.744-1.061-2.744Z" fill="#f4aeb6"/>
              </g>
              <g>
                <path d="M66.74,239.809a2.547,2.547,0,0,1-.538-.059c-1.568-.327-1.792-2.093-1.676-3.086a.531.531,0,0,1,.594-.47.537.537,0,0,1,.47.595c-.008.069-.187,1.7.835,1.913a1.235,1.235,0,0,0,1.015-.187,1.638,1.638,0,0,0,.6-1.2l1.4-7.488a.536.536,0,1,1,1.054.2L69.1,237.472a2.652,2.652,0,0,1-1.036,1.911A2.246,2.246,0,0,1,66.74,239.809Z" fill="#231815"/>
                <path d="M63.149,239.263a2.226,2.226,0,0,1-.52-.063c-1.694-.422-1.692-2.4-1.456-3.39l1.535-7.7a.536.536,0,0,1,1.051.209L62.22,236.04c-.008.038-.42,1.849.665,2.119a.957.957,0,0,0,.766-.112,2.379,2.379,0,0,0,.878-1.415c0-.015.005-.03.009-.046.2-.9,1.356-7.351,1.368-7.416a.536.536,0,0,1,1.055.188c-.047.265-1.151,6.427-1.372,7.437a.454.454,0,0,1-.009.051,3.449,3.449,0,0,1-1.365,2.112A2,2,0,0,1,63.149,239.263Z" fill="#231815"/>
                <path d="M70.354,240.3a2.744,2.744,0,0,1-.355-.023c-1.534-.189-1.952-1.911-1.958-2.9a.536.536,0,0,1,.533-.539h0a.536.536,0,0,1,.536.532c0,.036.035,1.722,1.017,1.843,1.433.173,1.686-1.455,1.689-1.471.112-.847,1.117-7.936,1.117-7.936a.535.535,0,0,1,.966-.236c1.333,1.867,3.22,3.823,3.882,3.783.38-.03.474-.2.5-.255a2.063,2.063,0,0,0-.331-1.67c-.269-.517-3.23-4.864-5.155-7.66a.533.533,0,0,1-.086-.4,67.824,67.824,0,0,1,15.058-29.855,56.1,56.1,0,0,1,6.594-6.255c.184-.122,13.807-8.928,10.682-16.692-1.269-3.156-3.1-5.211-5.454-6.106a9.685,9.685,0,0,0-7.013.378c-.081.039-7.813,3.928-15.059,16.524-6.159,10.709-10.17,24.389-11.919,40.659a.539.539,0,0,1-.192.357c-.222.181-5.441,4.477-6.713,5.468a2.471,2.471,0,0,0-1.11,1.677.614.614,0,0,0,.327.514c.459.3,2.362-.388,4.985-2.25h0a.54.54,0,0,1,.639-.023.532.532,0,0,1,.138.741.592.592,0,0,1-.137.141c-1.749,1.242-4.854,3.171-6.211,2.288a1.683,1.683,0,0,1-.812-1.364,3.356,3.356,0,0,1,1.519-2.568c1.137-.884,5.6-4.551,6.525-5.313,1.778-16.324,5.825-30.07,12.032-40.861,7.426-12.91,15.188-16.793,15.515-16.952a10.664,10.664,0,0,1,7.867-.418c2.641,1.006,4.682,3.263,6.067,6.708,1.446,3.591-.035,7.853-4.282,12.326a40.3,40.3,0,0,1-6.771,5.636,55.334,55.334,0,0,0-6.42,6.1,66.891,66.891,0,0,0-14.759,29.114c.869,1.264,4.733,6.891,5.095,7.587.725,1.382.573,2.223.318,2.684a1.626,1.626,0,0,1-1.361.8c-1.229.084-2.966-1.819-4.049-3.185-.3,2.081-.853,6.03-.935,6.653A2.664,2.664,0,0,1,70.354,240.3Z" fill="#231815"/>
                <path d="M88.173,194.413a.537.537,0,0,1-.439-.228L76.656,181.45a.536.536,0,0,1,.809-.7l11.113,12.776a.522.522,0,0,1,.118.233.537.537,0,0,1-.4.644A.553.553,0,0,1,88.173,194.413Z" fill="#231815"/>
              </g>
            </g>
            <g>
              <g>
                <path d="M160.584,193.408l10.906-12.946c-7.637-12.8-15.552-16.5-15.552-16.5s-9.064-4.323-13.1,6.214c-3.195,8.323,11.122,17.138,11.122,17.138A55.376,55.376,0,0,1,160.584,193.408Z" fill="#e84572"/>
                <path d="M186.075,227.353c.212.145,4.375,3.044,5.645,2.188,1.06-.719.494-2.065-.795-3.049s-6.79-5.354-6.79-5.354c-2.347-18.953-7.428-31.934-12.645-40.676l-10.906,12.946a66.7,66.7,0,0,1,15.405,29.354s-4.694,7.058-5.063,7.8c-.82,1.627-.444,2.628.653,2.7,1.427.083,4.292-4.073,4.292-4.073s1.118,7.069,1.245,7.919a2.1,2.1,0,0,0,2.315,1.89c1.473-.205,1.449-2.394,1.449-2.394a1.873,1.873,0,0,0,2.291,1.817c1.441-.323,1.25-2.278,1.218-2.519.227.929,1,2.261,2.333,1.917,1.615-.429,1.017-2.761,1.017-2.761Z" fill="#f4aeb6"/>
              </g>
              <g>
                <path d="M182.72,239a2.249,2.249,0,0,1-1.3-.406,2.688,2.688,0,0,1-1.073-1.938l-1.508-7.377a.536.536,0,1,1,1.05-.214l1.515,7.421a1.683,1.683,0,0,0,.631,1.23,1.22,1.22,0,0,0,1.012.173c1.023-.231.819-1.858.81-1.927a.536.536,0,1,1,1.062-.141c.132.99-.064,2.759-1.632,3.112A2.467,2.467,0,0,1,182.72,239Z" fill="#231815"/>
                <path d="M186.305,238.4a2,2,0,0,1-1.038-.289,3.444,3.444,0,0,1-1.4-2.09c0-.017-.007-.033-.009-.049-.236-1-1.44-7.152-1.492-7.416a.536.536,0,1,1,1.052-.206c.012.065,1.271,6.5,1.487,7.394a.358.358,0,0,1,.009.045,2.39,2.39,0,0,0,.9,1.4.969.969,0,0,0,.772.1c1.077-.287.636-2.092.632-2.11l-1.669-7.716a.536.536,0,0,1,1.048-.227l1.664,7.7c.247.965.28,2.944-1.4,3.391A2.188,2.188,0,0,1,186.305,238.4Z" fill="#231815"/>
                <path d="M179.108,239.55a2.666,2.666,0,0,1-2.521-2.364c-.094-.625-.716-4.568-1.044-6.644-1.061,1.383-2.791,3.3-4,3.248a1.631,1.631,0,0,1-1.377-.784c-.262-.457-.427-1.295.276-2.689.35-.7,4.123-6.387,4.972-7.665a66.948,66.948,0,0,0-15.228-28.88,55.134,55.134,0,0,0-6.564-6.032c-.552-.337-14.611-9.115-11.294-17.753,1.329-3.466,3.333-5.754,5.957-6.8a10.655,10.655,0,0,1,7.878.295c.326.152,8.149,3.914,15.782,16.706,6.38,10.691,10.649,24.372,12.69,40.668.938.747,5.458,4.343,6.607,5.209a3.355,3.355,0,0,1,1.563,2.545,1.682,1.682,0,0,1-.788,1.376c-1.345.9-4.48-.975-6.229-2.176a.693.693,0,0,1-.151-.14.541.541,0,0,1,.114-.753.533.533,0,0,1,.664.024c2.652,1.813,4.548,2.461,5,2.157a.614.614,0,0,0,.318-.518,2.476,2.476,0,0,0-1.14-1.661c-1.286-.969-6.574-5.183-6.8-5.361a.532.532,0,0,1-.2-.353c-2.011-16.243-6.242-29.858-12.573-40.467-7.448-12.482-15.242-16.251-15.32-16.287a9.738,9.738,0,0,0-7.033-.265c-2.329.934-4.127,3.015-5.343,6.186-3,7.812,10.763,16.4,10.9,16.49a55.939,55.939,0,0,1,6.741,6.183,67.866,67.866,0,0,1,15.538,29.617.536.536,0,0,1-.079.4c-1.88,2.826-4.771,7.22-5.031,7.739a2.064,2.064,0,0,0-.3,1.677.589.589,0,0,0,.512.247c.647.048,2.515-1.956,3.817-3.843a.535.535,0,0,1,.97.22s1.119,7.073,1.246,7.924c0,.009.283,1.629,1.711,1.439.986-.138.988-1.842.987-1.859a.537.537,0,0,1,.532-.54h0a.535.535,0,0,1,.536.529c.011.988-.38,2.718-1.911,2.931A2.9,2.9,0,0,1,179.108,239.55Z" fill="#231815"/>
                <path d="M160.583,193.948a.427.427,0,0,1-.087-.008.532.532,0,0,1-.442-.612.555.555,0,0,1,.121-.265l10.906-12.946a.535.535,0,1,1,.819.69l-10.891,12.928A.539.539,0,0,1,160.583,193.948Z" fill="#231815"/>
              </g>
            </g>
            <g>
              <path d="M124.067,157.868h20.269s11.809.944,11.809,17.048-1.588,57.3-1.588,57.3a113.385,113.385,0,0,1-30.49,4.6,113.388,113.388,0,0,1-30.491-4.6s-1.587-41.2-1.587-57.3S103.8,157.868,103.8,157.868Z" fill="#e84572"/>
              <path d="M124.067,237.347a114.987,114.987,0,0,1-30.653-4.621.536.536,0,0,1-.373-.49c-.016-.412-1.588-41.39-1.588-57.32,0-8.538,3.325-12.864,6.115-14.989a12.83,12.83,0,0,1,6.186-2.593l40.582,0c.166.012,12.345,1.175,12.345,17.584,0,15.93-1.573,56.908-1.589,57.32a.533.533,0,0,1-.373.49A114.975,114.975,0,0,1,124.067,237.347ZM94.1,231.815a114.112,114.112,0,0,0,29.97,4.461,114.033,114.033,0,0,0,29.969-4.461c.16-4.2,1.573-41.813,1.573-56.9,0-15.392-10.854-16.475-11.316-16.514H103.8c-.418.038-11.272,1.121-11.272,16.513C92.525,190,93.937,227.611,94.1,231.815Z" fill="#231815"/>
            </g>
            <g>
              <g>
                <path d="M94.82,126.965c.121,1.679.281,3.254.463,4.739-2.564,0-6.614-.731-6.243-5.388s5.56-4.075,5.56-4.075C94.638,123.906,94.714,125.473,94.82,126.965Z" fill="#f4aeb6"/>
                <path d="M153.373,126.965c.1-1.485.175-3.059.205-4.724h.008s5.172-.589,5.552,4.075c.379,4.649-3.656,5.381-6.22,5.388Q153.191,129.5,153.373,126.965Z" fill="#f4aeb6"/>
                <path d="M126.842,133.07c.091,1.179-.88,2.156-2.776,2.156s-2.867-.977-2.776-2.156,2.776-8.157,2.776-8.157S126.759,131.883,126.842,133.07Z" fill="#f4aeb6"/>
                <path d="M138.909,120.01a5.865,5.865,0,0,0-4.209-1.769,5.743,5.743,0,1,0,5.84,5.747A5.654,5.654,0,0,0,138.909,120.01Zm-14.835,26.836a12.961,12.961,0,0,0,3.481-.448,9.5,9.5,0,0,0,4.179-2.321,6.918,6.918,0,0,0,2.2-4.082,3.3,3.3,0,0,0,0-.545,2.519,2.519,0,0,0-2.405-2.283H116.611a2.528,2.528,0,0,0-2.412,2.283,3.1,3.1,0,0,0,0,.545,6.929,6.929,0,0,0,2.207,4.082,9.55,9.55,0,0,0,4.171,2.321,13.022,13.022,0,0,0,3.489.448c-2.5,3.388-9.5,5.716-9.5,5.716-9.443-4.552-14.016-16.358-11.748-31.783,2.92-19.836,21.055-19.888,21.244-19.888s18.325.052,21.252,19.888c2.276,15.44-2.252,27.253-11.741,31.791l-.007-.008s-6.993-2.328-9.5-5.716Zm-.008-11.62c1.9,0,2.867-.977,2.776-2.156s-2.776-8.157-2.776-8.157-2.692,6.97-2.776,8.157S122.17,135.226,124.066,135.226Zm-4.854-11.238a5.79,5.79,0,0,0-5.833-5.747,5.865,5.865,0,0,0-4.209,1.769,5.654,5.654,0,0,0-1.631,3.978,5.837,5.837,0,0,0,11.673,0Z" fill="#f4aeb6"/>
                <path d="M124.066,146.846c2.511,3.388,9.5,5.716,9.5,5.716l.007.008a23.146,23.146,0,0,1-19.007-.008S121.563,150.234,124.066,146.846Z" fill="#231815"/>
                <path d="M124.066,144.077v2.769a13.022,13.022,0,0,1-3.489-.448v-2.321Z" fill="#fff"/>
                <path d="M120.577,144.077V146.4a9.55,9.55,0,0,1-4.171-2.321Z" fill="#fff"/>
                <path d="M127.555,144.077h4.179a9.5,9.5,0,0,1-4.179,2.321Z" fill="#fff"/>
                <path d="M127.555,144.077V146.4a12.961,12.961,0,0,1-3.481.448h-.008v-2.769Z" fill="#fff"/>
                <rect x="117.088" y="137.167" width="3.489" height="2.828" fill="#fff"/>
                <rect x="120.577" y="137.167" width="3.489" height="2.828" fill="#fff"/>
                <path d="M117.088,137.167V140H114.2a3.1,3.1,0,0,1,0-.545,2.528,2.528,0,0,1,2.412-2.283Z" fill="#fff"/>
                <rect x="127.555" y="137.167" width="3.497" height="2.828" fill="#fff"/>
                <rect x="124.066" y="137.167" width="3.489" height="2.828" fill="#fff"/>
                <path d="M133.934,139.45a3.3,3.3,0,0,1,0,.545h-2.882v-2.828h.477A2.519,2.519,0,0,1,133.934,139.45Z" fill="#fff"/>
                <path d="M138.909,120.01a5.654,5.654,0,0,1,1.631,3.978,5.837,5.837,0,1,1-5.84-5.747A5.865,5.865,0,0,1,138.909,120.01Z" fill="#fff"/>
                <path d="M109.17,120.01a5.865,5.865,0,0,1,4.209-1.769,5.743,5.743,0,1,1-5.84,5.747A5.654,5.654,0,0,1,109.17,120.01Z" fill="#fff"/>
                <path d="M131.052,140h2.882a6.918,6.918,0,0,1-2.2,4.082H116.406A6.929,6.929,0,0,1,114.2,140h16.853Z" fill="#e84572"/>
                <path d="M136.977,122.575a1,1,0,1,0-1,.985A.992.992,0,0,0,136.977,122.575Zm-1-2.873a2.873,2.873,0,1,1-2.92,2.873A2.9,2.9,0,0,1,135.976,119.7Z" fill="#97d2ce"/>
                <path d="M111.728,122.575a2.924,2.924,0,1,1,2.927,2.873A2.9,2.9,0,0,1,111.728,122.575Zm2.927-.985a.985.985,0,1,0,1,.985A.993.993,0,0,0,114.655,121.59Z" fill="#97d2ce"/>
                <path d="M124.051,43.444c-.516.283-15.2,8.582-24.172,40.917,0,0-9.041-6.1-13.137-12.679C86.742,71.682,110.884,48.384,124.051,43.444Z" fill="#97d2ce"/>
                <path d="M124.081,43.444c13.167,4.94,37.309,28.238,37.309,28.238-4.1,6.582-13.136,12.679-13.136,12.679C139.281,52.026,124.6,43.727,124.081,43.444Z" fill="#97d2ce"/>
                <path d="M115.132,165.905c-1.965,2.254-3.027,6.814-1.7,8.552,3.39,4.448,3.519,5.6,1.653,7.187-1.653,1.4-5.643.149-8.2-3.627s-.834-7.783-.614-11.709a7.128,7.128,0,0,0-.994-4.149l-.8.3c-6.773.6-4.589,4.747-3.239,8.672s.076,7.627-1.805,9.1-5.567,2.224-5.043-3.7-3.163-3.627-5.423-10.888a8.535,8.535,0,0,1,4.1-10.388c7.456-4.261,3.906-9.783,2.215-23.552-.182-1.485-.342-3.06-.463-4.739-.106-1.492-.182-3.059-.22-4.724a114.437,114.437,0,0,1,1.9-22.895c.978-5.492,2.116-10.47,3.375-14.985,8.972-32.335,23.656-40.634,24.172-40.917.008,0,.008-.008.015-.008s.008.008.015.008c.516.283,15.2,8.582,24.173,40.917,1.259,4.515,2.4,9.493,3.375,14.985a116.143,116.143,0,0,1,1.949,22.895c-.03,1.665-.106,3.239-.205,4.724q-.181,2.53-.455,4.739c-1.585,13.321-4.884,18.455,2.518,22.686,0,0,8.131,4.217,9.109,8.739,1.806,8.328-4.968,9.03-4.968,13.993s-3.762,4.671-4.892,2.149-1.031-5.694.3-9.075c2.109-5.365-3.618-8.918-7.114-8.664a13.741,13.741,0,0,0,.8,1.888c2.405,4.814,1.578,8.448,0,12.888s-4.892,7.187-7,5.9,0-5.082.675-7.948a8.6,8.6,0,0,0-3.535-8.806c-3.087-2.045-7.509,0-7.509,0a6.209,6.209,0,0,1,.584,3.821c-.3,2.746-.978,6.671.6,8.149a7.2,7.2,0,0,1,1.881,6.3c-.448,2.075-2.708,1.627-2.708,1.627-6.705-2.44-7.152-5.626-7.9-11.328S115.132,165.905,115.132,165.905Zm18.445-13.335c9.489-4.538,14.017-16.351,11.741-31.791-2.927-19.836-21.062-19.888-21.252-19.888s-18.324.052-21.244,19.888c-2.268,15.425,2.3,27.231,11.748,31.783a23.146,23.146,0,0,0,19.007.008Z" fill="#97d2ce"/>
                <ellipse cx="135.976" cy="122.575" rx="1.001" ry="0.985" fill="#231815"/>
                <ellipse cx="114.655" cy="122.575" rx="1.001" ry="0.985" fill="#231815"/>
              </g>
              <g>
                <path d="M113.334,182.737a4.893,4.893,0,0,1-.662-.046,9.74,9.74,0,0,1-6.229-4.373c-2.015-2.974-1.537-6.047-1.076-9.019.155-1,.315-2.026.371-3.021a6.576,6.576,0,0,0-.917-3.841,5.657,5.657,0,0,0-1.332-1.544.536.536,0,0,1,.621-.873,6.626,6.626,0,0,1,1.628,1.861,7.738,7.738,0,0,1,1.07,4.457c-.059,1.048-.223,2.1-.382,3.126-.449,2.894-.874,5.628.905,8.253a8.548,8.548,0,0,0,5.486,3.912,2.449,2.449,0,0,0,1.922-.394c1.436-1.222,1.755-1.878-1.732-6.453-1.563-2.046-.339-6.865,1.721-9.229a3.868,3.868,0,0,1,2.491-1.48.543.543,0,0,1,.585.482.536.536,0,0,1-.482.585,2.9,2.9,0,0,0-1.787,1.117c-1.877,2.154-2.786,6.422-1.676,7.875,3.263,4.283,3.907,5.933,1.575,7.92A3.2,3.2,0,0,1,113.334,182.737Z" fill="#231815"/>
                <path d="M132.168,185.929a3.192,3.192,0,0,1-.621-.058.42.42,0,0,1-.079-.022c-7.04-2.562-7.5-6.025-8.252-11.762-.7-5.3-8.166-7.646-8.241-7.669a.536.536,0,1,1,.313-1.025c.335.1,8.2,2.573,8.991,8.554.748,5.683,1.125,8.542,7.512,10.879a1.67,1.67,0,0,0,2.044-1.22,6.7,6.7,0,0,0-1.724-5.8c-1.609-1.506-1.2-4.94-.87-7.7.037-.31.073-.61.1-.9a5.71,5.71,0,0,0-.52-3.5,6.353,6.353,0,0,0-2.113-2.134.536.536,0,0,1,.6-.891,7.362,7.362,0,0,1,2.453,2.506,6.713,6.713,0,0,1,.648,4.139c-.032.291-.069.6-.106.908-.284,2.387-.675,5.655.539,6.792a7.757,7.757,0,0,1,2.038,6.8A2.587,2.587,0,0,1,132.168,185.929Z" fill="#231815"/>
                <path d="M142.815,183.06a2.705,2.705,0,0,1-1.432-.4c-1.946-1.191-1.039-3.91-.239-6.308.25-.751.509-1.527.672-2.219a8.119,8.119,0,0,0-3.309-8.237c-2.8-1.85-6.946.021-6.988.04a.536.536,0,0,1-.45-.972c.192-.089,4.731-2.147,8.03.039a9.113,9.113,0,0,1,3.76,9.376c-.174.739-.441,1.538-.7,2.312-.707,2.118-1.438,4.309-.219,5.055a1.873,1.873,0,0,0,1.67.094c1.718-.607,3.545-2.9,4.546-5.712,1.473-4.145,2.41-7.695.026-12.468a14.012,14.012,0,0,1-.827-1.964c-1.181-3.58.742-4.3.825-4.334a.536.536,0,0,1,.356,1.011c-.336.149-.827.975-.162,2.991a13.207,13.207,0,0,0,.767,1.817c2.568,5.142,1.531,9.069.025,13.306-1.121,3.147-3.162,5.645-5.2,6.363A3.463,3.463,0,0,1,142.815,183.06Z" fill="#231815"/>
                <path d="M124.066,155.143a22.184,22.184,0,0,1-9.728-2.1h0c-9.824-4.735-14.328-16.827-12.047-32.343,2.962-20.114,21.008-20.346,21.775-20.346s18.814.232,21.782,20.346c2.293,15.556-2.208,27.651-12.039,32.352A22.288,22.288,0,0,1,124.066,155.143Zm0-53.716c-.729,0-17.886.221-20.714,19.43-2.21,15.028,2.071,26.7,11.451,31.223h0a22.617,22.617,0,0,0,18.542.007c9.386-4.489,13.663-16.163,11.443-31.23C141.953,101.648,124.8,101.427,124.066,101.427Z" fill="#231815"/>
                <path d="M95.29,132.24c-1.755,0-4.142-.328-5.585-1.89a5.161,5.161,0,0,1-1.2-4.077,4.647,4.647,0,0,1,1.632-3.366,6.657,6.657,0,0,1,4.522-1.2.536.536,0,0,1-.12,1.065,5.669,5.669,0,0,0-3.726.964,3.627,3.627,0,0,0-1.24,2.622,4.132,4.132,0,0,0,.919,3.262c1.179,1.278,3.256,1.546,4.79,1.546a.539.539,0,0,1,.539.536A.533.533,0,0,1,95.29,132.24Z" fill="#231815"/>
                <path d="M94.827,127.5H92.15a.536.536,0,1,1,0-1.071h2.67a.536.536,0,0,1,.007,1.071Z" fill="#231815"/>
                <path d="M152.92,132.24l-.024-1.072c1.554,0,3.628-.276,4.8-1.55a4.13,4.13,0,0,0,.909-3.258,3.627,3.627,0,0,0-1.24-2.624,5.657,5.657,0,0,0-3.719-.962.53.53,0,0,1-.592-.473.536.536,0,0,1,.472-.592,6.657,6.657,0,0,1,4.515,1.2,4.657,4.657,0,0,1,1.632,3.368,5.148,5.148,0,0,1-1.188,4.07C157.051,131.9,154.667,132.235,152.92,132.24Z" fill="#231815"/>
                <path d="M156.028,127.5h-2.655a.542.542,0,0,1-.543-.536.528.528,0,0,1,.528-.535h2.67a.536.536,0,1,1,0,1.071Z" fill="#231815"/>
                <path d="M124.066,135.762a3.5,3.5,0,0,1-2.707-.98,2.287,2.287,0,0,1-.6-1.754c.086-1.227,2.532-7.587,2.811-8.308a.536.536,0,0,1,1,0c.279.721,2.724,7.081,2.811,8.312a2.291,2.291,0,0,1-.6,1.75A3.5,3.5,0,0,1,124.066,135.762Zm0-9.345a57.224,57.224,0,0,0-2.241,6.691,1.219,1.219,0,0,0,.32.946,3.215,3.215,0,0,0,3.842,0,1.213,1.213,0,0,0,.321-.943A56.893,56.893,0,0,0,124.066,126.417Z" fill="#231815"/>
                <path d="M124.074,147.381h-.008a13.622,13.622,0,0,1-3.632-.467,10.026,10.026,0,0,1-4.4-2.452,7.457,7.457,0,0,1-2.368-4.417,3.839,3.839,0,0,1,0-.644,3.026,3.026,0,0,1,2.925-2.77h14.939a3.017,3.017,0,0,1,2.938,2.768,3.874,3.874,0,0,1,0,.638,7.461,7.461,0,0,1-2.362,4.427,9.99,9.99,0,0,1-4.409,2.451A13.611,13.611,0,0,1,124.074,147.381ZM116.61,137.7a1.959,1.959,0,0,0-1.879,1.8,2.838,2.838,0,0,0,0,.451,6.392,6.392,0,0,0,2.043,3.736,8.987,8.987,0,0,0,3.943,2.191,12.53,12.53,0,0,0,3.347.429h.008a12.489,12.489,0,0,0,3.338-.429,8.932,8.932,0,0,0,3.948-2.187,6.36,6.36,0,0,0,2.04-3.745,2.7,2.7,0,0,0,0-.45,1.96,1.96,0,0,0-1.891-1.8Z" fill="#231815"/>
                <path d="M133.949,140.531H114.2a.539.539,0,0,1-.539-.536.532.532,0,0,1,.532-.535h19.743a.541.541,0,0,1,.543.535A.529.529,0,0,1,133.949,140.531Z" fill="#231815"/>
                <path d="M124.066,140.531a.536.536,0,0,1-.536-.536v-2.828a.536.536,0,0,1,1.072,0V140A.536.536,0,0,1,124.066,140.531Z" fill="#231815"/>
                <path d="M120.577,140.531a.536.536,0,0,1-.536-.536v-2.828a.536.536,0,0,1,1.072,0V140A.536.536,0,0,1,120.577,140.531Z" fill="#231815"/>
                <path d="M117.088,140.531a.535.535,0,0,1-.535-.536v-2.828a.536.536,0,1,1,1.071,0V140A.536.536,0,0,1,117.088,140.531Z" fill="#231815"/>
                <path d="M127.555,140.531a.536.536,0,0,1-.536-.536v-2.828a.536.536,0,1,1,1.072,0V140A.536.536,0,0,1,127.555,140.531Z" fill="#231815"/>
                <path d="M124.066,147.381a.535.535,0,0,1-.536-.535v-2.769a.536.536,0,0,1,1.072,0v2.769A.535.535,0,0,1,124.066,147.381Z" fill="#231815"/>
                <path d="M120.577,146.933a.535.535,0,0,1-.536-.535v-2.321a.536.536,0,0,1,1.072,0V146.4A.535.535,0,0,1,120.577,146.933Z" fill="#231815"/>
                <path d="M127.555,146.933a.535.535,0,0,1-.536-.535v-2.321a.536.536,0,0,1,1.072,0V146.4A.535.535,0,0,1,127.555,146.933Z" fill="#231815"/>
                <path d="M131.052,140.531a.536.536,0,0,1-.536-.536v-2.828a.536.536,0,1,1,1.071,0V140A.535.535,0,0,1,131.052,140.531Z" fill="#231815"/>
                <path d="M131.734,144.613H116.406a.536.536,0,1,1,0-1.071h15.328a.536.536,0,1,1,0,1.071Z" fill="#231815"/>
                <path d="M114.57,153.1a.536.536,0,0,1-.169-1.044c.068-.023,6.862-2.315,9.234-5.527a.536.536,0,1,1,.862.637c-2.574,3.484-9.465,5.809-9.758,5.907A.553.553,0,0,1,114.57,153.1Z" fill="#231815"/>
                <path d="M133.57,153.1a.553.553,0,0,1-.169-.027c-.292-.1-7.184-2.422-9.765-5.906a.536.536,0,1,1,.861-.638c2.379,3.212,9.174,5.5,9.242,5.527a.536.536,0,0,1-.169,1.044Z" fill="#231815"/>
                <path d="M113.379,130.262A6.333,6.333,0,0,1,107,123.987a6.186,6.186,0,0,1,1.784-4.351,6.325,6.325,0,1,1,4.592,10.626Zm0-11.485a5.3,5.3,0,0,0-3.825,1.607,5.124,5.124,0,0,0-1.479,3.6,5.3,5.3,0,1,0,5.3-5.21Z" fill="#231815"/>
                <path d="M114.656,125.984a3.409,3.409,0,1,1,3.456-3.409A3.441,3.441,0,0,1,114.656,125.984Zm0-5.746a2.338,2.338,0,1,0,2.384,2.337A2.367,2.367,0,0,0,114.656,120.238Z" fill="#231815"/>
                <path d="M111.62,118.905a.537.537,0,0,1-.507-.361l-.72-2.082a.536.536,0,1,1,1.013-.351l.72,2.082a.534.534,0,0,1-.331.681A.513.513,0,0,1,111.62,118.905Z" fill="#231815"/>
                <path d="M109.172,120.552a.526.526,0,0,1-.356-.139l-.008-.007-1.763-1.705a.536.536,0,0,1,.745-.77l1.753,1.694a.538.538,0,0,1-.371.927Z" fill="#231815"/>
                <path d="M115.594,119.121a.552.552,0,0,1-.174-.029.536.536,0,0,1-.332-.682l.72-2.09a.536.536,0,1,1,1.013.35l-.72,2.09A.538.538,0,0,1,115.594,119.121Z" fill="#231815"/>
                <path d="M118.037,120.769a.531.531,0,0,1-.385-.162.537.537,0,0,1,.011-.758l1.76-1.708a.536.536,0,0,1,.746.769l-1.759,1.708A.534.534,0,0,1,118.037,120.769Z" fill="#231815"/>
                <path d="M134.7,130.262a6.278,6.278,0,1,1,4.593-10.626,6.189,6.189,0,0,1,1.783,4.351A6.332,6.332,0,0,1,134.7,130.262Zm0-11.485a5.208,5.208,0,1,0,5.3,5.21,5.122,5.122,0,0,0-1.477-3.6A5.3,5.3,0,0,0,134.7,118.777Z" fill="#231815"/>
                <path d="M135.976,125.984a3.409,3.409,0,1,1,3.463-3.409A3.436,3.436,0,0,1,135.976,125.984Zm0-5.746a2.338,2.338,0,1,0,2.392,2.337A2.363,2.363,0,0,0,135.976,120.238Z" fill="#231815"/>
                <path d="M136.46,118.905a.518.518,0,0,1-.176-.031.535.535,0,0,1-.331-.681l.721-2.082a.535.535,0,1,1,1.012.35l-.72,2.082A.537.537,0,0,1,136.46,118.905Z" fill="#231815"/>
                <path d="M139.282,120.4l-.742-.773.007-.007,1.742-1.684a.536.536,0,1,1,.745.77Z" fill="#231815"/>
                <path d="M132.485,119.121a.536.536,0,0,1-.506-.361l-.721-2.09a.536.536,0,1,1,1.013-.35l.721,2.09a.537.537,0,0,1-.332.682A.563.563,0,0,1,132.485,119.121Z" fill="#231815"/>
                <path d="M130.043,120.769a.532.532,0,0,1-.373-.151l-1.76-1.708a.536.536,0,0,1,.747-.769l1.759,1.708a.536.536,0,0,1,.011.758A.529.529,0,0,1,130.043,120.769Z" fill="#231815"/>
                <path d="M134.723,111.135a.535.535,0,0,1-.536-.535c0-.115-.022-2.83-1.914-2.83s-1.907,2.715-1.907,2.83a.536.536,0,0,1-1.071,0c0-1.449.627-3.9,2.978-3.9s2.986,2.453,2.986,3.9A.535.535,0,0,1,134.723,111.135Z" fill="#231815"/>
                <path d="M118.188,111.135a.535.535,0,0,1-.536-.535c0-.115-.022-2.83-1.914-2.83s-1.906,2.715-1.906,2.83a.536.536,0,0,1-1.072,0c0-1.449.627-3.9,2.978-3.9s2.986,2.453,2.986,3.9A.535.535,0,0,1,118.188,111.135Z" fill="#231815"/>
                <path d="M99.878,84.9a.534.534,0,0,1-.3-.092c-.373-.251-9.183-6.237-13.292-12.84a.537.537,0,0,1,.083-.669c.988-.953,24.345-23.4,37.47-28.345a.549.549,0,0,1,.762.485.533.533,0,0,1-.307.484.4.4,0,0,1-.056.025h0c-12.1,4.542-33.923,25.073-36.809,27.82,4.093,6.274,12.661,12.093,12.748,12.152a.536.536,0,0,1-.3.98Z" fill="#231815"/>
                <path d="M148.254,84.9a.536.536,0,0,1-.3-.98c.088-.059,8.658-5.883,12.748-12.152-2.886-2.747-24.706-23.279-36.809-27.82h0a.665.665,0,0,1-.061-.027.535.535,0,0,1-.3-.482.551.551,0,0,1,.764-.485c13.125,4.941,36.48,27.392,37.468,28.345a.536.536,0,0,1,.083.669c-4.109,6.6-12.919,12.589-13.292,12.84A.534.534,0,0,1,148.254,84.9Z" fill="#231815"/>
              </g>
            </g>
            <g clip-path="url(#clip-path)">
              <ellipse cx="149.31" cy="91.145" rx="7.996" ry="7.867" fill="#fff"/>
              <ellipse cx="149.31" cy="91.145" rx="5.387" ry="5.3" fill="#97d2ce"/>
              <path d="M149.31,99.548a8.4,8.4,0,1,1,8.531-8.4A8.477,8.477,0,0,1,149.31,99.548Zm0-15.734a7.333,7.333,0,1,0,7.46,7.331A7.4,7.4,0,0,0,149.31,83.814Z" fill="#231815"/>
              <path d="M149.31,96.981a5.837,5.837,0,1,1,5.923-5.836A5.887,5.887,0,0,1,149.31,96.981Zm0-10.6a4.766,4.766,0,1,0,4.851,4.765A4.815,4.815,0,0,0,149.31,86.38Z" fill="#231815"/>
              <ellipse cx="149.31" cy="91.145" rx="2.535" ry="2.495" fill="#231815"/>
            </g>
            <g>
              <path d="M123.8,61.242l-.02.3q.318-.046.631-.068t.612-.021a3.884,3.884,0,0,1,2.41.65,2.2,2.2,0,0,1,.844,1.849,2.381,2.381,0,0,1-.937,1.941,3.548,3.548,0,0,1-2.307.756.459.459,0,0,1-.321-.107,2.944,2.944,0,0,1-.263-.291c-.057-.076-.122-.155-.2-.239s-.161-.172-.259-.265a3.671,3.671,0,0,1-.451.231.926.926,0,0,1-.346.083.272.272,0,0,1-.2-.079.734.734,0,0,1-.152-.252,3.314,3.314,0,0,1-.718.328,2.392,2.392,0,0,1-.719.113,1.1,1.1,0,0,1-.759-.2,1.065,1.065,0,0,1-.232-.742c-.045-.053-.087-.106-.126-.156s-.079-.1-.116-.157q-.186-.249-.306-.44a.706.706,0,0,1-.121-.382,1.643,1.643,0,0,1,.612-1.164,4.868,4.868,0,0,1,1.8-1v-.53l-1.252.127a1.991,1.991,0,0,1-.8-.118.424.424,0,0,1-.265-.4.552.552,0,0,1,.049-.214,1.613,1.613,0,0,1,.145-.256c.066-.1.145-.2.235-.314s.19-.234.3-.372a1.011,1.011,0,0,0,.23.1.927.927,0,0,0,.244.034.516.516,0,0,0,.067-.005c.022,0,.043,0,.061,0l.982-.08a.6.6,0,0,0-.147-.384.745.745,0,0,0-.4-.188c.161-.116.311-.219.451-.311s.267-.173.384-.244a2.663,2.663,0,0,1,.306-.15.706.706,0,0,1,.268-.057,1.456,1.456,0,0,1,.787.233q.36.228.36.444a.455.455,0,0,1-.064.2c-.042.082-.092.19-.149.322l1.134-.089a1.268,1.268,0,0,0,.474-.095.934.934,0,0,0,.341-.252,3.625,3.625,0,0,1,1.276.479.9.9,0,0,1,.427.753.561.561,0,0,1-.213.471.966.966,0,0,1-.6.165,2.3,2.3,0,0,1-.417-.044q-.233-.047-.507-.121Zm-1.419,3.1q-.066-.258-.111-.527t-.074-.548a3.377,3.377,0,0,0-.835.635.821.821,0,0,0-.27.508.2.2,0,0,0,.085.176.449.449,0,0,0,.261.061,1.3,1.3,0,0,0,.37-.08A6.069,6.069,0,0,0,122.377,64.346Zm2.1-1.524-.048-.229c-.123.011-.239.025-.348.04s-.213.035-.311.057a3.834,3.834,0,0,0,.024.424c.016.144.039.3.071.453a2.305,2.305,0,0,0,.254-.2,2.144,2.144,0,0,0,.244-.274.538.538,0,0,0,.085-.133A.329.329,0,0,0,124.474,62.822Zm-.233,1.956.109.263.2.017c.068.006.135.008.2.008a1.966,1.966,0,0,0,1.245-.368,1.137,1.137,0,0,0,.472-.932.947.947,0,0,0-.306-.7,1.754,1.754,0,0,0-.889-.415,3.026,3.026,0,0,1,.23.373.711.711,0,0,1,.083.317,1.01,1.01,0,0,1-.351.678A5.66,5.66,0,0,1,124.241,64.778Z" fill="#231815"/>
              <path d="M121.6,68.789v-.33a.8.8,0,0,0-.064-.384c-.042-.069-.16-.095-.353-.078a4.032,4.032,0,0,1,.711-.648,1.125,1.125,0,0,1,.641-.228,1.872,1.872,0,0,1,.873.211c.253.127.379.255.379.381a.671.671,0,0,1-.1.288,1.662,1.662,0,0,0-.159.474,3.1,3.1,0,0,0,.56-.165.563.563,0,0,0,.275-.233,7.306,7.306,0,0,1,1.043.267.571.571,0,0,1,.384.6.618.618,0,0,1-.189.458,1.3,1.3,0,0,1-.56.292c-.316.1-.63.18-.941.25s-.619.131-.923.182a25.71,25.71,0,0,1-1.058,3.913q-.45,1.012-1.223,1.013a.607.607,0,0,1-.517-.267,1.339,1.339,0,0,1-.2-.835V73.07q.27-.093.555-.745a15.824,15.824,0,0,0,.6-1.935l-.806.055a1.422,1.422,0,0,1-.712-.157.433.433,0,0,1-.242-.373.75.75,0,0,1,.14-.377q.139-.219.377-.542c.038-.064.081-.131.131-.2s.1-.142.159-.218a.328.328,0,0,0,.159.231.736.736,0,0,0,.348.066Zm5.246,2.66-.417.016a3.126,3.126,0,0,0-1.323.513q-.522.372-.522.7c0,.133.1.243.3.331a2.245,2.245,0,0,0,.868.139,5.1,5.1,0,0,0,.806-.055,1.271,1.271,0,0,0,.446-.152,2.309,2.309,0,0,1,1.067.366.835.835,0,0,1,.37.7.717.717,0,0,1-.517.7,4.062,4.062,0,0,1-1.532.212,4.168,4.168,0,0,1-2.059-.427,1.287,1.287,0,0,1-.711-1.144,1.826,1.826,0,0,1,.583-1.3,4.656,4.656,0,0,1,1.741-1.019,1.142,1.142,0,0,0-.42-.239,1.849,1.849,0,0,0-.552-.074,3.313,3.313,0,0,0-.6.057,5.831,5.831,0,0,0-.657.164,6.176,6.176,0,0,1,1.435-1.072,2.983,2.983,0,0,1,1.369-.36,2.165,2.165,0,0,1,1.254.328,1.022,1.022,0,0,1,.477.883.765.765,0,0,1-.209.566.755.755,0,0,1-.559.209,2.04,2.04,0,0,1-.275-.023A2.525,2.525,0,0,0,126.845,71.449Z" fill="#231815"/>
              <path d="M123.535,79.7l.037.711a.863.863,0,0,1-.248.659.91.91,0,0,1-.648.235,1.428,1.428,0,0,1-1.051-.5,1.774,1.774,0,0,1-.471-1.275,4.65,4.65,0,0,1,.379-1.562,2.9,2.9,0,0,0,.251-.881.453.453,0,0,0-.116-.32.61.61,0,0,0-.349-.167,3.807,3.807,0,0,1,.669-.4,1.411,1.411,0,0,1,.565-.14,1.075,1.075,0,0,1,.733.3.935.935,0,0,1,.334.71,1.018,1.018,0,0,1-.14.536,4.242,4.242,0,0,1-.344.48c-.092.116-.173.222-.244.318s-.132.181-.183.254a1.136,1.136,0,0,0-.118.223.512.512,0,0,0-.038.188.409.409,0,0,0,.1.275.273.273,0,0,0,.2.115.3.3,0,0,0,.188-.083.867.867,0,0,0,.192-.265,5.06,5.06,0,0,1,1.148-1.639,2.052,2.052,0,0,1,1.371-.546,1.491,1.491,0,0,1,1.309.788,4.262,4.262,0,0,1,.526,2.3,3.6,3.6,0,0,1-1.046,2.81,3.959,3.959,0,0,1-2.763.947,2,2,0,0,1-.716-.095,1.135,1.135,0,0,1-.451-.409.194.194,0,0,1-.033-.044.3.3,0,0,0-.033-.054q-.09-.14-.258-.359a2.454,2.454,0,0,0-.52-.471q.289.043.539.064t.453.021a3.342,3.342,0,0,0,2.17-.629,2.569,2.569,0,0,0,.77-2.1,3.476,3.476,0,0,0-.2-1.373.615.615,0,0,0-.569-.415,1.1,1.1,0,0,0-.759.339,2.036,2.036,0,0,0-.564.953c-.019.088-.035.173-.047.256A1.549,1.549,0,0,0,123.535,79.7Z" fill="#231815"/>
              <path d="M120.172,86.4l-.233.034a1.978,1.978,0,0,1,.607-.811,1.273,1.273,0,0,1,.773-.282.736.736,0,0,1,.593.288,2.486,2.486,0,0,1,.38.868,4.028,4.028,0,0,1,.562-.222c.2-.061.4-.114.61-.159a1.013,1.013,0,0,0-.126-.61.576.576,0,0,0-.515-.165,3.577,3.577,0,0,1,.759-.589,1.42,1.42,0,0,1,.688-.2,1.049,1.049,0,0,1,.68.229.773.773,0,0,1,.283.639l-.019.53a3.439,3.439,0,0,1,2.291.942,3.006,3.006,0,0,1,.834,2.213,3.1,3.1,0,0,1-.4,1.592,3.258,3.258,0,0,1-1.181,1.148,3.929,3.929,0,0,1-1.888.546,1.219,1.219,0,0,1-.626-.137.863.863,0,0,1-.346-.417.2.2,0,0,1-.029-.055l-.019-.064a2.78,2.78,0,0,0-.13-.313,1.093,1.093,0,0,0-.306-.356,4.193,4.193,0,0,1-.972.728,1.9,1.9,0,0,1-.826.225,1,1,0,0,1-.507-.125.944.944,0,0,1-.356-.371,1.4,1.4,0,0,1-.121-.336,1.632,1.632,0,0,0-.192-.451,4.341,4.341,0,0,1-.622-.67,1.057,1.057,0,0,1-.213-.6,1.977,1.977,0,0,1,.323-1.008,4.6,4.6,0,0,1,.982-1.092,4.125,4.125,0,0,0-.342-.712A.5.5,0,0,0,120.172,86.4Zm1.29,2.092a1.834,1.834,0,0,0-.368.576,1.729,1.729,0,0,0-.116.626.976.976,0,0,0,.166.576.463.463,0,0,0,.351.208.579.579,0,0,0,.337-.182,3.788,3.788,0,0,0,.488-.563,4.543,4.543,0,0,1-.469-.57A4.891,4.891,0,0,1,121.462,88.5Zm1.935-1.1a3.556,3.556,0,0,0-.4.109c-.129.044-.262.09-.4.142a3.324,3.324,0,0,0,.23.533,2.191,2.191,0,0,0,.3.42q.094-.31.168-.61A4.22,4.22,0,0,0,123.4,87.393Zm.436,3.207-.166.19h.437a2.738,2.738,0,0,0,1.783-.5,1.74,1.74,0,0,0,.214-2.422,1.788,1.788,0,0,0-1.044-.595,9.916,9.916,0,0,1-.237,1.258,8.289,8.289,0,0,1-.346,1.05,1.042,1.042,0,0,1,.17.059.088.088,0,0,1,.053.085,1.048,1.048,0,0,1-.233.644q-.213.288-.4.288Z" fill="#231815"/>
            </g>
            <path d="M157.135,181.583a3.357,3.357,0,0,1-2.938-2.093c-1.2-2.673-1.1-5.955.285-9.49a4.993,4.993,0,0,0-.585-5.018,7.471,7.471,0,0,0-5.991-2.915.536.536,0,0,1-.078-1.069,8.633,8.633,0,0,1,6.932,3.349,6.021,6.021,0,0,1,.72,6.045c-1.262,3.214-1.371,6.29-.306,8.659a2.186,2.186,0,0,0,2.268,1.428c1-.214,1.6-1.469,1.6-3.357,0-2.225,1.256-3.689,2.47-5.105,1.732-2.019,3.522-4.106,2.51-8.774-.914-4.224-8.753-8.336-8.832-8.377-6.055-3.46-5.328-7.669-4.008-15.31.4-2.288.843-4.882,1.2-7.915.18-1.452.332-3.037.453-4.714.109-1.647.176-3.183.2-4.7A115.433,115.433,0,0,0,151.1,99.441c-.939-5.276-2.071-10.3-3.364-14.936-8.887-32.029-23.3-40.257-23.914-40.592a.536.536,0,0,1,.516-.939c.626.344,15.424,8.785,24.431,41.244,1.3,4.667,2.441,9.725,3.386,15.034a116.49,116.49,0,0,1,1.958,23c-.028,1.527-.095,3.081-.206,4.747-.123,1.7-.276,3.3-.458,4.77-.364,3.058-.815,5.667-1.212,7.969-1.318,7.628-1.919,11.109,3.464,14.186.322.167,8.347,4.376,9.367,9.091,1.125,5.189-.93,7.585-2.743,9.7-1.188,1.383-2.213,2.579-2.213,4.407,0,2.431-.915,4.078-2.448,4.4A2.5,2.5,0,0,1,157.135,181.583Z" fill="#231815"/>
            <g clip-path="url(#clip-path-2)">
              <ellipse cx="99.686" cy="91.145" rx="7.996" ry="7.867" fill="#fff"/>
              <ellipse cx="99.686" cy="91.145" rx="5.387" ry="5.3" fill="#97d2ce"/>
              <path d="M99.686,99.548a8.4,8.4,0,1,1,8.532-8.4A8.477,8.477,0,0,1,99.686,99.548Zm0-15.734a7.333,7.333,0,1,0,7.46,7.331A7.4,7.4,0,0,0,99.686,83.814Z" fill="#231815"/>
              <path d="M99.686,96.981a5.837,5.837,0,1,1,5.923-5.836A5.887,5.887,0,0,1,99.686,96.981Zm0-10.6a4.766,4.766,0,1,0,4.852,4.765A4.814,4.814,0,0,0,99.686,86.38Z" fill="#231815"/>
              <ellipse cx="99.686" cy="91.145" rx="2.535" ry="2.495" fill="#231815"/>
            </g>
            <path d="M96.752,181.812a2.708,2.708,0,0,1-1.3-.312c-1.29-.7-1.827-2.384-1.594-5.015.253-2.866-.479-3.55-1.691-4.684a11.981,11.981,0,0,1-3.71-6,9.13,9.13,0,0,1,4.378-11.028c5.332-3.048,4.685-6.632,3.268-14.486-.443-2.457-.946-5.243-1.348-8.52-.2-1.615-.35-3.175-.465-4.765-.111-1.55-.185-3.148-.222-4.75a114.8,114.8,0,0,1,1.912-23c.947-5.313,2.086-10.372,3.387-15.036,9.006-32.458,23.8-40.9,24.43-41.243a.536.536,0,1,1,.516.939c-.609.335-15.026,8.563-23.914,40.592-1.292,4.631-2.423,9.657-3.364,14.936a113.7,113.7,0,0,0-1.9,22.788c.036,1.585.109,3.166.218,4.7.114,1.572.265,3.114.46,4.712.4,3.246.9,6.017,1.34,8.46,1.417,7.855,2.2,12.183-3.82,15.622a7.955,7.955,0,0,0-3.858,9.764,11.046,11.046,0,0,0,3.419,5.533c1.3,1.216,2.325,2.175,2.026,5.562-.188,2.134.17,3.51,1.036,3.977.9.485,2.258-.046,3.142-.744,1.745-1.37,2.908-4.817,1.631-8.509-.12-.349-.247-.7-.373-1.049-.818-2.265-1.664-4.608-.584-6.3.738-1.157,2.261-1.822,4.655-2.032a.536.536,0,1,1,.094,1.067c-2.012.177-3.306.7-3.846,1.541-.8,1.247-.075,3.245.689,5.359.128.355.256.71.378,1.064,1.439,4.159.054,8.1-1.981,9.7A5.133,5.133,0,0,1,96.752,181.812Z" fill="#231815"/>
          </g>
          <g>
            <path d="M141.435,112.019a1.671,1.671,0,0,0,1.63-1.991c-.237-.771-1.634-4.5-1.634-4.5h.008s-1.4,3.724-1.634,4.5A1.671,1.671,0,0,0,141.435,112.019Z" fill="#97d2ce"/>
            <path d="M141.435,112.569a2.2,2.2,0,0,1-1.781-.908,2.082,2.082,0,0,1-.375-1.8c.222-.719,1.391-3.846,1.611-4.435a.543.543,0,0,1,.089-.212.574.574,0,0,1,.908,0,.56.56,0,0,1,.087.2c.2.545,1.393,3.726,1.617,4.452a2.076,2.076,0,0,1-.375,1.794A2.2,2.2,0,0,1,141.435,112.569Zm0-5.449c-.421,1.137-.967,2.625-1.1,3.07a1.014,1.014,0,0,0,.208.817,1.1,1.1,0,0,0,1.792,0,1.015,1.015,0,0,0,.209-.817C142.4,109.745,141.857,108.257,141.435,107.12Z" fill="#231815"/>
          </g>
          <g>
            <path d="M103.953,140.976a1.673,1.673,0,0,0,1.631-1.991c-.238-.771-1.635-4.5-1.635-4.5h.009s-1.4,3.725-1.635,4.5A1.672,1.672,0,0,0,103.953,140.976Z" fill="#97d2ce"/>
            <path d="M103.953,141.526a2.2,2.2,0,0,1-1.781-.909,2.076,2.076,0,0,1-.374-1.794c.221-.719,1.39-3.846,1.61-4.435a.558.558,0,0,1,.089-.212.554.554,0,0,1,1,.2c.2.545,1.393,3.726,1.617,4.452a2.076,2.076,0,0,1-.374,1.794A2.2,2.2,0,0,1,103.953,141.526Zm0-5.449c-.421,1.137-.967,2.625-1.1,3.07a1.018,1.018,0,0,0,.208.817,1.1,1.1,0,0,0,1.793,0,1.019,1.019,0,0,0,.208-.817C104.921,138.7,104.375,137.214,103.953,136.077Z" fill="#231815"/>
          </g>
        </g>
        <g>
          <path d="M191.488,29.939c-.08.538-.147,1.18-.174,1.692-.066,1.363-.159,4.208-.159,5.794,0,1.272.786,1.691,1.785,1.691a5.184,5.184,0,0,0,4.423-2.6l1.173,1.429a6.76,6.76,0,0,1-5.609,2.9c-2.119,0-3.491-.917-3.491-3.08,0-1.7.133-5.034.133-6.135a7.589,7.589,0,0,0-.173-1.718Zm4.583,3.068-1.172.5a11.871,11.871,0,0,0-1.2-2.1l1.145-.471A21.168,21.168,0,0,1,196.071,33.007Zm1.785-.761-1.132.538a13.208,13.208,0,0,0-1.266-2.045l1.133-.5A17.163,17.163,0,0,1,197.856,32.246Z"/>
          <path d="M191.461,45.117a17.656,17.656,0,0,1,4.37-.944c2.012,0,3.411,1.232,3.411,2.989,0,2.268-1.985,3.855-6.009,4.064l-.666-1.521c2.771-.052,5.023-.786,5.023-2.556a1.63,1.63,0,0,0-1.839-1.573,16.225,16.225,0,0,0-5.063,1.507l-.666-1.638A14.517,14.517,0,0,0,191.461,45.117Z"/>
          <path d="M193.512,54.858a1.2,1.2,0,1,1-1.279,1.206A1.218,1.218,0,0,1,193.512,54.858Zm0,4.968a1.2,1.2,0,1,1-1.279,1.193A1.216,1.216,0,0,1,193.512,59.826Zm0,4.968a1.2,1.2,0,1,1-1.279,1.193A1.216,1.216,0,0,1,193.512,64.794Z"/>
        </g>
        <g>
          <g>
            <polygon points="49.017 138.142 58.908 126.303 61.436 32.129 51.426 9.419 31.046 4.345 9.821 9.675 0.656 31.874 1.263 129.591 15.277 143.215 32.661 146.114 49.017 138.142" fill="#fff"/>
            <path d="M32.661,146.771a.787.787,0,0,1-.108-.009l-17.384-2.9a.652.652,0,0,1-.35-.177L.806,130.061a.654.654,0,0,1-.2-.466L0,31.878a.641.641,0,0,1,.05-.255l9.165-22.2a.653.653,0,0,1,.447-.385l21.224-5.33a.646.646,0,0,1,.318,0L51.585,8.782a.658.658,0,0,1,.441.373l10.01,22.71a.652.652,0,0,1,.055.282l-2.527,94.174a.659.659,0,0,1-.152.4L49.52,138.563a.647.647,0,0,1-.216.168L32.949,146.7A.658.658,0,0,1,32.661,146.771ZM15.587,142.6l16.975,2.831,16.041-7.82,9.656-11.555,2.517-93.8L50.955,9.978,31.047,5.022,10.3,10.231,1.313,32l.605,97.31Zm33.43-4.46h0Z" fill="#231815"/>
          </g>
          <g>
            <ellipse cx="50.71" cy="138.458" rx="7.11" ry="6.995" fill="#fff"/>
            <path d="M50.71,146.109a7.652,7.652,0,1,1,7.766-7.651A7.718,7.718,0,0,1,50.71,146.109Zm0-13.991a6.341,6.341,0,1,0,6.454,6.34A6.4,6.4,0,0,0,50.71,132.118Z" fill="#231815"/>
          </g>
          <g>
            <ellipse cx="65.343" cy="149.133" rx="3.936" ry="3.872" fill="#fff"/>
            <path d="M65.343,153.662a4.529,4.529,0,1,1,4.592-4.529A4.565,4.565,0,0,1,65.343,153.662Zm0-7.745a3.217,3.217,0,1,0,3.28,3.216A3.251,3.251,0,0,0,65.343,145.917Z" fill="#231815"/>
          </g>
        </g>
        <g>
          <g>
            <path d="M318.665,91.451H321.5s11.66.459,11.66,11.008v20.86H289.465v-20.86c0-10.549,11.66-11.008,11.66-11.008h2.831" fill="#e84572"/>
            <path d="M333.156,123.789H289.465a.469.469,0,0,1-.47-.47v-20.86c0-10.876,11.99-11.473,12.111-11.478h2.85a.47.47,0,1,1,0,.94h-2.831a15.939,15.939,0,0,0-5.648,1.513,9.384,9.384,0,0,0-5.541,9.025v20.39h42.749v-20.39a9.384,9.384,0,0,0-5.541-9.025,15.9,15.9,0,0,0-5.667-1.513h-2.812a.47.47,0,1,1,0-.94H321.5c.139.005,12.13.6,12.13,11.478v20.86A.47.47,0,0,1,333.156,123.789Z" fill="#231815"/>
          </g>
          <path d="M318.6,91.646s0,3.067-3.722,3.067-3.6-3.262-3.6-3.262v.2s0,3.067-3.722,3.067-3.6-3.262-3.6-3.262Z" fill="#fff"/>
          <g>
            <rect x="303.956" y="86.671" width="14.709" height="4.779" fill="#f4aeb6"/>
            <path d="M318.665,91.921H303.956a.47.47,0,0,1-.471-.47v-4.78a.47.47,0,0,1,.471-.47h14.709a.469.469,0,0,1,.47.47v4.78A.469.469,0,0,1,318.665,91.921Zm-14.238-.94h13.767v-3.84H304.427Z" fill="#231815"/>
          </g>
          <g>
            <g>
              <path d="M311.28,23.809S337.886,21.587,334.167,60c0,0-1.4,12.6-15.5,26.674H303.9C289.8,72.593,288.392,60,288.392,60c-3.718-38.41,22.888-36.188,22.888-36.188" fill="#f4aeb6"/>
              <path d="M318.665,87.141H303.894a.47.47,0,0,1-.332-.137,60.936,60.936,0,0,1-13.138-18.763,31.785,31.785,0,0,1-2.5-8.192c-1.35-13.947,1.093-24.185,7.261-30.434a23.773,23.773,0,0,1,32.19,0c6.167,6.249,8.61,16.487,7.261,30.428C334.621,60.177,333.051,72.972,319,87A.47.47,0,0,1,318.665,87.141ZM304.09,86.2h14.38c13.7-13.748,15.216-26.132,15.23-26.255,1.32-13.636-1.03-23.617-6.985-29.66a21.124,21.124,0,0,0-15.4-6.008.508.508,0,0,1-.078,0,21.134,21.134,0,0,0-15.4,6.008c-5.955,6.044-8.305,16.024-6.984,29.666C288.873,60.069,290.416,72.475,304.09,86.2Z" fill="#231815"/>
            </g>
            <path d="M311.3,73.193h9.036s-2.069,3.122-9.046,3.122-9.046-3.122-9.046-3.122H311.3Z" fill="#e84572"/>
            <path d="M320.331,73.193H302.239s3.961-3.377,5.812-3.548a4.21,4.21,0,0,1,3.234,1.556,4.213,4.213,0,0,1,3.239-1.556C316.37,69.816,320.331,73.193,320.331,73.193Z" fill="#e84572"/>
            <path d="M321.164,61.44a5.269,5.269,0,1,1,0-10.537,5.4,5.4,0,0,1,3.864,1.621,5.192,5.192,0,0,1,1.5,3.653A5.313,5.313,0,0,1,321.164,61.44Z" fill="#fff8ee"/>
            <path d="M317.771,57.045a2.683,2.683,0,1,1,2.68,2.632A2.655,2.655,0,0,1,317.771,57.045Z" fill="#97d2ce"/>
            <path d="M320.451,56.14a.9.9,0,1,1-.915.905A.912.912,0,0,1,320.451,56.14Z" fill="#231815"/>
            <path d="M299.717,57.045a.918.918,0,1,1,.916.9A.908.908,0,0,1,299.717,57.045Z" fill="#231815"/>
            <path d="M301.345,61.44a5.311,5.311,0,0,1-5.354-5.263,5.192,5.192,0,0,1,1.5-3.653,5.386,5.386,0,0,1,3.859-1.621,5.269,5.269,0,1,1,0,10.537Z" fill="#fff8ee"/>
            <path d="M297.948,57.045a2.682,2.682,0,1,1,2.685,2.632A2.659,2.659,0,0,1,297.948,57.045Z" fill="#97d2ce"/>
            <path d="M301.345,61.91a5.786,5.786,0,0,1-5.825-5.733,5.668,5.668,0,0,1,1.629-3.982,5.9,5.9,0,0,1,4.2-1.762,5.739,5.739,0,1,1,0,11.477Zm0-10.536a4.947,4.947,0,0,0-3.523,1.479,4.727,4.727,0,0,0-1.361,3.324,4.882,4.882,0,1,0,4.884-4.8Z" fill="#231815"/>
            <path d="M300.633,60.147a3.1,3.1,0,1,1,3.15-3.1A3.133,3.133,0,0,1,300.633,60.147Zm0-5.268a2.164,2.164,0,1,0,2.209,2.166A2.194,2.194,0,0,0,300.633,54.879Z" fill="#231815"/>
            <path d="M299.733,51.488a.468.468,0,0,1-.444-.316l-.662-1.911a.471.471,0,0,1,.89-.308l.661,1.911a.471.471,0,0,1-.291.6A.487.487,0,0,1,299.733,51.488Z" fill="#231815"/>
            <path d="M297.485,53a.464.464,0,0,1-.36-.17l-1.573-1.519a.47.47,0,1,1,.653-.677l1.607,1.551a.483.483,0,0,1,.089.117.474.474,0,0,1-.416.7Z" fill="#231815"/>
            <path d="M303.379,51.689a.456.456,0,0,1-.153-.026.47.47,0,0,1-.292-.6l.662-1.917a.47.47,0,1,1,.889.306l-.661,1.917A.471.471,0,0,1,303.379,51.689Z" fill="#231815"/>
            <path d="M305.617,53.2a.471.471,0,0,1-.328-.809l1.617-1.566a.471.471,0,0,1,.655.677l-1.617,1.566A.473.473,0,0,1,305.617,53.2Z" fill="#231815"/>
            <path d="M321.164,61.91a5.739,5.739,0,1,1,4.2-9.715,5.665,5.665,0,0,1,1.63,3.982A5.789,5.789,0,0,1,321.164,61.91Zm0-10.536a4.8,4.8,0,1,0,4.889,4.8,4.723,4.723,0,0,0-1.361-3.323A4.9,4.9,0,0,0,321.164,51.374Z" fill="#231815"/>
            <path d="M320.451,60.147a3.1,3.1,0,1,1,3.155-3.1A3.129,3.129,0,0,1,320.451,60.147Zm0-5.268a2.165,2.165,0,1,0,2.214,2.166A2.191,2.191,0,0,0,320.451,54.879Z" fill="#231815"/>
            <path d="M322.781,51.488a.487.487,0,0,1-.154-.025.471.471,0,0,1-.291-.6L323,48.953a.47.47,0,0,1,.889.308l-.661,1.911A.468.468,0,0,1,322.781,51.488Z" fill="#231815"/>
            <path d="M325.355,52.863l-.659-.672,1.612-1.556a.471.471,0,1,1,.654.677Z" fill="#231815"/>
            <path d="M319.135,51.689a.471.471,0,0,1-.445-.317l-.661-1.917a.47.47,0,1,1,.889-.306l.661,1.917a.468.468,0,0,1-.291.6A.456.456,0,0,1,319.135,51.689Z" fill="#231815"/>
            <path d="M316.892,53.2a.474.474,0,0,1-.328-.133L314.953,51.5a.47.47,0,0,1,.655-.675l1.612,1.566a.471.471,0,0,1-.328.808Z" fill="#231815"/>
            <path d="M320.331,73.663H302.238a.47.47,0,0,1-.305-.828c.417-.356,4.131-3.48,6.075-3.658a4.311,4.311,0,0,1,3.277,1.338,4.314,4.314,0,0,1,3.283-1.338c1.938.178,5.651,3.3,6.068,3.658a.47.47,0,0,1-.305.828Zm-16.763-.94H319c-1.386-1.075-3.452-2.511-4.52-2.609a3.782,3.782,0,0,0-2.83,1.383.471.471,0,0,1-.366.174h0a.475.475,0,0,1-.367-.174,3.746,3.746,0,0,0-2.823-1.383C307.022,70.212,304.955,71.648,303.568,72.723Z" fill="#231815"/>
            <path d="M311.285,76.785c-7.147,0-9.348-3.2-9.439-3.332a.47.47,0,0,1,.784-.52c.019.027,2.062,2.911,8.655,2.911s8.636-2.884,8.656-2.914a.47.47,0,0,1,.782.523C320.633,73.589,318.432,76.785,311.285,76.785Z" fill="#231815"/>
          </g>
          <path d="M311.28,67.3a2.6,2.6,0,0,1-2.107-1.076,2.44,2.44,0,0,1-.448-2.1c.287-.931,1.82-5.032,2.084-5.735a.457.457,0,0,1,.078-.2.493.493,0,0,1,.779,0,.5.5,0,0,1,.079.183c.245.655,1.8,4.813,2.089,5.751a2.44,2.44,0,0,1-.447,2.1A2.6,2.6,0,0,1,311.28,67.3Zm0-7.485c-.554,1.49-1.451,3.92-1.656,4.584a1.536,1.536,0,0,0,.306,1.267,1.66,1.66,0,0,0,2.7,0,1.535,1.535,0,0,0,.305-1.267C312.731,63.737,311.834,61.307,311.28,59.817Z" fill="#231815"/>
          <path d="M320.331,73.663H302.238a.47.47,0,0,1,0-.94h18.093a.47.47,0,1,1,0,.94Z" fill="#231815"/>
          <path d="M311.31,123.789H289.465a.469.469,0,0,1-.47-.47v-20.86c0-10.876,11.99-11.473,12.111-11.478h2.85a.47.47,0,1,1,0,.94h-2.831a15.939,15.939,0,0,0-5.648,1.513,9.384,9.384,0,0,0-5.541,9.025v20.39H311.31a.47.47,0,1,1,0,.94Z" fill="#231815"/>
          <path d="M333.156,123.789H311.31a.47.47,0,0,1,0-.94h21.375v-20.39a9.384,9.384,0,0,0-5.541-9.025,15.9,15.9,0,0,0-5.667-1.513h-2.812a.47.47,0,1,1,0-.94H321.5c.139.005,12.13.6,12.13,11.478v20.86A.47.47,0,0,1,333.156,123.789Z" fill="#231815"/>
          <path d="M307.558,95.183a4.074,4.074,0,0,1-3.063-1.122,3.884,3.884,0,0,1-1.009-2.627.479.479,0,0,1,.487-.453.47.47,0,0,1,.453.485,2.973,2.973,0,0,0,.753,1.949,3.185,3.185,0,0,0,2.379.827c3.135,0,3.249-2.332,3.251-2.6a.471.471,0,0,1,.471-.466h0a.469.469,0,0,1,.468.468C311.75,91.682,311.7,95.183,307.558,95.183Z" fill="#231815"/>
          <path d="M314.882,95.183a4.074,4.074,0,0,1-3.063-1.122,3.884,3.884,0,0,1-1.009-2.627.48.48,0,0,1,.487-.453.471.471,0,0,1,.453.485,2.973,2.973,0,0,0,.753,1.949,3.185,3.185,0,0,0,2.379.827c3.134,0,3.249-2.332,3.251-2.6a.471.471,0,0,1,.471-.466h0a.469.469,0,0,1,.468.468C319.074,91.682,319.026,95.183,314.882,95.183Z" fill="#231815"/>
          <g>
            <path d="M311.31,14.769c26.8,0,30.371,24.226,30.893,32.192.6,9.211-.6,21.477-7.082,32.263a15.072,15.072,0,0,1-9.068,7.148c8.309-19.912,2.814-41.406,2.814-41.406H311.279c-8.742,0-11.628-9.1-11.628-9.1s-4.364,3.033-6.165,10.285c0,0-5.227,20.307,3.082,40.219,0,0-4.969-.4-9.363-8.021-5.915-10.258-7.323-23.08-6.787-31.39.514-7.966,4.088-32.192,30.892-32.192" fill="#ee795e"/>
            <path d="M326.053,86.842a.469.469,0,0,1-.434-.651c7.578-18.159,3.53-37.885,2.876-40.755H311.279c-7.6,0-10.963-6.681-11.837-8.794a18.782,18.782,0,0,0-5.5,9.625c-.053.2-5.091,20.4,3.059,39.924a.47.47,0,0,1-.471.65c-.213-.017-5.267-.507-9.734-8.255-5.9-10.225-7.4-23.056-6.848-31.655.27-4.193,1.364-12.275,5.655-19.3C291.009,18.785,299.658,14.3,311.31,14.3s20.3,4.486,25.7,13.334c4.283,7.012,5.383,15.1,5.658,19.3.455,6.949.131,20.417-7.148,32.536-3.717,6.189-9.151,7.322-9.38,7.367A.407.407,0,0,1,326.053,86.842ZM311.31,15.24c-8.532,0-28.575,3.094-30.422,31.751-.546,8.462.934,21.082,6.724,31.125,3.162,5.485,6.637,7.123,8.18,7.6-7.789-19.563-2.813-39.477-2.761-39.679,1.822-7.336,6.167-10.427,6.351-10.555a.478.478,0,0,1,.42-.059.47.47,0,0,1,.3.3c.028.088,2.893,8.771,11.18,8.771h17.588a.47.47,0,0,1,.456.353c.055.214,5.274,21.22-2.466,40.793a15.323,15.323,0,0,0,7.86-6.66c7.148-11.9,7.464-25.151,7.016-31.99C339.858,18.334,319.833,15.24,311.31,15.24Z" fill="#231815"/>
          </g>
          <g>
            <path d="M307.618,37.273s4.04,7.693,8.338,7.693" fill="#ee795e"/>
            <path d="M315.956,45.436c-4.53,0-8.584-7.62-8.755-7.945a.471.471,0,0,1,.833-.438c.039.075,3.959,7.443,7.922,7.443a.47.47,0,1,1,0,.94Z" fill="#231815"/>
          </g>
          <g>
            <path d="M315.033,37.273s4.041,7.693,8.339,7.693" fill="#ee795e"/>
            <path d="M323.372,45.436c-4.531,0-8.585-7.62-8.755-7.945a.47.47,0,1,1,.832-.438c.04.075,3.959,7.443,7.923,7.443a.47.47,0,0,1,0,.94Z" fill="#231815"/>
          </g>
        </g>
        <g>
          <g>
            <path d="M248.179,91.451h2.831s11.66.459,11.66,11.008v20.86H218.98v-20.86c0-10.549,11.659-11.008,11.659-11.008h2.831" fill="#97d2ce"/>
            <path d="M262.67,123.789H218.979a.47.47,0,0,1-.47-.47v-20.86c0-10.876,11.991-11.473,12.112-11.478h2.849a.47.47,0,1,1,0,.94h-2.83a15.942,15.942,0,0,0-5.649,1.513,9.384,9.384,0,0,0-5.541,9.025v20.39H262.2v-20.39a9.384,9.384,0,0,0-5.541-9.025,15.9,15.9,0,0,0-5.667-1.513h-2.812a.47.47,0,0,1,0-.94h2.831c.14.005,12.131.6,12.131,11.478v20.86A.47.47,0,0,1,262.67,123.789Z" fill="#231815"/>
          </g>
          <path d="M248.118,91.646s0,3.067-3.722,3.067-3.6-3.262-3.6-3.262v.2s0,3.067-3.722,3.067-3.6-3.262-3.6-3.262Z" fill="#fff"/>
          <g>
            <rect x="233.47" y="86.671" width="14.709" height="4.779" fill="#f4aeb6"/>
            <path d="M248.179,91.921H233.47a.469.469,0,0,1-.47-.47v-4.78a.469.469,0,0,1,.47-.47h14.709a.47.47,0,0,1,.471.47v4.78A.47.47,0,0,1,248.179,91.921Zm-14.238-.94h13.768v-3.84H233.941Z" fill="#231815"/>
          </g>
          <g>
            <g>
              <path d="M240.794,23.809S267.4,21.587,263.682,60c0,0-1.4,12.6-15.5,26.674h-14.77C219.309,72.593,217.906,60,217.906,60c-3.718-38.41,22.888-36.188,22.888-36.188" fill="#f4aeb6"/>
              <path d="M248.179,87.141h-14.77a.468.468,0,0,1-.332-.137,60.943,60.943,0,0,1-13.139-18.763,31.753,31.753,0,0,1-2.5-8.192c-1.35-13.947,1.093-24.185,7.26-30.434a23.773,23.773,0,0,1,32.19,0c6.168,6.249,8.611,16.487,7.261,30.428-.015.134-1.584,12.929-15.638,26.961A.472.472,0,0,1,248.179,87.141ZM233.6,86.2h14.38c13.7-13.748,15.217-26.132,15.23-26.255,1.32-13.636-1.029-23.616-6.984-29.66a21.122,21.122,0,0,0-15.4-6.008.508.508,0,0,1-.078,0,21.134,21.134,0,0,0-15.4,6.008c-5.954,6.043-8.3,16.024-6.983,29.666C218.388,60.069,219.93,72.475,233.6,86.2Z" fill="#231815"/>
            </g>
            <path d="M240.809,73.193h9.036s-2.069,3.122-9.046,3.122-9.046-3.122-9.046-3.122h9.056Z" fill="#e84572"/>
            <path d="M249.845,73.193H231.753s3.961-3.377,5.812-3.548A4.21,4.21,0,0,1,240.8,71.2a4.213,4.213,0,0,1,3.239-1.556C245.884,69.816,249.845,73.193,249.845,73.193Z" fill="#e84572"/>
            <path d="M250.678,61.44a5.269,5.269,0,1,1,0-10.537,5.4,5.4,0,0,1,3.865,1.621,5.2,5.2,0,0,1,1.5,3.653A5.313,5.313,0,0,1,250.678,61.44Z" fill="#fff8ee"/>
            <path d="M247.286,57.045a2.682,2.682,0,1,1,2.679,2.632A2.655,2.655,0,0,1,247.286,57.045Z" fill="#97d2ce"/>
            <path d="M249.965,56.14a.9.9,0,1,1-.915.905A.913.913,0,0,1,249.965,56.14Z" fill="#231815"/>
            <path d="M229.232,57.045a.918.918,0,1,1,.915.9A.908.908,0,0,1,229.232,57.045Z" fill="#231815"/>
            <path d="M230.859,61.44a5.311,5.311,0,0,1-5.354-5.263,5.192,5.192,0,0,1,1.5-3.653,5.386,5.386,0,0,1,3.859-1.621,5.269,5.269,0,1,1,0,10.537Z" fill="#fff8ee"/>
            <path d="M227.462,57.045a2.683,2.683,0,1,1,2.685,2.632A2.659,2.659,0,0,1,227.462,57.045Z" fill="#97d2ce"/>
            <path d="M230.86,61.91a5.786,5.786,0,0,1-5.825-5.733,5.664,5.664,0,0,1,1.629-3.982,5.9,5.9,0,0,1,4.2-1.762,5.739,5.739,0,1,1,0,11.477Zm0-10.536a4.947,4.947,0,0,0-3.523,1.479,4.727,4.727,0,0,0-1.361,3.324,4.882,4.882,0,1,0,4.884-4.8Z" fill="#231815"/>
            <path d="M230.147,60.147a3.1,3.1,0,1,1,3.151-3.1A3.132,3.132,0,0,1,230.147,60.147Zm0-5.268a2.164,2.164,0,1,0,2.209,2.166A2.193,2.193,0,0,0,230.147,54.879Z" fill="#231815"/>
            <path d="M229.247,51.488a.468.468,0,0,1-.444-.316l-.661-1.911a.47.47,0,0,1,.889-.308l.661,1.911a.471.471,0,0,1-.291.6A.487.487,0,0,1,229.247,51.488Z" fill="#231815"/>
            <path d="M227,53a.463.463,0,0,1-.36-.17l-1.574-1.519a.471.471,0,1,1,.654-.677l1.607,1.551A.474.474,0,0,1,227,53Z" fill="#231815"/>
            <path d="M232.894,51.689a.461.461,0,0,1-.154-.026.469.469,0,0,1-.291-.6l.661-1.917a.47.47,0,1,1,.889.306l-.661,1.917A.469.469,0,0,1,232.894,51.689Z" fill="#231815"/>
            <path d="M235.131,53.2a.471.471,0,0,1-.327-.809l1.617-1.566a.471.471,0,0,1,.654.677l-1.617,1.566A.469.469,0,0,1,235.131,53.2Z" fill="#231815"/>
            <path d="M250.678,61.91a5.739,5.739,0,1,1,0-11.477,5.842,5.842,0,0,1,4.2,1.762,5.668,5.668,0,0,1,1.629,3.982A5.789,5.789,0,0,1,250.678,61.91Zm0-10.536a4.8,4.8,0,1,0,4.889,4.8,4.723,4.723,0,0,0-1.361-3.323A4.9,4.9,0,0,0,250.678,51.374Z" fill="#231815"/>
            <path d="M249.965,60.147a3.1,3.1,0,1,1,3.156-3.1A3.129,3.129,0,0,1,249.965,60.147Zm0-5.268a2.165,2.165,0,1,0,2.215,2.166A2.191,2.191,0,0,0,249.965,54.879Z" fill="#231815"/>
            <path d="M252.3,51.488a.487.487,0,0,1-.154-.025.471.471,0,0,1-.291-.6l.661-1.911a.471.471,0,0,1,.89.308l-.662,1.911A.468.468,0,0,1,252.3,51.488Z" fill="#231815"/>
            <path d="M254.869,52.863l-.658-.672,1.612-1.556a.47.47,0,0,1,.653.677Z" fill="#231815"/>
            <path d="M248.649,51.689a.471.471,0,0,1-.445-.317l-.661-1.917a.47.47,0,1,1,.889-.306l.662,1.917a.47.47,0,0,1-.292.6A.456.456,0,0,1,248.649,51.689Z" fill="#231815"/>
            <path d="M246.406,53.2a.47.47,0,0,1-.327-.133L244.467,51.5a.47.47,0,0,1,.655-.675l1.612,1.566a.47.47,0,0,1-.328.808Z" fill="#231815"/>
            <path d="M249.845,73.663H231.753a.47.47,0,0,1-.3-.828c.417-.356,4.131-3.48,6.074-3.658a4.341,4.341,0,0,1,3.277,1.338,4.31,4.31,0,0,1,3.283-1.338c1.938.178,5.652,3.3,6.069,3.658a.47.47,0,0,1-.306.828Zm-16.762-.94h15.433c-1.387-1.075-3.452-2.511-4.521-2.609a3.783,3.783,0,0,0-2.829,1.383.475.475,0,0,1-.367.174h0a.471.471,0,0,1-.366-.174,3.77,3.77,0,0,0-2.823-1.383C236.536,70.212,234.469,71.648,233.083,72.723Z" fill="#231815"/>
            <path d="M240.8,76.785c-7.147,0-9.348-3.2-9.438-3.332a.47.47,0,0,1,.784-.52c.018.027,2.061,2.911,8.654,2.911s8.636-2.884,8.656-2.914a.47.47,0,0,1,.782.523C250.147,73.589,247.946,76.785,240.8,76.785Z" fill="#231815"/>
          </g>
          <path d="M240.794,67.3a2.6,2.6,0,0,1-2.107-1.076,2.439,2.439,0,0,1-.447-2.1c.286-.931,1.82-5.032,2.083-5.735a.471.471,0,0,1,.079-.2.493.493,0,0,1,.779,0,.5.5,0,0,1,.078.183c.245.655,1.8,4.813,2.09,5.751a2.44,2.44,0,0,1-.448,2.1A2.6,2.6,0,0,1,240.794,67.3Zm0-7.485c-.554,1.49-1.451,3.92-1.655,4.583a1.533,1.533,0,0,0,.3,1.268,1.66,1.66,0,0,0,2.7,0,1.538,1.538,0,0,0,.306-1.268C242.245,63.737,241.348,61.307,240.794,59.817Z" fill="#231815"/>
          <path d="M249.845,73.663H231.753a.47.47,0,1,1,0-.94h18.092a.47.47,0,1,1,0,.94Z" fill="#231815"/>
          <path d="M240.825,123.789H218.979a.47.47,0,0,1-.47-.47v-20.86c0-10.876,11.991-11.473,12.112-11.478h2.849a.47.47,0,1,1,0,.94h-2.83a15.942,15.942,0,0,0-5.649,1.513,9.384,9.384,0,0,0-5.541,9.025v20.39h21.375a.47.47,0,0,1,0,.94Z" fill="#231815"/>
          <path d="M262.67,123.789H240.825a.47.47,0,1,1,0-.94H262.2v-20.39a9.384,9.384,0,0,0-5.541-9.025,15.9,15.9,0,0,0-5.667-1.513h-2.812a.47.47,0,0,1,0-.94h2.831c.14.005,12.131.6,12.131,11.478v20.86A.47.47,0,0,1,262.67,123.789Z" fill="#231815"/>
          <path d="M237.073,95.183a4.078,4.078,0,0,1-3.064-1.122A3.89,3.89,0,0,1,233,91.434a.47.47,0,0,1,.94.032,2.972,2.972,0,0,0,.753,1.949,3.187,3.187,0,0,0,2.38.827c3.134,0,3.248-2.332,3.25-2.6a.471.471,0,0,1,.471-.466h0a.469.469,0,0,1,.469.468C241.265,91.682,241.217,95.183,237.073,95.183Z" fill="#231815"/>
          <path d="M244.4,95.183a4.076,4.076,0,0,1-3.063-1.122,3.89,3.89,0,0,1-1.009-2.627.47.47,0,0,1,.94.032,2.972,2.972,0,0,0,.753,1.949,3.187,3.187,0,0,0,2.379.827c3.135,0,3.249-2.332,3.252-2.6a.47.47,0,0,1,.47-.466h0a.469.469,0,0,1,.469.468C248.589,91.682,248.541,95.183,244.4,95.183Z" fill="#231815"/>
          <g>
            <path d="M258.649,46.153s5.227,20.307-3.082,40.219L266.66,86.1c6.522-17.924,5.057-39.142,5.057-39.142-.514-7.966-4.088-32.192-30.892-32.192s-30.379,24.226-30.892,32.192c0,0-1.465,21.218,5.057,39.142l11.092.269C217.773,66.46,223,46.153,223,46.153Z" fill="#fff8ee"/>
            <path d="M255.567,86.842a.47.47,0,0,1-.434-.651c7.557-18.108,3.776-36.785,3.144-39.568h-34.9c-.632,2.783-4.413,21.46,3.143,39.568a.469.469,0,0,1-.045.447.463.463,0,0,1-.4.2l-11.093-.269a.468.468,0,0,1-.43-.309c-6.482-17.812-5.1-39.122-5.085-39.336.27-4.19,1.365-12.272,5.655-19.295,5.406-8.848,14.054-13.334,25.707-13.334s20.3,4.486,25.706,13.334c4.291,7.023,5.385,15.105,5.655,19.3.015.211,1.4,21.521-5.084,39.333a.47.47,0,0,1-.431.309l-11.092.269ZM223,45.683h35.649a.471.471,0,0,1,.456.353c.052.2,5.056,20.231-2.83,39.849l10.052-.245c6.287-17.558,4.935-38.437,4.921-38.646C269.4,18.334,249.357,15.24,240.825,15.24S212.249,18.334,210.4,46.991c-.015.212-1.367,21.091,4.921,38.649l10.051.245c-7.886-19.618-2.881-39.647-2.829-39.849A.47.47,0,0,1,223,45.683Z" fill="#231815"/>
          </g>
        </g>
        <g>
          <line x1="228.962" y1="46.153" x2="228.962" y2="38.747" fill="#ee795e"/>
          <path d="M228.962,46.623a.47.47,0,0,1-.471-.47V38.747a.471.471,0,0,1,.942,0v7.406A.47.47,0,0,1,228.962,46.623Z" fill="#231815"/>
        </g>
        <g>
          <line x1="236.932" y1="46.153" x2="236.932" y2="38.747" fill="#ee795e"/>
          <path d="M236.932,46.623a.47.47,0,0,1-.471-.47V38.747a.471.471,0,1,1,.941,0v7.406A.469.469,0,0,1,236.932,46.623Z" fill="#231815"/>
        </g>
        <g>
          <line x1="244.902" y1="46.153" x2="244.902" y2="38.747" fill="#ee795e"/>
          <path d="M244.9,46.623a.47.47,0,0,1-.471-.47V38.747a.471.471,0,1,1,.941,0v7.406A.469.469,0,0,1,244.9,46.623Z" fill="#231815"/>
        </g>
        <g>
          <line x1="252.872" y1="46.153" x2="252.872" y2="38.747" fill="#ee795e"/>
          <path d="M252.872,46.623a.47.47,0,0,1-.471-.47V38.747a.471.471,0,1,1,.941,0v7.406A.469.469,0,0,1,252.872,46.623Z" fill="#231815"/>
        </g>
        <g>
          <polygon points="375.492 99.325 378.207 147.578 392.528 165.32 426.325 172.094 441.54 162.121 449.987 142.798 450.029 40.356 434.912 3.592 407.5 0.656 384.776 8.271 374.962 39.991 375.314 86.228 375.368 86.228 366.214 79.247 362.314 91.405 342.333 88.129 366.311 101.891 368.975 92.716 375.456 99.269 375.492 99.325" fill="#fff"/>
          <path d="M426.326,172.75a.7.7,0,0,1-.129-.013l-33.8-6.773a.657.657,0,0,1-.382-.232L377.7,147.99a.66.66,0,0,1-.145-.375l-2.7-48.025-5.556-5.619-2.354,8.1a.655.655,0,0,1-.956.385L342.007,88.7a.656.656,0,0,1,.432-1.216l19.423,3.185,3.728-11.62a.656.656,0,0,1,1.022-.321l8.035,6.127L374.306,40a.7.7,0,0,1,.029-.2l9.814-31.72a.654.654,0,0,1,.418-.428L407.292.034A.654.654,0,0,1,407.57,0L434.982,2.94a.656.656,0,0,1,.537.4l15.116,36.764a.649.649,0,0,1,.05.25l-.042,102.44a.66.66,0,0,1-.055.263l-8.447,19.324a.655.655,0,0,1-.241.285l-15.215,9.973A.651.651,0,0,1,426.326,172.75Zm-33.437-8.026,33.3,6.674,14.826-9.718,8.314-19.02.042-102.174L434.454,4.2l-26.881-2.88L385.3,8.786l-9.684,31.3.349,45.875a.656.656,0,0,1-.6.921.75.75,0,0,1-.548-.249l-8.265-6.3-3.616,11.273a.656.656,0,0,1-.731.447L345.8,89.362l20.113,11.544,2.432-8.374a.656.656,0,0,1,1.1-.278l6.482,6.554a.724.724,0,0,1,.082.1l.036.056a.652.652,0,0,1,.106.323l2.7,48.042Z" fill="#231815"/>
        </g>
        <g>
          <path d="M34.319,36.368c.453,0,.533-.224.6-1.744a5.087,5.087,0,0,0,1.451.616c-.173,2.071-.586,2.609-1.9,2.609H32.706c-1.585,0-1.958-.472-1.958-1.94v-2.1H29.136c-.28,2.085-1.066,3.461-4.357,4.2a4.919,4.919,0,0,0-.879-1.389c2.731-.5,3.3-1.377,3.53-2.806H25.805V26.116h8.714v7.7H32.347V35.9c0,.419.08.472.586.472Zm-6.982-8.076h5.569v-.813H27.337Zm0,2.072h5.569v-.813H27.337Zm0,2.084h5.569v-.813H27.337Z"/>
          <path d="M25.858,41.87c1.079-.078,3.211-.275,5.57-.485,1.332-.1,2.744-.184,3.65-.21l.014,1.626a13.321,13.321,0,0,0-2.492.183,3.837,3.837,0,0,0-2.731,3.527c0,2.085,2,2.831,4.183,2.95l-.612,1.757c-2.706-.171-5.264-1.613-5.264-4.366a4.993,4.993,0,0,1,1.906-3.894c-1.119.131-3.838.407-5.33.721l-.16-1.743C25.1,41.923,25.605,41.9,25.858,41.87Z"/>
          <path d="M33.493,55.672c-.307.183-.614.367-.893.564-.693.485-1.905,1.52-2.705,2.163a4.039,4.039,0,0,1,1.173-.158c2.2,0,3.864,1.3,3.864,3.212,0,2.019-1.719,3.605-4.93,3.605-1.719,0-2.891-.813-2.891-2.084a2.158,2.158,0,0,1,2.318-1.98,2.6,2.6,0,0,1,2.745,2.1A1.863,1.863,0,0,0,33.24,61.4c0-1.1-1.08-1.836-2.585-1.836-1.932,0-3.318,1.088-4.65,2.622l-1.213-1.18c.906-.734,2.439-2.045,3.2-2.674.706-.6,1.918-1.639,2.558-2.19-.666.014-2.185.093-2.864.132-.373.026-.76.052-1.066.105l-.054-1.652a11.651,11.651,0,0,0,1.186.066c.666,0,3.185-.066,3.931-.132a4.573,4.573,0,0,0,.972-.144Zm-2.811,7.852c-.107-.786-.56-1.3-1.253-1.3-.479,0-.8.263-.8.6,0,.472.452.735,1.212.735C30.135,63.564,30.415,63.55,30.682,63.524Z"/>
          <path d="M34.319,78.387c.453,0,.533-.223.6-1.744a5.089,5.089,0,0,0,1.451.617c-.173,2.071-.586,2.608-1.9,2.608H32.706c-1.585,0-1.958-.472-1.958-1.94v-2.1H29.136c-.28,2.084-1.066,3.46-4.357,4.195a4.924,4.924,0,0,0-.879-1.39c2.731-.5,3.3-1.376,3.53-2.8H25.805v-7.7h8.714v7.7H32.347v2.084c0,.42.08.472.586.472Zm-6.982-8.075h5.569V69.5H27.337Zm0,2.071h5.569V71.57H27.337Zm0,2.084h5.569v-.812H27.337Z"/>
          <path d="M25.858,83.89c1.079-.079,3.211-.276,5.57-.485,1.332-.105,2.744-.184,3.65-.21l.014,1.626A13.321,13.321,0,0,0,32.6,85a3.835,3.835,0,0,0-2.731,3.527c0,2.084,2,2.831,4.183,2.949l-.612,1.757c-2.706-.171-5.264-1.613-5.264-4.366a4.991,4.991,0,0,1,1.906-3.893c-1.119.131-3.838.406-5.33.721l-.16-1.743C25.1,83.942,25.605,83.916,25.858,83.89Z"/>
          <path d="M33.493,97.692c-.307.183-.614.367-.893.564-.693.485-1.905,1.52-2.705,2.163a4.039,4.039,0,0,1,1.173-.158c2.2,0,3.864,1.3,3.864,3.212,0,2.019-1.719,3.605-4.93,3.605-1.719,0-2.891-.813-2.891-2.084a2.158,2.158,0,0,1,2.318-1.98,2.6,2.6,0,0,1,2.745,2.1,1.863,1.863,0,0,0,1.066-1.69c0-1.1-1.08-1.836-2.585-1.836-1.932,0-3.318,1.088-4.65,2.622l-1.213-1.18c.906-.734,2.439-2.045,3.2-2.674.706-.6,1.918-1.639,2.558-2.19-.666.014-2.185.093-2.864.132-.373.026-.76.052-1.066.105l-.054-1.652a11.651,11.651,0,0,0,1.186.066c.666,0,3.185-.066,3.931-.131a4.618,4.618,0,0,0,.972-.145Zm-2.811,7.852c-.107-.786-.56-1.3-1.253-1.3-.479,0-.8.263-.8.6,0,.472.452.735,1.212.735C30.135,105.584,30.415,105.57,30.682,105.544Z"/>
          <path d="M30.281,110.591A1.2,1.2,0,1,1,29,111.8,1.218,1.218,0,0,1,30.281,110.591Zm0,4.969A1.2,1.2,0,1,1,29,116.752,1.215,1.215,0,0,1,30.281,115.56Zm0,4.968A1.2,1.2,0,1,1,29,121.72,1.216,1.216,0,0,1,30.281,120.528Z"/>
        </g>
        <g>
          <path d="M425.642,24.361c-.066.144-.16.406-.24.642a3.317,3.317,0,0,1,2.492,3.12c0,1.8-1.079,3.539-4.25,4.011l-.867-1.337c2.5-.262,3.5-1.507,3.5-2.753a1.875,1.875,0,0,0-1.333-1.77,9.607,9.607,0,0,1-2.718,3.841c.094.328.2.656.307.958l-1.493.432c-.053-.157-.106-.328-.16-.511a4.71,4.71,0,0,1-2.011.511,1.665,1.665,0,0,1-1.746-1.861c0-1.626,1.373-3.343,3.185-4.169.027-.538.066-1.075.12-1.586h-.413c-.68,0-1.693-.066-2.292-.092l-.04-1.469a20.819,20.819,0,0,0,2.385.171h.506l.067-.681a4.943,4.943,0,0,0,.04-.761l1.692.052c-.08.236-.133.472-.187.669-.039.21-.08.446-.119.682a21.312,21.312,0,0,0,4.369-.551l.014,1.482a40.212,40.212,0,0,1-4.584.445c-.039.38-.066.76-.093,1.154a8.007,8.007,0,0,1,1.932-.236h.226a6.765,6.765,0,0,0,.121-.761Zm-5.09,5.164a17.036,17.036,0,0,1-.266-2.543,3.352,3.352,0,0,0-1.625,2.347c0,.406.173.616.6.616A2.737,2.737,0,0,0,420.552,29.525Zm1.173-3.172a14.374,14.374,0,0,0,.146,2.111,7.524,7.524,0,0,0,1.639-2.412,6.312,6.312,0,0,0-1.785.288Z"/>
          <path d="M422.125,44c.506-.053.853-.132,1.212-.2a3.471,3.471,0,0,0,2.931-3.4,3.154,3.154,0,0,0-2.7-3.356,23.994,23.994,0,0,1-.773,3.435c-.773,2.57-1.879,4.143-3.291,4.143-1.439,0-2.638-1.561-2.638-3.71a5.715,5.715,0,0,1,5.956-5.428,4.887,4.887,0,0,1,5.209,4.956c0,2.661-1.665,4.575-4.93,5.06Zm-1-3.841a20.794,20.794,0,0,0,.693-3.081,4.034,4.034,0,0,0-3.278,3.683c0,1.285.52,1.9,1.013,1.9C420.086,42.658,420.593,41.872,421.125,40.155Z"/>
          <path d="M423.99,57.666a9.841,9.841,0,0,0,.106,1.691h-2.051c.04-.3.093-1.115.093-1.691V53.457a25.046,25.046,0,0,1-4.517,1.744l-.932-1.56a20.233,20.233,0,0,0,5.955-2.346,13.428,13.428,0,0,0,3.411-2.9l1.4,1.245a22.22,22.22,0,0,1-3.464,2.766Z"/>
          <path d="M427.268,64.965a4.5,4.5,0,0,0-.067.681c-.053,1.39-.226,4.982-.786,6.293a1.616,1.616,0,0,1-1.679.983c-.746,0-1.532-.053-2.171-.105l-.2-1.717a10.785,10.785,0,0,0,1.839.184.677.677,0,0,0,.733-.459,16.984,16.984,0,0,0,.56-4.772h-2.958c-.466,3.408-1.719,5.414-4.051,7.039L416.968,71.9a7.723,7.723,0,0,0,1.719-1.258,7.5,7.5,0,0,0,2.146-4.588h-1.719c-.44,0-1.173.013-1.719.052V64.414a15.576,15.576,0,0,0,1.719.105h1.865c.013-.354.027-.734.027-1.127a9.054,9.054,0,0,0-.094-1.181h1.919c-.027.3-.067.839-.08,1.154-.013.394-.027.787-.054,1.154h2.465a6.068,6.068,0,0,0,.987-.092Z"/>
          <path d="M427.081,79.2a22.919,22.919,0,0,0-2.811-2.845l1.372-1.14a24.7,24.7,0,0,1,2.851,2.805Z"/>
          <path d="M428.44,84.912v1.4H416.382v-1.4h2.838a8.846,8.846,0,0,0-1-1.442l1.5-.511a7.241,7.241,0,0,1,1.239,1.7l-.732.249h3.7a14.649,14.649,0,0,0,1.093-1.979l1.719.5c-.32.512-.679,1.022-1.012,1.481Zm-6.062,8.758c0,.668-.133,1.035-.587,1.258a4.232,4.232,0,0,1-1.851.249,5.377,5.377,0,0,0-.506-1.324c.493.026,1.025.026,1.2.013s.214-.052.214-.21V92.489H418.62v2.649h-1.5V87.22h5.263Zm-3.758-5.139v.812h2.226v-.812Zm2.226,2.818V90.5H418.62v.852Zm4.13,1.35h-1.453V87.351h1.453Zm1.2-5.715h1.559V93.5c0,.773-.147,1.154-.679,1.4a5.314,5.314,0,0,1-2.186.262A5.409,5.409,0,0,0,424.3,93.7c.68.026,1.373.026,1.6.013.212,0,.279-.053.279-.236Z"/>
          <path d="M426.229,102.5a4.733,4.733,0,0,1,1.252,3.055c0,1.913-1.745,3.3-4.583,3.3-2.026,0-3.464-.865-3.464-3,0-.3.026-.734.08-1.245a14.384,14.384,0,0,1-2.466-.433l.08-1.534a10.918,10.918,0,0,0,2.559.512c.066-.564.146-1.167.213-1.731a16,16,0,0,1-2.558-.459l.066-1.481a10.9,10.9,0,0,0,2.678.485c.04-.367.067-.708.094-.983a6.355,6.355,0,0,0,.013-1.128l1.825.092c-.106.472-.16.8-.227,1.127l-.132.944a18.408,18.408,0,0,0,2.357-.157l-.053,1.508a22.417,22.417,0,0,1-2.518.131c-.067.564-.147,1.154-.213,1.717h.107a25.684,25.684,0,0,0,2.584-.157l-.053,1.521a20.791,20.791,0,0,1-2.278.117h-.506a7.765,7.765,0,0,0-.054.879c0,1.048.64,1.626,1.919,1.626,1.8,0,2.785-.813,2.785-1.862A3.427,3.427,0,0,0,424.4,102.9Z"/>
          <path d="M426.615,122.216c.453,0,.533-.224.6-1.744a5.087,5.087,0,0,0,1.451.616c-.173,2.071-.586,2.609-1.9,2.609H425c-1.585,0-1.958-.472-1.958-1.94v-2.1h-1.612c-.28,2.084-1.066,3.461-4.357,4.195a4.919,4.919,0,0,0-.879-1.389c2.731-.5,3.3-1.377,3.53-2.806H418.1v-7.7h8.714v7.7h-2.172v2.084c0,.42.08.473.586.473Zm-6.982-8.076H425.2v-.813h-5.569Zm0,2.072H425.2V115.4h-5.569Zm0,2.084H425.2v-.813h-5.569Z"/>
          <path d="M423.75,129.331c-.772.17-1.652.314-2.5.419-.121.538-.254,1.1-.4,1.626a40.15,40.15,0,0,1-2.039,5.873l-1.825-.59a27.62,27.62,0,0,0,2.251-5.716c.094-.34.187-.708.267-1.062-.293.014-.573.027-.839.027-.627,0-1.133-.027-1.573-.053l-.04-1.586a12.557,12.557,0,0,0,1.626.1c.373,0,.76-.013,1.146-.04.053-.275.093-.524.12-.721a6.445,6.445,0,0,0,.053-1.3l1.972.145c-.094.367-.213.931-.267,1.206l-.106.472c.719-.105,1.452-.236,2.158-.406Zm-.266,4.169a4.857,4.857,0,0,0-.173,1.061c0,.551.319.971,1.705.971a14.9,14.9,0,0,0,2.691-.263l-.066,1.639a20.683,20.683,0,0,1-2.639.184c-2.171,0-3.29-.748-3.29-2.032a8.306,8.306,0,0,1,.226-1.692Zm-.76-3.2c.719-.052,1.652-.118,2.478-.118a22.4,22.4,0,0,1,2.279.118l-.04,1.533a18.631,18.631,0,0,0-2.225-.17,21.939,21.939,0,0,0-2.492.144Z"/>
          <path d="M421.5,142.844c-.174.223-.44.616-.653.957-.013.131-.027.249-.04.38a6.46,6.46,0,0,1,3.81-1.324,3.4,3.4,0,0,1,3.557,3.421c0,2.57-1.638,4.117-4.849,4.746l-.759-1.546c2.264-.342,3.876-1.246,3.876-3.226a1.96,1.96,0,0,0-2.092-1.9,5.494,5.494,0,0,0-3.663,1.639c-.013.367-.027.721-.027,1.049,0,1.036,0,2.111.08,3.3.014.223.053.694.094.969h-1.786c.027-.261.04-.734.04-.943.027-.984.027-1.7.04-2.766-.546.786-1.186,1.717-1.626,2.32l-1.012-1.4c.732-.878,2.038-2.556,2.771-3.631l.053-.891c-.626.078-1.612.2-2.345.3l-.16-1.638a10.736,10.736,0,0,0,1.12-.014c.373-.026.946-.091,1.492-.17.027-.472.053-.826.053-.97a6.484,6.484,0,0,0-.053-1.128l1.878.053c-.079.354-.173,1.01-.279,1.8Z"/>
          <path d="M398.814,20.926a21.3,21.3,0,0,1-1.092,2.4v9.347h-1.586V25.815a13.607,13.607,0,0,1-.932,1.1,10.111,10.111,0,0,0-.853-1.626,13.454,13.454,0,0,0,2.971-4.837Zm8.088,2.163h-.8v7.774c0,.9-.2,1.324-.772,1.573a7.844,7.844,0,0,1-2.7.289,5.826,5.826,0,0,0-.533-1.6c.866.039,1.8.039,2.065.039s.347-.078.347-.327V23.089H398.7V21.594H406.9Zm-6.569,6.161V30.1h-1.479v-5.6h4.437V29.25Zm0-3.395V27.9h1.479V25.855Z"/>
          <path d="M401.839,40.22c-.52.366-1.026.708-1.572,1.049H405.1v5.82h-1.652v-.341h-4.583v.394h-1.586V42.855c-.666.288-1.359.577-2.039.826a8.581,8.581,0,0,0-.972-1.285,23.961,23.961,0,0,0,4.956-2.176H394.7V38.843h4.277V37.65h-3.131V36.3h3.131V34.884h1.572V36.3h2.892v.643a15.987,15.987,0,0,0,1.372-1.666l1.359.682a19.207,19.207,0,0,1-2.625,2.884h3.091V40.22Zm1.612,2.32h-4.583v.839h4.583Zm0,2.91v-.891h-4.583v.891Zm-2.905-6.607h.733a18.035,18.035,0,0,0,1.439-1.193h-2.172Z"/>
          <path d="M399.68,52.211c.427-.026.813-.052,1.08-.052,1.372,0,2.331.6,2.331,2.425a12.377,12.377,0,0,1-.732,4.641,2.072,2.072,0,0,1-2.119,1.167,8.141,8.141,0,0,1-1.545-.184l-.281-1.691a7.333,7.333,0,0,0,1.572.275.962.962,0,0,0,.973-.55,9.76,9.76,0,0,0,.52-3.487c0-1-.44-1.154-1.253-1.154-.2,0-.519.027-.879.053a27.219,27.219,0,0,1-2.624,6.791l-1.693-.669a18.771,18.771,0,0,0,2.6-5.939c-.467.052-.867.1-1.106.131-.373.053-1.04.131-1.44.21l-.146-1.73a12.093,12.093,0,0,0,1.373,0c.4-.013,1.012-.053,1.665-.1a13.346,13.346,0,0,0,.266-2.688l1.919.2c-.067.341-.147.734-.213,1.049Zm4.943-1.166a21.916,21.916,0,0,1,2.265,4.719l-1.638.761a14.671,14.671,0,0,0-2.172-4.851Z"/>
          <path d="M399,63.365c-.08.537-.147,1.193-.174,1.691-.053,1.377-.146,4.221-.146,5.794a1.552,1.552,0,0,0,1.772,1.705,5.21,5.21,0,0,0,4.437-2.6l1.159,1.415a6.693,6.693,0,0,1-5.609,2.911c-2.119,0-3.477-.918-3.477-3.081,0-1.7.119-5.047.119-6.148a8.492,8.492,0,0,0-.16-1.7Z"/>
          <path d="M398.135,82.567a6.3,6.3,0,0,1,3.784-1.206c2.265,0,3.584,1.377,3.584,2.911,0,2.333-1.866,4.1-7.235,3.644l-.493-1.665c3.877.538,5.929-.393,5.929-2.019,0-.826-.8-1.428-1.945-1.428a4.625,4.625,0,0,0-3.571,1.494,3.74,3.74,0,0,0-.479.734l-1.493-.354a44.917,44.917,0,0,0,.64-5.309l1.745.235C398.428,80.313,398.215,81.833,398.135,82.567Zm.386-5.519a40.477,40.477,0,0,0,5.17.983L403.3,79.6c-1.3-.183-4.2-.773-5.2-1.022Z"/>
          <path d="M401.491,91.665a1.2,1.2,0,1,1-1.279,1.206A1.218,1.218,0,0,1,401.491,91.665Zm0,4.968a1.2,1.2,0,1,1-1.279,1.193A1.215,1.215,0,0,1,401.491,96.633Zm0,4.968a1.2,1.2,0,1,1-1.279,1.193A1.216,1.216,0,0,1,401.491,101.6Z"/>
        </g>
        <path d="M301.553,57.045a.918.918,0,1,0-.92.9A.913.913,0,0,0,301.553,57.045Z" fill="#121659"/>
        <path d="M231.067,57.045a.918.918,0,1,0-.92.9A.912.912,0,0,0,231.067,57.045Z" fill="#121659"/>
      </g>
    </g>
  </g>
</svg>
