<svg xmlns="http://www.w3.org/2000/svg" width="72.526" height="72.524" viewBox="0 0 72.526 72.524">
  <g id="レイヤー_2" data-name="レイヤー 2">
    <g id="レイヤー_1-2" data-name="レイヤー 1">
      <g>
        <g>
          <circle cx="36.263" cy="36.262" r="35.589" fill="#ee795e"/>
          <path d="M36.263,72.524A36.262,36.262,0,1,1,72.526,36.262,36.3,36.3,0,0,1,36.263,72.524Zm0-71.176A34.915,34.915,0,1,0,71.177,36.262,34.954,34.954,0,0,0,36.263,1.348Z" fill="#231815"/>
        </g>
        <g>
          <g>
            <path d="M15.774,32.927l1.179-1.415a4.041,4.041,0,0,0,2.608,1.137c1.067,0,1.636-.458,1.636-1.178,0-.764-.624-1-1.539-1.388L18.285,29.5A2.975,2.975,0,0,1,16.2,26.74c0-1.678,1.47-2.968,3.551-2.968a4.555,4.555,0,0,1,3.218,1.318l-1.041,1.29a3.273,3.273,0,0,0-2.177-.846c-.9,0-1.47.4-1.47,1.081,0,.736.721,1,1.594,1.346l1.346.568a2.838,2.838,0,0,1,2.067,2.788c0,1.679-1.4,3.108-3.773,3.108A5.469,5.469,0,0,1,15.774,32.927Z" fill="#231815"/>
            <path d="M25.292,30.347a3.873,3.873,0,0,1,3.967-4.077,3.4,3.4,0,0,1,2.261.859l-.971,1.317a1.767,1.767,0,0,0-1.179-.512c-1.193,0-2,.957-2,2.413s.818,2.413,1.927,2.413a2.415,2.415,0,0,0,1.512-.624l.819,1.345a3.917,3.917,0,0,1-2.552.944C26.929,34.425,25.292,32.927,25.292,30.347Z" fill="#231815"/>
            <path d="M33.922,26.463h1.664l.153,1.373h.042a2.689,2.689,0,0,1,2.2-1.566,2.179,2.179,0,0,1,.915.166L38.555,28.2a2.579,2.579,0,0,0-.819-.125c-.61,0-1.345.4-1.775,1.526V34.23H33.922Z" fill="#231815"/>
            <path d="M40.152,30.347a3.746,3.746,0,1,1,7.462,0,3.746,3.746,0,1,1-7.462,0Zm5.382,0c0-1.456-.6-2.413-1.651-2.413s-1.65.957-1.65,2.413.6,2.413,1.65,2.413S45.534,31.817,45.534,30.347Z" fill="#231815"/>
            <path d="M50.156,32.053V23.162H52.2v8.974c0,.471.208.624.4.624a1.145,1.145,0,0,0,.278-.028l.249,1.512a2.7,2.7,0,0,1-1.054.181C50.655,34.425,50.156,33.495,50.156,32.053Z" fill="#231815"/>
            <path d="M55.359,32.053V23.162H57.4v8.974c0,.471.208.624.4.624a1.145,1.145,0,0,0,.278-.028l.249,1.512a2.7,2.7,0,0,1-1.054.181C55.858,34.425,55.359,33.495,55.359,32.053Z" fill="#231815"/>
          </g>
          <polygon points="50.268 47.622 20.344 47.622 26.453 41.513 27.574 42.634 24.171 46.036 50.268 46.036 50.268 47.622" fill="#231815"/>
        </g>
      </g>
    </g>
  </g>
</svg>
