<svg xmlns="http://www.w3.org/2000/svg" xmlns:xlink="http://www.w3.org/1999/xlink" width="502.051" height="203.315" viewBox="0 0 502.051 203.315">
  <defs>
    <clipPath id="clip-path">
      <rect x="290.187" y="87.564" width="11.67" height="18.399" fill="none"/>
    </clipPath>
    <clipPath id="clip-path-2">
      <polygon points="176.873 202.658 137.243 202.658 137.243 197.28 138.484 194.178 138.484 154.64 137.243 151.538 137.243 146.16 176.873 146.16 176.873 151.538 175.632 154.64 175.632 194.178 176.873 197.28 176.873 202.658" fill="none"/>
    </clipPath>
  </defs>
  <g id="レイヤー_2" data-name="レイヤー 2">
    <g id="レイヤー_1-2" data-name="レイヤー 1">
      <g>
        <g>
          <polygon points="498.082 31.905 475.487 5.904 444.719 0.689 412.818 11.841 395.105 47.922 395.844 93.02 383.264 98.216 374.611 85.948 347.852 103.206 372.144 99.092 380.252 112.711 396.086 107.788 396.417 127.956 416.098 162.725 447.578 172.293 483.668 160.101 501.363 122.776 498.082 31.905" fill="#fff"/>
          <path d="M447.578,172.981a.685.685,0,0,1-.2-.03l-31.48-9.567a.688.688,0,0,1-.4-.32l-19.681-34.769a.683.683,0,0,1-.09-.327l-.315-19.25-14.957,4.65a.689.689,0,0,1-.8-.3l-7.866-13.214-23.827,4.036a.7.7,0,0,1-.757-.43.689.689,0,0,1,.269-.828l26.76-17.257a.687.687,0,0,1,.935.182l8.335,11.818,11.64-4.808-.733-44.628a.7.7,0,0,1,.071-.316L412.2,11.537a.688.688,0,0,1,.391-.345L444.492.039a.685.685,0,0,1,.342-.029L475.6,5.225a.684.684,0,0,1,.4.227l22.6,26a.694.694,0,0,1,.169.427l3.28,90.871a.692.692,0,0,1-.066.32L484.29,160.4a.687.687,0,0,1-.4.357L447.8,172.945A.694.694,0,0,1,447.578,172.981Zm-31.017-10.834,31.006,9.423,35.6-12.027,17.5-36.91L497.4,32.173,475.128,6.541,444.779,1.4l-31.468,11L395.8,48.077l.736,44.931a.687.687,0,0,1-.425.648l-12.581,5.2a.687.687,0,0,1-.825-.24L374.43,86.885l-23.387,15.082,20.987-3.555a.687.687,0,0,1,.706.327l7.83,13.153,15.316-4.762a.681.681,0,0,1,.608.1.689.689,0,0,1,.285.546l.328,19.994Z" fill="#231815"/>
        </g>
        <g>
          <path d="M471.375,33.662a11.03,11.03,0,0,0-3.307.63c-.367.1-.866.315-1.233.433l-.486-1.811c.433-.039.984-.144,1.391-.223a17.3,17.3,0,0,1,3.845-.577c2.021,0,3.426,1.141,3.426,3.136,0,2.729-2.52,4.423-6.051,4.908l-.918-1.588c3.162-.367,5.17-1.391,5.17-3.386C473.212,34.344,472.582,33.662,471.375,33.662Zm2.573-4.015-.25,1.561c-1.5-.092-4.265-.341-5.722-.6l.249-1.522A38.372,38.372,0,0,0,473.948,29.647Z"/>
          <path d="M472.989,44.971a4.185,4.185,0,0,1,3.334,4.291c0,2.691-1.917,4.252-4.567,4.646l-.985-1.469c2.809-.25,3.9-1.667,3.9-3.255a2.74,2.74,0,0,0-2.06-2.808,15.783,15.783,0,0,1-1.719,4.041,10,10,0,0,0,.708.762L470.3,52.2c-.157-.17-.3-.341-.433-.5a3.242,3.242,0,0,1-2.493,1.352c-1.063,0-2.021-.892-2.021-2.532a5.5,5.5,0,0,1,1.863-4.016c-.118-.354-.236-.709-.341-1.05a8.221,8.221,0,0,0-.512-1.313l1.68-.511c.078.407.183.826.276,1.207.065.249.144.512.223.775a6.766,6.766,0,0,1,2.9-.762c.039-.223.091-.42.118-.616a6.556,6.556,0,0,0,.079-1.208l1.784.171c-.105.354-.236.958-.314,1.286Zm-4.042,5.473A13.363,13.363,0,0,1,467.766,48a3.846,3.846,0,0,0-.919,2.388c0,.617.263,1.024.71,1.024S468.488,51.021,468.947,50.444Zm.066-3.451a12.225,12.225,0,0,0,.906,2.034,15.864,15.864,0,0,0,1.141-2.73A5.225,5.225,0,0,0,469.013,46.993Z"/>
          <path d="M473.291,61.4c-.577.5-1.759,1.588-2.06,1.917a1.425,1.425,0,0,1,.473.1c.38.1.59.394.773.866.119.342.25.827.355,1.142a.8.8,0,0,0,.892.59,13.173,13.173,0,0,0,2.507-.209l-.119,1.68a20.836,20.836,0,0,1-2.493.17c-1.194,0-1.863-.263-2.165-1.089-.131-.368-.289-.971-.381-1.286-.144-.446-.42-.617-.682-.617a1.4,1.4,0,0,0-.814.511c-.446.447-1.391,1.484-2.27,2.586l-1.522-1.05a9.574,9.574,0,0,0,.879-.774c.656-.669,3.267-3.255,4.423-4.475-.88.026-2.4.157-3.137.223-.433.039-.826.1-1.1.144l-.144-1.758c.289.026.761.052,1.221.052.6-.013,3.491-.144,4.553-.275a3.384,3.384,0,0,0,.7-.158l.958,1.063C473.79,60.993,473.527,61.215,473.291,61.4Zm.381-4.068-.2,1.5c-1.338-.1-3.714-.368-5.236-.63l.249-1.483C469.905,56.977,472.36,57.252,473.672,57.331Z"/>
          <path d="M469.512,79.454a1.367,1.367,0,0,1,2.73,0,1.367,1.367,0,0,1-2.73,0Zm.223-6.693-.053-1.955h2.4l-.066,1.955-.459,4.488h-1.352Z"/>
          <path d="M446.946,34.936a5.054,5.054,0,0,0-.224,1.3c0,.8.775,1.391,2.6,1.391a18.323,18.323,0,0,0,4.475-.5l.013,1.785a19.2,19.2,0,0,1-4.422.433c-2.914,0-4.384-.984-4.384-2.716a7.964,7.964,0,0,1,.263-1.837Zm-1.09-5.394a32.44,32.44,0,0,0,3.465.158c1.246,0,2.717-.079,3.687-.184v1.719c-.879.066-2.467.144-3.674.144-1.339,0-2.441-.052-3.478-.131Z"/>
          <path d="M455.5,52.387a3.376,3.376,0,0,1-2.4.958c-.945,0-1.6-.7-1.6-1.929,0-1.378.459-3.241.459-4.4,0-.629-.315-.944-.853-.944-.945,0-2.336,1.181-3.36,2.309-.013.368-.026.709-.026,1.037,0,1.037,0,2.113.079,3.307.013.223.052.7.092.971h-1.759c.027-.262.039-.735.039-.944.027-.985.027-1.707.04-2.77-.538.787-1.168,1.719-1.6,2.323l-1-1.4c.721-.879,2.007-2.559,2.729-3.635l.052-.893c-.616.079-1.587.2-2.309.3l-.158-1.64a10.665,10.665,0,0,0,1.1-.013c.367-.027.931-.092,1.469-.171.027-.472.053-.827.053-.971a6.6,6.6,0,0,0-.053-1.129l1.851.053c-.079.354-.171,1.011-.276,1.8l.473.617c-.171.223-.433.616-.643.958-.013.091-.013.183-.027.275,1-.866,2.467-1.89,3.7-1.89a1.779,1.779,0,0,1,2,1.877c0,1.312-.42,3.189-.42,4.5,0,.355.17.565.486.565a2.516,2.516,0,0,0,1.64-.906Z"/>
          <path d="M450.4,59.208a18.287,18.287,0,0,1-2.192.446,23.63,23.63,0,0,1-2.69,5.367l-1.548-.8a18.518,18.518,0,0,0,2.546-4.4c-.224.013-.447.013-.657.013-.525,0-1.049-.013-1.6-.066l-.118-1.535a11.445,11.445,0,0,0,1.706.158,11.189,11.189,0,0,0,1.142-.052,10.022,10.022,0,0,0,.328-2.022l1.746.171c-.093.407-.237,1-.407,1.64a15.629,15.629,0,0,0,1.706-.394Zm1.693,1.141c-.039.551-.026,1.076-.013,1.64.013.355.039.945.065,1.536a8.573,8.573,0,0,1,2.638,1.64l-.84,1.365a12.8,12.8,0,0,0-1.732-1.365v.119c0,1.18-.643,2.1-2.454,2.1-1.575,0-2.822-.709-2.822-2.1,0-1.234,1.037-2.206,2.822-2.206.289,0,.578.027.853.053-.04-.931-.105-2.008-.131-2.782ZM450.66,64.5a4.247,4.247,0,0,0-1.011-.118c-.735,0-1.221.315-1.221.748,0,.472.407.8,1.1.8.866,0,1.129-.486,1.129-1.169Zm3.595-3.464a16.878,16.878,0,0,0-3.057-1.811l.826-1.26a23.253,23.253,0,0,1,3.137,1.732Z"/>
          <path d="M446.959,75.688a6.136,6.136,0,0,1,3.727-1.208c2.231,0,3.53,1.378,3.53,2.914,0,2.335-1.837,4.107-7.126,3.647l-.486-1.666c3.819.538,5.84-.394,5.84-2.021,0-.827-.787-1.43-1.916-1.43a4.523,4.523,0,0,0-3.517,1.5,3.771,3.771,0,0,0-.472.735l-1.47-.355a45.752,45.752,0,0,0,.63-5.314l1.719.235C447.248,73.431,447.037,74.953,446.959,75.688Zm.38-5.525a39.724,39.724,0,0,0,5.092.984l-.38,1.574c-1.286-.183-4.134-.773-5.119-1.023Z"/>
          <path d="M448.547,91.091c-.21,2.638-.788,4.305-4.371,5.158a4.592,4.592,0,0,0-.852-1.352c3.11-.6,3.438-1.785,3.6-3.806Zm.039-4.671h-4.908V85h4.908V83.965H450.2V85h5.04V86.42H450.2v.852h3.832v1.366h-9.107V87.272h3.661Zm4.908,5.656V90.684h-8.136v1.392h-1.51v-2.8h11.221v2.8Zm.079,2.571c.433,0,.512-.223.564-1.561a4.49,4.49,0,0,0,1.4.591c-.17,1.889-.577,2.375-1.811,2.375h-1.692c-1.523,0-1.9-.446-1.9-1.85V91.091h1.575v3.084c0,.421.079.472.552.472Z"/>
          <path d="M455.5,108.437a3.372,3.372,0,0,1-2.4.958c-.945,0-1.6-.695-1.6-1.929,0-1.378.459-3.241.459-4.4,0-.63-.315-.945-.853-.945-.945,0-2.336,1.181-3.36,2.31-.013.367-.026.708-.026,1.037,0,1.036,0,2.113.079,3.307.013.223.052.7.092.97h-1.759c.027-.262.039-.735.039-.944.027-.985.027-1.706.04-2.769-.538.787-1.168,1.719-1.6,2.322l-1-1.4c.721-.879,2.007-2.559,2.729-3.635l.052-.892c-.616.079-1.587.2-2.309.3l-.158-1.641a10.665,10.665,0,0,0,1.1-.013c.367-.026.931-.092,1.469-.17.027-.473.053-.827.053-.972a6.583,6.583,0,0,0-.053-1.128l1.851.052c-.079.354-.171,1.011-.276,1.8l.473.617c-.171.223-.433.617-.643.958-.013.092-.013.184-.027.276,1-.867,2.467-1.89,3.7-1.89a1.778,1.778,0,0,1,2,1.877c0,1.312-.42,3.188-.42,4.5,0,.354.17.564.486.564a2.516,2.516,0,0,0,1.64-.906Z"/>
          <path d="M452.773,114.2c-.3.184-.605.368-.88.565-.682.485-1.877,1.522-2.664,2.165a3.953,3.953,0,0,1,1.155-.157c2.166,0,3.806,1.3,3.806,3.215,0,2.021-1.693,3.609-4.856,3.609-1.693,0-2.847-.814-2.847-2.087a2.137,2.137,0,0,1,2.283-1.981,2.565,2.565,0,0,1,2.7,2.1,1.868,1.868,0,0,0,1.05-1.693c0-1.1-1.063-1.837-2.546-1.837-1.9,0-3.268,1.089-4.58,2.625l-1.194-1.182c.892-.734,2.4-2.046,3.15-2.677.695-.6,1.889-1.64,2.519-2.191-.656.013-2.152.092-2.821.131-.368.026-.748.052-1.05.1l-.053-1.654a11.039,11.039,0,0,0,1.168.066c.656,0,3.137-.066,3.872-.131a4.4,4.4,0,0,0,.957-.145ZM450,122.056c-.105-.787-.552-1.3-1.234-1.3-.472,0-.788.263-.788.6,0,.473.446.736,1.195.736C449.466,122.1,449.741,122.082,450,122.056Z"/>
          <path d="M444.544,131.476c.591-.6,1.562-1.929,2.362-2.835.88-1.01,1.706-1.1,2.638-.2.866.839,1.89,2.152,2.638,2.966.813.892,1.9,2.034,3.11,3.123l-1.339,1.5a39.039,39.039,0,0,1-2.781-3.084c-.788-.932-1.733-2.139-2.337-2.808-.446-.486-.695-.42-1.063.039-.5.643-1.417,1.9-1.968,2.625-.289.406-.59.918-.8,1.246l-1.535-1.588A10.2,10.2,0,0,0,444.544,131.476Zm8.806-2.218-1.155.512a11.374,11.374,0,0,0-1.168-2.1l1.115-.473C452.5,127.736,453.061,128.681,453.35,129.258Zm1.771-.747-1.128.537a12.433,12.433,0,0,0-1.234-2.034l1.1-.525A20.088,20.088,0,0,1,455.121,128.511Z"/>
          <path d="M448.087,147.536a1.367,1.367,0,0,1,2.73,0,1.367,1.367,0,0,1-2.73,0Zm.223-6.693-.052-1.955h2.4l-.066,1.955-.46,4.488h-1.351Z"/>
          <path d="M428.973,31.432a18.266,18.266,0,0,1-2.191.446,23.65,23.65,0,0,1-2.69,5.367l-1.549-.8a18.484,18.484,0,0,0,2.546-4.4c-.224.014-.446.014-.657.014-.524,0-1.049-.014-1.6-.066l-.117-1.535a11.56,11.56,0,0,0,1.706.157,11.169,11.169,0,0,0,1.141-.052,9.943,9.943,0,0,0,.328-2.021l1.746.17c-.092.407-.236,1-.407,1.641a15.866,15.866,0,0,0,1.706-.394Zm1.693,1.142c-.039.551-.026,1.075-.013,1.64.013.354.04.945.065,1.535a8.591,8.591,0,0,1,2.639,1.64l-.84,1.366a12.878,12.878,0,0,0-1.733-1.366v.119c0,1.181-.643,2.1-2.454,2.1-1.575,0-2.821-.708-2.821-2.1,0-1.234,1.036-2.205,2.821-2.205.289,0,.578.026.853.052-.039-.931-.105-2.007-.131-2.781Zm-1.43,4.146a4.3,4.3,0,0,0-1.011-.118c-.735,0-1.22.315-1.22.748,0,.472.406.8,1.1.8.866,0,1.129-.486,1.129-1.168Zm3.6-3.464a16.878,16.878,0,0,0-3.057-1.811l.826-1.26a23.253,23.253,0,0,1,3.137,1.732Z"/>
          <path d="M432.057,45.471a2.729,2.729,0,0,1,1.969,2.585c0,1.3-.762,2.835-3.36,3.229l-.748-1.181c2.1-.223,2.7-1.286,2.7-2.166a1.475,1.475,0,0,0-.971-1.325,7.736,7.736,0,0,1-2.087,3.018c.079.262.158.525.236.774l-1.3.381c-.04-.118-.079-.237-.118-.381a3.567,3.567,0,0,1-1.523.381,1.369,1.369,0,0,1-1.43-1.51,4.131,4.131,0,0,1,2.48-3.411c.027-.381.053-.8.092-1.2h-.3c-.551,0-1.3-.039-1.785-.065l-.026-1.286a16.617,16.617,0,0,0,1.811.118h.421l.039-.447a3.633,3.633,0,0,0,.026-.642l1.522.026a3.822,3.822,0,0,0-.158.63l-.078.393a17.875,17.875,0,0,0,3.359-.433v1.313c-.984.157-2.309.289-3.556.354-.026.249-.065.525-.079.8a6.234,6.234,0,0,1,1.483-.171h.118c.04-.21.079-.446.092-.577l1.326.328Zm-3.963,3.675a12.267,12.267,0,0,1-.2-1.9,2.665,2.665,0,0,0-1.168,1.733.417.417,0,0,0,.447.473A2.008,2.008,0,0,0,428.094,49.146ZM430.43,46.4a4.43,4.43,0,0,0-1.286.223,11.068,11.068,0,0,0,.118,1.561A5.843,5.843,0,0,0,430.43,46.4Z"/>
          <path d="M422.806,63.762A1.2,1.2,0,1,1,424,65.022,1.2,1.2,0,0,1,422.806,63.762Zm.288-7.073-.065-1.824h1.942l-.066,1.824-.275,4.842h-1.26Z"/>
          <path d="M431.977,57.318a1.023,1.023,0,0,0-1.115-1.075,2.022,2.022,0,0,0-1.456.735l-1.064-.972a3.634,3.634,0,0,1,2.756-1.312c1.575,0,2.73.814,2.73,2.494,0,1.863-2.284,2.493-2.087,4.343h-1.679C429.747,59.418,431.977,58.579,431.977,57.318Zm-2.27,6.444a1.2,1.2,0,1,1,1.195,1.26A1.205,1.205,0,0,1,429.707,63.762Z"/>
        </g>
        <g>
          <polygon points="86.12 96.468 79.298 110.165 69.064 107.955 69.064 67.23 46.577 39.394 17.056 43.33 0.656 76.787 7.872 135.829 32.145 156.165 54.449 150.917 69.064 127.872 69.064 120.56 88.493 122.035 92.025 104.996 116.084 104.655 86.12 96.468" fill="#fff"/>
          <path d="M32.145,156.821a.658.658,0,0,1-.422-.153L7.451,136.332a.656.656,0,0,1-.23-.424L.005,76.866A.65.65,0,0,1,.067,76.5l16.4-33.457a.653.653,0,0,1,.5-.361l29.521-3.936a.655.655,0,0,1,.6.238L69.574,66.818a.652.652,0,0,1,.146.412v40.2l9.219,1.99,6.594-13.241a.656.656,0,0,1,.76-.34l29.964,8.188a.656.656,0,0,1-.164,1.289l-23.533.332-3.425,16.524a.658.658,0,0,1-.692.521L69.72,121.267v6.605a.653.653,0,0,1-.1.351L55,151.268a.659.659,0,0,1-.4.288L32.3,156.8A.7.7,0,0,1,32.145,156.821ZM8.492,135.492l23.823,19.96,21.724-5.112,14.369-22.658V120.56a.656.656,0,0,1,.706-.655l18.853,1.432,3.415-16.475a.656.656,0,0,1,.634-.522l19.419-.274L86.468,97.243l-6.582,13.214a.652.652,0,0,1-.726.349L68.925,108.6a.658.658,0,0,1-.517-.641V67.462L46.3,40.093,17.491,43.934,1.331,76.9Z" fill="#231815"/>
        </g>
        <g>
          <path d="M35.6,71.055a11.016,11.016,0,0,0-3.307.63c-.368.105-.866.315-1.234.433l-.486-1.811c.433-.039.984-.144,1.391-.223a17.3,17.3,0,0,1,3.845-.577c2.021,0,3.426,1.141,3.426,3.136,0,2.729-2.52,4.423-6.051,4.908l-.918-1.588c3.163-.367,5.17-1.391,5.17-3.386C37.433,71.737,36.8,71.055,35.6,71.055Zm2.572-4.015-.25,1.561c-1.5-.092-4.265-.341-5.722-.6l.25-1.522A38.346,38.346,0,0,0,38.169,67.04Z"/>
          <path d="M39.691,83.179a22.787,22.787,0,0,0-2.769-2.848l1.351-1.142A24.736,24.736,0,0,1,41.082,82Z"/>
          <path d="M35.6,92.232a11.053,11.053,0,0,0-3.307.629c-.368.1-.866.316-1.234.433l-.486-1.811c.433-.039.984-.144,1.391-.223a17.3,17.3,0,0,1,3.845-.577c2.021,0,3.426,1.142,3.426,3.137,0,2.729-2.52,4.422-6.051,4.908l-.918-1.588c3.163-.368,5.17-1.391,5.17-3.386C37.433,92.914,36.8,92.232,35.6,92.232Zm2.572-4.016-.25,1.561c-1.5-.091-4.265-.341-5.722-.6l.25-1.522A38.474,38.474,0,0,0,38.169,88.216Z"/>
          <path d="M35.754,103.016c-.617.906-1.6,2.677-2.218,3.793a2.943,2.943,0,0,1,1.444-.381,1.531,1.531,0,0,1,1.574,1.68c.027.564,0,1.575.066,2.126a.721.721,0,0,0,.8.683c1.115,0,1.8-1.431,2.165-3.019l1.378,1.129c-.657,2.191-1.837,3.622-3.806,3.622a1.894,1.894,0,0,1-2.126-1.759c-.039-.682-.039-1.719-.079-2.23a.675.675,0,0,0-.734-.709c-.866,0-1.575.866-2.034,1.916-.328.748-.761,2.152-.959,2.821l-1.8-.6a99.909,99.909,0,0,1,4.3-9.094c.144-.341.393-.761.617-1.3l1.81.735A5.96,5.96,0,0,0,35.754,103.016Z"/>
          <path d="M33.733,124.457a1.367,1.367,0,0,1,2.73,0,1.367,1.367,0,0,1-2.73,0Zm.223-6.693-.053-1.955h2.4l-.066,1.955-.459,4.489H34.428Z"/>
        </g>
        <g>
          <path d="M262.074,133.6s-2.129-9.062,1.355-11.082,6.936-3.858,6.9-1.97-3.612,20.48-3.612,20.48l-4.186,2.873-1.56-3.406Z" fill="#ee795e"/>
          <path d="M305.42,114.537h3.961s16.313.653,16.313,15.654v72.467H264.567V130.191c0-15,16.313-15.654,16.313-15.654h3.961" fill="#ee795e"/>
          <path d="M287.269,108.091h-2.021s-.238.059-.238,1.605-1.749,9.606,5.815,12,12.1-2.023,13.154-3.554,1.441-3.991,1.441-7.2.461-3.092-1.8-3.092S287.269,108.091,287.269,108.091Z" fill="#f4aeb6"/>
          <path d="M285.757,125.821s-2.125-3.854-3.832-.177l-1.708,3.677s-2.183,1.729,1.129,1.729h8.5s2.936.476.753-1.255S285.757,125.821,285.757,125.821Z" fill="#f4aeb6"/>
          <path d="M305.42,115.193a.656.656,0,0,1-.656-.656V108.4H285.5v6.14a.656.656,0,1,1-1.312,0v-6.8a.655.655,0,0,1,.656-.656H305.42a.655.655,0,0,1,.656.656v6.8A.656.656,0,0,1,305.42,115.193Z" fill="#231815"/>
          <g>
            <g>
              <polygon points="313.936 187.549 274.305 187.549 274.305 182.171 275.546 179.068 275.546 139.531 274.305 136.428 274.305 131.05 313.936 131.05 313.936 136.428 312.695 139.531 312.695 179.068 313.936 182.171 313.936 187.549" fill="#fff"/>
              <path d="M314.592,188.205H273.649v-6.16l1.241-3.1V139.657l-1.241-3.1v-6.16h40.943v6.16l-1.241,3.1v39.285l1.241,3.1Zm-39.631-1.312H313.28v-4.6l-1.241-3.1V139.405l1.241-3.1v-4.6H274.961v4.6l1.241,3.1v39.789l-1.241,3.1Z" fill="#231815"/>
              <rect x="274.305" y="135.772" width="39.63" height="1.312" fill="#231815"/>
              <rect x="274.305" y="181.515" width="39.63" height="1.312" fill="#231815"/>
            </g>
            <g>
              <g>
                <path d="M277.873,176.12a8.769,8.769,0,0,1,6.618-3.177,12.758,12.758,0,0,1,7.412,2.647l3.706-1.72v5.294l-3.706-1.721a16.128,16.128,0,0,1-7.28,1.721A9.332,9.332,0,0,1,277.873,176.12Z" fill="#97d2ce"/>
                <path d="M284.624,179.82a9.93,9.93,0,0,1-7.257-3.282.655.655,0,0,1-.019-.811,9.372,9.372,0,0,1,7.143-3.44,13.291,13.291,0,0,1,7.5,2.541l3.346-1.554a.656.656,0,0,1,.932.595v5.295a.656.656,0,0,1-.932.595l-3.414-1.585A17.044,17.044,0,0,1,284.624,179.82Zm-5.858-3.72a8.706,8.706,0,0,0,5.858,2.408,15.646,15.646,0,0,0,6.957-1.636.661.661,0,0,1,.6-.024l2.774,1.289V174.9l-2.774,1.288a.658.658,0,0,1-.695-.09,12.192,12.192,0,0,0-6.993-2.5A8.122,8.122,0,0,0,278.766,176.1Z" fill="#231815"/>
              </g>
              <g>
                <path d="M292.408,173.34a8.77,8.77,0,0,1,6.618-3.176,12.758,12.758,0,0,1,7.412,2.647l3.706-1.721v5.294l-3.706-1.72a16.135,16.135,0,0,1-7.28,1.72A9.332,9.332,0,0,1,292.408,173.34Z" fill="#97d2ce"/>
                <path d="M310.144,177.041a.669.669,0,0,1-.277-.061l-3.414-1.585a17.039,17.039,0,0,1-7.295,1.646,9.928,9.928,0,0,1-7.256-3.283.655.655,0,0,1-.019-.811,9.368,9.368,0,0,1,7.143-3.439,13.287,13.287,0,0,1,7.5,2.541l3.346-1.554a.656.656,0,0,1,.933.595v5.295a.658.658,0,0,1-.656.656ZM293.3,173.32a8.7,8.7,0,0,0,5.857,2.408,15.549,15.549,0,0,0,6.957-1.635.653.653,0,0,1,.6-.024l2.774,1.288v-3.239l-2.774,1.288a.658.658,0,0,1-.7-.09,12.191,12.191,0,0,0-6.992-2.5A8.126,8.126,0,0,0,293.3,173.32Z" fill="#231815"/>
              </g>
              <g>
                <path d="M277.873,168.311a8.769,8.769,0,0,1,6.618-3.177,12.758,12.758,0,0,1,7.412,2.647l3.706-1.72v5.294l-3.706-1.721a16.128,16.128,0,0,1-7.28,1.721A9.332,9.332,0,0,1,277.873,168.311Z" fill="#97d2ce"/>
                <path d="M295.609,172.011a.668.668,0,0,1-.276-.061l-3.414-1.585a17.044,17.044,0,0,1-7.295,1.646,9.929,9.929,0,0,1-7.257-3.283.655.655,0,0,1-.019-.811,9.372,9.372,0,0,1,7.143-3.439,13.3,13.3,0,0,1,7.5,2.541l3.346-1.554a.657.657,0,0,1,.932.6v5.294a.656.656,0,0,1-.656.656Zm-16.844-3.722a8.7,8.7,0,0,0,5.859,2.41,15.646,15.646,0,0,0,6.957-1.636.655.655,0,0,1,.6-.024l2.774,1.288v-3.239l-2.774,1.288a.656.656,0,0,1-.695-.09,12.192,12.192,0,0,0-6.993-2.5A8.075,8.075,0,0,0,278.765,168.289Z" fill="#231815"/>
              </g>
              <g>
                <path d="M292.408,165.531a8.77,8.77,0,0,1,6.618-3.176A12.758,12.758,0,0,1,306.438,165l3.706-1.721v5.294l-3.706-1.72a16.135,16.135,0,0,1-7.28,1.72A9.332,9.332,0,0,1,292.408,165.531Z" fill="#97d2ce"/>
                <path d="M310.144,169.231a.653.653,0,0,1-.277-.061l-3.414-1.584a17.059,17.059,0,0,1-7.295,1.645,9.923,9.923,0,0,1-7.255-3.282.654.654,0,0,1-.02-.811,9.371,9.371,0,0,1,7.143-3.44,13.3,13.3,0,0,1,7.5,2.541l3.346-1.553a.656.656,0,0,1,.933.595v5.294a.656.656,0,0,1-.656.656ZM293.3,165.51a8.707,8.707,0,0,0,5.859,2.409,15.63,15.63,0,0,0,6.957-1.636.662.662,0,0,1,.6-.023l2.774,1.287v-3.239l-2.774,1.289a.658.658,0,0,1-.7-.091,12.191,12.191,0,0,0-6.992-2.5A8.078,8.078,0,0,0,293.3,165.51Z" fill="#231815"/>
              </g>
              <g>
                <path d="M277.873,160.5a8.769,8.769,0,0,1,6.618-3.177,12.758,12.758,0,0,1,7.412,2.647l3.706-1.721v5.295l-3.706-1.721a16.128,16.128,0,0,1-7.28,1.721A9.332,9.332,0,0,1,277.873,160.5Z" fill="#97d2ce"/>
                <path d="M295.609,164.2a.652.652,0,0,1-.276-.061l-3.414-1.585a17.044,17.044,0,0,1-7.295,1.646,9.929,9.929,0,0,1-7.257-3.283.655.655,0,0,1-.019-.811,9.372,9.372,0,0,1,7.143-3.439,13.291,13.291,0,0,1,7.5,2.541l3.346-1.554a.656.656,0,0,1,.932.595v5.295a.656.656,0,0,1-.656.656Zm-16.843-3.72a8.706,8.706,0,0,0,5.858,2.408,15.646,15.646,0,0,0,6.957-1.636.661.661,0,0,1,.6-.024l2.774,1.288v-3.239l-2.774,1.288a.656.656,0,0,1-.695-.09,12.192,12.192,0,0,0-6.993-2.5A8.122,8.122,0,0,0,278.766,160.482Z" fill="#231815"/>
              </g>
              <g>
                <path d="M292.408,157.722a8.769,8.769,0,0,1,6.618-3.177,12.755,12.755,0,0,1,7.412,2.648l3.706-1.721v5.294l-3.706-1.72a16.135,16.135,0,0,1-7.28,1.72A9.332,9.332,0,0,1,292.408,157.722Z" fill="#97d2ce"/>
                <path d="M310.144,161.422a.653.653,0,0,1-.277-.061l-3.414-1.585a17.039,17.039,0,0,1-7.295,1.646,9.929,9.929,0,0,1-7.256-3.282.655.655,0,0,1-.019-.811,9.368,9.368,0,0,1,7.143-3.439,13.3,13.3,0,0,1,7.5,2.54l3.346-1.553a.656.656,0,0,1,.933.595v5.294a.656.656,0,0,1-.656.656ZM293.3,157.7a8.7,8.7,0,0,0,5.857,2.408,15.549,15.549,0,0,0,6.957-1.635.659.659,0,0,1,.6-.025l2.774,1.289V156.5l-2.774,1.288a.662.662,0,0,1-.7-.09,12.191,12.191,0,0,0-6.992-2.5A8.122,8.122,0,0,0,293.3,157.7Z" fill="#231815"/>
              </g>
              <g>
                <path d="M277.873,152.692a8.77,8.77,0,0,1,6.618-3.176,12.758,12.758,0,0,1,7.412,2.647l3.706-1.721v5.295l-3.706-1.721a16.128,16.128,0,0,1-7.28,1.721A9.331,9.331,0,0,1,277.873,152.692Z" fill="#97d2ce"/>
                <path d="M295.609,156.393a.668.668,0,0,1-.276-.061l-3.414-1.585a17.044,17.044,0,0,1-7.295,1.646,9.929,9.929,0,0,1-7.257-3.283.655.655,0,0,1-.019-.811,9.372,9.372,0,0,1,7.143-3.439,13.291,13.291,0,0,1,7.5,2.541l3.346-1.554a.656.656,0,0,1,.932.595v5.295a.658.658,0,0,1-.656.656Zm-16.844-3.722a8.7,8.7,0,0,0,5.859,2.41,15.639,15.639,0,0,0,6.957-1.637.657.657,0,0,1,.6-.023l2.774,1.288V151.47l-2.774,1.288a.658.658,0,0,1-.695-.09,12.192,12.192,0,0,0-6.993-2.5A8.075,8.075,0,0,0,278.765,152.671Z" fill="#231815"/>
              </g>
              <g>
                <path d="M292.408,149.913a8.769,8.769,0,0,1,6.618-3.177,12.758,12.758,0,0,1,7.412,2.647l3.706-1.72v5.294l-3.706-1.721a16.128,16.128,0,0,1-7.28,1.721A9.332,9.332,0,0,1,292.408,149.913Z" fill="#97d2ce"/>
                <path d="M310.144,153.613a.653.653,0,0,1-.277-.061l-3.414-1.584a17.059,17.059,0,0,1-7.295,1.645,9.923,9.923,0,0,1-7.255-3.282.654.654,0,0,1-.02-.811,9.367,9.367,0,0,1,7.143-3.44,13.3,13.3,0,0,1,7.5,2.541l3.346-1.554a.663.663,0,0,1,.63.043.654.654,0,0,1,.3.553v5.294a.656.656,0,0,1-.656.656ZM293.3,149.892a8.707,8.707,0,0,0,5.859,2.409,15.646,15.646,0,0,0,6.957-1.636.662.662,0,0,1,.6-.023l2.774,1.287V148.69l-2.774,1.288a.658.658,0,0,1-.7-.09,12.191,12.191,0,0,0-6.992-2.5A8.078,8.078,0,0,0,293.3,149.892Z" fill="#231815"/>
              </g>
              <g>
                <path d="M277.873,144.883a8.77,8.77,0,0,1,6.618-3.176,12.758,12.758,0,0,1,7.412,2.647l3.706-1.721v5.294l-3.706-1.72a16.135,16.135,0,0,1-7.28,1.72A9.332,9.332,0,0,1,277.873,144.883Z" fill="#97d2ce"/>
                <path d="M284.624,148.584a9.929,9.929,0,0,1-7.257-3.283.655.655,0,0,1-.019-.811,9.372,9.372,0,0,1,7.143-3.44,13.3,13.3,0,0,1,7.5,2.541l3.346-1.553a.656.656,0,0,1,.932.595v5.295a.656.656,0,0,1-.932.595l-3.414-1.585A17.044,17.044,0,0,1,284.624,148.584Zm-5.858-3.72a8.706,8.706,0,0,0,5.858,2.408,15.646,15.646,0,0,0,6.957-1.636.658.658,0,0,1,.6-.024l2.774,1.288v-3.24l-2.774,1.289a.659.659,0,0,1-.695-.091,12.2,12.2,0,0,0-6.993-2.5A8.118,8.118,0,0,0,278.766,144.864Z" fill="#231815"/>
              </g>
              <g>
                <path d="M292.408,142.1a8.769,8.769,0,0,1,6.618-3.177,12.758,12.758,0,0,1,7.412,2.647l3.706-1.72v5.294l-3.706-1.721a16.128,16.128,0,0,1-7.28,1.721A9.332,9.332,0,0,1,292.408,142.1Z" fill="#97d2ce"/>
                <path d="M310.144,145.8a.653.653,0,0,1-.277-.061l-3.414-1.585a17.039,17.039,0,0,1-7.295,1.646,9.928,9.928,0,0,1-7.256-3.283.655.655,0,0,1-.019-.811,9.368,9.368,0,0,1,7.143-3.439,13.3,13.3,0,0,1,7.5,2.541l3.346-1.553a.656.656,0,0,1,.933.6v5.294a.656.656,0,0,1-.656.656Zm-16.843-3.72a8.7,8.7,0,0,0,5.857,2.408,15.541,15.541,0,0,0,6.957-1.636.656.656,0,0,1,.6-.024l2.774,1.288v-3.239l-2.774,1.289a.66.66,0,0,1-.7-.091,12.191,12.191,0,0,0-6.992-2.5A8.122,8.122,0,0,0,293.3,142.084Z" fill="#231815"/>
              </g>
              <g>
                <rect x="286.576" y="145.788" width="15.089" height="27.022" fill="#fff"/>
                <path d="M302.321,173.467h-16.4V145.133h16.4Zm-15.089-1.312h13.777v-25.71H287.232Z" fill="#231815"/>
              </g>
            </g>
          </g>
          <path d="M292.407,131.706a.653.653,0,0,1-.4-.135l-9.2-7.047a.657.657,0,0,1,.8-1.042l9.2,7.047a.656.656,0,0,1-.4,1.177Z" fill="#231815"/>
          <path d="M306.942,160.734l8.039.336c-.18-.189-3.806-3.828-3.154-5.231.554-1.174,2-.834,3.211.275s6.94,6.047,6.94,6.047l-.08,7.828s-6.921,6.157-7.606,6.647c-1.5,1.093-2.572.889-2.819-.189-.332-1.4,3.377-4.948,3.377-4.948s-7.31.095-8.187.122a2.138,2.138,0,0,1-2.3-1.981c-.036-1.492,2.18-1.849,2.18-1.849a1.888,1.888,0,0,1-2.223-1.958c.085-1.486,2.091-1.631,2.329-1.636-.968-.067-2.444-.614-2.311-1.989C304.49,160.536,306.942,160.734,306.942,160.734Z" fill="#f4aeb6"/>
          <path d="M314.271,168.691h-.021l-7.728-.244a2.789,2.789,0,0,1-2.186-.781,2.394,2.394,0,0,1-.671-1.879c.1-1.72,1.984-2.222,2.967-2.246a.646.646,0,0,1,.672.64.656.656,0,0,1-.64.672c-.016,0-1.635.066-1.69,1.019a1.089,1.089,0,0,0,.3.874,1.58,1.58,0,0,0,1.235.391l7.784.244a.656.656,0,0,1-.02,1.311Z" fill="#231815"/>
          <path d="M314.4,165.065h-.015c-.27-.006-6.48-.153-7.664-.215-.023,0-.046,0-.071,0H306.6a3.608,3.608,0,0,1-2.424-1.085,2.135,2.135,0,0,1-.495-1.62c.167-1.831,2.241-2.15,3.311-2.066l8.014.335a.654.654,0,0,1,.627.682.642.642,0,0,1-.682.628l-8.039-.336c-.041,0-1.833-.126-1.925.879a.819.819,0,0,0,.191.65,2.292,2.292,0,0,0,1.449.618c.032,0,.062,0,.094,0,.935.058,7.622.216,7.689.217a.656.656,0,0,1-.015,1.312Z" fill="#231815"/>
          <path d="M312.552,178.019a1.827,1.827,0,0,1-.644-.112,1.743,1.743,0,0,1-1.074-1.313c-.281-1.186,1.226-3.109,2.432-4.418-2.2.03-5.976.082-6.584.1a2.781,2.781,0,0,1-2.976-2.617c-.039-1.633,1.7-2.35,2.732-2.517a.656.656,0,0,1,.211,1.295h0c-.017,0-1.653.3-1.631,1.186.04,1.325,1.579,1.341,1.645,1.341.853-.026,7.879-.118,8.178-.122a.7.7,0,0,1,.616.407.656.656,0,0,1-.154.723c-1.831,1.752-3.322,3.772-3.192,4.323.072.313.21.365.256.382.238.089.772-.012,1.538-.572.475-.339,4.567-3.949,7.34-6.415l.073-7.232c-1.1-.944-5.655-4.865-6.727-5.865a2.425,2.425,0,0,0-1.774-.82.531.531,0,0,0-.4.346c-.179.384.627,2.02,2.981,4.441a.653.653,0,0,1-.287,1.152.7.7,0,0,1-.607-.189q-4.089-4.2-3.276-5.961a1.856,1.856,0,0,1,1.334-1.076,3.551,3.551,0,0,1,2.916,1.144c1.182,1.1,6.867,5.983,6.924,6.032a.659.659,0,0,1,.229.5l-.08,7.828a.656.656,0,0,1-.22.483c-.711.633-6.967,6.2-7.661,6.691A3.674,3.674,0,0,1,312.552,178.019Z" fill="#231815"/>
          <path d="M325.694,203.315H264.567a.656.656,0,0,1-.656-.656V130.191c0-15.452,16.774-16.3,16.943-16.31h3.987a.655.655,0,0,1,.654.693,6.523,6.523,0,0,0,1.75,4.392c1.617,1.7,4.219,2.563,7.732,2.563s6.164-.866,7.856-2.575a6.784,6.784,0,0,0,1.931-4.408.657.657,0,0,1,.656-.665h3.961c.2.007,16.969.858,16.969,16.31v72.468A.656.656,0,0,1,325.694,203.315ZM265.223,202h59.815V130.191c0-5.938-2.61-10.26-7.758-12.848a21.937,21.937,0,0,0-7.926-2.151h-3.323a8.1,8.1,0,0,1-2.246,4.664c-1.947,1.98-4.91,2.984-8.808,2.984s-6.828-1.006-8.7-2.99a7.785,7.785,0,0,1-2.07-4.658H280.88a21.949,21.949,0,0,0-7.9,2.15c-5.148,2.588-7.758,6.91-7.758,12.848Z" fill="#231815"/>
          <path d="M325.694,141.707s14.989,3.6,13.864,11.659-17.58,7.069-17.58,7.069V172.38s28.092,1.851,31.467-17.275-12.153-33.651-38.984-39.595" fill="#ee795e"/>
          <path d="M323.751,173.076c-1.11,0-1.774-.039-1.816-.041a.656.656,0,0,1-.613-.655V160.435a.651.651,0,0,1,.206-.477.658.658,0,0,1,.489-.178c.158.011,15.863.866,16.891-6.5s-13.223-10.9-13.367-10.93a.657.657,0,0,1,.306-1.277c.636.153,15.554,3.835,14.36,12.389-1.07,7.67-14.323,7.753-17.573,7.662V171.75c4.085.115,27.2.021,30.166-16.759,3.223-18.268-11.162-32.788-38.481-38.841a.656.656,0,1,1,.284-1.281c28.087,6.224,42.849,21.307,39.488,40.35C351.165,171.805,330.118,173.076,323.751,173.076Z" fill="#231815"/>
          <path d="M253.823,152.382a.657.657,0,0,1-.431-1.152l10.744-9.347a.656.656,0,0,1,.861.991l-10.744,9.347A.657.657,0,0,1,253.823,152.382Z" fill="#231815"/>
          <path d="M251.16,130.664a.656.656,0,0,1-.339-1.218l17.951-10.833a.656.656,0,0,1,.677,1.124L251.5,130.57A.647.647,0,0,1,251.16,130.664Z" fill="#231815"/>
          <g>
            <path d="M279.378,130.746l3.828-8.243s-1.2-1.831-7.233-1.688c-9.079.216-27.718,9.956-33.8,15.064s-12.493,13.512-5.278,20.277c11.059,10.369,29.417-21.4,37.409-25.106Z" fill="#ee795e"/>
            <path d="M241.894,158.882a7.776,7.776,0,0,1-5.446-2.248,9.684,9.684,0,0,1-3.4-7.48c.158-5.757,5.523-11.1,8.707-13.778,5.886-4.944,24.805-14.993,34.206-15.217,6.229-.137,7.654,1.766,7.8,1.984a.658.658,0,0,1,.047.636l-3.828,8.244a.655.655,0,0,1-.556.378l-4.945.3c-2.478,1.222-6.212,5.44-10.162,9.9-7.031,7.943-15,16.946-22.032,17.273C242.15,158.879,242.021,158.882,241.894,158.882Zm34.736-37.419q-.31,0-.642.008c-9.138.217-27.624,10.065-33.392,14.91-3.015,2.533-8.1,7.565-8.239,12.809a8.423,8.423,0,0,0,2.988,6.487,6.426,6.426,0,0,0,4.873,1.885c6.477-.3,14.591-9.467,21.111-16.832,4.279-4.835,7.975-9.01,10.7-10.275a.653.653,0,0,1,.237-.06l4.683-.28,3.465-7.463C281.875,122.261,280.322,121.463,276.63,121.463Zm2.749,9.283h0Z" fill="#231815"/>
          </g>
        </g>
        <path d="M261.679,59.8s-7.32-.561-7.32,6.537,8.6,6.475,8.6,6.475" fill="#f4aeb6"/>
        <path d="M328.087,59.8s7.319-.561,7.319,6.537-8.6,6.475-8.6,6.475" fill="#f4aeb6"/>
        <g>
          <g>
            <path d="M294.873,16.5s38-3.226,32.686,52.525c0,0,.256,25.161-22.139,38.716H284.327c-21.129-13.4-22.14-38.716-22.14-38.716C256.877,13.274,294.873,16.5,294.873,16.5" fill="#f4aeb6"/>
            <path d="M305.42,108.4H284.326a.653.653,0,0,1-.351-.1C262.8,94.863,261.542,69.307,261.532,69.051c-1.939-20.345,1.615-35.265,10.564-44.306a33.589,33.589,0,0,1,45.555,0c8.945,9.038,12.5,23.945,10.564,44.311,0,1.133-.406,25.9-22.455,39.246A.658.658,0,0,1,305.42,108.4Zm-20.9-1.312h20.718c21.646-13.219,21.67-37.806,21.667-38.054a.507.507,0,0,1,0-.068c1.9-19.965-1.522-34.526-10.174-43.28a29.9,29.9,0,0,0-21.805-8.53.506.506,0,0,1-.11,0c-.122-.008-12.465-.92-21.805,8.53C264.361,34.437,260.939,49,262.84,68.963,262.853,69.248,264.092,94,284.518,107.085Z" fill="#231815"/>
          </g>
          <rect x="287.818" y="86.183" width="14.318" height="6.036" fill="#e84572"/>
          <path d="M300.475,94.8s1.661-.1,1.661-2.453-.364-1.944-1.661-1.944H289.133s-1.306-.405-1.306.81-.273,3.524,2.319,3.524S300.475,94.8,300.475,94.8Z" fill="#fff"/>
          <path d="M289.479,83.458s-1.661.1-1.661,2.453.365,1.945,1.661,1.945h11.342s1.307.405,1.307-.81.273-3.524-2.319-3.524S289.479,83.458,289.479,83.458Z" fill="#fff"/>
          <path d="M300.063,95.354H289.771a2.723,2.723,0,0,1-2.721-2.721v-7.11a2.723,2.723,0,0,1,2.721-2.721h10.292a2.724,2.724,0,0,1,2.721,2.721v7.11A2.724,2.724,0,0,1,300.063,95.354Zm-10.292-11.24a1.41,1.41,0,0,0-1.409,1.409v7.11a1.41,1.41,0,0,0,1.409,1.409h10.292a1.41,1.41,0,0,0,1.409-1.409v-7.11a1.41,1.41,0,0,0-1.409-1.409Z" fill="#231815"/>
          <path d="M302.257,63.479a3.831,3.831,0,1,0,3.828-3.827A3.821,3.821,0,0,0,302.257,63.479Zm6.731,7.64a7.642,7.642,0,1,1,7.654-7.64A7.639,7.639,0,0,1,308.988,71.119Z" fill="#fff8ee"/>
          <path d="M302.257,63.479a3.831,3.831,0,1,1,3.828,3.82A3.823,3.823,0,0,1,302.257,63.479Zm5.142,0a1.311,1.311,0,1,0-1.314,1.307A1.314,1.314,0,0,0,307.4,63.479Z" fill="#97d2ce"/>
          <path d="M306.085,62.165a1.311,1.311,0,1,1-1.308,1.314A1.314,1.314,0,0,1,306.085,62.165Z" fill="#231815"/>
          <path d="M276.475,63.479a1.311,1.311,0,1,1,1.307,1.307A1.308,1.308,0,0,1,276.475,63.479Z" fill="#231815"/>
          <path d="M277.782,67.3a3.824,3.824,0,1,0-3.834-3.82A3.817,3.817,0,0,0,277.782,67.3Zm2.9,3.82a7.647,7.647,0,1,1,7.639-7.64A7.646,7.646,0,0,1,280.686,71.119Z" fill="#fff8ee"/>
          <path d="M273.948,63.479a3.831,3.831,0,1,1,3.834,3.82A3.829,3.829,0,0,1,273.948,63.479Zm5.148,0a1.311,1.311,0,1,0-1.314,1.307A1.314,1.314,0,0,0,279.1,63.479Z" fill="#97d2ce"/>
          <path d="M280.686,71.775a8.3,8.3,0,1,1,8.3-8.3A8.309,8.309,0,0,1,280.686,71.775Zm0-15.294a6.991,6.991,0,1,0,6.983,7A7.018,7.018,0,0,0,280.686,56.481Z" fill="#231815"/>
          <path d="M277.782,67.955a4.48,4.48,0,1,1,4.483-4.475A4.489,4.489,0,0,1,277.782,67.955Zm0-7.647a3.168,3.168,0,1,0,3.171,3.172A3.179,3.179,0,0,0,277.782,60.308Z" fill="#231815"/>
          <path d="M278.384,56.648a.656.656,0,0,1-.621-.444l-.944-2.774a.656.656,0,0,1,1.241-.423l.945,2.774a.655.655,0,0,1-.41.832A.648.648,0,0,1,278.384,56.648Z" fill="#231815"/>
          <path d="M275.173,58.843a.646.646,0,0,1-.509-.246l-2.244-2.2a.656.656,0,1,1,.919-.936l2.294,2.251a.655.655,0,0,1,.133.185.662.662,0,0,1-.306.882A.651.651,0,0,1,275.173,58.843Z" fill="#231815"/>
          <path d="M283.59,56.939a.648.648,0,0,1-.211-.035.656.656,0,0,1-.41-.832l.944-2.781a.656.656,0,1,1,1.243.421l-.944,2.781A.657.657,0,0,1,283.59,56.939Z" fill="#231815"/>
          <path d="M286.786,59.132a.656.656,0,0,1-.46-1.124l2.309-2.273a.656.656,0,0,1,.92.936l-2.309,2.273A.657.657,0,0,1,286.786,59.132Z" fill="#231815"/>
          <path d="M308.989,71.775a8.3,8.3,0,1,1,8.309-8.3A8.3,8.3,0,0,1,308.989,71.775Zm0-15.294a7,7,0,1,0,5.046,2.152A7,7,0,0,0,308.989,56.481Z" fill="#231815"/>
          <path d="M306.084,67.955a4.48,4.48,0,1,1,4.491-4.475A4.484,4.484,0,0,1,306.084,67.955Zm0-7.647a3.168,3.168,0,1,0,3.179,3.172A3.175,3.175,0,0,0,306.084,60.308Z" fill="#231815"/>
          <path d="M311.3,56.648a.655.655,0,0,1-.62-.867l.944-2.774a.656.656,0,1,1,1.241.423l-.944,2.774A.656.656,0,0,1,311.3,56.648Z" fill="#231815"/>
          <path d="M314.5,58.838a.653.653,0,0,1-.468-1.109l2.314-2.27a.656.656,0,1,1,.919.936l-2.3,2.252A.674.674,0,0,1,314.5,58.838Z" fill="#231815"/>
          <path d="M306.091,56.939a.657.657,0,0,1-.622-.446l-.944-2.781a.656.656,0,0,1,1.243-.421l.944,2.781a.656.656,0,0,1-.41.832A.648.648,0,0,1,306.091,56.939Z" fill="#231815"/>
          <path d="M302.888,59.132a.652.652,0,0,1-.46-.189l-2.3-2.273a.656.656,0,0,1,.922-.934l2.3,2.273a.656.656,0,0,1-.461,1.123Z" fill="#231815"/>
        </g>
        <path d="M294.873,79.6a4.255,4.255,0,0,1-3.438-1.76,4.105,4.105,0,0,1-.764-3.523c.488-1.609,3.112-8.74,3.541-9.905a.659.659,0,0,1,.113-.3.689.689,0,0,1,1.086,0,.673.673,0,0,1,.115.275c.4,1.091,3.058,8.307,3.55,9.926a4.108,4.108,0,0,1-.764,3.525A4.259,4.259,0,0,1,294.873,79.6Zm0-13.182c-.923,2.52-2.582,7.077-2.946,8.279a2.86,2.86,0,0,0,.562,2.362,2.928,2.928,0,0,0,4.769,0,2.87,2.87,0,0,0,.562-2.363C297.455,73.5,295.8,68.939,294.873,66.419Z" fill="#231815"/>
        <g>
          <path d="M273.456,86.034a2.085,2.085,0,0,0,2.008-2.493c-.293-.965-2.014-5.63-2.014-5.63h.011s-1.721,4.665-2.014,5.63A2.086,2.086,0,0,0,273.456,86.034Z" fill="#97d2ce"/>
          <path d="M273.456,86.69a2.679,2.679,0,0,1-2.164-1.105,2.6,2.6,0,0,1-.473-2.234c.273-.9,1.715-4.822,1.985-5.555a.656.656,0,0,1,.108-.259.662.662,0,0,1,1.188.24c.25.679,1.717,4.666,1.992,5.574a2.6,2.6,0,0,1-.473,2.234A2.678,2.678,0,0,1,273.456,86.69Zm0-6.858c-.522,1.43-1.21,3.334-1.381,3.9a1.329,1.329,0,0,0,.271,1.071,1.358,1.358,0,0,0,2.219,0,1.329,1.329,0,0,0,.271-1.071C274.665,83.166,273.977,81.262,273.456,79.832Z" fill="#231815"/>
        </g>
        <g>
          <path d="M318.87,80.953a2.086,2.086,0,0,0,2.008-2.494c-.293-.965-2.014-5.629-2.014-5.629h.011s-1.721,4.664-2.014,5.629A2.086,2.086,0,0,0,318.87,80.953Z" fill="#97d2ce"/>
          <path d="M318.87,81.608a2.679,2.679,0,0,1-2.164-1.105,2.6,2.6,0,0,1-.473-2.234c.273-.9,1.716-4.822,1.985-5.555a.669.669,0,0,1,.108-.259.687.687,0,0,1,1.082,0,.71.71,0,0,1,.106.241c.25.68,1.717,4.666,1.992,5.574a2.6,2.6,0,0,1-.473,2.234A2.678,2.678,0,0,1,318.87,81.608Zm0-6.858c-.522,1.432-1.21,3.336-1.381,3.9a1.33,1.33,0,0,0,.271,1.071,1.359,1.359,0,0,0,2.219,0,1.324,1.324,0,0,0,.271-1.07C320.079,78.086,319.391,76.182,318.87,74.75Z" fill="#231815"/>
        </g>
        <path d="M262.026,73.486c-1.244,0-4.27-.211-6.326-2.116a6.55,6.55,0,0,1-2-5.029,6.851,6.851,0,0,1,2.035-5.265,8.682,8.682,0,0,1,5.99-1.926.656.656,0,0,1,.6.7.665.665,0,0,1-.7.6,7.439,7.439,0,0,0-5.006,1.586,5.6,5.6,0,0,0-1.609,4.3,5.3,5.3,0,0,0,1.573,4.063c2.161,2.007,5.86,1.761,5.9,1.758a.656.656,0,0,1,.1,1.308C262.55,73.472,262.348,73.486,262.026,73.486Z" fill="#231815"/>
        <path d="M261.94,66.69h-3.56a.656.656,0,0,1,0-1.312h3.56a.656.656,0,0,1,0,1.312Z" fill="#231815"/>
        <path d="M327.739,73.486c-.321,0-.524-.014-.559-.016a.656.656,0,0,1,.1-1.308c.037,0,3.738.249,5.9-1.758a5.3,5.3,0,0,0,1.573-4.063,5.6,5.6,0,0,0-1.609-4.3,7.449,7.449,0,0,0-5-1.586.656.656,0,0,1-.1-1.308,8.681,8.681,0,0,1,5.99,1.926,6.851,6.851,0,0,1,2.035,5.265,6.55,6.55,0,0,1-2,5.029C332.009,73.275,328.984,73.486,327.739,73.486Z" fill="#231815"/>
        <path d="M331.385,66.69h-3.559a.656.656,0,0,1,0-1.312h3.559a.656.656,0,1,1,0,1.312Z" fill="#231815"/>
        <path d="M302.128,91.1H287.706a.656.656,0,0,1,0-1.312h14.422a.656.656,0,0,1,0,1.312Z" fill="#231815"/>
        <path d="M298.551,95.354a.656.656,0,0,1-.656-.656V90.444a.656.656,0,0,1,1.312,0V94.7A.655.655,0,0,1,298.551,95.354Z" fill="#231815"/>
        <path d="M294.907,95.354a.656.656,0,0,1-.656-.656V90.444a.656.656,0,0,1,1.312,0V94.7A.655.655,0,0,1,294.907,95.354Z" fill="#231815"/>
        <path d="M291.263,95.354a.656.656,0,0,1-.656-.656V90.444a.656.656,0,0,1,1.312,0V94.7A.655.655,0,0,1,291.263,95.354Z" fill="#231815"/>
        <g>
          <path d="M294.864,41.735,322.636,35.7V54.605c0,.6,5.413,5.2,5.413,5.2l-.253-34.5,2.129-4.438C318.242,6.151,294.854,5.951,294.854,5.951h.019S274.03,4.915,259.8,20.868l2.129,4.438-.253,34.5s5.413-4.6,5.413-5.2v-18.7Z" fill="#ee795e"/>
          <path d="M328.049,60.46a.654.654,0,0,1-.425-.156c-5.644-4.8-5.644-5.383-5.644-5.7V36.512L295,42.377a.649.649,0,0,1-.274,0l-26.981-5.664V54.605c0,.316,0,.9-5.645,5.7a.656.656,0,0,1-1.081-.505l.253-34.347-2.063-4.3a.655.655,0,0,1,.1-.72C273.557,4.46,294.617,5.285,294.9,5.3c1.161.023,24.034.679,35.534,15.165a.656.656,0,0,1,.077.692l-2.063,4.3.252,34.347a.655.655,0,0,1-.656.661ZM260.585,20.981l1.938,4.041a.643.643,0,0,1,.065.289l-.243,33.054a40.886,40.886,0,0,0,4.091-3.887V35.906a.655.655,0,0,1,.79-.642l27.635,5.8L322.5,35.057a.655.655,0,0,1,.8.641v18.78a40.953,40.953,0,0,0,4.09,3.887l-.242-33.054a.643.643,0,0,1,.065-.289l1.949-4.065C317.712,6.963,295.078,6.608,294.849,6.606l-.051,0C293.739,6.572,274.113,6.134,260.585,20.981Z" fill="#231815"/>
        </g>
        <g>
          <path d="M285.328,44.5a2.086,2.086,0,0,0,2.009-2.493c-.293-.965-2.014-5.63-2.014-5.63h.011s-1.721,4.665-2.014,5.63A2.085,2.085,0,0,0,285.328,44.5Z" fill="#97d2ce"/>
          <path d="M285.328,45.156a2.676,2.676,0,0,1-2.163-1.106,2.6,2.6,0,0,1-.473-2.234c.274-.9,1.719-4.833,1.986-5.557a.667.667,0,0,1,.107-.257.686.686,0,0,1,1.081,0,.671.671,0,0,1,.105.237c.248.672,1.717,4.668,1.994,5.577a2.6,2.6,0,0,1-.473,2.235A2.679,2.679,0,0,1,285.328,45.156Zm0-6.859c-.521,1.431-1.209,3.335-1.38,3.9a1.327,1.327,0,0,0,.271,1.072,1.358,1.358,0,0,0,2.219,0,1.335,1.335,0,0,0,.272-1.072C286.538,41.632,285.85,39.728,285.328,38.3Z" fill="#231815"/>
        </g>
        <path d="M291.282,88.368a.656.656,0,0,1-.656-.656V83.458a.656.656,0,0,1,1.312,0v4.254A.656.656,0,0,1,291.282,88.368Z" fill="#231815"/>
        <path d="M294.926,88.368a.656.656,0,0,1-.656-.656V83.458a.656.656,0,0,1,1.312,0v4.254A.656.656,0,0,1,294.926,88.368Z" fill="#231815"/>
        <path d="M298.57,88.368a.656.656,0,0,1-.656-.656V83.458a.656.656,0,0,1,1.312,0v4.254A.656.656,0,0,1,298.57,88.368Z" fill="#231815"/>
        <path d="M307.2,87.622a.648.648,0,0,1-.294-.07.656.656,0,0,1-.291-.881,3.444,3.444,0,0,0,.349-2.914,3.7,3.7,0,0,0-2.1-1.771.656.656,0,0,1,.382-1.255,4.978,4.978,0,0,1,2.92,2.5,4.664,4.664,0,0,1-.379,4.03A.656.656,0,0,1,307.2,87.622Z" fill="#231815"/>
        <g clip-path="url(#clip-path)">
          <g>
            <path d="M295.106,85.927a8.769,8.769,0,0,1,4.6,5.717,12.758,12.758,0,0,1-.883,7.821l2.522,3.215-5.154,1.209.828-4a16.127,16.127,0,0,1-3.339-6.694A9.333,9.333,0,0,1,295.106,85.927Z" fill="#97d2ce"/>
            <path d="M296.2,104.545a.655.655,0,0,1-.643-.788l.763-3.686a17.053,17.053,0,0,1-3.27-6.727,9.929,9.929,0,0,1,1.539-7.814.655.655,0,0,1,.785-.2,9.373,9.373,0,0,1,4.98,6.168,13.29,13.29,0,0,1-.761,7.879l2.277,2.9a.656.656,0,0,1-.366,1.044l-5.154,1.209A.639.639,0,0,1,296.2,104.545Zm-.866-17.753a8.7,8.7,0,0,0-1.006,6.253,15.64,15.64,0,0,0,3.183,6.4.659.659,0,0,1,.159.576l-.619,3,3.152-.74L298.31,99.87a.659.659,0,0,1-.07-.7,12.2,12.2,0,0,0,.832-7.378A8.122,8.122,0,0,0,295.329,86.792Z" fill="#231815"/>
          </g>
        </g>
        <path d="M302.128,88.368H287.706a.656.656,0,0,1,0-1.312h14.422a.656.656,0,0,1,0,1.312Z" fill="#231815"/>
        <path d="M325.919,98.716a.656.656,0,0,1-.38-1.191c3.117-2.207,2.083-4.576,2.038-4.676a.656.656,0,0,1,1.186-.56c.017.034,1.579,3.442-2.466,6.307A.656.656,0,0,1,325.919,98.716Z" fill="#231815"/>
        <path d="M329.246,100.083a.656.656,0,0,1-.38-1.192c3.117-2.206,2.084-4.576,2.039-4.676a.656.656,0,0,1,1.186-.56c.017.035,1.579,3.443-2.466,6.307A.651.651,0,0,1,329.246,100.083Z" fill="#231815"/>
        <path d="M265.21,98.329a.666.666,0,0,1-.213-.036c-.035-.012-3.562-1.285-2.772-6.179a.656.656,0,0,1,1.3.209c-.609,3.77,1.805,4.694,1.908,4.731a.657.657,0,0,1-.219,1.275Z" fill="#231815"/>
        <path d="M261.9,99.746a.662.662,0,0,1-.213-.036c-.036-.012-3.562-1.285-2.772-6.179a.656.656,0,0,1,1.3.209c-.609,3.77,1.806,4.694,1.909,4.731a.657.657,0,0,1-.219,1.275Z" fill="#231815"/>
        <g>
          <g>
            <path d="M121.225,148.593l1.656-8.837s8.2-5.54,11.516-5.766-1.957,8.28-1.957,8.28l-.392,13.323-8.49,4.148Z" fill="#121659"/>
            <path d="M168.358,129.646h3.96s16.313.654,16.313,15.654v57.358H127.5V145.3c0-15,16.314-15.654,16.314-15.654h24.54Z" fill="#e84572"/>
            <path d="M148.518,140.931s-2.125-3.854-3.833-.177l-1.708,3.677s-2.182,1.729,1.129,1.729h8.506s2.935.476.753-1.256S148.518,140.931,148.518,140.931Z" fill="#f4aeb6"/>
            <path d="M125.5,75.887s-7.17-.549-7.17,6.4,8.424,6.344,8.424,6.344" fill="#f4aeb6"/>
            <path d="M190.564,75.887s7.171-.549,7.171,6.4-8.425,6.344-8.425,6.344" fill="#f4aeb6"/>
            <g>
              <path d="M158.025,33.462s37.224-3.16,32.022,51.459c0,0,.251,24.649-21.689,37.929H147.692C126.993,109.719,126,84.921,126,84.921c-5.2-54.619,32.022-51.459,32.022-51.459" fill="#f4aeb6"/>
              <path d="M158.079,114.24s-5.126,4.787-8.13,5.492-5.011,1.383-4.005,2.137,2.1,1.174,6.036,1.174h14.084s3.035-.31,3.7-1.077,2.276-.935-.511-1.857S161.077,117.456,158.079,114.24Z" fill="#121659"/>
              <path d="M168.358,123.506H147.693a.661.661,0,0,1-.352-.1c-20.749-13.164-21.984-38.207-21.993-38.458-1.9-19.936,1.582-34.556,10.353-43.417A30.075,30.075,0,0,1,158.025,32.8a30.084,30.084,0,0,1,22.324,8.726C189.116,50.387,192.6,65,190.7,84.952c0,1.121-.4,25.384-22.006,38.46A.651.651,0,0,1,168.358,123.506Zm-20.474-1.312h20.29c21.217-12.959,21.22-37.025,21.217-37.267a.543.543,0,0,1,0-.069c1.862-19.554-1.49-33.816-9.963-42.389a29.287,29.287,0,0,0-21.352-8.353.673.673,0,0,1-.11,0,29.274,29.274,0,0,0-21.352,8.352c-8.473,8.574-11.825,22.836-9.962,42.39C126.669,85.138,127.879,109.38,147.884,122.194Z" fill="#231815"/>
              <g>
                <polyline points="133.376 62.103 125.675 76.509 123.964 75.738 124.575 59.859" fill="#121659"/>
                <path d="M125.674,77.151a.637.637,0,0,1-.263-.057l-1.711-.77a.644.644,0,0,1-.378-.611l.61-15.879a.642.642,0,0,1,1.284.05l-.594,15.446.77.347L132.81,61.8a.642.642,0,1,1,1.132.606l-7.7,14.406A.642.642,0,0,1,125.674,77.151Z" fill="#231815"/>
              </g>
              <g>
                <polyline points="182.64 62.103 190.341 76.509 192.052 75.738 191.441 59.859" fill="#121659"/>
                <path d="M190.342,77.151a.642.642,0,0,1-.567-.339l-7.7-14.406a.642.642,0,1,1,1.133-.606l7.419,13.877.768-.346L190.8,59.884a.642.642,0,0,1,1.284-.05l.611,15.879a.646.646,0,0,1-.378.611l-1.711.77A.63.63,0,0,1,190.342,77.151Z" fill="#231815"/>
              </g>
              <path d="M170.8,79.488a3.753,3.753,0,1,0,3.75-3.75A3.744,3.744,0,0,0,170.8,79.488Zm1.053,7.484a7.487,7.487,0,1,1,7.5-7.484A7.484,7.484,0,0,1,171.853,86.972Z" fill="#fff8ee"/>
              <path d="M170.8,79.488a3.753,3.753,0,1,1,3.75,3.742A3.746,3.746,0,0,1,170.8,79.488Zm5.037,0a1.284,1.284,0,1,0-1.287,1.28A1.287,1.287,0,0,0,175.837,79.488Z" fill="#97d2ce"/>
              <path d="M174.55,78.2a1.284,1.284,0,1,1-1.281,1.288A1.287,1.287,0,0,1,174.55,78.2Z" fill="#231815"/>
              <path d="M145.541,79.488a1.285,1.285,0,1,1,1.281,1.28A1.281,1.281,0,0,1,145.541,79.488Z" fill="#231815"/>
              <path d="M146.2,83.23a3.746,3.746,0,1,0-3.757-3.742A3.739,3.739,0,0,0,146.2,83.23Zm-2.075,3.742a7.492,7.492,0,1,1,7.485-7.484A7.49,7.49,0,0,1,144.125,86.972Z" fill="#fff8ee"/>
              <path d="M143.065,79.488a3.753,3.753,0,1,1,3.757,3.742A3.752,3.752,0,0,1,143.065,79.488Zm5.045,0a1.285,1.285,0,1,0-1.288,1.28A1.288,1.288,0,0,0,148.11,79.488Z" fill="#97d2ce"/>
              <path d="M144.125,87.628a8.148,8.148,0,1,1,8.141-8.14A8.153,8.153,0,0,1,144.125,87.628Zm0-14.983a6.836,6.836,0,1,0,6.829,6.843A6.863,6.863,0,0,0,144.125,72.645Z" fill="#231815"/>
              <path d="M146.822,83.886a4.4,4.4,0,1,1,4.405-4.4A4.411,4.411,0,0,1,146.822,83.886Zm0-7.492a3.09,3.09,0,1,0,3.093,3.094A3.1,3.1,0,0,0,146.822,76.394Z" fill="#231815"/>
              <path d="M141.87,72.809a.654.654,0,0,1-.62-.445l-.925-2.718a.655.655,0,1,1,1.241-.422l.925,2.717a.655.655,0,0,1-.409.832A.63.63,0,0,1,141.87,72.809Z" fill="#231815"/>
              <path d="M138.725,74.959a.645.645,0,0,1-.507-.244l-2.2-2.158a.656.656,0,0,1,.919-.937l2.248,2.206a.643.643,0,0,1,.127.175.659.659,0,0,1-.587.958Z" fill="#231815"/>
              <path d="M146.971,73.093a.648.648,0,0,1-.211-.035.656.656,0,0,1-.41-.832l.925-2.724a.656.656,0,1,1,1.243.421l-.925,2.725A.657.657,0,0,1,146.971,73.093Z" fill="#231815"/>
              <path d="M150.1,75.242a.656.656,0,0,1-.46-1.124l2.263-2.227a.656.656,0,1,1,.92.935l-2.263,2.227A.652.652,0,0,1,150.1,75.242Z" fill="#231815"/>
              <path d="M171.853,87.628a8.142,8.142,0,1,1,8.155-8.14A8.15,8.15,0,0,1,171.853,87.628Zm0-14.983a6.847,6.847,0,1,0,4.934,2.1A6.843,6.843,0,0,0,171.853,72.645Z" fill="#231815"/>
              <path d="M174.55,83.886a4.4,4.4,0,1,1,4.412-4.4A4.406,4.406,0,0,1,174.55,83.886Zm0-7.492a3.09,3.09,0,1,0,3.1,3.094A3.1,3.1,0,0,0,174.55,76.394Z" fill="#231815"/>
              <path d="M174.116,72.809a.634.634,0,0,1-.212-.036.655.655,0,0,1-.409-.832l.925-2.717a.655.655,0,1,1,1.241.422l-.924,2.718A.657.657,0,0,1,174.116,72.809Z" fill="#231815"/>
              <path d="M177.25,74.953a.652.652,0,0,1-.468-1.109l2.267-2.224a.656.656,0,0,1,.919.937l-2.249,2.206A.67.67,0,0,1,177.25,74.953Z" fill="#231815"/>
              <path d="M169.014,73.093a.657.657,0,0,1-.621-.445l-.924-2.725a.656.656,0,1,1,1.242-.421l.925,2.724a.655.655,0,0,1-.411.832A.648.648,0,0,1,169.014,73.093Z" fill="#231815"/>
              <path d="M165.877,75.242a.656.656,0,0,1-.461-.189l-2.255-2.227a.656.656,0,1,1,.922-.934l2.255,2.227a.656.656,0,0,1-.461,1.123Z" fill="#231815"/>
            </g>
            <g>
              <polygon points="176.873 202.658 137.243 202.658 137.243 197.28 138.484 194.178 138.484 154.64 137.243 151.538 137.243 146.16 176.873 146.16 176.873 151.538 175.632 154.64 175.632 194.178 176.873 197.28 176.873 202.658" fill="#fff"/>
              <g clip-path="url(#clip-path-2)">
                <g>
                  <g>
                    <circle cx="143.054" cy="192.904" r="3.62" fill="#ee795e"/>
                    <path d="M143.054,197.18a4.276,4.276,0,1,1,4.276-4.277A4.281,4.281,0,0,1,143.054,197.18Zm0-7.24a2.964,2.964,0,1,0,2.964,2.963A2.966,2.966,0,0,0,143.054,189.94Z" fill="#231815"/>
                  </g>
                  <g>
                    <circle cx="150.293" cy="192.904" r="3.62" fill="#ee795e"/>
                    <path d="M150.294,197.18a4.276,4.276,0,1,1,4.275-4.277A4.281,4.281,0,0,1,150.294,197.18Zm0-7.24a2.964,2.964,0,1,0,2.963,2.963A2.966,2.966,0,0,0,150.294,189.94Z" fill="#231815"/>
                  </g>
                  <g>
                    <circle cx="157.533" cy="192.904" r="3.62" fill="#ee795e"/>
                    <path d="M157.533,197.18a4.276,4.276,0,1,1,4.276-4.277A4.281,4.281,0,0,1,157.533,197.18Zm0-7.24A2.964,2.964,0,1,0,160.5,192.9,2.967,2.967,0,0,0,157.533,189.94Z" fill="#231815"/>
                  </g>
                  <g>
                    <circle cx="164.773" cy="192.904" r="3.62" fill="#ee795e"/>
                    <path d="M164.773,197.18a4.276,4.276,0,1,1,4.275-4.277A4.281,4.281,0,0,1,164.773,197.18Zm0-7.24a2.964,2.964,0,1,0,2.963,2.963A2.966,2.966,0,0,0,164.773,189.94Z" fill="#231815"/>
                  </g>
                  <g>
                    <circle cx="172.012" cy="192.904" r="3.62" fill="#ee795e"/>
                    <path d="M172.012,197.18a4.276,4.276,0,1,1,4.276-4.277A4.281,4.281,0,0,1,172.012,197.18Zm0-7.24a2.964,2.964,0,1,0,2.964,2.963A2.967,2.967,0,0,0,172.012,189.94Z" fill="#231815"/>
                  </g>
                </g>
                <g>
                  <g>
                    <circle cx="139.434" cy="185.664" r="3.62" fill="#ee795e"/>
                    <path d="M139.434,189.94a4.276,4.276,0,1,1,4.276-4.276A4.281,4.281,0,0,1,139.434,189.94Zm0-7.239a2.964,2.964,0,1,0,2.964,2.963A2.967,2.967,0,0,0,139.434,182.7Z" fill="#231815"/>
                  </g>
                  <g>
                    <circle cx="146.674" cy="185.664" r="3.62" fill="#ee795e"/>
                    <path d="M146.674,189.94a4.276,4.276,0,1,1,4.276-4.276A4.281,4.281,0,0,1,146.674,189.94Zm0-7.239a2.964,2.964,0,1,0,2.964,2.963A2.967,2.967,0,0,0,146.674,182.7Z" fill="#231815"/>
                  </g>
                  <g>
                    <circle cx="153.913" cy="185.664" r="3.62" fill="#ee795e"/>
                    <path d="M153.913,189.94a4.276,4.276,0,1,1,4.276-4.276A4.28,4.28,0,0,1,153.913,189.94Zm0-7.239a2.964,2.964,0,1,0,2.964,2.963A2.966,2.966,0,0,0,153.913,182.7Z" fill="#231815"/>
                  </g>
                  <g>
                    <circle cx="161.153" cy="185.664" r="3.62" fill="#ee795e"/>
                    <path d="M161.153,189.94a4.276,4.276,0,1,1,4.276-4.276A4.281,4.281,0,0,1,161.153,189.94Zm0-7.239a2.964,2.964,0,1,0,2.964,2.963A2.967,2.967,0,0,0,161.153,182.7Z" fill="#231815"/>
                  </g>
                  <g>
                    <circle cx="168.392" cy="185.664" r="3.62" fill="#ee795e"/>
                    <path d="M168.392,189.94a4.276,4.276,0,1,1,4.276-4.276A4.28,4.28,0,0,1,168.392,189.94Zm0-7.239a2.964,2.964,0,1,0,2.964,2.963A2.966,2.966,0,0,0,168.392,182.7Z" fill="#231815"/>
                  </g>
                  <g>
                    <circle cx="175.632" cy="185.664" r="3.62" fill="#ee795e"/>
                    <path d="M175.632,189.94a4.276,4.276,0,1,1,4.276-4.276A4.281,4.281,0,0,1,175.632,189.94Zm0-7.239a2.964,2.964,0,1,0,2.964,2.963A2.967,2.967,0,0,0,175.632,182.7Z" fill="#231815"/>
                  </g>
                </g>
                <g>
                  <g>
                    <circle cx="143.054" cy="178.424" r="3.62" fill="#ee795e"/>
                    <path d="M143.054,182.7a4.276,4.276,0,1,1,4.276-4.277A4.281,4.281,0,0,1,143.054,182.7Zm0-7.24a2.964,2.964,0,1,0,2.964,2.963A2.966,2.966,0,0,0,143.054,175.461Z" fill="#231815"/>
                  </g>
                  <g>
                    <circle cx="150.293" cy="178.424" r="3.62" fill="#ee795e"/>
                    <path d="M150.294,182.7a4.276,4.276,0,1,1,4.275-4.277A4.281,4.281,0,0,1,150.294,182.7Zm0-7.24a2.964,2.964,0,1,0,2.963,2.963A2.966,2.966,0,0,0,150.294,175.461Z" fill="#231815"/>
                  </g>
                  <g>
                    <circle cx="157.533" cy="178.424" r="3.62" fill="#ee795e"/>
                    <path d="M157.533,182.7a4.276,4.276,0,1,1,4.276-4.277A4.281,4.281,0,0,1,157.533,182.7Zm0-7.24a2.964,2.964,0,1,0,2.964,2.963A2.967,2.967,0,0,0,157.533,175.461Z" fill="#231815"/>
                  </g>
                  <g>
                    <circle cx="164.773" cy="178.424" r="3.62" fill="#ee795e"/>
                    <path d="M164.773,182.7a4.276,4.276,0,1,1,4.275-4.277A4.281,4.281,0,0,1,164.773,182.7Zm0-7.24a2.964,2.964,0,1,0,2.963,2.963A2.966,2.966,0,0,0,164.773,175.461Z" fill="#231815"/>
                  </g>
                  <g>
                    <circle cx="172.012" cy="178.424" r="3.62" fill="#ee795e"/>
                    <path d="M172.012,182.7a4.276,4.276,0,1,1,4.276-4.277A4.281,4.281,0,0,1,172.012,182.7Zm0-7.24a2.964,2.964,0,1,0,2.964,2.963A2.967,2.967,0,0,0,172.012,175.461Z" fill="#231815"/>
                  </g>
                </g>
                <g>
                  <g>
                    <circle cx="139.434" cy="171.185" r="3.62" fill="#ee795e"/>
                    <path d="M139.434,175.461a4.276,4.276,0,1,1,4.276-4.276A4.281,4.281,0,0,1,139.434,175.461Zm0-7.24a2.964,2.964,0,1,0,2.964,2.964A2.968,2.968,0,0,0,139.434,168.221Z" fill="#231815"/>
                  </g>
                  <g>
                    <circle cx="146.674" cy="171.185" r="3.62" fill="#ee795e"/>
                    <path d="M146.674,175.461a4.276,4.276,0,1,1,4.276-4.276A4.281,4.281,0,0,1,146.674,175.461Zm0-7.24a2.964,2.964,0,1,0,2.964,2.964A2.968,2.968,0,0,0,146.674,168.221Z" fill="#231815"/>
                  </g>
                  <g>
                    <circle cx="153.913" cy="171.185" r="3.62" fill="#ee795e"/>
                    <path d="M153.913,175.461a4.276,4.276,0,1,1,4.276-4.276A4.28,4.28,0,0,1,153.913,175.461Zm0-7.24a2.964,2.964,0,1,0,2.964,2.964A2.967,2.967,0,0,0,153.913,168.221Z" fill="#231815"/>
                  </g>
                  <g>
                    <circle cx="161.153" cy="171.185" r="3.62" fill="#ee795e"/>
                    <path d="M161.153,175.461a4.276,4.276,0,1,1,4.276-4.276A4.281,4.281,0,0,1,161.153,175.461Zm0-7.24a2.964,2.964,0,1,0,2.964,2.964A2.968,2.968,0,0,0,161.153,168.221Z" fill="#231815"/>
                  </g>
                  <g>
                    <circle cx="168.392" cy="171.185" r="3.62" fill="#ee795e"/>
                    <path d="M168.392,175.461a4.276,4.276,0,1,1,4.276-4.276A4.28,4.28,0,0,1,168.392,175.461Zm0-7.24a2.964,2.964,0,1,0,2.964,2.964A2.967,2.967,0,0,0,168.392,168.221Z" fill="#231815"/>
                  </g>
                  <g>
                    <circle cx="175.632" cy="171.185" r="3.62" fill="#ee795e"/>
                    <path d="M175.632,175.461a4.276,4.276,0,1,1,4.276-4.276A4.281,4.281,0,0,1,175.632,175.461Zm0-7.24a2.964,2.964,0,1,0,2.964,2.964A2.968,2.968,0,0,0,175.632,168.221Z" fill="#231815"/>
                  </g>
                </g>
                <g>
                  <g>
                    <circle cx="143.054" cy="163.945" r="3.62" fill="#ee795e"/>
                    <path d="M143.054,168.221a4.276,4.276,0,1,1,4.276-4.276A4.281,4.281,0,0,1,143.054,168.221Zm0-7.239a2.964,2.964,0,1,0,2.964,2.963A2.966,2.966,0,0,0,143.054,160.982Z" fill="#231815"/>
                  </g>
                  <g>
                    <circle cx="150.293" cy="163.945" r="3.62" fill="#ee795e"/>
                    <path d="M150.294,168.221a4.276,4.276,0,1,1,4.275-4.276A4.281,4.281,0,0,1,150.294,168.221Zm0-7.239a2.964,2.964,0,1,0,2.963,2.963A2.966,2.966,0,0,0,150.294,160.982Z" fill="#231815"/>
                  </g>
                  <g>
                    <circle cx="157.533" cy="163.945" r="3.62" fill="#ee795e"/>
                    <path d="M157.533,168.221a4.276,4.276,0,1,1,4.276-4.276A4.281,4.281,0,0,1,157.533,168.221Zm0-7.239a2.964,2.964,0,1,0,2.964,2.963A2.967,2.967,0,0,0,157.533,160.982Z" fill="#231815"/>
                  </g>
                  <g>
                    <circle cx="164.773" cy="163.945" r="3.62" fill="#ee795e"/>
                    <path d="M164.773,168.221a4.276,4.276,0,1,1,4.275-4.276A4.281,4.281,0,0,1,164.773,168.221Zm0-7.239a2.964,2.964,0,1,0,2.963,2.963A2.966,2.966,0,0,0,164.773,160.982Z" fill="#231815"/>
                  </g>
                  <g>
                    <circle cx="172.012" cy="163.945" r="3.62" fill="#ee795e"/>
                    <path d="M172.012,168.221a4.276,4.276,0,1,1,4.276-4.276A4.281,4.281,0,0,1,172.012,168.221Zm0-7.239a2.964,2.964,0,1,0,2.964,2.963A2.967,2.967,0,0,0,172.012,160.982Z" fill="#231815"/>
                  </g>
                </g>
                <g>
                  <g>
                    <circle cx="139.434" cy="156.706" r="3.62" fill="#ee795e"/>
                    <path d="M139.434,160.982a4.276,4.276,0,1,1,4.276-4.276A4.281,4.281,0,0,1,139.434,160.982Zm0-7.24a2.964,2.964,0,1,0,2.964,2.964A2.968,2.968,0,0,0,139.434,153.742Z" fill="#231815"/>
                  </g>
                  <g>
                    <circle cx="146.674" cy="156.706" r="3.62" fill="#ee795e"/>
                    <path d="M146.674,160.982a4.276,4.276,0,1,1,4.276-4.276A4.281,4.281,0,0,1,146.674,160.982Zm0-7.24a2.964,2.964,0,1,0,2.964,2.964A2.968,2.968,0,0,0,146.674,153.742Z" fill="#231815"/>
                  </g>
                  <g>
                    <circle cx="153.913" cy="156.706" r="3.62" fill="#ee795e"/>
                    <path d="M153.913,160.982a4.276,4.276,0,1,1,4.276-4.276A4.281,4.281,0,0,1,153.913,160.982Zm0-7.24a2.964,2.964,0,1,0,2.964,2.964A2.967,2.967,0,0,0,153.913,153.742Z" fill="#231815"/>
                  </g>
                  <g>
                    <circle cx="161.153" cy="156.706" r="3.62" fill="#ee795e"/>
                    <path d="M161.153,160.982a4.276,4.276,0,1,1,4.276-4.276A4.281,4.281,0,0,1,161.153,160.982Zm0-7.24a2.964,2.964,0,1,0,2.964,2.964A2.968,2.968,0,0,0,161.153,153.742Z" fill="#231815"/>
                  </g>
                  <g>
                    <circle cx="168.392" cy="156.706" r="3.62" fill="#ee795e"/>
                    <path d="M168.392,160.982a4.276,4.276,0,1,1,4.276-4.276A4.281,4.281,0,0,1,168.392,160.982Zm0-7.24a2.964,2.964,0,1,0,2.964,2.964A2.967,2.967,0,0,0,168.392,153.742Z" fill="#231815"/>
                  </g>
                  <g>
                    <circle cx="168.358" cy="156.816" r="3.62" fill="#ee795e"/>
                    <path d="M168.358,161.092a4.276,4.276,0,1,1,4.275-4.276A4.281,4.281,0,0,1,168.358,161.092Zm0-7.24a2.964,2.964,0,1,0,2.963,2.964A2.967,2.967,0,0,0,168.358,153.852Z" fill="#231815"/>
                  </g>
                  <g>
                    <circle cx="175.632" cy="156.706" r="3.62" fill="#ee795e"/>
                    <path d="M175.632,160.982a4.276,4.276,0,1,1,4.276-4.276A4.281,4.281,0,0,1,175.632,160.982Zm0-7.24a2.964,2.964,0,1,0,2.964,2.964A2.968,2.968,0,0,0,175.632,153.742Z" fill="#231815"/>
                  </g>
                </g>
              </g>
              <path d="M177.529,203.315H136.586v-6.161l1.241-3.1V154.767l-1.241-3.1V145.5h40.943v6.16l-1.241,3.1v39.285l1.241,3.1ZM137.9,202h38.319v-4.6l-1.241-3.1v-39.79l1.241-3.1v-4.6H137.9v4.6l1.241,3.1V194.3l-1.241,3.1Z" fill="#231815"/>
              <rect x="137.242" y="150.882" width="39.631" height="1.312" fill="#231815"/>
              <rect x="137.242" y="196.624" width="39.631" height="1.312" fill="#231815"/>
              <g>
                <rect x="149.513" y="160.898" width="15.089" height="27.022" fill="#fff"/>
                <path d="M165.258,188.576h-16.4V160.242h16.4Zm-15.089-1.312h13.777v-25.71H150.169Z" fill="#231815"/>
              </g>
            </g>
            <path d="M158.025,95.3a4.184,4.184,0,0,1-3.38-1.729,4.036,4.036,0,0,1-.75-3.463c.479-1.578,3.049-8.562,3.47-9.7a.66.66,0,0,1,.113-.3.69.69,0,0,1,1.086,0,.708.708,0,0,1,.114.272c.394,1.07,3,8.139,3.477,9.726a4.032,4.032,0,0,1-.75,3.463A4.185,4.185,0,0,1,158.025,95.3Zm0-12.889c-.907,2.476-2.519,6.9-2.874,8.077a2.789,2.789,0,0,0,.548,2.3,2.856,2.856,0,0,0,4.652,0,2.786,2.786,0,0,0,.548-2.3C160.543,89.311,158.932,84.882,158.025,82.406Z" fill="#231815"/>
            <path d="M154.662,146.609a.654.654,0,0,1-.41-.145l-8.519-6.84a.656.656,0,0,1,.822-1.023l8.518,6.84a.656.656,0,0,1-.411,1.168Z" fill="#231815"/>
            <path d="M169.88,175.843l8.039.336c-.181-.188-3.806-3.828-3.155-5.23.554-1.174,2-.834,3.211.274s6.94,6.047,6.94,6.047l-.079,7.828s-6.921,6.157-7.607,6.647c-1.5,1.093-2.572.889-2.818-.188-.332-1.4,3.376-4.949,3.376-4.949s-7.309.1-8.187.123a2.139,2.139,0,0,1-2.3-1.981c-.035-1.492,2.181-1.849,2.181-1.849a1.889,1.889,0,0,1-2.224-1.958c.086-1.486,2.091-1.631,2.329-1.637-.968-.067-2.444-.613-2.311-1.988C167.427,175.645,169.88,175.843,169.88,175.843Z" fill="#f4aeb6"/>
            <path d="M177.209,183.8h-.021l-7.729-.244a2.8,2.8,0,0,1-2.185-.781,2.394,2.394,0,0,1-.672-1.879c.1-1.72,1.984-2.222,2.967-2.246h.016a.656.656,0,0,1,.016,1.312c-.016,0-1.635.066-1.69,1.018a1.093,1.093,0,0,0,.3.875,1.6,1.6,0,0,0,1.235.39l7.785.244a.656.656,0,0,1-.02,1.312Z" fill="#231815"/>
            <path d="M177.336,180.175h-.016c-.269-.007-6.471-.154-7.661-.216l-.074,0h-.045a3.614,3.614,0,0,1-2.424-1.086,2.134,2.134,0,0,1-.5-1.62c.167-1.83,2.242-2.145,3.311-2.066l8.014.334a.656.656,0,0,1,.628.683.645.645,0,0,1-.683.628l-8.039-.335c-.041,0-1.833-.127-1.925.879a.816.816,0,0,0,.191.649,2.293,2.293,0,0,0,1.445.619.544.544,0,0,1,.1,0c.934.058,7.622.216,7.689.218a.656.656,0,0,1-.015,1.312Z" fill="#231815"/>
            <path d="M175.489,193.128a1.829,1.829,0,0,1-.645-.112,1.744,1.744,0,0,1-1.073-1.313c-.28-1.186,1.226-3.108,2.433-4.417-2.2.029-5.976.082-6.584.1a2.783,2.783,0,0,1-2.977-2.616c-.039-1.634,1.7-2.351,2.732-2.517a.656.656,0,0,1,.211,1.3h0c-.017,0-1.652.3-1.631,1.187.04,1.323,1.58,1.34,1.646,1.34.852-.027,7.879-.119,8.178-.122h.008a.656.656,0,0,1,.454,1.13c-1.831,1.751-3.322,3.771-3.192,4.323.071.313.209.364.254.381.242.09.772-.012,1.539-.572.476-.339,4.568-3.949,7.341-6.414l.073-7.232c-1.1-.945-5.654-4.866-6.728-5.866a2.432,2.432,0,0,0-1.774-.819.529.529,0,0,0-.4.345c-.179.386.626,2.021,2.981,4.441a.638.638,0,0,1,.235.392.647.647,0,0,1-.521.759.687.687,0,0,1-.607-.188c-2.726-2.8-3.819-4.792-3.276-5.96A1.855,1.855,0,0,1,175.5,169.6a3.557,3.557,0,0,1,2.916,1.144c1.182,1.1,6.867,5.983,6.924,6.033a.654.654,0,0,1,.229.5l-.079,7.827a.658.658,0,0,1-.22.484c-.711.633-6.968,6.2-7.661,6.691A3.676,3.676,0,0,1,175.489,193.128Z" fill="#231815"/>
            <path d="M158.068,203.315H127.505a.656.656,0,0,1-.656-.656V145.3c0-8.084,4.632-12.1,8.519-14.039a22.86,22.86,0,0,1,8.423-2.27h3.987a.656.656,0,0,1,0,1.312h-3.961a21.963,21.963,0,0,0-7.9,2.151c-5.147,2.588-7.757,6.91-7.757,12.847V202h29.907a.656.656,0,1,1,0,1.312Z" fill="#231815"/>
            <path d="M188.632,203.315H158.068a.656.656,0,1,1,0-1.312h29.908V145.3c0-5.937-2.61-10.259-7.758-12.847a21.916,21.916,0,0,0-7.927-2.151h-3.933a.656.656,0,0,1,0-1.312h3.96a22.853,22.853,0,0,1,8.45,2.271c3.886,1.943,8.52,5.955,8.52,14.039v57.359A.656.656,0,0,1,188.632,203.315Z" fill="#231815"/>
            <path d="M188.631,156.816s14.989,3.6,13.864,11.659-17.58,7.07-17.58,7.07v11.944s28.093,1.851,31.468-17.274-12.154-33.651-38.985-39.6" fill="#e84572"/>
            <path d="M186.689,188.186c-1.111,0-1.774-.039-1.817-.042a.656.656,0,0,1-.613-.655V175.545a.659.659,0,0,1,.206-.478.7.7,0,0,1,.489-.177c.161.011,15.864.865,16.891-6.506,1.031-7.388-13.222-10.895-13.367-10.93a.656.656,0,1,1,.307-1.276c.635.152,15.553,3.834,14.36,12.387-1.071,7.67-14.317,7.754-17.574,7.664V186.86c4.089.119,27.205.02,30.166-16.76,3.223-18.267-11.162-32.788-38.481-38.84a.657.657,0,0,1,.285-1.282c28.086,6.224,42.848,21.308,39.488,40.351C214.1,186.914,193.055,188.186,186.689,188.186Z" fill="#231815"/>
            <path d="M114.1,169.294a.656.656,0,0,1-.42-1.16l13.407-11.15a.656.656,0,1,1,.839,1.008l-13.407,11.15A.656.656,0,0,1,114.1,169.294Z" fill="#231815"/>
            <path d="M114.1,145.883a.655.655,0,0,1-.342-1.215l17.95-10.943a.656.656,0,0,1,.683,1.12l-17.95,10.942A.646.646,0,0,1,114.1,145.883Z" fill="#231815"/>
            <g>
              <path d="M148.16,113.445a1.936,1.936,0,1,1-1.941-1.941A1.947,1.947,0,0,1,148.16,113.445Z" fill="#ee795e"/>
              <path d="M146.219,116.042a2.6,2.6,0,1,1,2.6-2.6A2.6,2.6,0,0,1,146.219,116.042Zm0-3.882a1.285,1.285,0,1,0,1.285,1.285A1.282,1.282,0,0,0,146.219,112.16Z" fill="#231815"/>
            </g>
            <path d="M125.845,89.305a9.462,9.462,0,0,1-6.206-2.077,6.431,6.431,0,0,1-1.961-4.937,6.72,6.72,0,0,1,2-5.167,8.522,8.522,0,0,1,5.877-1.891.656.656,0,0,1-.1,1.309,7.3,7.3,0,0,0-4.894,1.55,5.475,5.475,0,0,0-1.572,4.2,5.176,5.176,0,0,0,1.536,3.971c2.114,1.963,5.734,1.721,5.769,1.718a.656.656,0,0,1,.1,1.308C126.359,89.291,126.16,89.305,125.845,89.305Z" fill="#231815"/>
            <path d="M125.76,82.646h-3.488a.656.656,0,0,1,0-1.312h3.488a.656.656,0,0,1,0,1.312Z" fill="#231815"/>
            <path d="M190.224,89.305c-.316,0-.515-.014-.55-.017a.656.656,0,0,1,.1-1.308c.035,0,3.656.245,5.769-1.718a5.176,5.176,0,0,0,1.536-3.971,5.474,5.474,0,0,0-1.572-4.2,7.29,7.29,0,0,0-4.893-1.55.656.656,0,0,1-.1-1.309,8.52,8.52,0,0,1,5.878,1.89,6.726,6.726,0,0,1,2,5.168,6.427,6.427,0,0,1-1.961,4.937A9.464,9.464,0,0,1,190.224,89.305Z" fill="#231815"/>
            <path d="M193.8,82.646h-3.488a.656.656,0,1,1,0-1.312H193.8a.656.656,0,1,1,0,1.312Z" fill="#231815"/>
            <g>
              <path d="M142.316,145.856l3.828-8.244s-1.2-1.831-7.234-1.687c-9.079.215-27.718,9.955-33.8,15.063s-13.683,12.993-5.263,20.3c10.941,9.489,29.4-21.416,37.395-25.125Z" fill="#e84572"/>
              <path d="M104.522,173.755a7.578,7.578,0,0,1-5.1-1.975c-2.651-2.3-3.983-4.857-3.962-7.6.043-5.357,5.29-10.38,9.233-13.692,5.886-4.944,24.805-14.994,34.206-15.217,6.23-.14,7.655,1.765,7.8,1.983a.656.656,0,0,1,.046.636l-3.828,8.244a.656.656,0,0,1-.556.379l-4.945.3c-2.5,1.229-6.277,5.4-10.272,9.816C120.073,164.428,111.629,173.755,104.522,173.755Zm35.048-37.182c-.208,0-.422,0-.644.008-9.139.217-27.625,10.064-33.392,14.909-3.745,3.146-8.728,7.884-8.766,12.7-.018,2.343,1.163,4.565,3.51,6.6,6.874,5.966,17.416-5.686,25.886-15.045,4.327-4.78,8.064-8.908,10.8-10.179a.651.651,0,0,1,.237-.059l4.683-.281,3.466-7.463C144.812,137.371,143.261,136.573,139.57,136.573Zm2.746,9.283h0Z" fill="#231815"/>
            </g>
          </g>
          <g>
            <path d="M180.445,104.343a2.085,2.085,0,0,0,2.008-2.493c-.292-.965-2.014-5.63-2.014-5.63h.011s-1.721,4.665-2.014,5.63A2.086,2.086,0,0,0,180.445,104.343Z" fill="#97d2ce"/>
            <path d="M180.445,105a2.679,2.679,0,0,1-2.164-1.1,2.6,2.6,0,0,1-.473-2.234c.274-.9,1.719-4.834,1.987-5.558a.638.638,0,0,1,.107-.257.686.686,0,0,1,1.081,0,.679.679,0,0,1,.1.237c.247.672,1.717,4.668,1.993,5.578a2.6,2.6,0,0,1-.472,2.233A2.678,2.678,0,0,1,180.445,105Zm0-6.859c-.522,1.431-1.21,3.336-1.381,3.9a1.329,1.329,0,0,0,.271,1.071,1.358,1.358,0,0,0,2.219,0,1.326,1.326,0,0,0,.271-1.071C181.654,101.476,180.966,99.571,180.445,98.14Z" fill="#231815"/>
          </g>
          <g>
            <path d="M137.243,101.283a2.085,2.085,0,0,0,2.008-2.493c-.293-.965-2.014-5.63-2.014-5.63h.011s-1.721,4.665-2.014,5.63A2.086,2.086,0,0,0,137.243,101.283Z" fill="#97d2ce"/>
            <path d="M137.242,101.939a2.676,2.676,0,0,1-2.163-1.106,2.594,2.594,0,0,1-.473-2.233c.273-.9,1.715-4.822,1.985-5.555a.673.673,0,0,1,.108-.26.686.686,0,0,1,1.082,0,.679.679,0,0,1,.106.24c.25.68,1.716,4.666,1.992,5.574a2.6,2.6,0,0,1-.473,2.234A2.679,2.679,0,0,1,137.242,101.939Zm0-6.858c-.521,1.431-1.209,3.335-1.38,3.9a1.329,1.329,0,0,0,.271,1.071,1.359,1.359,0,0,0,2.219,0,1.337,1.337,0,0,0,.272-1.072C138.452,98.416,137.765,96.512,137.242,95.081Z" fill="#231815"/>
          </g>
          <path d="M157.841,107.3v3.535a16.129,16.129,0,0,1-4.383-.572V107.3Z" fill="#fff"/>
          <path d="M153.458,107.3v2.963a11.953,11.953,0,0,1-5.241-2.963Z" fill="#fff"/>
          <path d="M162.225,107.3h5.25a11.891,11.891,0,0,1-5.25,2.963Z" fill="#fff"/>
          <path d="M162.225,107.3v2.963a16.066,16.066,0,0,1-4.374.572h-.01V107.3Z" fill="#fff"/>
          <rect x="149.075" y="98.476" width="4.383" height="3.611" fill="#fff"/>
          <rect x="153.458" y="98.476" width="4.383" height="3.611" fill="#fff"/>
          <path d="M149.075,98.476v3.611h-3.631a4.237,4.237,0,0,1,0-.7,3.191,3.191,0,0,1,3.031-2.916Z" fill="#fff"/>
          <rect x="162.225" y="98.476" width="4.393" height="3.611" fill="#fff"/>
          <rect x="157.841" y="98.476" width="4.383" height="3.611" fill="#fff"/>
          <path d="M170.238,101.392a4.237,4.237,0,0,1,0,.7h-3.621V98.476h.6A3.177,3.177,0,0,1,170.238,101.392Z" fill="#fff"/>
          <path d="M166.617,102.087h3.621a8.883,8.883,0,0,1-2.763,5.213H148.217a8.906,8.906,0,0,1-2.773-5.213h21.173Z" fill="#e84572"/>
          <path d="M157.851,111.491h-.009a16.873,16.873,0,0,1-4.561-.6,12.553,12.553,0,0,1-5.524-3.128,9.538,9.538,0,0,1-2.966-5.62,5.031,5.031,0,0,1,0-.815,3.8,3.8,0,0,1,3.659-3.511h18.767a3.791,3.791,0,0,1,3.674,3.51,4.834,4.834,0,0,1,0,.808,9.541,9.541,0,0,1-2.958,5.63A12.478,12.478,0,0,1,162.4,110.9,16.81,16.81,0,0,1,157.851,111.491Zm-9.376-12.359a2.49,2.49,0,0,0-2.378,2.324,3.528,3.528,0,0,0,0,.581,8.238,8.238,0,0,0,2.576,4.792,11.247,11.247,0,0,0,4.96,2.8,15.52,15.52,0,0,0,4.207.548h.009a15.471,15.471,0,0,0,4.2-.548,11.183,11.183,0,0,0,4.966-2.8,8.205,8.205,0,0,0,2.572-4.8,3.492,3.492,0,0,0,0-.579,2.482,2.482,0,0,0-2.4-2.321Z" fill="#231815"/>
          <path d="M170.257,102.743H145.445a.659.659,0,0,1-.661-.656.651.651,0,0,1,.651-.656h24.8a.664.664,0,0,1,.666.656A.647.647,0,0,1,170.257,102.743Z" fill="#231815"/>
          <path d="M157.842,102.743a.655.655,0,0,1-.656-.656V98.476a.656.656,0,0,1,1.312,0v3.611A.656.656,0,0,1,157.842,102.743Z" fill="#231815"/>
          <path d="M153.458,102.743a.656.656,0,0,1-.656-.656V98.476a.656.656,0,0,1,1.312,0v3.611A.655.655,0,0,1,153.458,102.743Z" fill="#231815"/>
          <path d="M149.075,102.743a.655.655,0,0,1-.656-.656V98.476a.656.656,0,0,1,1.312,0v3.611A.655.655,0,0,1,149.075,102.743Z" fill="#231815"/>
          <path d="M162.224,102.743a.656.656,0,0,1-.656-.656V98.476a.656.656,0,0,1,1.312,0v3.611A.655.655,0,0,1,162.224,102.743Z" fill="#231815"/>
          <path d="M157.842,111.491a.656.656,0,0,1-.656-.656V107.3a.656.656,0,0,1,1.312,0v3.536A.656.656,0,0,1,157.842,111.491Z" fill="#231815"/>
          <path d="M153.458,110.919a.656.656,0,0,1-.656-.656V107.3a.656.656,0,0,1,1.312,0v2.964A.655.655,0,0,1,153.458,110.919Z" fill="#231815"/>
          <path d="M162.224,110.919a.656.656,0,0,1-.656-.656V107.3a.656.656,0,0,1,1.312,0v2.964A.655.655,0,0,1,162.224,110.919Z" fill="#231815"/>
          <path d="M166.617,102.743a.656.656,0,0,1-.656-.656V98.476a.656.656,0,0,1,1.312,0v3.611A.655.655,0,0,1,166.617,102.743Z" fill="#231815"/>
          <path d="M167.475,107.956H148.217a.657.657,0,0,1,0-1.313h19.258a.657.657,0,0,1,0,1.313Z" fill="#231815"/>
          <path d="M170.8,64.606a.656.656,0,0,1-.656-.656c0-.149-.028-3.642-2.422-3.642S165.31,63.8,165.31,63.95a.656.656,0,0,1-1.312,0c0-1.84.785-4.954,3.725-4.954s3.734,3.114,3.734,4.954A.656.656,0,0,1,170.8,64.606Z" fill="#231815"/>
          <path d="M150.028,64.606a.656.656,0,0,1-.656-.656c0-.149-.028-3.642-2.422-3.642s-2.412,3.493-2.412,3.642a.656.656,0,0,1-1.312,0c0-1.84.784-4.954,3.724-4.954s3.734,3.114,3.734,4.954A.656.656,0,0,1,150.028,64.606Z" fill="#231815"/>
          <g>
            <path d="M168.358,129.646v-6.8h-20.58v6.8s.629,6.641,10.29,6.641S168.358,129.646,168.358,129.646Z" fill="#f4aeb6"/>
            <path d="M158.068,136.943c-5.247,0-7.94-1.936-9.275-3.56a7.408,7.408,0,0,1-1.667-3.675l0-6.858a.656.656,0,0,1,.656-.656h20.58a.656.656,0,0,1,.656.656v6.8c0,.021,0,.041,0,.063C169,129.781,168.208,136.943,158.068,136.943Zm-9.634-13.437v6.14c.023.183.727,5.985,9.634,5.985,8.689,0,9.572-5.522,9.634-6.021v-6.1Zm19.924,6.14h0Z" fill="#231815"/>
          </g>
          <g>
            <path d="M129.7,62.09H108.47s.88-10.132,23.578-10.132" fill="#121659"/>
            <path d="M129.7,62.732H108.47a.643.643,0,0,1-.64-.7c.039-.437,1.2-10.718,24.217-10.718a.642.642,0,1,1,0,1.283c-18.211,0-22,6.643-22.757,8.849H129.7a.642.642,0,0,1,0,1.284Z" fill="#231815"/>
          </g>
          <g>
            <path d="M122.272,62.09h71.466s5.319-40.657-36.3-40.657C118.951,21.433,122.272,62.09,122.272,62.09Z" fill="#e84572"/>
            <path d="M193.738,62.746H122.272a.657.657,0,0,1-.654-.6c-.015-.19-1.427-19.2,9.729-31.3,6.155-6.68,14.934-10.066,26.093-10.066,12.577,0,22.185,3.682,28.559,10.943,10.646,12.129,8.413,30.273,8.389,30.455A.655.655,0,0,1,193.738,62.746Zm-70.844-1.312h70.252c.274-3.124,1.071-18.369-8.139-28.855-6.114-6.961-15.388-10.49-27.567-10.49-10.774,0-19.226,3.242-25.123,9.636C122.651,42.207,122.76,58.15,122.894,61.434Z" fill="#231815"/>
          </g>
          <path d="M151.089,56.544s-9.048.747-7.391-1.633,4.08-7.8,14.011-7.648,12.4,5.928,12.4,5.928,3.772,3.353-.231,3.353Z" fill="#121659"/>
          <path d="M173,62.815a.656.656,0,0,1-.656-.655,18.211,18.211,0,0,0-1.658-6.919c-2.149-4.526-5.959-6.918-11.323-7.109-5.605-.2-9.92,1.164-12.8,4.056a14.593,14.593,0,0,0-3.874,9.876.656.656,0,0,1-.63.681h-.026a.656.656,0,0,1-.655-.63,15.72,15.72,0,0,1,4.256-10.854c3.149-3.161,7.769-4.654,13.777-4.441,14.083.5,14.246,15.19,14.246,15.338a.656.656,0,0,1-.656.656Z" fill="#231815"/>
          <path d="M171.882,57.2H143.045a.656.656,0,0,1,0-1.312h28.837a.656.656,0,1,1,0,1.312Z" fill="#231815"/>
          <g>
            <path d="M180.9,64.778a2.086,2.086,0,0,0,2.009-2.493c-.293-.965-2.014-5.63-2.014-5.63h.01s-1.721,4.665-2.014,5.63A2.086,2.086,0,0,0,180.9,64.778Z" fill="#97d2ce"/>
            <path d="M180.9,65.434a2.678,2.678,0,0,1-2.163-1.105,2.6,2.6,0,0,1-.474-2.235c.273-.9,1.715-4.821,1.986-5.554a.64.64,0,0,1,.107-.259.662.662,0,0,1,1.188.24c.251.68,1.717,4.666,1.992,5.573a2.6,2.6,0,0,1-.473,2.236A2.679,2.679,0,0,1,180.9,65.434Zm0-6.858c-.522,1.431-1.21,3.335-1.381,3.9a1.328,1.328,0,0,0,.272,1.072,1.358,1.358,0,0,0,2.218,0,1.338,1.338,0,0,0,.272-1.073C182.112,61.911,181.424,60.007,180.9,58.576Z" fill="#231815"/>
          </g>
          <path d="M171.031,121.463a.623.623,0,0,1-.165-.021,32.5,32.5,0,0,1-12.755-6.292A22.805,22.805,0,0,1,145,121.462a.657.657,0,0,1-.107-1.309,21.8,21.8,0,0,0,12.711-6.362.659.659,0,0,1,.464-.206.565.565,0,0,1,.472.185,30.436,30.436,0,0,0,12.657,6.4.655.655,0,0,1-.163,1.29Z" fill="#231815"/>
        </g>
      </g>
    </g>
  </g>
</svg>
