<svg xmlns="http://www.w3.org/2000/svg" xmlns:xlink="http://www.w3.org/1999/xlink" width="611.515" height="291.183" viewBox="0 0 611.515 291.183">
  <defs>
    <clipPath id="clip-path">
      <polygon points="213.278 53.217 216.433 65.095 208.205 65.574 205.715 58.39 208.301 54.079 213.278 53.217" fill="none"/>
    </clipPath>
    <clipPath id="clip-path-2">
      <polygon points="221.798 108.965 221.273 97.662 215.102 98.524 214.419 104.463 216.623 108.869 221.798 108.965" fill="none"/>
    </clipPath>
  </defs>
  <g id="レイヤー_2" data-name="レイヤー 2">
    <g id="レイヤー_1-2" data-name="レイヤー 1">
      <g>
        <g>
          <circle cx="491.845" cy="248.33" r="4.325" fill="#ee795e"/>
          <path d="M491.853,253.527c-.122,0-.243,0-.366-.012a5.206,5.206,0,1,1,.366.012Zm-.013-8.65a3.453,3.453,0,1,0,2.272,6.058h0a3.453,3.453,0,0,0-2.03-6.049Q491.96,244.877,491.84,244.877Z" fill="#231815"/>
        </g>
        <g>
          <circle cx="496.983" cy="248.157" r="4.325" fill="#ee795e"/>
          <path d="M496.986,253.351a5.194,5.194,0,1,1,3.41-1.276h0A5.172,5.172,0,0,1,496.986,253.351Zm0-8.645a3.452,3.452,0,1,0,2.605,1.183A3.439,3.439,0,0,0,496.981,244.706Zm2.842,6.712h0Z" fill="#231815"/>
        </g>
        <g>
          <circle cx="480.752" cy="260.27" r="4.325" fill="#ee795e"/>
          <path d="M480.755,265.464a5.194,5.194,0,1,1,3.409-1.276A5.186,5.186,0,0,1,480.755,265.464Zm-.006-8.645A3.451,3.451,0,1,0,483.355,258,3.441,3.441,0,0,0,480.749,256.819Z" fill="#231815"/>
        </g>
        <g>
          <circle cx="488.307" cy="260.443" r="4.325" fill="#ee795e"/>
          <path d="M488.311,265.638a5.194,5.194,0,1,1,3.409-1.276h0A5.175,5.175,0,0,1,488.311,265.638Zm-.009-8.648a3.453,3.453,0,1,0,2.273,6.058h0a3.454,3.454,0,0,0-2.03-6.05C488.464,256.993,488.383,256.99,488.3,256.99Zm2.845,6.715h0Z" fill="#231815"/>
        </g>
        <g>
          <circle cx="495.312" cy="260.27" r="4.325" fill="#ee795e"/>
          <path d="M495.315,265.464a5.194,5.194,0,1,1,3.409-1.276A5.186,5.186,0,0,1,495.315,265.464Zm0-8.646A3.453,3.453,0,1,0,497.915,258,3.443,3.443,0,0,0,495.31,256.818Z" fill="#231815"/>
        </g>
        <g>
          <circle cx="486.125" cy="254.203" r="4.325" fill="#ee795e"/>
          <path d="M486.133,259.4q-.181,0-.366-.012a5.208,5.208,0,1,1,.366.012Zm-.011-8.648a3.452,3.452,0,0,0-.235,6.9,3.488,3.488,0,0,0,2.506-.84,3.452,3.452,0,0,0-2.271-6.056Z" fill="#231815"/>
        </g>
        <g>
          <circle cx="493.943" cy="254.377" r="4.325" fill="#ee795e"/>
          <path d="M493.946,259.57a5.193,5.193,0,1,1,3.409-1.275A5.182,5.182,0,0,1,493.946,259.57Zm-.005-8.645a3.451,3.451,0,1,0,2.605,1.183A3.442,3.442,0,0,0,493.941,250.925Z" fill="#231815"/>
        </g>
        <g>
          <circle cx="502.592" cy="254.203" r="4.325" fill="#ee795e"/>
          <path d="M502.6,259.4A5.192,5.192,0,1,1,506,258.122,5.184,5.184,0,0,1,502.6,259.4Zm-.007-8.645a3.451,3.451,0,1,0,2.607,1.184A3.436,3.436,0,0,0,502.589,250.752Z" fill="#231815"/>
        </g>
        <g>
          <circle cx="501.308" cy="260.443" r="4.325" fill="#ee795e"/>
          <path d="M501.315,265.641c-.121,0-.243,0-.365-.013a5.2,5.2,0,1,1,3.771-1.266h0A5.158,5.158,0,0,1,501.315,265.641Zm-.013-8.651a3.454,3.454,0,1,0,2.273,6.058h0a3.454,3.454,0,0,0-2.03-6.05C501.464,256.993,501.383,256.99,501.3,256.99Zm2.846,6.715h0Z" fill="#231815"/>
        </g>
        <g>
          <circle cx="508.015" cy="260.443" r="4.325" fill="#ee795e"/>
          <path d="M508.022,265.641c-.121,0-.243,0-.365-.013a5.2,5.2,0,1,1,3.771-1.266h0A5.158,5.158,0,0,1,508.022,265.641Zm-.01-8.649a3.453,3.453,0,1,0,2.27,6.056h0a3.452,3.452,0,0,0-2.27-6.056Zm2.843,6.713h0Z" fill="#231815"/>
        </g>
        <g>
          <polyline points="475.939 269.92 474.126 262.942 514.881 262.942 512.592 269.92" fill="#fff8ee"/>
          <path d="M512.592,270.793a.854.854,0,0,1-.271-.044.871.871,0,0,1-.557-1.1l1.913-5.835H475.253l1.529,5.888a.871.871,0,1,1-1.687.438l-1.813-6.979a.872.872,0,0,1,.844-1.091H514.88a.873.873,0,0,1,.829,1.144l-2.288,6.978A.873.873,0,0,1,512.592,270.793Z" fill="#231815"/>
        </g>
        <g>
          <polygon points="242.062 269.92 497.726 269.92 519 269.92 513.617 282.188 476.195 282.188 473.586 277.52 238.008 277.52 242.062 269.92" fill="#ee795e"/>
          <path d="M513.617,283.061H476.2a.871.871,0,0,1-.761-.447l-2.359-4.221H238.008a.873.873,0,0,1-.769-1.283l4.053-7.6a.874.874,0,0,1,.769-.462H519a.871.871,0,0,1,.8,1.222l-5.383,12.268A.873.873,0,0,1,513.617,283.061Zm-36.911-1.745h36.342l4.617-10.523H242.584l-3.123,5.855H473.586a.871.871,0,0,1,.761.447Z" fill="#231815"/>
        </g>
        <g>
          <g>
            <path d="M196.664,188.864l-8.55,25.8c-23.978.668-35.72-6.837-35.72-6.837s-13.566-8.518-2.531-23c8.712-11.441,32.864.313,32.864.313A88.6,88.6,0,0,0,196.664,188.864Z" fill="#e84572"/>
            <path d="M188.114,215.536a.873.873,0,0,1-.827-1.146l8.549-25.8a.865.865,0,0,1,.248-.377.874.874,0,0,1,1.379,1.011l-8.521,25.714A.872.872,0,0,1,188.114,215.536Z" fill="#231815"/>
          </g>
          <g>
            <rect x="161.151" y="163.136" width="23.692" height="6.58" transform="translate(55.544 -42.931) rotate(16.816)" fill="#f4aeb6"/>
            <path d="M183.385,173.874a.9.9,0,0,1-.252-.037l-22.679-6.855a.87.87,0,0,1-.582-1.086l1.9-6.3a.872.872,0,0,1,1.087-.583l22.679,6.854a.873.873,0,0,1,.582,1.087l-1.9,6.3a.871.871,0,0,1-.835.62Zm-21.592-8.309,21.01,6.35,1.4-4.629-21.01-6.349Z" fill="#231815"/>
          </g>
          <g>
            <path d="M172.507,169.714l20.025,6.052s15.089,5.933,8.609,27.372-24.565,73.155-24.565,73.155-13.669.468-34.688-5.884-32.548-14.436-32.548-14.436S123.266,203,129.746,181.561s22.328-18.022,22.328-18.022Z" fill="#e84572"/>
            <path d="M176.014,277.171c-2.863,0-15.885-.338-34.378-5.927-20.91-6.32-32.68-14.475-32.8-14.557a.872.872,0,0,1-.343-.936c.14-.53,14-53.232,20.415-74.441,6.635-21.956,23.18-18.658,23.345-18.623l20.5,6.192h0l20.025,6.053c.225.086,15.826,6.5,9.191,28.459-6.411,21.212-24.4,72.672-24.577,73.19a.872.872,0,0,1-.793.583C176.59,277.165,176.389,277.171,176.014,277.171Zm-65.672-21.578c2.426,1.584,13.577,8.474,31.8,13.981,18.2,5.5,30.981,5.851,33.814,5.854,2-5.747,18.319-52.581,24.352-72.541,6.156-20.373-7.511-26.076-8.1-26.31l-40.389-12.2c-.546-.115-15.084-2.934-21.242,17.439C124.551,201.765,111.9,249.663,110.342,255.593Z" fill="#231815"/>
          </g>
          <g>
            <path d="M141.387,117.579c.166,2.335.384,4.525.633,6.591-3.508,0-9.05-1.018-8.542-7.494s7.608-5.667,7.608-5.667C141.138,113.323,141.242,115.5,141.387,117.579Z" fill="#f4aeb6"/>
            <g>
              <path d="M142.031,125.042c-2.413,0-5.7-.457-7.712-2.635a7.341,7.341,0,0,1-1.71-5.8,6.612,6.612,0,0,1,2.317-4.8,9.177,9.177,0,0,1,6.26-1.665.872.872,0,0,1-.2,1.732,7.517,7.517,0,0,0-4.963,1.286,4.947,4.947,0,0,0-1.678,3.584,5.685,5.685,0,0,0,1.252,4.479c1.585,1.714,4.367,2.074,6.421,2.074a.872.872,0,0,1,.011,1.744Z" fill="#231815"/>
              <path d="M141.4,118.451h-3.663a.872.872,0,1,1,0-1.744h3.653a.876.876,0,0,1,.877.872A.867.867,0,0,1,141.4,118.451Z" fill="#231815"/>
            </g>
          </g>
          <g>
            <g>
              <g>
                <path d="M218.925,137.136a47.793,47.793,0,0,0-.918,8.477H218a58.553,58.553,0,0,1-10.366.393c.317-.109,5.9-2.054,10.312-8.87v-.011c.317.011.644.011.972.011Z" fill="#231815"/>
                <path d="M221.35,96.284c.371,4.763.5,9.121.47,13.1,0,.546-.011,1.092-.022,1.627a85.426,85.426,0,0,1-8.739-.12l.022-.284c-3.8-8.476.087-14.757.317-15.095a37.757,37.757,0,0,1,7.941.775Z" fill="#97d2ce"/>
                <path d="M216.839,67.677l-.033.01a67.4,67.4,0,0,1-11.229.088V67.72c-4.369-8.869-.339-15.816-.339-15.816l-.022-.121a41.628,41.628,0,0,1,7.046-.731l.087-.033c.754,2.326,1.464,4.762,2.163,7.307Q215.741,62.783,216.839,67.677Z" fill="#97d2ce"/>
                <path d="M221.83,109.381l6.292,10.311-6.75.809-.1-.011c.1-.94.175-1.912.241-2.906.142-2.075.24-4.26.284-6.576.011-.535.022-1.081.022-1.627Z" fill="#f4aeb6"/>
                <path d="M201.9,128.07c.218,2.25,2.272,5.014,6.2,6.893a21.5,21.5,0,0,0,5.451,1.715,29.464,29.464,0,0,0,4.391.447v.011c-4.413,6.816-10,8.761-10.312,8.87h-.01c-12.988-.623-33.545-5.724-33.523-31.863.032-40.262,44.293-39.017,44.293-39.017.251,1.322.5,2.676.742,4.042,1.093,6.237,1.8,11.928,2.218,17.116h-.011a37.757,37.757,0,0,0-7.941-.775c-1.573-.033-3.354.01-5.32.163-5.942.448-7.548,3.758-7.679,6.882-.207,5.068,3.43,7.69,12.66,8.334a85.426,85.426,0,0,0,8.739.12c-.044,2.316-.142,4.5-.284,6.576-.066.994-.142,1.966-.241,2.906-.076.884-.163,1.747-.251,2.577H208.231s-5.319,0-6.259,3.758A3.616,3.616,0,0,0,201.9,128.07Z" fill="#f4aeb6"/>
                <path d="M214.5,129.326l-.95,7.352a21.5,21.5,0,0,1-5.451-1.715l.863-6.194Z" fill="#fff8ee"/>
                <path d="M201.972,126.825c.94-3.758,6.259-3.758,6.259-3.758h1.519l-.787,5.7-7.067-.7A3.616,3.616,0,0,1,201.972,126.825Z" fill="#fff8ee"/>
                <path d="M221.022,123.067c-.044.372-.087.743-.131,1.1-.24,2.042-.5,3.932-.775,5.712l-5.615-.557.787-6.106v-.153Z" fill="#fff8ee"/>
                <path d="M214.5,129.326l5.615.557c-.416,2.688-.842,5.091-1.191,7.253h-.011c-.328,0-.655,0-.972-.011a29.464,29.464,0,0,1-4.391-.447Z" fill="#fff8ee"/>
                <polygon points="215.288 123.067 215.288 123.22 214.501 129.326 208.963 128.769 209.75 123.067 215.288 123.067" fill="#fff8ee"/>
                <path d="M208.963,128.769l-.863,6.194c-3.932-1.879-5.986-4.643-6.2-6.893Z" fill="#fff8ee"/>
                <path d="M208.078,95.672c1.966-.153,3.747-.2,5.32-.163-.23.338-4.118,6.619-.317,15.1l-.022.284c-9.23-.644-12.867-3.266-12.66-8.334C200.53,99.43,202.136,96.12,208.078,95.672Z" fill="#fff8ee"/>
                <path d="M193.671,60.609c.273-5.505,6.4-7.832,11.545-8.826l.022.121s-4.03,6.947.339,15.816v.055C199.569,67.261,193.43,65.525,193.671,60.609Z" fill="#fff8ee"/>
                <path d="M223.906,175.149c.885,4.085,4.97,6.018,5.418,10.824.557,6.161-3.015,10.858-5.6,10.64-5.374-.448,1-4.6-2.348-10.53s-7.373-5.932-7.384-13.545c-.011-7.384-5.211-5.647-5.527-5.527,2.359,4.675-.492,8.586-.754,13.02-.339,5.833,3.921,8.182,5.156,9.3s2.567,4.817-2.578,5.374-10.53-4.7-9.973-12.2,2.993-13.435-8.2-15.118c0,0-29.132.153-30.891,0-16.636-18.634-19.192-43.211-19.192-43.211-.251-2.065-.469-4.26-.633-6.587-.153-2.086-.251-4.26-.306-6.576a161.291,161.291,0,0,1,2.611-31.84c1.332-7.647,2.894-14.561,4.609-20.842C160.585,13.345,180.683,1.81,181.393,1.417h.044c.655.372,18.591,10.661,30.912,49.6l-.087.033a41.628,41.628,0,0,0-7.046.731c-5.144.994-11.272,3.321-11.545,8.826-.241,4.916,5.9,6.652,11.906,7.166a67.4,67.4,0,0,0,11.229-.088l.033-.01c.546,2.392,1.059,4.882,1.551,7.449,0,0-44.261-1.245-44.293,39.017-.022,26.139,20.535,31.24,33.523,31.863h.01A58.553,58.553,0,0,0,218,145.613h.011c.066,4.336,1.606,7.362,6.336,10.114,0,0,6.095,2.021,6.324,8.63s.776,8.181,5.7,10.977,2.021,5.932,2.021,5.932a4.985,4.985,0,0,1-4.926,1.125C231.148,181.7,225.457,178.928,223.906,175.149Z" fill="#97d2ce"/>
              </g>
              <g>
                <path d="M235,183.494a6.291,6.291,0,0,1-1.787-.267c-2.579-.767-8.443-3.669-10.117-7.748a.9.9,0,0,1,.442-1.155.849.849,0,0,1,1.13.394,1.373,1.373,0,0,1,.052.131c1.331,3.238,6.513,5.969,8.989,6.706a4.1,4.1,0,0,0,4.047-.891h0a2.593,2.593,0,0,0,.589-1.928c-.15-.922-.983-1.836-2.409-2.643-5.325-3.023-5.919-4.917-6.143-11.708a8.717,8.717,0,0,0-5.73-7.83.985.985,0,0,1-.162-.074c-4.732-2.754-6.693-5.9-6.768-10.855a48.516,48.516,0,0,1,.929-8.636c.133-.819.278-1.681.429-2.582.244-1.451.5-3,.76-4.657.3-1.942.55-3.8.771-5.682l.132-1.1c.085-.814.172-1.672.248-2.551.1-.944.174-1.9.238-2.888.146-2.125.241-4.322.283-6.534.011-.558.022-1.085.022-1.611.035-4.225-.122-8.606-.467-13.029-.433-5.412-1.176-11.143-2.208-17.034-.239-1.361-.489-2.711-.74-4.029-.52-2.72-1.026-5.146-1.544-7.418-.721-3.221-1.5-6.352-2.317-9.313-.764-2.782-1.468-5.16-2.153-7.271C199.389,12.947,181.752,2.6,181.007,2.176a.872.872,0,0,1,.86-1.518c.769.436,18.98,11.117,31.313,50.1.691,2.13,1.4,4.533,2.173,7.339.823,2.987,1.61,6.147,2.336,9.391.523,2.289,1.032,4.736,1.557,7.476.252,1.327.5,2.684.745,4.055,1.041,5.945,1.791,11.731,2.228,17.2.349,4.474.507,8.906.472,13.173,0,.531-.01,1.069-.021,1.6-.043,2.281-.139,4.507-.287,6.659-.066,1-.143,1.986-.242,2.936-.076.875-.164,1.743-.251,2.578l-.134,1.118c-.223,1.9-.478,3.777-.779,5.74-.257,1.667-.519,3.223-.764,4.681-.15.9-.295,1.755-.427,2.578a47.135,47.135,0,0,0-.907,8.322c.065,4.292,1.7,6.916,5.838,9.34.833.315,6.591,2.74,6.821,9.389.208,6.284.617,7.613,5.261,10.25,1.942,1.1,3.044,2.415,3.274,3.91a4.334,4.334,0,0,1-1.045,3.373A5.811,5.811,0,0,1,235,183.494Z" fill="#231815"/>
                <path d="M209.525,195.614a9.292,9.292,0,0,1-6.387-2.744,13.023,13.023,0,0,1-3.7-10.434c.077-1.018.188-2,.295-2.957.689-6.16,1.106-9.883-7.692-11.224-1.923.011-29.15.15-30.9,0a.874.874,0,0,1-.575-.287c-16.631-18.63-19.383-43.454-19.409-43.7-.268-2.2-.482-4.434-.636-6.615-.151-2.061-.251-4.226-.307-6.617a161.772,161.772,0,0,1,2.623-32.011c1.27-7.289,2.827-14.328,4.627-20.921C159.828,12.809,180.114,1.13,180.971.654a.872.872,0,0,1,.845,1.526c-.831.46-20.5,11.79-32.668,56.376-1.786,6.542-3.331,13.527-4.591,20.761a160.1,160.1,0,0,0-2.6,31.671c.055,2.363.155,4.5.3,6.533.151,2.154.362,4.356.629,6.544.027.257,2.7,24.3,18.735,42.465,2.934.1,20.916.031,30.477-.019.042,0,.09,0,.134.01,10.527,1.581,9.9,7.2,9.231,13.151-.1.932-.213,1.9-.288,2.893a11.288,11.288,0,0,0,3.168,9.05,7.391,7.391,0,0,0,5.84,2.22c1.121-.122,2.523-.475,2.849-1.465a2.654,2.654,0,0,0-.766-2.4c-.15-.136-.359-.3-.6-.487-1.672-1.3-5.151-4.009-4.832-9.5a22.769,22.769,0,0,1,.869-4.5c.718-2.707,1.4-5.262-.023-8.076a14.089,14.089,0,0,0-3.775-4.384.872.872,0,1,1,1.11-1.344,15.73,15.73,0,0,1,4.223,4.946c1.716,3.4.921,6.4.151,9.3a21.159,21.159,0,0,0-.815,4.158c-.266,4.576,2.507,6.733,4.164,8.023.282.22.524.41.706.574a4.333,4.333,0,0,1,1.248,4.234c-.341,1.034-1.365,2.334-4.317,2.654A7.836,7.836,0,0,1,209.525,195.614Z" fill="#231815"/>
                <path d="M223.894,197.491c-.083,0-.165,0-.247-.01a3.548,3.548,0,0,1-2.681-1.137c-.639-.916-.334-2.024.019-3.307.484-1.758,1.086-3.945-.372-6.525a22,22,0,0,0-3.526-4.544c-2.127-2.252-3.964-4.2-3.971-9.429,0-2.246-.526-3.793-1.513-4.475a3.479,3.479,0,0,0-2.833-.238.9.9,0,0,1-1.187-.815.871.871,0,0,1,.658-.847,5.14,5.14,0,0,1,4.349.463c1.5,1.034,2.265,3.022,2.269,5.91.007,4.539,1.47,6.089,3.5,8.234a23.766,23.766,0,0,1,3.776,4.882,9.513,9.513,0,0,1,.536,7.847c-.207.751-.441,1.6-.271,1.846.049.069.295.305,1.4.4a2.886,2.886,0,0,0,2.052-1.053,11.115,11.115,0,0,0,2.611-8.638c-.221-2.376-1.426-3.98-2.7-5.677a12.9,12.9,0,0,1-2.7-5.042,9.434,9.434,0,0,1,.16-4.472c1.312-5.152-4.008-9.093-6.094-9.947a6.149,6.149,0,0,1-3.447-4.48.872.872,0,0,1,1.721-.28h0a4.458,4.458,0,0,0,2.388,3.147c2.886,1.18,8.689,5.838,7.122,11.988a7.764,7.764,0,0,0-.149,3.665,11.389,11.389,0,0,0,2.391,4.373c1.3,1.733,2.778,3.695,3.046,6.566a12.742,12.742,0,0,1-3.111,10.027A4.665,4.665,0,0,1,223.894,197.491Z" fill="#231815"/>
                <path d="M210.557,146.944c-.93,0-1.923-.019-2.966-.067a.873.873,0,0,1-.832-.911.9.9,0,0,1,.911-.831,57.438,57.438,0,0,0,10.2-.385.872.872,0,0,1,.262,1.725A55.211,55.211,0,0,1,210.557,146.944Z" fill="#231815"/>
                <path d="M207.62,146.878h-.042c-12.84-.616-34.376-5.688-34.353-32.734.009-11.465,3.56-20.723,10.555-27.518,13.2-12.821,33.767-12.4,34.634-12.37A.872.872,0,0,1,218.39,76c-.021,0-.033,0-.347,0-2.669,0-21.266.427-33.056,11.888-6.639,6.454-10.01,15.29-10.019,26.262-.021,25.6,20.474,30.4,32.694,30.99a.872.872,0,0,1-.042,1.743Z" fill="#231815"/>
                <path d="M221.371,121.373a.872.872,0,0,1-.1-1.737l5.4-.648-5.585-9.153a.872.872,0,0,1,1.489-.908l6.291,10.311a.872.872,0,0,1-.64,1.32l-6.751.808A.737.737,0,0,1,221.371,121.373Z" fill="#231815"/>
                <path d="M218.914,138.009c-.338,0-.677,0-1-.013a30.489,30.489,0,0,1-4.513-.46,22.41,22.41,0,0,1-5.673-1.787c-3.854-1.841-6.42-4.752-6.7-7.595a4.531,4.531,0,0,1,.1-1.541c1.092-4.367,6.86-4.418,7.1-4.418h12.791a.872.872,0,1,1,0,1.744H208.231c-.045,0-4.651.052-5.413,3.1a2.7,2.7,0,0,0-.054.946c.162,1.677,1.755,4.3,5.712,6.194a20.7,20.7,0,0,0,5.23,1.643,28.818,28.818,0,0,0,4.259.434c.316.011.636.008.949.011a.872.872,0,1,1,0,1.744Z" fill="#231815"/>
                <path d="M207.63,146.878a.873.873,0,0,1-.223-1.718c.807-.29,5.777-2.28,9.8-8.5a.872.872,0,0,1,1.464.947c-4.463,6.892-10.128,9-10.759,9.22A.893.893,0,0,1,207.63,146.878Z" fill="#231815"/>
                <path d="M218.311,111.935c-1.975,0-3.733-.059-5.317-.177-6.425-.448-13.766-1.9-13.466-9.24.112-2.652,1.362-7.178,8.485-7.714,1.877-.147,3.7-.2,5.4-.167a38.377,38.377,0,0,1,8.134.8.872.872,0,0,1-.422,1.692,37.6,37.6,0,0,0-7.739-.749c-1.664-.035-3.422.019-5.243.161-4.408.332-6.721,2.367-6.876,6.049-.133,3.254,1.171,6.682,11.85,7.428a85.243,85.243,0,0,0,8.652.119.847.847,0,0,1,.9.845.871.871,0,0,1-.846.9C220.58,111.917,219.412,111.935,218.311,111.935Z" fill="#231815"/>
                <path d="M213.081,111.477a.87.87,0,0,1-.795-.516c-3.909-8.714-.059-15.231.356-15.888a.87.87,0,0,1,1.627.425v.011a.876.876,0,0,1-.15.49c-.04.059-3.946,5.989-.243,14.249a.873.873,0,0,1-.8,1.229Z" fill="#231815"/>
                <path d="M210.5,68.846c-1.552,0-3.264-.053-5-.2-10.779-.92-12.857-4.9-12.7-8.077.238-4.8,4.474-8.136,12.251-9.639a42.052,42.052,0,0,1,7.211-.747.872.872,0,0,1,0,1.744,41.108,41.108,0,0,0-6.881.716c-4.809.928-10.594,3.074-10.84,8.012-.213,4.367,5.924,5.811,11.11,6.254a67.441,67.441,0,0,0,11.065-.086.872.872,0,0,1,.18,1.735C216.736,68.571,214.039,68.846,210.5,68.846Z" fill="#231815"/>
                <path d="M205.578,68.593a.872.872,0,0,1-.783-.488c-4.524-9.182-.485-16.339-.311-16.639a.872.872,0,0,1,1.51.873h0c-.155.268-3.731,6.681.365,15a.871.871,0,0,1-.4,1.167A.882.882,0,0,1,205.578,68.593Z" fill="#231815"/>
                <path d="M220.117,130.756a.846.846,0,0,1-.087,0l-18.22-1.813a.878.878,0,0,1-.791-.911.868.868,0,0,1,.866-.829h.011l18.306,1.819a.872.872,0,0,1-.085,1.739Z" fill="#231815"/>
                <path d="M213.552,137.55a.878.878,0,0,1-.866-.984l1.737-13.457a.872.872,0,0,1,1.729.223l-1.737,13.457A.873.873,0,0,1,213.552,137.55Z" fill="#231815"/>
                <path d="M208.1,135.835a.821.821,0,0,1-.121-.009.871.871,0,0,1-.743-.983l1.649-11.895a.872.872,0,1,1,1.727.239l-1.65,11.9A.871.871,0,0,1,208.1,135.835Z" fill="#231815"/>
                <path d="M214.773,88.811a.867.867,0,0,1-.446-.124l-5.025-3a.872.872,0,1,1,.9-1.5l5.025,3a.873.873,0,0,1-.449,1.621Z" fill="#231815"/>
              </g>
            </g>
            <g clip-path="url(#clip-path)">
              <circle cx="212.428" cy="59.514" r="4.59" fill="#231815"/>
            </g>
            <g clip-path="url(#clip-path-2)">
              <circle cx="221.023" cy="103.498" r="4.59" fill="#231815"/>
            </g>
          </g>
          <g>
            <path d="M181.41,1.4c-.011,0-.011.011-.021.011-18.019,6.871-51.056,39.275-51.056,39.275,5.6,9.154,17.977,17.634,17.977,17.634s5.5,4.1,17.858,5.9C166.168,64.219,166.126,39.759,181.41,1.4Z" fill="#97d2ce"/>
            <path d="M166.167,65.091a.753.753,0,0,1-.125-.01c-12.433-1.808-18.021-5.886-18.253-6.059-.483-.331-12.563-8.67-18.2-17.878a.872.872,0,0,1,.133-1.078C131.076,38.739,163.05,7.5,181.039.614a.893.893,0,0,1,1.092.3.873.873,0,0,1,.089.812c-15.034,37.727-15.181,62.249-15.181,62.492a.872.872,0,0,1-.872.873Zm-34.72-24.269c5.606,8.672,17.237,16.7,17.356,16.782.078.057,5.248,3.8,16.519,5.6.193-4.929,1.765-27.483,14.52-60.2C163.125,10.534,135.514,36.892,131.447,40.822Z" fill="#231815"/>
          </g>
        </g>
        <g>
          <path d="M201.359,218.993l-26.078,7.657c-14.2-19.333-14.713-33.26-14.713-33.26s-.719-16,17.465-15.171c14.365.651,18.451,27.2,18.451,27.2A88.577,88.577,0,0,0,201.359,218.993Z" fill="#e84572"/>
          <g>
            <path d="M235.468,260.357S213.6,245.592,201.575,219.1L175.5,226.754c9.7,13.206,19.731,25.286,46.392,40.826a7.054,7.054,0,0,0-.812,4.877l1.115,6.164,3.227,6.57s1.555,4.859,3.45,4.811,4.86-3.839,4.86-3.839" fill="#f4aeb6"/>
            <g>
              <path d="M229.179,291.183c-1.808,0-3.049-1.647-3.5-2.653a51.783,51.783,0,0,1-4.972-11.915c-1.061-4.343-.223-7.17.379-8.479-26.46-15.536-36.632-27.706-46.3-40.866-14.194-19.328-14.86-33.165-14.881-33.744-.013-.274-.255-6.938,4.465-11.656,3.21-3.206,7.885-4.69,13.91-4.419,14.908.676,19.1,26.824,19.273,27.937a88.391,88.391,0,0,0,4.809,13.348c11.78,25.951,33.37,40.751,33.586,40.9a.872.872,0,0,1-.976,1.445c-.22-.149-22.207-15.207-34.2-41.623a89.883,89.883,0,0,1-4.924-13.71c-.059-.351-4.162-25.941-17.648-26.553-5.512-.249-9.75,1.064-12.6,3.911-4.183,4.179-3.959,10.29-3.956,10.351.006.143.7,13.932,14.545,32.783,9.635,13.12,19.786,25.248,46.5,40.821a.872.872,0,0,1,.261,1.273c-.071.1-1.835,2.643-.557,7.869a51.524,51.524,0,0,0,4.828,11.536c.079.164.952,2.043,2.361,1.638a1.383,1.383,0,0,0,.935-1.824.874.874,0,0,1,.607-1.07.864.864,0,0,1,1.07.6,3.113,3.113,0,0,1-2.12,3.97A3.182,3.182,0,0,1,229.179,291.183Z" fill="#231815"/>
              <path d="M175.5,227.626a.872.872,0,0,1-.246-1.709l26.079-7.658a.877.877,0,0,1,1.1,1.05.873.873,0,0,1-.694.649l-25.99,7.633A.914.914,0,0,1,175.5,227.626Z" fill="#231815"/>
            </g>
          </g>
        </g>
        <path d="M235.468,260.357s12.624,5.149,13.784,5.8c2.567,1.424,2.994,3.1,1.621,4.179-1.791,1.4-9.357-1.542-9.357-1.542s5.025,10.413,5.64,11.658a3.351,3.351,0,0,1-1.3,4.606c-2.115,1.058-4.094-1.876-4.094-1.876,1.041,1.962.367,3.83-1.33,4.487-2.183.87-3.727-1.9-3.907-2.251.555,1.441.76,3.914-1.295,4.657-2.508.887-3.864-2.755-3.864-2.755l-4.889-11.743" fill="#f4aeb6"/>
        <path d="M239.588,288.71c-1.82,0-3.223-1.7-3.835-2.9a.872.872,0,0,1,1.552-.8c.013.024,1.275,2.443,2.808,1.838a1.9,1.9,0,0,0,1.152-1.115,2.651,2.651,0,0,0-.269-2.153l-4.86-11.306a.872.872,0,0,1,1.6-.687l4.829,11.241a4.29,4.29,0,0,1,.332,3.514,3.65,3.65,0,0,1-2.148,2.129A3.113,3.113,0,0,1,239.588,288.71Z" fill="#231815"/>
        <path d="M234.456,291.084c-2.037,0-3.412-2.145-3.9-3.462l-4.877-11.713a.872.872,0,0,1,1.61-.67l4.888,11.743c.022.057,1.1,2.867,2.769,2.267a1.475,1.475,0,0,0,.89-.8,3.834,3.834,0,0,0-.1-2.684q-.016-.035-.03-.069c-.541-1.391-4.8-11.083-4.841-11.18a.872.872,0,0,1,1.6-.7c.174.4,4.243,9.663,4.853,11.211a.735.735,0,0,1,.034.076,5.566,5.566,0,0,1,.076,4.073,3.313,3.313,0,0,1-2.963,1.909Z" fill="#231815"/>
        <path d="M226.481,276.438a.865.865,0,0,1-.872-.864v-.017a.872.872,0,1,1,.872.881Z" fill="#231815"/>
        <path d="M244.9,286.161c-1.68,0-3.15-1.442-3.859-2.494a.872.872,0,0,1,1.445-.977h0c.015.023,1.6,2.279,2.982,1.585,2.036-1.018.911-3.424.9-3.449-.611-1.237-5.639-11.656-5.639-11.656a.871.871,0,0,1,1.1-1.191c3.432,1.334,7.668,2.318,8.5,1.667.463-.365.438-.666.431-.764-.018-.219-.21-1.007-1.938-1.965-.819-.458-8.636-3.691-13.69-5.753a.872.872,0,0,1,.658-1.615c1.3.529,12.707,5.188,13.88,5.845,2.212,1.226,2.758,2.5,2.827,3.347a2.61,2.61,0,0,1-1.091,2.277c-1.537,1.2-5.523.191-8.186-.688,1.482,3.068,4.264,8.828,4.71,9.733.769,1.6.95,4.453-1.687,5.771A2.975,2.975,0,0,1,244.9,286.161Z" fill="#231815"/>
      </g>
      <g>
        <g>
          <g>
            <g>
              <path d="M442.4,165.591h4.278S464.3,166.3,464.3,182.5v30.916H398.276V182.5c0-16.2,17.619-16.907,17.619-16.907h4.278" fill="#97d2ce"/>
              <path d="M464.3,214.136H398.276a.722.722,0,0,1-.722-.722V182.5c0-16.7,18.129-17.62,18.312-17.627h4.307a.722.722,0,0,1,0,1.443H415.9a23.711,23.711,0,0,0-8.527,2.322C401.814,171.427,399,176.092,399,182.5v30.194h64.578V182.5c0-6.406-2.816-11.071-8.37-13.863a23.655,23.655,0,0,0-8.557-2.322H442.4a.722.722,0,1,1,0-1.443h4.278c.212.008,18.34.927,18.34,17.628v30.916A.721.721,0,0,1,464.3,214.136Z" fill="#231815"/>
            </g>
            <path d="M442.307,165.892s0,4.709-5.624,4.709-5.443-5.01-5.443-5.01v.3s0,4.709-5.624,4.709-5.443-5.01-5.443-5.01Z" fill="#fff"/>
            <g>
              <rect x="420.173" y="158.251" width="22.227" height="7.34" fill="#f4aeb6"/>
              <path d="M442.4,166.313H420.173a.721.721,0,0,1-.722-.721v-7.341a.722.722,0,0,1,.722-.722H442.4a.723.723,0,0,1,.722.722v7.341A.722.722,0,0,1,442.4,166.313Zm-21.506-1.443h20.784v-5.9H420.894Z" fill="#231815"/>
            </g>
            <g>
              <g>
                <path d="M431.24,61.706s40.2-3.413,34.586,55.578c0,0-2.119,19.345-23.426,40.967H420.08c-21.306-21.622-23.426-40.967-23.426-40.967-5.619-58.991,34.586-55.578,34.586-55.578" fill="#f4aeb6"/>
                <path d="M442.4,158.973H420.08a.721.721,0,0,1-.514-.215c-11.086-11.251-16.915-21.881-19.853-28.818a49.369,49.369,0,0,1-3.776-12.578c-2.056-21.584,1.706-37.378,11.182-46.951a35.567,35.567,0,0,1,48.242,0c9.476,9.573,13.239,25.367,11.183,46.942-.022.206-2.393,19.853-23.63,41.405A.721.721,0,0,1,442.4,158.973Zm-22.017-1.444H442.1c20.661-21.08,22.991-40.133,23.012-40.324,2.011-21.118-1.613-36.523-10.774-45.778a31.534,31.534,0,0,0-23.034-9,.612.612,0,0,1-.121,0c-.128,0-13.179-.973-23.052,9.018C398.98,80.7,395.361,96.1,397.372,117.216,397.393,117.4,399.723,136.449,420.383,157.529Z" fill="#231815"/>
              </g>
              <path d="M444.892,112.341a4.054,4.054,0,1,0,4.05-4.049A4.044,4.044,0,0,0,444.892,112.341Zm1.284,7.159a8.087,8.087,0,1,1,8.1-8.084A8.084,8.084,0,0,1,446.176,119.5Z" fill="#fff8ee"/>
              <path d="M444.892,112.341a4.054,4.054,0,1,1,4.05,4.042A4.045,4.045,0,0,1,444.892,112.341Zm5.441,0a1.387,1.387,0,1,0-2.774,0,1.387,1.387,0,0,0,2.774,0Z" fill="#97d2ce"/>
              <path d="M448.942,110.95a1.387,1.387,0,1,1,0,2.774,1.387,1.387,0,0,1,0-2.774Z" fill="#231815"/>
              <path d="M417.611,112.341a1.387,1.387,0,1,1,1.383,1.383A1.384,1.384,0,0,1,417.611,112.341Z" fill="#231815"/>
              <path d="M418.994,116.383a4.046,4.046,0,1,0-4.057-4.042A4.039,4.039,0,0,0,418.994,116.383Zm-2.766,3.117a8.092,8.092,0,1,1,8.083-8.084A8.09,8.09,0,0,1,416.228,119.5Z" fill="#fff8ee"/>
              <path d="M414.937,112.341a4.053,4.053,0,1,1,4.057,4.042A4.051,4.051,0,0,1,414.937,112.341Zm5.448,0a1.387,1.387,0,1,0-2.774,0,1.387,1.387,0,0,0,2.774,0Z" fill="#97d2ce"/>
              <path d="M416.227,120.222a8.813,8.813,0,1,1,8.806-8.806A8.82,8.82,0,0,1,416.227,120.222Zm0-16.183a7.37,7.37,0,1,0,7.363,7.377A7.4,7.4,0,0,0,416.227,104.039Z" fill="#231815"/>
              <path d="M418.994,117.1a4.767,4.767,0,1,1,4.771-4.763A4.775,4.775,0,0,1,418.994,117.1Zm0-8.09a3.324,3.324,0,1,0,3.328,3.327A3.335,3.335,0,0,0,418.994,109.014Z" fill="#231815"/>
              <path d="M413.792,104.216a.721.721,0,0,1-.683-.489l-1-2.936a.721.721,0,1,1,1.366-.465l1,2.936a.722.722,0,0,1-.451.916A.751.751,0,0,1,413.792,104.216Z" fill="#231815"/>
              <path d="M410.394,106.538a.711.711,0,0,1-.557-.268l-2.375-2.33a.722.722,0,0,1,1.011-1.031l2.428,2.382a.751.751,0,0,1,.14.192.725.725,0,0,1-.647,1.055Z" fill="#231815"/>
              <path d="M419.3,104.523a.7.7,0,0,1-.232-.038.722.722,0,0,1-.451-.916l1-2.943a.722.722,0,0,1,1.367.465l-1,2.943A.722.722,0,0,1,419.3,104.523Z" fill="#231815"/>
              <path d="M422.683,106.844a.722.722,0,0,1-.507-1.237l2.444-2.405a.722.722,0,0,1,1.012,1.029l-2.443,2.406A.726.726,0,0,1,422.683,106.844Z" fill="#231815"/>
              <path d="M446.176,120.222A8.808,8.808,0,1,1,455,111.416,8.816,8.816,0,0,1,446.176,120.222Zm0-16.183a7.38,7.38,0,1,0,5.32,2.268A7.379,7.379,0,0,0,446.176,104.039Z" fill="#231815"/>
              <path d="M448.942,117.1a4.767,4.767,0,1,1,4.779-4.763A4.773,4.773,0,0,1,448.942,117.1Zm0-8.09a3.324,3.324,0,1,0,3.335,3.327A3.331,3.331,0,0,0,448.942,109.014Z" fill="#231815"/>
              <path d="M448.619,104.216a.751.751,0,0,1-.232-.038.722.722,0,0,1-.451-.916l1-2.936a.721.721,0,1,1,1.366.465l-1,2.936A.722.722,0,0,1,448.619,104.216Z" fill="#231815"/>
              <path d="M452,106.532a.718.718,0,0,1-.522-1.212l.015-.015,2.441-2.4a.722.722,0,1,1,1.011,1.031l-2.428,2.382A.737.737,0,0,1,452,106.532Z" fill="#231815"/>
              <path d="M443.11,104.523a.722.722,0,0,1-.684-.489l-1-2.943a.722.722,0,0,1,1.367-.465l1,2.943a.722.722,0,0,1-.451.916A.7.7,0,0,1,443.11,104.523Z" fill="#231815"/>
              <path d="M439.721,106.844a.724.724,0,0,1-.507-.208l-2.436-2.406a.722.722,0,1,1,1.014-1.027l2.436,2.405a.722.722,0,0,1-.507,1.236Z" fill="#231815"/>
            </g>
            <path d="M431.24,128.5a3.925,3.925,0,0,1-3.171-1.622,3.79,3.79,0,0,1-.7-3.258c.433-1.43,2.753-7.736,3.149-8.81a.726.726,0,0,1,.122-.308.731.731,0,0,1,1.314.285c.369,1,2.72,7.393,3.157,8.833a3.79,3.79,0,0,1-.7,3.258A3.925,3.925,0,0,1,431.24,128.5Zm0-11.468c-.838,2.29-2.183,5.994-2.491,7.008a2.4,2.4,0,0,0,.48,1.978,2.466,2.466,0,0,0,4.022,0,2.4,2.4,0,0,0,.479-1.978C433.423,123.029,432.078,119.325,431.24,117.035Z" fill="#231815"/>
            <path d="M431.287,214.136H398.276a.722.722,0,0,1-.722-.722V182.5c0-16.7,18.129-17.62,18.312-17.627h4.307a.722.722,0,0,1,0,1.443H415.9a23.711,23.711,0,0,0-8.527,2.322C401.814,171.427,399,176.092,399,182.5v30.194h32.29a.722.722,0,0,1,0,1.444Z" fill="#231815"/>
            <path d="M464.3,214.136h-33.01a.722.722,0,1,1,0-1.444h32.288V182.5c0-6.406-2.816-11.071-8.37-13.863a23.655,23.655,0,0,0-8.557-2.322H442.4a.722.722,0,1,1,0-1.443h4.278c.212.008,18.34.927,18.34,17.628v30.916A.721.721,0,0,1,464.3,214.136Z" fill="#231815"/>
            <path d="M425.616,171.322a6.135,6.135,0,0,1-4.612-1.7,6.017,6.017,0,0,1-1.552-4.061.741.741,0,0,1,.747-.695.722.722,0,0,1,.695.745,4.607,4.607,0,0,0,1.159,3.019,4.771,4.771,0,0,0,3.563,1.245c4.727,0,4.9-3.582,4.9-3.991a.724.724,0,0,1,.722-.716h0a.72.72,0,0,1,.718.72C431.962,165.946,431.889,171.322,425.616,171.322Z" fill="#231815"/>
            <path d="M436.684,171.322a6.133,6.133,0,0,1-4.612-1.7,6.026,6.026,0,0,1-1.553-4.061.733.733,0,0,1,.747-.695.722.722,0,0,1,.695.745,4.6,4.6,0,0,0,1.16,3.019,4.77,4.77,0,0,0,3.563,1.245c4.727,0,4.9-3.582,4.9-3.991a.723.723,0,0,1,.722-.716h0a.72.72,0,0,1,.718.72C443.029,165.946,442.956,171.322,436.684,171.322Z" fill="#231815"/>
            <g>
              <path d="M458.221,96.022s7.9,31.188-4.657,61.769l16.762-.413c9.856-27.528,7.642-60.115,7.642-60.115-.776-12.234-6.178-49.441-46.682-49.441s-45.905,37.207-46.681,49.441c0,0-2.214,32.587,7.642,60.115l16.762.413c-12.556-30.581-4.657-61.769-4.657-61.769Z" fill="#fff8ee"/>
              <path d="M453.564,158.513a.723.723,0,0,1-.668-1c11.419-27.81,5.707-56.494,4.751-60.773H404.925c-.955,4.279-6.667,32.963,4.751,60.773a.718.718,0,0,1-.073.683.753.753,0,0,1-.612.313l-16.762-.413a.724.724,0,0,1-.662-.479c-9.793-27.353-7.7-60.08-7.683-60.407.409-6.435,2.062-18.846,8.545-29.631C400.6,53.992,413.672,47.1,431.287,47.1s30.687,6.891,38.857,20.482c6.482,10.784,8.136,23.2,8.544,29.634.022.324,2.111,33.051-7.682,60.4a.724.724,0,0,1-.662.479l-16.763.413ZM404.352,95.3h53.869a.721.721,0,0,1,.7.545c.079.31,7.642,31.069-4.277,61.2l15.169-.374c9.5-26.979,7.458-59.035,7.436-59.357-2.793-44.016-33.073-48.768-45.961-48.768S388.118,53.3,385.325,97.309c-.022.325-2.065,32.39,7.436,59.36l15.168.374c-11.919-30.128-4.355-60.887-4.277-61.2A.721.721,0,0,1,404.352,95.3Z" fill="#231815"/>
            </g>
          </g>
          <g>
            <line x1="413.36" y1="96.022" x2="413.36" y2="84.647" fill="#ee795e"/>
            <path d="M413.36,96.744a.721.721,0,0,1-.721-.722V84.647a.722.722,0,0,1,1.443,0V96.022A.722.722,0,0,1,413.36,96.744Z" fill="#231815"/>
          </g>
          <g>
            <line x1="425.404" y1="96.022" x2="425.404" y2="84.647" fill="#ee795e"/>
            <path d="M425.4,96.744a.722.722,0,0,1-.722-.722V84.647a.722.722,0,0,1,1.443,0V96.022A.721.721,0,0,1,425.4,96.744Z" fill="#231815"/>
          </g>
          <g>
            <line x1="437.447" y1="96.022" x2="437.447" y2="84.647" fill="#ee795e"/>
            <path d="M437.447,96.744a.721.721,0,0,1-.721-.722V84.647a.722.722,0,0,1,1.443,0V96.022A.722.722,0,0,1,437.447,96.744Z" fill="#231815"/>
          </g>
          <g>
            <line x1="449.491" y1="96.022" x2="449.491" y2="84.647" fill="#ee795e"/>
            <path d="M449.491,96.744a.722.722,0,0,1-.722-.722V84.647a.722.722,0,0,1,1.444,0V96.022A.722.722,0,0,1,449.491,96.744Z" fill="#231815"/>
          </g>
        </g>
        <g>
          <path d="M431.263,142.771h13.655s-3.128,4.8-13.67,4.8-13.67-4.8-13.67-4.8h13.685Z" fill="#e84572"/>
          <path d="M444.918,137.55h-27.34s5.986-5.187,8.783-5.448,4.887,2.39,4.887,2.39,2.1-2.659,4.895-2.39S444.918,137.55,444.918,137.55Z" fill="#e84572"/>
          <path d="M444.918,138.271h-27.34a.722.722,0,0,1-.473-1.267c.631-.546,6.246-5.346,9.189-5.62a6.5,6.5,0,0,1,4.954,2.047,6.579,6.579,0,0,1,4.964-2.047c2.933.274,8.548,5.074,9.179,5.62a.722.722,0,0,1-.473,1.267Zm-25.326-1.443H442.9c-2.093-1.649-5.216-3.856-6.828-4.007-2.367-.223-4.243,2.1-4.262,2.119a.748.748,0,0,1-1.13,0c-.02-.023-1.894-2.343-4.253-2.119C424.81,132.972,421.686,135.179,419.592,136.828Z" fill="#231815"/>
          <path d="M431.248,148.288c-10.81,0-14.138-4.913-14.274-5.122a.721.721,0,0,1,.6-1.116h27.34a.721.721,0,0,1,.6,1.116C445.386,143.375,442.057,148.288,431.248,148.288Zm-11.953-4.8c1.625,1.323,5.215,3.352,11.953,3.352s10.325-2.028,11.952-3.352Z" fill="#231815"/>
          <path d="M444.918,138.271h-27.34a.722.722,0,1,1,0-1.443h27.34a.722.722,0,1,1,0,1.443Z" fill="#231815"/>
          <g>
            <rect x="417.578" y="137.55" width="27.34" height="5.221" fill="#fff"/>
            <path d="M444.918,143.493h-27.34a.722.722,0,0,1-.722-.722V137.55a.722.722,0,0,1,.722-.722h27.34a.722.722,0,0,1,.722.722v5.221A.722.722,0,0,1,444.918,143.493ZM418.3,142.05h25.9v-3.779H418.3Z" fill="#231815"/>
          </g>
          <g>
            <line x1="423.377" y1="142.771" x2="423.377" y2="137.55" fill="#fff"/>
            <path d="M423.377,143.493a.722.722,0,0,1-.722-.722V137.55a.722.722,0,1,1,1.444,0v5.221A.722.722,0,0,1,423.377,143.493Z" fill="#231815"/>
          </g>
          <g>
            <line x1="428.598" y1="142.771" x2="428.598" y2="137.55" fill="#fff"/>
            <path d="M428.6,143.493a.722.722,0,0,1-.722-.722V137.55a.722.722,0,1,1,1.444,0v5.221A.722.722,0,0,1,428.6,143.493Z" fill="#231815"/>
          </g>
          <g>
            <line x1="433.819" y1="142.771" x2="433.819" y2="137.55" fill="#fff"/>
            <path d="M433.819,143.493a.721.721,0,0,1-.721-.722V137.55a.722.722,0,1,1,1.443,0v5.221A.722.722,0,0,1,433.819,143.493Z" fill="#231815"/>
          </g>
          <g>
            <line x1="439.04" y1="142.771" x2="439.04" y2="137.55" fill="#fff"/>
            <path d="M439.04,143.493a.722.722,0,0,1-.722-.722V137.55a.722.722,0,1,1,1.444,0v5.221A.722.722,0,0,1,439.04,143.493Z" fill="#231815"/>
          </g>
        </g>
      </g>
      <g>
        <g>
          <g>
            <path d="M575.023,165.545H579.3s17.619.705,17.619,16.907v30.916H530.9V182.452c0-16.2,17.62-16.907,17.62-16.907H552.8" fill="#e84572"/>
            <path d="M596.92,214.09H530.9a.721.721,0,0,1-.721-.722V182.452c0-16.7,18.129-17.621,18.312-17.628H552.8a.722.722,0,1,1,0,1.444h-4.278a23.691,23.691,0,0,0-8.527,2.322c-5.554,2.792-8.37,7.456-8.37,13.863v30.194H596.2V182.452c0-6.407-2.817-11.071-8.37-13.863a23.674,23.674,0,0,0-8.557-2.323h-4.249a.722.722,0,0,1,0-1.444H579.3c.212.008,18.341.927,18.341,17.629v30.916A.722.722,0,0,1,596.92,214.09Z" fill="#231815"/>
          </g>
          <path d="M574.931,165.845s0,4.71-5.624,4.71-5.444-5.01-5.444-5.01v.3s0,4.71-5.624,4.71-5.443-5.01-5.443-5.01Z" fill="#fff"/>
          <g>
            <rect x="552.796" y="158.205" width="22.227" height="7.34" fill="#f4aeb6"/>
            <path d="M575.023,166.267H552.8a.722.722,0,0,1-.721-.722v-7.34a.722.722,0,0,1,.721-.722h22.227a.722.722,0,0,1,.722.722v7.34A.722.722,0,0,1,575.023,166.267Zm-21.5-1.444H574.3v-5.9H553.518Z" fill="#231815"/>
          </g>
          <g>
            <g>
              <path d="M563.863,61.66s40.2-3.414,34.587,55.578c0,0-2.12,19.345-23.427,40.967H552.7c-21.307-21.622-23.427-40.967-23.427-40.967-5.618-58.992,34.586-55.578,34.586-55.578" fill="#f4aeb6"/>
              <path d="M575.023,158.927H552.7a.722.722,0,0,1-.515-.215c-11.086-11.251-16.915-21.881-19.853-28.817a49.369,49.369,0,0,1-3.776-12.579c-2.056-21.585,1.707-37.378,11.182-46.951a35.573,35.573,0,0,1,48.243,0c9.475,9.574,13.238,25.367,11.183,46.943-.023.206-2.394,19.853-23.63,41.4A.722.722,0,0,1,575.023,158.927Zm-22.017-1.444h21.715c20.66-21.08,22.99-40.133,23.011-40.324,2.01-21.105-1.609-36.506-10.756-45.763-9.875-9.99-22.921-9.025-23.052-9.017a.612.612,0,0,1-.121,0c-.13,0-13.178-.973-23.052,9.018C531.6,80.654,527.985,96.054,530,117.17,530.016,117.35,532.346,136.4,553.006,157.483Z" fill="#231815"/>
            </g>
            <path d="M572.451,113.11a4.054,4.054,0,1,0,4.05-4.049A4.044,4.044,0,0,0,572.451,113.11Zm6.348,6.344a8.087,8.087,0,1,1,8.1-8.084A8.084,8.084,0,0,1,578.8,119.454Z" fill="#fff8ee"/>
            <path d="M572.451,113.11a4.054,4.054,0,1,1,4.05,4.042A4.045,4.045,0,0,1,572.451,113.11Zm5.44,0a1.387,1.387,0,1,0-2.773,0,1.387,1.387,0,0,0,2.773,0Z" fill="#97d2ce"/>
            <path d="M576.5,111.719a1.387,1.387,0,1,1,0,2.774,1.387,1.387,0,0,1,0-2.774Z" fill="#231815"/>
            <path d="M545.17,113.11a1.387,1.387,0,1,1,1.383,1.383A1.384,1.384,0,0,1,545.17,113.11Z" fill="#231815"/>
            <path d="M546.553,117.152a4.046,4.046,0,1,0-4.057-4.042A4.039,4.039,0,0,0,546.553,117.152Zm2.3,2.3a8.092,8.092,0,1,1,8.084-8.084A8.09,8.09,0,0,1,548.851,119.454Z" fill="#fff8ee"/>
            <path d="M542.5,113.11a4.053,4.053,0,1,1,4.057,4.042A4.051,4.051,0,0,1,542.5,113.11Zm5.448,0a1.387,1.387,0,1,0-2.774,0,1.387,1.387,0,0,0,2.774,0Z" fill="#97d2ce"/>
            <path d="M548.851,120.176a8.813,8.813,0,1,1,8.806-8.806A8.82,8.82,0,0,1,548.851,120.176Zm0-16.183a7.37,7.37,0,1,0,7.362,7.377A7.4,7.4,0,0,0,548.851,103.993Z" fill="#231815"/>
            <path d="M546.553,117.874a4.768,4.768,0,1,1,4.771-4.764A4.776,4.776,0,0,1,546.553,117.874Zm0-8.092a3.325,3.325,0,1,0,3.327,3.328A3.335,3.335,0,0,0,546.553,109.782Z" fill="#231815"/>
            <path d="M546.415,104.17a.722.722,0,0,1-.683-.489l-1-2.936a.722.722,0,0,1,1.367-.465l1,2.936a.723.723,0,0,1-.451.916A.753.753,0,0,1,546.415,104.17Z" fill="#231815"/>
            <path d="M543.018,106.492a.713.713,0,0,1-.558-.268l-2.375-2.329a.722.722,0,0,1,1.011-1.032l2.428,2.382a.717.717,0,0,1,.14.193.724.724,0,0,1-.646,1.054Z" fill="#231815"/>
            <path d="M551.925,104.477a.694.694,0,0,1-.232-.039.722.722,0,0,1-.452-.916l1-2.942a.722.722,0,1,1,1.367.465l-1,2.942A.722.722,0,0,1,551.925,104.477Z" fill="#231815"/>
            <path d="M555.306,106.8a.722.722,0,0,1-.507-1.236l2.444-2.406a.722.722,0,0,1,1.013,1.03l-2.444,2.4A.722.722,0,0,1,555.306,106.8Z" fill="#231815"/>
            <path d="M578.8,120.176a8.809,8.809,0,1,1,8.821-8.806A8.815,8.815,0,0,1,578.8,120.176Zm0-16.183a7.381,7.381,0,1,0,5.32,2.269A7.379,7.379,0,0,0,578.8,103.993Z" fill="#231815"/>
            <path d="M576.5,117.874a4.768,4.768,0,1,1,4.779-4.764A4.774,4.774,0,0,1,576.5,117.874Zm0-8.092a3.325,3.325,0,1,0,3.335,3.328A3.332,3.332,0,0,0,576.5,109.782Z" fill="#231815"/>
            <path d="M581.243,104.17a.753.753,0,0,1-.233-.038.723.723,0,0,1-.451-.916l1-2.936a.721.721,0,1,1,1.366.465l-1,2.936A.722.722,0,0,1,581.243,104.17Z" fill="#231815"/>
            <path d="M584.627,106.486a.718.718,0,0,1-.514-1.22l2.449-2.4a.722.722,0,0,1,1.011,1.032l-2.429,2.381A.735.735,0,0,1,584.627,106.486Z" fill="#231815"/>
            <path d="M575.733,104.477a.723.723,0,0,1-.683-.49l-1-2.942a.722.722,0,1,1,1.367-.465l1,2.942a.722.722,0,0,1-.452.916A.694.694,0,0,1,575.733,104.477Z" fill="#231815"/>
            <path d="M572.345,106.8a.718.718,0,0,1-.507-.208l-2.436-2.405a.722.722,0,0,1,1.013-1.028l2.436,2.406a.721.721,0,0,1-.506,1.235Z" fill="#231815"/>
          </g>
          <path d="M563.864,128.457a3.924,3.924,0,0,1-3.171-1.622,3.787,3.787,0,0,1-.7-3.258c.434-1.429,2.751-7.727,3.149-8.807a.712.712,0,0,1,.122-.311.732.732,0,0,1,1.315.287c.371,1.008,2.72,7.392,3.157,8.831a3.791,3.791,0,0,1-.7,3.258A3.924,3.924,0,0,1,563.864,128.457Zm0-11.468c-.838,2.291-2.182,5.994-2.49,7.008a2.409,2.409,0,0,0,.479,1.979,2.467,2.467,0,0,0,4.022,0,2.406,2.406,0,0,0,.48-1.979C566.046,122.983,564.7,119.28,563.863,116.989Z" fill="#231815"/>
          <path d="M563.91,214.09H530.9a.721.721,0,0,1-.721-.722V182.452c0-16.7,18.129-17.621,18.312-17.628H552.8a.722.722,0,1,1,0,1.444h-4.278a23.691,23.691,0,0,0-8.527,2.322c-5.554,2.792-8.37,7.456-8.37,13.863v30.194H563.91a.722.722,0,0,1,0,1.444Z" fill="#231815"/>
          <path d="M596.92,214.09H563.91a.722.722,0,1,1,0-1.444H596.2V182.452c0-6.407-2.817-11.071-8.37-13.863a23.674,23.674,0,0,0-8.557-2.323h-4.249a.722.722,0,0,1,0-1.444H579.3c.212.008,18.341.927,18.341,17.629v30.916A.722.722,0,0,1,596.92,214.09Z" fill="#231815"/>
          <path d="M558.24,171.276a6.135,6.135,0,0,1-4.612-1.7,6.029,6.029,0,0,1-1.553-4.061.732.732,0,0,1,.747-.7.723.723,0,0,1,.7.745,4.608,4.608,0,0,0,1.159,3.02,4.771,4.771,0,0,0,3.563,1.245c4.727,0,4.9-3.582,4.9-3.991a.723.723,0,0,1,.722-.716h0a.719.719,0,0,1,.718.72C564.585,165.9,564.513,171.276,558.24,171.276Z" fill="#231815"/>
          <path d="M569.307,171.276a6.133,6.133,0,0,1-4.612-1.7,6.019,6.019,0,0,1-1.552-4.061.736.736,0,0,1,.747-.7.723.723,0,0,1,.7.745h0a4.608,4.608,0,0,0,1.159,3.02,4.771,4.771,0,0,0,3.563,1.245c4.727,0,4.9-3.582,4.9-3.991a.723.723,0,0,1,.722-.716h0a.72.72,0,0,1,.718.72C575.652,165.9,575.58,171.276,569.307,171.276Z" fill="#231815"/>
          <g>
            <path d="M563.91,47.776c40.5,0,45.894,37.207,46.682,49.44.91,14.147-.912,32.986-10.7,49.551-5.52,9.339-13.7,10.978-13.7,10.978,12.557-30.581,4.253-63.592,4.253-63.592H563.863c-13.211,0-17.572-13.974-17.572-13.974s-6.594,4.658-9.316,15.8c0,0-7.9,31.188,4.657,61.769,0,0-7.508-.612-14.149-12.318-8.938-15.756-11.065-35.448-10.255-48.211.776-12.234,6.178-49.44,46.682-49.44" fill="#ee795e"/>
            <path d="M586.187,158.466a.721.721,0,0,1-.667-1c11.445-27.874,5.336-58.18,4.347-62.595h-26c-11.478,0-16.564-10.233-17.893-13.5-1.76,1.571-6.209,6.237-8.293,14.766-.08.317-7.693,31.329,4.623,61.324a.723.723,0,0,1-.085.7.746.746,0,0,1-.641.294c-.323-.026-7.967-.779-14.719-12.681-8.907-15.7-11.185-35.406-10.347-48.612.408-6.438,2.062-18.849,8.545-29.634,8.169-13.591,21.242-20.482,38.857-20.482s30.685,6.891,38.853,20.482c6.471,10.769,8.134,23.189,8.549,29.633.687,10.673.2,31.354-10.8,49.964-5.619,9.508-13.835,11.249-14.182,11.318A.759.759,0,0,1,586.187,158.466ZM563.91,48.5c-12.889,0-43.169,4.752-45.962,48.765-.825,13,1.412,32.383,10.163,47.807,4.766,8.4,10,10.924,12.337,11.661C528.68,126.69,536.2,96.108,536.276,95.8c2.753-11.266,9.32-16.012,9.6-16.209a.723.723,0,0,1,1.106.374c.042.135,4.37,13.468,16.883,13.468H590.44a.721.721,0,0,1,.7.546c.083.327,7.969,32.583-3.726,62.641a23.227,23.227,0,0,0,11.854-10.22c10.8-18.275,11.28-38.629,10.6-49.136C607.036,53.25,576.785,48.5,563.91,48.5Z" fill="#231815"/>
          </g>
          <g>
            <path d="M558.33,82.337s6.1,11.816,12.6,11.816" fill="#ee795e"/>
            <path d="M570.931,94.875c-6.857,0-12.985-11.708-13.243-12.207a.722.722,0,0,1,1.283-.662c.059.114,5.979,11.426,11.96,11.426a.722.722,0,0,1,0,1.443Z" fill="#231815"/>
          </g>
          <g>
            <path d="M569.535,82.337s6.106,11.816,12.6,11.816" fill="#ee795e"/>
            <path d="M582.136,94.875c-6.856,0-12.984-11.708-13.242-12.207a.722.722,0,0,1,1.283-.662c.059.114,5.979,11.426,11.959,11.426a.722.722,0,1,1,0,1.443Z" fill="#231815"/>
          </g>
        </g>
        <g>
          <path d="M563.887,142.725h13.654s-3.127,4.8-13.67,4.8-13.67-4.8-13.67-4.8h13.686Z" fill="#e84572"/>
          <path d="M577.541,137.5H550.2s5.986-5.187,8.783-5.448,4.887,2.39,4.887,2.39,2.1-2.659,4.895-2.39S577.541,137.5,577.541,137.5Z" fill="#e84572"/>
          <path d="M577.541,138.226H550.2a.723.723,0,0,1-.473-1.268c.631-.546,6.246-5.346,9.189-5.621a6.53,6.53,0,0,1,4.954,2.048,6.56,6.56,0,0,1,4.964-2.048c2.933.275,8.548,5.075,9.179,5.621a.723.723,0,0,1-.473,1.268Zm-25.326-1.444h23.312c-2.093-1.649-5.217-3.856-6.828-4.008-2.366-.224-4.244,2.1-4.263,2.12a.724.724,0,0,1-.565.272h0a.724.724,0,0,1-.565-.272c-.019-.025-1.906-2.36-4.252-2.12C557.434,132.926,554.309,135.133,552.215,136.782Z" fill="#231815"/>
          <path d="M563.871,148.241c-10.809,0-14.138-4.913-14.274-5.122a.721.721,0,0,1,.6-1.116h27.34a.721.721,0,0,1,.6,1.116C578.009,143.328,574.68,148.241,563.871,148.241Zm-11.953-4.8c1.625,1.324,5.216,3.352,11.953,3.352s10.325-2.027,11.952-3.352Z" fill="#231815"/>
          <path d="M577.541,138.226H550.2a.722.722,0,1,1,0-1.444h27.34a.722.722,0,1,1,0,1.444Z" fill="#231815"/>
          <g>
            <rect x="550.201" y="137.504" width="27.34" height="5.221" fill="#fff"/>
            <path d="M577.541,143.446H550.2a.722.722,0,0,1-.722-.721V137.5a.722.722,0,0,1,.722-.722h27.34a.722.722,0,0,1,.722.722v5.221A.722.722,0,0,1,577.541,143.446ZM550.923,142h25.9v-3.777h-25.9Z" fill="#231815"/>
          </g>
          <g>
            <line x1="556" y1="142.725" x2="556" y2="137.504" fill="#fff"/>
            <path d="M556,143.446a.721.721,0,0,1-.721-.721V137.5a.722.722,0,1,1,1.443,0v5.221A.721.721,0,0,1,556,143.446Z" fill="#231815"/>
          </g>
          <g>
            <line x1="561.222" y1="142.725" x2="561.222" y2="137.504" fill="#fff"/>
            <path d="M561.222,143.446a.721.721,0,0,1-.722-.721V137.5a.722.722,0,1,1,1.443,0v5.221A.721.721,0,0,1,561.222,143.446Z" fill="#231815"/>
          </g>
          <g>
            <line x1="566.443" y1="142.725" x2="566.443" y2="137.504" fill="#fff"/>
            <path d="M566.443,143.446a.721.721,0,0,1-.722-.721V137.5a.722.722,0,1,1,1.443,0v5.221A.721.721,0,0,1,566.443,143.446Z" fill="#231815"/>
          </g>
          <g>
            <line x1="571.664" y1="142.725" x2="571.664" y2="137.504" fill="#fff"/>
            <path d="M571.663,143.446a.721.721,0,0,1-.721-.721V137.5a.722.722,0,1,1,1.443,0v5.221A.721.721,0,0,1,571.663,143.446Z" fill="#231815"/>
          </g>
        </g>
      </g>
      <path d="M503.812,75.428H503.8a.722.722,0,0,1-.709-.735c.113-6.652-5.1-7.1-5.32-7.115a.722.722,0,0,1-.313-1.344c3-1.74,4.664-3.795,4.945-6.109.468-3.861-3.051-7.3-3.086-7.334a.722.722,0,0,1,.587-1.237c2.855.348,4.94-.2,6.192-1.638,2.525-2.894,1.085-8.521,1.07-8.578a.721.721,0,0,1,1.041-.818c2.767,1.5,5.126,1.793,7.014.881,3.375-1.63,4.295-6.626,4.3-6.675a.721.721,0,0,1,.64-.593.737.737,0,0,1,.744.456c.1.242,2.462,5.948,10.6,4.188a.722.722,0,1,1,.305,1.411c-6.5,1.409-9.861-1.539-11.323-3.5-.616,1.854-1.963,4.718-4.64,6.014-2,.97-4.354.88-7.006-.262.31,2.091.5,5.944-1.662,8.425a7.171,7.171,0,0,1-5.7,2.238,10.314,10.314,0,0,1,2.349,7.19c-.285,2.373-1.7,4.478-4.218,6.272,2.006.741,5.007,2.754,4.915,8.158A.723.723,0,0,1,503.812,75.428Z" fill="#231815"/>
      <path d="M369.343,75.428h-.013a.722.722,0,0,1-.709-.735c.113-6.652-5.1-7.1-5.319-7.115a.722.722,0,0,1-.314-1.344c3-1.74,4.664-3.795,4.945-6.109.468-3.861-3.05-7.3-3.086-7.334a.722.722,0,0,1,.587-1.237c2.855.348,4.939-.2,6.191-1.638,2.526-2.894,1.086-8.521,1.071-8.578a.721.721,0,0,1,1.041-.818c2.766,1.5,5.126,1.793,7.014.881,3.375-1.63,4.3-6.626,4.3-6.675a.721.721,0,0,1,.64-.593.731.731,0,0,1,.743.456c.1.243,2.462,5.957,10.6,4.188a.722.722,0,0,1,.306,1.411c-6.5,1.413-9.86-1.539-11.323-3.5-.616,1.854-1.963,4.718-4.639,6.014-2,.969-4.353.88-7.007-.262.31,2.091.5,5.944-1.662,8.425a7.173,7.173,0,0,1-5.7,2.238,10.31,10.31,0,0,1,2.349,7.19c-.285,2.373-1.7,4.478-4.218,6.272,2.006.741,5.007,2.754,4.915,8.158A.721.721,0,0,1,369.343,75.428Z" fill="#231815"/>
      <g>
        <g>
          <polygon points="75.61 138.169 90.461 120.104 94.256 43.398 79.227 8.742 48.628 1 16.761 9.132 3 43.007 1 112.851 24.951 145.911 51.053 150.335 75.61 138.169" fill="#fff"/>
          <path d="M51.053,151.335a1.036,1.036,0,0,1-.167-.014l-26.1-4.424a.994.994,0,0,1-.643-.4L.19,113.438a1.008,1.008,0,0,1-.19-.616L2,42.979a1,1,0,0,1,.074-.347L15.835,8.757a1,1,0,0,1,.679-.593L48.381.031a1,1,0,0,1,.492,0l30.6,7.742a1,1,0,0,1,.672.573L95.173,43a1,1,0,0,1,.081.447L91.46,120.153a1,1,0,0,1-.227.585L76.382,138.8a1,1,0,0,1-.328.261L51.5,151.231A1,1,0,0,1,51.053,151.335Zm-25.532-6.342,25.379,4.3,24.074-11.927,14.5-17.644,3.768-76.143L78.505,9.591,48.629,2.032,17.5,9.977,4,43.217,2.009,112.539Zm50.089-6.824h0Z" fill="#231815"/>
        </g>
        <g>
          <circle cx="91.152" cy="120.651" r="10.675" fill="#fff"/>
          <path d="M91.152,132.325a11.674,11.674,0,1,1,11.674-11.674A11.688,11.688,0,0,1,91.152,132.325Zm0-21.348a9.674,9.674,0,1,0,9.674,9.674A9.685,9.685,0,0,0,91.152,110.977Z" fill="#231815"/>
        </g>
        <g>
          <circle cx="113.123" cy="136.941" r="5.909" fill="#fff"/>
          <path d="M113.122,143.851a6.91,6.91,0,1,1,6.91-6.91A6.918,6.918,0,0,1,113.122,143.851Zm0-11.819a4.91,4.91,0,1,0,4.91,4.909A4.914,4.914,0,0,0,113.122,132.032Z" fill="#231815"/>
        </g>
      </g>
      <g>
        <path d="M48.24,33.481a23.179,23.179,0,0,0,8.542,7.342,11.383,11.383,0,0,0-1.56,2.08,28.494,28.494,0,0,1-3.781-2.68v1.66H42.96v-1.6a27.181,27.181,0,0,1-3.7,2.66,9.375,9.375,0,0,0-1.5-1.9,23.81,23.81,0,0,0,8.1-7.562Zm3.881,10.2,1.9.559c-.979,2.442-2.42,5.562-3.66,8.1l-2.52-.7c.88-1.721,1.9-3.862,2.66-5.6H40.239V43.783H51.7Zm-1.32-4A23.934,23.934,0,0,1,47.16,35.8a22.753,22.753,0,0,1-3.52,3.881Z"/>
        <path d="M48.961,61.122c-1.16.261-2.461.481-3.741.641-.18.82-.38,1.679-.58,2.48a62.126,62.126,0,0,1-3.081,8.982l-2.72-.92a43.348,43.348,0,0,0,3.36-8.722c.141-.52.28-1.061.4-1.62-.441.019-.88.04-1.281.04-.94,0-1.66-.04-2.341-.08L38.919,59.5a18.22,18.22,0,0,0,2.42.14c.58,0,1.16-.02,1.761-.06.08-.42.12-.8.16-1.1a9.392,9.392,0,0,0,.059-1.94l2.981.221c-.14.54-.32,1.4-.42,1.82l-.14.72a29.8,29.8,0,0,0,3.221-.62Zm-.38,6.361a7.645,7.645,0,0,0-.261,1.641c0,.84.481,1.48,2.561,1.48a23.607,23.607,0,0,0,4.021-.4l-.1,2.481a30.154,30.154,0,0,1-3.941.259c-3.26,0-4.921-1.1-4.921-3.06a13.115,13.115,0,0,1,.32-2.6Zm-1.141-4.86a35.823,35.823,0,0,1,3.742-.2,33.022,33.022,0,0,1,3.4.16l-.06,2.36a27.587,27.587,0,0,0-3.34-.24,32.267,32.267,0,0,0-3.742.2Zm5.1-2A21.629,21.629,0,0,0,51,57.9l1.56-.639a30.786,30.786,0,0,1,1.561,2.68Zm2.34-4.241a30.1,30.1,0,0,1,1.6,2.661l-1.58.66A21.438,21.438,0,0,0,53.321,57Z"/>
        <path d="M47.479,78.605a1.833,1.833,0,1,1-1.92,1.841A1.843,1.843,0,0,1,47.479,78.605Zm0,7.583a1.832,1.832,0,1,1-1.92,1.82A1.837,1.837,0,0,1,47.479,86.188Zm0,7.581a1.833,1.833,0,1,1-1.92,1.82A1.838,1.838,0,0,1,47.479,93.769Z"/>
        <path d="M45.16,115.845a2.083,2.083,0,0,1,4.161,0,2.084,2.084,0,0,1-4.161,0Zm.34-10.2-.08-2.981h3.661l-.1,2.981-.7,6.841H46.22Z"/>
      </g>
    </g>
  </g>
</svg>
