<?xml version="1.0" encoding="utf-8"?>
<svg version="1.1" id="the-about-stage-nav-2" xmlns="http://www.w3.org/2000/svg" xmlns:xlink="http://www.w3.org/1999/xlink" x="0px"
	 y="0px" viewBox="0 0 100 100" style="enable-background:new 0 0 100 100;" xml:space="preserve">
<style type="text/css">
	.st0{fill:#231815;}
	.st1{fill:#97D2CE;}
</style>
<g>
	<circle class="st0" cx="50" cy="50" r="50"/>
	<circle class="st1" cx="50" cy="50" r="46"/>
	<g>
		<path class="st0" d="M49,31.4h-3.6c0.5-0.7,0.9-1.4,1.3-1.9c0,0,0-0.1,0-0.1c0,0,0-0.1-0.1-0.1l-2.4-0.7c-0.1,0-0.1,0-0.1,0.1
			c-0.4,0.8-0.9,1.9-1.5,2.7h-4.4l0.3-0.1c0,0,0.1,0,0.1-0.1c0,0,0-0.1,0-0.1c-0.3-0.7-1-1.7-1.8-2.5c0,0-0.1,0-0.1,0l-2.1,0.7
			c0,0-0.1,0-0.1,0.1c0,0,0,0.1,0,0.1c0.5,0.5,0.9,1.2,1.3,1.9h-3.8c-0.1,0-0.1,0.1-0.1,0.1v2c0,0.1,0.1,0.1,0.1,0.1H49
			c0.1,0,0.1-0.1,0.1-0.1v-2C49.1,31.4,49.1,31.4,49,31.4z"/>
		<path class="st0" d="M40.5,34.7h-7.4c-0.1,0-0.1,0.1-0.1,0.1v11.3c0,0.1,0.1,0.1,0.1,0.1h2.1c0.1,0,0.1-0.1,0.1-0.1v-3.7h2.9V44
			c0,0.2,0,0.2-0.2,0.2c-0.2,0-1,0-1.7,0c0,0-0.1,0-0.1,0.1c0,0,0,0.1,0,0.1c0.3,0.5,0.6,1.3,0.7,1.9c0,0.1,0.1,0.1,0.1,0.1
			c1.1,0,2,0,2.7-0.4c0.7-0.4,0.9-1,0.9-1.9v-9.2C40.6,34.7,40.6,34.7,40.5,34.7z M38.2,39.6v1h-2.9v-1H38.2z M35.3,37.7v-0.9h2.9
			v0.9H35.3z"/>
		<path class="st0" d="M44.3,42.6V35c0-0.1-0.1-0.1-0.1-0.1h-2C42,34.8,42,34.9,42,35v7.6c0,0.1,0.1,0.1,0.1,0.1h2
			C44.2,42.7,44.3,42.7,44.3,42.6z"/>
		<path class="st0" d="M48,34.3h-2.2c-0.1,0-0.1,0.1-0.1,0.1v9.3c0,0.2,0,0.2-0.3,0.2c-0.3,0-1.3,0-2.2,0c0,0-0.1,0-0.1,0.1
			c0,0,0,0.1,0,0.1c0.3,0.6,0.7,1.5,0.8,2.1c0,0.1,0.1,0.1,0.1,0.1c0.1,0,0.3,0,0.4,0c1.2,0,2-0.1,2.7-0.4c0.9-0.4,1-1.1,1-2.1v-9.3
			C48.1,34.4,48.1,34.3,48,34.3z"/>
		<path class="st0" d="M69.1,41.9c-1.8-1.6-3.5-3.4-4.5-4.5c-0.4-0.5-0.9-1.1-1.5-1.7c-0.8-0.9-1.6-1.9-2.4-2.7
			c-0.6-0.6-1.3-0.9-1.9-0.9c0,0-0.1,0-0.1,0c-0.7,0-1.4,0.4-2.1,1.2c-0.5,0.5-1,1.2-1.5,1.8c-0.8,0.9-1.5,1.8-2,2.3c0,0,0,0,0,0
			c-0.5,0.6-1,1-1.5,1.4c0,0,0,0.1,0,0.1s0,0.1,0,0.1l2.2,2.3c0,0,0.1,0,0.1,0c0,0,0.1,0,0.1-0.1c0.1-0.2,0.3-0.4,0.5-0.7
			c0.2-0.4,0.5-0.7,0.7-1.1c0.3-0.4,0.6-0.9,1-1.4c0.6-0.9,1.4-1.9,1.8-2.5c0.3-0.3,0.5-0.5,0.7-0.5c0,0,0,0,0,0
			c0.2,0,0.4,0.1,0.7,0.5c0.5,0.5,1.1,1.3,1.7,2.1c0.6,0.7,1.1,1.4,1.7,2c0.9,1,2.6,3,4.1,4.4c0,0,0.1,0,0.1,0c0,0,0,0,0,0
			c0,0,0.1,0,0.1,0l1.9-2.2C69.2,42,69.2,41.9,69.1,41.9z"/>
	</g>
	<path class="st0" d="M69.9,67.7H32.1c-0.8,0-1.5-0.7-1.5-1.5s0.7-1.5,1.5-1.5h34.2l-3.9-3.9c-0.6-0.6-0.6-1.5,0-2.1s1.5-0.6,2.1,0
		l6.4,6.4c0.4,0.4,0.6,1.1,0.3,1.6S70.5,67.7,69.9,67.7z"/>
</g>
</svg>
