<svg xmlns="http://www.w3.org/2000/svg" xmlns:xlink="http://www.w3.org/1999/xlink" width="268.182" height="171.084" viewBox="0 0 268.182 171.084">
  <defs>
    <clipPath id="clip-path">
      <polygon points="81.211 63.817 71.824 41.503 58.176 43.887 62.236 67.131 81.211 63.817" fill="none"/>
    </clipPath>
    <clipPath id="clip-path-2">
      <polygon points="17.63 74.924 18.896 50.749 32.544 48.365 36.605 71.609 17.63 74.924" fill="none"/>
    </clipPath>
  </defs>
  <g id="レイヤー_2" data-name="レイヤー 2">
    <g id="レイヤー_1-2" data-name="レイヤー 1">
      <g>
        <g>
          <g>
            <g>
              <path d="M20.975,105.352c.477,1.914.975,3.7,1.481,5.377-2.911.509-7.658.468-8.175-4.98s5.492-5.806,5.492-5.806C20.152,101.856,20.554,103.65,20.975,105.352Z" fill="#f4aeb6"/>
              <path d="M87.468,93.736c-.187-1.734-.419-3.566-.72-5.493h.009s5.755-1.707,7.126,3.6c1.368,5.291-3.066,6.935-5.976,7.452Q87.772,96.7,87.468,93.736Z" fill="#f4aeb6"/>
              <path d="M58.571,106.045c.341,1.342-.565,2.663-2.718,3.039s-3.453-.559-3.587-1.938,1.508-9.965,1.508-9.965S58.237,104.692,58.571,106.045Z" fill="#f4aeb6"/>
              <path d="M69.641,88.578A6.721,6.721,0,1,0,72.3,92.845,6.705,6.705,0,0,0,69.641,88.578ZM58.2,122.494a14.705,14.705,0,0,0,3.863-1.208,10.908,10.908,0,0,0,4.278-3.508,8.146,8.146,0,0,0,1.675-5.147,3.815,3.815,0,0,0-.11-.629,2.915,2.915,0,0,0-3.191-2.159l-.542.095-3.971.694-3.962.692-3.962.692-3.962.692-.542.095a2.927,2.927,0,0,0-2.279,3.114,3.84,3.84,0,0,0,.11.629,8.166,8.166,0,0,0,3.329,4.273,10.963,10.963,0,0,0,5.2,1.851A14.764,14.764,0,0,0,58.2,122.5c-2.16,4.407-9.631,8.481-9.631,8.481-11.641-3.38-19.215-16.1-19.75-34.352-.683-23.473,19.9-27.131,20.115-27.168s20.82-3.575,28.144,18.738c5.7,17.369,2.937,31.9-6.923,39.02l-.011-.007s-8.41-1.3-11.944-4.712Zm-2.351-13.41c2.153-.376,3.059-1.7,2.718-3.039s-4.8-8.864-4.8-8.864-1.653,8.579-1.508,9.965S53.7,109.461,55.853,109.084ZM48.075,97.076a6.728,6.728,0,1,0-5.467,7.781A6.729,6.729,0,0,0,48.075,97.076Z" fill="#f4aeb6"/>
              <path d="M58.2,122.5c3.534,3.412,11.944,4.712,11.944,4.712l.011.007a24.733,24.733,0,0,1-10.39,4.239,24.6,24.6,0,0,1-11.2-.477S56.036,126.9,58.2,122.5Z" fill="#231815"/>
              <path d="M57.637,119.3l.559,3.2a14.764,14.764,0,0,1-4.053.175l-.468-2.678Z" fill="#fff"/>
              <path d="M53.675,119.992l.468,2.678a10.963,10.963,0,0,1-5.2-1.851Z" fill="#fff"/>
              <path d="M61.6,118.607l4.746-.829a10.908,10.908,0,0,1-4.278,3.508Z" fill="#fff"/>
              <path d="M61.6,118.607l.468,2.679a14.705,14.705,0,0,1-3.863,1.208H58.2l-.559-3.2Z" fill="#fff"/>
              <rect x="48.575" y="112.337" width="4.022" height="3.314" transform="translate(-18.862 10.406) rotate(-9.909)" fill="#fff"/>
              <rect x="52.537" y="111.645" width="4.022" height="3.314" transform="translate(-18.684 11.077) rotate(-9.909)" fill="#fff"/>
              <path d="M48.32,112.708l.57,3.264-3.281.574a3.84,3.84,0,0,1-.11-.629,2.927,2.927,0,0,1,2.279-3.114Z" fill="#fff"/>
              <rect x="60.461" y="110.26" width="4.031" height="3.314" transform="matrix(0.985, -0.172, 0.172, 0.985, -18.327, 12.421)" fill="#fff"/>
              <rect x="56.499" y="110.953" width="4.022" height="3.314" transform="translate(-18.506 11.749) rotate(-9.909)" fill="#fff"/>
              <path d="M67.91,112a3.815,3.815,0,0,1,.11.629l-3.273.571-.57-3.264.542-.095A2.915,2.915,0,0,1,67.91,112Z" fill="#fff"/>
              <path d="M69.641,88.578A6.722,6.722,0,1,1,64.5,87.372,6.682,6.682,0,0,1,69.641,88.578Zm-.654,4.845a3.371,3.371,0,1,0-2.745,3.9A3.368,3.368,0,0,0,68.987,93.423Z" fill="#fff"/>
              <path d="M35.869,94.478a6.721,6.721,0,1,1-1.05,4.914A6.7,6.7,0,0,1,35.869,94.478Zm8.9,3.176a3.37,3.37,0,1,0-2.737,3.9A3.362,3.362,0,0,0,44.767,97.654Z" fill="#fff"/>
              <path d="M64.747,113.2l3.273-.571a8.146,8.146,0,0,1-1.675,5.147l-4.746.829-3.962.693-3.962.692-4.737.827a8.166,8.166,0,0,1-3.329-4.273l3.281-.574,3.962-.692,3.962-.692,3.962-.692Z" fill="#e84572"/>
              <path d="M66.8,93.805a1.154,1.154,0,1,0-.938,1.336A1.151,1.151,0,0,0,66.8,93.805Zm-1.716-3.117a3.366,3.366,0,1,1-2.737,3.895A3.368,3.368,0,0,1,65.083,90.688Z" fill="#97d2ce"/>
              <path d="M38.127,98.814a3.37,3.37,0,1,1,3.9,2.735A3.369,3.369,0,0,1,38.127,98.814ZM41.253,97.1a1.154,1.154,0,1,0,1.335.939A1.154,1.154,0,0,0,41.253,97.1Z" fill="#97d2ce"/>
              <path d="M37.33,3.155c-.528.43-15.53,12.921-19.2,52.021,0,0-11.5-5.243-17.474-12.027C.656,43.149,23.374,11.469,37.33,3.155Z" fill="#97d2ce"/>
              <path d="M37.365,3.149C53.313,6.239,85.426,28.34,85.426,28.34,82.1,36.749,73.064,45.58,73.064,45.58,56.356,10.039,38.008,3.374,37.365,3.149Z" fill="#97d2ce"/>
              <path d="M51.892,146.265c-1.776,2.991-2.063,8.464-.205,10.208,4.747,4.461,5.125,5.761,3.327,7.966-1.6,1.947-6.378,1.292-10.042-2.559s-2.517-8.818-3.058-13.392a8.462,8.462,0,0,0-1.965-4.592l-.853.5c-7.571,2.033-4.254,6.388-1.93,10.651s1.624,8.787-.214,10.866-5.873,3.671-6.474-3.272-4.323-3.558-8.353-11.49a10.046,10.046,0,0,1,2.565-12.8c7.607-6.4,2.463-12.066-2.234-27.622-.506-1.678-1-3.463-1.481-5.377-.421-1.7-.823-3.5-1.2-5.409a136.288,136.288,0,0,1-2.454-26.8c0-6.534.292-12.5.811-17.965C21.8,16.076,36.8,3.585,37.33,3.155c.009,0,.007-.01.016-.011s.01.007.019,0c.643.225,18.991,6.89,35.7,42.431,2.34,4.961,4.636,10.48,6.855,16.625a138.146,138.146,0,0,1,6.829,26.038c.3,1.927.533,3.759.72,5.493q.3,2.956.439,5.559c.886,15.689-1.826,22.27,7.434,25.685,0,0,10.083,3.253,12.106,8.278,3.729,9.255-3.821,11.408-2.821,17.135s-3.33,6.139-5.122,3.452-2.319-6.368-1.493-10.533c1.312-6.611-5.907-9.575-9.826-8.588a16.209,16.209,0,0,0,1.285,2.021c3.7,5.079,3.494,9.437,2.6,14.875s-4.106,9.265-6.761,8.193-1.025-5.866-.836-9.307a10.153,10.153,0,0,0-5.789-9.462c-3.918-1.748-8.527,1.489-8.527,1.489a7.39,7.39,0,0,1,1.434,4.294c.209,3.23.234,7.9,2.323,9.287a8.529,8.529,0,0,1,3.406,6.9c-.09,2.484-2.747,2.415-2.747,2.415-8.106-1.486-9.256-5.075-11.259-11.507S51.892,146.265,51.892,146.265Zm18.259-19.051c9.86-7.119,12.62-21.651,6.923-39.02C69.75,65.881,49.145,69.418,48.93,69.456s-20.8,3.695-20.115,27.168c.535,18.253,8.109,30.972,19.75,34.352a24.6,24.6,0,0,0,11.2.477A24.733,24.733,0,0,0,70.151,127.214Z" fill="#97d2ce"/>
              <circle cx="65.663" cy="94.004" r="1.154" fill="#231815"/>
              <circle cx="41.451" cy="98.233" r="1.154" fill="#231815"/>
            </g>
            <g>
              <path d="M52.252,166.159a11.416,11.416,0,0,1-7.755-3.827c-2.894-3.039-2.971-6.683-3.047-10.208-.025-1.18-.051-2.4-.188-3.56a7.789,7.789,0,0,0-1.81-4.24,6.576,6.576,0,0,0-1.815-1.51.656.656,0,0,1,.576-1.179,7.755,7.755,0,0,1,2.233,1.834,9.189,9.189,0,0,1,2.119,4.94c.145,1.223.171,2.475.2,3.687.073,3.425.142,6.661,2.685,9.331a9.856,9.856,0,0,0,7,3.416,2.729,2.729,0,0,0,2.059-.82c1.373-1.682,1.6-2.5-3.268-7.073-2.193-2.057-1.777-7.876.09-11.02a4.489,4.489,0,0,1,2.556-2.22.656.656,0,1,1,.351,1.264,3.4,3.4,0,0,0-1.779,1.626c-1.693,2.851-1.866,7.943-.32,9.394,4.582,4.306,5.646,6.089,3.386,8.859a4,4,0,0,1-3.026,1.3C52.415,166.157,52.334,166.159,52.252,166.159Z" fill="#231815"/>
              <path d="M74.635,166.082h-.081a.678.678,0,0,1-.1-.011c-8.532-1.564-9.749-5.476-11.767-11.957-1.862-5.956-10.788-7.185-10.878-7.2a.656.656,0,0,1,.168-1.3c.4.052,9.849,1.347,11.962,8.109,1.993,6.4,3,9.62,10.695,11.046a1.886,1.886,0,0,0,2.029-1.782,7.91,7.91,0,0,0-3.115-6.328c-2.141-1.427-2.368-5.477-2.551-8.731-.02-.365-.04-.72-.062-1.058a6.752,6.752,0,0,0-1.292-3.928,7.33,7.33,0,0,0-2.818-2.036.656.656,0,0,1,.541-1.2,8.609,8.609,0,0,1,3.3,2.415,7.994,7.994,0,0,1,1.574,4.66c.022.343.042.7.063,1.069.158,2.807.373,6.651,1.97,7.714a9.215,9.215,0,0,1,3.7,7.469A3.146,3.146,0,0,1,74.635,166.082Z" fill="#231815"/>
              <path d="M86.232,160.65a3.107,3.107,0,0,1-1.171-.229c-2.47-1-1.987-4.324-1.561-7.26.139-.957.271-1.862.316-2.691a9.562,9.562,0,0,0-5.4-8.827c-3.526-1.573-7.84,1.4-7.884,1.428A.656.656,0,0,1,69.778,142c.2-.141,4.962-3.429,9.171-1.552a10.784,10.784,0,0,1,6.177,10.1c-.049.888-.19,1.864-.327,2.807-.374,2.578-.761,5.244.754,5.855A2.077,2.077,0,0,0,87.408,159c1.829-1.026,3.441-4.033,4.013-7.482.836-5.072,1.184-9.351-2.481-14.381a16.832,16.832,0,0,1-1.338-2.106c-2.073-3.917-.009-5.148.08-5.2a.656.656,0,0,1,.648,1.14c-.339.234-.717,1.275.434,3.45A15.756,15.756,0,0,0,90,136.36c3.958,5.431,3.571,10.172,2.716,15.367-.644,3.881-2.475,7.183-4.665,8.412A3.712,3.712,0,0,1,86.232,160.65Z" fill="#231815"/>
              <path d="M55.033,132.53a23.739,23.739,0,0,1-6.652-.924C36.257,128.085,28.7,115.015,28.159,96.644c-.7-23.871,20.446-27.8,20.66-27.834S70.257,65.323,77.7,87.989c5.743,17.51,3.066,32.372-7.162,39.757A25.393,25.393,0,0,1,59.873,132.1,28.1,28.1,0,0,1,55.033,132.53ZM52.409,69.861a20.757,20.757,0,0,0-3.365.241,26.14,26.14,0,0,0-10.112,4.673c-6.555,4.965-9.739,12.31-9.462,21.83.521,17.773,7.728,30.387,19.278,33.742h0a24,24,0,0,0,10.9.459,24.077,24.077,0,0,0,10.117-4.123c9.743-7.033,12.242-21.345,6.685-38.285C71.054,71.959,58.476,69.861,52.409,69.861Z" fill="#231815"/>
              <path d="M20.231,111.587a7.126,7.126,0,0,1-4.374-1.266,6.112,6.112,0,0,1-2.229-4.51,5.5,5.5,0,0,1,1.208-4.26,7.653,7.653,0,0,1,4.9-2.262.656.656,0,0,1,.077,1.309,6.418,6.418,0,0,0-3.985,1.814,4.24,4.24,0,0,0-.893,3.276,4.862,4.862,0,0,0,1.719,3.59c1.587,1.21,3.97,1.107,5.69.8a.665.665,0,0,1,.761.518.653.653,0,0,1-.5.767A13.9,13.9,0,0,1,20.231,111.587Z" fill="#231815"/>
              <path d="M17.943,106.538a.656.656,0,0,1-.112-1.3l3.031-.53a.663.663,0,0,1,.761.518.653.653,0,0,1-.5.768l-3.07.537A.73.73,0,0,1,17.943,106.538Z" fill="#231815"/>
              <path d="M88.022,99.941l-.141-.641-.1-.649c1.726-.307,4-1.022,5.074-2.693a4.855,4.855,0,0,0,.389-3.951,4.243,4.243,0,0,0-1.958-2.786,6.351,6.351,0,0,0-4.347-.35.657.657,0,0,1-.373-1.259,7.65,7.65,0,0,1,5.367.467,5.5,5.5,0,0,1,2.581,3.6,6.1,6.1,0,0,1-.555,4.988C92.634,98.737,90,99.59,88.022,99.941Z" fill="#231815"/>
              <path d="M87.467,94.392a.662.662,0,0,1-.653-.538.649.649,0,0,1,.518-.76l3.038-.531a.656.656,0,0,1,.226,1.292l-3.015.527A.731.731,0,0,1,87.467,94.392Z" fill="#231815"/>
              <path d="M54.928,109.825a3.617,3.617,0,0,1-2.248-.68,2.731,2.731,0,0,1-1.067-1.935c-.15-1.437,1.345-9.265,1.516-10.153a.656.656,0,0,1,1.208-.211c.462.777,4.523,7.635,4.87,9.041a2.73,2.73,0,0,1-.349,2.179,4.063,4.063,0,0,1-2.892,1.665h0A6.035,6.035,0,0,1,54.928,109.825Zm-.833-10.8a66.77,66.77,0,0,0-1.177,8.056,1.423,1.423,0,0,0,.557,1.023,2.933,2.933,0,0,0,2.265.337h0a2.935,2.935,0,0,0,2.017-1.085,1.42,1.42,0,0,0,.178-1.147A66.592,66.592,0,0,0,54.1,99.022Z" fill="#231815"/>
              <path d="M55.492,123.394a13.978,13.978,0,0,1-1.415-.071,11.572,11.572,0,0,1-5.512-1.964,8.8,8.8,0,0,1-3.589-4.642,4.445,4.445,0,0,1-.131-.746,3.54,3.54,0,0,1,2.8-3.809L64.607,109.2a3.534,3.534,0,0,1,3.936,2.631,4.626,4.626,0,0,1,.13.739,8.812,8.812,0,0,1-1.8,5.594,11.505,11.505,0,0,1-4.528,3.717,15.494,15.494,0,0,1-4.033,1.262h-.008A16.417,16.417,0,0,1,55.492,123.394Zm9.57-12.914a2.075,2.075,0,0,0-.258.014L47.891,113.45a2.232,2.232,0,0,0-1.738,2.418,3.209,3.209,0,0,0,.092.516,7.506,7.506,0,0,0,3.063,3.894,10.292,10.292,0,0,0,4.9,1.74,14.149,14.149,0,0,0,3.875-.17l.015,0h.008a14.2,14.2,0,0,0,3.678-1.15,10.225,10.225,0,0,0,4.026-3.3,7.472,7.472,0,0,0,1.557-4.711,3.288,3.288,0,0,0-.09-.515A2.176,2.176,0,0,0,65.062,110.48Z" fill="#231815"/>
              <path d="M45.722,117.192,45.5,115.9h.009l22.394-3.913a.668.668,0,0,1,.767.529.649.649,0,0,1-.517.76Z" fill="#231815"/>
              <path d="M56.814,115.244a.656.656,0,0,1-.646-.543l-.57-3.264a.656.656,0,1,1,1.292-.226l.571,3.264a.656.656,0,0,1-.534.759A.624.624,0,0,1,56.814,115.244Z" fill="#231815"/>
              <path d="M52.852,115.937a.657.657,0,0,1-.646-.544l-.57-3.264a.656.656,0,1,1,1.292-.226l.571,3.265a.657.657,0,0,1-.534.759A.73.73,0,0,1,52.852,115.937Z" fill="#231815"/>
              <path d="M48.89,116.628a.656.656,0,0,1-.646-.543l-.57-3.264a.656.656,0,1,1,1.292-.225l.571,3.264a.657.657,0,0,1-.534.759A.727.727,0,0,1,48.89,116.628Z" fill="#231815"/>
              <path d="M60.776,114.552a.656.656,0,0,1-.646-.543l-.57-3.264a.656.656,0,0,1,1.293-.226l.57,3.264a.656.656,0,0,1-.534.759A.624.624,0,0,1,60.776,114.552Z" fill="#231815"/>
              <path d="M58.2,123.151a.655.655,0,0,1-.645-.543l-.559-3.2a.656.656,0,1,1,1.293-.225l.558,3.2a.656.656,0,0,1-.533.759A.635.635,0,0,1,58.2,123.151Z" fill="#231815"/>
              <path d="M54.143,123.326a.656.656,0,0,1-.646-.543l-.468-2.678a.656.656,0,1,1,1.293-.226l.468,2.679a.657.657,0,0,1-.534.759A.727.727,0,0,1,54.143,123.326Z" fill="#231815"/>
              <path d="M62.067,121.942a.656.656,0,0,1-.646-.543l-.468-2.679a.656.656,0,0,1,1.293-.225l.468,2.678a.656.656,0,0,1-.534.759A.624.624,0,0,1,62.067,121.942Z" fill="#231815"/>
              <path d="M64.746,113.858a.656.656,0,0,1-.645-.543l-.57-3.264a.656.656,0,1,1,1.292-.226l.57,3.265a.656.656,0,0,1-.533.759A.73.73,0,0,1,64.746,113.858Z" fill="#231815"/>
              <path d="M48.938,121.476a.656.656,0,0,1-.113-1.3l17.407-3.041a.656.656,0,0,1,.226,1.293l-17.407,3.041A.73.73,0,0,1,48.938,121.476Z" fill="#231815"/>
              <path d="M48.565,131.632a.656.656,0,0,1-.315-1.232c.073-.039,7.315-4.027,9.357-8.194a.656.656,0,1,1,1.178.578c-2.226,4.542-9.594,8.6-9.906,8.768A.649.649,0,0,1,48.565,131.632Z" fill="#231815"/>
              <path d="M70.141,127.863a.7.7,0,0,1-.1-.007c-.352-.055-8.658-1.373-12.3-4.889a.656.656,0,0,1,.911-.944c3.346,3.23,11.507,4.523,11.59,4.536a.656.656,0,0,1-.1,1.3Z" fill="#231815"/>
              <path d="M41.433,105.615a7.407,7.407,0,1,1,1.288-.112A7.5,7.5,0,0,1,41.433,105.615Zm.028-13.46a6.18,6.18,0,0,0-1.055.092,6.089,6.089,0,0,0-4.941,7.032,6.072,6.072,0,1,0,11.963-2.09h0a6.075,6.075,0,0,0-5.967-5.034Z" fill="#231815"/>
              <path d="M41.438,102.257a4.052,4.052,0,1,1,.7-.062A4.1,4.1,0,0,1,41.438,102.257Zm.014-6.735a2.755,2.755,0,0,0-.467.041A2.719,2.719,0,0,0,38.773,98.7a2.714,2.714,0,1,0,5.348-.934A2.716,2.716,0,0,0,41.452,95.522Z" fill="#231815"/>
              <path d="M38.321,92.753a.655.655,0,0,1-.576-.341l-1.238-2.26a.656.656,0,1,1,1.15-.63l1.238,2.26a.656.656,0,0,1-.574.971Z" fill="#231815"/>
              <path d="M35.5,95.023,33.165,93.41a.656.656,0,0,1,.745-1.08l2.331,1.607Z" fill="#231815"/>
              <path d="M42.878,92.214a.584.584,0,0,1-.1-.008.654.654,0,0,1-.547-.748l.4-2.555a.656.656,0,1,1,1.3.2l-.4,2.555A.655.655,0,0,1,42.878,92.214Z" fill="#231815"/>
              <path d="M45.982,93.633a.656.656,0,0,1-.534-1.036L47.1,90.275a.656.656,0,1,1,1.069.761l-1.654,2.322A.654.654,0,0,1,45.982,93.633Z" fill="#231815"/>
              <path d="M65.659,101.384a7.392,7.392,0,0,1-7.266-6.111h0a7.374,7.374,0,1,1,7.266,6.111Zm-5.974-6.336a6.072,6.072,0,1,0,9.569-5.94,6.068,6.068,0,0,0-9.569,5.94Z" fill="#231815"/>
              <path d="M65.651,98.027A4.02,4.02,0,0,1,61.7,94.7h0a4.027,4.027,0,1,1,4.655,3.27A4.091,4.091,0,0,1,65.651,98.027ZM62.993,94.47a2.714,2.714,0,0,0,5.348-.934,2.714,2.714,0,0,0-5.348.934Z" fill="#231815"/>
              <path d="M66.529,87.825a.6.6,0,0,1-.1-.008.655.655,0,0,1-.546-.749l.4-2.546a.656.656,0,1,1,1.3.2l-.4,2.546A.656.656,0,0,1,66.529,87.825Z" fill="#231815"/>
              <path d="M69.633,89.237a.642.642,0,0,1-.375-.119.65.65,0,0,1-.161-.907l1.658-2.317a.656.656,0,1,1,1.067.763l-1.648,2.3A.666.666,0,0,1,69.633,89.237Z" fill="#231815"/>
              <path d="M62.059,88.863a.656.656,0,0,1-.576-.342l-1.24-2.268a.656.656,0,1,1,1.151-.629l1.24,2.268a.656.656,0,0,1-.575.971Z" fill="#231815"/>
              <path d="M59.617,91.251a.659.659,0,0,1-.373-.116L56.9,89.511a.656.656,0,1,1,.747-1.079l2.343,1.624a.656.656,0,0,1-.374,1.2Z" fill="#231815"/>
              <path d="M57.433,80.174a.656.656,0,0,1-.646-.543c-.293-1.683-.07-4.657,2.629-5.129a3.209,3.209,0,0,1,3.435,1.785,7.116,7.116,0,0,1,.784,2.148.656.656,0,1,1-1.292.225,5.865,5.865,0,0,0-.627-1.715,1.908,1.908,0,0,0-2.075-1.15c-2.1.367-1.584,3.478-1.561,3.61a.656.656,0,0,1-.534.759A.624.624,0,0,1,57.433,80.174Z" fill="#231815"/>
              <path d="M38.656,83.454a.655.655,0,0,1-.645-.543c-.294-1.683-.07-4.657,2.628-5.129s3.924,2.25,4.22,3.932a.656.656,0,1,1-1.292.227c-.024-.132-.589-3.235-2.7-2.866s-1.585,3.478-1.562,3.61a.655.655,0,0,1-.533.759A.627.627,0,0,1,38.656,83.454Z" fill="#231815"/>
              <path d="M18.13,55.832a.657.657,0,0,1-.272-.059C17.383,55.557,6.166,50.394.164,43.582a.656.656,0,0,1-.041-.816C.18,42.687,5.9,34.725,13.254,25.851,23.141,13.92,31.121,6.1,36.971,2.605a.666.666,0,0,1,.23-.1.656.656,0,0,1,.525,1.175.617.617,0,0,1-.06.039h0C24.862,11.346,4.267,39.3,1.5,43.1c5.91,6.417,16.792,11.424,16.9,11.475a.656.656,0,0,1-.273,1.253Z" fill="#231815"/>
              <path d="M73.064,46.236a.656.656,0,0,1-.458-1.125c.088-.086,8.63-8.491,12.012-16.527C80.724,25.943,51.871,6.628,37.24,3.793h0c-.025-.005-.049-.011-.073-.018A.656.656,0,0,1,37.25,2.5a.678.678,0,0,1,.269.016c6.689,1.3,16.846,5.956,30.19,13.827C77.636,22.194,85.717,27.744,85.8,27.8a.657.657,0,0,1,.238.782C82.7,37.023,73.9,45.684,73.523,46.049A.654.654,0,0,1,73.064,46.236Z" fill="#231815"/>
            </g>
          </g>
          <g clip-path="url(#clip-path)">
            <circle cx="75.631" cy="53.2" r="9.217" fill="#fff"/>
            <circle cx="75.631" cy="53.2" r="6.21" fill="#97d2ce"/>
            <path d="M75.61,63.076a9.879,9.879,0,0,1-9.7-8.177h0A9.874,9.874,0,1,1,77.33,62.926,10.019,10.019,0,0,1,75.61,63.076Zm-8.412-8.4a8.561,8.561,0,1,0,6.96-9.907,8.5,8.5,0,0,0-6.96,9.907Z" fill="#231815"/>
            <path d="M75.628,60.067a6.877,6.877,0,0,1-6.76-5.685h0a6.862,6.862,0,1,1,6.76,5.685ZM70.16,54.156a5.554,5.554,0,1,0,4.516-6.427,5.559,5.559,0,0,0-4.516,6.427Z" fill="#231815"/>
            <circle cx="75.631" cy="53.2" r="2.923" fill="#231815"/>
          </g>
          <g>
            <path d="M40.645,23.71l.04.355q.351-.116.7-.2t.69-.145a4.417,4.417,0,0,1,2.867.272,2.586,2.586,0,0,1,1.332,1.966,2.811,2.811,0,0,1-.673,2.427,4.061,4.061,0,0,1-2.468,1.33.518.518,0,0,1-.385-.061,3.262,3.262,0,0,1-.357-.283c-.08-.077-.171-.156-.272-.237s-.217-.166-.347-.254a4.212,4.212,0,0,1-.465.356,1.081,1.081,0,0,1-.377.164.313.313,0,0,1-.242-.052.876.876,0,0,1-.223-.26,3.842,3.842,0,0,1-.75.521,2.713,2.713,0,0,1-.793.272.941.941,0,0,1-1.316-.893c-.061-.053-.12-.105-.175-.156s-.109-.1-.163-.158c-.174-.168-.319-.317-.437-.447a.836.836,0,0,1-.213-.416,1.935,1.935,0,0,1,.459-1.466,5.6,5.6,0,0,1,1.841-1.5l-.107-.611-1.4.395a2.256,2.256,0,0,1-.929.021.5.5,0,0,1-.382-.406.657.657,0,0,1,.014-.257,1.828,1.828,0,0,1,.112-.325q.084-.19.2-.408t.267-.49a1.089,1.089,0,0,0,.28.067,1.044,1.044,0,0,0,.285-.009.473.473,0,0,0,.074-.019c.025-.007.048-.012.069-.016l1.1-.288a.706.706,0,0,0-.244-.413.854.854,0,0,0-.49-.139c.159-.165.309-.315.448-.449s.269-.252.388-.357a3.414,3.414,0,0,1,.317-.235.829.829,0,0,1,.293-.118,1.661,1.661,0,0,1,.941.113c.3.128.47.275.5.441a.556.556,0,0,1-.033.243c-.032.1-.067.236-.105.4l1.27-.328a1.441,1.441,0,0,0,.519-.2,1.083,1.083,0,0,0,.337-.359,4.141,4.141,0,0,1,1.546.3,1.059,1.059,0,0,1,.636.785.658.658,0,0,1-.147.585,1.106,1.106,0,0,1-.651.311,2.551,2.551,0,0,1-.483.03q-.273,0-.6-.038Zm-.985,3.864c-.085-.19-.163-.385-.233-.587s-.135-.407-.194-.618a3.881,3.881,0,0,0-.82.9.967.967,0,0,0-.2.64.238.238,0,0,0,.132.186.521.521,0,0,0,.309.019,1.467,1.467,0,0,0,.4-.166A7.015,7.015,0,0,0,39.66,27.574ZM41.734,25.4l-.1-.255c-.138.037-.267.076-.388.115s-.235.083-.342.128a4.683,4.683,0,0,0,.113.484q.07.244.172.509a2.65,2.65,0,0,0,.247-.288,2.5,2.5,0,0,0,.222-.363.664.664,0,0,0,.07-.171A.39.39,0,0,0,41.734,25.4Zm.13,2.3.177.282.227-.019c.078-.007.155-.018.23-.031a2.24,2.24,0,0,0,1.34-.672,1.335,1.335,0,0,0,.348-1.169,1.114,1.114,0,0,0-.489-.751,2.009,2.009,0,0,0-1.094-.3,3.5,3.5,0,0,1,.337.385.822.822,0,0,1,.158.35,1.186,1.186,0,0,1-.262.851A6.55,6.55,0,0,1,41.864,27.7Z" fill="#231815"/>
            <path d="M39.672,32.856l-.066-.381a.962.962,0,0,0-.15-.431c-.063-.071-.2-.077-.417-.02a4.573,4.573,0,0,1,.677-.888,1.272,1.272,0,0,1,.681-.392,2.108,2.108,0,0,1,1.034.072q.47.144.508.365a.8.8,0,0,1-.058.351,2.02,2.02,0,0,0-.085.58,3.558,3.558,0,0,0,.6-.3.658.658,0,0,0,.266-.323,8.121,8.121,0,0,1,1.239.1.669.669,0,0,1,.557.613.727.727,0,0,1-.124.565,1.479,1.479,0,0,1-.576.449c-.34.173-.68.332-1.019.474s-.677.275-1.011.394a30.683,30.683,0,0,1-.412,4.727q-.309,1.255-1.186,1.41a.7.7,0,0,1-.641-.2,1.6,1.6,0,0,1-.4-.923l-.177-1.012q.289-.16.48-.97a18.418,18.418,0,0,0,.294-2.354l-.9.224a1.624,1.624,0,0,1-.84-.039.508.508,0,0,1-.35-.383.879.879,0,0,1,.083-.462c.076-.189.183-.422.319-.7q.045-.123.108-.258c.041-.089.087-.184.136-.282a.389.389,0,0,0,.227.234.855.855,0,0,0,.409.006Zm6.494,2.028-.47.1a3.57,3.57,0,0,0-1.4.854c-.345.355-.495.661-.451.915q.041.23.406.322a2.511,2.511,0,0,0,1.014-.012,5.667,5.667,0,0,0,.905-.223,1.448,1.448,0,0,0,.475-.264,2.632,2.632,0,0,1,1.286.211.984.984,0,0,1,.562.736.841.841,0,0,1-.447.909,4.624,4.624,0,0,1-1.7.547,4.728,4.728,0,0,1-2.424-.084,1.508,1.508,0,0,1-1.038-1.18,2.15,2.15,0,0,1,.4-1.613,5.341,5.341,0,0,1,1.771-1.521,1.314,1.314,0,0,0-.525-.193,2.127,2.127,0,0,0-.643.024,3.8,3.8,0,0,0-.664.185,6.814,6.814,0,0,0-.713.318A7.1,7.1,0,0,1,43.927,33.4a3.383,3.383,0,0,1,1.482-.687,2.468,2.468,0,0,1,1.491.13,1.2,1.2,0,0,1,.719.924.908.908,0,0,1-.123.7.868.868,0,0,1-.593.352,2.193,2.193,0,0,1-.317.028A2.844,2.844,0,0,0,46.166,34.884Z" fill="#231815"/>
            <path d="M44.07,45.062l.186.814a1.019,1.019,0,0,1-.15.81,1.033,1.033,0,0,1-.688.4,1.63,1.63,0,0,1-1.293-.363,2.1,2.1,0,0,1-.793-1.377,5.538,5.538,0,0,1,.116-1.88,3.42,3.42,0,0,0,.108-1.067.532.532,0,0,0-.2-.345.7.7,0,0,0-.43-.124,4.448,4.448,0,0,1,.68-.592,1.6,1.6,0,0,1,.612-.274,1.229,1.229,0,0,1,.893.2,1.1,1.1,0,0,1,.523.752,1.2,1.2,0,0,1-.051.646,5.184,5.184,0,0,1-.293.624q-.121.227-.214.414c-.061.125-.113.235-.156.329a1.517,1.517,0,0,0-.09.281.636.636,0,0,0-.005.225.489.489,0,0,0,.166.3.311.311,0,0,0,.252.092.337.337,0,0,0,.2-.132,1.01,1.01,0,0,0,.165-.344,5.924,5.924,0,0,1,.973-2.119,2.348,2.348,0,0,1,1.447-.9,1.713,1.713,0,0,1,1.645.649,5.052,5.052,0,0,1,1.062,2.549,4.258,4.258,0,0,1-.622,3.452,4.518,4.518,0,0,1-2.946,1.64,2.273,2.273,0,0,1-.833.032,1.321,1.321,0,0,1-.594-.382.178.178,0,0,1-.046-.045.428.428,0,0,0-.049-.055c-.087-.095-.209-.217-.366-.364a2.839,2.839,0,0,0-.685-.44q.337-.008.624-.033c.192-.016.365-.038.519-.065a3.818,3.818,0,0,0,2.337-1.157,3.03,3.03,0,0,0,.452-2.579,4.127,4.127,0,0,0-.508-1.543.712.712,0,0,0-.731-.367,1.262,1.262,0,0,0-.793.542,2.394,2.394,0,0,0-.449,1.212c0,.1-.005.206,0,.306A1.885,1.885,0,0,0,44.07,45.062Z" fill="#231815"/>
            <path d="M41.6,53.467l-.257.086a2.316,2.316,0,0,1,.526-1.057,1.457,1.457,0,0,1,.822-.478.845.845,0,0,1,.731.214,2.961,2.961,0,0,1,.606.927,4.553,4.553,0,0,1,.593-.368q.314-.163.66-.3a1.193,1.193,0,0,0-.265-.679.654.654,0,0,0-.618-.088,4.068,4.068,0,0,1,.743-.831,1.616,1.616,0,0,1,.741-.365,1.184,1.184,0,0,1,.819.128.921.921,0,0,1,.45.683l.085.613a3.936,3.936,0,0,1,2.791.634,3.552,3.552,0,0,1,1.395,2.388,3.681,3.681,0,0,1-.132,1.917,3.8,3.8,0,0,1-1.11,1.56,4.466,4.466,0,0,1-2.033,1,1.371,1.371,0,0,1-.739-.035A1,1,0,0,1,46.933,59a.222.222,0,0,1-.044-.058l-.034-.07a3.2,3.2,0,0,0-.212-.335,1.269,1.269,0,0,0-.419-.351,4.808,4.808,0,0,1-.957,1.034,2.161,2.161,0,0,1-.892.423,1.145,1.145,0,0,1-.6-.043,1.109,1.109,0,0,1-.479-.358,1.594,1.594,0,0,1-.2-.364,1.97,1.97,0,0,0-.309-.483,4.963,4.963,0,0,1-.841-.649,1.252,1.252,0,0,1-.363-.646,2.348,2.348,0,0,1,.163-1.228,5.364,5.364,0,0,1,.895-1.456,4.959,4.959,0,0,0-.531-.753A.574.574,0,0,0,41.6,53.467Zm1.887,2.159a2.18,2.18,0,0,0-.3.737,2.078,2.078,0,0,0-.006.746,1.159,1.159,0,0,0,.3.633.531.531,0,0,0,.441.17.663.663,0,0,0,.345-.277,4.439,4.439,0,0,0,.442-.748,5.074,5.074,0,0,1-.649-.564A5.856,5.856,0,0,1,43.489,55.626Zm1.976-1.655a3.862,3.862,0,0,0-.431.2c-.138.077-.28.157-.424.242a3.963,3.963,0,0,0,.369.571,2.535,2.535,0,0,0,.422.425q.045-.375.068-.737A5.015,5.015,0,0,0,45.465,53.971Zm1.142,3.614-.15.252.495-.086a3.133,3.133,0,0,0,1.925-.933,2.061,2.061,0,0,0-.246-2.838,2.047,2.047,0,0,0-1.3-.479A11.745,11.745,0,0,1,47.31,55a9.675,9.675,0,0,1-.182,1.281,1.231,1.231,0,0,1,.206.034.105.105,0,0,1,.077.088,1.241,1.241,0,0,1-.135.789q-.185.375-.394.411Z" fill="#231815"/>
          </g>
          <path d="M102.229,156.1a4.05,4.05,0,0,1-3.27-1.891c-1.906-2.851-2.456-6.663-1.592-11.024a5.914,5.914,0,0,0-1.725-5.711,8.517,8.517,0,0,0-7.3-2.114.656.656,0,1,1-.321-1.272,9.786,9.786,0,0,1,8.522,2.436,7.168,7.168,0,0,1,2.108,6.916c-.784,3.955-.288,7.521,1.4,10.04a2.492,2.492,0,0,0,2.8,1.191c1.085-.434,1.506-1.99,1.126-4.165-.449-2.574.684-4.517,1.78-6.4,1.556-2.668,3.165-5.427,1.078-10.605-1.884-4.682-11.6-7.868-11.7-7.9-7.594-2.8-7.617-7.807-7.659-16.9-.012-2.72-.026-5.8-.228-9.375-.089-1.713-.236-3.572-.436-5.53-.209-1.924-.443-3.71-.716-5.457a137.306,137.306,0,0,0-6.8-25.917c-2.131-5.9-4.429-11.479-6.83-16.568C55.93,10.676,37.907,4.034,37.148,3.769a.656.656,0,1,1,.433-1.239c.781.273,19.305,7.1,36.077,42.771,2.418,5.125,4.732,10.739,6.878,16.681A138.708,138.708,0,0,1,87.4,88.144c.276,1.765.512,3.572.724,5.521.2,1.983.351,3.865.441,5.6.2,3.6.218,6.7.23,9.439.042,9.055.061,13.188,6.776,15.664.4.128,10.374,3.4,12.487,8.65,2.327,5.774.474,8.952-1.162,11.757-1.066,1.829-1.988,3.408-1.621,5.51.495,2.83-.227,4.927-1.931,5.609A2.984,2.984,0,0,1,102.229,156.1Z" fill="#231815"/>
          <g clip-path="url(#clip-path-2)">
            <circle cx="19.28" cy="63.044" r="9.217" fill="#fff"/>
            <circle cx="19.28" cy="63.044" r="6.21" fill="#97d2ce"/>
            <path d="M19.275,72.919a9.877,9.877,0,1,1,1.7-.148A9.89,9.89,0,0,1,19.275,72.919ZM19.3,54.481a8.668,8.668,0,0,0-1.492.13,8.561,8.561,0,1,0,9.907,6.96h0a8.566,8.566,0,0,0-8.415-7.09Z" fill="#231815"/>
            <path d="M19.277,69.911a6.867,6.867,0,1,1,6.766-8.049h0a6.869,6.869,0,0,1-6.766,8.049Zm.015-12.422a5.66,5.66,0,0,0-.968.084,5.554,5.554,0,1,0,6.427,4.515h0a5.557,5.557,0,0,0-5.459-4.6Z" fill="#231815"/>
            <circle cx="19.28" cy="63.044" r="2.923" fill="#231815"/>
          </g>
          <path d="M33.628,168.351a2.962,2.962,0,0,1-.93-.145c-1.637-.538-2.6-2.39-2.873-5.5-.29-3.348-1.255-3.99-2.853-5.053a14.086,14.086,0,0,1-5.432-6.2,10.77,10.77,0,0,1,2.76-13.628c5.422-4.561,3.966-8.565.778-17.338-1-2.749-2.132-5.865-3.25-9.567-.551-1.826-1.038-3.6-1.489-5.409-.438-1.765-.844-3.595-1.209-5.439a136.67,136.67,0,0,1-2.467-26.93c0-6.317.277-12.382.814-18.027C21.16,15.878,36.275,3.168,36.916,2.646a.656.656,0,1,1,.828,1.018c-.624.508-15.329,12.879-18.961,51.574-.533,5.605-.8,11.628-.808,17.9a135.311,135.311,0,0,0,2.442,26.673c.361,1.825.763,3.634,1.195,5.379.446,1.791.928,3.54,1.472,5.346,1.108,3.667,2.233,6.765,3.227,9.5,3.2,8.795,4.957,13.64-1.2,18.817a9.335,9.335,0,0,0-2.4,12,12.931,12.931,0,0,0,4.988,5.7c1.726,1.149,3.09,2.056,3.434,6.033.213,2.469.915,4.022,1.976,4.37,1.094.362,2.5-.513,3.352-1.475,1.7-1.921,2.321-6.119.131-10.118-.207-.379-.421-.758-.634-1.136-1.4-2.469-2.837-5.021-1.922-7.2.619-1.477,2.219-2.543,4.891-3.26a.656.656,0,0,1,.34,1.267c-2.223.6-3.576,1.437-4.021,2.5-.667,1.59.558,3.756,1.854,6.051.217.383.434.768.643,1.152,2.477,4.524,1.7,9.361-.3,11.614A5.508,5.508,0,0,1,33.628,168.351Z" fill="#231815"/>
        </g>
        <g>
          <polygon points="251.306 10.242 213.742 0.656 177.673 9.782 159.957 50.633 162.572 103.157 149.202 108.679 140.55 96.412 113.791 113.669 138.083 109.555 146.191 123.175 163.304 117.853 164.386 139.595 199.811 170.428 241.651 161.141 264.247 135.14 267.527 50.173 251.306 10.242" fill="#fff"/>
          <path d="M199.811,171.084a.654.654,0,0,1-.43-.161L163.956,140.09a.655.655,0,0,1-.225-.462l-1.04-20.9-16.306,5.07a.657.657,0,0,1-.758-.291l-7.877-13.233-23.85,4.039a.656.656,0,0,1-.465-1.2L140.2,95.86a.658.658,0,0,1,.892.174l8.349,11.839,12.458-5.146L159.3,50.665a.655.655,0,0,1,.053-.293L177.071,9.521a.654.654,0,0,1,.441-.375L213.581.02a.654.654,0,0,1,.323,0l37.564,9.585a.655.655,0,0,1,.445.389l16.221,39.932a.642.642,0,0,1,.048.271l-3.28,84.967a.654.654,0,0,1-.16.405l-22.6,26a.661.661,0,0,1-.353.211l-41.839,9.287A.688.688,0,0,1,199.811,171.084Zm-34.783-31.8,34.964,30.432,41.306-9.168,22.3-25.664,3.265-84.595L250.823,10.8,213.741,1.333l-35.6,9.006L160.62,50.753l2.607,52.371a.655.655,0,0,1-.4.639l-13.37,5.522a.655.655,0,0,1-.787-.228L140.377,97.3l-23.546,15.185,21.143-3.581a.665.665,0,0,1,.673.311l7.843,13.175,16.619-5.167a.656.656,0,0,1,.85.594Z" fill="#231815"/>
        </g>
        <g>
          <path d="M235.762,43.248a12.516,12.516,0,0,0,4.554,3.425,7.415,7.415,0,0,0-1.181,1.391,14.074,14.074,0,0,1-4.226-3.674v4.3h-1.667V44.5a14.18,14.18,0,0,1-4.212,3.648,7.7,7.7,0,0,0-1.155-1.378,13.088,13.088,0,0,0,4.606-3.517h-3.517V41.712h4.278V39.993h-4.869V38.432h4.869v-2h1.667v2h4.973v1.561h-4.973v1.719h4.37v1.536Z"/>
          <path d="M239.607,59.124a22.058,22.058,0,0,1-2.415,1.483,8.681,8.681,0,0,0,3.058,1.129,6.9,6.9,0,0,0-.984,1.4,7.713,7.713,0,0,1-5.8-4.725h-1.509V61.2c.919-.131,1.89-.275,2.835-.42l.066,1.378c-2.008.328-4.174.657-5.762.893l-.354-1.431c.472-.052,1.01-.131,1.6-.2V58.415h-2.165V57.037h2.178V51.316h8.281v1.272h-6.68v.7h6.313v1.207h-6.313v.657h6.313v1.207h-6.313v.682H240v1.378h-1.4Zm-4.515-.709a6.23,6.23,0,0,0,1.038,1.365,18.263,18.263,0,0,0,2.007-1.365Z"/>
          <path d="M230.88,67.638c-.013.813,0,1.772.079,2.69.184,1.824.551,3.071,1.352,3.071.617,0,1.115-1.483,1.338-2.493l1.3,1.548c-.852,2.218-1.64,2.992-2.677,2.992-1.378,0-2.6-1.247-2.966-4.672-.117-1.167-.144-2.651-.144-3.438a8.838,8.838,0,0,0-.079-1.286l1.956.027A9.836,9.836,0,0,0,230.88,67.638Zm8.832,5.223-1.68.643c-.2-2.06-.866-5.039-2.257-6.614l1.614-.538A13.788,13.788,0,0,1,239.712,72.861Z"/>
          <path d="M231.287,84.813a5.167,5.167,0,0,0-.21,1.287c0,.8.761,1.4,2.6,1.4a17.707,17.707,0,0,0,4.475-.512l.014,1.811a20.9,20.9,0,0,1-4.423.42c-2.926,0-4.37-.971-4.37-2.716a8.145,8.145,0,0,1,.236-1.838Zm6.444-6.745c.328.473.773,1.287,1.023,1.759l-1.037.446c-.105-.21-.223-.446-.354-.7v1.536c-.893.065-2.467.157-3.674.157-1.339,0-2.441-.065-3.478-.144V79.42a32.462,32.462,0,0,0,3.464.157c1.221,0,2.612-.078,3.6-.17a8.127,8.127,0,0,0-.564-.919Zm1.522-.577a19.641,19.641,0,0,1,1.036,1.745l-1.023.447a14.784,14.784,0,0,0-1.024-1.772Z"/>
          <path d="M237.848,100.506a6.579,6.579,0,0,1-2.073,2.008,22.94,22.94,0,0,0,4.305.577,6.442,6.442,0,0,0-.893,1.391,18.134,18.134,0,0,1-5.131-1.116A20.293,20.293,0,0,1,229,104.5a6.322,6.322,0,0,0-.8-1.285,21.772,21.772,0,0,0,4.265-.67,7.38,7.38,0,0,1-1.181-.919,14.8,14.8,0,0,1-1.745.827,10.184,10.184,0,0,0-1.076-1.037,9.717,9.717,0,0,0,3.976-2.191c-.578-.157-.735-.551-.735-1.3v-.905h1.43v.905c0,.3.092.329.525.329h1.378c.328,0,.42-.079.46-.617a4.149,4.149,0,0,0,1.194.407c-.145,1.01-.512,1.286-1.483,1.286H234l.079.026a7.082,7.082,0,0,1-.512.578h3.045l.262-.04Zm-7.887-2.874h-1.483V95.244h2.258a7.045,7.045,0,0,0-.67-1.129l.145-.065c-.355.012-.709.026-1.063.026a4.094,4.094,0,0,0-.3-1.129,62.124,62.124,0,0,0,9.186-.748l1.037,1.037c-.525.1-1.076.2-1.68.288l1.181.368c-.328.472-.669.945-.984,1.352H239.7v2.572h-1.26a5.848,5.848,0,0,1,.84.944l-1.115.84a9.93,9.93,0,0,0-2.008-2.1l1.049-.735c.3.223.631.5.945.774v-1.1h-3.569a5.26,5.26,0,0,1,.893.577l-.788.866a7.819,7.819,0,0,0-1.863-1.129l.288-.314h-3.15Zm-1.115,1.22A4.108,4.108,0,0,0,230.512,97l1.169.5a4.9,4.9,0,0,1-1.759,2.23Zm4.711-3.608a5.863,5.863,0,0,0-.6-1.313l-1.339.079a3.811,3.811,0,0,1,.564,1.063l-.394.171ZM232.442,101a6.744,6.744,0,0,0,1.64.959,6.513,6.513,0,0,0,1.5-.959Zm3.609-5.76a13.7,13.7,0,0,0,.905-1.667c-.8.105-1.654.184-2.532.262a4.6,4.6,0,0,1,.524,1.142l-.7.263Z"/>
          <path d="M234.424,117.773a6.753,6.753,0,0,0,1.587-1.391l1.234.735a8.628,8.628,0,0,1-2.271,1.811c-.183-.2-.472-.472-.734-.709H231.3v.525h-1.089v-3.595l-.027.026a5.692,5.692,0,0,0-.406-.407,11.873,11.873,0,0,1-.879,3.989,4.768,4.768,0,0,0-1.1-.8,14.407,14.407,0,0,0,.761-5.446v-3.385h5.591v2.9h-1.325l.826.223-.393.774h1v.959h-1.18v.511H234.2v.853h-1.129v.5H234.2v.853h-1.129v.512h1.352Zm-.276-9.317h-5.905v-1.287h5.905Zm-4.292,4.054c0,.381,0,.814-.026,1.261a7.09,7.09,0,0,0,.8-1.746h-.775Zm0-2.322v.774h2.9v-.774Zm1.89,1.955c-.091.289-.2.59-.315.879h.722c.118-.328.236-.7.315-1h-1.207Zm.342,1.838H231.3v.511h.788Zm0,1.364H231.3v.5h.788Zm-.788,1.864h.788V116.7H231.3Zm5.158-7.9c.039-.275.065-.551.091-.826H234.62v-1.313h5.42v1.313H238.1c-.079.288-.157.564-.236.826h1.968v6.956h-4.947v-6.956Zm2.046,1.182h-2.348v.8H238.5Zm0,1.889h-2.348v.814H238.5Zm0,1.916h-2.348v.8H238.5Zm.184,2.139a13.5,13.5,0,0,1,1.68,1.694l-1.168.787a13.846,13.846,0,0,0-1.614-1.785Z"/>
          <path d="M234.279,130.106c.039-.381.052-.972.066-1.523-.958.525-1.457,1.024-1.457,1.654,0,.695.6.892,1.837.892a21.548,21.548,0,0,0,3.622-.354l-.052,1.64a34.366,34.366,0,0,1-3.609.21c-1.982,0-3.478-.485-3.478-2.126,0-1.614,1.549-2.65,2.979-3.4a.989.989,0,0,0-.879-.433,3.114,3.114,0,0,0-2,.893c-.38.38-.735.84-1.181,1.391l-1.351-1.024a12.523,12.523,0,0,0,2.781-3.49h-.144c-.512,0-1.443-.027-2.152-.093v-1.483a16.106,16.106,0,0,0,2.244.145h.617a6.761,6.761,0,0,0,.249-1.457l1.68.144c-.066.3-.158.749-.315,1.26a28.368,28.368,0,0,0,3.6-.38l-.013,1.5c-1.221.17-2.783.275-4.134.328a9.2,9.2,0,0,1-.735,1.286,4.148,4.148,0,0,1,1.43-.25,1.766,1.766,0,0,1,1.706.985c.656-.3,1.181-.525,1.706-.761.5-.21.945-.433,1.418-.657l.629,1.483c-.393.118-1.075.368-1.508.539-.565.21-1.3.5-2.074.866.013.708.04,1.627.052,2.218Z"/>
          <path d="M216,40.047c-.394.249-.8.459-1.26.7a34,34,0,0,0-3.149,1.706c-1.063.7-1.772,1.43-1.772,2.309,0,.906.879,1.392,2.651,1.392a20.886,20.886,0,0,0,4.16-.46l-.026,1.838a24.465,24.465,0,0,1-4.094.314c-2.534,0-4.449-.708-4.449-2.9a4.224,4.224,0,0,1,2.113-3.346c-.578-1.089-1.208-2.454-1.772-3.793l1.6-.656a29.075,29.075,0,0,0,1.588,3.517c.931-.551,1.85-1,2.428-1.338a6.845,6.845,0,0,0,1.181-.775Zm.184-3.124a15.879,15.879,0,0,1,1.023,1.758l-1.023.433c-.276-.511-.669-1.285-1.011-1.784Zm1.522-.59a14.926,14.926,0,0,1,1.037,1.758l-1.01.433a13.324,13.324,0,0,0-1.038-1.772Z"/>
          <path d="M213.157,55.974a11.016,11.016,0,0,0-3.307.63c-.368.105-.866.315-1.234.433l-.486-1.811c.433-.039.984-.144,1.391-.223a17.3,17.3,0,0,1,3.845-.577c2.021,0,3.426,1.141,3.426,3.136,0,2.73-2.52,4.423-6.05,4.908l-.919-1.588c3.163-.367,5.17-1.391,5.17-3.386C214.993,56.657,214.364,55.974,213.157,55.974Zm2.572-4.015-.25,1.561c-1.5-.092-4.265-.341-5.722-.6l.25-1.522A38.346,38.346,0,0,0,215.729,51.959Z"/>
          <path d="M210.257,65.722c.524,0,2.9-.118,3.687-.21a4.059,4.059,0,0,0,.892-.157l1,1.181a11.719,11.719,0,0,0-1,.7c-.905.734-2.165,1.771-3.018,2.467,1.693-.184,3.792-.315,5.341-.315l.013,1.5a20.22,20.22,0,0,0-3.268.026,2.29,2.29,0,0,0-2.139,2.034c0,1,.788,1.4,1.916,1.523a12.6,12.6,0,0,0,1.943.039l-.328,1.667c-3.268.144-5.171-.84-5.171-2.953a2.979,2.979,0,0,1,.919-2.008c-1.155.092-2.572.288-3.845.512l-.158-1.549c.682-.078,1.562-.2,2.231-.276a33.416,33.416,0,0,0,3.57-2.873c-.512.039-2.074.118-2.585.17-.329.026-.749.066-1.143.118l-.078-1.64A12.061,12.061,0,0,0,210.257,65.722Zm6.4,3.045-.984.433a8.6,8.6,0,0,0-.853-1.562l.958-.394A17.008,17.008,0,0,1,216.66,68.767Zm1.457-.6-.958.433a9.1,9.1,0,0,0-.905-1.509l.945-.433A13.733,13.733,0,0,1,218.117,68.163Z"/>
          <path d="M216.673,89.656a10.031,10.031,0,0,0-2.808-2c.013.158.013.315.013.433,0,1.129-.577,2.205-2.7,2.205-1.811,0-3.32-.6-3.32-2.323,0-1.339,1.141-2.375,3.464-2.375a7.272,7.272,0,0,1,.761.039c-.039-1-.078-2.087-.078-2.756,0-.774-.014-1.522-.014-2.06a8.311,8.311,0,0,0-.144-1.483h1.916c-.052.367-.092.984-.118,1.483v.918c1.011-.025,2.494-.078,3.557-.2l.065,1.522c-1.076.092-2.585.157-3.622.184.026.761.078,1.784.144,2.716a9.868,9.868,0,0,1,3.872,2.165Zm-4.54-2.546a5.315,5.315,0,0,0-1.037-.092c-1,0-1.588.328-1.588.88,0,.616.643.852,1.522.852.828,0,1.116-.354,1.116-1.207C212.146,87.425,212.146,87.281,212.133,87.11Z"/>
          <path d="M210.178,94.023c.669,0,3.2-.039,4.042-.092a6,6,0,0,0,.905-.144l.866,1.128a5.805,5.805,0,0,0-.709.42c-.734.525-1.955,1.405-2.913,2.245a4.562,4.562,0,0,1,1.273-.184c2.231,0,3.779,1.3,3.779,3.07,0,2.467-2.06,4.161-6.666,3.78l-.459-1.653c3.412.445,5.38-.394,5.38-2.127,0-.984-.932-1.706-2.375-1.706-2.2,0-3.53,1.392-4.738,2.743l-1.194-1.26c1.549-1.417,4.619-3.976,5.617-4.881-.695.012-2.113.105-2.717.144-.341.026-.748.066-1.023.118l-.053-1.667A7.553,7.553,0,0,0,210.178,94.023Z"/>
          <path d="M211.018,107.012c-.079.539-.145,1.195-.171,1.694-.053,1.378-.145,4.225-.145,5.8a1.539,1.539,0,0,0,1.746,1.706,5.121,5.121,0,0,0,4.37-2.6l1.142,1.417a6.571,6.571,0,0,1-5.525,2.913c-2.087,0-3.425-.918-3.425-3.084,0-1.706.118-5.053.118-6.154A8.652,8.652,0,0,0,208.97,107Z"/>
          <path d="M215.637,121.825c-.394.3-.827.643-1.116.866-.827.669-2.493,1.956-3.346,2.691-.683.577-.669.722.026,1.3.945.813,3.4,2.756,4.659,3.963l-1.483,1.378c-.354-.42-.748-.814-1.116-1.182-.695-.734-2.637-2.388-3.805-3.372-1.26-1.076-1.155-1.771.118-2.821.984-.814,2.729-2.232,3.6-3.072a7.95,7.95,0,0,0,.984-1.075Z"/>
          <path d="M190.21,41.817a10.11,10.11,0,0,1,2.441-.328c1.942,0,3.491,1.038,3.491,2.8,0,1.5-.787,2.639-2.795,3.137a10.189,10.189,0,0,1-1.68.2l-.591-1.64a9.674,9.674,0,0,0,1.575-.079c1.011-.184,1.837-.7,1.837-1.627,0-.867-.761-1.365-1.863-1.365a8.78,8.78,0,0,0-2.389.354c.027,1.011.053,1.982.053,2.428,0,1.574-.577,1.981-1.391,1.981-1.247,0-3-1.063-3-2.414,0-1.116,1.286-2.27,2.848-2.94-.013-.3-.013-.59-.013-.879V40.361c-.25.013-.486.026-.683.026a15.416,15.416,0,0,1-1.758-.066l-.04-1.535a13.267,13.267,0,0,0,1.759.092c.223,0,.472-.013.735-.026V37.815a10,10,0,0,0-.079-1.115h1.758c-.039.236-.091.774-.118,1.1l-.039.906a15.522,15.522,0,0,0,2.349-.46l.039,1.588c-.721.157-1.6.3-2.427.394-.014.393-.014.774-.014,1.141Zm-1.4,3.583c0-.315-.014-.892-.04-1.574-.774.407-1.286.931-1.286,1.364,0,.407.577.761.919.761C188.623,45.951,188.807,45.834,188.807,45.4Zm5.248-7.323a30.224,30.224,0,0,1,3.124,1.785l-.774,1.3a21.313,21.313,0,0,0-3.058-1.85Z"/>
          <path d="M190.092,58.074v3.334c0,.564-.079.879-.446,1.076a2.994,2.994,0,0,1-1.444.21,4.312,4.312,0,0,0-.38-1.168c.354.013.722.013.84.013s.171-.039.171-.158V58.074h-1.365V53.31h1.167c.04-.328.093-.682.132-1.01h-1.8v3.727c0,1.968-.131,4.777-.945,6.522a5.162,5.162,0,0,0-1.1-.8,15.9,15.9,0,0,0,.722-5.709V50.962h5.787V52.3H190.25c-.1.354-.21.7-.315,1.01h1.535v4.764Zm-1.43.775a9.571,9.571,0,0,1-.905,2.769,6.72,6.72,0,0,0-1.051-.578,6.762,6.762,0,0,0,.8-2.428Zm1.574-4.462h-1.574v.8h1.574Zm-1.574,2.6h1.574v-.8h-1.574Zm2.231,4.042a13.861,13.861,0,0,0-.7-2.1l.984-.355a12.109,12.109,0,0,1,.761,2.061Zm3.346-.079a9.1,9.1,0,0,1-2.414,1.772,11.074,11.074,0,0,0-.972-.945,6.907,6.907,0,0,0,2.166-1.574Zm-.669-7.755c.052-.3.092-.617.118-.919h-2.021V50.962h5.565v1.312H195.21c-.091.315-.183.63-.275.919h2.008v6.942h-4.922V53.193Zm2.008,1.141h-2.244v.84h2.244Zm0,1.9h-2.244v.84h2.244Zm0,1.916h-2.244v.853h2.244Zm.183,2.06a15.9,15.9,0,0,1,1.785,1.694l-1.168.787a14.409,14.409,0,0,0-1.732-1.772Z"/>
          <path d="M188.032,67.218c-.013.814,0,1.772.079,2.69.184,1.825.551,3.071,1.352,3.071.616,0,1.115-1.483,1.338-2.493l1.3,1.549c-.853,2.217-1.64,2.991-2.677,2.991-1.378,0-2.6-1.246-2.966-4.671-.118-1.168-.144-2.651-.144-3.439a8.816,8.816,0,0,0-.079-1.285l1.956.026A9.848,9.848,0,0,0,188.032,67.218Zm8.832,5.223-1.68.644c-.2-2.061-.866-5.04-2.257-6.614l1.614-.539A13.792,13.792,0,0,1,196.864,72.441Z"/>
          <path d="M189.594,77.6c-.079.538-.145,1.194-.171,1.693-.053,1.378-.144,4.226-.144,5.8a1.539,1.539,0,0,0,1.745,1.706,5.118,5.118,0,0,0,4.37-2.6l1.142,1.417a6.571,6.571,0,0,1-5.525,2.914c-2.087,0-3.425-.919-3.425-3.085,0-1.706.118-5.052.118-6.154a8.666,8.666,0,0,0-.158-1.706Z"/>
          <path d="M195.105,101.767A9.71,9.71,0,0,0,192.547,100c.012.17.012.328.012.459,0,1.089-.826,1.929-2.506,1.929-2.034,0-3.11-.774-3.11-2.113,0-1.3,1.181-2.2,3.149-2.2.263,0,.525.013.788.039-.027-.381-.039-.774-.053-1.142h-.656c-.748,0-2.218-.065-3.058-.17v-1.51a22.689,22.689,0,0,0,3.071.237h.617V94.208h-.617a23.251,23.251,0,0,1-2.755-.2l-.014-1.457a16.611,16.611,0,0,0,2.756.25h.643v-.591a6.282,6.282,0,0,0-.066-.853h1.733a7.939,7.939,0,0,0-.092.879l-.013.512a26.133,26.133,0,0,0,3.031-.315l.026,1.469c-.84.079-1.85.184-3.07.25l-.014,1.312a33.754,33.754,0,0,0,3.386-.3l.014,1.509c-1.142.131-2.14.223-3.373.262.026.473.052.985.092,1.47a9.848,9.848,0,0,1,3.556,1.929Zm-4.173-2.284a6.876,6.876,0,0,0-1.05-.092c-.892,0-1.391.341-1.391.774,0,.486.446.775,1.326.775.682,0,1.129-.184,1.129-.919C190.946,99.89,190.946,99.706,190.932,99.483Z"/>
          <path d="M196.68,108.338c-.761-.039-1.955-.079-3.674-.079.013.643.013,1.326.013,1.89a3.173,3.173,0,0,1,.473,1.759c0,1.679-.985,3.753-4.082,4.619l-1.05-1.5a5.337,5.337,0,0,0,2.809-1.3,2.771,2.771,0,0,1-.591.066,2.22,2.22,0,0,1-2.178-2.323,2.406,2.406,0,0,1,2.532-2.388,3.261,3.261,0,0,1,.512.039l-.013-.852c-1.929.026-3.911.105-5.473.2l-.039-1.548c1.444,0,3.766-.066,5.485-.092,0-.157-.012-.3-.012-.394a10.67,10.67,0,0,0-.132-1.1h1.85c-.026.21-.078.879-.078,1.089,0,.105-.013.236-.013.394,1.286,0,3-.013,3.687,0Zm-5.787,4.055c.538,0,1-.407.84-1.522a.915.915,0,0,0-.827-.447.962.962,0,0,0-.971,1.011A.938.938,0,0,0,190.893,112.393Z"/>
        </g>
      </g>
    </g>
  </g>
</svg>
