<svg id="レイヤー_1" data-name="レイヤー 1" xmlns="http://www.w3.org/2000/svg" xmlns:xlink="http://www.w3.org/1999/xlink" width="599" height="511" viewBox="0 0 599 511">
  <defs>
    <clipPath id="clip-path">
      <polygon points="344.395 182.114 337.703 152.909 320.555 152.909 320.555 182.114 344.395 182.114" fill="none"/>
    </clipPath>
    <clipPath id="clip-path-2">
      <polygon points="264.509 182.114 271.201 152.909 288.35 152.909 288.35 182.114 264.509 182.114" fill="none"/>
    </clipPath>
  </defs>
  <g>
    <g>
      <path d="M83.079,451.139a4.652,4.652,0,1,1,5.731-4.179,3.891,3.891,0,0,1-.112.756,4.614,4.614,0,0,1-3.178,3.348A4.513,4.513,0,0,1,83.079,451.139Z" fill="#fff8ee"/>
      <path d="M88.7,447.716a3.891,3.891,0,0,0,.112-.756l.007,0a75.044,75.044,0,0,0,13.477,4.89c-.5,3.767-1.117,8.24-1.8,13.6,0,0-10.14-5.338-14.979-14.392A4.614,4.614,0,0,0,88.7,447.716Z" fill="#97d2ce"/>
      <path d="M121.166,473.032c-.915,2.711,1.181,4.394,3.465,4.841a41.883,41.883,0,0,0,11.833,0c2.285-.447,4.38-2.13,3.458-4.841-.824-2.437-3.15-2.6-4.98-2.319a39.525,39.525,0,0,1-8.788,0C124.317,470.434,122,470.6,121.166,473.032Z" fill="#f4aeb6"/>
      <path d="M125.274,457.518a7.878,7.878,0,1,1-7.866-7.866,7.863,7.863,0,0,1,7.866,7.866Zm-7.866,4.533a4.53,4.53,0,1,0-4.534-4.533A4.527,4.527,0,0,0,117.408,462.051Z" fill="#fff8ee"/>
      <path d="M121.935,457.518a4.531,4.531,0,1,1-4.527-4.527A4.527,4.527,0,0,1,121.935,457.518Zm-4.527,1.467a1.467,1.467,0,1,0-1.467-1.467A1.466,1.466,0,0,0,117.408,458.985Z" fill="#97d2ce"/>
      <path d="M148.158,457.518a4.53,4.53,0,1,1-4.526-4.527A4.527,4.527,0,0,1,148.158,457.518Zm-4.526,1.467a1.467,1.467,0,1,0-1.467-1.467A1.467,1.467,0,0,0,143.632,458.985Z" fill="#97d2ce"/>
      <path d="M151.5,457.518a7.877,7.877,0,1,1-7.865-7.866,7.863,7.863,0,0,1,7.865,7.866Zm-7.865,4.533a4.53,4.53,0,1,0-4.534-4.533A4.527,4.527,0,0,0,143.632,462.051Z" fill="#fff8ee"/>
      <path d="M94.132,430.707s5.044,7.922,11.17,9.871c7.719-24.918,24.61-34.956,25.225-35.319A71.865,71.865,0,0,0,94.132,430.707Z" fill="#fff8ee"/>
      <path d="M155.718,455.113c1.894,4.741,3.47,8.793,4.813,12.257l.006,0c8.629-2.983,15.65-11.806,15.65-11.806l0-.008a4.593,4.593,0,0,1-1.951-2.669,4.747,4.747,0,0,1-.127-1.847A54.863,54.863,0,0,1,155.718,455.113Z" fill="#97d2ce"/>
      <path d="M174.113,451.038a4.747,4.747,0,0,0,.127,1.847,4.665,4.665,0,0,0,5.706,3.266,4.649,4.649,0,1,0-5.833-5.113Z" fill="#fff8ee"/>
      <path d="M178.727,456.986a5.353,5.353,0,0,1-5.135-3.924,5.435,5.435,0,0,1-.146-2.108l0-.009a5.325,5.325,0,1,1,5.279,6.041Zm-3.948-5.86a4.069,4.069,0,0,0,.109,1.583,4,4,0,0,0,4.881,2.8,3.978,3.978,0,1,0-4.99-4.378Z" fill="#231815"/>
      <path d="M155.718,455.785a.671.671,0,0,1-.034-1.342,54.7,54.7,0,0,0,18.148-4.016.672.672,0,0,1,.561,1.221,54.975,54.975,0,0,1-18.641,4.136Z" fill="#231815"/>
      <path d="M160.537,468.04a.672.672,0,0,1-.219-1.307c8.338-2.882,15.274-11.5,15.343-11.589a.671.671,0,0,1,1.051.836c-.291.367-7.243,9.01-15.955,12.023A.705.705,0,0,1,160.537,468.04Z" fill="#231815"/>
      <path d="M145.259,449.82a7.782,7.782,0,0,0-1.627-.168,7.9,7.9,0,0,0-2.648.454,7.87,7.87,0,1,0,4.275-.286Zm-27.851-.168a7.909,7.909,0,0,0-2.648.454,7.958,7.958,0,1,0,2.648-.454Zm38.378-9.074a82.989,82.989,0,0,1,3.151,15.13c.07.615.14,1.216.209,1.81.58,5.071,1.034,9.4,1.418,13.09,2.292,21.7,2.313,21.921,11.506,25.714,0,0,1.942.964,0,2.627s-10.36.517-14.719-2.285a65.955,65.955,0,0,0,4.122,5.784c1.355,1.621.859,2.746-.287,3.1s-8.012-1.034-12.6-6.406c.084.343,2.026,7.74.622,8.7-1.432.971-4.75-.922-10.136-7.963,0,0,1.544,9.109-1.264,9.849s-5.924-4.924-7.258-9.626c-1.335,4.7-4.45,10.374-7.258,9.626s-1.265-9.849-1.265-9.849c-5.385,7.041-8.711,8.934-10.143,7.963-1.4-.957.545-8.354.629-8.7-4.6,5.372-11.456,6.748-12.6,6.406s-1.641-1.474-.286-3.1a65.86,65.86,0,0,0,4.121-5.784c-4.359,2.8-12.776,3.947-14.718,2.285s0-2.627,0-2.627c8.892-3.667,9.207-3.989,11.288-23.695.4-3.779.86-8.271,1.467-13.642.119-1.055.238-2.152.371-3.277a83.5,83.5,0,0,1,3.15-15.13c7.719-24.918,24.61-34.956,25.225-35.319a.035.035,0,0,1,.042,0C131.183,405.622,148.074,415.66,155.786,440.578Zm-25.238,37.715a36.9,36.9,0,0,0,5.916-.42c2.285-.447,4.38-2.13,3.458-4.841-.824-2.437-3.15-2.6-4.98-2.319a39.525,39.525,0,0,1-8.788,0c-1.837-.279-4.157-.118-4.988,2.319-.915,2.711,1.181,4.394,3.465,4.841A36.913,36.913,0,0,0,130.548,478.293Z" fill="#97d2ce"/>
      <path d="M130.569,405.259c.614.363,17.505,10.4,25.217,35.319,6.127-1.942,11.177-9.871,11.177-9.871A71.868,71.868,0,0,0,130.569,405.259Z" fill="#fff8ee"/>
      <path d="M117.408,456.051a1.467,1.467,0,1,0,1.46,1.467A1.467,1.467,0,0,0,117.408,456.051Z" fill="#231815"/>
      <circle cx="143.632" cy="457.518" r="1.467" fill="#231815"/>
    </g>
    <g>
      <path d="M137.295,510.46c-2.773,0-5.325-4.373-6.747-8.213-1.538,4.153-4.4,8.933-7.431,8.122-2.372-.625-2.357-5.161-2.071-8.178-4.381,5.333-7.66,7.475-9.541,6.2-.43-.295-1.731-1.186.337-9.345a.7.7,0,0,1,.822-.523.64.64,0,0,1,.5.775c-1.324,5.228-1.25,7.662-.9,7.987.789.531,3.628-.5,9.226-7.821a.671.671,0,0,1,1.195.52c-.58,3.43-.735,8.69.774,9.088,2.095.558,5.084-4.377,6.441-9.16a.672.672,0,0,1,1.292,0c1.358,4.782,4.347,9.72,6.439,9.16,1.511-.4,1.355-5.658.775-9.088a.671.671,0,0,1,1.2-.52c5.6,7.313,8.429,8.352,9.226,7.815.351-.318.429-2.75-.878-7.9l0,0a.678.678,0,0,1-.049-.25.672.672,0,0,1,1.283-.279.782.782,0,0,1,.048.133c2.085,8.228.777,9.119.347,9.412-1.877,1.272-5.155-.867-9.534-6.2.285,3.017.3,7.553-2.073,8.179A2.686,2.686,0,0,1,137.295,510.46Zm11.954-11.337h0Z" fill="#231815"/>
      <path d="M160.728,506.258c-2.336,0-8.491-1.811-12.654-6.685a.671.671,0,0,1,1.021-.872c4.4,5.145,11.011,6.46,11.9,6.2a.836.836,0,0,0,.6-.49c.107-.362-.124-.92-.636-1.531a66.57,66.57,0,0,1-4.165-5.842.671.671,0,0,1,1.027-.855l.007.008a.648.648,0,0,1,.093.116,65.6,65.6,0,0,0,4.069,5.711,2.975,2.975,0,0,1,.892,2.776,2.112,2.112,0,0,1-1.5,1.393A2.412,2.412,0,0,1,160.728,506.258Z" fill="#231815"/>
      <path d="M168.535,500.392a23.9,23.9,0,0,1-11.547-3.162.672.672,0,1,1,.726-1.13c4.47,2.872,12.386,3.648,13.92,2.338.426-.365.654-.713.624-.954-.035-.28-.414-.524-.487-.56-9.518-3.926-9.562-4.344-11.873-26.231-.381-3.664-.834-7.985-1.419-13.1l-.21-1.81a82.571,82.571,0,0,0-3.124-15.007c-7.569-24.458-24.213-34.523-24.918-34.94a.671.671,0,0,1,.683-1.156,49.306,49.306,0,0,1,10.1,8.573,70.681,70.681,0,0,1,15.42,27.125,84.006,84.006,0,0,1,3.176,15.252l.209,1.808c.586,5.123,1.04,9.448,1.419,13.1,2.273,21.523,2.273,21.523,11.094,25.163a2.276,2.276,0,0,1,1.265,1.616,2.472,2.472,0,0,1-1.084,2.141A6.494,6.494,0,0,1,168.535,500.392Z" fill="#231815"/>
      <path d="M92.559,500.394a6.473,6.473,0,0,1-3.97-.935,2.473,2.473,0,0,1-1.085-2.141,2.269,2.269,0,0,1,1.223-1.6c8.693-3.587,8.859-3.655,10.919-23.164l.227-2.163c.347-3.3.745-7.1,1.241-11.485l.114-1.022c.082-.736.166-1.49.257-2.257a84.625,84.625,0,0,1,3.175-15.25,70.741,70.741,0,0,1,15.426-27.126,49.356,49.356,0,0,1,10.1-8.573.671.671,0,1,1,.683,1.156c-.7.417-17.348,10.482-24.924,34.939a83.234,83.234,0,0,0-3.125,15.009c-.091.766-.174,1.517-.256,2.251l-.114,1.024c-.5,4.38-.894,8.174-1.24,11.474l-.227,2.163c-2.084,19.736-2.412,20.416-11.7,24.246-.071.04-.415.275-.445.544-.028.241.2.587.626.952,1.527,1.308,9.406.539,13.885-2.318a.671.671,0,0,1,.891,1,.648.648,0,0,1-.132.111A23.9,23.9,0,0,1,92.559,500.394Z" fill="#231815"/>
      <path d="M100.367,506.258a2.386,2.386,0,0,1-.65-.071,2.116,2.116,0,0,1-1.5-1.394,2.972,2.972,0,0,1,.893-2.775,65.533,65.533,0,0,0,4.069-5.713.672.672,0,1,1,1.135.72,67.313,67.313,0,0,1-4.174,5.855c-.511.61-.743,1.168-.635,1.53a.839.839,0,0,0,.6.491c.885.262,7.46-1.05,11.86-6.159a.773.773,0,0,1,.062-.077.671.671,0,0,1,1.094.753.647.647,0,0,1-.1.156C108.852,504.446,102.7,506.258,100.367,506.258Z" fill="#231815"/>
      <path d="M155.786,441.25a.672.672,0,0,1-.2-1.312c5.068-1.607,9.473-7.631,10.558-9.211A71.1,71.1,0,0,0,130.4,405.909l-.045-.013a.672.672,0,1,1,.4-1.283,72.568,72.568,0,0,1,36.75,25.7.673.673,0,0,1,.026.759c-.212.332-5.254,8.157-11.54,10.15A.694.694,0,0,1,155.786,441.25Z" fill="#231815"/>
      <path d="M105.309,441.249a.719.719,0,0,1-.211-.031c-6.286-2-11.321-9.818-11.532-10.15a.673.673,0,0,1,.025-.759,72.569,72.569,0,0,1,36.751-25.7.672.672,0,1,1,.4,1.283l-.044.013a71.115,71.115,0,0,0-35.743,24.818c1.084,1.577,5.476,7.585,10.536,9.205a.671.671,0,0,1-.18,1.317Z" fill="#231815"/>
      <path d="M143.632,466.062a8.546,8.546,0,0,1-2.875-16.588,8.681,8.681,0,0,1,4.642-.311,8.425,8.425,0,0,1,3.146,1.372,8.543,8.543,0,0,1-4.913,15.527Zm0-15.739a7.217,7.217,0,0,0-2.423.416,7.137,7.137,0,0,0-2.329,1.378l0,0a7.193,7.193,0,1,0,8.894-.487,7.154,7.154,0,0,0-4.139-1.31Zm-5.2,1.292h0Z" fill="#231815"/>
      <path d="M143.632,462.723a5.2,5.2,0,1,1,5.2-5.205A5.211,5.211,0,0,1,143.632,462.723Zm0-9.061a3.859,3.859,0,1,0,3.855,3.856A3.864,3.864,0,0,0,143.632,453.662Z" fill="#231815"/>
      <path d="M145.26,450.491a.657.657,0,0,1-.116-.01.672.672,0,0,1-.547-.777l.42-2.409a.671.671,0,1,1,1.323.23l-.419,2.41A.672.672,0,0,1,145.26,450.491Z" fill="#231815"/>
      <path d="M148.158,451.759a.668.668,0,0,1-.671-.668v-.007a.673.673,0,0,1,.122-.387l1.376-1.956a.672.672,0,0,1,1.1.774l-1.36,1.932A.672.672,0,0,1,148.158,451.759Z" fill="#231815"/>
      <path d="M140.983,450.778a.671.671,0,0,1-.66-.557l-.42-2.41a.671.671,0,1,1,1.323-.23l.42,2.41a.672.672,0,0,1-.547.777A.649.649,0,0,1,140.983,450.778Z" fill="#231815"/>
      <path d="M138.435,452.287a.668.668,0,0,1-.55-.287l-1.376-1.963a.671.671,0,1,1,1.1-.77l1.376,1.963a.672.672,0,0,1-.549,1.057Z" fill="#231815"/>
      <path d="M117.408,466.062a8.546,8.546,0,0,1-2.875-16.588,8.686,8.686,0,0,1,4.643-.311,8.44,8.44,0,0,1,3.146,1.372,8.543,8.543,0,0,1-4.914,15.527Zm0-15.739a7.216,7.216,0,0,0-2.422.416,7.127,7.127,0,0,0-2.329,1.378l0,0a7.206,7.206,0,1,0,4.754-1.8Zm-5.2,1.292h0Z" fill="#231815"/>
      <path d="M117.408,462.723a5.2,5.2,0,1,1,5.2-5.205A5.211,5.211,0,0,1,117.408,462.723Zm0-9.061a3.859,3.859,0,1,0,3.855,3.856A3.864,3.864,0,0,0,117.408,453.662Z" fill="#231815"/>
      <path d="M119.036,450.491a.657.657,0,0,1-.116-.01.671.671,0,0,1-.546-.777l.419-2.409a.672.672,0,0,1,1.324.23l-.42,2.41A.672.672,0,0,1,119.036,450.491Z" fill="#231815"/>
      <path d="M121.934,451.759a.668.668,0,0,1-.671-.668v-.007a.673.673,0,0,1,.122-.387l1.377-1.956a.672.672,0,0,1,1.1.774l-1.36,1.932A.671.671,0,0,1,121.934,451.759Z" fill="#231815"/>
      <path d="M114.76,450.778a.672.672,0,0,1-.661-.557l-.419-2.41a.671.671,0,1,1,1.323-.23l.419,2.41a.671.671,0,0,1-.546.777A.657.657,0,0,1,114.76,450.778Z" fill="#231815"/>
      <path d="M112.211,452.287a.669.669,0,0,1-.55-.287l-1.376-1.963a.671.671,0,1,1,1.1-.77l1.376,1.963a.672.672,0,0,1-.55,1.057Z" fill="#231815"/>
      <path d="M130.755,478.965h-.414a35.6,35.6,0,0,1-5.841-.433,5.408,5.408,0,0,1-3.726-2.378,3.952,3.952,0,0,1-.244-3.336c.539-1.581,1.968-3.342,5.725-2.769a39.027,39.027,0,0,0,8.589,0c2.926-.447,4.959.535,5.714,2.769a3.943,3.943,0,0,1-.237,3.335,5.4,5.4,0,0,1-3.727,2.38A35.655,35.655,0,0,1,130.755,478.965Zm-5.855-7.681c-2.428,0-2.921,1.447-3.1,1.965a2.62,2.62,0,0,0,.133,2.231,4.145,4.145,0,0,0,2.825,1.734,36.288,36.288,0,0,0,5.781.407h.013a36.448,36.448,0,0,0,5.78-.406,4.14,4.14,0,0,0,2.825-1.735,2.617,2.617,0,0,0,.127-2.231c-.2-.594-.809-2.4-4.243-1.871a34.534,34.534,0,0,1-4.5.251,34.013,34.013,0,0,1-4.485-.251A7.7,7.7,0,0,0,124.9,471.284Z" fill="#231815"/>
      <path d="M130.766,475.29a50.9,50.9,0,0,1-6.536-.425.672.672,0,0,1,.173-1.332,44.942,44.942,0,0,0,12.252,0,.671.671,0,1,1,.234,1.322A37.929,37.929,0,0,1,130.766,475.29Z" fill="#231815"/>
      <path d="M84.171,451.943a5.325,5.325,0,1,1,5.308-4.93,4.312,4.312,0,0,1-.129.862,5.305,5.305,0,0,1-3.634,3.831A5.148,5.148,0,0,1,84.171,451.943Zm0-9.306a3.982,3.982,0,0,0-.935,7.849,3.852,3.852,0,0,0,2.08-.063l.013,0a3.957,3.957,0,0,0,2.714-2.862,3.245,3.245,0,0,0,.094-.626,3.98,3.98,0,0,0-3.966-4.3Z" fill="#231815"/>
      <path d="M102.294,452.524a.673.673,0,0,1-.165-.021,74.68,74.68,0,0,1-13.623-4.946.672.672,0,0,1,.622-1.191,74.854,74.854,0,0,0,13.331,4.835.672.672,0,0,1-.165,1.323Z" fill="#231815"/>
      <path d="M100.5,466.128a.666.666,0,0,1-.313-.078c-.421-.222-10.379-5.539-15.258-14.67a.672.672,0,1,1,1.185-.633c4.687,8.771,14.6,14.062,14.7,14.114a.672.672,0,0,1-.313,1.267Z" fill="#231815"/>
    </g>
  </g>
  <g>
    <g>
      <path d="M478.109,474.668s.554,3.325-4.784,3.325h-5.591c-5.331,0-4.784-3.325-4.784-3.325,0-3.5,4.728-3.332,4.728-3.332h5.7S478.109,471.168,478.109,474.668Z" fill="#f4aeb6"/>
      <path d="M470.112,404.823c-.617.365-17.579,10.445-25.33,35.466-6.145-1.95-11.216-9.911-11.216-9.911A72.165,72.165,0,0,1,470.112,404.823Z" fill="#fff"/>
      <path d="M422.191,464.038a4.672,4.672,0,1,0,4.594,5.437,3.945,3.945,0,0,0,.07-.765,4.641,4.641,0,0,0-2.307-4.019A4.493,4.493,0,0,0,422.191,464.038Z" fill="#fff"/>
      <path d="M426.855,468.71a3.945,3.945,0,0,1-.07.765h.007A75.323,75.323,0,0,1,441.1,467.9c.4-3.8.87-8.312,1.48-13.7h-.007S431.422,457,424.548,464.691A4.641,4.641,0,0,1,426.855,468.71Z" fill="#fff"/>
      <path d="M497.649,467.051h-.028c.61-5.387,1.073-9.9,1.473-13.7h.035a75.323,75.323,0,0,0,14.31-1.579,3.938,3.938,0,0,0-.07.765,4.64,4.64,0,0,0,2.308,4.019C508.809,464.245,497.649,467.051,497.649,467.051Z" fill="#fff"/>
      <path d="M513.369,452.538a3.938,3.938,0,0,1,.07-.765,4.668,4.668,0,1,1,4.6,5.437,4.531,4.531,0,0,1-2.364-.653A4.64,4.64,0,0,1,513.369,452.538Z" fill="#fff"/>
      <path d="M422.191,474.149a5.439,5.439,0,1,1,0-10.878,5.277,5.277,0,0,1,2.749.76,5.423,5.423,0,0,1,2.682,4.679,4.645,4.645,0,0,1-.085.916A5.387,5.387,0,0,1,422.191,474.149Zm0-9.344a3.9,3.9,0,1,0,0,7.809,3.868,3.868,0,0,0,3.837-3.261,3.239,3.239,0,0,0,.06-.643,3.88,3.88,0,0,0-1.925-3.355l-.016-.01A3.739,3.739,0,0,0,422.191,464.805Z" fill="#231815"/>
      <path d="M426.792,470.242a.767.767,0,0,1-.184-1.512,75.136,75.136,0,0,1,14.486-1.6h.008a.767.767,0,0,1,.008,1.534,75.094,75.094,0,0,0-14.133,1.556A.787.787,0,0,1,426.792,470.242Z" fill="#231815"/>
      <path d="M424.547,465.458a.768.768,0,0,1-.571-1.279c6.951-7.774,17.947-10.609,18.412-10.726a.767.767,0,0,1,.375,1.488c-.11.027-11.012,2.844-17.644,10.261A.766.766,0,0,1,424.547,465.458Z" fill="#231815"/>
      <path d="M518.041,457.977a5.331,5.331,0,0,1-2.756-.76,5.421,5.421,0,0,1-2.683-4.679,4.711,4.711,0,0,1,.085-.915,5.435,5.435,0,1,1,5.354,6.354Zm0-9.344A3.871,3.871,0,0,0,514.2,451.9a3.236,3.236,0,0,0-.061.642,3.879,3.879,0,0,0,1.925,3.355l.013.008a3.8,3.8,0,0,0,1.967.542,3.905,3.905,0,0,0,0-7.81Z" fill="#231815"/>
      <path d="M499.129,454.119a.767.767,0,0,1-.008-1.534,75.1,75.1,0,0,0,14.134-1.556.767.767,0,0,1,.369,1.489,75.151,75.151,0,0,1-14.487,1.6Z" fill="#231815"/>
      <path d="M497.649,467.818a.767.767,0,0,1-.187-1.51c.109-.028,11.018-2.845,17.642-10.262a.767.767,0,0,1,1.145,1.022c-6.944,7.774-17.948,10.61-18.413,10.728A.8.8,0,0,1,497.649,467.818Z" fill="#231815"/>
      <path d="M487.059,465.275a19.012,19.012,0,0,0,1.186-7.295,27.869,27.869,0,0,0-.947-6.846,14.024,14.024,0,0,0-4.265-.912.231.231,0,0,0-.1,0,9.214,9.214,0,0,0-5.2,1.15,30.567,30.567,0,0,0-.821,6.791,20.567,20.567,0,0,0,1.046,7.112l.007.007H478a39.144,39.144,0,0,0,9.02,0h.042Zm-35.038,33.818c-4.615,5.394-11.5,6.776-12.654,6.432s-1.648-1.48-.288-3.107a66.516,66.516,0,0,0,4.139-5.808c-4.377,2.813-12.83,3.963-14.78,2.294s0-2.638,0-2.638c8.937-3.683,9.238-4,11.336-23.794.4-3.794.863-8.312,1.473-13.7.119-1.066.238-2.161.372-3.29a83.879,83.879,0,0,1,3.163-15.194c7.751-25.021,24.713-35.1,25.33-35.466a.035.035,0,0,1,.042,0c.617.365,17.579,10.445,25.323,35.466a83.367,83.367,0,0,1,3.164,15.194c.133,1.129.259,2.224.371,3.29.611,5.387,1.081,9.9,1.481,13.7,2.09,19.789,2.4,20.111,11.335,23.794,0,0,1.95.968,0,2.638s-10.4.519-14.78-2.294a66.748,66.748,0,0,0,4.139,5.808c1.361,1.627.863,2.757-.288,3.107s-8.045-1.038-12.654-6.432c.084.344,2.034,7.772.624,8.733-1.438.975-4.77-.926-10.178-8,0,0,1.55,9.147-1.27,9.89s-5.948-4.945-7.288-9.666c-1.34,4.721-4.475,10.417-7.288,9.666s-1.27-9.89-1.27-9.89c-5.408,7.07-8.747,8.971-10.185,8C449.987,506.865,451.937,499.437,452.021,499.093Zm10.971-33.818a20.612,20.612,0,0,0,1.045-7.112,30.559,30.559,0,0,0-.82-6.791,9.214,9.214,0,0,0-5.2-1.15.2.2,0,0,0-.091,0,14.021,14.021,0,0,0-4.272.912,27.848,27.848,0,0,0-.947,6.839,19.055,19.055,0,0,0,1.192,7.3v.007h.042a39.153,39.153,0,0,0,9.021,0h.021Zm10.333,12.718c5.338,0,4.784-3.325,4.784-3.325,0-3.5-4.728-3.332-4.728-3.332h-5.7s-4.728-.168-4.728,3.332c0,0-.547,3.325,4.784,3.325h5.591Z" fill="#fff"/>
      <path d="M506.7,430.378s-5.071,7.961-11.223,9.911c-7.744-25.021-24.706-35.1-25.323-35.466A72.161,72.161,0,0,1,506.7,430.378Z" fill="#fff"/>
      <path d="M488.245,457.98l-1.389.021c-3.9-.442-4.314-5.177-4.314-5.177-.5,4.77-4.223,5.353-4.223,5.353l-1.4-.014a30.567,30.567,0,0,1,.821-6.791,12.384,12.384,0,0,1,5.2-1.15.231.231,0,0,1,.1,0,14.024,14.024,0,0,1,4.265.912A27.869,27.869,0,0,1,488.245,457.98Z" fill="#231815"/>
      <path d="M487.059,465.275v.007h-.042A.089.089,0,0,0,487.059,465.275Z" fill="#231815"/>
      <path d="M486.856,458s-4.209,1.08-4.314,5.352c0,0-.14-4.727-4.223-5.176,0,0,3.718-.583,4.223-5.353C482.542,452.824,482.956,457.559,486.856,458Z" fill="#fff"/>
      <path d="M477.737,451.372a9.214,9.214,0,0,1,5.2-1.15A12.384,12.384,0,0,0,477.737,451.372Z" fill="#231815"/>
      <path d="M488.245,457.98a19.012,19.012,0,0,1-1.186,7.295.089.089,0,0,1-.042.007h-9.048l-.007-.007a20.567,20.567,0,0,1-1.046-7.112l1.4.014c4.083.449,4.223,5.176,4.223,5.176.105-4.272,4.314-5.352,4.314-5.352Z" fill="#231815"/>
      <path d="M464.037,458.163l-1.4.014s-3.718-.583-4.216-5.353c0,0-.421,4.735-4.321,5.177l-1.389-.028a27.848,27.848,0,0,1,.947-6.839,14.021,14.021,0,0,1,4.272-.912.2.2,0,0,1,.091,0,12.384,12.384,0,0,1,5.2,1.15A30.559,30.559,0,0,1,464.037,458.163Z" fill="#231815"/>
      <path d="M462.635,458.177c-4.083.449-4.223,5.176-4.223,5.176-.1-4.272-4.314-5.352-4.314-5.352,3.9-.442,4.321-5.177,4.321-5.177C458.917,457.594,462.635,458.177,462.635,458.177Z" fill="#fff"/>
      <path d="M458.019,450.222a9.214,9.214,0,0,1,5.2,1.15A12.384,12.384,0,0,0,458.019,450.222Z" fill="#231815"/>
      <path d="M458.412,463.353s.14-4.727,4.223-5.176l1.4-.014a20.612,20.612,0,0,1-1.045,7.112l-.007.007h-9.042a.089.089,0,0,1-.042-.007,19.055,19.055,0,0,1-1.192-7.3L454.1,458S458.314,459.081,458.412,463.353Z" fill="#231815"/>
      <path d="M453.943,465.282H453.9v-.007A.089.089,0,0,0,453.943,465.282Z" fill="#231815"/>
    </g>
    <g>
      <path d="M476.889,510.558c-2.789,0-5.292-4.171-6.756-8.062-1.59,4.227-4.406,8.788-7.486,7.966-2.364-.624-2.432-4.966-2.173-8.016-4.343,5.23-7.612,7.306-9.515,6.015-.445-.305-1.789-1.226.3-9.479.006-.023.013-.047.022-.072a.767.767,0,1,1,1.474.415c-1.28,5.075-1.237,7.516-.912,7.884.7.471,3.535-.539,9.124-7.845a.767.767,0,0,1,1.366.594c-.6,3.545-.687,8.652.709,9.021,2.055.545,5-4.374,6.354-9.135a.767.767,0,0,1,1.476,0c1.351,4.761,4.294,9.685,6.353,9.135,1.4-.369,1.31-5.476.711-9.021a.767.767,0,0,1,1.366-.594c5.586,7.3,8.421,8.312,9.138,7.828.308-.352.354-2.808-.918-7.834l.724-.265.745-.182c2.107,8.325.755,9.246.312,9.549-1.9,1.291-5.168-.787-9.509-6.014.258,3.05.189,7.392-2.176,8.016A2.829,2.829,0,0,1,476.889,510.558Z" fill="#231815"/>
      <path d="M439.81,506.334a2.39,2.39,0,0,1-.663-.074,2.213,2.213,0,0,1-1.57-1.462,3.071,3.071,0,0,1,.914-2.872,66.7,66.7,0,0,0,4.079-5.727.789.789,0,0,1,.088-.112.767.767,0,0,1,1.184.972,66.645,66.645,0,0,1-4.174,5.851c-.486.581-.717,1.123-.62,1.451a.774.774,0,0,0,.543.431c.721.2,7.3-.884,11.847-6.2a.767.767,0,0,1,1.166,1C448.4,504.508,442.173,506.334,439.81,506.334Z" fill="#231815"/>
      <path d="M431.986,500.439a6.6,6.6,0,0,1-4.047-.953,2.567,2.567,0,0,1-1.121-2.231,2.37,2.37,0,0,1,1.279-1.676c8.678-3.578,8.843-3.646,10.914-23.188l.227-2.164c.348-3.32.748-7.14,1.247-11.54l.083-.744c.092-.832.186-1.68.289-2.55a85.117,85.117,0,0,1,3.192-15.33,71.135,71.135,0,0,1,15.511-27.275,49.717,49.717,0,0,1,10.162-8.625.767.767,0,0,1,.78,1.321c-.706.417-17.389,10.507-24.987,35.032a83.484,83.484,0,0,0-3.134,15.055c-.1.868-.2,1.713-.289,2.541l-.083.746c-.5,4.4-.9,8.212-1.245,11.529l-.228,2.166c-2.106,19.877-2.437,20.562-11.805,24.422-.074.043-.367.261-.391.471s.2.535.6.875c1.482,1.27,9.5.452,13.867-2.357a.767.767,0,1,1,.829,1.291A24.091,24.091,0,0,1,431.986,500.439Z" fill="#231815"/>
      <path d="M508.28,500.437a24.073,24.073,0,0,1-11.646-3.182.738.738,0,0,1-.151-.126.767.767,0,0,1,1.016-1.142c4.372,2.786,12.349,3.595,13.831,2.333.4-.341.621-.669.6-.877s-.35-.446-.439-.49c-9.327-3.841-9.658-4.526-11.757-24.4l-.136-1.294c-.371-3.516-.8-7.614-1.344-12.4-.112-1.069-.238-2.16-.371-3.286a82.887,82.887,0,0,0-3.135-15.056c-7.59-24.526-24.273-34.616-24.98-35.033a.767.767,0,0,1,.78-1.321,49.668,49.668,0,0,1,10.161,8.625,71.085,71.085,0,0,1,15.5,27.275A84.528,84.528,0,0,1,499.4,455.4c.133,1.131.26,2.228.372,3.3.542,4.784.974,8.886,1.344,12.405l.136,1.294c2.064,19.538,2.229,19.606,10.865,23.165a2.383,2.383,0,0,1,1.328,1.7,2.567,2.567,0,0,1-1.121,2.231A6.612,6.612,0,0,1,508.28,500.437Z" fill="#231815"/>
      <path d="M500.455,506.333c-2.369,0-8.593-1.825-12.793-6.742a.76.76,0,0,1-.112-.174.767.767,0,0,1,1.249-.862.791.791,0,0,1,.068.085c4.54,5.276,11.08,6.338,11.814,6.15a.772.772,0,0,0,.538-.429c.1-.328-.135-.87-.621-1.451a67.244,67.244,0,0,1-4.2-5.889.767.767,0,0,1,1.3-.822,66.941,66.941,0,0,0,4.079,5.727,3.071,3.071,0,0,1,.914,2.872,2.209,2.209,0,0,1-1.566,1.461A2.414,2.414,0,0,1,500.455,506.333Z" fill="#231815"/>
      <path d="M444.782,441.056a.748.748,0,0,1-.232-.036c-6.337-2.011-11.418-9.9-11.631-10.23a.766.766,0,0,1,.029-.867A72.91,72.91,0,0,1,469.9,404.087a.767.767,0,1,1,.471,1.459c-.021.008-.042.014-.063.02a71.238,71.238,0,0,0-35.8,24.834c1.145,1.658,5.51,7.571,10.509,9.158a.767.767,0,0,1-.232,1.5Z" fill="#231815"/>
      <path d="M495.477,441.056a.767.767,0,0,1-.232-1.5c5-1.587,9.371-7.5,10.517-9.158a71.246,71.246,0,0,0-35.8-24.834c-.022-.006-.043-.012-.064-.02a.767.767,0,1,1,.471-1.459,72.9,72.9,0,0,1,36.949,25.836.766.766,0,0,1,.029.867c-.213.334-5.294,8.219-11.638,10.23A.748.748,0,0,1,495.477,441.056Z" fill="#231815"/>
      <path d="M473.325,478.76h-5.591c-2.234,0-3.836-.553-4.762-1.644a3.406,3.406,0,0,1-.789-2.5,3.549,3.549,0,0,1,1.082-2.605c1.577-1.521,4.325-1.44,4.44-1.438h5.676c.087,0,2.836-.083,4.412,1.438a3.538,3.538,0,0,1,1.082,2.6,3.389,3.389,0,0,1-.784,2.5C477.166,478.206,475.563,478.76,473.325,478.76ZM467.6,472.1a5.217,5.217,0,0,0-3.269,1.012,2.049,2.049,0,0,0-.611,1.554.744.744,0,0,1-.01.125,1.829,1.829,0,0,0,.452,1.35c.617.709,1.854,1.083,3.575,1.083h5.591c1.725,0,2.962-.375,3.579-1.083a1.819,1.819,0,0,0,.446-1.359,1.111,1.111,0,0,1-.008-.116,2.049,2.049,0,0,0-.614-1.557,5.2,5.2,0,0,0-3.319-1.008H467.6Z" fill="#231815"/>
      <path d="M474.517,475.435H466.4a.767.767,0,0,1,0-1.534h8.116a.767.767,0,0,1,0,1.534Z" fill="#231815"/>
      <path d="M464.486,452.806a.754.754,0,0,1-.389-.107c-.38-.223-.774-.43-1.2-.632a10.259,10.259,0,0,0-4.921-1.08,12.2,12.2,0,0,0-6.12,1.69A.767.767,0,0,1,451,451.4a13.576,13.576,0,0,1,6.923-1.946,11.575,11.575,0,0,1,5.675,1.251,14.435,14.435,0,0,1,1.279.672.767.767,0,0,1-.39,1.428Z" fill="#231815"/>
      <path d="M462.992,466.043a.767.767,0,0,1-.1-1.528c.423-.055.839-.116,1.262-.191a.767.767,0,0,1,.268,1.511c-.447.079-.887.144-1.333.2A.678.678,0,0,1,462.992,466.043Z" fill="#231815"/>
      <path d="M458.605,466.312a42.956,42.956,0,0,1-4.749-.267.767.767,0,0,1,.174-1.525,38.608,38.608,0,0,0,8.837,0,.767.767,0,1,1,.194,1.521A35.439,35.439,0,0,1,458.605,466.312Z" fill="#231815"/>
      <path d="M453.9,466.043a.786.786,0,0,1-.083,0c-.946-.1-1.507-.2-1.507-.2a.767.767,0,0,1,.274-1.51c.014,0,.532.1,1.4.189a.767.767,0,0,1-.081,1.53Z" fill="#231815"/>
      <path d="M458.412,463.7h0a.352.352,0,0,1-.349-.343c-.091-3.96-4.011-5.01-4.05-5.02a.351.351,0,0,1,.047-.689c3.565-.4,4-4.677,4.012-4.859a.35.35,0,0,1,.346-.319c.195.038.333.134.351.314.463,4.429,3.782,5.019,3.923,5.042a.351.351,0,0,1-.017.695c-3.726.41-3.905,4.658-3.91,4.839A.352.352,0,0,1,458.412,463.7Zm-3.153-5.616a6.185,6.185,0,0,1,3.168,3.377A5.048,5.048,0,0,1,461.4,458.1a5.829,5.829,0,0,1-3-3.622A5.5,5.5,0,0,1,455.259,458.088Z" fill="#fff"/>
      <path d="M454.1,443.273a.767.767,0,0,1-.4-1.422,13.206,13.206,0,0,1,10.815-1.377.767.767,0,0,1-.446,1.468,11.519,11.519,0,0,0-9.57,1.219A.766.766,0,0,1,454.1,443.273Z" fill="#231815"/>
      <path d="M485.74,442.95a.764.764,0,0,1-.365-.092,11.562,11.562,0,0,0-9.043-.915.767.767,0,1,1-.444-1.469,13.079,13.079,0,0,1,10.218,1.035.767.767,0,0,1-.366,1.441Z" fill="#231815"/>
      <path d="M476.468,452.806a.767.767,0,0,1-.39-1.428c.409-.241.832-.464,1.291-.681a9.4,9.4,0,0,1,5.761-1.236,13.444,13.444,0,0,1,6.824,1.94.767.767,0,0,1-.85,1.277,12.275,12.275,0,0,0-6.078-1.689,8.055,8.055,0,0,0-4.874,1.028.714.714,0,0,1-.09.05c-.431.2-.825.409-1.2.632A.754.754,0,0,1,476.468,452.806Z" fill="#231815"/>
      <path d="M477.963,466.043a.7.7,0,0,1-.1-.007c-.44-.058-.887-.123-1.328-.2a.767.767,0,0,1,.273-1.51c.416.076.838.137,1.254.191a.767.767,0,0,1-.1,1.528Z" fill="#231815"/>
      <path d="M482.356,466.312a35.465,35.465,0,0,1-4.457-.269.767.767,0,0,1,.195-1.521,38.423,38.423,0,0,0,8.836,0,.767.767,0,1,1,.174,1.525A42.919,42.919,0,0,1,482.356,466.312Z" fill="#231815"/>
      <path d="M487.058,466.043a.767.767,0,0,1-.081-1.53c.866-.093,1.383-.186,1.4-.189a.767.767,0,0,1,.274,1.51s-.561.1-1.508.2A.755.755,0,0,1,487.058,466.043Z" fill="#231815"/>
      <path d="M482.542,463.7a.351.351,0,0,1-.35-.34c-.006-.181-.185-4.429-3.911-4.839a.351.351,0,0,1-.017-.695c.141-.023,3.46-.614,3.93-5.043a.349.349,0,0,1,.348-.313h0a.351.351,0,0,1,.347.32c.016.181.438,4.455,4,4.858a.351.351,0,0,1,.048.688,5.458,5.458,0,0,0-4.051,5.022.352.352,0,0,1-.349.342Zm-2.983-5.6a5.057,5.057,0,0,1,2.97,3.364,6.188,6.188,0,0,1,3.167-3.38,5.492,5.492,0,0,1-3.132-3.606A5.836,5.836,0,0,1,479.559,458.1Z" fill="#fff"/>
    </g>
  </g>
  <g>
    <g>
      <path d="M286.049,460.99v14.792a30.158,30.158,0,0,0,2.487,7.643c1.611,2.836,3.883,9.1.668,12.194s-19.9,3.337-22.628,3.519-16.379-.486-18.2-1.032-2.245-2.062-2.973-1.395-3.4,1.274-4.914,1.153-2.487-2.108-1.274-4.421,4.429-4.194,6.795-3.951,3.822,1.031,5.7.728,12.5-5.763,15.47-7.159A6.756,6.756,0,0,0,271.247,477v-16Z" fill="#f4aeb6"/>
      <path d="M265.3,499.942c-4.35,0-15.372-.56-17.147-1.092a5.55,5.55,0,0,1-2.1-1.243c-.079-.068-.176-.151-.256-.214a10.085,10.085,0,0,1-5.367,1.244,2.639,2.639,0,0,1-2.111-1.411,4.411,4.411,0,0,1,.212-4.143c1.362-2.6,4.892-4.64,7.561-4.363a20.206,20.206,0,0,1,2.509.448,7.622,7.622,0,0,0,2.991.286c1.284-.208,7.834-3.444,11.747-5.377,1.489-.736,2.753-1.36,3.516-1.718a5.951,5.951,0,0,0,3.618-5.336V460.99a.775.775,0,0,1,.776-.776h14.8a.776.776,0,0,1,.777.776v14.719a29.006,29.006,0,0,0,2.385,7.333c1.862,3.278,4.068,9.733.531,13.136-2.646,2.547-12.3,3.276-21.389,3.653-.774.032-1.369.057-1.725.081C266.323,499.932,265.868,499.942,265.3,499.942Zm-19.559-4.178a2.193,2.193,0,0,1,1.322.667,4.019,4.019,0,0,0,1.536.931c1.667.5,15.239,1.179,17.924,1,.364-.024.974-.05,1.765-.083,4.4-.182,17.8-.738,20.376-3.22,2.65-2.55.972-8.126-.8-11.251a30.537,30.537,0,0,1-2.577-7.888.807.807,0,0,1-.012-.139V461.766h-13.25V477a7.48,7.48,0,0,1-4.511,6.769c-.756.355-2.01.974-3.488,1.7-5.839,2.885-10.786,5.291-12.187,5.517a9.009,9.009,0,0,1-3.579-.3,18.754,18.754,0,0,0-2.327-.418c-2.035-.2-4.963,1.512-6.027,3.539a2.9,2.9,0,0,0-.227,2.673,1.1,1.1,0,0,0,.875.613,8.509,8.509,0,0,0,4.328-.95A1.258,1.258,0,0,1,245.742,495.764Z" fill="#231815"/>
    </g>
    <g>
      <path d="M322.205,460.99v14.792a30.158,30.158,0,0,1-2.487,7.643c-1.611,2.836-3.883,9.1-.667,12.194s19.9,3.337,22.627,3.519,16.38-.486,18.2-1.032,2.244-2.062,2.972-1.395,3.4,1.274,4.914,1.153,2.487-2.108,1.274-4.421-4.429-4.194-6.794-3.951-3.822,1.031-5.7.728-12.5-5.763-15.469-7.159A6.756,6.756,0,0,1,337.007,477v-16Z" fill="#f4aeb6"/>
      <path d="M342.953,499.942c-.567,0-1.021-.01-1.326-.03-.356-.024-.952-.049-1.726-.081-9.091-.377-18.742-1.106-21.388-3.653-3.538-3.4-1.332-9.858.53-13.136a29.063,29.063,0,0,0,2.386-7.333V460.99a.775.775,0,0,1,.776-.776h14.8a.776.776,0,0,1,.777.776v16a5.952,5.952,0,0,0,3.617,5.364c.763.358,2.027.982,3.516,1.718,3.913,1.933,10.463,5.169,11.747,5.377a7.606,7.606,0,0,0,2.991-.287,20.407,20.407,0,0,1,2.509-.447c2.666-.272,6.2,1.765,7.561,4.363a4.411,4.411,0,0,1,.212,4.143,2.639,2.639,0,0,1-2.111,1.411,10.047,10.047,0,0,1-5.368-1.243c-.079.063-.175.145-.255.214a5.558,5.558,0,0,1-2.1,1.242C358.326,499.382,347.305,499.942,342.953,499.942Zm-19.972-38.176v14.016a.807.807,0,0,1-.012.139,30.537,30.537,0,0,1-2.577,7.888c-1.775,3.125-3.453,8.7-.8,11.251,2.579,2.482,15.975,3.038,20.377,3.22.791.033,1.4.059,1.764.083,2.677.178,16.257-.5,17.925-1a4.006,4.006,0,0,0,1.535-.931c.451-.389,1.291-1.113,2.185-.292a8.536,8.536,0,0,0,4.327.95,1.1,1.1,0,0,0,.875-.613,2.9,2.9,0,0,0-.227-2.673c-1.064-2.027-3.993-3.742-6.027-3.539a18.7,18.7,0,0,0-2.326.418,9.011,9.011,0,0,1-3.58.3c-1.4-.226-6.348-2.632-12.187-5.517-1.478-.731-2.732-1.35-3.488-1.7a7.483,7.483,0,0,1-4.51-6.8v-15.2Zm-.776,14.016h0Z" fill="#231815"/>
    </g>
    <g>
      <polygon points="263.525 440.191 263.525 464.092 291.948 464.092 291.948 444.494 263.525 440.191" fill="#121659"/>
      <path d="M291.948,464.869H263.525a.777.777,0,0,1-.777-.777v-23.9a.776.776,0,0,1,.271-.589.786.786,0,0,1,.622-.179l28.423,4.3a.776.776,0,0,1,.66.767v19.6A.777.777,0,0,1,291.948,464.869ZM264.3,463.316h26.87V445.162l-26.87-4.069Z" fill="#231815"/>
    </g>
    <g>
      <polygon points="344.729 440.191 344.729 464.092 316.306 464.092 316.306 444.494 344.729 440.191" fill="#121659"/>
      <path d="M344.729,464.869H316.306a.777.777,0,0,1-.776-.777v-19.6a.776.776,0,0,1,.66-.767l28.423-4.3a.778.778,0,0,1,.893.768v23.9A.777.777,0,0,1,344.729,464.869Zm-27.646-1.553h26.87V441.093l-26.87,4.069Z" fill="#231815"/>
    </g>
    <g>
      <path d="M347.1,378.443l2.5,66.762a151.891,151.891,0,0,1-45.769,7.684,151.893,151.893,0,0,1-45.77-7.684l2.5-67.865" fill="#97d2ce"/>
      <path d="M303.837,453.666c-24.253,0-45.818-7.654-46.032-7.731a.777.777,0,0,1-.514-.759l2.5-67.864a.777.777,0,0,1,1.552.057l-2.482,67.289c3.452,1.165,23.11,7.455,44.973,7.455s41.52-6.289,44.972-7.455l-2.48-66.186a.775.775,0,0,1,.746-.8.764.764,0,0,1,.805.746l2.5,66.761a.777.777,0,0,1-.513.76C349.654,446.012,328.089,453.666,303.837,453.666Z" fill="#231815"/>
    </g>
    <g>
      <g>
        <path d="M364.092,255.985l11.915,21.276c-14.068,16.286-26.145,19.522-26.145,19.522s-13.852,3.831-16.764-12.239c-2.305-12.694,20.1-21.579,20.1-21.579A79.57,79.57,0,0,0,364.092,255.985Z" fill="#e84572"/>
        <path d="M408.754,214.136c.336-.151,6.937-3.214,8.5-1.666,1.3,1.3.152,3.073-1.915,4.145S404.4,222.5,404.4,222.5c-8.257,26.427-18.787,43.634-28.4,54.759l-11.915-21.276c20.768-15.822,29.306-37.9,29.306-37.9s-4.74-11.276-5.065-12.423c-.725-2.532.065-3.863,1.624-3.68,2.023.249,4.956,6.916,4.956,6.916s3.42-9.794,3.82-10.974a3.007,3.007,0,0,1,3.745-2.1c2.012.671,1.406,3.787,1.406,3.787.585-1.9,2.2-2.662,3.691-2,1.937.834,1.158,3.572,1.049,3.907.563-1.266,2-2.965,3.777-2.132,2.154,1.028.7,4.2.7,4.2Z" fill="#f4aeb6"/>
      </g>
      <g>
        <path d="M399.815,210.584a.763.763,0,0,1-.287-.056.774.774,0,0,1-.433-1.008l4.069-10.194a3.847,3.847,0,0,1,2.016-2.437,3.269,3.269,0,0,1,2.708.012c2.108.907,1.919,3.479,1.475,4.856a.776.776,0,1,1-1.477-.478c.007-.023.747-2.367-.618-2.955a1.715,1.715,0,0,0-1.443-.023,2.385,2.385,0,0,0-1.2,1.54L400.536,210.1A.776.776,0,0,1,399.815,210.584Z" fill="#231815"/>
        <path d="M408.754,214.913a.777.777,0,0,1-.718-1.073l4.351-10.551c.022-.05,1.117-2.516-.32-3.2a1.338,1.338,0,0,0-1.076-.059,3.455,3.455,0,0,0-1.643,1.773c-.007.021-.015.041-.024.062-.539,1.226-3.989,10.075-4.024,10.163a.776.776,0,1,1-1.446-.563c.141-.363,3.44-8.823,4.034-10.191.008-.023.017-.047.027-.069a4.987,4.987,0,0,1,2.534-2.629,2.891,2.891,0,0,1,2.282.11c2.253,1.075,1.691,3.887,1.08,5.224l-4.339,10.524A.777.777,0,0,1,408.754,214.913Z" fill="#231815"/>
        <path d="M346.36,297.965a13.817,13.817,0,0,1-7.38-2c-3.446-2.164-5.682-5.959-6.645-11.278-2.391-13.168,19.635-22.066,20.574-22.439a79.509,79.509,0,0,0,10.714-6.877c19.089-14.543,27.849-34.647,28.935-37.274-.854-2.034-4.663-11.127-4.972-12.218-.623-2.179-.165-3.33.33-3.912a2.338,2.338,0,0,1,2.132-.749c1.736.213,3.627,3.393,4.757,5.639,1.006-2.883,2.9-8.317,3.193-9.176a3.773,3.773,0,0,1,4.725-2.587c2.1.7,2.2,3.267,1.923,4.672a.776.776,0,0,1-1.524-.294c0-.024.429-2.465-.89-2.905-1.943-.65-2.759,1.6-2.766,1.621-.4,1.172-3.82,10.971-3.82,10.971a.777.777,0,0,1-1.444.057c-1.331-3.024-3.393-6.341-4.34-6.457-.528-.066-.705.146-.764.214a3.022,3.022,0,0,0-.019,2.481c.23.811,3.137,7.822,5.034,12.337a.776.776,0,0,1,.009.58c-.087.223-8.857,22.464-29.56,38.236a80.569,80.569,0,0,1-11,7.049c-.294.122-21.86,8.833-19.695,20.754.881,4.865,2.877,8.308,5.93,10.232,4.479,2.824,9.81,1.412,9.864,1.4.123-.033,12.045-3.4,25.764-19.282,11.664-13.5,21.166-31.834,28.243-54.483a.777.777,0,0,1,.369-.45c.362-.2,8.886-4.843,10.949-5.9a3.592,3.592,0,0,0,2.031-2.08.9.9,0,0,0-.311-.824c-.551-.546-3.4-.1-7.59,1.808h0a.781.781,0,0,1-.911-.135.77.77,0,0,1,0-1.093.841.841,0,0,1,.24-.169c3.42-1.558,7.79-3.072,9.361-1.51a2.442,2.442,0,0,1,.75,2.162,4.875,4.875,0,0,1-2.855,3.223c-1.843.941-9.128,4.905-10.64,5.729-7.131,22.715-16.7,41.129-28.456,54.735-14.063,16.28-26.03,19.631-26.533,19.765A15.024,15.024,0,0,1,346.36,297.965Z" fill="#231815"/>
        <path d="M376.008,278.037a.776.776,0,0,1-.678-.4l-11.915-21.276a.778.778,0,1,1,1.393-.689l11.876,21.206a.776.776,0,0,1-.676,1.156Z" fill="#231815"/>
      </g>
    </g>
    <g>
      <g>
        <path d="M252.624,316.952l-15.856-18.525c10.6-18.73,21.808-24.272,21.808-24.272s12.831-6.474,18.838,8.714c4.75,11.995-15.473,25.1-15.473,25.1A79.653,79.653,0,0,0,252.624,316.952Z" fill="#e84572"/>
        <path d="M217.039,366.748c-.3.215-6.171,4.513-8,3.3-1.528-1.019-.752-2.984,1.065-4.44s9.563-7.917,9.563-7.917c2.913-27.533,9.863-46.471,17.1-59.265l15.856,18.525c-17.26,19.588-21.3,42.911-21.3,42.911s6.86,10.128,7.4,11.189c1.208,2.341.695,3.8-.87,3.926-2.033.153-6.216-5.809-6.216-5.809s-1.432,10.275-1.594,11.51a3.006,3.006,0,0,1-3.259,2.793c-2.106-.263-2.123-3.438-2.123-3.438-.2,1.982-1.632,3.041-3.226,2.687-2.063-.437-1.836-3.275-1.8-3.625-.3,1.352-1.382,3.3-3.286,2.832-2.313-.586-1.513-3.98-1.513-3.98Z" fill="#f4aeb6"/>
      </g>
      <g>
        <path d="M222.04,383.565a3.524,3.524,0,0,1-.771-.086c-2.241-.475-2.563-3.034-2.4-4.471a.776.776,0,1,1,1.542.177c-.011.1-.265,2.469,1.186,2.777a1.707,1.707,0,0,0,1.419-.26,2.379,2.379,0,0,0,.873-1.746l2-10.857a.776.776,0,0,1,1.527.281l-1.991,10.794a3.848,3.848,0,0,1-1.5,2.786A3.2,3.2,0,0,1,222.04,383.565Z" fill="#231815"/>
        <path d="M216.919,382.774a3.126,3.126,0,0,1-.748-.093c-2.421-.613-2.421-3.48-2.083-4.911l2.189-11.171a.777.777,0,0,1,1.524.3l-2.2,11.2c-.012.053-.6,2.686.942,3.077a1.329,1.329,0,0,0,1.067-.154,3.449,3.449,0,0,0,1.262-2.061c0-.022.007-.043.012-.065.288-1.307,1.935-10.661,1.952-10.756a.776.776,0,1,1,1.529.27c-.068.383-1.644,9.331-1.958,10.785a.6.6,0,0,1-.012.072,4.989,4.989,0,0,1-1.968,3.074A2.841,2.841,0,0,1,216.919,382.774Z" fill="#231815"/>
        <path d="M227.2,384.275a4.129,4.129,0,0,1-.511-.033c-2.195-.274-2.794-2.772-2.8-4.2a.776.776,0,0,1,.77-.78h.006a.777.777,0,0,1,.776.77c0,.025.064,2.5,1.443,2.674,2.038.248,2.392-2.109,2.395-2.132.16-1.228,1.593-11.507,1.593-11.507a.776.776,0,0,1,1.4-.339c1.9,2.7,4.578,5.567,5.523,5.48.53-.042.663-.281.707-.36a3.015,3.015,0,0,0-.469-2.436c-.383-.75-4.609-7.055-7.355-11.11a.775.775,0,0,1-.123-.567c.041-.236,4.279-23.766,21.485-43.292a80.607,80.607,0,0,1,9.409-9.07c.265-.177,19.7-12.949,15.241-24.215-1.818-4.6-4.45-7.582-7.822-8.87-4.945-1.888-9.9.54-9.945.564-.114.057-11.145,5.7-21.482,23.962-8.788,15.528-14.511,35.366-17.007,58.964a.783.783,0,0,1-.274.514c-.316.264-7.763,6.492-9.58,7.93A3.6,3.6,0,0,0,209,368.655a.9.9,0,0,0,.468.748c.648.431,3.355-.567,7.089-3.263h0a.782.782,0,0,1,.929-.036.77.77,0,0,1,.2,1.074.907.907,0,0,1-.194.2c-2.5,1.8-6.937,4.6-8.884,3.316a2.439,2.439,0,0,1-1.159-1.972,4.87,4.87,0,0,1,2.167-3.72c1.622-1.284,7.987-6.6,9.309-7.706,2.537-23.673,8.312-43.608,17.167-59.253,10.6-18.723,21.673-24.355,22.14-24.586.22-.111,5.582-2.76,11.176-.631,3.8,1.446,6.739,4.728,8.728,9.755,4.927,12.443-14.925,25.489-15.772,26.039a79.279,79.279,0,0,0-9.158,8.844c-15.853,17.991-20.51,39.436-21.062,42.227,1.237,1.827,6.755,10,7.272,11,1.039,2.015.815,3.233.445,3.9a2.338,2.338,0,0,1-1.944,1.153c-1.719.161-4.222-2.615-5.771-4.6-.421,3.024-1.214,8.724-1.331,9.623A3.833,3.833,0,0,1,227.2,384.275Z" fill="#231815"/>
        <path d="M252.622,317.734a.774.774,0,0,1-.639-.337l-15.805-18.465a.776.776,0,0,1,1.179-1.01l15.857,18.525a.781.781,0,0,1-.416,1.267A.761.761,0,0,1,252.622,317.734Z" fill="#231815"/>
      </g>
    </g>
    <g>
      <path d="M303.837,264.739h28.921s16.848,1.37,16.848,24.723-2.265,83.093-2.265,83.093a159.436,159.436,0,0,1-43.5,6.664,159.436,159.436,0,0,1-43.5-6.664s-2.266-59.741-2.266-83.093,16.849-24.723,16.849-24.723Z" fill="#e84572"/>
      <path d="M303.837,380c-22.754,0-43.536-6.635-43.743-6.7a.779.779,0,0,1-.537-.709c-.023-.6-2.266-60.023-2.266-83.123,0-23.793,17.387-25.482,17.562-25.5l57.9,0c.238.017,17.625,1.706,17.625,25.5,0,23.1-2.244,82.525-2.267,83.123a.777.777,0,0,1-.537.709C347.372,373.361,326.59,380,303.837,380Zm-42.749-8.019c3.328,1.011,22.232,6.466,42.749,6.466s39.42-5.454,42.749-6.466c.227-6.079,2.244-60.635,2.244-82.515,0-22.321-15.477-23.893-16.136-23.949l-57.778,0c-.595.053-16.072,1.625-16.072,23.946C258.844,311.342,260.861,365.9,261.088,371.977Z" fill="#231815"/>
    </g>
    <g>
      <g>
        <path d="M262.107,219.926c.173,2.435.4,4.719.66,6.872-3.658,0-9.437-1.06-8.906-7.813s7.932-5.909,7.932-5.909C261.847,215.489,261.955,217.762,262.107,219.926Z" fill="#f4aeb6"/>
        <path d="M345.652,219.926c.141-2.153.249-4.437.292-6.85h.011s7.38-.855,7.921,5.909c.542,6.742-5.216,7.8-8.873,7.813Q345.392,223.6,345.652,219.926Z" fill="#f4aeb6"/>
        <path d="M307.8,228.778c.13,1.71-1.255,3.128-3.961,3.128s-4.091-1.418-3.961-3.128,3.961-11.828,3.961-11.828S307.678,227.058,307.8,228.778Z" fill="#f4aeb6"/>
        <path d="M325.015,209.84a8.32,8.32,0,1,0,2.326,5.768A8.3,8.3,0,0,0,325.015,209.84Zm-21.168,38.916a18.206,18.206,0,0,0,4.967-.65,13.5,13.5,0,0,0,5.963-3.365,10.081,10.081,0,0,0,3.138-5.92,4.728,4.728,0,0,0,0-.79,3.607,3.607,0,0,0-3.43-3.311H293.2a3.622,3.622,0,0,0-3.441,3.311,4.728,4.728,0,0,0,0,.79,10.106,10.106,0,0,0,3.149,5.92,13.553,13.553,0,0,0,5.952,3.365,18.289,18.289,0,0,0,4.978.65c-3.571,4.913-13.549,8.289-13.549,8.289-13.473-6.6-20-23.721-16.763-46.09,4.166-28.765,30.042-28.841,30.312-28.841s26.146.076,30.323,28.841c3.247,22.39-3.214,39.521-16.752,46.1l-.011-.011s-9.978-3.376-13.56-8.289Zm-.011-16.85c2.706,0,4.091-1.418,3.961-3.128s-3.961-11.828-3.961-11.828-3.842,10.108-3.961,11.828S301.131,231.906,303.836,231.906Zm-6.926-16.3a8.328,8.328,0,1,0-8.322,8.322A8.328,8.328,0,0,0,296.91,215.608Z" fill="#f4aeb6"/>
        <path d="M303.836,248.756c3.582,4.913,13.56,8.289,13.56,8.289l.011.011a32.545,32.545,0,0,1-27.12-.011S300.265,253.669,303.836,248.756Z" fill="#231815"/>
        <path d="M303.836,244.741v4.015a18.289,18.289,0,0,1-4.978-.65v-3.365Z" fill="#fff"/>
        <path d="M298.858,244.741v3.365a13.553,13.553,0,0,1-5.952-3.365Z" fill="#fff"/>
        <path d="M308.814,244.741h5.963a13.5,13.5,0,0,1-5.963,3.365Z" fill="#fff"/>
        <path d="M308.814,244.741v3.365a18.206,18.206,0,0,1-4.967.65h-.011v-4.015Z" fill="#fff"/>
        <rect x="293.88" y="234.72" width="4.978" height="4.101" fill="#fff"/>
        <rect x="298.858" y="234.72" width="4.978" height="4.101" fill="#fff"/>
        <path d="M293.88,234.72v4.1h-4.123a4.728,4.728,0,0,1,0-.79,3.622,3.622,0,0,1,3.441-3.311Z" fill="#fff"/>
        <rect x="308.814" y="234.72" width="4.989" height="4.101" fill="#fff"/>
        <rect x="303.836" y="234.72" width="4.978" height="4.101" fill="#fff"/>
        <path d="M317.915,238.031a4.728,4.728,0,0,1,0,.79H313.8v-4.1h.682A3.607,3.607,0,0,1,317.915,238.031Z" fill="#fff"/>
        <path d="M325.015,209.84a8.32,8.32,0,1,1-6.007-2.565A8.271,8.271,0,0,1,325.015,209.84Zm-1.829,5.768a4.172,4.172,0,1,0-4.178,4.167A4.171,4.171,0,0,0,323.186,215.608Z" fill="#fff"/>
        <path d="M282.582,209.84a8.319,8.319,0,1,1-2.327,5.768A8.3,8.3,0,0,1,282.582,209.84Zm10.172,5.768a4.172,4.172,0,1,0-4.166,4.167A4.161,4.161,0,0,0,292.754,215.608Z" fill="#fff"/>
        <path d="M313.8,238.821h4.112a10.081,10.081,0,0,1-3.138,5.92H292.906a10.106,10.106,0,0,1-3.149-5.92H313.8Z" fill="#e84572"/>
        <path d="M320.437,215.608a1.429,1.429,0,1,0-1.429,1.429A1.427,1.427,0,0,0,320.437,215.608Zm-1.429-4.166a4.167,4.167,0,1,1-4.166,4.166A4.171,4.171,0,0,1,319.008,211.442Z" fill="#97d2ce"/>
        <path d="M284.411,215.608a4.172,4.172,0,1,1,4.177,4.167A4.17,4.17,0,0,1,284.411,215.608Zm4.177-1.428a1.429,1.429,0,1,0,1.429,1.428A1.426,1.426,0,0,0,288.588,214.18Z" fill="#97d2ce"/>
        <path d="M303.814,98.808c-.735.411-21.687,12.445-34.489,59.336,0,0-12.9-8.841-18.743-18.386C250.582,139.758,285.028,105.972,303.814,98.808Z" fill="#97d2ce"/>
        <path d="M303.858,98.808c18.787,7.164,53.233,40.95,53.233,40.95-5.844,9.545-18.744,18.386-18.744,18.386C325.545,111.253,304.594,99.219,303.858,98.808Z" fill="#97d2ce"/>
        <path d="M291.088,276.4c-2.8,3.268-4.318,9.88-2.424,12.4,4.837,6.449,5.021,8.116,2.359,10.421-2.359,2.035-8.052.217-11.7-5.259s-1.19-11.288-.876-16.98a10.455,10.455,0,0,0-1.418-6.017l-1.147.433c-9.664.866-6.547,6.883-4.621,12.575s.108,11.06-2.575,13.2-7.944,3.225-7.2-5.368-4.513-5.259-7.738-15.789a12.432,12.432,0,0,1,5.855-15.064c10.638-6.179,5.573-14.188,3.16-34.154-.26-2.153-.487-4.437-.66-6.872-.152-2.164-.26-4.437-.314-6.85a168.719,168.719,0,0,1,2.716-33.2c1.4-7.965,3.02-15.183,4.816-21.73,12.8-46.891,33.754-58.925,34.489-59.336.011,0,.011-.011.022-.011s.011.011.022.011c.736.411,21.687,12.445,34.489,59.336,1.8,6.547,3.42,13.765,4.816,21.73a171.013,171.013,0,0,1,2.781,33.2c-.043,2.413-.151,4.7-.292,6.85q-.26,3.669-.649,6.872c-2.262,19.317-6.97,26.763,3.592,32.9,0,0,11.6,6.114,13,12.672,2.576,12.077-7.088,13.095-7.088,20.291s-5.368,6.775-6.98,3.117-1.472-8.257.422-13.16c3.009-7.781-5.162-12.932-10.151-12.564a20.254,20.254,0,0,0,1.136,2.738c3.431,6.98,2.251,12.25,0,18.689s-6.98,10.422-9.988,8.55,0-7.37.963-11.526a12.567,12.567,0,0,0-5.043-12.769c-4.4-2.966-10.714,0-10.714,0a9.138,9.138,0,0,1,.834,5.54c-.433,3.983-1.4,9.675.855,11.818a10.558,10.558,0,0,1,2.683,9.134c-.638,3.008-3.863,2.359-3.863,2.359-9.567-3.539-10.205-8.16-11.276-16.428S291.088,276.4,291.088,276.4Zm26.319-19.339c13.538-6.58,20-23.711,16.752-46.1-4.177-28.765-30.052-28.841-30.323-28.841s-26.146.076-30.312,28.841c-3.236,22.369,3.29,39.489,16.763,46.09a32.545,32.545,0,0,0,27.12.011Z" fill="#97d2ce"/>
        <circle cx="319.008" cy="215.608" r="1.428" fill="#231815"/>
        <circle cx="288.588" cy="215.608" r="1.428" fill="#231815"/>
      </g>
      <g>
        <path d="M288.524,300.8a6.8,6.8,0,0,1-.931-.065c-3.18-.434-6.6-2.867-8.914-6.348-2.874-4.31-2.193-8.763-1.535-13.07.221-1.445.45-2.939.529-4.383a9.667,9.667,0,0,0-1.309-5.576,8.15,8.15,0,0,0-1.9-2.237.776.776,0,0,1,.91-1.258,9.512,9.512,0,0,1,2.323,2.7,11.34,11.34,0,0,1,1.526,6.456c-.084,1.519-.318,3.051-.544,4.532-.642,4.2-1.248,8.166,1.292,11.975,2.485,3.732,5.675,5.377,7.833,5.671a3.419,3.419,0,0,0,2.712-.569c2.051-1.775,2.507-2.728-2.473-9.368-2.227-2.964-.482-9.947,2.455-13.373a5.522,5.522,0,0,1,3.566-2.15.776.776,0,1,1,.151,1.545,4.114,4.114,0,0,0-2.538,1.616c-2.68,3.125-3.977,9.321-2.393,11.43,4.654,6.205,5.571,8.6,2.247,11.475A4.531,4.531,0,0,1,288.524,300.8Z" fill="#231815"/>
        <path d="M315.4,305.431a4.562,4.562,0,0,1-.894-.085.765.765,0,0,1-.116-.032c-10.049-3.717-10.7-8.738-11.777-17.056-1-7.682-11.648-11.089-11.755-11.122a.777.777,0,0,1,.461-1.483c.477.149,11.7,3.732,12.833,12.4,1.069,8.242,1.606,12.389,10.713,15.776a2.37,2.37,0,0,0,2.9-1.768,9.83,9.83,0,0,0-2.461-8.412c-2.293-2.184-1.709-7.161-1.239-11.161.053-.448.1-.884.149-1.3a8.4,8.4,0,0,0-.743-5.086,9.132,9.132,0,0,0-3.013-3.095.776.776,0,1,1,.873-1.283,10.62,10.62,0,0,1,3.5,3.635,9.858,9.858,0,0,1,.923,6c-.046.422-.1.862-.15,1.315-.407,3.463-.964,8.207.769,9.857a11.36,11.36,0,0,1,2.907,9.859A3.705,3.705,0,0,1,315.4,305.431Z" fill="#231815"/>
        <path d="M330.586,301.271a3.836,3.836,0,0,1-2.053-.582c-2.775-1.727-1.483-5.667-.342-9.142.357-1.089.726-2.215.959-3.218a11.873,11.873,0,0,0-4.72-11.95c-3.981-2.679-9.892.031-9.951.058a.776.776,0,0,1-.66-1.405c.275-.128,6.762-3.115,11.478.058a13.316,13.316,0,0,1,5.365,13.59c-.248,1.071-.628,2.229-1,3.35-1.01,3.077-2.053,6.258-.313,7.341a2.611,2.611,0,0,0,2.338.143c2.457-.865,5.072-4.2,6.508-8.29,2.1-6.014,3.44-11.165.036-18.091a20.77,20.77,0,0,1-1.18-2.846c-1.683-5.185,1.064-6.236,1.182-6.278a.776.776,0,1,1,.523,1.461c-.477.216-1.177,1.417-.226,4.344a19.448,19.448,0,0,0,1.1,2.636c3.662,7.452,2.183,13.143.035,19.287-1.608,4.585-4.535,8.212-7.457,9.241A4.893,4.893,0,0,1,330.586,301.271Z" fill="#231815"/>
        <path d="M303.836,260.787a31.269,31.269,0,0,1-13.891-3.045c-14.017-6.868-20.443-24.4-17.189-46.9,4.225-29.17,29.986-29.5,31.08-29.5s26.855.335,31.091,29.5c3.271,22.556-3.152,40.093-17.181,46.912A31.4,31.4,0,0,1,303.836,260.787Zm0-77.9c-1.039,0-25.51.32-29.544,28.175-3.153,21.8,2.954,38.726,16.336,45.282h0a31.77,31.77,0,0,0,26.437.011c13.391-6.509,19.493-23.44,16.325-45.293C329.346,183.211,304.876,182.891,303.836,182.891Z" fill="#231815"/>
        <path d="M262.778,227.574c-2.489,0-5.877-.469-7.944-2.7a7.528,7.528,0,0,1-1.747-5.946,6.768,6.768,0,0,1,2.367-4.912,9.428,9.428,0,0,1,6.429-1.707.776.776,0,0,1-.178,1.542c-.03,0-3.2-.336-5.272,1.369a5.283,5.283,0,0,0-1.8,3.831,6.049,6.049,0,0,0,1.339,4.769c1.686,1.823,4.624,2.206,6.793,2.206a.781.781,0,0,1,.782.776A.772.772,0,0,1,262.778,227.574Z" fill="#231815"/>
        <path d="M262.117,220.7H258.3a.777.777,0,1,1,0-1.553h3.809a.781.781,0,0,1,.781.776A.772.772,0,0,1,262.117,220.7Z" fill="#231815"/>
        <path d="M345.005,227.574l-.035-1.552c2.2-.007,5.135-.4,6.808-2.214a6.042,6.042,0,0,0,1.325-4.761,5.288,5.288,0,0,0-1.8-3.833,7.942,7.942,0,0,0-5.261-1.367.776.776,0,0,1-.177-1.542,9.415,9.415,0,0,1,6.416,1.7,6.772,6.772,0,0,1,2.368,4.913,7.513,7.513,0,0,1-1.73,5.937C350.867,227.09,347.483,227.567,345.005,227.574Z" fill="#231815"/>
        <path d="M349.439,220.7h-3.787a.786.786,0,0,1-.787-.777.767.767,0,0,1,.765-.776h3.809a.777.777,0,1,1,0,1.553Z" fill="#231815"/>
        <path d="M303.836,232.682a4.991,4.991,0,0,1-3.855-1.4,3.35,3.35,0,0,1-.88-2.559c.123-1.779,3.612-11,4.01-12.046a.776.776,0,0,1,1.451,0c.4,1.046,3.886,10.267,4.009,12.051a3.345,3.345,0,0,1-.88,2.554A4.991,4.991,0,0,1,303.836,232.682Zm0-13.521c-1.413,3.815-3.118,8.68-3.186,9.671a1.789,1.789,0,0,0,.469,1.392,4.527,4.527,0,0,0,5.434,0,1.789,1.789,0,0,0,.47-1.387C306.954,227.842,305.249,222.976,303.836,219.161Z" fill="#231815"/>
        <path d="M303.847,249.532h-.011a19.2,19.2,0,0,1-5.188-.678,14.288,14.288,0,0,1-6.286-3.56,10.861,10.861,0,0,1-3.378-6.4,5.554,5.554,0,0,1,0-.931,4.348,4.348,0,0,1,4.185-4.018h21.316a4.338,4.338,0,0,1,4.2,4.015,5.555,5.555,0,0,1,0,.922,10.874,10.874,0,0,1-3.369,6.416,14.211,14.211,0,0,1-6.3,3.558A19.145,19.145,0,0,1,303.847,249.532ZM293.2,235.5a2.8,2.8,0,0,0-2.669,2.612,4.085,4.085,0,0,0,0,.654,9.323,9.323,0,0,0,2.917,5.423,12.76,12.76,0,0,0,5.618,3.174,17.627,17.627,0,0,0,4.77.62h.011a17.557,17.557,0,0,0,4.757-.62,12.678,12.678,0,0,0,5.626-3.169,9.277,9.277,0,0,0,2.912-5.435,4.075,4.075,0,0,0,0-.654,2.789,2.789,0,0,0-2.691-2.606Z" fill="#231815"/>
        <path d="M317.937,239.6h-28.18a.781.781,0,0,1-.782-.777.772.772,0,0,1,.771-.776h28.169a.786.786,0,0,1,.787.776A.767.767,0,0,1,317.937,239.6Z" fill="#231815"/>
        <path d="M303.836,239.6a.777.777,0,0,1-.776-.777v-4.1a.777.777,0,1,1,1.553,0v4.1A.777.777,0,0,1,303.836,239.6Z" fill="#231815"/>
        <path d="M298.858,239.6a.777.777,0,0,1-.776-.777v-4.1a.777.777,0,1,1,1.553,0v4.1A.777.777,0,0,1,298.858,239.6Z" fill="#231815"/>
        <path d="M293.88,239.6a.777.777,0,0,1-.777-.777v-4.1a.777.777,0,1,1,1.553,0v4.1A.777.777,0,0,1,293.88,239.6Z" fill="#231815"/>
        <path d="M308.814,239.6a.777.777,0,0,1-.776-.777v-4.1a.777.777,0,1,1,1.553,0v4.1A.777.777,0,0,1,308.814,239.6Z" fill="#231815"/>
        <path d="M303.836,249.532a.777.777,0,0,1-.776-.777v-4.014a.777.777,0,1,1,1.553,0v4.014A.777.777,0,0,1,303.836,249.532Z" fill="#231815"/>
        <path d="M298.858,248.883a.777.777,0,0,1-.776-.776v-3.366a.777.777,0,1,1,1.553,0v3.366A.777.777,0,0,1,298.858,248.883Z" fill="#231815"/>
        <path d="M308.814,248.883a.777.777,0,0,1-.776-.776v-3.366a.777.777,0,1,1,1.553,0v3.366A.777.777,0,0,1,308.814,248.883Z" fill="#231815"/>
        <path d="M313.8,239.6a.776.776,0,0,1-.776-.777v-4.1a.776.776,0,1,1,1.552,0v4.1A.776.776,0,0,1,313.8,239.6Z" fill="#231815"/>
        <path d="M314.777,245.517H292.906a.777.777,0,0,1,0-1.553h21.871a.777.777,0,1,1,0,1.553Z" fill="#231815"/>
        <path d="M290.287,257.821a.776.776,0,0,1-.249-1.511c.1-.033,9.787-3.356,13.17-8.011a.776.776,0,0,1,1.256.913c-3.674,5.055-13.512,8.427-13.928,8.568A.778.778,0,0,1,290.287,257.821Z" fill="#231815"/>
        <path d="M317.4,257.821a.769.769,0,0,1-.249-.041c-.417-.141-10.253-3.513-13.938-8.567a.776.776,0,0,1,1.254-.915c3.395,4.656,13.084,7.979,13.182,8.012a.776.776,0,0,1-.249,1.511Z" fill="#231815"/>
        <path d="M288.588,224.707a9.1,9.1,0,0,1-6.565-15.406,9.1,9.1,0,1,1,6.565,15.406Zm0-16.655a7.567,7.567,0,0,0-7.556,7.556,7.551,7.551,0,1,0,7.556-7.556Z" fill="#231815"/>
        <path d="M288.588,220.551a4.943,4.943,0,1,1,4.943-4.943A4.953,4.953,0,0,1,288.588,220.551Zm0-8.333a3.39,3.39,0,1,0,3.39,3.39A3.4,3.4,0,0,0,288.588,212.218Z" fill="#231815"/>
        <path d="M286.077,208.235a.776.776,0,0,1-.734-.525l-1.029-3.019a.777.777,0,1,1,1.47-.5l1.028,3.019a.775.775,0,0,1-.484.985A.785.785,0,0,1,286.077,208.235Z" fill="#231815"/>
        <path d="M282.032,210.388l-.011-.011-2.483-2.44a.776.776,0,1,1,1.088-1.107l2.5,2.456Z" fill="#231815"/>
        <path d="M291.748,208.549a.775.775,0,0,1-.735-1.025l1.028-3.03a.776.776,0,1,1,1.47.5l-1.028,3.03A.777.777,0,0,1,291.748,208.549Z" fill="#231815"/>
        <path d="M295.233,210.941a.776.776,0,0,1-.546-1.329l2.511-2.478a.776.776,0,0,1,1.091,1.105l-2.511,2.478A.774.774,0,0,1,295.233,210.941Z" fill="#231815"/>
        <path d="M319.008,224.707a9.1,9.1,0,1,1,9.109-9.1A9.109,9.109,0,0,1,319.008,224.707Zm0-16.655a7.571,7.571,0,1,0,5.447,2.327A7.481,7.481,0,0,0,319.008,208.052Z" fill="#231815"/>
        <path d="M319.008,220.551a4.943,4.943,0,1,1,4.954-4.943A4.948,4.948,0,0,1,319.008,220.551Zm0-8.333a3.39,3.39,0,1,0,3.4,3.39A3.394,3.394,0,0,0,319.008,212.218Z" fill="#231815"/>
        <path d="M321.519,208.235a.785.785,0,0,1-.251-.041.777.777,0,0,1-.484-.985l1.028-3.019a.777.777,0,1,1,1.47.5l-1.028,3.019A.778.778,0,0,1,321.519,208.235Z" fill="#231815"/>
        <path d="M325.006,210.619a.773.773,0,0,1-.563-1.3l.01-.012,2.518-2.473a.776.776,0,1,1,1.087,1.107l-2.5,2.457A.784.784,0,0,1,325.006,210.619Z" fill="#231815"/>
        <path d="M315.848,208.549a.775.775,0,0,1-.734-.526l-1.029-3.03a.776.776,0,1,1,1.47-.5l1.028,3.03a.775.775,0,0,1-.735,1.025Z" fill="#231815"/>
        <path d="M312.364,210.941a.778.778,0,0,1-.546-.224l-2.511-2.478a.776.776,0,0,1,1.091-1.105l2.511,2.478a.776.776,0,0,1-.545,1.329Z" fill="#231815"/>
        <path d="M319.041,196.97a.776.776,0,0,1-.777-.776c0-.168-.03-4.1-2.719-4.1s-2.708,3.937-2.708,4.1a.777.777,0,0,1-1.553,0c0-2.1.9-5.657,4.261-5.657s4.272,3.556,4.272,5.657A.775.775,0,0,1,319.041,196.97Z" fill="#231815"/>
        <path d="M295.449,196.97a.775.775,0,0,1-.776-.776c0-.168-.031-4.1-2.72-4.1s-2.708,3.937-2.708,4.1a.776.776,0,1,1-1.552,0c0-2.1.9-5.657,4.26-5.657s4.272,3.556,4.272,5.657A.775.775,0,0,1,295.449,196.97Z" fill="#231815"/>
        <path d="M269.325,158.921a.774.774,0,0,1-.439-.137c-.532-.364-13.1-9.045-18.967-18.621a.779.779,0,0,1,.119-.96c1.411-1.383,34.741-33.945,53.47-41.109a.8.8,0,0,1,1.105.7.778.778,0,0,1-.453.706.593.593,0,0,1-.069.029h0c-17.271,6.586-48.417,36.375-52.519,40.344,5.834,9.093,18.066,17.541,18.192,17.627a.777.777,0,0,1-.439,1.417Z" fill="#231815"/>
        <path d="M338.347,158.921a.777.777,0,0,1-.439-1.417c.126-.086,12.358-8.534,18.192-17.627-4.1-3.969-35.248-33.758-52.519-40.344h0c-.026-.009-.051-.021-.077-.033a.777.777,0,0,1-.444-.7.8.8,0,0,1,1.106-.7c18.729,7.163,52.057,39.725,53.468,41.108a.778.778,0,0,1,.119.96c-5.863,9.576-18.435,18.257-18.967,18.621A.774.774,0,0,1,338.347,158.921Z" fill="#231815"/>
      </g>
    </g>
    <g clip-path="url(#clip-path)">
      <circle cx="339.854" cy="167.982" r="11.408" fill="#fff"/>
      <circle cx="339.854" cy="167.982" r="7.686" fill="#97d2ce"/>
      <path d="M339.854,180.167a12.185,12.185,0,1,1,12.184-12.185A12.2,12.2,0,0,1,339.854,180.167Zm0-22.817a10.632,10.632,0,1,0,10.632,10.632A10.643,10.643,0,0,0,339.854,157.35Z" fill="#231815"/>
      <path d="M339.854,176.444a8.463,8.463,0,1,1,8.463-8.462A8.472,8.472,0,0,1,339.854,176.444Zm0-15.372a6.91,6.91,0,1,0,6.91,6.91A6.917,6.917,0,0,0,339.854,161.072Z" fill="#231815"/>
      <circle cx="339.854" cy="167.982" r="3.618" fill="#231815"/>
    </g>
    <g>
      <path d="M280.375,374.7a11.052,11.052,0,0,0-4.751,3.973c-1.931,2.907-14.412,1.07-16.89-1.973,0,0-1.643-1.817-.131-3.37.97-1,2.986-2.474,8.394-1.9C270.037,371.753,277.768,372.362,280.375,374.7Z" fill="#fff"/>
      <path d="M270.564,380.907c-4.537,0-10.636-1.514-12.432-3.718a3.177,3.177,0,0,1-.085-4.4c1.835-1.885,4.788-2.581,9.032-2.13l.794.082c3.645.37,10.429,1.059,13.02,3.381a.776.776,0,0,1-.241,1.3,10.4,10.4,0,0,0-4.381,3.678c-.708,1.064-2.326,1.665-4.811,1.785C271.17,380.9,270.87,380.907,270.564,380.907Zm-5.823-8.829c-3.837,0-5.116,1.314-5.582,1.792-.962.989.037,2.178.154,2.311,1.463,1.8,7.531,3.372,12.072,3.155,1.854-.09,3.2-.5,3.593-1.094a11.987,11.987,0,0,1,3.87-3.642c-2.806-1.471-8.307-2.03-11.132-2.316l-.8-.083A20.45,20.45,0,0,0,264.741,372.078Z" fill="#231815"/>
    </g>
    <g>
      <path d="M274.4,378.691s-.148-4.724,7.262-5.05a51.38,51.38,0,0,1,14.234,1.7s-.5,5.307-7.812,5.591S277.7,381.315,274.4,378.691Z" fill="#fff"/>
      <path d="M283,381.847c-4.008,0-6.491-.485-9.086-2.549a.781.781,0,0,1-.293-.583c0-.055-.079-5.494,8-5.85a51.718,51.718,0,0,1,14.481,1.726.777.777,0,0,1,.561.82c-.006.06-.657,5.987-8.554,6.294C286.148,381.781,284.471,381.847,283,381.847Zm-7.8-3.515c2.984,2.2,5.971,2.09,12.848,1.822,5.087-.2,6.529-2.966,6.925-4.252a50.48,50.48,0,0,0-13.283-1.486C276.27,374.655,275.357,377.369,275.2,378.332Z" fill="#231815"/>
    </g>
    <g>
      <path d="M290.794,380s.546-5.51,11.131-5.677a68.706,68.706,0,0,1,13.1,1.191s-.979,5.6-9.142,5.994A53.7,53.7,0,0,1,290.794,380Z" fill="#fff"/>
      <path d="M303.589,382.34a53.881,53.881,0,0,1-13-1.591.777.777,0,0,1-.566-.825c.025-.253.741-6.2,11.891-6.376a68.583,68.583,0,0,1,13.269,1.207.774.774,0,0,1,.609.894c-.01.062-1.185,6.214-9.868,6.636C305.131,382.323,304.351,382.34,303.589,382.34Zm-11.837-2.9a54.175,54.175,0,0,0,14.095,1.3c5.719-.277,7.6-3.206,8.18-4.615a69.054,69.054,0,0,0-12.09-1.019C294.335,375.22,292.291,378.111,291.752,379.438Z" fill="#231815"/>
    </g>
    <g>
      <path d="M309.925,381.033a10.264,10.264,0,0,1,8.259-6.376,68.016,68.016,0,0,1,13.2.193s.1,6.483-8.392,7A59.058,59.058,0,0,1,309.925,381.033Z" fill="#fff"/>
      <path d="M320.1,382.706a59.991,59.991,0,0,1-10.325-.91.777.777,0,0,1-.584-1.022,10.962,10.962,0,0,1,8.905-6.889,68.094,68.094,0,0,1,13.383.194.776.776,0,0,1,.684.758c0,.072.01,7.232-9.122,7.783C322.045,382.68,321.058,382.706,320.1,382.706Zm-9.053-2.27a58.931,58.931,0,0,0,11.9.634c6.148-.371,7.366-3.988,7.605-5.528a65.553,65.553,0,0,0-12.285-.114A9.264,9.264,0,0,0,311.049,380.436Z" fill="#231815"/>
    </g>
    <g>
      <path d="M327.265,380.447a7.787,7.787,0,0,1,6.594-6.8c5.131-.984,8.6-2.092,11.5-2.362s4.829.427,5.311,2.689-5.258,5.515-11.829,6.4A43.408,43.408,0,0,1,327.265,380.447Z" fill="#fff"/>
      <path d="M332.627,381.569a37.276,37.276,0,0,1-5.487-.356.776.776,0,0,1-.649-.821,8.634,8.634,0,0,1,7.222-7.5c2.146-.411,4.008-.847,5.65-1.231a46.4,46.4,0,0,1,5.922-1.141c3.537-.328,5.6.78,6.142,3.3a2.579,2.579,0,0,1-.532,2.048c-1.657,2.352-6.684,4.574-11.953,5.283A47.485,47.485,0,0,1,332.627,381.569Zm-4.46-1.789a44.9,44.9,0,0,0,10.568-.17c5.272-.71,9.677-2.916,10.891-4.639a1.2,1.2,0,0,0,.283-.831c-.243-1.139-.975-2.4-4.48-2.077a44.685,44.685,0,0,0-5.712,1.107c-1.658.387-3.535.826-5.712,1.244A7.03,7.03,0,0,0,328.167,379.78Z" fill="#231815"/>
    </g>
    <g>
      <path d="M300.227,412.589l-6.037.266a3.375,3.375,0,0,1-.66,1.289,1.058,1.058,0,0,1-.722.411,2.044,2.044,0,0,1-1.382-.822,8.751,8.751,0,0,1-1.444-2.621,3.262,3.262,0,0,0,.307-.634,6.074,6.074,0,0,0,.216-.774V395.4a2.438,2.438,0,0,0-.277-.662,1.694,1.694,0,0,0-.568-.536,15.308,15.308,0,0,1,1.858-2.286,2.261,2.261,0,0,1,1.382-.767,1.133,1.133,0,0,1,.63.2,2.693,2.693,0,0,1,.6.564l.567-.027a2.366,2.366,0,0,0,1.176-.258,2.023,2.023,0,0,0,.745-.76,11.888,11.888,0,0,1,3.1,1.77q1.075.879,1.076,1.561a1.065,1.065,0,0,1-.139.536,1.318,1.318,0,0,1-.43.44ZM294.375,395.7v3.847l1.766-.056v-3.875Zm0,8.251v4.308l1.766-.084v-4.349Zm17.618-12.8,2.181-.083a2.107,2.107,0,0,0,.7-.174,2.216,2.216,0,0,0,.622-.425,13.285,13.285,0,0,1,2.226,1q.753.474.753.934a.861.861,0,0,1-.483.732,3.05,3.05,0,0,1-1.406.355l-4.592.14v.892h2.181a2.2,2.2,0,0,0,.606-.188,2.093,2.093,0,0,0,.484-.328,9.462,9.462,0,0,1,1.829,1.031c.418.3.628.571.628.822q0,.4-.583.76a2.935,2.935,0,0,1-1.613.328h-3.532v.906l2.672-.083a2.046,2.046,0,0,0,.622-.2,1.231,1.231,0,0,0,.453-.4,6.654,6.654,0,0,1,2.55.976,1.819,1.819,0,0,1,.876,1.5,1.436,1.436,0,0,1-.346.991,1.129,1.129,0,0,1-.883.389,3.564,3.564,0,0,1-.983-.187q-.615-.189-1.459-.537l-13.087.669a2.193,2.193,0,0,1-1.274-.46c-.431-.307-.646-.543-.646-.711a1.318,1.318,0,0,1,.423-.732q.421-.465,1.175-1.331a1.337,1.337,0,0,0,.483.307,1.73,1.73,0,0,0,.592.1l3.763-.112v-.92h-2.95a3.019,3.019,0,0,1-1.666-.23.9.9,0,0,1-.56-.774,1.163,1.163,0,0,1,.23-.578q.231-.356.615-.955a.7.7,0,0,0,.376.126c.148.009.315.014.5.014h3.456v-.976l-3.671.125a3.367,3.367,0,0,1-1.543-.187q-.531-.245-.531-.565a1.547,1.547,0,0,1,.376-.725q.376-.5,1.038-1.352a1.727,1.727,0,0,0,.637.223,4.981,4.981,0,0,0,.776.055h2.887a2.041,2.041,0,0,0-.23-.452.8.8,0,0,0-.322-.286,19.623,19.623,0,0,1,1.866-1.066,3.778,3.778,0,0,1,1.681-.411,3.858,3.858,0,0,1,1.843.383q.707.382.707.606a.369.369,0,0,1-.131.244c-.087.089-.191.189-.314.3Zm-2.857,20.95h1.828a1.434,1.434,0,0,0,.775-.167.815.815,0,0,0,.315-.6v-.655l-4.777.167v3.317a2.582,2.582,0,0,1-.722,1.687,1.776,1.776,0,0,1-1.228.766,2.646,2.646,0,0,1-1.536-.682,7.132,7.132,0,0,1-1.828-2.091,2.486,2.486,0,0,0,.361-.565,2.657,2.657,0,0,0,.207-.662v-8.195a1.194,1.194,0,0,0-.207-.564,1.37,1.37,0,0,0-.484-.426,20.323,20.323,0,0,1,2.012-1.658,2.643,2.643,0,0,1,1.413-.6,1.366,1.366,0,0,1,.576.14,3.091,3.091,0,0,1,.653.431l5.022-.138a2.57,2.57,0,0,0,1-.258,1,1,0,0,0,.493-.635,20.489,20.489,0,0,1,3.609,1.171q1.229.6,1.228,1.255a.981.981,0,0,1-.153.536,1.826,1.826,0,0,1-.445.467v9.1a2.425,2.425,0,0,1-1.175,2.217,6.566,6.566,0,0,1-3.541.78,1.86,1.86,0,0,1-1.1-.257.921.921,0,0,1-.345-.789v-.4a1.967,1.967,0,0,0-.507-1.471,1.894,1.894,0,0,0-1.444-.466Zm-1.889-4.656v1.087l4.807-.195v-1.059Zm.03-3.219v1.2l4.777-.223V404.06Z" fill="#231815"/>
      <path d="M292.087,420.324l8.017-1.087a4.771,4.771,0,0,0,.837-.251,4.855,4.855,0,0,0,.837-.431,13.764,13.764,0,0,1,2.351,1.6,2.03,2.03,0,0,1,.783,1.367,1.43,1.43,0,0,1-.515,1.073,3.025,3.025,0,0,1-1.467.669l-1.951.222v2.036h.385a3.972,3.972,0,0,0,.944-.174,5.694,5.694,0,0,0,.945-.4,11.638,11.638,0,0,1,1.858,1.687,2.446,2.446,0,0,1,.63,1.477,1.467,1.467,0,0,1-.491,1.192,2.069,2.069,0,0,1-1.367.411l-2.58.111a18.417,18.417,0,0,0,1.927,1.311q1.051.627,2.281,1.226-.093.516-.154.976t-.123.892a15.21,15.21,0,0,1-.391,2.132.871.871,0,0,1-.9.711,2.3,2.3,0,0,1-1.137-.487,14.854,14.854,0,0,1-1.828-1.506V442.5a3.016,3.016,0,0,1-.69,1.98,1.8,1.8,0,0,1-1.383.766,3.426,3.426,0,0,1-2.012-.85,7.592,7.592,0,0,1-2.043-2.551,2.082,2.082,0,0,0,.507-.648,2.618,2.618,0,0,0,.245-.83v-4.878a20.865,20.865,0,0,1-2.7,3.192,3.4,3.4,0,0,1-2.043,1.059.994.994,0,0,1-.837-.46,2.064,2.064,0,0,1-.33-1.226,7.666,7.666,0,0,1,.215-1.365A17.6,17.6,0,0,0,290.32,434a28.061,28.061,0,0,0,2.342-1.8,25.636,25.636,0,0,0,2.189-2.1l-3.088.138a3.217,3.217,0,0,1-1.934-.515,1.515,1.515,0,0,1-.707-1.254,2.5,2.5,0,0,1,.415-1.171,18.188,18.188,0,0,1,1.259-1.686l1.506.251,3.3-.112v-1.686l-2.319.236a2.856,2.856,0,0,1-2.38-1,4.7,4.7,0,0,1-.8-2.97Zm14.56,13.646V423.182a1.5,1.5,0,0,0-.169-.7,1.559,1.559,0,0,0-.552-.579,14.037,14.037,0,0,1,1.889-1.492,2.922,2.922,0,0,1,1.444-.515,1.553,1.553,0,0,1,1.167.544,2.021,2.021,0,0,1,.506,1.435v12.5a2.729,2.729,0,0,1-.445,1.855,1.418,1.418,0,0,1-1.137.71,2.827,2.827,0,0,1-1.258-.432,8.818,8.818,0,0,1-1.721-1.422,1.41,1.41,0,0,0,.215-.5A2.825,2.825,0,0,0,306.647,433.97Zm1.137,5.45h3.609a1.365,1.365,0,0,0,.823-.195.926.926,0,0,0,.284-.711v-16.7a2.017,2.017,0,0,0-.208-.907,2.548,2.548,0,0,0-.575-.753,17.9,17.9,0,0,1,2.288-1.407,3.61,3.61,0,0,1,1.413-.446,3.952,3.952,0,0,1,2.12.738q1.059.713,1.059,1.255a1.138,1.138,0,0,1-.138.48,3.176,3.176,0,0,1-.43.635v19.1a2.936,2.936,0,0,0,.016.3c.009.107.014.188.014.244a3.018,3.018,0,0,1-1.666,2.738,9.354,9.354,0,0,1-4.676.969,2.234,2.234,0,0,1-1.453-.327,1.506,1.506,0,0,1-.345-1.122,3.665,3.665,0,0,0-.484-2.056,2.262,2.262,0,0,0-1.651-.886Z" fill="#231815"/>
    </g>
    <g>
      <path d="M303.45,124.621l-.027.443c.3-.045.6-.078.9-.1s.589-.03.873-.03a5.477,5.477,0,0,1,3.438.942,3.21,3.21,0,0,1,1.2,2.681,3.483,3.483,0,0,1-1.337,2.816,5.021,5.021,0,0,1-3.293,1.1.637.637,0,0,1-.456-.156,3.979,3.979,0,0,1-.376-.421q-.122-.166-.282-.347t-.368-.384a5.182,5.182,0,0,1-.643.335,1.322,1.322,0,0,1-.493.119.4.4,0,0,1-.286-.113,1.09,1.09,0,0,1-.215-.365,4.752,4.752,0,0,1-1.026.475,3.346,3.346,0,0,1-1.025.163,1.166,1.166,0,0,1-1.415-1.37c-.063-.077-.123-.153-.179-.226s-.112-.15-.166-.228q-.264-.361-.436-.638a1.032,1.032,0,0,1-.173-.553,2.4,2.4,0,0,1,.873-1.689,6.922,6.922,0,0,1,2.565-1.443v-.768l-1.787.184a2.789,2.789,0,0,1-1.137-.172.613.613,0,0,1-.379-.577.808.808,0,0,1,.072-.311,2.264,2.264,0,0,1,.206-.371c.095-.143.206-.3.335-.454s.271-.34.429-.541a1.37,1.37,0,0,0,.329.142,1.294,1.294,0,0,0,.348.049.757.757,0,0,0,.1-.006.7.7,0,0,1,.088-.006l1.4-.117a.88.88,0,0,0-.21-.556,1.055,1.055,0,0,0-.568-.273c.229-.168.444-.319.642-.451s.382-.251.549-.354a3.936,3.936,0,0,1,.437-.218,1,1,0,0,1,.382-.083,2.055,2.055,0,0,1,1.124.338c.342.221.513.437.513.645a.678.678,0,0,1-.091.289q-.092.178-.213.466l1.618-.128a1.82,1.82,0,0,0,.677-.139,1.351,1.351,0,0,0,.487-.365,5.14,5.14,0,0,1,1.82.694,1.314,1.314,0,0,1,.61,1.093.815.815,0,0,1-.305.681,1.354,1.354,0,0,1-.86.24,3.141,3.141,0,0,1-.6-.065c-.222-.043-.463-.1-.725-.175Zm-2.023,4.5q-.1-.375-.16-.764c-.043-.26-.078-.526-.105-.8a4.8,4.8,0,0,0-1.191.92,1.2,1.2,0,0,0-.385.738.3.3,0,0,0,.121.255.641.641,0,0,0,.372.089,1.813,1.813,0,0,0,.528-.118A8.247,8.247,0,0,0,301.427,129.123Zm2.991-2.211-.069-.332c-.175.017-.341.036-.5.059s-.3.051-.443.083a5.86,5.86,0,0,0,.034.614c.023.209.056.428.1.657a3.308,3.308,0,0,0,.361-.3,2.994,2.994,0,0,0,.349-.4.833.833,0,0,0,.122-.193A.493.493,0,0,0,304.418,126.912Zm-.332,2.837.155.381c.091.009.185.017.281.024s.194.013.288.013a2.779,2.779,0,0,0,1.777-.534,1.659,1.659,0,0,0,.673-1.352,1.385,1.385,0,0,0-.437-1.019,2.5,2.5,0,0,0-1.269-.6,4.439,4.439,0,0,1,.329.541,1.034,1.034,0,0,1,.118.46,1.467,1.467,0,0,1-.5.983A8.193,8.193,0,0,1,304.086,129.749Z" fill="#231815"/>
      <path d="M300.316,135.566v-.48a1.159,1.159,0,0,0-.092-.556q-.09-.15-.5-.113a5.71,5.71,0,0,1,1.016-.94,1.577,1.577,0,0,1,.913-.331,2.63,2.63,0,0,1,1.245.306c.362.185.542.369.542.553a1,1,0,0,1-.145.418,2.4,2.4,0,0,0-.227.687,4.41,4.41,0,0,0,.8-.239.825.825,0,0,0,.393-.338,10.041,10.041,0,0,1,1.489.387.829.829,0,0,1,.548.866.9.9,0,0,1-.271.663,1.82,1.82,0,0,1-.8.424q-.676.21-1.342.362t-1.317.264a37.721,37.721,0,0,1-1.51,5.675q-.642,1.467-1.746,1.468a.865.865,0,0,1-.737-.387,1.976,1.976,0,0,1-.291-1.21v-1.271q.385-.135.792-1.081a23.012,23.012,0,0,0,.859-2.806l-1.15.079a2.009,2.009,0,0,1-1.016-.227.628.628,0,0,1-.344-.541,1.086,1.086,0,0,1,.2-.546c.134-.212.312-.475.538-.786.055-.094.116-.191.187-.292s.145-.206.226-.316a.475.475,0,0,0,.227.335,1.055,1.055,0,0,0,.5.095Zm7.486,3.856-.6.024a4.431,4.431,0,0,0-1.889.744q-.744.54-.744,1.019c0,.192.143.352.427.479a3.121,3.121,0,0,0,1.238.2,7.068,7.068,0,0,0,1.15-.08,1.783,1.783,0,0,0,.636-.221,3.268,3.268,0,0,1,1.524.531,1.22,1.22,0,0,1,.527,1.017,1.041,1.041,0,0,1-.737,1.013,5.739,5.739,0,0,1-2.187.307,5.834,5.834,0,0,1-2.936-.621,1.867,1.867,0,0,1-1.016-1.658,2.663,2.663,0,0,1,.833-1.882,6.632,6.632,0,0,1,2.483-1.477,1.617,1.617,0,0,0-.6-.347,2.586,2.586,0,0,0-.789-.108,4.636,4.636,0,0,0-.849.083,8.307,8.307,0,0,0-.937.237,8.829,8.829,0,0,1,2.046-1.554,4.2,4.2,0,0,1,1.953-.522,3.067,3.067,0,0,1,1.791.476,1.486,1.486,0,0,1,.679,1.28,1.122,1.122,0,0,1-.3.821,1.066,1.066,0,0,1-.8.3,2.562,2.562,0,0,1-.393-.034A3.689,3.689,0,0,0,307.8,139.422Z" fill="#231815"/>
      <path d="M303.077,151.385l.055,1.031a1.258,1.258,0,0,1-.356.955,1.275,1.275,0,0,1-.924.341,2.022,2.022,0,0,1-1.5-.718,2.593,2.593,0,0,1-.673-1.848,6.834,6.834,0,0,1,.541-2.267,4.231,4.231,0,0,0,.359-1.277.658.658,0,0,0-.166-.464.874.874,0,0,0-.5-.242,5.567,5.567,0,0,1,.954-.578,1.982,1.982,0,0,1,.806-.2,1.514,1.514,0,0,1,1.045.44,1.358,1.358,0,0,1,.477,1.028,1.488,1.488,0,0,1-.2.777,6.359,6.359,0,0,1-.491.7c-.131.167-.248.321-.349.46s-.189.262-.26.369a1.666,1.666,0,0,0-.17.322.777.777,0,0,0-.053.274.6.6,0,0,0,.138.4.389.389,0,0,0,.288.166.417.417,0,0,0,.267-.12,1.258,1.258,0,0,0,.274-.384,7.323,7.323,0,0,1,1.638-2.376,2.906,2.906,0,0,1,1.956-.793,2.124,2.124,0,0,1,1.868,1.143,6.274,6.274,0,0,1,.751,3.335,5.267,5.267,0,0,1-1.492,4.074,5.6,5.6,0,0,1-3.942,1.373,2.8,2.8,0,0,1-1.023-.138,1.622,1.622,0,0,1-.642-.593.2.2,0,0,1-.047-.064.665.665,0,0,0-.048-.077q-.129-.2-.369-.523a3.557,3.557,0,0,0-.741-.681c.275.041.532.072.768.093s.452.03.647.03a4.715,4.715,0,0,0,3.095-.912,3.754,3.754,0,0,0,1.1-3.049,5.129,5.129,0,0,0-.291-1.99.88.88,0,0,0-.813-.6,1.56,1.56,0,0,0-1.083.491,2.952,2.952,0,0,0-.8,1.382c-.028.127-.05.251-.069.372A2.5,2.5,0,0,0,303.077,151.385Z" fill="#231815"/>
      <path d="M298.279,161.107l-.332.048a2.882,2.882,0,0,1,.866-1.175,1.8,1.8,0,0,1,1.1-.409,1.043,1.043,0,0,1,.845.417,3.632,3.632,0,0,1,.542,1.259,5.713,5.713,0,0,1,.8-.322q.417-.132.87-.231a1.475,1.475,0,0,0-.179-.883.813.813,0,0,0-.735-.24,5.111,5.111,0,0,1,1.083-.854,2.015,2.015,0,0,1,.982-.288,1.474,1.474,0,0,1,.97.331,1.135,1.135,0,0,1,.4.928l-.027.767a4.876,4.876,0,0,1,3.269,1.366,4.4,4.4,0,0,1,1.191,3.209,4.552,4.552,0,0,1-.568,2.31A4.679,4.679,0,0,1,307.679,169a5.548,5.548,0,0,1-2.693.792,1.7,1.7,0,0,1-.893-.2,1.251,1.251,0,0,1-.5-.606.28.28,0,0,1-.04-.079c-.009-.029-.018-.059-.027-.093a4.124,4.124,0,0,0-.187-.454,1.577,1.577,0,0,0-.436-.515,5.981,5.981,0,0,1-1.387,1.055,2.661,2.661,0,0,1-1.177.327,1.414,1.414,0,0,1-.725-.182,1.367,1.367,0,0,1-.508-.537,2.067,2.067,0,0,1-.172-.488,2.421,2.421,0,0,0-.274-.655,6.3,6.3,0,0,1-.887-.969,1.551,1.551,0,0,1-.305-.867,2.908,2.908,0,0,1,.461-1.462,6.668,6.668,0,0,1,1.4-1.584,6.141,6.141,0,0,0-.488-1.032A.7.7,0,0,0,298.279,161.107Zm1.841,3.033a2.689,2.689,0,0,0-.525.836,2.541,2.541,0,0,0-.166.908,1.44,1.44,0,0,0,.238.836.654.654,0,0,0,.5.3.813.813,0,0,0,.48-.265,5.464,5.464,0,0,0,.7-.816,6.5,6.5,0,0,1-.669-.827A6.993,6.993,0,0,1,300.12,164.14Zm2.762-1.6a4.941,4.941,0,0,0-.57.157c-.184.064-.374.132-.568.205a4.79,4.79,0,0,0,.328.775,3.189,3.189,0,0,0,.423.607q.137-.448.241-.884A6.5,6.5,0,0,0,302.882,162.543Zm.622,4.65-.237.276h.622a3.868,3.868,0,0,0,2.545-.728,2.55,2.55,0,0,0,.3-3.513,2.54,2.54,0,0,0-1.489-.863,14.705,14.705,0,0,1-.338,1.825,12.217,12.217,0,0,1-.494,1.522,1.76,1.76,0,0,1,.243.086.125.125,0,0,1,.074.123,1.532,1.532,0,0,1-.331.934c-.2.278-.393.418-.568.418Z" fill="#231815"/>
    </g>
    <g>
      <g>
        <g>
          <path d="M290.6,482.573c.573.7,1.612,2.111-.455,3.691s-8.635,6.092-8.635,6.092c-.358-.054-.736-.119-1.1-.194a14.31,14.31,0,0,1-4.524-1.754l11.136-7.586S289.54,481.307,290.6,482.573Z" fill="#ee795e"/>
          <path d="M275.883,490.408a14.31,14.31,0,0,0,4.524,1.754c.368.075.746.14,1.1.194,5.995.974,10.432-.249,10.432,3.81a23.069,23.069,0,0,1-.227,3.225c-.249.043-8.561,1.883-26.417,2.781-17.888.9-29.3-2.056-29.608-2.143h-.011c-.065-.335-.119-.693-.163-1.071,0,0-1.276-7.035,4.308-11.169s8.917-3.874,15.9-4.848,7.337-5.162,11.222-1.158C269.8,484.738,272.2,488.244,275.883,490.408Z" fill="#ee795e"/>
          <path d="M291.716,499.391a25.07,25.07,0,0,1-1.061,4.664,269.54,269.54,0,0,1-28.754,2.662c-14.793.487-23.959-1.4-23.959-1.4a11.523,11.523,0,0,1-2.251-5.292c.3.087,11.72,3.041,29.608,2.143C283.155,501.274,291.467,499.434,291.716,499.391Z" fill="#fff"/>
        </g>
        <g>
          <path d="M257.1,507.572a107.2,107.2,0,0,1-19.316-1.491.78.78,0,0,1-.422-.243,12.2,12.2,0,0,1-2.412-5.542.755.755,0,0,1-.033-.12q-.1-.531-.172-1.13c-.048-.256-1.288-7.509,4.617-11.88,4.857-3.587,8.167-3.99,13.176-4.6.949-.116,1.966-.239,3.076-.394a15.751,15.751,0,0,0,5.579-1.9c2.279-1.185,3.7-1.725,6.307.966.8.831,1.579,1.713,2.329,2.566a27.677,27.677,0,0,0,6.447,5.93,13.494,13.494,0,0,0,4.286,1.662c.355.073.72.136,1.064.188,1.607.261,3.109.362,4.433.451,3.573.241,6.659.448,6.659,4.126a23.662,23.662,0,0,1-.235,3.335,25.783,25.783,0,0,1-1.1,4.817.779.779,0,0,1-.611.5,273.045,273.045,0,0,1-28.848,2.671Q259.405,507.576,257.1,507.572Zm-18.733-2.96a116.43,116.43,0,0,0,23.508,1.329,271.939,271.939,0,0,0,28.189-2.582,26.112,26.112,0,0,0,.882-4.072,22.186,22.186,0,0,0,.219-3.121c0-2.119-1.339-2.316-5.21-2.577-1.359-.091-2.9-.195-4.57-.466-.362-.055-.754-.122-1.136-.2a15.04,15.04,0,0,1-4.765-1.848,28.879,28.879,0,0,1-6.821-6.24c-.738-.84-1.5-1.707-2.278-2.511-1.932-1.992-2.521-1.684-4.476-.669a17.331,17.331,0,0,1-6.081,2.056c-1.119.156-2.146.281-3.1.4-4.934.6-7.913.962-12.441,4.306-5.115,3.787-4.051,10.138-4,10.406.042.356.086.659.137.941a.78.78,0,0,1,.035.128A11.413,11.413,0,0,0,238.368,504.612Z" fill="#231815"/>
          <path d="M258.607,503.117c-13.769,0-22.439-2.162-23.092-2.332a.775.775,0,0,1,.165-1.532h.011a.779.779,0,0,1,.214.03c.107.03,11.59,3.007,29.355,2.114,15.676-.789,24.018-2.3,26.2-2.747l.057-.011a.779.779,0,0,1,.74.185.77.77,0,0,1,.029,1.092.811.811,0,0,1-.44.239c-2.286.467-10.724,2-26.509,2.792C262.98,503.066,260.732,503.117,258.607,503.117Z" fill="#231815"/>
          <path d="M281.511,493.133a.776.776,0,0,1-.44-1.416c.066-.045,6.576-4.52,8.6-6.07a2.047,2.047,0,0,0,.918-1.246,1.932,1.932,0,0,0-.594-1.337c-.463-.556-1.968.058-2.582.424l-11.084,7.553a.781.781,0,0,1-1-.078.77.77,0,0,1,0-1.093l.01-.011a.761.761,0,0,1,.112-.092l11.136-7.586c.354-.214,3.168-1.83,4.614-.106a3.413,3.413,0,0,1,.939,2.508,3.476,3.476,0,0,1-1.518,2.3c-2.058,1.574-8.4,5.932-8.667,6.116A.766.766,0,0,1,281.511,493.133Z" fill="#231815"/>
        </g>
      </g>
      <ellipse cx="242.763" cy="491.265" rx="2.274" ry="1.907" transform="translate(-120.716 81.194) rotate(-15.256)" fill="#231815"/>
      <ellipse cx="249.193" cy="488.393" rx="2.274" ry="1.907" transform="translate(-119.734 82.785) rotate(-15.256)" fill="#231815"/>
      <ellipse cx="256.293" cy="487.039" rx="2.274" ry="1.907" transform="translate(-119.127 84.606) rotate(-15.256)" fill="#231815"/>
      <ellipse cx="246.559" cy="495.402" rx="2.274" ry="1.907" transform="translate(-121.671 82.339) rotate(-15.256)" fill="#231815"/>
      <ellipse cx="252.989" cy="492.531" rx="2.274" ry="1.907" transform="translate(-120.689 83.93) rotate(-15.256)" fill="#231815"/>
      <ellipse cx="260.09" cy="491.177" rx="2.274" ry="1.907" transform="translate(-120.082 85.75) rotate(-15.256)" fill="#231815"/>
    </g>
    <g>
      <g>
        <g>
          <path d="M317.954,482.573c-.573.7-1.612,2.111.455,3.691s8.636,6.092,8.636,6.092c.357-.054.735-.119,1.1-.194a14.31,14.31,0,0,0,4.524-1.754l-11.136-7.586S319.015,481.307,317.954,482.573Z" fill="#ee795e"/>
          <path d="M332.672,490.408a14.31,14.31,0,0,1-4.524,1.754c-.368.075-.746.14-1.1.194-6,.974-10.433-.249-10.433,3.81a22.912,22.912,0,0,0,.228,3.225c.248.043,8.56,1.883,26.416,2.781,17.888.9,29.305-2.056,29.608-2.143h.011c.065-.335.119-.693.163-1.071,0,0,1.277-7.035-4.308-11.169s-8.917-3.874-15.9-4.848-7.337-5.162-11.222-1.158C338.754,484.738,336.351,488.244,332.672,490.408Z" fill="#ee795e"/>
          <path d="M316.84,499.391a25.026,25.026,0,0,0,1.06,4.664,269.54,269.54,0,0,0,28.754,2.662c14.793.487,23.959-1.4,23.959-1.4a11.523,11.523,0,0,0,2.251-5.292c-.3.087-11.72,3.041-29.608,2.143C325.4,501.274,317.088,499.434,316.84,499.391Z" fill="#fff"/>
        </g>
        <g>
          <path d="M351.453,507.572q-2.3,0-4.825-.079a273.008,273.008,0,0,1-28.847-2.671.776.776,0,0,1-.611-.5,25.632,25.632,0,0,1-1.1-4.824,23.532,23.532,0,0,1-.235-3.328c0-3.678,3.086-3.885,6.658-4.126,1.326-.089,2.828-.19,4.426-.45.352-.053.718-.116,1.072-.189a13.477,13.477,0,0,0,4.281-1.659,27.7,27.7,0,0,0,6.452-5.933c.749-.853,1.525-1.735,2.328-2.565,2.613-2.692,4.029-2.152,6.308-.967a15.75,15.75,0,0,0,5.58,1.9c1.109.155,2.127.278,3.075.394,5.009.609,8.319,1.012,13.175,4.6,5.906,4.372,4.666,11.625,4.61,11.931-.038.349-.095.726-.163,1.08a.88.88,0,0,1-.034.12,12.213,12.213,0,0,1-2.411,5.542.783.783,0,0,1-.423.243A107.218,107.218,0,0,1,351.453,507.572Zm-32.963-4.213a271.907,271.907,0,0,0,28.189,2.582,116.627,116.627,0,0,0,23.506-1.329,11.55,11.55,0,0,0,1.916-4.723.78.78,0,0,1,.035-.128c.051-.281.095-.578.13-.891.055-.318,1.119-6.669-4-10.456-4.526-3.344-7.5-3.706-12.44-4.306-.956-.117-1.982-.242-3.1-.4a17.331,17.331,0,0,1-6.081-2.056c-1.955-1.016-2.545-1.322-4.477.67-.777.8-1.54,1.671-2.277,2.51a28.86,28.86,0,0,1-6.826,6.243,15.022,15.022,0,0,1-4.76,1.845c-.381.079-.774.146-1.144.2-1.663.27-3.2.374-4.563.465-3.871.261-5.21.458-5.21,2.577a22.08,22.08,0,0,0,.22,3.115A26.093,26.093,0,0,0,318.49,503.359Z" fill="#231815"/>
          <path d="M349.941,503.117c-2.125,0-4.368-.051-6.724-.17-15.789-.794-24.224-2.325-26.433-2.776a1.124,1.124,0,0,1-.5-.244.782.782,0,0,1,.019-1.1.771.771,0,0,1,.793-.174h0c2.182.445,10.521,1.958,26.2,2.747,18.05.9,29.248-2.084,29.356-2.114a.8.8,0,0,1,1,.746.774.774,0,0,1-.641.766C372.125,501.019,363.5,503.117,349.941,503.117Z" fill="#231815"/>
          <path d="M327.044,493.133a.769.769,0,0,1-.439-.137c-.269-.184-6.609-4.542-8.668-6.116a3.47,3.47,0,0,1-1.516-2.3,3.4,3.4,0,0,1,.932-2.5c1.453-1.73,4.267-.116,4.583.074l11.173,7.61a.845.845,0,0,1,.1.08.783.783,0,0,1,.03,1.1.769.769,0,0,1-1.043.073l-11.1-7.559c-.576-.342-2.079-.954-2.549-.392a1.918,1.918,0,0,0-.588,1.329,2.047,2.047,0,0,0,.918,1.246c2.028,1.55,8.539,6.025,8.6,6.07a.776.776,0,0,1-.44,1.416Z" fill="#231815"/>
        </g>
      </g>
      <ellipse cx="365.792" cy="491.265" rx="1.907" ry="2.274" transform="translate(-204.414 714.894) rotate(-74.744)" fill="#231815"/>
      <ellipse cx="359.362" cy="488.393" rx="1.907" ry="2.274" transform="translate(-206.381 706.575) rotate(-74.744)" fill="#231815"/>
      <ellipse cx="352.262" cy="487.039" rx="1.907" ry="2.274" transform="translate(-210.307 698.726) rotate(-74.744)" fill="#231815"/>
      <ellipse cx="361.996" cy="495.402" rx="1.907" ry="2.274" transform="translate(-211.203 714.28) rotate(-74.744)" fill="#231815"/>
      <ellipse cx="355.566" cy="492.531" rx="1.907" ry="2.274" transform="translate(-213.17 705.961) rotate(-74.744)" fill="#231815"/>
      <ellipse cx="348.465" cy="491.177" rx="1.907" ry="2.274" transform="translate(-217.096 698.113) rotate(-74.744)" fill="#231815"/>
    </g>
    <path d="M351.021,299.129a4.813,4.813,0,0,1-4.207-3.039c-1.713-3.873-1.572-8.628.408-13.752a7.351,7.351,0,0,0-.892-7.364,10.581,10.581,0,0,0-8.478-4.147.776.776,0,0,1-.114-1.548,12.07,12.07,0,0,1,9.839,4.77,8.84,8.84,0,0,1,1.093,8.848c-1.8,4.664-1.957,9.127-.436,12.566a3.124,3.124,0,0,0,3.205,2.07c1.433-.3,2.289-2.123,2.289-4.873,0-3.221,1.791-5.344,3.524-7.4,2.471-2.928,5.027-5.956,3.581-12.732-1.3-6.126-12.486-12.088-12.6-12.148-8.64-5.018-7.6-11.119-5.721-22.2.564-3.319,1.2-7.08,1.719-11.479.257-2.117.474-4.416.645-6.836.157-2.391.252-4.619.291-6.81a170.055,170.055,0,0,0-2.77-33.054c-1.341-7.651-2.956-14.939-4.8-21.658-12.676-46.431-33.249-58.379-34.119-58.865a.776.776,0,0,1,.757-1.355c.893.5,22.014,12.758,34.86,59.81,1.856,6.766,3.482,14.1,4.832,21.8a171.616,171.616,0,0,1,2.792,33.351c-.04,2.214-.136,4.467-.294,6.886-.173,2.451-.392,4.776-.653,6.915-.519,4.435-1.162,8.218-1.729,11.555-1.881,11.066-2.739,16.117,4.941,20.578.459.241,11.912,6.348,13.367,13.183,1.6,7.519-1.328,10.992-3.914,14.056-1.694,2.009-3.157,3.742-3.157,6.4,0,3.538-1.317,5.928-3.522,6.392A3.544,3.544,0,0,1,351.021,299.129Z" fill="#231815"/>
    <g clip-path="url(#clip-path-2)">
      <circle cx="269.05" cy="167.982" r="11.408" fill="#fff"/>
      <circle cx="269.05" cy="167.982" r="7.686" fill="#97d2ce"/>
      <path d="M269.051,180.167a12.185,12.185,0,1,1,12.184-12.185A12.2,12.2,0,0,1,269.051,180.167Zm0-22.817a10.632,10.632,0,1,0,10.631,10.632A10.644,10.644,0,0,0,269.051,157.35Z" fill="#231815"/>
      <path d="M269.051,176.444a8.463,8.463,0,1,1,8.462-8.462A8.472,8.472,0,0,1,269.051,176.444Zm0-15.372a6.91,6.91,0,1,0,6.91,6.91A6.918,6.918,0,0,0,269.051,161.072Z" fill="#231815"/>
      <circle cx="269.05" cy="167.982" r="3.618" fill="#231815"/>
    </g>
    <path d="M264.863,299.461a3.853,3.853,0,0,1-1.834-.435c-1.868-1-2.646-3.45-2.312-7.288.361-4.16-.683-5.153-2.413-6.8a17.4,17.4,0,0,1-5.294-8.7c-3.367-11.031,6.153-15.938,6.25-15.987,7.606-4.419,6.683-9.619,4.66-21.012-.632-3.564-1.349-7.6-1.924-12.354-.282-2.339-.5-4.6-.664-6.909-.157-2.255-.263-4.572-.315-6.889a169.169,169.169,0,0,1,2.727-33.352c1.352-7.705,2.977-15.04,4.832-21.8,12.846-47.051,33.967-59.31,34.86-59.809a.776.776,0,0,1,.757,1.355c-.87.486-21.443,12.434-34.119,58.864-1.843,6.716-3.458,14-4.8,21.659a167.555,167.555,0,0,0-2.7,33.049c.051,2.294.156,4.586.312,6.815.163,2.284.378,4.519.656,6.833.57,4.708,1.283,8.725,1.912,12.268,2.022,11.389,3.135,17.662-5.452,22.65a11.591,11.591,0,0,0-5.5,14.167,16.048,16.048,0,0,0,4.879,8.025c1.853,1.761,3.316,3.152,2.89,8.058-.267,3.071.265,5.126,1.5,5.784,1.27.679,3.192-.089,4.44-1.089,2.489-1.988,4.15-6.991,2.326-12.348-.171-.506-.351-1.014-.532-1.521-1.171-3.3-2.383-6.709-.812-9.16,1.063-1.658,3.232-2.613,6.631-2.917a.776.776,0,0,1,.138,1.546c-2.848.255-4.686,1-5.462,2.209-1.161,1.811-.126,4.721.968,7.8.183.513.366,1.029.539,1.541,2.052,6.027.075,11.742-2.826,14.058A7.282,7.282,0,0,1,264.863,299.461Z" fill="#231815"/>
  </g>
  <g>
    <polygon points="186.212 180.965 173.024 199.665 160.419 194.459 164.973 76.481 140.247 15.613 82.987 1 28.004 14.912 1 77.182 7.752 212.792 61.752 259.792 125.529 245.635 152.943 214.09 177.615 221.761 189.973 201 227.004 207.272 186.212 180.965" fill="#fff"/>
    <path d="M61.752,260.792a1,1,0,0,1-.657-.245l-54-47a1,1,0,0,1-.342-.7L0,77.232a1,1,0,0,1,.081-.448l27.005-62.27a1,1,0,0,1,.673-.571L82.742.031a.988.988,0,0,1,.492,0l57.26,14.613a1,1,0,0,1,.679.592L165.9,76.105a1,1,0,0,1,.072.415L161.445,193.8l11.222,4.635L185.4,180.389a1,1,0,0,1,1.36-.264l40.791,26.306a1,1,0,0,1-.709,1.826L190.482,202.1l-12.008,20.172a1,1,0,0,1-1.156.443l-24.048-7.477L126.284,246.29a.993.993,0,0,1-.538.32L61.969,260.768A1,1,0,0,1,61.752,260.792ZM8.729,212.317l53.3,46.39,62.963-13.977,27.2-31.3a1,1,0,0,1,1.052-.3l23.919,7.437,11.955-20.084a1,1,0,0,1,1.026-.474l32.229,5.458-35.892-23.147-12.636,17.916a1,1,0,0,1-1.2.348l-12.6-5.206a1,1,0,0,1-.617-.962l4.546-117.763-24.455-60.2L82.986,2.032,28.726,15.76,2.01,77.366Z" fill="#231815"/>
  </g>
  <g>
    <path d="M95.172,54.526a7.72,7.72,0,0,0-.341,1.98c0,1.221,1.18,2.121,3.961,2.121a27.952,27.952,0,0,0,6.822-.761l.02,2.721a29.321,29.321,0,0,1-6.742.66c-4.441,0-6.681-1.5-6.681-4.14a12.154,12.154,0,0,1,.4-2.8ZM93.511,46.3a49.48,49.48,0,0,0,5.281.24c1.9,0,4.141-.12,5.621-.28v2.621c-1.34.1-3.761.22-5.6.22-2.041,0-3.72-.08-5.3-.2Z"/>
    <path d="M108.214,81.127a5.143,5.143,0,0,1-3.661,1.46c-1.44,0-2.44-1.06-2.44-2.94,0-2.1.7-4.941.7-6.7,0-.96-.48-1.44-1.3-1.44-1.44,0-3.56,1.8-5.121,3.521-.019.56-.04,1.08-.04,1.581,0,1.58,0,3.22.12,5.041.021.339.081,1.059.141,1.479H93.931c.04-.4.06-1.12.06-1.439.04-1.5.04-2.6.061-4.222-.821,1.2-1.782,2.621-2.442,3.541l-1.519-2.141c1.1-1.34,3.06-3.9,4.16-5.541l.08-1.36c-.94.12-2.42.3-3.521.46l-.24-2.5a16.4,16.4,0,0,0,1.681-.021c.56-.04,1.42-.139,2.24-.259.04-.72.08-1.261.08-1.481a10.015,10.015,0,0,0-.08-1.721l2.82.081c-.119.54-.259,1.541-.42,2.741l.721.94c-.261.34-.66.94-.98,1.46-.02.14-.02.28-.04.42,1.52-1.32,3.76-2.881,5.641-2.881a2.71,2.71,0,0,1,3.04,2.862c0,2-.639,4.86-.639,6.861,0,.54.259.86.74.86a3.833,3.833,0,0,0,2.5-1.381Z"/>
    <path d="M92.551,89.484c1.62-.121,4.821-.42,8.362-.72,2-.181,4.12-.28,5.48-.321l.021,2.481a19.868,19.868,0,0,0-3.761.26,5.846,5.846,0,0,0-4.081,5.382c0,3.18,2.981,4.34,6.262,4.5l-.9,2.679c-4.061-.26-7.9-2.46-7.9-6.661a7.578,7.578,0,0,1,2.86-5.921c-1.68.18-5.761.62-8,1.08l-.24-2.66C91.411,89.564,92.151,89.524,92.551,89.484Zm12.7,5.941-1.481.66a18.515,18.515,0,0,0-1.52-2.721l1.44-.6A24.873,24.873,0,0,1,105.254,95.425Zm2.28-.96-1.46.7a16.8,16.8,0,0,0-1.621-2.64l1.44-.641A25.465,25.465,0,0,1,107.534,94.465Z"/>
    <path d="M97.431,115.685a15.421,15.421,0,0,1,3.722-.5c2.96,0,5.32,1.581,5.32,4.26,0,2.282-1.2,4.022-4.26,4.782a15.533,15.533,0,0,1-2.561.3l-.9-2.5a14.808,14.808,0,0,0,2.4-.12c1.54-.28,2.8-1.06,2.8-2.48,0-1.32-1.16-2.08-2.84-2.08a13.344,13.344,0,0,0-3.642.54c.04,1.54.081,3.02.081,3.7,0,2.4-.88,3.021-2.121,3.021-1.9,0-4.581-1.621-4.581-3.681,0-1.7,1.961-3.46,4.341-4.481-.019-.46-.019-.9-.019-1.34v-1.64c-.381.019-.741.04-1.041.04a23.414,23.414,0,0,1-2.68-.1l-.061-2.339a20.412,20.412,0,0,0,2.681.139c.34,0,.72-.02,1.12-.04v-1.58a14.915,14.915,0,0,0-.12-1.7h2.681c-.06.36-.14,1.181-.18,1.681l-.061,1.38a23.694,23.694,0,0,0,3.582-.7l.06,2.42c-1.1.24-2.441.46-3.7.6-.021.6-.021,1.179-.021,1.74Zm-2.139,5.462c0-.481-.021-1.361-.061-2.4-1.179.62-1.96,1.42-1.96,2.08,0,.62.88,1.16,1.4,1.16C95.011,121.986,95.292,121.807,95.292,121.147Zm8-11.163a45.936,45.936,0,0,1,4.761,2.72l-1.18,1.981a32.467,32.467,0,0,0-4.661-2.821Z"/>
    <path d="M92.89,131.725c1.5-.441,5.442-1.841,8.3-1.841,3.482,0,6.262,2.02,6.262,5.6,0,4.4-4.181,7.222-11.023,7.562l-1.139-2.6c5.261-.1,9.382-1.62,9.382-5,0-1.82-1.261-3.22-3.6-3.22-2.841,0-7.422,1.94-9.442,2.82l-1.1-2.721C91.23,132.205,92.19,131.925,92.89,131.725Z"/>
    <path d="M104.893,163.628a14.806,14.806,0,0,0-3.9-2.7c.019.26.019.5.019.7,0,1.66-1.259,2.941-3.82,2.941-3.1,0-4.741-1.18-4.741-3.221,0-1.981,1.8-3.361,4.8-3.361q.6,0,1.2.06c-.04-.58-.06-1.18-.08-1.74h-1c-1.141,0-3.381-.1-4.661-.26v-2.3a34.576,34.576,0,0,0,4.68.361h.941v-2h-.941a35.484,35.484,0,0,1-4.2-.3l-.02-2.22a25.331,25.331,0,0,0,4.2.38h.98v-.9a9.745,9.745,0,0,0-.1-1.3h2.64a12.069,12.069,0,0,0-.139,1.341l-.021.78a39.627,39.627,0,0,0,4.621-.481l.04,2.241c-1.28.12-2.82.28-4.68.381l-.021,2c1.961-.081,3.581-.241,5.161-.46l.021,2.3c-1.74.2-3.261.34-5.142.4.04.72.08,1.5.141,2.241a15.005,15.005,0,0,1,5.421,2.94Zm-6.361-3.481a10.6,10.6,0,0,0-1.6-.14c-1.36,0-2.12.519-2.12,1.18,0,.74.68,1.18,2.021,1.18,1.04,0,1.721-.28,1.721-1.4C98.553,160.767,98.553,160.486,98.532,160.147Z"/>
    <path d="M106.774,181.986a19.033,19.033,0,0,0-1.661-1.339,9.556,9.556,0,0,1-4.9,5.241l-2.081-1.7a8.47,8.47,0,0,0,4.941-4.861,13.465,13.465,0,0,0-4.541-1.581,37.793,37.793,0,0,1-2.261,4.661,3.394,3.394,0,0,1-3.02,1.721,2.918,2.918,0,0,1-2.981-3.161c0-2.981,2.721-5.28,6.621-5.461.54-1.26,1.1-2.58,1.561-3.5-.76.04-2.441.1-3.32.16-.42.021-1.08.08-1.581.16l-.1-2.5a15.566,15.566,0,0,0,1.6.08c1.1,0,3.18-.08,4.081-.16a4.565,4.565,0,0,0,1.3-.3l1.561,1.241a5.615,5.615,0,0,0-.66.8,45.743,45.743,0,0,0-1.9,4.162,16.52,16.52,0,0,1,4.162,1.219c.04-.219.04-.439.059-.639a15,15,0,0,0,.021-2.121l2.52.28a31.479,31.479,0,0,1-.36,3.6c.82.46,1.52.921,2.08,1.3Zm-10.883-4.26c-2.14.34-3.34,1.66-3.34,2.86a.82.82,0,0,0,.76.921c.38,0,.66-.181,1-.66A22.407,22.407,0,0,0,95.891,177.726Z"/>
    <path d="M99.292,203.307c.06-.58.08-1.481.1-2.321-1.46.8-2.22,1.56-2.22,2.521,0,1.06.92,1.36,2.8,1.36a32.875,32.875,0,0,0,5.522-.54l-.08,2.5a52.365,52.365,0,0,1-5.5.321c-3.021,0-5.3-.741-5.3-3.242,0-2.46,2.36-4.04,4.541-5.18a1.506,1.506,0,0,0-1.34-.66,4.743,4.743,0,0,0-3.041,1.36c-.58.58-1.12,1.28-1.8,2.12l-2.059-1.561a19.1,19.1,0,0,0,4.24-5.32h-.22c-.78,0-2.2-.04-3.281-.14v-2.261a24.573,24.573,0,0,0,3.421.22h.94a10.149,10.149,0,0,0,.38-2.22l2.561.22c-.1.459-.24,1.14-.48,1.92a43.213,43.213,0,0,0,5.481-.58l-.02,2.281c-1.86.259-4.241.42-6.3.5a13.957,13.957,0,0,1-1.121,1.961,6.291,6.291,0,0,1,2.181-.381,2.692,2.692,0,0,1,2.6,1.5c1-.46,1.8-.8,2.6-1.16.76-.321,1.441-.661,2.16-1l.96,2.26c-.6.18-1.639.561-2.3.821-.861.32-1.981.759-3.161,1.32.02,1.08.06,2.48.08,3.381Z"/>
    <path d="M61.113,58.826a13.4,13.4,0,0,1-2.48,4.481,15.391,15.391,0,0,0-1.861-1.281,9.1,9.1,0,0,0,2.16-3.7Zm3.3-.66H57.952V45.323h6.462ZM62.213,47.2h-2.14v1.821h2.14Zm0,3.581h-2.14v1.861h2.14Zm0,3.621h-2.14v1.861h2.14Zm12.8-3.6a20.185,20.185,0,0,1-2.4,8.1,9.794,9.794,0,0,0,3.3,2.46,7.857,7.857,0,0,0-1.54,1.9,10.966,10.966,0,0,1-3.141-2.5,11.784,11.784,0,0,1-3.161,2.42,8.121,8.121,0,0,0-1.28-1.861,9.161,9.161,0,0,1-1.04,1.961,9.69,9.69,0,0,0-1.9-1.22,7.656,7.656,0,0,0,.62-1.041l-1.62.781a14.628,14.628,0,0,0-1.5-2.761l1.84-.78a16.867,16.867,0,0,1,1.481,2.341,19.656,19.656,0,0,0,1.1-7.522v-7.5h9.362v2.141H67.954v2.82h5.281l.381-.04Zm-5.18,8.042a20.449,20.449,0,0,1-1.9-4.461,21.914,21.914,0,0,1-1.08,6.781A8.793,8.793,0,0,0,69.835,58.846Zm-.34-6.241a17.284,17.284,0,0,0,1.66,4.241,15.745,15.745,0,0,0,1.4-4.241Z"/>
    <path d="M64.954,77.425c-.32,4.021-1.2,6.561-6.662,7.862a7.019,7.019,0,0,0-1.3-2.06c4.741-.921,5.241-2.721,5.481-5.8Zm.059-7.121H57.532V68.143h7.481v-1.58h2.461v1.58h7.682V70.3H67.474v1.3h5.841v2.081H59.432V71.6h5.581ZM72.5,78.926V76.805h-12.4v2.121h-2.3V74.664H74.9v4.262Zm.12,3.92c.66,0,.78-.34.86-2.38a6.837,6.837,0,0,0,2.141.9c-.26,2.88-.88,3.62-2.761,3.62h-2.58c-2.321,0-2.9-.679-2.9-2.82V77.425h2.4v4.7c0,.641.12.72.841.72Z"/>
    <path d="M63.834,88.743c-.12.821-.221,1.821-.261,2.581-.08,2.1-.22,6.442-.22,8.842a2.346,2.346,0,0,0,2.66,2.6c3.221,0,5.242-1.841,6.663-3.961l1.74,2.16a10.015,10.015,0,0,1-8.422,4.441c-3.181,0-5.221-1.4-5.221-4.7,0-2.6.18-7.7.18-9.382a13.206,13.206,0,0,0-.24-2.6Z"/>
    <path d="M59.932,111.764c1.621-.12,4.822-.42,8.363-.74,2-.161,4.12-.281,5.48-.321l.021,2.482a19.574,19.574,0,0,0-3.742.279,5.839,5.839,0,0,0-4.1,5.382c0,3.18,3,4.32,6.281,4.5l-.92,2.68c-4.061-.26-7.9-2.46-7.9-6.662a7.656,7.656,0,0,1,2.861-5.941c-1.68.2-5.762.62-8,1.1l-.24-2.661C58.793,111.844,59.553,111.8,59.932,111.764Z"/>
    <path d="M74.116,143.307a19.19,19.19,0,0,0-1.661-1.34,9.554,9.554,0,0,1-4.9,5.241l-2.081-1.7a8.473,8.473,0,0,0,4.942-4.86,13.451,13.451,0,0,0-4.541-1.581,37.793,37.793,0,0,1-2.261,4.661,3.4,3.4,0,0,1-3.02,1.72,2.917,2.917,0,0,1-2.981-3.161c0-2.98,2.721-5.28,6.621-5.461.54-1.259,1.1-2.58,1.561-3.5-.76.04-2.441.1-3.321.16-.42.021-1.08.081-1.581.161l-.1-2.5a15.835,15.835,0,0,0,1.6.08c1.1,0,3.181-.08,4.081-.16a4.606,4.606,0,0,0,1.3-.3L69.335,132a5.565,5.565,0,0,0-.66.8,45.427,45.427,0,0,0-1.9,4.161,16.542,16.542,0,0,1,4.161,1.22c.04-.22.04-.44.06-.64a15.139,15.139,0,0,0,.02-2.121l2.521.28a31.748,31.748,0,0,1-.36,3.6c.82.46,1.52.921,2.08,1.3Zm-10.883-4.261c-2.14.34-3.341,1.66-3.341,2.86a.821.821,0,0,0,.761.921c.38,0,.66-.18,1-.66A22.407,22.407,0,0,0,63.233,139.046Z"/>
    <path d="M72.455,167.467a15.3,15.3,0,0,0-4.28-3.041c.019.24.019.48.019.66,0,1.721-.88,3.36-4.121,3.36-2.76,0-5.061-.92-5.061-3.54,0-2.041,1.741-3.621,5.282-3.621a11,11,0,0,1,1.16.06c-.061-1.52-.12-3.181-.12-4.2,0-1.181-.021-2.322-.021-3.141a12.808,12.808,0,0,0-.219-2.261h2.92c-.08.56-.14,1.5-.179,2.261v1.4c1.54-.04,3.8-.119,5.421-.3l.1,2.32c-1.64.141-3.94.24-5.52.28.039,1.16.119,2.721.219,4.141a15.024,15.024,0,0,1,5.9,3.3Zm-6.921-3.881a8.071,8.071,0,0,0-1.58-.141c-1.521,0-2.421.5-2.421,1.341,0,.94.98,1.3,2.32,1.3,1.261,0,1.7-.54,1.7-1.84C65.553,164.066,65.553,163.846,65.534,163.586Z"/>
    <path d="M67.094,180.664a16.824,16.824,0,0,0-5.041.96c-.56.16-1.32.481-1.88.66l-.741-2.76c.661-.06,1.5-.22,2.121-.34a26.3,26.3,0,0,1,5.861-.88c3.081,0,5.222,1.74,5.222,4.781,0,4.16-3.841,6.741-9.223,7.482l-1.4-2.421c4.821-.56,7.881-2.12,7.881-5.162C69.894,181.7,68.934,180.664,67.094,180.664Zm3.921-6.121-.38,2.38c-2.281-.14-6.5-.52-8.722-.92l.38-2.32A58.493,58.493,0,0,0,71.015,174.543Z"/>
    <path d="M64.254,208.127a2.083,2.083,0,0,1,4.161,0,2.084,2.084,0,0,1-4.161,0Zm.34-10.2-.081-2.981h3.662l-.1,2.981-.7,6.842H65.313Z"/>
  </g>
</svg>
