<svg xmlns="http://www.w3.org/2000/svg" xmlns:xlink="http://www.w3.org/1999/xlink" width="302.544" height="203.509" viewBox="0 0 302.544 203.509">
  <defs>
    <clipPath id="clip-path">
      <polygon points="101.305 112.027 76.809 83.898 80.626 80.573 83.596 79.536 111.659 55.098 113.094 52.299 116.912 48.975 141.408 77.105 137.591 80.429 134.621 81.466 106.558 105.904 105.123 108.703 101.305 112.027" fill="none"/>
    </clipPath>
  </defs>
  <g id="レイヤー_2" data-name="レイヤー 2">
    <g id="レイヤー_1-2" data-name="レイヤー 1">
      <g>
        <g>
          <polygon points="284.172 9.782 248.103 0.656 210.539 10.242 194.318 50.173 195.306 75.756 187.069 79.158 178.417 66.891 151.657 84.148 175.949 80.034 184.057 93.654 195.855 89.985 197.598 135.14 220.194 161.141 250.962 166.356 279.908 152.014 297.414 130.72 301.887 50.633 284.172 9.782" fill="#fff"/>
          <path d="M250.962,167.012a.671.671,0,0,1-.11-.009l-30.768-5.215a.654.654,0,0,1-.385-.217l-22.6-26a.648.648,0,0,1-.16-.405l-1.711-44.3L184.251,94.28a.656.656,0,0,1-.758-.291l-7.877-13.233-23.85,4.04a.657.657,0,0,1-.465-1.2l26.76-17.258a.658.658,0,0,1,.892.174l8.35,11.839,7.329-3.028L193.663,50.2a.648.648,0,0,1,.047-.272L209.931,9.995a.657.657,0,0,1,.446-.389L247.941.021a.654.654,0,0,1,.323,0l36.069,9.126a.657.657,0,0,1,.441.376l17.716,40.85a.67.67,0,0,1,.053.3l-4.474,80.088a.643.643,0,0,1-.148.379l-17.506,21.3a.649.649,0,0,1-.215.171l-28.947,14.342A.658.658,0,0,1,250.962,167.012Zm-30.427-6.478,30.326,5.139,28.63-14.184,17.28-21.02,4.453-79.718L283.7,10.339,248.1,1.333,211.022,10.8,194.979,50.289l.982,25.442a.654.654,0,0,1-.405.631l-8.237,3.4a.657.657,0,0,1-.787-.229l-8.289-11.753L154.7,82.968l21.143-3.581a.664.664,0,0,1,.673.312l7.843,13.174,11.3-3.514a.656.656,0,0,1,.85.6l1.735,44.924Z" fill="#231815"/>
        </g>
        <g>
          <path d="M267.4,35.913a10.118,10.118,0,0,1,2.442-.328c1.942,0,3.49,1.037,3.49,2.8,0,1.5-.787,2.638-2.8,3.137a10.189,10.189,0,0,1-1.68.2l-.591-1.64a9.693,9.693,0,0,0,1.576-.079c1.01-.184,1.836-.7,1.836-1.628,0-.866-.761-1.364-1.863-1.364a8.767,8.767,0,0,0-2.388.354c.026,1.01.052,1.982.052,2.428,0,1.574-.577,1.981-1.391,1.981-1.246,0-3-1.063-3-2.415,0-1.115,1.286-2.269,2.848-2.939-.013-.3-.013-.59-.013-.879V34.457c-.25.013-.486.026-.683.026a15.416,15.416,0,0,1-1.758-.066l-.04-1.535a13.274,13.274,0,0,0,1.759.092c.223,0,.472-.014.735-.026V31.911a9.75,9.75,0,0,0-.079-1.115h1.758c-.039.235-.091.774-.117,1.1l-.04.9a15.5,15.5,0,0,0,2.349-.459l.04,1.588c-.722.157-1.6.3-2.428.394-.014.393-.014.774-.014,1.141ZM266,39.5c0-.315-.014-.892-.04-1.574-.774.406-1.286.931-1.286,1.364,0,.407.577.761.919.761C265.812,40.047,266,39.929,266,39.5Zm5.248-7.323a30.224,30.224,0,0,1,3.124,1.785l-.774,1.3a21.223,21.223,0,0,0-3.058-1.85Z"/>
          <path d="M273.016,48.64a22.7,22.7,0,0,0-2.768-2.847l1.351-1.142a24.643,24.643,0,0,1,2.808,2.808Z"/>
          <path d="M267.4,57.8a10.118,10.118,0,0,1,2.442-.328c1.942,0,3.49,1.037,3.49,2.8,0,1.5-.787,2.638-2.8,3.136a10.082,10.082,0,0,1-1.68.2l-.591-1.64a9.693,9.693,0,0,0,1.576-.079c1.01-.184,1.836-.7,1.836-1.627,0-.866-.761-1.365-1.863-1.365a8.73,8.73,0,0,0-2.388.355c.026,1.01.052,1.981.052,2.427,0,1.575-.577,1.981-1.391,1.981-1.246,0-3-1.062-3-2.414,0-1.115,1.286-2.27,2.848-2.939-.013-.3-.013-.591-.013-.88V56.341c-.25.013-.486.027-.683.027a15.416,15.416,0,0,1-1.758-.066l-.04-1.535a13.419,13.419,0,0,0,1.759.091c.223,0,.472-.013.735-.026V53.8a9.766,9.766,0,0,0-.079-1.115h1.758c-.039.236-.091.774-.117,1.1l-.04.906a15.626,15.626,0,0,0,2.349-.459l.04,1.587c-.722.158-1.6.3-2.428.394-.014.393-.014.774-.014,1.142ZM266,61.381c0-.316-.014-.893-.04-1.575-.774.407-1.286.931-1.286,1.365,0,.406.577.761.919.761C265.812,61.932,266,61.814,266,61.381Zm5.248-7.324a30.224,30.224,0,0,1,3.124,1.785l-.774,1.3a21.317,21.317,0,0,0-3.058-1.851Z"/>
          <path d="M264.42,68.32a21.667,21.667,0,0,1,5.446-1.208c2.284,0,4.108,1.326,4.108,3.675,0,2.888-2.742,4.738-7.231,4.961L266,74.042c3.451-.066,6.154-1.063,6.154-3.281a2.1,2.1,0,0,0-2.362-2.113c-1.863,0-4.869,1.273-6.194,1.85l-.722-1.784C263.331,68.635,263.961,68.451,264.42,68.32Z"/>
          <path d="M272.294,89.25a9.71,9.71,0,0,0-2.558-1.772c.012.17.012.328.012.459,0,1.089-.826,1.929-2.506,1.929-2.034,0-3.11-.774-3.11-2.113,0-1.3,1.181-2.2,3.149-2.2.263,0,.525.013.788.039-.027-.381-.039-.774-.053-1.142h-.656c-.748,0-2.218-.065-3.058-.17V82.767a22.847,22.847,0,0,0,3.071.236h.617V81.691h-.617a23.251,23.251,0,0,1-2.755-.2l-.014-1.457a16.611,16.611,0,0,0,2.756.25H268V79.7a6.282,6.282,0,0,0-.066-.853h1.733a7.965,7.965,0,0,0-.092.879l-.013.512a26.133,26.133,0,0,0,3.031-.315l.026,1.47c-.839.078-1.85.183-3.07.249l-.014,1.312a33.754,33.754,0,0,0,3.386-.3l.014,1.509c-1.142.131-2.139.223-3.373.262.026.473.052.985.092,1.47a9.848,9.848,0,0,1,3.556,1.929Zm-4.173-2.284a6.865,6.865,0,0,0-1.05-.092c-.892,0-1.391.341-1.391.774,0,.486.446.775,1.326.775.682,0,1.129-.184,1.129-.919C268.135,87.373,268.135,87.189,268.121,86.966Z"/>
          <path d="M273.528,101.293a12.856,12.856,0,0,0-1.089-.879,6.271,6.271,0,0,1-3.215,3.439l-1.365-1.116a5.556,5.556,0,0,0,3.241-3.189,8.83,8.83,0,0,0-2.979-1.037,24.651,24.651,0,0,1-1.483,3.058,2.228,2.228,0,0,1-1.981,1.129,1.914,1.914,0,0,1-1.956-2.074c0-1.955,1.785-3.464,4.344-3.583.354-.826.722-1.692,1.024-2.3-.5.026-1.6.066-2.178.1-.276.013-.709.052-1.038.105l-.065-1.64a10.305,10.305,0,0,0,1.05.052c.721,0,2.087-.052,2.677-.105a3.009,3.009,0,0,0,.853-.2l1.024.814a3.563,3.563,0,0,0-.433.525,29.7,29.7,0,0,0-1.247,2.73,10.858,10.858,0,0,1,2.73.8c.026-.144.026-.288.039-.42a9.716,9.716,0,0,0,.013-1.391l1.654.184a20.7,20.7,0,0,1-.237,2.362c.538.3,1,.6,1.365.853Zm-7.139-2.8c-1.4.223-2.192,1.089-2.192,1.877a.539.539,0,0,0,.5.6c.25,0,.433-.119.656-.433A14.636,14.636,0,0,0,266.389,98.5Z"/>
          <path d="M273.016,109.69a22.71,22.71,0,0,0-2.768-2.848L271.6,105.7a24.643,24.643,0,0,1,2.808,2.808Z"/>
          <path d="M243.8,32.869c-.013.813,0,1.772.078,2.69.184,1.824.551,3.071,1.352,3.071.617,0,1.116-1.483,1.339-2.493l1.3,1.548c-.853,2.218-1.64,2.992-2.677,2.992-1.378,0-2.6-1.247-2.966-4.672-.118-1.167-.144-2.651-.144-3.438A8.981,8.981,0,0,0,242,31.281l1.955.027A9.946,9.946,0,0,0,243.8,32.869Zm8.832,5.223-1.68.643c-.2-2.06-.866-5.039-2.257-6.614l1.614-.538A13.813,13.813,0,0,1,252.629,38.092Z"/>
          <path d="M246.027,46.028c.421-.026.8-.052,1.064-.052,1.351,0,2.3.6,2.3,2.428a12.566,12.566,0,0,1-.721,4.645,2.034,2.034,0,0,1-2.087,1.169,7.976,7.976,0,0,1-1.522-.184l-.276-1.693a7.176,7.176,0,0,0,1.548.275.948.948,0,0,0,.959-.551,9.934,9.934,0,0,0,.511-3.491c0-1-.433-1.154-1.233-1.154-.2,0-.512.026-.867.052a27.458,27.458,0,0,1-2.585,6.8l-1.667-.669a18.953,18.953,0,0,0,2.56-5.945c-.46.052-.854.105-1.089.131-.368.052-1.024.131-1.418.21l-.144-1.732a11.726,11.726,0,0,0,1.352,0c.393-.013,1-.053,1.64-.105a13.494,13.494,0,0,0,.262-2.69l1.89.2c-.066.342-.145.735-.21,1.05ZM250.9,44.86a22.155,22.155,0,0,1,2.231,4.725l-1.614.761a14.8,14.8,0,0,0-2.139-4.856Z"/>
          <path d="M243.8,59.4c-.013.814,0,1.772.078,2.69.184,1.825.551,3.071,1.352,3.071.617,0,1.116-1.483,1.339-2.493l1.3,1.548c-.853,2.218-1.64,2.992-2.677,2.992-1.378,0-2.6-1.246-2.966-4.671-.118-1.168-.144-2.651-.144-3.439A8.958,8.958,0,0,0,242,57.812l1.955.026A9.958,9.958,0,0,0,243.8,59.4Zm8.832,5.223-1.68.644c-.2-2.061-.866-5.04-2.257-6.614l1.614-.539A13.813,13.813,0,0,1,252.629,64.622Z"/>
          <path d="M246.027,72.559c.421-.027.8-.053,1.064-.053,1.351,0,2.3.6,2.3,2.428a12.566,12.566,0,0,1-.721,4.645,2.034,2.034,0,0,1-2.087,1.169,7.9,7.9,0,0,1-1.522-.184l-.276-1.693a7.115,7.115,0,0,0,1.548.275.946.946,0,0,0,.959-.551,9.928,9.928,0,0,0,.511-3.49c0-1-.433-1.155-1.233-1.155-.2,0-.512.026-.867.053a27.451,27.451,0,0,1-2.585,6.8l-1.667-.669a18.953,18.953,0,0,0,2.56-5.945c-.46.052-.854.1-1.089.131-.368.053-1.024.131-1.418.21l-.144-1.732a11.505,11.505,0,0,0,1.352,0c.393-.013,1-.053,1.64-.105A13.487,13.487,0,0,0,244.61,70l1.89.2c-.066.341-.145.734-.21,1.05Zm4.869-1.168a22.147,22.147,0,0,1,2.231,4.724l-1.614.762a14.815,14.815,0,0,0-2.139-4.857Z"/>
          <path d="M243.8,85.928c-.013.814,0,1.772.078,2.69.184,1.825.551,3.071,1.352,3.071.617,0,1.116-1.483,1.339-2.493l1.3,1.549c-.853,2.217-1.64,2.991-2.677,2.991-1.378,0-2.6-1.246-2.966-4.671-.118-1.168-.144-2.651-.144-3.439A8.958,8.958,0,0,0,242,84.341l1.955.026A9.958,9.958,0,0,0,243.8,85.928Zm8.832,5.223-1.68.644c-.2-2.061-.866-5.04-2.257-6.614l1.614-.539A13.813,13.813,0,0,1,252.629,91.151Z"/>
          <path d="M246.027,99.088c.421-.027.8-.053,1.064-.053,1.351,0,2.3.6,2.3,2.428a12.566,12.566,0,0,1-.721,4.645,2.034,2.034,0,0,1-2.087,1.169,7.9,7.9,0,0,1-1.522-.184l-.276-1.693a7.115,7.115,0,0,0,1.548.275.946.946,0,0,0,.959-.551,9.928,9.928,0,0,0,.511-3.49c0-1-.433-1.155-1.233-1.155-.2,0-.512.026-.867.053a27.451,27.451,0,0,1-2.585,6.8l-1.667-.669a18.944,18.944,0,0,0,2.56-5.945c-.46.052-.854.1-1.089.131-.368.053-1.024.132-1.418.21l-.144-1.732a11.505,11.505,0,0,0,1.352,0c.393-.013,1-.053,1.64-.105a13.487,13.487,0,0,0,.262-2.69l1.89.2c-.066.341-.145.734-.21,1.05ZM250.9,97.92a22.147,22.147,0,0,1,2.231,4.724l-1.614.762a14.815,14.815,0,0,0-2.139-4.857Z"/>
          <path d="M243.8,112.457c-.013.814,0,1.772.078,2.69.184,1.825.551,3.071,1.352,3.071.617,0,1.116-1.483,1.339-2.493l1.3,1.549c-.853,2.217-1.64,2.991-2.677,2.991-1.378,0-2.6-1.246-2.966-4.671-.118-1.168-.144-2.651-.144-3.439A8.958,8.958,0,0,0,242,110.87l1.955.026A9.958,9.958,0,0,0,243.8,112.457Zm8.832,5.223-1.68.644c-.2-2.061-.866-5.04-2.257-6.614l1.614-.539A13.813,13.813,0,0,1,252.629,117.68Z"/>
          <path d="M246.027,125.618c.421-.026.8-.053,1.064-.053,1.351,0,2.3.605,2.3,2.428a12.574,12.574,0,0,1-.721,4.646,2.035,2.035,0,0,1-2.087,1.168,7.9,7.9,0,0,1-1.522-.184l-.276-1.693a7.124,7.124,0,0,0,1.548.276.948.948,0,0,0,.959-.551,9.938,9.938,0,0,0,.511-3.491c0-1-.433-1.155-1.233-1.155-.2,0-.512.027-.867.053a27.458,27.458,0,0,1-2.585,6.8l-1.667-.67a18.944,18.944,0,0,0,2.56-5.945c-.46.053-.854.1-1.089.131-.368.053-1.024.132-1.418.211l-.144-1.733a11.293,11.293,0,0,0,1.352,0c.393-.012,1-.052,1.64-.105a13.487,13.487,0,0,0,.262-2.69l1.89.2c-.066.341-.145.735-.21,1.05Zm4.869-1.168a22.132,22.132,0,0,1,2.231,4.725l-1.614.761a14.8,14.8,0,0,0-2.139-4.856Z"/>
          <path d="M222.373,32.869c-.013.813,0,1.772.079,2.69.184,1.824.551,3.071,1.352,3.071.616,0,1.115-1.483,1.338-2.493l1.3,1.548c-.853,2.218-1.64,2.992-2.677,2.992-1.378,0-2.6-1.247-2.966-4.672-.118-1.167-.144-2.651-.144-3.438a8.838,8.838,0,0,0-.079-1.286l1.956.027A9.836,9.836,0,0,0,222.373,32.869Zm8.832,5.223-1.68.643c-.2-2.06-.866-5.039-2.257-6.614l1.614-.538A13.8,13.8,0,0,1,231.205,38.092Z"/>
          <path d="M224.6,46.028c.42-.026.8-.052,1.063-.052,1.351,0,2.3.6,2.3,2.428a12.566,12.566,0,0,1-.721,4.645,2.033,2.033,0,0,1-2.087,1.169,8.016,8.016,0,0,1-1.523-.184l-.275-1.693a7.187,7.187,0,0,0,1.548.275.947.947,0,0,0,.959-.551,9.909,9.909,0,0,0,.512-3.491c0-1-.433-1.154-1.234-1.154-.2,0-.512.026-.866.052a27.5,27.5,0,0,1-2.585,6.8l-1.667-.669a18.927,18.927,0,0,0,2.559-5.945c-.459.052-.853.105-1.089.131-.368.052-1.024.131-1.418.21l-.144-1.732a11.726,11.726,0,0,0,1.352,0c.393-.013,1-.053,1.64-.105a13.575,13.575,0,0,0,.263-2.69l1.889.2c-.066.342-.144.735-.21,1.05Zm4.869-1.168a22.15,22.15,0,0,1,2.23,4.725l-1.614.761a14.78,14.78,0,0,0-2.139-4.856Z"/>
          <path d="M224.512,60.318c.42-.026.8-.053,1.063-.053,1.352,0,2.3.6,2.3,2.428a12.729,12.729,0,0,1-.709,4.632,2.043,2.043,0,0,1-2.1,1.169,8.18,8.18,0,0,1-1.522-.171l-.276-1.693a7.186,7.186,0,0,0,1.562.262.919.919,0,0,0,.945-.537,9.6,9.6,0,0,0,.525-3.491c0-1-.433-1.155-1.247-1.155-.2,0-.512.026-.866.052a27.855,27.855,0,0,1-2.586,6.8l-1.666-.669a19.322,19.322,0,0,0,2.572-5.945c-.459.053-.866.1-1.1.131-.367.053-1.024.131-1.4.21l-.157-1.732a11.954,11.954,0,0,0,1.365,0c.393-.013.984-.052,1.627-.105a13.677,13.677,0,0,0,.276-2.7l1.9.21c-.078.328-.17.735-.235,1.049Zm5.039-.854a23.928,23.928,0,0,1,2.073,4.436L230,64.649a14.57,14.57,0,0,0-2.139-4.791l1.181-.5a13.374,13.374,0,0,0-.878-1.522l1.023-.419a20.391,20.391,0,0,1,1.023,1.771Zm1.168-.433A14.658,14.658,0,0,0,229.7,57.26l1.011-.42a17.982,17.982,0,0,1,1.037,1.758Z"/>
          <path d="M221.349,73.083c1.063-.079,3.163-.275,5.486-.472,1.312-.118,2.7-.184,3.595-.21l.014,1.627a13.113,13.113,0,0,0-2.467.171,3.833,3.833,0,0,0-2.678,3.53c0,2.087,1.956,2.848,4.108,2.953l-.59,1.759c-2.664-.172-5.185-1.615-5.185-4.371a4.969,4.969,0,0,1,1.878-3.884c-1.1.118-3.78.407-5.25.708l-.157-1.745C220.6,73.136,221.087,73.11,221.349,73.083Zm8.334,3.9-.972.433a12.062,12.062,0,0,0-1-1.785l.945-.393A16.478,16.478,0,0,1,229.683,76.981Zm1.5-.63-.958.46a10.986,10.986,0,0,0-1.064-1.733l.945-.42A16.759,16.759,0,0,1,231.179,76.351Z"/>
          <path d="M231.021,88.277c-.761-.039-1.955-.078-3.674-.078.013.643.013,1.325.013,1.89a3.169,3.169,0,0,1,.473,1.758c0,1.68-.985,3.754-4.082,4.62l-1.05-1.5a5.336,5.336,0,0,0,2.809-1.3,2.771,2.771,0,0,1-.591.066,2.22,2.22,0,0,1-2.178-2.323,2.406,2.406,0,0,1,2.532-2.388,3.145,3.145,0,0,1,.512.039l-.013-.853c-1.929.026-3.911.1-5.473.2l-.039-1.549c1.443,0,3.766-.065,5.485-.091,0-.158-.013-.3-.013-.394a10.435,10.435,0,0,0-.131-1.1h1.85c-.026.21-.078.88-.078,1.09,0,.1-.013.236-.013.393,1.286,0,3-.013,3.687,0Zm-5.787,4.056c.538,0,1-.407.84-1.522a.915.915,0,0,0-.827-.447.961.961,0,0,0-.971,1.011A.938.938,0,0,0,225.234,92.333Z"/>
          <path d="M224.6,101.541c.42-.026.8-.052,1.063-.052,1.351,0,2.3.6,2.3,2.428a12.566,12.566,0,0,1-.721,4.645,2.033,2.033,0,0,1-2.087,1.169,8.016,8.016,0,0,1-1.523-.184l-.275-1.693a7.187,7.187,0,0,0,1.548.275.947.947,0,0,0,.959-.551,9.909,9.909,0,0,0,.512-3.491c0-1-.433-1.154-1.234-1.154-.2,0-.512.026-.866.052a27.5,27.5,0,0,1-2.585,6.8l-1.667-.669a18.927,18.927,0,0,0,2.559-5.945c-.459.052-.853.105-1.089.131-.368.052-1.024.131-1.418.21l-.144-1.732a11.726,11.726,0,0,0,1.352,0c.393-.013,1-.053,1.64-.105a13.575,13.575,0,0,0,.263-2.69l1.889.2c-.066.342-.144.735-.21,1.05Zm4.869-1.168a22.15,22.15,0,0,1,2.23,4.725l-1.614.761A14.78,14.78,0,0,0,227.95,101Z"/>
          <path d="M227.084,116.105c0-.787-.63-1.233-1.653-1.233a2.723,2.723,0,0,0-2.1,1.036l-1.076-1a4.366,4.366,0,0,1,3.386-1.6c1.9,0,3.293.879,3.293,2.625,0,1.929-2.86,2.152-2.663,3.976h-1.694C224.3,117.85,227.084,117.378,227.084,116.105Zm-1.653,4.711a1.294,1.294,0,1,1-1.365,1.286A1.276,1.276,0,0,1,225.431,120.816Z"/>
        </g>
        <g>
          <polygon points="101.305 112.027 76.809 83.898 80.626 80.573 83.596 79.536 111.659 55.098 113.094 52.299 116.912 48.975 141.408 77.105 137.591 80.429 134.621 81.466 106.558 105.904 105.123 108.703 101.305 112.027" fill="#fff"/>
          <g clip-path="url(#clip-path)">
            <g>
              <g>
                <circle cx="87.325" cy="81.993" r="3.407" fill="#ee795e"/>
                <path d="M87.331,85.882c-.091,0-.182,0-.274-.01a3.888,3.888,0,1,1,2.822-.946h0A3.859,3.859,0,0,1,87.331,85.882Zm-.01-6.814A2.925,2.925,0,1,0,89.246,84.2h0a2.925,2.925,0,0,0-1.719-5.124C87.458,79.069,87.389,79.068,87.321,79.068Z" fill="#231815"/>
              </g>
              <g>
                <circle cx="91.8" cy="87.132" r="3.407" fill="#ee795e"/>
                <path d="M91.806,91.021c-.091,0-.183,0-.274-.01a3.889,3.889,0,1,1,2.822-.947h0A3.86,3.86,0,0,1,91.806,91.021ZM91.8,84.206a2.9,2.9,0,0,0-1.916.72A2.923,2.923,0,1,0,92,84.213C91.933,84.208,91.864,84.206,91.8,84.206Z" fill="#231815"/>
              </g>
              <g>
                <circle cx="96.275" cy="92.27" r="3.407" fill="#ee795e"/>
                <path d="M96.281,96.159c-.091,0-.183,0-.274-.009a3.889,3.889,0,1,1,2.821-.947h0A3.856,3.856,0,0,1,96.281,96.159Zm-.011-6.814A2.925,2.925,0,1,0,98.2,94.476h0a2.925,2.925,0,0,0-1.72-5.124C96.407,89.347,96.339,89.345,96.27,89.345Z" fill="#231815"/>
              </g>
              <g>
                <circle cx="100.75" cy="97.409" r="3.407" fill="#ee795e"/>
                <path d="M100.756,101.3c-.091,0-.183,0-.274-.01a3.889,3.889,0,1,1,2.821-.947h0A3.859,3.859,0,0,1,100.756,101.3Zm-.011-6.815a2.926,2.926,0,1,0,1.926,5.132h0a2.926,2.926,0,0,0-1.72-5.125C100.882,94.485,100.814,94.483,100.745,94.483Z" fill="#231815"/>
              </g>
              <g>
                <circle cx="105.225" cy="102.548" r="3.407" fill="#ee795e"/>
                <path d="M105.228,106.435a3.887,3.887,0,1,1,2.55-.954h0A3.872,3.872,0,0,1,105.228,106.435Zm0-6.812a2.925,2.925,0,1,0,1.923,5.131h0a2.925,2.925,0,0,0-1.923-5.131Z" fill="#231815"/>
              </g>
            </g>
            <g>
              <g>
                <circle cx="90.226" cy="74.949" r="3.407" fill="#ee795e"/>
                <path d="M90.232,78.838c-.091,0-.182,0-.274-.01a3.89,3.89,0,1,1,2.822-.947h0A3.86,3.86,0,0,1,90.232,78.838Zm-.008-6.814a2.925,2.925,0,1,0,1.924,5.131h0a2.925,2.925,0,0,0-1.924-5.131Z" fill="#231815"/>
              </g>
              <g>
                <circle cx="94.701" cy="80.087" r="3.407" fill="#ee795e"/>
                <path d="M94.7,83.974a3.886,3.886,0,1,1,2.551-.954h0A3.873,3.873,0,0,1,94.7,83.974Zm0-6.81a2.925,2.925,0,1,0,1.923,5.13h0a2.924,2.924,0,0,0-1.923-5.13Z" fill="#231815"/>
              </g>
              <g>
                <circle cx="99.176" cy="85.226" r="3.407" fill="#ee795e"/>
                <path d="M99.182,89.115c-.091,0-.182,0-.274-.009a3.9,3.9,0,1,1,.274.009ZM99.174,82.3a2.925,2.925,0,0,0-.2,5.843,2.878,2.878,0,0,0,2.122-.713,2.924,2.924,0,0,0-1.923-5.13Z" fill="#231815"/>
              </g>
              <g>
                <circle cx="103.651" cy="90.365" r="3.407" fill="#ee795e"/>
                <path d="M103.657,94.254c-.091,0-.183,0-.274-.01a3.861,3.861,0,1,1,.274.01Zm-.008-6.813a2.924,2.924,0,1,0,2.208,1A2.91,2.91,0,0,0,103.649,87.441Z" fill="#231815"/>
              </g>
              <g>
                <circle cx="108.126" cy="95.503" r="3.407" fill="#ee795e"/>
                <path d="M108.132,99.393c-.091,0-.183,0-.274-.01a3.858,3.858,0,1,1,.274.01Zm-.008-6.814a2.925,2.925,0,1,0,2.208,1A2.915,2.915,0,0,0,108.124,92.579Z" fill="#231815"/>
              </g>
              <g>
                <circle cx="112.601" cy="100.642" r="3.407" fill="#ee795e"/>
                <path d="M112.606,104.531q-.136,0-.273-.009a3.9,3.9,0,1,1,.273.009Zm-.007-6.813a2.924,2.924,0,1,0,2.208,1A2.914,2.914,0,0,0,112.6,97.718Z" fill="#231815"/>
              </g>
            </g>
            <g>
              <g>
                <circle cx="97.602" cy="73.043" r="3.407" fill="#ee795e"/>
                <path d="M97.605,76.93a3.885,3.885,0,1,1,2.551-.954A3.879,3.879,0,0,1,97.605,76.93ZM97.6,70.119a2.925,2.925,0,1,0,2.208,1A2.912,2.912,0,0,0,97.6,70.119Z" fill="#231815"/>
              </g>
              <g>
                <circle cx="102.077" cy="78.182" r="3.407" fill="#ee795e"/>
                <path d="M102.08,82.068a3.886,3.886,0,1,1,2.551-.954A3.881,3.881,0,0,1,102.08,82.068Zm0-6.81a2.924,2.924,0,1,0,2.208,1A2.912,2.912,0,0,0,102.075,75.258Z" fill="#231815"/>
              </g>
              <g>
                <circle cx="106.552" cy="83.321" r="3.407" fill="#ee795e"/>
                <path d="M106.555,87.207a3.884,3.884,0,1,1,2.551-.954A3.879,3.879,0,0,1,106.555,87.207ZM106.55,80.4a2.924,2.924,0,1,0,2.208,1A2.915,2.915,0,0,0,106.55,80.4Z" fill="#231815"/>
              </g>
              <g>
                <circle cx="111.027" cy="88.459" r="3.407" fill="#ee795e"/>
                <path d="M111.03,92.345a3.881,3.881,0,1,1,2.551-.953h0A3.875,3.875,0,0,1,111.03,92.345Zm0-6.81a2.925,2.925,0,1,0,1.923,5.13h0a2.924,2.924,0,0,0-1.923-5.13Z" fill="#231815"/>
              </g>
              <g>
                <circle cx="115.502" cy="93.598" r="3.407" fill="#ee795e"/>
                <path d="M115.505,97.485a3.887,3.887,0,1,1,2.55-.954h0A3.87,3.87,0,0,1,115.505,97.485Zm0-6.812a2.925,2.925,0,1,0,1.923,5.131h0a2.925,2.925,0,0,0-1.923-5.131Z" fill="#231815"/>
              </g>
            </g>
            <g>
              <g>
                <circle cx="100.504" cy="65.999" r="3.407" fill="#ee795e"/>
                <path d="M100.506,69.885a3.885,3.885,0,1,1,2.551-.954h0A3.873,3.873,0,0,1,100.506,69.885Zm-.007-6.812a2.926,2.926,0,1,0,1.926,5.132h0a2.926,2.926,0,0,0-1.72-5.125C100.636,63.075,100.567,63.073,100.5,63.073Z" fill="#231815"/>
              </g>
              <g>
                <circle cx="104.978" cy="71.138" r="3.407" fill="#ee795e"/>
                <path d="M104.981,75.024a3.886,3.886,0,1,1,2.551-.953h0A3.871,3.871,0,0,1,104.981,75.024Zm0-6.81a2.925,2.925,0,1,0,1.924,5.13h0a2.924,2.924,0,0,0-1.924-5.13Z" fill="#231815"/>
              </g>
              <g>
                <circle cx="109.453" cy="76.276" r="3.407" fill="#ee795e"/>
                <path d="M109.456,80.163a3.886,3.886,0,1,1,2.551-.954A3.879,3.879,0,0,1,109.456,80.163Zm-.007-6.812a2.926,2.926,0,0,0-2.2,4.847,2.925,2.925,0,1,0,2.408-4.84C109.586,73.353,109.517,73.351,109.449,73.351Z" fill="#231815"/>
              </g>
              <g>
                <circle cx="113.928" cy="81.415" r="3.407" fill="#ee795e"/>
                <path d="M113.931,85.3a3.885,3.885,0,1,1,2.551-.954A3.879,3.879,0,0,1,113.931,85.3Zm-.007-6.812a2.926,2.926,0,1,0,.206.007C114.061,78.492,113.992,78.49,113.924,78.49Z" fill="#231815"/>
              </g>
              <g>
                <circle cx="118.403" cy="86.554" r="3.407" fill="#ee795e"/>
                <path d="M118.406,90.44a3.886,3.886,0,1,1,2.551-.954A3.885,3.885,0,0,1,118.406,90.44Zm-.007-6.812a2.9,2.9,0,0,0-1.917.72,2.923,2.923,0,1,0,2.122-.713C118.536,83.63,118.467,83.628,118.4,83.628Z" fill="#231815"/>
              </g>
              <g>
                <circle cx="122.878" cy="91.692" r="3.407" fill="#ee795e"/>
                <path d="M122.88,95.579a3.885,3.885,0,1,1,2.551-.954A3.88,3.88,0,0,1,122.88,95.579Zm-.006-6.812a2.929,2.929,0,1,0,.2.007C123.011,88.769,122.942,88.767,122.874,88.767Z" fill="#231815"/>
              </g>
            </g>
            <g>
              <g>
                <circle cx="107.88" cy="64.093" r="3.407" fill="#ee795e"/>
                <path d="M107.886,67.982c-.091,0-.183,0-.274-.009a3.9,3.9,0,1,1,.274.009Zm-.008-6.813a2.925,2.925,0,1,0,2.208,1A2.915,2.915,0,0,0,107.878,61.169Z" fill="#231815"/>
              </g>
              <g>
                <circle cx="112.355" cy="69.232" r="3.407" fill="#ee795e"/>
                <path d="M112.36,73.121c-.091,0-.182,0-.273-.01a3.861,3.861,0,1,1,.273.01Zm-.007-6.813a2.924,2.924,0,1,0,2.208,1A2.914,2.914,0,0,0,112.353,66.308Z" fill="#231815"/>
              </g>
              <g>
                <circle cx="116.829" cy="74.371" r="3.407" fill="#ee795e"/>
                <path d="M116.835,78.26c-.091,0-.182,0-.274-.01a3.861,3.861,0,1,1,.274.01Zm-.007-6.814a2.925,2.925,0,1,0,2.208,1A2.914,2.914,0,0,0,116.828,71.446Z" fill="#231815"/>
              </g>
              <g>
                <circle cx="121.304" cy="79.509" r="3.407" fill="#ee795e"/>
                <path d="M121.31,83.4c-.091,0-.182,0-.274-.009a3.889,3.889,0,1,1,2.822-.947h0A3.859,3.859,0,0,1,121.31,83.4Zm-.007-6.813a2.925,2.925,0,1,0,1.923,5.13h0a2.924,2.924,0,0,0-1.923-5.13Z" fill="#231815"/>
              </g>
              <g>
                <circle cx="125.779" cy="84.648" r="3.407" fill="#ee795e"/>
                <path d="M125.782,88.535a3.887,3.887,0,1,1,2.551-.954h0A3.873,3.873,0,0,1,125.782,88.535Zm0-6.811a2.925,2.925,0,1,0,1.923,5.131h0a2.925,2.925,0,0,0-1.923-5.131Z" fill="#231815"/>
              </g>
            </g>
            <g>
              <g>
                <circle cx="110.781" cy="57.049" r="3.407" fill="#ee795e"/>
                <path d="M110.787,60.938c-.091,0-.183,0-.274-.01a3.888,3.888,0,1,1,2.822-.947h0A3.854,3.854,0,0,1,110.787,60.938Zm-.008-6.813a2.925,2.925,0,1,0,1.923,5.13h0a2.924,2.924,0,0,0-1.923-5.13Z" fill="#231815"/>
              </g>
              <g>
                <circle cx="115.256" cy="62.188" r="3.407" fill="#ee795e"/>
                <path d="M115.259,66.075a3.887,3.887,0,1,1,2.55-.954h0A3.872,3.872,0,0,1,115.259,66.075Zm0-6.811a2.925,2.925,0,1,0,1.923,5.13h0a2.924,2.924,0,0,0-1.923-5.13Z" fill="#231815"/>
              </g>
              <g>
                <circle cx="119.731" cy="67.327" r="3.407" fill="#ee795e"/>
                <path d="M119.736,71.216c-.09,0-.182,0-.273-.01a3.858,3.858,0,1,1,.273.01Zm-.007-6.813a2.924,2.924,0,1,0,2.208,1A2.914,2.914,0,0,0,119.729,64.4Z" fill="#231815"/>
              </g>
              <g>
                <circle cx="124.206" cy="72.465" r="3.407" fill="#ee795e"/>
                <path d="M124.211,76.354q-.136,0-.273-.009a3.9,3.9,0,1,1,.273.009Zm-.007-6.813a2.925,2.925,0,0,0-.2,5.843,2.88,2.88,0,0,0,2.123-.713,2.924,2.924,0,0,0-1.923-5.13Z" fill="#231815"/>
              </g>
              <g>
                <circle cx="128.68" cy="77.604" r="3.407" fill="#ee795e"/>
                <path d="M128.686,81.493c-.091,0-.182,0-.273-.01a3.861,3.861,0,1,1,.273.01Zm-.007-6.813a2.924,2.924,0,1,0,2.208,1A2.912,2.912,0,0,0,128.679,74.68Z" fill="#231815"/>
              </g>
              <g>
                <circle cx="133.155" cy="82.743" r="3.407" fill="#ee795e"/>
                <path d="M133.161,86.632c-.091,0-.182,0-.273-.01a3.858,3.858,0,1,1,.273.01Zm-.008-6.814a2.925,2.925,0,1,0,2.208,1A2.913,2.913,0,0,0,133.153,79.818Z" fill="#231815"/>
              </g>
            </g>
          </g>
          <path d="M101.258,112.706l-.316-.362L76.13,83.851l4.25-3.7,2.97-1.037L111.273,54.8l1.436-2.8,4.25-3.7.316.363,24.813,28.492-4.251,3.7-2.969,1.037-27.924,24.317-1.436,2.8ZM77.488,83.944l23.864,27.4,3.384-2.947,1.436-2.8,28.2-24.56,2.969-1.037,3.385-2.947-23.864-27.4L113.481,52.6l-1.436,2.8-28.2,24.561L80.873,81Z" fill="#231815"/>
          <rect x="124.861" y="47.714" width="0.964" height="37.3" transform="translate(-12.765 98.632) rotate(-41.05)" fill="#231815"/>
          <rect x="92.393" y="75.988" width="0.964" height="37.301" transform="translate(-39.316 84.26) rotate(-41.05)" fill="#231815"/>
          <g>
            <rect x="102.008" y="67.784" width="14.202" height="25.434" transform="translate(98.164 -54.648) rotate(48.95)" fill="#fff"/>
            <path d="M104.135,94.887l-9.96-11.436,19.907-17.335,9.96,11.436Zm-8.6-11.343,8.694,9.985,18.455-16.071-8.694-9.984Z" fill="#231815"/>
          </g>
        </g>
        <g>
          <g>
            <polygon points="68.013 58.366 36.276 77.964 33.616 73.658 33.075 70.559 13.523 38.897 10.995 37.026 8.335 32.719 40.073 13.12 42.732 17.427 43.273 20.526 62.825 52.188 65.353 54.059 68.013 58.366" fill="#fff"/>
            <path d="M36.119,78.627l-2.962-4.8-.54-3.1L13.162,39.228l-2.528-1.87-2.961-4.8.409-.252L40.229,12.458l2.962,4.8.54,3.1L63.186,51.856l2.528,1.871,2.962,4.8-.41.252Zm-2.045-5.144L36.432,77.3,67.35,58.209l-2.358-3.818L62.464,52.52,42.814,20.7l-.54-3.1-2.358-3.819L9,32.876l2.358,3.818,2.528,1.871,19.65,31.82Z" fill="#231815"/>
            <rect x="8.213" y="26.745" width="37.301" height="0.963" transform="translate(-10.303 18.193) rotate(-31.722)" fill="#231815"/>
            <rect x="30.834" y="63.377" width="37.301" height="0.963" transform="translate(-26.184 35.559) rotate(-31.722)" fill="#231815"/>
          </g>
          <g>
            <path d="M50.724,37.969,48.5,39.344A51.653,51.653,0,0,1,37.635,23.65L40.5,21.883S42.834,29.225,50.724,37.969Z" fill="#ee795e"/>
            <path d="M48.5,39.826a.484.484,0,0,1-.323-.125A52.706,52.706,0,0,1,37.2,23.851a.482.482,0,0,1,.185-.611l2.862-1.767a.481.481,0,0,1,.712.264c.023.072,2.408,7.355,10.125,15.91a.483.483,0,0,1-.1.733l-2.226,1.374A.483.483,0,0,1,48.5,39.826ZM38.251,23.836a52.6,52.6,0,0,0,10.308,14.9l1.422-.878a51.43,51.43,0,0,1-9.739-15.256Z" fill="#231815"/>
          </g>
          <g>
            <path d="M46.484,40.588l-2.226,1.374A51.653,51.653,0,0,1,33.4,26.268L36.257,24.5S38.594,31.843,46.484,40.588Z" fill="#ee795e"/>
            <path d="M44.258,42.444a.478.478,0,0,1-.322-.124A52.691,52.691,0,0,1,32.957,26.469a.483.483,0,0,1,.185-.611L36,24.091a.483.483,0,0,1,.712.264c.023.073,2.408,7.356,10.125,15.91a.482.482,0,0,1-.1.732l-2.226,1.374A.475.475,0,0,1,44.258,42.444ZM34.011,26.454a52.57,52.57,0,0,0,10.309,14.9l1.422-.878A51.407,51.407,0,0,1,36,25.225Z" fill="#231815"/>
          </g>
          <g>
            <path d="M42.244,43.206,40.018,44.58A51.656,51.656,0,0,1,29.155,28.887l2.862-1.768S34.355,34.461,42.244,43.206Z" fill="#ee795e"/>
            <path d="M40.018,45.062a.478.478,0,0,1-.322-.124A52.691,52.691,0,0,1,28.717,29.087a.483.483,0,0,1,.185-.61l2.862-1.767a.48.48,0,0,1,.712.263c.023.072,2.408,7.356,10.125,15.91a.48.48,0,0,1-.1.732L40.271,44.99A.481.481,0,0,1,40.018,45.062ZM29.771,29.072a52.586,52.586,0,0,0,10.309,14.9L41.5,43.1a51.426,51.426,0,0,1-9.74-15.256Z" fill="#231815"/>
          </g>
          <g>
            <path d="M38,45.824,35.778,47.2A51.678,51.678,0,0,1,24.916,31.505l2.861-1.767S30.115,37.079,38,45.824Z" fill="#ee795e"/>
            <path d="M35.778,47.68a.478.478,0,0,1-.322-.124A52.662,52.662,0,0,1,24.478,31.705a.48.48,0,0,1,.185-.609l2.861-1.768a.482.482,0,0,1,.712.263c.023.073,2.408,7.356,10.125,15.911a.479.479,0,0,1,.12.39.486.486,0,0,1-.224.341l-2.226,1.375A.474.474,0,0,1,35.778,47.68ZM25.532,31.69A52.663,52.663,0,0,0,35.84,46.6l1.422-.879a51.382,51.382,0,0,1-9.739-15.255Z" fill="#231815"/>
          </g>
          <g>
            <path d="M33.764,48.442l-2.226,1.375A51.662,51.662,0,0,1,20.676,34.123l2.862-1.767S25.875,39.7,33.764,48.442Z" fill="#ee795e"/>
            <path d="M31.538,50.3a.48.48,0,0,1-.322-.124A52.715,52.715,0,0,1,20.238,34.324a.481.481,0,0,1,.185-.61l2.861-1.768A.481.481,0,0,1,24,32.21c.023.072,2.408,7.355,10.126,15.91a.481.481,0,0,1-.1.732l-2.226,1.374A.473.473,0,0,1,31.538,50.3ZM21.292,34.308A52.68,52.68,0,0,0,31.6,49.213l1.422-.878a51.417,51.417,0,0,1-9.739-15.256Z" fill="#231815"/>
          </g>
          <g>
            <path d="M29.524,51.06,27.3,52.435A51.662,51.662,0,0,1,16.436,36.741L19.3,34.974S21.635,42.316,29.524,51.06Z" fill="#ee795e"/>
            <path d="M27.3,52.916a.48.48,0,0,1-.322-.124A52.706,52.706,0,0,1,16,36.942a.481.481,0,0,1,.185-.61l2.862-1.767a.479.479,0,0,1,.711.263c.024.072,2.409,7.356,10.126,15.91a.483.483,0,0,1-.105.733l-2.226,1.374A.48.48,0,0,1,27.3,52.916ZM17.052,36.927a52.641,52.641,0,0,0,10.309,14.9l1.421-.878A51.391,51.391,0,0,1,19.043,35.7Z" fill="#231815"/>
          </g>
          <g>
            <path d="M25.544,53.628l2.226-1.374A51.664,51.664,0,0,1,38.632,67.947L35.77,69.715S33.433,62.373,25.544,53.628Z" fill="#ee795e"/>
            <path d="M35.77,70.2a.487.487,0,0,1-.167-.03.48.48,0,0,1-.291-.3c-.023-.073-2.409-7.356-10.126-15.911a.48.48,0,0,1,.105-.731l2.226-1.375a.479.479,0,0,1,.575.052A52.7,52.7,0,0,1,39.07,67.747a.481.481,0,0,1-.185.61l-2.862,1.767A.476.476,0,0,1,35.77,70.2Zm-9.484-16.46a51.407,51.407,0,0,1,9.739,15.255l1.991-1.229a52.558,52.558,0,0,0-10.308-14.9Z" fill="#231815"/>
          </g>
          <g>
            <path d="M29.784,51.01l2.225-1.375A51.67,51.67,0,0,1,42.872,65.329L40.01,67.1S37.673,59.755,29.784,51.01Z" fill="#ee795e"/>
            <path d="M40.01,67.578a.483.483,0,0,1-.459-.335c-.023-.073-2.408-7.356-10.125-15.911a.481.481,0,0,1,.1-.731l2.226-1.375a.478.478,0,0,1,.576.052A52.7,52.7,0,0,1,43.31,65.128a.481.481,0,0,1-.185.61l-2.862,1.768A.478.478,0,0,1,40.01,67.578Zm-9.484-16.46a51.4,51.4,0,0,1,9.739,15.255l1.991-1.229A52.652,52.652,0,0,0,31.947,50.239Z" fill="#231815"/>
          </g>
          <g>
            <path d="M34.023,48.392l2.226-1.375A51.653,51.653,0,0,1,47.112,62.711L44.25,64.478S41.913,57.137,34.023,48.392Z" fill="#ee795e"/>
            <path d="M44.25,64.959a.478.478,0,0,1-.459-.335c-.023-.072-2.408-7.356-10.125-15.91a.482.482,0,0,1,.1-.732L36,46.607a.48.48,0,0,1,.575.053A52.694,52.694,0,0,1,47.55,62.51a.481.481,0,0,1-.185.61L44.5,64.888A.475.475,0,0,1,44.25,64.959ZM34.765,48.5a51.393,51.393,0,0,1,9.74,15.256l1.991-1.23a52.634,52.634,0,0,0-10.309-14.9Z" fill="#231815"/>
          </g>
          <g>
            <path d="M38.263,45.774,40.489,44.4A51.653,51.653,0,0,1,51.352,60.093L48.49,61.86S46.152,54.518,38.263,45.774Z" fill="#ee795e"/>
            <path d="M48.49,62.341a.506.506,0,0,1-.167-.029.485.485,0,0,1-.292-.306c-.023-.072-2.408-7.355-10.125-15.91a.483.483,0,0,1,.1-.733l2.226-1.374a.482.482,0,0,1,.576.053A52.706,52.706,0,0,1,51.79,59.892a.485.485,0,0,1-.185.611L48.743,62.27A.486.486,0,0,1,48.49,62.341Zm-9.484-16.46a51.417,51.417,0,0,1,9.739,15.256l1.991-1.23A52.667,52.667,0,0,0,40.427,45Z" fill="#231815"/>
          </g>
          <g>
            <path d="M42.5,43.155l2.226-1.374A51.673,51.673,0,0,1,55.592,57.475L52.73,59.242S50.392,51.9,42.5,43.155Z" fill="#ee795e"/>
            <path d="M52.73,59.723a.483.483,0,0,1-.459-.335c-.023-.073-2.408-7.356-10.125-15.91a.482.482,0,0,1,.1-.732l2.226-1.375a.482.482,0,0,1,.575.052A52.678,52.678,0,0,1,56.029,57.274a.483.483,0,0,1-.184.611l-2.862,1.767A.486.486,0,0,1,52.73,59.723Zm-9.485-16.46a51.407,51.407,0,0,1,9.74,15.255l1.99-1.229a52.668,52.668,0,0,0-10.308-14.9Z" fill="#231815"/>
          </g>
          <g>
            <path d="M46.743,40.537l2.226-1.374A51.664,51.664,0,0,1,59.831,54.856L56.97,56.624S54.632,49.282,46.743,40.537Z" fill="#ee795e"/>
            <path d="M56.969,57.105a.5.5,0,0,1-.166-.029.483.483,0,0,1-.292-.306c-.023-.072-2.408-7.356-10.126-15.91a.485.485,0,0,1-.119-.391.479.479,0,0,1,.224-.341l2.226-1.375a.481.481,0,0,1,.575.052A52.7,52.7,0,0,1,60.269,54.656a.481.481,0,0,1-.185.61l-2.861,1.767A.479.479,0,0,1,56.969,57.105Zm-9.484-16.46A51.391,51.391,0,0,1,57.224,55.9l1.991-1.23a52.635,52.635,0,0,0-10.308-14.9Z" fill="#231815"/>
          </g>
          <g>
            <rect x="31.073" y="32.825" width="14.202" height="25.434" transform="translate(-18.235 26.85) rotate(-31.696)" fill="#fff"/>
            <path d="M38.657,60.756,24.788,38.3l12.9-7.967L51.56,52.788ZM26.113,38.61,38.971,59.431l11.264-6.957L37.377,31.654Z" fill="#231815"/>
          </g>
        </g>
        <g>
          <g>
            <polygon points="65.175 84.964 41.166 113.364 37.312 110.105 35.84 107.336 7.508 83.383 4.532 82.393 0.679 79.135 24.688 50.735 28.542 53.993 30.014 56.762 58.346 80.716 61.322 81.706 65.175 84.964" fill="#fff"/>
            <path d="M41.222,114.042l-4.292-3.628-1.471-2.769L7.268,83.811,4.293,82.82,0,79.192,24.631,50.057l4.293,3.628L30.4,56.454l28.19,23.834,2.975.99,4.293,3.629ZM37.693,109.8l3.416,2.888L64.5,85.021l-3.416-2.888-2.975-.99-.07-.06L29.632,57.07,28.16,54.3l-3.415-2.887L1.357,79.078l3.415,2.888,2.976.99.07.06,28.4,24.012Z" fill="#231815"/>
            <rect x="-2.057" y="67.712" width="37.189" height="0.963" transform="translate(-46.225 36.813) rotate(-49.804)" fill="#231815"/>
            <rect x="30.722" y="95.424" width="37.189" height="0.963" transform="translate(-55.769 71.678) rotate(-49.804)" fill="#231815"/>
          </g>
          <g>
            <g>
              <path d="M35.137,103.883a8.23,8.23,0,0,1,1.733-6.667,11.973,11.973,0,0,1,6.388-3.708l1.012-3.7,3.794,3.207-3.478,1.614a15.144,15.144,0,0,1-3.178,6.259A8.757,8.757,0,0,1,35.137,103.883Z" fill="#97d2ce"/>
              <path d="M35.151,104.365h-.019a.48.48,0,0,1-.464-.374A8.65,8.65,0,0,1,36.5,96.905,12.337,12.337,0,0,1,42.871,93.1l.935-3.415a.48.48,0,0,1,.321-.333.485.485,0,0,1,.454.092l3.794,3.208a.481.481,0,0,1-.109.8L45,94.967a15.806,15.806,0,0,1-3.228,6.233A9.177,9.177,0,0,1,35.151,104.365Zm9.384-13.7-.813,2.97a.482.482,0,0,1-.38.348,11.569,11.569,0,0,0-6.1,3.544,7.777,7.777,0,0,0-1.693,5.852,8.323,8.323,0,0,0,5.5-2.8,14.724,14.724,0,0,0,3.071-6.038.483.483,0,0,1,.271-.347l2.794-1.3Z" fill="#231815"/>
            </g>
            <g>
              <path d="M41.951,91.783a8.23,8.23,0,0,1,1.733-6.667,11.973,11.973,0,0,1,6.388-3.708l1.012-3.7,3.794,3.208L51.4,82.531a15.134,15.134,0,0,1-3.177,6.259A8.757,8.757,0,0,1,41.951,91.783Z" fill="#97d2ce"/>
              <path d="M41.965,92.265h-.02a.48.48,0,0,1-.463-.373,8.649,8.649,0,0,1,1.834-7.086A12.338,12.338,0,0,1,49.685,81l.934-3.415a.482.482,0,0,1,.776-.241l3.794,3.208a.482.482,0,0,1-.109.805l-3.262,1.512A15.814,15.814,0,0,1,48.59,89.1,9.177,9.177,0,0,1,41.965,92.265Zm9.384-13.7-.813,2.97a.482.482,0,0,1-.38.348,11.569,11.569,0,0,0-6.1,3.544,7.771,7.771,0,0,0-1.693,5.851,8.317,8.317,0,0,0,5.495-2.8,14.719,14.719,0,0,0,3.072-6.038.482.482,0,0,1,.271-.347L53.991,80.8Z" fill="#231815"/>
            </g>
            <g>
              <path d="M29.541,99.152a8.23,8.23,0,0,1,1.733-6.667,11.965,11.965,0,0,1,6.388-3.708l1.012-3.7,3.794,3.207L38.989,89.9a15.14,15.14,0,0,1-3.177,6.26A8.757,8.757,0,0,1,29.541,99.152Z" fill="#97d2ce"/>
              <path d="M29.555,99.633h-.019a.48.48,0,0,1-.464-.374,8.65,8.65,0,0,1,1.835-7.085,12.333,12.333,0,0,1,6.368-3.807l.934-3.415a.481.481,0,0,1,.775-.241l3.8,3.208a.481.481,0,0,1-.109.8l-3.262,1.513a15.806,15.806,0,0,1-3.228,6.233A9.177,9.177,0,0,1,29.555,99.633Zm9.384-13.7L38.126,88.9a.482.482,0,0,1-.381.347,11.588,11.588,0,0,0-6.1,3.544,7.773,7.773,0,0,0-1.693,5.852,8.323,8.323,0,0,0,5.5-2.8,14.82,14.82,0,0,0,3.072-6.039.479.479,0,0,1,.27-.346l2.794-1.3Z" fill="#231815"/>
            </g>
            <g>
              <path d="M36.355,87.052a8.23,8.23,0,0,1,1.733-6.667,11.972,11.972,0,0,1,6.387-3.708l1.013-3.7,3.794,3.208L45.8,77.8a15.134,15.134,0,0,1-3.177,6.259A8.757,8.757,0,0,1,36.355,87.052Z" fill="#97d2ce"/>
              <path d="M36.369,87.534h-.02a.48.48,0,0,1-.463-.374,8.647,8.647,0,0,1,1.834-7.085,12.34,12.34,0,0,1,6.368-3.807l.935-3.415a.481.481,0,0,1,.775-.241l3.794,3.208a.48.48,0,0,1-.108.8l-3.262,1.513a15.8,15.8,0,0,1-3.228,6.233A9.177,9.177,0,0,1,36.369,87.534Zm9.384-13.7L44.94,76.8a.481.481,0,0,1-.381.347,11.588,11.588,0,0,0-6.1,3.544,7.773,7.773,0,0,0-1.693,5.852,8.321,8.321,0,0,0,5.5-2.8,14.809,14.809,0,0,0,3.073-6.039.481.481,0,0,1,.27-.346l2.794-1.3Z" fill="#231815"/>
            </g>
            <g>
              <path d="M23.945,94.42a8.228,8.228,0,0,1,1.733-6.666,11.965,11.965,0,0,1,6.388-3.708l1.012-3.7,3.794,3.207-3.479,1.613a15.14,15.14,0,0,1-3.177,6.26A8.754,8.754,0,0,1,23.945,94.42Z" fill="#97d2ce"/>
              <path d="M23.959,94.9H23.94a.48.48,0,0,1-.464-.374,8.651,8.651,0,0,1,1.834-7.085,12.338,12.338,0,0,1,6.369-3.807l.934-3.415a.481.481,0,0,1,.775-.241l3.794,3.207a.481.481,0,0,1-.108.805l-3.262,1.513a15.806,15.806,0,0,1-3.228,6.233A9.178,9.178,0,0,1,23.959,94.9Zm9.384-13.7-.813,2.971a.484.484,0,0,1-.381.347,11.58,11.58,0,0,0-6.1,3.544,7.773,7.773,0,0,0-1.693,5.852,8.323,8.323,0,0,0,5.5-2.8,14.827,14.827,0,0,0,3.072-6.039.483.483,0,0,1,.27-.347l2.794-1.295Z" fill="#231815"/>
            </g>
            <g>
              <path d="M30.759,82.321a8.23,8.23,0,0,1,1.733-6.667,11.972,11.972,0,0,1,6.387-3.708l1.013-3.7,3.794,3.207-3.479,1.614a15.134,15.134,0,0,1-3.177,6.259A8.757,8.757,0,0,1,30.759,82.321Z" fill="#97d2ce"/>
              <path d="M30.773,82.8h-.02a.48.48,0,0,1-.463-.374,8.647,8.647,0,0,1,1.834-7.085,12.348,12.348,0,0,1,6.368-3.807l.935-3.415a.481.481,0,0,1,.775-.241L44,71.088a.481.481,0,0,1-.108.8l-3.262,1.513A15.806,15.806,0,0,1,37.4,79.638,9.177,9.177,0,0,1,30.773,82.8Zm9.384-13.7-.813,2.971a.482.482,0,0,1-.381.347,11.585,11.585,0,0,0-6.1,3.545,7.742,7.742,0,0,0-1.7,5.851,8.317,8.317,0,0,0,5.5-2.8,14.809,14.809,0,0,0,3.073-6.039.479.479,0,0,1,.27-.346l2.793-1.3Z" fill="#231815"/>
            </g>
            <g>
              <path d="M18.349,89.689a8.228,8.228,0,0,1,1.733-6.666,11.964,11.964,0,0,1,6.387-3.708l1.013-3.7,3.794,3.207L27.8,80.437A15.134,15.134,0,0,1,24.62,86.7,8.752,8.752,0,0,1,18.349,89.689Z" fill="#97d2ce"/>
              <path d="M18.363,90.171h-.019a.48.48,0,0,1-.464-.374,8.653,8.653,0,0,1,1.834-7.086,12.337,12.337,0,0,1,6.368-3.806l.935-3.415a.48.48,0,0,1,.775-.241l3.794,3.207a.481.481,0,0,1-.108.8l-3.262,1.513a15.813,15.813,0,0,1-3.228,6.233A9.177,9.177,0,0,1,18.363,90.171Zm9.384-13.7-.813,2.971a.484.484,0,0,1-.381.347,11.572,11.572,0,0,0-6.1,3.544,7.773,7.773,0,0,0-1.693,5.852,8.319,8.319,0,0,0,5.495-2.8,14.815,14.815,0,0,0,3.073-6.039A.483.483,0,0,1,27.6,80l2.794-1.3Z" fill="#231815"/>
            </g>
            <g>
              <path d="M25.163,77.59A8.23,8.23,0,0,1,26.9,70.923a11.972,11.972,0,0,1,6.387-3.708l1.013-3.7,3.794,3.207-3.479,1.614A15.134,15.134,0,0,1,31.434,74.6,8.757,8.757,0,0,1,25.163,77.59Z" fill="#97d2ce"/>
              <path d="M25.177,78.071h-.02a.48.48,0,0,1-.463-.374,8.647,8.647,0,0,1,1.834-7.085A12.348,12.348,0,0,1,32.9,66.805l.935-3.415a.483.483,0,0,1,.322-.333.49.49,0,0,1,.453.092L38.4,66.357a.481.481,0,0,1-.108.8L35.03,68.674A15.808,15.808,0,0,1,31.8,74.908,9.179,9.179,0,0,1,25.177,78.071Zm9.384-13.7-.813,2.97a.484.484,0,0,1-.381.347,11.577,11.577,0,0,0-6.1,3.545,7.737,7.737,0,0,0-1.7,5.851,8.322,8.322,0,0,0,5.5-2.8,14.734,14.734,0,0,0,3.072-6.038.482.482,0,0,1,.271-.347l2.793-1.3Z" fill="#231815"/>
            </g>
            <g>
              <path d="M12.753,84.958a8.23,8.23,0,0,1,1.733-6.667,11.967,11.967,0,0,1,6.387-3.707l1.013-3.7,3.794,3.208L22.2,75.706a15.134,15.134,0,0,1-3.177,6.259A8.752,8.752,0,0,1,12.753,84.958Z" fill="#97d2ce"/>
              <path d="M12.767,85.44h-.019a.48.48,0,0,1-.464-.373,8.646,8.646,0,0,1,1.834-7.085,12.34,12.34,0,0,1,6.368-3.807l.935-3.416a.481.481,0,0,1,.775-.241l3.794,3.208a.481.481,0,0,1-.108.805L22.62,76.042a15.808,15.808,0,0,1-3.228,6.234A9.178,9.178,0,0,1,12.767,85.44Zm9.384-13.7-.813,2.971a.484.484,0,0,1-.381.347,11.572,11.572,0,0,0-6.1,3.544,7.743,7.743,0,0,0-1.695,5.851,8.313,8.313,0,0,0,5.5-2.8,14.8,14.8,0,0,0,3.072-6.038A.485.485,0,0,1,22,75.269l2.794-1.3Z" fill="#231815"/>
            </g>
            <g>
              <path d="M19.567,72.859A8.23,8.23,0,0,1,21.3,66.192a11.972,11.972,0,0,1,6.387-3.708l1.012-3.7,3.794,3.207-3.478,1.614a15.134,15.134,0,0,1-3.177,6.259A8.757,8.757,0,0,1,19.567,72.859Z" fill="#97d2ce"/>
              <path d="M19.58,73.341h-.019a.48.48,0,0,1-.463-.373,8.649,8.649,0,0,1,1.834-7.086A12.34,12.34,0,0,1,27.3,62.074l.935-3.415a.481.481,0,0,1,.775-.241L32.8,61.625a.481.481,0,0,1-.108.8l-3.262,1.513a15.829,15.829,0,0,1-3.228,6.234A9.184,9.184,0,0,1,19.58,73.341Zm9.385-13.7-.813,2.97a.484.484,0,0,1-.381.347,11.569,11.569,0,0,0-6.1,3.545,7.771,7.771,0,0,0-1.693,5.851,8.321,8.321,0,0,0,5.495-2.8,14.734,14.734,0,0,0,3.072-6.038.483.483,0,0,1,.27-.347l2.794-1.3Z" fill="#231815"/>
            </g>
            <g>
              <rect x="25.847" y="69.371" width="14.159" height="25.357" transform="translate(-50.989 54.222) rotate(-49.788)" fill="#fff"/>
              <path d="M38.1,96.413,17.9,79.335l9.848-11.649,20.2,17.078ZM19.445,79.205,37.974,94.87l8.434-9.976L27.88,69.229Z" fill="#231815"/>
            </g>
          </g>
        </g>
        <g>
          <g>
            <polygon points="96.974 79.108 67.748 56.112 70.869 52.146 73.584 50.578 96.526 21.42 97.411 18.412 100.532 14.446 129.758 37.442 126.638 41.408 123.922 42.976 100.98 72.134 100.095 75.142 96.974 79.108" fill="#fff"/>
            <path d="M97.055,79.784,67.072,56.193l3.476-4.418,2.715-1.568L96.091,21.2l.885-3.009,3.475-4.417.379.3,29.605,23.3-3.477,4.418-2.715,1.567L101.415,72.359l-.885,3.008ZM68.424,56.031l28.469,22.4,2.766-3.515.885-3.008.057-.073,23-29.231,2.716-1.567,2.765-3.515-28.469-22.4-2.766,3.515-.885,3.008-.057.073-23,29.23L71.19,52.516Z" fill="#231815"/>
            <rect x="111.543" y="11.316" width="0.964" height="37.189" transform="translate(19.246 99.453) rotate(-51.803)" fill="#231815"/>
            <rect x="85" y="45.05" width="0.963" height="37.188" transform="matrix(0.618, -0.786, 0.786, 0.618, -17.394, 91.468)" fill="#231815"/>
          </g>
          <g>
            <g>
              <path d="M77.011,49.754a8.228,8.228,0,0,1,6.724,1.5,11.974,11.974,0,0,1,3.93,6.253l3.731.882-3.072,3.9L86.59,58.871a15.138,15.138,0,0,1-6.367-2.956A8.753,8.753,0,0,1,77.011,49.754Z" fill="#97d2ce"/>
              <path d="M88.324,62.772l-.047,0a.48.48,0,0,1-.382-.262L86.268,59.3a15.81,15.81,0,0,1-6.343-3.007,9.17,9.17,0,0,1-3.395-6.529.48.48,0,0,1,.357-.476,8.647,8.647,0,0,1,7.146,1.583A12.349,12.349,0,0,1,88.061,57.1l3.446.814a.482.482,0,0,1,.268.767l-3.073,3.9A.479.479,0,0,1,88.324,62.772ZM77.53,50.142a8.32,8.32,0,0,0,2.99,5.395A14.726,14.726,0,0,0,86.663,58.4a.478.478,0,0,1,.356.258L88.412,61.4l2.14-2.719-3-.709a.479.479,0,0,1-.36-.367,11.583,11.583,0,0,0-3.757-5.976A7.743,7.743,0,0,0,77.53,50.142Z" fill="#231815"/>
            </g>
            <g>
              <path d="M89.343,56.138a8.232,8.232,0,0,1,6.724,1.5A11.974,11.974,0,0,1,100,63.888l3.731.882-3.072,3.9-1.735-3.419A15.148,15.148,0,0,1,92.554,62.3,8.757,8.757,0,0,1,89.343,56.138Z" fill="#97d2ce"/>
              <path d="M100.656,69.156l-.048,0a.48.48,0,0,1-.381-.262L98.6,65.686a15.833,15.833,0,0,1-6.343-3.007,9.176,9.176,0,0,1-3.4-6.53.482.482,0,0,1,.358-.476,8.647,8.647,0,0,1,7.145,1.584,12.34,12.34,0,0,1,4.029,6.23l3.446.815a.48.48,0,0,1,.267.766l-3.072,3.9A.479.479,0,0,1,100.656,69.156ZM89.862,56.526a8.315,8.315,0,0,0,2.99,5.395A14.789,14.789,0,0,0,99,64.779a.483.483,0,0,1,.356.258l1.393,2.747,2.139-2.719-3-.709a.479.479,0,0,1-.36-.367,11.578,11.578,0,0,0-3.757-5.975A7.739,7.739,0,0,0,89.862,56.526Z" fill="#231815"/>
            </g>
            <g>
              <path d="M81.542,44a8.228,8.228,0,0,1,6.724,1.5,11.967,11.967,0,0,1,3.93,6.253l3.732.882-3.072,3.9-1.735-3.419a15.148,15.148,0,0,1-6.367-2.955A8.761,8.761,0,0,1,81.542,44Z" fill="#97d2ce"/>
              <path d="M92.856,57.013l-.048,0a.479.479,0,0,1-.381-.261L90.8,53.542a15.816,15.816,0,0,1-6.343-3.007,9.173,9.173,0,0,1-3.395-6.529.481.481,0,0,1,.357-.476,8.651,8.651,0,0,1,7.146,1.583,12.346,12.346,0,0,1,4.028,6.231l3.446.815a.481.481,0,0,1,.268.766l-3.072,3.9A.484.484,0,0,1,92.856,57.013ZM82.061,44.385a8.324,8.324,0,0,0,2.99,5.393A14.821,14.821,0,0,0,91.2,52.636a.483.483,0,0,1,.355.258l1.394,2.746,2.139-2.718-3-.708a.483.483,0,0,1-.36-.368,11.569,11.569,0,0,0-3.756-5.975A7.77,7.77,0,0,0,82.061,44.385Z" fill="#231815"/>
            </g>
            <g>
              <path d="M93.874,50.379a8.232,8.232,0,0,1,6.724,1.5,11.974,11.974,0,0,1,3.93,6.253l3.731.882-3.072,3.9L103.453,59.5a15.143,15.143,0,0,1-6.367-2.955A8.756,8.756,0,0,1,93.874,50.379Z" fill="#97d2ce"/>
              <path d="M105.187,63.4l-.047,0a.48.48,0,0,1-.382-.262l-1.627-3.207a15.8,15.8,0,0,1-6.343-3.007,9.168,9.168,0,0,1-3.395-6.529.48.48,0,0,1,.357-.476A8.655,8.655,0,0,1,100.9,51.5a12.353,12.353,0,0,1,4.028,6.231l3.446.815a.481.481,0,0,1,.268.766l-3.073,3.905A.481.481,0,0,1,105.187,63.4ZM94.393,50.769a8.319,8.319,0,0,0,2.99,5.393,14.81,14.81,0,0,0,6.143,2.858.483.483,0,0,1,.356.258l1.393,2.747,2.14-2.719-3-.708a.482.482,0,0,1-.36-.368,11.578,11.578,0,0,0-3.757-5.975A7.768,7.768,0,0,0,94.393,50.769Z" fill="#231815"/>
            </g>
            <g>
              <path d="M86.074,38.236a8.228,8.228,0,0,1,6.724,1.5,11.974,11.974,0,0,1,3.93,6.253l3.731.882-3.072,3.9-1.735-3.419A15.148,15.148,0,0,1,89.285,44.4,8.757,8.757,0,0,1,86.074,38.236Z" fill="#97d2ce"/>
              <path d="M97.387,51.254a.371.371,0,0,1-.047,0,.479.479,0,0,1-.382-.261l-1.627-3.206a15.832,15.832,0,0,1-6.343-3.008,9.175,9.175,0,0,1-3.4-6.529.483.483,0,0,1,.358-.477A8.653,8.653,0,0,1,93.1,39.355a12.34,12.34,0,0,1,4.029,6.23l3.446.815a.481.481,0,0,1,.268.766l-3.073,3.9A.479.479,0,0,1,97.387,51.254ZM86.593,38.626a8.315,8.315,0,0,0,2.99,5.393,14.789,14.789,0,0,0,6.143,2.858.483.483,0,0,1,.356.258l1.393,2.747,2.14-2.719-3-.709a.479.479,0,0,1-.36-.367A11.578,11.578,0,0,0,92.5,40.112,7.768,7.768,0,0,0,86.593,38.626Z" fill="#231815"/>
            </g>
            <g>
              <path d="M98.406,44.62a8.23,8.23,0,0,1,6.723,1.5,11.968,11.968,0,0,1,3.93,6.254l3.732.881-3.072,3.9-1.735-3.419a15.133,15.133,0,0,1-6.367-2.955A8.757,8.757,0,0,1,98.406,44.62Z" fill="#97d2ce"/>
              <path d="M109.719,57.638a.387.387,0,0,1-.048,0,.479.479,0,0,1-.381-.261l-1.627-3.206a15.826,15.826,0,0,1-6.343-3.008,9.172,9.172,0,0,1-3.4-6.528.482.482,0,0,1,.358-.477,8.643,8.643,0,0,1,7.145,1.584,12.338,12.338,0,0,1,4.028,6.231l3.447.814a.48.48,0,0,1,.267.766l-3.072,3.9A.481.481,0,0,1,109.719,57.638ZM98.925,45.01a8.31,8.31,0,0,0,2.99,5.393,14.789,14.789,0,0,0,6.143,2.858.48.48,0,0,1,.355.258l1.394,2.747,2.139-2.718-3-.709a.482.482,0,0,1-.36-.368,11.577,11.577,0,0,0-3.756-5.975A7.765,7.765,0,0,0,98.925,45.01Z" fill="#231815"/>
            </g>
            <g>
              <path d="M90.605,32.477a8.228,8.228,0,0,1,6.724,1.5,11.974,11.974,0,0,1,3.93,6.253l3.731.882-3.072,3.9-1.734-3.419a15.143,15.143,0,0,1-6.367-2.955A8.756,8.756,0,0,1,90.605,32.477Z" fill="#97d2ce"/>
              <path d="M101.918,45.5l-.047,0a.48.48,0,0,1-.382-.262l-1.627-3.207a15.81,15.81,0,0,1-6.343-3.007,9.174,9.174,0,0,1-3.4-6.529.481.481,0,0,1,.357-.476A8.643,8.643,0,0,1,97.627,33.6a12.353,12.353,0,0,1,4.028,6.231l3.446.814a.482.482,0,0,1,.268.767l-3.072,3.9A.482.482,0,0,1,101.918,45.5ZM91.124,32.865a8.32,8.32,0,0,0,2.99,5.395,14.726,14.726,0,0,0,6.143,2.858.481.481,0,0,1,.356.258l1.393,2.747,2.14-2.719-3-.708a.483.483,0,0,1-.36-.368,11.571,11.571,0,0,0-3.757-5.975A7.746,7.746,0,0,0,91.124,32.865Z" fill="#231815"/>
            </g>
            <g>
              <path d="M102.937,38.861a8.232,8.232,0,0,1,6.724,1.5,11.975,11.975,0,0,1,3.93,6.254l3.731.881L114.25,51.4l-1.735-3.42a15.127,15.127,0,0,1-6.366-2.955A8.756,8.756,0,0,1,102.937,38.861Z" fill="#97d2ce"/>
              <path d="M114.25,51.879l-.047,0a.48.48,0,0,1-.382-.262l-1.627-3.206a15.839,15.839,0,0,1-6.343-3.007,9.176,9.176,0,0,1-3.4-6.53.482.482,0,0,1,.358-.476,8.655,8.655,0,0,1,7.145,1.584,12.344,12.344,0,0,1,4.029,6.23l3.446.815a.481.481,0,0,1,.268.766l-3.073,3.9A.479.479,0,0,1,114.25,51.879ZM103.456,39.25a8.314,8.314,0,0,0,2.99,5.394,14.789,14.789,0,0,0,6.143,2.858.482.482,0,0,1,.356.259l1.393,2.746,2.14-2.719-3-.708a.482.482,0,0,1-.36-.368,11.578,11.578,0,0,0-3.757-5.975A7.733,7.733,0,0,0,103.456,39.25Z" fill="#231815"/>
            </g>
            <g>
              <path d="M95.137,26.718a8.23,8.23,0,0,1,6.723,1.5,11.967,11.967,0,0,1,3.93,6.253l3.732.882-3.072,3.9-1.735-3.419a15.148,15.148,0,0,1-6.367-2.955A8.757,8.757,0,0,1,95.137,26.718Z" fill="#97d2ce"/>
              <path d="M106.45,39.736a.387.387,0,0,1-.048,0,.479.479,0,0,1-.381-.261l-1.628-3.206a15.837,15.837,0,0,1-6.343-3.008,9.173,9.173,0,0,1-3.395-6.528.482.482,0,0,1,.357-.477,8.649,8.649,0,0,1,7.146,1.584,12.351,12.351,0,0,1,4.029,6.23l3.446.815a.481.481,0,0,1,.267.766l-3.072,3.9A.479.479,0,0,1,106.45,39.736Zm-10.8-12.628A8.322,8.322,0,0,0,98.646,32.5a14.783,14.783,0,0,0,6.143,2.858.483.483,0,0,1,.355.258l1.394,2.747,2.139-2.719-3-.708a.483.483,0,0,1-.361-.368,11.565,11.565,0,0,0-3.756-5.975A7.774,7.774,0,0,0,95.655,27.108Z" fill="#231815"/>
            </g>
            <g>
              <path d="M107.468,33.1a8.232,8.232,0,0,1,6.724,1.5,11.968,11.968,0,0,1,3.93,6.254l3.732.881-3.073,3.905-1.734-3.42a15.128,15.128,0,0,1-6.367-2.955A8.756,8.756,0,0,1,107.468,33.1Z" fill="#97d2ce"/>
              <path d="M118.781,46.121l-.047,0a.481.481,0,0,1-.382-.261l-1.627-3.207a15.823,15.823,0,0,1-6.343-3.008,9.173,9.173,0,0,1-3.4-6.528.481.481,0,0,1,.357-.477,8.649,8.649,0,0,1,7.146,1.584,12.348,12.348,0,0,1,4.028,6.23l3.446.815a.481.481,0,0,1,.268.766l-3.072,3.905A.485.485,0,0,1,118.781,46.121ZM107.987,33.492a8.324,8.324,0,0,0,2.99,5.393,14.794,14.794,0,0,0,6.143,2.858.483.483,0,0,1,.356.258l1.393,2.747,2.14-2.719-3-.708a.482.482,0,0,1-.36-.368,11.574,11.574,0,0,0-3.757-5.975A7.763,7.763,0,0,0,107.987,33.492Z" fill="#231815"/>
            </g>
            <g>
              <rect x="91.674" y="34.098" width="14.159" height="25.357" transform="translate(50.07 -51.05) rotate(38.197)" fill="#fff"/>
              <path d="M96.568,61.887,84.581,52.455l16.357-20.789L112.925,41.1Zm-10.45-9.615L96.385,60.35l15-19.068L101.121,33.2Z" fill="#231815"/>
            </g>
          </g>
        </g>
        <g>
          <g>
            <polygon points="72.298 109.538 36.415 119.725 35.032 114.855 35.358 111.727 25.196 75.928 23.275 73.438 21.892 68.569 57.775 58.382 59.158 63.252 58.832 66.38 68.994 102.178 70.915 104.669 72.298 109.538" fill="#fff"/>
            <path d="M36.083,120.319,34.544,114.9l.326-3.128L24.758,76.149l-1.921-2.49L21.3,68.237,58.107,57.788l1.539,5.422-.326,3.128,10.112,35.62,1.921,2.491,1.539,5.421Zm-.562-5.506,1.225,4.317L71.7,109.206l-1.226-4.317L68.556,102.4,58.343,66.423l.326-3.129-1.225-4.317L22.487,68.9l1.226,4.317,1.921,2.49,10.213,35.977Z" fill="#231815"/>
            <rect x="22.566" y="67.864" width="37.301" height="0.963" transform="matrix(0.962, -0.273, 0.273, 0.962, -17.081, 13.835)" fill="#231815"/>
            <rect x="34.323" y="109.281" width="37.301" height="0.963" transform="translate(-27.933 18.613) rotate(-15.83)" fill="#231815"/>
          </g>
          <g>
            <path d="M61.236,85.2l-2.517.715a51.677,51.677,0,0,1-6.164-18.064l3.236-.918S56.034,74.628,61.236,85.2Z" fill="#ee795e"/>
            <path d="M58.719,86.391a.481.481,0,0,1-.408-.225,52.734,52.734,0,0,1-6.232-18.247.481.481,0,0,1,.344-.536l3.236-.919a.481.481,0,0,1,.613.448c0,.076.308,7.734,5.4,18.071a.482.482,0,0,1-.3.675l-2.517.715A.487.487,0,0,1,58.719,86.391ZM53.1,68.193a52.558,52.558,0,0,0,5.847,17.152l1.607-.456a51.4,51.4,0,0,1-5.2-17.336Z" fill="#231815"/>
          </g>
          <g>
            <path d="M56.442,86.556l-2.517.715a51.677,51.677,0,0,1-6.164-18.064L51,68.288S51.241,75.989,56.442,86.556Z" fill="#ee795e"/>
            <path d="M53.925,87.753a.482.482,0,0,1-.408-.226A52.711,52.711,0,0,1,47.286,69.28a.48.48,0,0,1,.344-.536l3.236-.918a.481.481,0,0,1,.612.447c0,.077.308,7.734,5.4,18.07a.482.482,0,0,1-.3.676l-2.517.715A.5.5,0,0,1,53.925,87.753ZM48.3,69.553A52.658,52.658,0,0,0,54.15,86.707l1.607-.457a51.431,51.431,0,0,1-5.2-17.335Z" fill="#231815"/>
          </g>
          <g>
            <path d="M51.648,87.917l-2.516.714a51.642,51.642,0,0,1-6.164-18.063l3.235-.919S46.447,77.35,51.648,87.917Z" fill="#ee795e"/>
            <path d="M49.132,89.113a.48.48,0,0,1-.408-.225,52.686,52.686,0,0,1-6.232-18.247.481.481,0,0,1,.344-.536l3.236-.919a.482.482,0,0,1,.613.448c0,.076.307,7.733,5.395,18.07a.482.482,0,0,1-.3.676l-2.517.715A.492.492,0,0,1,49.132,89.113Zm-5.622-18.2a52.567,52.567,0,0,0,5.846,17.152l1.608-.457a51.368,51.368,0,0,1-5.2-17.335Z" fill="#231815"/>
          </g>
          <g>
            <path d="M46.855,89.278l-2.517.714a51.666,51.666,0,0,1-6.164-18.063l3.236-.919S41.653,78.711,46.855,89.278Z" fill="#ee795e"/>
            <path d="M44.338,90.474a.481.481,0,0,1-.408-.225A52.71,52.71,0,0,1,37.7,72a.481.481,0,0,1,.344-.536l3.236-.919a.481.481,0,0,1,.613.448c0,.076.308,7.733,5.4,18.07a.482.482,0,0,1-.3.676l-2.517.715A.487.487,0,0,1,44.338,90.474Zm-5.622-18.2a52.577,52.577,0,0,0,5.846,17.153l1.608-.456a51.428,51.428,0,0,1-5.2-17.336Z" fill="#231815"/>
          </g>
          <g>
            <path d="M42.061,90.639l-2.517.714A51.666,51.666,0,0,1,33.38,73.29l3.236-.919S36.86,80.072,42.061,90.639Z" fill="#ee795e"/>
            <path d="M39.544,91.835a.48.48,0,0,1-.407-.226A52.688,52.688,0,0,1,32.9,73.363a.483.483,0,0,1,.345-.537l3.235-.918a.481.481,0,0,1,.613.448c0,.076.308,7.733,5.4,18.07a.482.482,0,0,1-.3.676l-2.516.714A.5.5,0,0,1,39.544,91.835Zm-5.622-18.2a52.593,52.593,0,0,0,5.847,17.153l1.608-.456A51.421,51.421,0,0,1,36.173,73Z" fill="#231815"/>
          </g>
          <g>
            <path d="M37.267,92l-2.516.714A51.643,51.643,0,0,1,28.587,74.65l3.235-.918S32.066,81.433,37.267,92Z" fill="#ee795e"/>
            <path d="M34.751,93.2a.482.482,0,0,1-.408-.226,52.675,52.675,0,0,1-6.232-18.247.482.482,0,0,1,.344-.536l3.236-.919a.482.482,0,0,1,.612.448c0,.076.308,7.734,5.4,18.071a.482.482,0,0,1-.3.676l-2.516.714A.5.5,0,0,1,34.751,93.2ZM29.129,75a52.567,52.567,0,0,0,5.846,17.152l1.608-.456a51.38,51.38,0,0,1-5.2-17.335Z" fill="#231815"/>
          </g>
          <g>
            <path d="M32.737,93.383l2.516-.715a51.653,51.653,0,0,1,6.164,18.064l-3.235.918S37.938,103.95,32.737,93.383Z" fill="#ee795e"/>
            <path d="M38.182,112.132a.482.482,0,0,1-.481-.466c0-.076-.308-7.734-5.4-18.071a.48.48,0,0,1,.3-.675l2.516-.715a.482.482,0,0,1,.539.207,52.686,52.686,0,0,1,6.232,18.247.482.482,0,0,1-.344.536l-3.236.919A.487.487,0,0,1,38.182,112.132ZM33.421,93.689a51.377,51.377,0,0,1,5.2,17.336l2.251-.64a52.567,52.567,0,0,0-5.846-17.152Z" fill="#231815"/>
          </g>
          <g>
            <path d="M37.53,92.022l2.517-.715a51.677,51.677,0,0,1,6.164,18.064l-3.236.919S42.732,102.589,37.53,92.022Z" fill="#ee795e"/>
            <path d="M42.976,110.771a.482.482,0,0,1-.482-.466c0-.077-.308-7.734-5.4-18.07a.483.483,0,0,1,.3-.676l2.517-.715a.486.486,0,0,1,.539.207A52.734,52.734,0,0,1,46.687,109.3a.481.481,0,0,1-.345.536l-3.235.918A.456.456,0,0,1,42.976,110.771ZM38.215,92.328a51.406,51.406,0,0,1,5.2,17.335l2.251-.638a52.568,52.568,0,0,0-5.847-17.153Z" fill="#231815"/>
          </g>
          <g>
            <path d="M42.324,90.661l2.517-.714a51.666,51.666,0,0,1,6.164,18.063l-3.236.919S47.525,101.228,42.324,90.661Z" fill="#ee795e"/>
            <path d="M47.769,109.41a.482.482,0,0,1-.481-.466c0-.076-.308-7.733-5.4-18.07a.482.482,0,0,1,.3-.676l2.517-.715a.484.484,0,0,1,.54.207,52.722,52.722,0,0,1,6.231,18.247.481.481,0,0,1-.344.537l-3.236.918A.487.487,0,0,1,47.769,109.41Zm-4.76-18.443a51.434,51.434,0,0,1,5.2,17.336l2.25-.639a52.648,52.648,0,0,0-5.846-17.153Z" fill="#231815"/>
          </g>
          <g>
            <path d="M47.118,89.3l2.516-.714A51.642,51.642,0,0,1,55.8,106.649l-3.235.919S52.319,99.867,47.118,89.3Z" fill="#ee795e"/>
            <path d="M52.563,108.05a.482.482,0,0,1-.482-.467c0-.076-.307-7.733-5.4-18.07a.481.481,0,0,1,.3-.676l2.517-.715a.484.484,0,0,1,.539.207,52.686,52.686,0,0,1,6.232,18.247.48.48,0,0,1-.344.536l-3.236.919A.488.488,0,0,1,52.563,108.05ZM47.8,89.606a51.377,51.377,0,0,1,5.2,17.336l2.251-.639A52.577,52.577,0,0,0,49.41,89.15Z" fill="#231815"/>
          </g>
          <g>
            <path d="M51.911,87.939l2.517-.714a51.667,51.667,0,0,1,6.164,18.064l-3.236.918S57.113,98.506,51.911,87.939Z" fill="#ee795e"/>
            <path d="M57.356,106.689a.482.482,0,0,1-.481-.467c0-.076-.308-7.733-5.4-18.07a.483.483,0,0,1,.3-.676l2.517-.714a.483.483,0,0,1,.539.207,52.7,52.7,0,0,1,6.232,18.246.482.482,0,0,1-.344.537l-3.236.918A.5.5,0,0,1,57.356,106.689ZM52.6,88.245a51.434,51.434,0,0,1,5.2,17.336l2.251-.639A52.577,52.577,0,0,0,54.2,87.789Z" fill="#231815"/>
          </g>
          <g>
            <path d="M56.705,86.578l2.517-.714a51.667,51.667,0,0,1,6.164,18.064l-3.236.918S61.906,97.145,56.705,86.578Z" fill="#ee795e"/>
            <path d="M62.15,105.328a.482.482,0,0,1-.481-.466c0-.077-.308-7.734-5.4-18.071a.482.482,0,0,1,.3-.676L59.09,85.4a.482.482,0,0,1,.539.207,52.688,52.688,0,0,1,6.233,18.247.482.482,0,0,1-.345.536l-3.235.919A.5.5,0,0,1,62.15,105.328ZM57.389,86.885a51.412,51.412,0,0,1,5.2,17.335l2.251-.639A52.548,52.548,0,0,0,59,86.429Z" fill="#231815"/>
          </g>
          <g>
            <rect x="39.994" y="76.336" width="14.202" height="25.434" transform="translate(-22.529 16.246) rotate(-15.848)" fill="#fff"/>
            <path d="M43.405,103.821,36.2,78.427l14.589-4.141L57.993,99.68Zm-6.019-24.73,6.683,23.541L56.8,99.016,50.121,75.475Z" fill="#231815"/>
          </g>
        </g>
        <g>
          <g>
            <polygon points="105.325 117.113 68.814 109.479 69.85 104.525 71.591 101.905 79.207 65.48 78.661 62.383 79.697 57.428 116.208 65.062 115.172 70.017 113.431 72.636 105.815 109.061 106.361 112.159 105.325 117.113" fill="#fff"/>
            <path d="M105.7,117.683l-.472-.1-36.982-7.733,1.153-5.516,1.741-2.62,7.578-36.244-.546-3.1,1.154-5.517.471.1,36.983,7.733-1.153,5.517-1.742,2.62-7.578,36.243.546,3.1Zm-36.314-8.576,35.568,7.437.918-4.393-.545-3.1.019-.091,7.635-36.516,1.741-2.618.918-4.393L80.069,58l-.918,4.393.546,3.1-.019.091-7.635,36.515-1.741,2.62Z" fill="#231815"/>
            <rect x="96.435" y="47.549" width="0.963" height="37.301" transform="translate(12.284 147.517) rotate(-78.191)" fill="#231815"/>
            <rect x="87.624" y="89.691" width="0.963" height="37.301" transform="translate(-35.975 172.409) rotate(-78.191)" fill="#231815"/>
          </g>
          <g>
            <rect x="82.176" y="67.409" width="9.754" height="9.754" transform="translate(16.637 -16.286) rotate(11.81)" fill="#e84572"/>
            <path d="M90.828,78.54a.477.477,0,0,1-.1-.011l-9.547-2a.481.481,0,0,1-.372-.57l2-9.548a.483.483,0,0,1,.208-.3.491.491,0,0,1,.362-.068l9.547,2a.482.482,0,0,1,.373.57l-2,9.548a.485.485,0,0,1-.207.3A.48.48,0,0,1,90.828,78.54Zm-8.977-2.851,8.6,1.8,1.8-8.605-8.6-1.8Z" fill="#231815"/>
          </g>
          <g>
            <rect x="90.64" y="72.279" width="9.754" height="9.754" transform="translate(17.812 -17.915) rotate(11.81)" fill="#e84572"/>
            <path d="M99.293,83.409a.475.475,0,0,1-.1-.01l-9.548-2a.488.488,0,0,1-.3-.209.48.48,0,0,1-.068-.362l2-9.546a.483.483,0,0,1,.57-.373l9.547,2a.481.481,0,0,1,.373.57l-2,9.547A.481.481,0,0,1,99.293,83.409Zm-8.978-2.851,8.6,1.8,1.8-8.605-8.6-1.8Z" fill="#231815"/>
          </g>
          <g>
            <rect x="99.699" y="71.073" width="9.754" height="9.754" transform="translate(17.757 -19.795) rotate(11.81)" fill="#e84572"/>
            <path d="M108.351,82.2a.459.459,0,0,1-.1-.01l-9.548-2a.481.481,0,0,1-.372-.57l2-9.548a.479.479,0,0,1,.207-.3.489.489,0,0,1,.363-.069l9.547,2a.482.482,0,0,1,.373.57l-2,9.547a.48.48,0,0,1-.472.383Zm-8.977-2.85,8.6,1.8,1.8-8.605-8.605-1.8Z" fill="#231815"/>
          </g>
          <g>
            <rect x="79.647" y="79.502" width="9.754" height="9.754" transform="translate(19.058 -15.513) rotate(11.81)" fill="#e84572"/>
            <path d="M88.3,90.632a.475.475,0,0,1-.1-.01l-9.547-2a.481.481,0,0,1-.373-.57l2-9.547a.483.483,0,0,1,.57-.373l9.547,2a.482.482,0,0,1,.373.57l-2,9.547a.482.482,0,0,1-.208.305A.476.476,0,0,1,88.3,90.632Zm-8.978-2.85,8.605,1.8,1.8-8.6-8.605-1.8Z" fill="#231815"/>
          </g>
          <g>
            <rect x="88.111" y="84.372" width="9.754" height="9.754" transform="translate(20.234 -17.142) rotate(11.81)" fill="#e84572"/>
            <path d="M96.765,95.649a.629.629,0,0,1-.129-.014l-9.548-2A.628.628,0,0,1,86.6,92.9l2-9.548a.628.628,0,0,1,.743-.485l9.548,2a.628.628,0,0,1,.486.743l-2,9.548A.629.629,0,0,1,96.765,95.649ZM87.96,92.538l8.318,1.74,1.739-8.318L89.7,84.22Z" fill="#231815"/>
          </g>
          <g>
            <rect x="97.17" y="83.166" width="9.754" height="9.754" transform="translate(20.179 -19.021) rotate(11.81)" fill="#e84572"/>
            <path d="M105.823,94.3a.482.482,0,0,1-.1-.01l-9.547-2a.483.483,0,0,1-.373-.57l2-9.547a.48.48,0,0,1,.569-.373l9.548,2a.481.481,0,0,1,.372.57l-2,9.547A.482.482,0,0,1,105.823,94.3Zm-8.978-2.851,8.605,1.8,1.8-8.605-8.6-1.8Z" fill="#231815"/>
          </g>
          <g>
            <rect x="77.119" y="91.596" width="9.754" height="9.754" transform="translate(21.48 -14.739) rotate(11.81)" fill="#e84572"/>
            <path d="M85.771,102.726a.534.534,0,0,1-.1-.01l-9.548-2a.481.481,0,0,1-.372-.57l2-9.547a.483.483,0,0,1,.57-.373l9.547,2a.483.483,0,0,1,.373.57l-2,9.548a.481.481,0,0,1-.471.383Zm-8.977-2.851,8.6,1.8,1.8-8.606-8.6-1.8Z" fill="#231815"/>
          </g>
          <g>
            <rect x="85.583" y="96.465" width="9.754" height="9.754" transform="translate(22.655 -16.368) rotate(11.81)" fill="#e84572"/>
            <path d="M94.235,107.6a.534.534,0,0,1-.1-.01l-9.547-2a.482.482,0,0,1-.373-.57l2-9.547a.478.478,0,0,1,.208-.3.483.483,0,0,1,.362-.069l9.547,2a.483.483,0,0,1,.373.57l-2,9.548a.483.483,0,0,1-.472.383Zm-8.977-2.851,8.605,1.8,1.8-8.605-8.605-1.8Z" fill="#231815"/>
          </g>
          <g>
            <rect x="94.642" y="95.259" width="9.754" height="9.754" transform="translate(22.6 -18.248) rotate(11.81)" fill="#e84572"/>
            <path d="M103.294,106.39a.46.46,0,0,1-.1-.011l-9.548-2a.481.481,0,0,1-.372-.57l2-9.548a.481.481,0,0,1,.57-.372l9.547,2a.482.482,0,0,1,.373.57l-2,9.548a.483.483,0,0,1-.472.383Zm-8.977-2.851,8.605,1.8,1.8-8.6-8.6-1.8Z" fill="#231815"/>
          </g>
          <g>
            <rect x="85.41" y="74.554" width="14.202" height="25.434" transform="translate(19.819 -17.086) rotate(11.81)" fill="#fff"/>
            <path d="M97.232,101.741l-14.844-3.1L87.79,72.8l14.844,3.1Zm-13.7-3.849,12.959,2.71,5.008-23.953-12.958-2.71Z" fill="#231815"/>
          </g>
        </g>
        <g>
          <g>
            <path d="M105.355,110.425v71.781a4.133,4.133,0,0,1-4.121,4.121H39.864a4.133,4.133,0,0,1-4.121-4.121V110.425" fill="#fff8ee"/>
            <path d="M101.234,186.983H39.864a4.782,4.782,0,0,1-4.777-4.776V110.425a.656.656,0,0,1,1.312,0v71.782a3.469,3.469,0,0,0,3.465,3.464h61.37a3.469,3.469,0,0,0,3.465-3.464V110.425a.656.656,0,1,1,1.312,0v71.782A4.782,4.782,0,0,1,101.234,186.983Z" fill="#231815"/>
          </g>
          <g>
            <rect x="33.692" y="105.921" width="73.714" height="4.504" fill="#fff8ee"/>
            <path d="M107.406,111.081H33.692a.656.656,0,0,1-.656-.656v-4.5a.656.656,0,0,1,.656-.656h73.714a.656.656,0,0,1,.656.656v4.5A.656.656,0,0,1,107.406,111.081Zm-73.058-1.312h72.4v-3.192h-72.4Z" fill="#231815"/>
          </g>
          <polyline points="98.001 120.881 134.237 153.781 127.953 159.378 89.161 137.426" fill="#e84572"/>
          <path d="M81.075,115.3H85.11s16.617.666,16.617,15.946v71.609H39.461V131.244c0-15.28,16.617-15.946,16.617-15.946h25Z" fill="#e84572"/>
          <g>
            <path d="M60.113,114.729s-.342,9.489,10.31,9.489,10.652-8.92,10.652-8.92" fill="#f4aeb6"/>
            <path d="M70.423,124.874c-3.539,0-6.305-1.008-8.223-3a10.636,10.636,0,0,1-2.743-7.172.631.631,0,0,1,.679-.631.657.657,0,0,1,.633.677,9.449,9.449,0,0,0,2.385,6.225c1.661,1.715,4.106,2.585,7.269,2.585,9.846,0,10-7.927,10-8.265a.657.657,0,0,1,.656-.654h0a.654.654,0,0,1,.654.655C81.731,115.394,81.6,124.874,70.423,124.874Z" fill="#231815"/>
          </g>
          <g>
            <polyline points="60.112 115.298 60.112 108.376 81.075 108.376 81.075 115.298" fill="#f4aeb6"/>
            <path d="M81.075,115.954a.656.656,0,0,1-.656-.656v-6.266H60.769V115.3a.657.657,0,0,1-1.313,0v-6.922a.656.656,0,0,1,.656-.656H81.075a.655.655,0,0,1,.656.656V115.3A.655.655,0,0,1,81.075,115.954Z" fill="#231815"/>
          </g>
          <path d="M70.594,203.509H39.461a.656.656,0,0,1-.656-.656v-71.61c0-15.728,17.074-16.593,17.247-16.6h4.06a.656.656,0,1,1,0,1.312H56.078a22.4,22.4,0,0,0-8.052,2.192c-5.248,2.638-7.909,7.045-7.909,13.1V202.2H70.594a.656.656,0,0,1,0,1.312Z" fill="#231815"/>
          <path d="M101.727,203.509H70.594a.656.656,0,0,1,0-1.312h30.477V139.521a.656.656,0,1,1,1.312,0v63.332A.656.656,0,0,1,101.727,203.509Z" fill="#231815"/>
          <path d="M96.36,120.053a.653.653,0,0,1-.406-.141,21.165,21.165,0,0,0-10.871-3.958H81.075a.656.656,0,1,1,0-1.312H85.11a22.134,22.134,0,0,1,11.658,4.241.656.656,0,0,1-.408,1.17Z" fill="#231815"/>
          <path d="M70.423,124.874c-3.539,0-6.305-1.008-8.223-3a10.636,10.636,0,0,1-2.743-7.172.631.631,0,0,1,.679-.631.657.657,0,0,1,.633.677,9.449,9.449,0,0,0,2.385,6.225c1.661,1.715,4.106,2.585,7.269,2.585,9.846,0,10-7.927,10-8.265a.657.657,0,0,1,.656-.654h0a.654.654,0,0,1,.654.655C81.731,115.394,81.6,124.874,70.423,124.874Z" fill="#231815"/>
          <path d="M106.672,143.607l23.478,7.009s7.952,3.654,5.8,10.961c-2.493,8.476-13.11,3.654-13.11,3.654l-17.976-9.368" fill="#e84572"/>
          <path d="M129.029,167.255a17.509,17.509,0,0,1-6.458-1.427l-18.007-9.383a.656.656,0,1,1,.606-1.163l17.976,9.367c.021.009,5.336,2.373,9.031.681a5.875,5.875,0,0,0,3.146-3.938,7.419,7.419,0,0,0-1.917-7.558,12.943,12.943,0,0,0-3.493-2.6l-23.429-6.994a.656.656,0,1,1,.376-1.257l23.478,7.009a.564.564,0,0,1,.086.033c.084.038,8.441,3.979,6.158,11.741a7.13,7.13,0,0,1-3.862,4.762A8.841,8.841,0,0,1,129.029,167.255Z" fill="#231815"/>
          <path d="M132.766,152.988a.653.653,0,0,1-.44-.17l-36.4-32.934a.656.656,0,1,1,.88-.973l36.4,32.935a.656.656,0,0,1-.44,1.142Z" fill="#231815"/>
          <g>
            <path d="M82.824,113.725a234.454,234.454,0,0,0,19.573,54.85V153.782S91.4,130.226,89.161,113.953Z" fill="#fff8ee"/>
            <path d="M102.4,169.231a.654.654,0,0,1-.584-.358A237.329,237.329,0,0,1,82.18,113.852a.657.657,0,0,1,.145-.552.642.642,0,0,1,.522-.23l6.337.228a.656.656,0,0,1,.627.565c2.2,15.987,13.071,39.407,13.18,39.641a.655.655,0,0,1,.062.278v14.793a.657.657,0,0,1-.5.638A.672.672,0,0,1,102.4,169.231Zm-18.759-54.82a238.656,238.656,0,0,0,18.1,51.392V153.926c-.882-1.916-10.851-23.813-13.152-39.337Z" fill="#231815"/>
          </g>
          <g>
            <path d="M106.591,151.581l.081-7.974s-5.846-5.019-7.069-6.159-2.706-1.476-3.271-.28c-.664,1.429,3.029,5.136,3.213,5.328l-5.586-.342s-2.5-.2-2.654,1.5c-.135,1.4,1.368,1.957,2.354,2.025-.242.006-2.285.154-2.372,1.667a1.924,1.924,0,0,0,2.265,1.995s-2.258.364-2.222,1.883.373,1.8,1.263,1.8a3.307,3.307,0,0,0-.877,1.259,1.535,1.535,0,0,0,1.34,2.13c2.008.342,8.169.456,8.283.456S106.442,156.752,106.591,151.581Z" fill="#f4aeb6"/>
            <path d="M98.822,150.247H98.79L93.552,150a2.9,2.9,0,0,1-2.239-.794,2.429,2.429,0,0,1-.681-1.9c.1-1.745,2.014-2.253,3.011-2.277a.656.656,0,0,1,.032,1.312c-.017,0-1.677.067-1.733,1.049a1.123,1.123,0,0,0,.306.9,1.613,1.613,0,0,0,1.269.4q.031,0,.066,0l5.269.249a.656.656,0,0,1-.03,1.311Z" fill="#231815"/>
            <path d="M98.952,146.553h-.025c-.171-.007-4.1-.155-5.2-.219-.024,0-.048,0-.073,0h-.045a3.67,3.67,0,0,1-2.46-1.1,2.157,2.157,0,0,1-.5-1.641c.17-1.857,2.268-2.186,3.36-2.094l5.573.343a.656.656,0,1,1-.08,1.309l-5.586-.343c-.03,0-1.866-.128-1.961.907a.847.847,0,0,0,.2.671,2.347,2.347,0,0,0,1.483.635.813.813,0,0,1,.1,0c.955.059,5.2.22,5.239.222a.656.656,0,0,1-.024,1.311Z" fill="#231815"/>
            <path d="M101.814,157.458c-2.228,0-7.092-.1-7.9-.2-3.053-.4-3.223-2.068-3.155-2.767a2.013,2.013,0,0,1,.734-1.419,2.855,2.855,0,0,1,1.989-.489.656.656,0,0,1-.166,1.3,1.56,1.56,0,0,0-1.009.218.681.681,0,0,0-.242.515c-.069.706.61,1.157,2.019,1.341.789.1,7.1.228,8.53.184.863-.024,3.324-.913,3.321-4.556l.078-7.676c-1.112-.956-5.763-4.958-6.857-5.978a2.5,2.5,0,0,0-1.818-.838.55.55,0,0,0-.413.358c-.183.4.636,2.068,3.038,4.537a.653.653,0,0,1-.262,1.149.683.683,0,0,1-.629-.183c-2.774-2.847-3.885-4.874-3.335-6.059a1.857,1.857,0,0,1,1.348-1.09,3.613,3.613,0,0,1,2.962,1.162c1.2,1.122,6.994,6.095,7.052,6.145a.658.658,0,0,1,.229.5l-.081,7.974c0,4.175-2.817,5.812-4.6,5.862C102.457,157.455,102.169,157.458,101.814,157.458Z" fill="#231815"/>
            <path d="M98.754,154.1h-.03c-.044,0-4.367-.2-5.055-.2a2.815,2.815,0,0,1-2.994-2.654c-.04-1.655,1.724-2.382,2.772-2.551a.657.657,0,0,1,.211,1.3c-.035,0-1.693.312-1.672,1.22.042,1.359,1.622,1.377,1.689,1.377.716.006,4.929.195,5.108.2a.656.656,0,0,1-.029,1.312Z" fill="#231815"/>
          </g>
          <polyline points="43.309 120.881 7.073 153.781 13.357 159.378 52.15 137.426" fill="#e84572"/>
          <path d="M34.639,143.607l-23.478,7.009s-7.952,3.654-5.8,10.961c2.493,8.476,13.11,3.654,13.11,3.654l17.976-9.368" fill="#e84572"/>
          <path d="M12.279,167.255a8.843,8.843,0,0,1-3.688-.731,7.131,7.131,0,0,1-3.863-4.762c-2.282-7.762,6.074-11.7,6.159-11.741a.526.526,0,0,1,.086-.033l23.478-7.009a.656.656,0,1,1,.375,1.257L11.4,151.23a12.96,12.96,0,0,0-3.492,2.6,7.42,7.42,0,0,0-1.918,7.558,5.881,5.881,0,0,0,3.146,3.938c3.7,1.694,9.011-.673,9.064-.7l17.944-9.351a.656.656,0,1,1,.606,1.163l-17.976,9.368A17.55,17.55,0,0,1,12.279,167.255Z" fill="#231815"/>
          <path d="M8.545,152.988a.656.656,0,0,1-.441-1.142L44.51,118.911a.656.656,0,0,1,.88.973l-36.4,32.934A.653.653,0,0,1,8.545,152.988Z" fill="#231815"/>
          <g>
            <path d="M58.487,113.725a234.454,234.454,0,0,1-19.573,54.85V153.782s10.993-23.556,13.236-39.829Z" fill="#fff8ee"/>
            <path d="M38.914,169.231a.675.675,0,0,1-.154-.018.656.656,0,0,1-.5-.638V153.782a.67.67,0,0,1,.061-.278c.11-.234,10.978-23.654,13.181-39.641a.656.656,0,0,1,.627-.565l6.336-.228a.6.6,0,0,1,.523.23.656.656,0,0,1,.144.552A237.241,237.241,0,0,1,39.5,168.873.657.657,0,0,1,38.914,169.231Zm.656-15.305V165.8a238.615,238.615,0,0,0,18.1-51.392l-4.951.178C50.421,130.113,40.451,152.01,39.57,153.926Z" fill="#231815"/>
          </g>
          <g>
            <path d="M34.719,151.581l-.08-7.974s5.845-5.019,7.069-6.159,2.706-1.476,3.271-.28c.663,1.429-3.03,5.136-3.214,5.328l5.586-.342s2.5-.2,2.655,1.5c.135,1.4-1.369,1.957-2.355,2.025.243.006,2.286.154,2.373,1.667a1.924,1.924,0,0,1-2.265,1.995s2.257.364,2.221,1.883-.372,1.8-1.262,1.8a3.312,3.312,0,0,1,.876,1.259,1.535,1.535,0,0,1-1.34,2.13c-2.007.342-8.169.456-8.283.456S34.869,156.752,34.719,151.581Z" fill="#f4aeb6"/>
            <path d="M42.488,150.247a.656.656,0,0,1-.03-1.311l5.27-.249c.022,0,.045,0,.066,0a1.62,1.62,0,0,0,1.268-.4,1.115,1.115,0,0,0,.307-.891c-.056-.991-1.716-1.058-1.733-1.058a.656.656,0,0,1,.015-1.312h.016c1,.024,2.911.532,3.012,2.286A2.424,2.424,0,0,1,50,149.206a2.9,2.9,0,0,1-2.24.794l-5.238.247Z" fill="#231815"/>
            <path d="M42.359,146.553a.656.656,0,0,1-.024-1.311c.042,0,4.283-.163,5.239-.222a.813.813,0,0,1,.1,0,2.35,2.35,0,0,0,1.483-.635.843.843,0,0,0,.2-.667c-.095-1.039-1.932-.914-1.951-.911l-5.6.343a.656.656,0,0,1-.08-1.309l5.586-.343c1.076-.089,3.178.238,3.348,2.1a2.158,2.158,0,0,1-.5,1.638,3.668,3.668,0,0,1-2.46,1.1.712.712,0,0,1-.08,0l-.038,0c-1.094.063-5.024.212-5.195.219Z" fill="#231815"/>
            <path d="M39.5,157.458c-.355,0-.643,0-.837-.008-1.779-.05-4.6-1.687-4.6-5.869l-.08-7.967a.657.657,0,0,1,.228-.5c.059-.05,5.85-5.023,7.05-6.141a3.617,3.617,0,0,1,2.964-1.166,1.856,1.856,0,0,1,1.347,1.086c.551,1.187-.559,3.214-3.3,6.029a.744.744,0,0,1-.642.221.659.659,0,0,1-.255-1.181c2.389-2.472,3.192-4.117,3.009-4.513a.546.546,0,0,0-.411-.354,2.506,2.506,0,0,0-1.822.841c-1.091,1.017-5.741,5.019-6.853,5.975l.077,7.669c0,3.65,2.459,4.539,3.321,4.563,1.435.045,7.743-.081,8.531-.184,1.408-.184,2.087-.635,2.019-1.341A.689.689,0,0,0,49,154.1,1.563,1.563,0,0,0,48,153.88a.656.656,0,0,1-.166-1.3,2.852,2.852,0,0,1,1.988.489,2.005,2.005,0,0,1,.734,1.419c.068.7-.1,2.369-3.154,2.767C46.589,157.36,41.724,157.458,39.5,157.458Z" fill="#231815"/>
            <path d="M42.557,154.1a.656.656,0,0,1-.029-1.312c.179-.008,4.391-.2,5.1-.2.072,0,1.652-.018,1.694-1.382.021-.9-1.653-1.213-1.67-1.215a.656.656,0,1,1,.208-1.3c1.048.169,2.812.9,2.773,2.547a2.817,2.817,0,0,1-3,2.658c-.684.006-5.007.2-5.051.2Z" fill="#231815"/>
          </g>
        </g>
        <g>
          <path d="M76.638,148.648l-12.724.64a4.881,4.881,0,0,0-.944.41,1.346,1.346,0,0,1-.664.218,3,3,0,0,1-1.69-.7,1.952,1.952,0,0,1-.95-1.55,2.365,2.365,0,0,1,.716-1.5,11.578,11.578,0,0,1,2.218-1.705,1.147,1.147,0,0,0,.51.485,1.912,1.912,0,0,0,.828.155l12.383-.64a4.418,4.418,0,0,0,.687-.26,4.089,4.089,0,0,0,.592-.346,12.89,12.89,0,0,1,3.17,1.683,2.018,2.018,0,0,1,.3,3.386,2.483,2.483,0,0,1-1.743.736,4.391,4.391,0,0,1-1.4-.437Q77.143,148.851,76.638,148.648Zm-1.033-10.512-10.481.543a3.435,3.435,0,0,1-2.083-.405,1.453,1.453,0,0,1-.735-1.267,1.412,1.412,0,0,1,.3-.8c.2-.284.46-.621.78-1.012.134-.149.272-.311.417-.484s.3-.364.452-.57a.68.68,0,0,0,.323.34,1.219,1.219,0,0,0,.522.1l8.263-.48a4.746,4.746,0,0,0,.939-.213,2.633,2.633,0,0,0,.775-.415,17.968,17.968,0,0,1,2.735,1.416,1.807,1.807,0,0,1,.962,1.417,1.479,1.479,0,0,1-.821,1.289A4.85,4.85,0,0,1,75.605,138.136Z" fill="#121659"/>
          <path d="M62.623,167.3v-6.518a6.457,6.457,0,0,1-1.162,1.374,1.526,1.526,0,0,1-.88.437.829.829,0,0,1-.628-.283,1.1,1.1,0,0,1-.264-.782,8.478,8.478,0,0,1,.282-1.64,23.56,23.56,0,0,0,.458-2.312A6.365,6.365,0,0,0,61.99,156.2a18.906,18.906,0,0,0,1.9-2.641l.153-.33a.176.176,0,0,0-.076-.128,2.057,2.057,0,0,0-.171-.128,6.085,6.085,0,0,1,1.467-.719,4.956,4.956,0,0,1,1.538-.239,1.653,1.653,0,0,1,1.168.367,1.393,1.393,0,0,1,.393,1.07A3.825,3.825,0,0,1,67.952,155a13.568,13.568,0,0,1-1.173,1.992v11.8a5.309,5.309,0,0,1-.576,2.4,1.613,1.613,0,0,1-1.443.788,2,2,0,0,1-1.491-.724,9.451,9.451,0,0,1-1.42-2.14,2.434,2.434,0,0,0,.581-.81A2.5,2.5,0,0,0,62.623,167.3Zm9.039-10.288-.153-1.854a1.594,1.594,0,0,0-.235-.825,1.236,1.236,0,0,0-.669-.464c.094-.07.194-.147.3-.228s.206-.166.3-.251q.891-.681,1.5-1.1a2.119,2.119,0,0,1,1.186-.415,2.7,2.7,0,0,1,1.684.57,1.6,1.6,0,0,1,.745,1.262,1.013,1.013,0,0,1-.17.569,2.6,2.6,0,0,1-.475.528l.07,1.768,2.313-.245.5-.256a10.992,10.992,0,0,0-.8-1.491,2.742,2.742,0,0,0-.892-.852,3.977,3.977,0,0,1,1.145-1.022,2.677,2.677,0,0,1,1.355-.352,2.5,2.5,0,0,1,1.779.7,2.237,2.237,0,0,1,.745,1.683,1.41,1.41,0,0,1-.446,1.1,2.533,2.533,0,0,1-1.374.532,6.069,6.069,0,0,1,1.385,1.487,2.711,2.711,0,0,1,.458,1.421,1.783,1.783,0,0,1-.54,1.315,1.7,1.7,0,0,1-1.232.539,1.983,1.983,0,0,1-.881-.208,3.5,3.5,0,0,1-.857-.623l-2.277.234a12.953,12.953,0,0,0,.717,3.057,3.916,3.916,0,0,0,.938,1.459,4.547,4.547,0,0,0,.8.6,1.32,1.32,0,0,0,.593.208c.11.014.225-.062.346-.23a7.543,7.543,0,0,0,.44-.707c.087-.143.18-.3.282-.48s.227-.372.376-.586l.74.278q-.212.767-.341,1.246a5.855,5.855,0,0,0-.094.937,2.921,2.921,0,0,0,.61,1.576,2.1,2.1,0,0,1,.47,1.022,2.18,2.18,0,0,1-.716,1.667,2.552,2.552,0,0,1-1.808.666q-2.523,0-4.706-2.684a13.738,13.738,0,0,1-2.841-7.573l-1.8.2a3.718,3.718,0,0,1-2.065-.5,1.418,1.418,0,0,1-.752-1.225,2.317,2.317,0,0,1,.435-.937,21.806,21.806,0,0,1,1.4-1.747.547.547,0,0,0,.229.277,1.149,1.149,0,0,0,.393.138Z" fill="#121659"/>
          <path d="M75.558,191.669l-9.5.245a2.134,2.134,0,0,1-.609,1.353,1.536,1.536,0,0,1-1.057.522,2.167,2.167,0,0,1-1.561-.852,7.052,7.052,0,0,1-1.42-2.578,1.826,1.826,0,0,0,.246-.511,2.805,2.805,0,0,0,.117-.639V177.514a1.533,1.533,0,0,0-.2-.591,1.514,1.514,0,0,0-.463-.464,8.772,8.772,0,0,1,1.725-2.066,2.34,2.34,0,0,1,1.491-.7,1.326,1.326,0,0,1,.745.239,1.87,1.87,0,0,1,.605.73l9.084-.266a1.881,1.881,0,0,0,.839-.293,1.549,1.549,0,0,0,.534-.687,18.864,18.864,0,0,1,3.311,1.172q1.114.6,1.114,1.182a.951.951,0,0,1-.146.506,2.48,2.48,0,0,1-.417.5v15.21a.952.952,0,0,1-.6,1.086,5.206,5.206,0,0,1-2.253.373,2.23,2.23,0,0,1-1.256-.272.871.871,0,0,1-.329-.868Zm-9.6-13.527v1.14l9.6-.266v-1.172Zm0,4.282v1.236l9.6-.256v-1.289Zm0,4.58v1.214l9.6-.255v-1.246Z" fill="#121659"/>
        </g>
        <g>
          <g>
            <path d="M39.561,65.291S32.7,64.765,32.7,71.42s8.064,6.072,8.064,6.072" fill="#f4aeb6"/>
            <path d="M101.832,65.291s6.863-.526,6.863,6.129-8.064,6.072-8.064,6.072" fill="#f4aeb6"/>
            <g>
              <path d="M70.687,24.685s35.629-3.025,30.65,49.252c0,0,.24,23.593-20.76,36.3H60.8c-19.812-12.569-20.76-36.3-20.76-36.3C35.059,21.66,70.687,24.685,70.687,24.685" fill="#f4aeb6"/>
              <path d="M70.74,102s-4.908,4.581-7.782,5.256-4.8,1.324-3.834,2.046,2.006,1.123,5.777,1.123H78.382s2.9-.3,3.538-1.031,2.179-.894-.489-1.777S73.609,105.078,70.74,102Z" fill="#121659"/>
              <path d="M80.577,110.9H60.8a.662.662,0,0,1-.352-.1C40.574,98.188,39.392,74.2,39.383,73.964,37.563,54.875,40.9,40.874,49.3,32.387a28.831,28.831,0,0,1,21.387-8.36,28.82,28.82,0,0,1,21.388,8.36c8.4,8.483,11.733,22.473,9.918,41.582,0,1.092-.395,24.315-21.077,36.833A.652.652,0,0,1,80.577,110.9Zm-19.588-1.312h19.4c20.265-12.384,20.29-35.409,20.288-35.641q0-.034,0-.069c1.783-18.719-1.428-32.367-9.542-40.565a27.929,27.929,0,0,0-20.4-7.972.458.458,0,0,1-.111,0,27.994,27.994,0,0,0-20.415,7.988c-8.1,8.2-11.308,21.842-9.526,40.549C40.7,74.144,41.861,97.327,60.989,109.585Z" fill="#231815"/>
              <g>
                <polyline points="47.095 52.098 39.724 65.886 38.086 65.148 38.671 49.95" fill="#121659"/>
                <path d="M39.723,66.5a.613.613,0,0,1-.252-.055l-1.637-.737a.617.617,0,0,1-.362-.584l.585-15.2a.607.607,0,0,1,.638-.591.614.614,0,0,1,.59.638l-.568,14.784.735.331,7.1-13.281a.614.614,0,0,1,1.084.579L40.266,66.175A.614.614,0,0,1,39.723,66.5Z" fill="#231815"/>
              </g>
              <g>
                <polyline points="94.247 52.098 101.618 65.886 103.256 65.148 102.671 49.95" fill="#121659"/>
                <path d="M101.618,66.5a.613.613,0,0,1-.542-.326L93.705,52.387a.614.614,0,0,1,1.084-.579l7.1,13.281.737-.331-.569-14.784a.614.614,0,1,1,1.228-.047l.585,15.2a.617.617,0,0,1-.362.584l-1.637.737A.614.614,0,0,1,101.618,66.5Z" fill="#231815"/>
              </g>
              <path d="M80.384,68.737a3.592,3.592,0,1,0,3.589-3.589A3.583,3.583,0,0,0,80.384,68.737ZM83.923,75.9A7.166,7.166,0,1,1,91.1,68.737,7.165,7.165,0,0,1,83.923,75.9Z" fill="#fff8ee"/>
              <path d="M80.384,68.737a3.592,3.592,0,1,1,3.589,3.582A3.585,3.585,0,0,1,80.384,68.737Zm4.821,0a1.229,1.229,0,1,0-1.232,1.226A1.232,1.232,0,0,0,85.205,68.737Z" fill="#97d2ce"/>
              <path d="M83.973,67.505a1.229,1.229,0,1,1-1.226,1.232A1.232,1.232,0,0,1,83.973,67.505Z" fill="#231815"/>
              <path d="M56.208,68.737a1.229,1.229,0,1,1,1.225,1.226A1.225,1.225,0,0,1,56.208,68.737Z" fill="#231815"/>
              <path d="M56.838,72.319a3.586,3.586,0,1,0-3.6-3.582A3.579,3.579,0,0,0,56.838,72.319Zm.546,3.582a7.171,7.171,0,1,1,7.163-7.164A7.17,7.17,0,0,1,57.384,75.9Z" fill="#fff8ee"/>
              <path d="M53.838,68.737a3.592,3.592,0,1,1,3.595,3.582A3.591,3.591,0,0,1,53.838,68.737Zm4.828,0a1.229,1.229,0,1,0-1.233,1.226A1.232,1.232,0,0,0,58.666,68.737Z" fill="#97d2ce"/>
              <path d="M57.384,76.557a7.827,7.827,0,1,1,7.819-7.82A7.832,7.832,0,0,1,57.384,76.557Zm0-14.341a6.515,6.515,0,1,0,6.507,6.521A6.534,6.534,0,0,0,57.384,62.216Z" fill="#231815"/>
              <path d="M57.433,72.975a4.242,4.242,0,1,1,4.245-4.238A4.249,4.249,0,0,1,57.433,72.975Zm0-7.171a2.93,2.93,0,1,0,2.933,2.933A2.939,2.939,0,0,0,57.433,65.8Z" fill="#231815"/>
              <path d="M55.225,62.372a.656.656,0,0,1-.621-.444l-.885-2.6a.656.656,0,0,1,1.242-.423l.885,2.6a.656.656,0,0,1-.621.867Z" fill="#231815"/>
              <path d="M52.214,64.431a.647.647,0,0,1-.5-.242L49.6,62.124a.656.656,0,1,1,.919-.937L52.675,63.3a.66.66,0,0,1-.461,1.133Z" fill="#231815"/>
              <path d="M60.107,62.645a.643.643,0,0,1-.21-.035.657.657,0,0,1-.411-.832l.886-2.608a.656.656,0,1,1,1.242.421L60.728,62.2A.654.654,0,0,1,60.107,62.645Z" fill="#231815"/>
              <path d="M63.1,64.7a.656.656,0,0,1-.461-1.124l2.166-2.131a.656.656,0,1,1,.92.935l-2.165,2.132A.657.657,0,0,1,63.1,64.7Z" fill="#231815"/>
              <path d="M83.923,76.557a7.822,7.822,0,1,1,7.833-7.82A7.829,7.829,0,0,1,83.923,76.557Zm0-14.341a6.523,6.523,0,1,0,4.7,2.005A6.522,6.522,0,0,0,83.923,62.216Z" fill="#231815"/>
              <path d="M83.973,72.975a4.242,4.242,0,1,1,4.251-4.238A4.246,4.246,0,0,1,83.973,72.975Zm0-7.171a2.93,2.93,0,1,0,2.939,2.933A2.937,2.937,0,0,0,83.973,65.8Z" fill="#231815"/>
              <path d="M86.088,62.372a.648.648,0,0,1-.211-.035.656.656,0,0,1-.41-.832l.886-2.6a.656.656,0,0,1,1.242.423l-.886,2.6A.654.654,0,0,1,86.088,62.372Z" fill="#231815"/>
              <path d="M89.088,64.426a.653.653,0,0,1-.467-1.11l2.17-2.129a.656.656,0,0,1,.918.937l-2.152,2.111A.667.667,0,0,1,89.088,64.426Z" fill="#231815"/>
              <path d="M81.206,62.645a.655.655,0,0,1-.621-.446L79.7,59.591a.656.656,0,1,1,1.242-.421l.885,2.608a.656.656,0,0,1-.41.832A.648.648,0,0,1,81.206,62.645Z" fill="#231815"/>
              <path d="M78.2,64.7a.654.654,0,0,1-.461-.189l-2.159-2.131a.656.656,0,0,1,.922-.934l2.159,2.131A.656.656,0,0,1,78.2,64.7Z" fill="#231815"/>
            </g>
            <path d="M70.687,83.9a4.032,4.032,0,0,1-3.257-1.667,3.884,3.884,0,0,1-.722-3.339c.457-1.508,2.913-8.183,3.319-9.287a.668.668,0,0,1,.113-.292.689.689,0,0,1,1.085,0,.671.671,0,0,1,.114.27c.381,1.034,2.867,7.79,3.328,9.309a3.888,3.888,0,0,1-.723,3.339A4.029,4.029,0,0,1,70.687,83.9Zm0-12.283c-.872,2.382-2.387,6.547-2.724,7.657a2.642,2.642,0,0,0,.521,2.179,2.705,2.705,0,0,0,4.406,0,2.639,2.639,0,0,0,.521-2.179C73.074,78.159,71.56,73.994,70.687,71.612Z" fill="#231815"/>
            <path d="M39.887,78.162a9.093,9.093,0,0,1-5.96-2,6.182,6.182,0,0,1-1.886-4.746,6.464,6.464,0,0,1,1.922-4.967,8.178,8.178,0,0,1,5.648-1.816.656.656,0,0,1-.1,1.308,6.969,6.969,0,0,0-4.663,1.476,5.216,5.216,0,0,0-1.5,4,4.926,4.926,0,0,0,1.462,3.78c2.013,1.87,5.466,1.639,5.5,1.637a.656.656,0,0,1,.1,1.309C40.381,78.148,40.19,78.162,39.887,78.162Z" fill="#231815"/>
            <path d="M39.806,71.788H36.468a.656.656,0,1,1,0-1.312h3.338a.656.656,0,1,1,0,1.312Z" fill="#231815"/>
            <path d="M101.505,78.162c-.3,0-.494-.014-.527-.016a.656.656,0,0,1,.1-1.309c.035,0,3.488.233,5.5-1.637a4.929,4.929,0,0,0,1.461-3.78,5.216,5.216,0,0,0-1.5-4,6.956,6.956,0,0,0-4.663-1.476.656.656,0,0,1-.1-1.308,8.174,8.174,0,0,1,5.647,1.816,6.464,6.464,0,0,1,1.922,4.967,6.182,6.182,0,0,1-1.886,4.746A9.092,9.092,0,0,1,101.505,78.162Z" fill="#231815"/>
            <path d="M104.925,71.788h-3.338a.656.656,0,1,1,0-1.312h3.338a.656.656,0,1,1,0,1.312Z" fill="#231815"/>
          </g>
          <g>
            <path d="M90.2,94.474a2,2,0,0,0,1.923-2.386c-.281-.924-1.928-5.389-1.928-5.389h.01s-1.647,4.465-1.928,5.389A2,2,0,0,0,90.2,94.474Z" fill="#97d2ce"/>
            <path d="M90.2,95.13a2.589,2.589,0,0,1-2.093-1.069,2.512,2.512,0,0,1-.457-2.164c.261-.861,1.64-4.611,1.9-5.316a.628.628,0,0,1,.107-.256.684.684,0,0,1,1.081,0,.663.663,0,0,1,.105.237c.241.653,1.643,4.466,1.907,5.336a2.509,2.509,0,0,1-.457,2.163A2.589,2.589,0,0,1,90.2,95.13Zm0-6.51c-.5,1.36-1.134,3.128-1.3,3.658a1.249,1.249,0,0,0,.256,1,1.272,1.272,0,0,0,2.078,0,1.249,1.249,0,0,0,.256-1C91.333,91.748,90.7,89.98,90.2,88.62Z" fill="#231815"/>
          </g>
          <g>
            <path d="M48.849,89.6a2,2,0,0,0,1.922-2.386c-.28-.924-1.928-5.388-1.928-5.388h.011s-1.648,4.464-1.928,5.388A2,2,0,0,0,48.849,89.6Z" fill="#97d2ce"/>
            <path d="M48.849,90.254a2.59,2.59,0,0,1-2.094-1.069,2.518,2.518,0,0,1-.457-2.164c.262-.861,1.641-4.611,1.9-5.316a.656.656,0,0,1,.107-.256.662.662,0,0,1,1.187.237c.241.653,1.643,4.466,1.907,5.336a2.513,2.513,0,0,1-.458,2.163A2.586,2.586,0,0,1,48.849,90.254Zm0-6.51c-.5,1.36-1.134,3.128-1.295,3.658a1.252,1.252,0,0,0,.255,1,1.273,1.273,0,0,0,2.079,0,1.244,1.244,0,0,0,.255-1C49.983,86.872,49.345,85.1,48.849,83.744Z" fill="#231815"/>
          </g>
          <path d="M70.512,95.357V98.74a15.424,15.424,0,0,1-4.2-.547V95.357Z" fill="#fff"/>
          <path d="M66.316,95.357v2.836A11.439,11.439,0,0,1,61.3,95.357Z" fill="#fff"/>
          <path d="M74.707,95.357h5.025a11.377,11.377,0,0,1-5.025,2.836Z" fill="#fff"/>
          <path d="M74.707,95.357v2.836a15.354,15.354,0,0,1-4.186.547h-.009V95.357Z" fill="#fff"/>
          <rect x="62.121" y="86.911" width="4.195" height="3.457" fill="#fff"/>
          <rect x="66.316" y="86.911" width="4.195" height="3.457" fill="#fff"/>
          <path d="M62.121,86.911v3.457H58.646a4.107,4.107,0,0,1,0-.666,3.054,3.054,0,0,1,2.9-2.791Z" fill="#fff"/>
          <rect x="74.707" y="86.911" width="4.204" height="3.457" fill="#fff"/>
          <rect x="70.512" y="86.911" width="4.195" height="3.457" fill="#fff"/>
          <path d="M82.377,89.7a4.107,4.107,0,0,1,0,.666H78.911V86.911h.575A3.041,3.041,0,0,1,82.377,89.7Z" fill="#fff"/>
          <path d="M78.911,90.368h3.466a8.505,8.505,0,0,1-2.645,4.989H61.3a8.526,8.526,0,0,1-2.654-4.989H78.911Z" fill="#e84572"/>
          <path d="M70.521,99.4h-.01a16.172,16.172,0,0,1-4.373-.571,12.03,12.03,0,0,1-5.3-3,9.154,9.154,0,0,1-2.847-5.4,4.667,4.667,0,0,1,0-.785,3.666,3.666,0,0,1,3.528-3.387H79.486A3.656,3.656,0,0,1,83.03,89.64a4.69,4.69,0,0,1,0,.778,9.164,9.164,0,0,1-2.84,5.407,11.965,11.965,0,0,1-5.308,3A16.112,16.112,0,0,1,70.521,99.4ZM61.546,87.568a2.354,2.354,0,0,0-2.247,2.2,3.377,3.377,0,0,0,0,.551,7.864,7.864,0,0,0,2.457,4.569,10.754,10.754,0,0,0,4.735,2.676,14.86,14.86,0,0,0,4.019.522h.01a14.8,14.8,0,0,0,4.008-.522,10.694,10.694,0,0,0,4.741-2.671,7.815,7.815,0,0,0,2.453-4.579,3.367,3.367,0,0,0,0-.55,2.348,2.348,0,0,0-2.267-2.2Z" fill="#231815"/>
          <path d="M82.4,91.024H58.646a.66.66,0,0,1-.66-.656.651.651,0,0,1,.651-.656h23.74a.663.663,0,0,1,.665.656A.648.648,0,0,1,82.4,91.024Z" fill="#231815"/>
          <path d="M70.511,91.024a.656.656,0,0,1-.656-.656V86.912a.656.656,0,0,1,1.312,0v3.456A.656.656,0,0,1,70.511,91.024Z" fill="#231815"/>
          <path d="M66.316,91.024a.656.656,0,0,1-.656-.656V86.912a.656.656,0,0,1,1.312,0v3.456A.656.656,0,0,1,66.316,91.024Z" fill="#231815"/>
          <path d="M62.121,91.024a.656.656,0,0,1-.656-.656V86.912a.656.656,0,1,1,1.312,0v3.456A.656.656,0,0,1,62.121,91.024Z" fill="#231815"/>
          <path d="M74.707,91.024a.656.656,0,0,1-.656-.656V86.912a.656.656,0,0,1,1.312,0v3.456A.656.656,0,0,1,74.707,91.024Z" fill="#231815"/>
          <path d="M70.511,99.4a.656.656,0,0,1-.656-.656V95.357a.656.656,0,1,1,1.312,0V98.74A.655.655,0,0,1,70.511,99.4Z" fill="#231815"/>
          <path d="M66.316,98.849a.656.656,0,0,1-.656-.656V95.357a.656.656,0,1,1,1.312,0v2.836A.656.656,0,0,1,66.316,98.849Z" fill="#231815"/>
          <path d="M74.707,98.849a.656.656,0,0,1-.656-.656V95.357a.656.656,0,1,1,1.312,0v2.836A.656.656,0,0,1,74.707,98.849Z" fill="#231815"/>
          <path d="M78.911,91.024a.656.656,0,0,1-.656-.656V86.912a.656.656,0,0,1,1.312,0v3.456A.656.656,0,0,1,78.911,91.024Z" fill="#231815"/>
          <path d="M79.732,96.013H61.3a.657.657,0,0,1,0-1.313H79.732a.657.657,0,0,1,0,1.313Z" fill="#231815"/>
          <path d="M82.915,54.521a.656.656,0,0,1-.656-.656c0-.141-.026-3.457-2.29-3.457s-2.28,3.316-2.28,3.457a.657.657,0,0,1-1.313,0c0-1.771.757-4.769,3.593-4.769s3.6,3,3.6,4.769A.655.655,0,0,1,82.915,54.521Z" fill="#231815"/>
          <path d="M63.033,54.521a.656.656,0,0,1-.656-.656c0-.141-.026-3.457-2.29-3.457s-2.281,3.316-2.281,3.457a.656.656,0,0,1-1.312,0c0-1.771.757-4.769,3.593-4.769s3.6,3,3.6,4.769A.656.656,0,0,1,63.033,54.521Z" fill="#231815"/>
          <g>
            <path d="M43.58,52.085H23.257s.842-9.7,22.566-9.7" fill="#121659"/>
            <path d="M43.58,52.7H23.257a.615.615,0,0,1-.613-.667c.037-.419,1.145-10.26,23.18-10.26a.615.615,0,0,1,0,1.229c-17.43,0-21.059,6.357-21.783,8.47H43.58a.614.614,0,1,1,0,1.228Z" fill="#231815"/>
          </g>
          <g>
            <path d="M36.467,52.085h68.4s5.09-38.914-34.743-38.914C33.288,13.171,36.467,52.085,36.467,52.085Z" fill="#e84572"/>
            <path d="M104.869,52.741h-68.4a.655.655,0,0,1-.653-.6c-.061-.745-1.369-18.384,9.318-29.979,5.9-6.4,14.307-9.644,24.995-9.644,12.046,0,21.25,3.527,27.356,10.484,10.2,11.619,8.13,28.46,8.037,29.171A.656.656,0,0,1,104.869,52.741Zm-67.78-1.312h67.187c.265-3.044,1-17.572-7.785-27.571C90.645,17.2,81.775,13.827,70.127,13.827c-10.307,0-18.392,3.1-24.03,9.22C36.875,33.053,36.96,48.232,37.089,51.429Z" fill="#231815"/>
          </g>
          <path d="M64.048,46.777s-8.66.715-7.074-1.563,3.906-7.468,13.411-7.32,11.864,5.674,11.864,5.674,3.61,3.209-.221,3.209Z" fill="#121659"/>
          <path d="M85.016,52.808a.656.656,0,0,1-.656-.656,17.429,17.429,0,0,0-1.585-6.612c-2.052-4.321-5.69-6.6-10.813-6.787-5.353-.187-9.468,1.109-12.22,3.863a14,14,0,0,0-3.711,9.444.657.657,0,0,1-.631.68.666.666,0,0,1-.68-.629A15.081,15.081,0,0,1,58.8,41.7c3.019-3.031,7.465-4.462,13.207-4.259,13.506.482,13.663,14.567,13.663,14.71a.657.657,0,0,1-.656.656Z" fill="#231815"/>
          <path d="M83.95,47.433H56.35a.656.656,0,0,1,0-1.312h27.6a.656.656,0,0,1,0,1.312Z" fill="#231815"/>
          <g>
            <path d="M92.584,54.658a2,2,0,0,0,1.922-2.386c-.28-.924-1.927-5.389-1.927-5.389h.01s-1.648,4.465-1.928,5.389A2,2,0,0,0,92.584,54.658Z" fill="#97d2ce"/>
            <path d="M92.584,55.314a2.589,2.589,0,0,1-2.093-1.069,2.514,2.514,0,0,1-.458-2.163c.262-.863,1.643-4.618,1.9-5.319a.65.65,0,0,1,.107-.255.686.686,0,0,1,1.081,0,.708.708,0,0,1,.105.237c.239.648,1.643,4.466,1.907,5.336a2.515,2.515,0,0,1-.457,2.164A2.592,2.592,0,0,1,92.584,55.314Zm0-6.51c-.5,1.36-1.134,3.128-1.3,3.659a1.244,1.244,0,0,0,.255,1,1.272,1.272,0,0,0,2.079,0,1.246,1.246,0,0,0,.256-1C93.717,51.932,93.08,50.164,92.584,48.8Z" fill="#231815"/>
          </g>
          <path d="M83.135,108.848a.574.574,0,0,1-.141-.018,30.989,30.989,0,0,1-12.228-6.048,21.744,21.744,0,0,1-12.554,6.064.562.562,0,0,1-.092-1.121,20.946,20.946,0,0,0,12.21-6.11.564.564,0,0,1,.4-.178.6.6,0,0,1,.405.16,29.182,29.182,0,0,0,12.144,6.144.563.563,0,0,1-.141,1.107Z" fill="#231815"/>
        </g>
      </g>
    </g>
  </g>
</svg>
